M48
INCH
T1C0.0100
T2C0.0250
T3C0.0280
T4C0.0320
T5C0.0394
T6C0.0400
T7C0.0433
T8C0.0550
T9C0.1102
T10C0.1181
T11C0.1500
T12C0.1575
%
G05
M72
T1
X2.8052Y1.9941
X2.0424Y1.2831
X2.2048Y1.2731
X1.1839Y2.6276
X1.3548Y2.6304
X2.4900Y1.7655
X2.9621Y0.9571
X1.9323Y1.2863
X3.1146Y3.0417
X1.7091Y1.5140
T2
X0.5750Y1.2000
X0.3750Y1.2000
X0.4750Y1.2000
T3
X0.4000Y0.2500
X0.9000Y0.8500
X0.9000Y0.2500
X0.8000Y0.8500
X1.1000Y0.8500
X1.7000Y0.8500
X1.3000Y0.2500
X0.5000Y0.2500
X1.6000Y0.2500
X1.3000Y0.8500
X1.0000Y0.2500
X1.4000Y0.8500
X0.4000Y0.8500
X0.6000Y0.8500
X1.7000Y0.2500
X1.8000Y0.8500
X1.6000Y0.8500
X1.5000Y0.8500
X0.6000Y0.2500
X1.4000Y0.2500
X0.7000Y0.8500
X1.1000Y0.2500
X1.5000Y0.2500
X1.8000Y0.2500
X1.2000Y0.2500
X0.7000Y0.2500
X0.8000Y0.2500
X1.0000Y0.8500
X0.5000Y0.8500
X1.2000Y0.8500
T4
X2.5500Y0.9000
X2.4500Y0.9000
X2.2500Y1.1000
X2.6500Y1.1000
X0.2750Y2.8000
X0.7750Y2.8000
X0.4750Y2.9000
X1.6500Y1.1000
X1.2500Y1.1000
X2.1500Y1.2500
X2.3500Y1.2500
X2.8500Y3.1000
X2.4500Y3.1000
X1.0500Y2.5000
X1.4500Y2.5000
X3.2000Y0.9000
X3.1000Y0.9000
X1.0500Y2.7000
X1.4500Y2.7000
X0.2000Y1.5000
X0.2000Y1.7000
X0.8000Y2.1500
X0.8000Y1.9500
X1.7500Y1.1000
X2.1500Y1.1000
X2.4500Y1.2500
X2.8500Y1.2500
X0.8000Y0.6500
X0.6000Y0.6500
X2.8500Y3.2000
X2.4500Y3.2000
X2.2000Y0.3000
X2.2000Y0.2000
X1.4500Y3.1000
X1.0500Y3.1000
X0.7000Y2.1500
X0.7000Y1.9500
X2.2000Y0.8500
X2.2000Y0.4500
X2.8750Y0.9000
X2.7750Y0.9000
X3.8500Y0.9000
X3.7500Y0.9000
X0.4250Y3.0500
X0.6250Y3.0500
X1.8000Y0.6250
X1.5000Y0.6250
X2.8500Y3.0000
X2.4500Y3.0000
X0.7500Y1.1000
X1.1500Y1.1000
X1.9750Y2.4250
X2.3750Y2.4250
X2.4500Y2.8000
X2.8500Y2.8000
X0.8000Y0.5000
X0.4000Y0.5000
X2.8500Y2.9000
X2.4500Y2.9000
X1.2500Y1.2500
X1.6500Y1.2500
X3.5250Y0.9000
X3.4250Y0.9000
X1.0500Y2.6000
X1.4500Y2.6000
X1.1500Y1.2500
X0.9500Y1.2500
X3.6500Y1.1000
X3.2500Y1.1000
X3.3500Y1.2500
X2.9500Y1.2500
X3.8500Y1.2500
X3.4500Y1.2500
X1.5000Y0.5000
X1.8000Y0.5000
X2.7500Y1.1000
X3.1500Y1.1000
X2.0000Y1.6250
X2.7000Y1.6250
X1.9000Y1.6250
X2.8000Y1.6250
X2.6000Y1.6250
X2.4000Y1.6250
X2.3000Y1.6250
X2.1000Y1.6250
X2.2000Y1.6250
X2.5000Y1.6250
X2.8500Y2.5000
X2.5500Y2.5000
X2.7500Y2.5000
X2.6500Y2.5000
X1.5750Y2.5250
X1.7750Y2.5250
X2.0500Y3.0500
X1.6500Y2.7500
X1.7500Y2.7500
X1.9500Y3.0500
X1.8500Y3.0500
X1.8500Y2.7500
X2.2500Y2.7500
X2.2500Y3.0500
X1.7500Y3.0500
X1.6500Y3.0500
X2.0500Y2.7500
X2.1500Y2.7500
X2.1500Y3.0500
X1.9500Y2.7500
X2.4500Y3.3000
X2.8500Y3.3000
X1.0500Y3.0000
X1.4500Y3.0000
X1.4500Y2.9000
X1.0500Y2.9000
X1.4500Y2.8000
X1.0500Y2.8000
X1.9750Y2.5500
X2.1750Y2.5500
X2.6000Y1.9000
X2.9000Y1.9000
X2.8000Y2.2000
X2.3000Y1.9000
X2.9000Y2.2000
X2.0000Y2.2000
X2.2000Y2.2000
X3.1000Y1.9000
X2.1000Y2.2000
X2.6000Y2.2000
X3.1000Y2.2000
X3.2000Y2.2000
X1.9000Y2.2000
X2.5000Y2.2000
X3.2000Y1.9000
X1.9000Y1.9000
X2.7000Y2.2000
X2.5000Y1.9000
X3.0000Y2.2000
X3.0000Y1.9000
X2.2000Y1.9000
X2.4000Y2.2000
X2.0000Y1.9000
X2.1000Y1.9000
X2.3000Y2.2000
X2.4000Y1.9000
X2.8000Y1.9000
X2.7000Y1.9000
X3.8000Y2.5000
X3.3000Y2.5000
X3.5000Y2.8000
X3.8000Y2.8000
X3.4000Y2.8000
X3.2000Y2.5000
X3.6000Y2.8000
X3.5000Y2.5000
X3.6000Y2.5000
X3.7000Y2.5000
X3.4000Y2.5000
X3.3000Y2.8000
X3.2000Y2.8000
X3.7000Y2.8000
X0.5000Y3.6000
X0.6000Y3.6000
X1.7000Y3.6000
X1.8000Y3.6000
X2.4000Y3.6000
X2.5000Y3.6000
X3.6000Y3.6000
X3.7000Y3.6000
X3.4250Y3.3000
X3.0250Y3.3000
X3.4250Y3.2000
X3.0250Y3.2000
X3.4250Y3.0000
X3.0250Y3.0000
X3.4250Y3.1000
X3.0250Y3.1000
X3.6000Y3.0000
X3.8000Y3.0000
X4.4750Y3.2000
X4.3750Y3.2000
X4.4750Y2.7000
X4.3750Y2.7000
X4.4750Y2.1000
X4.3750Y2.1000
X4.4750Y1.6000
X4.3750Y1.6000
X3.5000Y2.3000
X3.9000Y2.3000
X3.5000Y2.1750
X3.9000Y2.1750
X3.5000Y2.0500
X3.9000Y2.0500
X3.5000Y1.9250
X3.9000Y1.9250
X3.5000Y1.7250
X3.6000Y1.4250
X3.3000Y1.7250
X3.4000Y1.7250
X3.5000Y1.4250
X3.3000Y1.4250
X3.6000Y1.7250
X3.8000Y1.7250
X3.7000Y1.7250
X3.8000Y1.4250
X3.7000Y1.4250
X3.1000Y1.7250
X3.1000Y1.4250
X3.2000Y1.7250
X3.4000Y1.4250
X3.2000Y1.4250
T5
X1.1500Y3.2500
X1.2500Y3.2500
X1.8500Y3.2500
X1.3500Y3.2500
X0.6500Y3.2500
X1.9500Y3.2500
X0.8500Y3.2500
X1.7500Y3.2500
X0.9500Y3.2500
X0.7500Y3.2500
X1.6500Y3.2500
X0.4500Y3.2500
X1.0500Y3.2500
X0.5500Y3.2500
X1.4500Y3.2500
X1.5500Y3.2500
X0.5431Y2.4571G85X0.5431Y2.5358
X0.3817Y2.3035G85X0.4683Y2.3035
X0.3069Y2.4571G85X0.3069Y2.5358
T6
X3.9000Y0.4000
X3.7000Y0.7000
X3.7000Y0.4000
X3.9000Y0.7000
X3.2500Y0.4000
X3.0500Y0.7000
X3.0500Y0.4000
X3.2500Y0.7000
X2.6000Y0.4000
X2.4000Y0.7000
X2.4000Y0.4000
X2.6000Y0.7000
X3.5750Y0.4000
X3.3750Y0.7000
X3.3750Y0.4000
X3.5750Y0.7000
X2.9250Y0.4000
X2.7250Y0.7000
X2.7250Y0.4000
X2.9250Y0.7000
T7
X1.3000Y0.6250
X1.0000Y0.6250
X1.0000Y0.5000
X1.3000Y0.5000
X4.2250Y0.4000
X4.2250Y0.9709
X4.3234Y0.9709
X4.4219Y0.9709
X4.4219Y0.4000
X0.7500Y2.6500
X0.7500Y2.3500
T8
X0.9250Y1.9500
X0.9250Y2.0500
X0.9250Y2.1500
X0.3750Y1.5000
X0.3750Y1.6000
X0.3750Y1.7000
T9
X4.5793Y0.6953
X4.0675Y0.6953
T10
X4.5000Y3.7500
X0.2000Y0.2000
X0.1500Y3.2500
X3.8250Y1.0750
X0.1500Y1.0750
X3.8250Y3.2500
X4.5250Y0.2000
X0.2000Y3.7500
T11
X1.6250Y2.0500
X1.0750Y1.6000
T12
X3.3000Y3.6000
X2.8000Y3.6000
X1.4000Y3.6000
X0.9000Y3.6000
X2.1000Y3.6000
X4.2500Y3.4000
X4.2500Y2.9000
X4.2500Y2.3500
X4.2500Y1.8500
X4.2500Y1.3000
T0
M30
