%FSLAX24Y24*%
%MOIN*%
%ADD10C,0.0100*%
%ADD11C,0.0200*%
%ADD12C,0.0300*%
%ADD13C,0.0500*%
%ADD14C,0.0520*%
%ADD15C,0.0591*%
%ADD16C,0.0600*%
%ADD17C,0.0700*%
%ADD18C,0.0709*%
%ADD19C,0.0750*%
%ADD20C,0.1575*%
%ADD21C,0.2362*%
%ADD22C,0.3150*%
D10*
G01X10500Y27000D02*
X9000Y28500D01*
X9000Y28500D02*
X9000Y36000D01*
X8000Y6500D02*
X7999Y5000D01*
X21999Y16250D02*
X22348Y15901D01*
X22348Y15901D02*
X22348Y12499D01*
X22348Y12499D02*
X23919Y10928D01*
X23919Y10928D02*
X23919Y8244D01*
X23919Y8244D02*
X27250Y4913D01*
X27250Y4913D02*
X27250Y4000D01*
X23000Y21999D02*
X21452Y20452D01*
X21452Y20452D02*
X21452Y16702D01*
X21452Y16702D02*
X21000Y16250D01*
X25000Y21999D02*
X24589Y21589D01*
X24589Y21589D02*
X24589Y16660D01*
X24589Y16660D02*
X25000Y16250D01*
X28000Y16250D02*
X29000Y15250D01*
X29000Y15250D02*
X29000Y12089D01*
X29000Y12089D02*
X29320Y11769D01*
X29320Y11769D02*
X29320Y9342D01*
X29320Y9342D02*
X33762Y4900D01*
X33762Y4900D02*
X36099Y4900D01*
X36099Y4900D02*
X37000Y4000D01*
X17500Y11000D02*
X17500Y7370D01*
X17500Y7370D02*
X18426Y6443D01*
X18426Y6443D02*
X18426Y3660D01*
X18426Y3660D02*
X17500Y2734D01*
X17500Y2734D02*
X17500Y2334D01*
X17500Y2334D02*
X17206Y2040D01*
X17206Y2040D02*
X8459Y2040D01*
X8459Y2040D02*
X8000Y2500D01*
X21999Y21999D02*
X20500Y20500D01*
X20500Y20500D02*
X20500Y17750D01*
X20500Y17750D02*
X18999Y16250D01*
X7500Y11000D02*
X7500Y5000D01*
X7500Y5000D02*
X5000Y2500D01*
X28051Y19941D02*
X29500Y21389D01*
X29500Y21389D02*
X29500Y22339D01*
X29500Y22339D02*
X30736Y23575D01*
X30736Y23575D02*
X31548Y23575D01*
X31548Y23575D02*
X32410Y24437D01*
X32410Y24437D02*
X32410Y27410D01*
X32410Y27410D02*
X33000Y28000D01*
X33000Y28000D02*
X34250Y29250D01*
X34250Y29250D02*
X34250Y30000D01*
X6499Y32500D02*
X4750Y30750D01*
X4750Y30750D02*
X4749Y28999D01*
X23999Y16250D02*
X24000Y11413D01*
X24000Y11413D02*
X30500Y4913D01*
X30500Y4913D02*
X30500Y4000D01*
X20424Y12830D02*
X18589Y14665D01*
X18589Y14665D02*
X18589Y17589D01*
X18589Y17589D02*
X20000Y18999D01*
X30249Y32000D02*
X29839Y32410D01*
X29839Y32410D02*
X29839Y36600D01*
X29839Y36600D02*
X28712Y37728D01*
X28712Y37728D02*
X19728Y37728D01*
X19728Y37728D02*
X18000Y36000D01*
X4000Y2500D02*
X4000Y5000D01*
X25000Y36000D02*
X25000Y35909D01*
X25000Y35909D02*
X28480Y32429D01*
X28480Y32429D02*
X28820Y32429D01*
X28820Y32429D02*
X30249Y31000D01*
X21000Y18999D02*
X21000Y17786D01*
X21000Y17786D02*
X20589Y17376D01*
X20589Y17376D02*
X20589Y14189D01*
X20589Y14189D02*
X22047Y12730D01*
X37000Y14250D02*
X37476Y14726D01*
X37476Y14726D02*
X37476Y20807D01*
X37476Y20807D02*
X39761Y23092D01*
X39761Y23092D02*
X39761Y26261D01*
X39761Y26261D02*
X42500Y29000D01*
X38500Y12500D02*
X37264Y12500D01*
X37264Y12500D02*
X35250Y10485D01*
X35250Y10485D02*
X35250Y9000D01*
X24500Y29000D02*
X24500Y30000D01*
X11838Y26275D02*
X12100Y26014D01*
X12100Y26014D02*
X12100Y13914D01*
X12100Y13914D02*
X11000Y12814D01*
X11000Y12814D02*
X11000Y8500D01*
X16499Y32500D02*
X16929Y32070D01*
X16929Y32070D02*
X16929Y23970D01*
X16929Y23970D02*
X17600Y23300D01*
X17600Y23300D02*
X17600Y14522D01*
X17600Y14522D02*
X17089Y14012D01*
X17089Y14012D02*
X17089Y9900D01*
X17089Y9900D02*
X16548Y9358D01*
X16548Y9358D02*
X16548Y2951D01*
X16548Y2951D02*
X17000Y2500D01*
X20000Y16250D02*
X20000Y14250D01*
X20000Y14250D02*
X20965Y13284D01*
X20965Y13284D02*
X20965Y7034D01*
X20965Y7034D02*
X24000Y4000D01*
X32000Y14250D02*
X32500Y14750D01*
X32500Y14750D02*
X32500Y21234D01*
X32500Y21234D02*
X35020Y23754D01*
X35020Y23754D02*
X35575Y23754D01*
X35575Y23754D02*
X36500Y24679D01*
X36500Y24679D02*
X36500Y25439D01*
X36500Y25439D02*
X42500Y31439D01*
X42500Y31439D02*
X42500Y34000D01*
X15500Y32500D02*
X15339Y32339D01*
X15339Y32339D02*
X15339Y23766D01*
X15339Y23766D02*
X14899Y23326D01*
X14899Y23326D02*
X14899Y12176D01*
X14899Y12176D02*
X15500Y11576D01*
X15500Y11576D02*
X15500Y3000D01*
X15500Y3000D02*
X15999Y2500D01*
X26000Y16250D02*
X26000Y13895D01*
X26000Y13895D02*
X29120Y10774D01*
X29120Y10774D02*
X29120Y9216D01*
X29120Y9216D02*
X33750Y4586D01*
X33750Y4586D02*
X33749Y4000D01*
X36499Y11000D02*
X38500Y9000D01*
X13000Y8500D02*
X13000Y6250D01*
X13548Y26304D02*
X13548Y9048D01*
X13548Y9048D02*
X13000Y8500D01*
X13000Y6250D02*
X13000Y5000D01*
X24500Y9000D02*
X24500Y10630D01*
X24500Y10630D02*
X22586Y12544D01*
X22586Y12544D02*
X22586Y18586D01*
X22586Y18586D02*
X23000Y18999D01*
X27500Y11000D02*
X27500Y10250D01*
X27500Y10250D02*
X28750Y9000D01*
X34999Y20500D02*
X36000Y19500D01*
X36000Y19500D02*
X36000Y17250D01*
X24900Y17655D02*
X25500Y17055D01*
X25500Y17055D02*
X25500Y11250D01*
X25500Y11250D02*
X27750Y9000D01*
X33000Y14250D02*
X29620Y10870D01*
X29620Y10870D02*
X29620Y9571D01*
X34999Y21750D02*
X33500Y20250D01*
X33500Y20250D02*
X33500Y14750D01*
X33500Y14750D02*
X33000Y14250D01*
X38999Y21750D02*
X40297Y23047D01*
X40297Y23047D02*
X40297Y24311D01*
X40297Y24311D02*
X44229Y28243D01*
X44229Y28243D02*
X44229Y31520D01*
X44229Y31520D02*
X43750Y31999D01*
X33500Y12500D02*
X33500Y10500D01*
X33500Y10500D02*
X32000Y9000D01*
X15000Y2500D02*
X14450Y3049D01*
X14450Y3049D02*
X14450Y23885D01*
X14450Y23885D02*
X14086Y24248D01*
X14086Y24248D02*
X14086Y31803D01*
X14086Y31803D02*
X14500Y32217D01*
X14500Y32217D02*
X14499Y32500D01*
X24500Y32000D02*
X24500Y33000D01*
X17499Y32500D02*
X18078Y31921D01*
X18078Y31921D02*
X18078Y26454D01*
X18078Y26454D02*
X18178Y26354D01*
X18178Y26354D02*
X18178Y12860D01*
X18178Y12860D02*
X18626Y12412D01*
X18626Y12412D02*
X18626Y3126D01*
X18626Y3126D02*
X18000Y2500D01*
X26000Y21999D02*
X26500Y21500D01*
X26500Y21500D02*
X26500Y16750D01*
X26500Y16750D02*
X26999Y16250D01*
X36000Y14250D02*
X36413Y14663D01*
X36413Y14663D02*
X36413Y21586D01*
X36413Y21586D02*
X34999Y23000D01*
X7499Y32500D02*
X8160Y31839D01*
X8160Y31839D02*
X8160Y27349D01*
X8160Y27349D02*
X9911Y25598D01*
X9911Y25598D02*
X9911Y19285D01*
X9911Y19285D02*
X9086Y18460D01*
X9086Y18460D02*
X9086Y10783D01*
X9086Y10783D02*
X9495Y10374D01*
X9495Y10374D02*
X9495Y3004D01*
X9495Y3004D02*
X10000Y2500D01*
X9499Y32500D02*
X9500Y30262D01*
X9500Y30262D02*
X10191Y29570D01*
X10191Y29570D02*
X10515Y29570D01*
X10515Y29570D02*
X12308Y27776D01*
X12308Y27776D02*
X12308Y13438D01*
X12308Y13438D02*
X12070Y13200D01*
X12070Y13200D02*
X12070Y10191D01*
X12070Y10191D02*
X11500Y9620D01*
X11500Y9620D02*
X11500Y3000D01*
X11500Y3000D02*
X11000Y2500D01*
X32000Y25000D02*
X31577Y25422D01*
X31577Y25422D02*
X31577Y30327D01*
X31577Y30327D02*
X34250Y33000D01*
X5499Y32500D02*
X5500Y32455D01*
X5500Y32455D02*
X4250Y31205D01*
X4250Y31205D02*
X4249Y30500D01*
X21499Y12500D02*
X21500Y11000D01*
X14500Y26000D02*
X14500Y27000D01*
X14500Y25000D02*
X14500Y26000D01*
X28500Y30000D02*
X24331Y34168D01*
X24331Y34168D02*
X15831Y34168D01*
X15831Y34168D02*
X13999Y36000D01*
X18999Y18999D02*
X18378Y18378D01*
X18378Y18378D02*
X18378Y13807D01*
X18378Y13807D02*
X19322Y12863D01*
X16500Y27500D02*
X16000Y28000D01*
X16000Y28000D02*
X16000Y32849D01*
X16000Y32849D02*
X15683Y33166D01*
X15683Y33166D02*
X15308Y33166D01*
X15308Y33166D02*
X15000Y32858D01*
X15000Y32858D02*
X15000Y24920D01*
X15000Y24920D02*
X14682Y24602D01*
X14682Y24602D02*
X14682Y8817D01*
X14682Y8817D02*
X15000Y8500D01*
X15000Y6250D02*
X15000Y8500D01*
X15000Y5000D02*
X15000Y6250D01*
X20500Y30500D02*
X19000Y32000D01*
X19000Y32000D02*
X19000Y32862D01*
X19000Y32862D02*
X18496Y33366D01*
X18496Y33366D02*
X14512Y33366D01*
X14512Y33366D02*
X14000Y32853D01*
X14000Y32853D02*
X14000Y32141D01*
X14000Y32141D02*
X13016Y31157D01*
X13016Y31157D02*
X13016Y9516D01*
X13016Y9516D02*
X12000Y8500D01*
X38000Y17250D02*
X42500Y21750D01*
X42500Y21750D02*
X42500Y23500D01*
X28500Y33000D02*
X28000Y33500D01*
X28000Y33500D02*
X28000Y36000D01*
X18999Y21999D02*
X19000Y24262D01*
X19000Y24262D02*
X19397Y24660D01*
X19397Y24660D02*
X21914Y24660D01*
X21914Y24660D02*
X22752Y23821D01*
X22752Y23821D02*
X28146Y23821D01*
X28146Y23821D02*
X31146Y26820D01*
X31146Y26820D02*
X31146Y30417D01*
X36000Y28000D02*
X36000Y29250D01*
X36000Y29250D02*
X34250Y31000D01*
X23999Y21999D02*
X23500Y21500D01*
X23500Y21500D02*
X23500Y16750D01*
X23500Y16750D02*
X23000Y16250D01*
D11*
G01X28000Y18999D02*
X31460Y15539D01*
X31460Y15539D02*
X31460Y13663D01*
X31460Y13663D02*
X30296Y12500D01*
X30296Y12500D02*
X29500Y12500D01*
X30000Y21999D02*
X30000Y21000D01*
X30000Y21000D02*
X28000Y18999D01*
X31000Y21999D02*
X31999Y21999D01*
X30000Y21999D02*
X31000Y21999D01*
X35000Y27000D02*
X36000Y27000D01*
X34000Y28000D02*
X35000Y27000D01*
X35000Y27000D02*
X33000Y25000D01*
X31999Y21999D02*
X33000Y23000D01*
X33000Y23000D02*
X33000Y25000D01*
X6999Y19500D02*
X4250Y22250D01*
X4250Y22250D02*
X4250Y23035D01*
X4250Y23035D02*
X3068Y24216D01*
X3068Y24216D02*
X3068Y24964D01*
X28500Y31000D02*
X24000Y35500D01*
X24000Y35500D02*
X24000Y36000D01*
X28500Y29000D02*
X28960Y29460D01*
X28960Y29460D02*
X28960Y30539D01*
X28960Y30539D02*
X28500Y31000D01*
X26000Y4000D02*
X22000Y8000D01*
X22000Y8000D02*
X22000Y8500D01*
X28419Y25012D02*
X27685Y24278D01*
X27685Y24278D02*
X26221Y24278D01*
X26221Y24278D02*
X25500Y25000D01*
X28500Y29000D02*
X28027Y28527D01*
X28027Y28527D02*
X28027Y25404D01*
X28027Y25404D02*
X28419Y25012D01*
X28500Y25000D02*
X28487Y25012D01*
X28487Y25012D02*
X28419Y25012D01*
X44750Y16000D02*
X44750Y11224D01*
X44750Y11224D02*
X43234Y9708D01*
X44750Y21000D02*
X44750Y16000D01*
X43234Y4984D02*
X43234Y9708D01*
X44218Y3999D02*
X43234Y4984D01*
X43234Y4984D02*
X39984Y4984D01*
X39984Y4984D02*
X39000Y4000D01*
X37999Y30000D02*
X36000Y32000D01*
X36000Y32000D02*
X36000Y36000D01*
X37000Y28000D02*
X37000Y29000D01*
X37000Y29000D02*
X37999Y30000D01*
X36000Y27000D02*
X37000Y28000D01*
X32500Y4000D02*
X31992Y3492D01*
X31992Y3492D02*
X29757Y3492D01*
X29757Y3492D02*
X29250Y4000D01*
X3049Y15950D02*
X3700Y15950D01*
X3700Y15950D02*
X3750Y15999D01*
X36000Y27000D02*
X36000Y25000D01*
X6250Y28145D02*
X3068Y24964D01*
X6250Y30500D02*
X6250Y28145D01*
X7749Y27999D02*
X7604Y28145D01*
X7604Y28145D02*
X6250Y28145D01*
X10750Y15999D02*
X9500Y14750D01*
X9500Y14750D02*
X9499Y12500D01*
X3049Y15950D02*
X1999Y17000D01*
X3750Y12000D02*
X3049Y12700D01*
X3049Y12700D02*
X3049Y15950D01*
X44750Y21000D02*
X44750Y26999D01*
X5000Y8500D02*
X5000Y7500D01*
X5000Y7500D02*
X6000Y6500D01*
X34000Y13000D02*
X34500Y12500D01*
X34000Y14250D02*
X34000Y13000D01*
X32499Y11000D02*
X32500Y12327D01*
X32500Y12327D02*
X33172Y13000D01*
X33172Y13000D02*
X34000Y13000D01*
X35000Y17250D02*
X35000Y14250D01*
X15749Y25250D02*
X15750Y21000D01*
X15750Y21000D02*
X16250Y20500D01*
X7999Y19500D02*
X9000Y20500D01*
X9000Y20500D02*
X9250Y20500D01*
X19750Y24250D02*
X20758Y23241D01*
X20758Y23241D02*
X26650Y23241D01*
X26650Y23241D02*
X27460Y22432D01*
X27460Y22432D02*
X27460Y17789D01*
X27460Y17789D02*
X31000Y14250D01*
X19750Y25500D02*
X19500Y25750D01*
X19500Y25750D02*
X19500Y27500D01*
X32000Y28000D02*
X32000Y29558D01*
X32000Y29558D02*
X33901Y31460D01*
X33901Y31460D02*
X34625Y31460D01*
X34625Y31460D02*
X36000Y30085D01*
X36000Y30085D02*
X36000Y30000D01*
X4750Y12000D02*
X4000Y11250D01*
X4000Y11250D02*
X4000Y8500D01*
X3750Y15000D02*
X3750Y13000D01*
X3750Y13000D02*
X4750Y12000D01*
X22000Y4500D02*
X22000Y3000D01*
X21950Y25700D02*
X21750Y25500D01*
X27500Y25000D02*
X26799Y25700D01*
X26799Y25700D02*
X21950Y25700D01*
X21950Y25700D02*
X21000Y26650D01*
X21000Y26650D02*
X21000Y29000D01*
X21000Y29000D02*
X19500Y30500D01*
X17091Y15139D02*
X16000Y14048D01*
X16000Y14048D02*
X15999Y8500D01*
X18000Y6250D02*
X17000Y7250D01*
X17000Y7250D02*
X17000Y8500D01*
X7140Y21500D02*
X7140Y23140D01*
X7140Y23140D02*
X7500Y23500D01*
X7140Y21500D02*
X7000Y21500D01*
X9250Y21500D02*
X8782Y21032D01*
X8782Y21032D02*
X7607Y21032D01*
X7607Y21032D02*
X7140Y21500D01*
D12*
G01X28051Y19941D03*
X20424Y12830D03*
X22047Y12730D03*
X11838Y26275D03*
X13548Y26304D03*
X24900Y17655D03*
X29620Y9571D03*
X19322Y12863D03*
X31146Y30417D03*
X17091Y15139D03*
D13*
G01X5750Y12000D03*
X3750Y12000D03*
X4750Y12000D03*
D14*
G01X25500Y9000D03*
X26500Y11000D03*
X12500Y11000D03*
X21499Y12500D03*
X23500Y12500D03*
X24500Y31000D03*
X14500Y25000D03*
X32000Y9000D03*
X14500Y27000D03*
X2000Y15000D03*
X2000Y17000D03*
X8000Y21500D03*
X8000Y19500D03*
X21500Y11000D03*
X28500Y12500D03*
X8000Y6500D03*
X6000Y6500D03*
X24500Y32000D03*
X22000Y3000D03*
X10500Y31000D03*
X7000Y21500D03*
X6999Y19500D03*
X22000Y4500D03*
X28750Y9000D03*
X38500Y9000D03*
X4250Y30500D03*
X6250Y30500D03*
X18000Y6250D03*
X15000Y6250D03*
X24500Y30000D03*
X11500Y11000D03*
X23750Y24250D03*
X28500Y28000D03*
X4000Y5000D03*
X24500Y29000D03*
X16500Y12500D03*
X35250Y9000D03*
X14500Y26000D03*
X11499Y12500D03*
X9499Y12500D03*
X32499Y11000D03*
X29500Y12500D03*
X34500Y12500D03*
X15000Y5000D03*
X18000Y5000D03*
X31500Y11000D03*
X28500Y33000D03*
X14500Y30000D03*
X10500Y29000D03*
X10500Y28000D03*
X19750Y25500D03*
X21750Y25500D03*
X5000Y36000D03*
X16999Y36000D03*
X24000Y36000D03*
X36000Y36000D03*
X30250Y33000D03*
X30250Y32000D03*
X30250Y30000D03*
X30250Y31000D03*
X36000Y30000D03*
X37999Y30000D03*
X44750Y32000D03*
X44750Y26999D03*
X44750Y21000D03*
X44750Y16000D03*
X38999Y23000D03*
X38999Y21750D03*
X38999Y20500D03*
X38999Y19250D03*
X20000Y16010D02*
X20000Y16490D01*
X26999Y16010D02*
X26999Y16490D01*
X28000Y16010D02*
X28000Y16490D01*
X26000Y16010D02*
X26000Y16490D01*
X23999Y16010D02*
X23999Y16490D01*
X23000Y16010D02*
X23000Y16490D01*
X21000Y16010D02*
X21000Y16490D01*
X21999Y16010D02*
X21999Y16490D01*
X25000Y16010D02*
X25000Y16490D01*
X28500Y24760D02*
X28500Y25240D01*
X27500Y24760D02*
X27500Y25240D01*
X26500Y24760D02*
X26500Y25240D01*
X15749Y25490D02*
X15749Y25010D01*
X20500Y30260D02*
X20500Y30740D01*
X17500Y27260D02*
X17500Y27740D01*
X19500Y30260D02*
X19500Y30740D01*
X18500Y30260D02*
X18500Y30740D01*
X18500Y27260D02*
X18500Y27740D01*
X22500Y27260D02*
X22500Y27740D01*
X22500Y30260D02*
X22500Y30740D01*
X17500Y30260D02*
X17500Y30740D01*
X16500Y30260D02*
X16500Y30740D01*
X20500Y27260D02*
X20500Y27740D01*
X21500Y27260D02*
X21500Y27740D01*
X21500Y30260D02*
X21500Y30740D01*
X19500Y27260D02*
X19500Y27740D01*
X26000Y18760D02*
X26000Y19240D01*
X29000Y18760D02*
X29000Y19240D01*
X28000Y21760D02*
X28000Y22239D01*
X23000Y18760D02*
X23000Y19240D01*
X29000Y21760D02*
X29000Y22239D01*
X20000Y21760D02*
X20000Y22239D01*
X21999Y21760D02*
X21999Y22239D01*
X31000Y18760D02*
X31000Y19240D01*
X21000Y21760D02*
X21000Y22239D01*
X26000Y21760D02*
X26000Y22239D01*
X31000Y21760D02*
X31000Y22239D01*
X32000Y21760D02*
X32000Y22239D01*
X18999Y21760D02*
X18999Y22239D01*
X25000Y21760D02*
X25000Y22239D01*
X32000Y18760D02*
X32000Y19240D01*
X26999Y21760D02*
X26999Y22239D01*
X25000Y18760D02*
X25000Y19240D01*
X30000Y21760D02*
X30000Y22239D01*
X30000Y18760D02*
X30000Y19240D01*
X21999Y18760D02*
X21999Y19240D01*
X23999Y21760D02*
X23999Y22239D01*
X20000Y18760D02*
X20000Y19240D01*
X21000Y18760D02*
X21000Y19240D01*
X23000Y21760D02*
X23000Y22239D01*
X23999Y18760D02*
X23999Y19240D01*
X28000Y18760D02*
X28000Y19240D01*
X26999Y18760D02*
X26999Y19240D01*
X38000Y24760D02*
X38000Y25240D01*
X33000Y24760D02*
X33000Y25240D01*
X35000Y27760D02*
X35000Y28240D01*
X38000Y27760D02*
X38000Y28240D01*
X34000Y27760D02*
X34000Y28240D01*
X36000Y27760D02*
X36000Y28240D01*
X35000Y24760D02*
X35000Y25240D01*
X36000Y24760D02*
X36000Y25240D01*
X37000Y24760D02*
X37000Y25240D01*
X34000Y24760D02*
X34000Y25240D01*
X33000Y27760D02*
X33000Y28240D01*
X32000Y27760D02*
X32000Y28240D01*
X37000Y27760D02*
X37000Y28240D01*
X35000Y17010D02*
X35000Y17490D01*
X36000Y14010D02*
X36000Y14490D01*
X33000Y17010D02*
X33000Y17490D01*
X34000Y17010D02*
X34000Y17490D01*
X35000Y14010D02*
X35000Y14490D01*
X33000Y14010D02*
X33000Y14490D01*
X36000Y17010D02*
X36000Y17490D01*
X38000Y17010D02*
X38000Y17490D01*
X37000Y17010D02*
X37000Y17490D01*
X38000Y14010D02*
X38000Y14490D01*
X37000Y14010D02*
X37000Y14490D01*
X31000Y17010D02*
X31000Y17490D01*
X32000Y17010D02*
X32000Y17490D01*
X34000Y14010D02*
X34000Y14490D01*
X32000Y14010D02*
X32000Y14490D01*
D15*
G01X11499Y32295D02*
X11499Y32704D01*
X12499Y32295D02*
X12499Y32704D01*
X18500Y32295D02*
X18500Y32704D01*
X13499Y32295D02*
X13499Y32704D01*
X6499Y32295D02*
X6499Y32704D01*
X19499Y32295D02*
X19499Y32704D01*
X8499Y32295D02*
X8499Y32704D01*
X17499Y32295D02*
X17499Y32704D01*
X9499Y32295D02*
X9499Y32704D01*
X7499Y32295D02*
X7499Y32704D01*
X16499Y32295D02*
X16499Y32704D01*
X10499Y32295D02*
X10499Y32704D01*
X5499Y32295D02*
X5499Y32704D01*
X14499Y32295D02*
X14499Y32704D01*
X15500Y32295D02*
X15500Y32704D01*
D16*
G01X9000Y8500D03*
X9000Y2500D03*
X8000Y8500D03*
X11000Y8500D03*
X17000Y8500D03*
X13000Y2500D03*
X5000Y2500D03*
X16000Y2500D03*
X13000Y8500D03*
X10000Y2500D03*
X14000Y8500D03*
X4000Y8500D03*
X6000Y8500D03*
X17000Y2500D03*
X18000Y8500D03*
X16000Y8500D03*
X15000Y8500D03*
X6000Y2500D03*
X14000Y2500D03*
X7000Y8500D03*
X11000Y2500D03*
X15000Y2500D03*
X18000Y2500D03*
X12000Y2500D03*
X7000Y2500D03*
X8000Y2500D03*
X10000Y8500D03*
X5000Y8500D03*
X12000Y8500D03*
X39200Y4000D02*
X38800Y4000D01*
X37199Y7000D02*
X36800Y7000D01*
X37199Y4000D02*
X36800Y4000D01*
X39200Y7000D02*
X38800Y7000D01*
X32700Y4000D02*
X32300Y4000D01*
X30700Y7000D02*
X30300Y7000D01*
X30700Y4000D02*
X30300Y4000D01*
X32700Y7000D02*
X32300Y7000D01*
X26199Y4000D02*
X25800Y4000D01*
X24200Y7000D02*
X23800Y7000D01*
X24200Y4000D02*
X23800Y4000D01*
X26199Y7000D02*
X25800Y7000D01*
X35949Y4000D02*
X35550Y4000D01*
X33949Y7000D02*
X33549Y7000D01*
X33949Y4000D02*
X33549Y4000D01*
X35949Y7000D02*
X35550Y7000D01*
X29450Y4000D02*
X29050Y4000D01*
X27450Y7000D02*
X27050Y7000D01*
X27450Y4000D02*
X27050Y4000D01*
X29450Y7000D02*
X29050Y7000D01*
D17*
G01X42250Y3850D02*
X42250Y4149D01*
X42250Y9558D02*
X42250Y9858D01*
X43234Y9558D02*
X43234Y9858D01*
X44218Y9558D02*
X44218Y9858D01*
X44218Y3850D02*
X44218Y4149D01*
D18*
G01X9999Y6250D03*
X13000Y5000D03*
X7500Y23500D03*
D19*
G01X9125Y19500D02*
X9375Y19500D01*
X9125Y20500D02*
X9375Y20500D01*
X3625Y15000D02*
X3875Y15000D01*
X3625Y16000D02*
X3875Y16000D01*
D20*
G01X1499Y32500D03*
X38250Y10749D03*
X1499Y10749D03*
X38250Y32500D03*
X45793Y6952D03*
X40675Y6952D03*
D21*
G01X45000Y37500D03*
X2000Y2000D03*
X45250Y2000D03*
X2000Y37500D03*
D22*
G01X33000Y36000D03*
X28000Y36000D03*
X13999Y36000D03*
X9000Y36000D03*
X21000Y36000D03*
X42500Y34000D03*
X42500Y29000D03*
X42500Y23500D03*
X42500Y18500D03*
X42500Y13000D03*
G36*
X24760Y9260D02*G01*
X24240Y9260D01*X24240Y8740D01*X24760Y8740D01*G37*
G36*
X22760Y11260D02*G01*
X22240Y11260D01*X22240Y10740D01*X22760Y10740D01*G37*
G36*
X2489Y27499D02*G01*
X3009Y27499D01*X3009Y28500D01*X2489Y28500D01*G37*
G36*
X7489Y27499D02*G01*
X8009Y27499D01*X8009Y28499D01*X7489Y28500D01*G37*
G36*
X4489Y28500D02*G01*
X5009Y28500D01*X5009Y29500D01*X4489Y29500D01*G37*
G36*
X12645Y5895D02*G01*
X13354Y5895D01*X13354Y6604D01*X12645Y6604D01*G37*
G36*
X16240Y10740D02*G01*
X16760Y10740D01*X16760Y11260D01*X16240Y11260D01*G37*
G36*
X28240Y30739D02*G01*
X28760Y30739D01*X28760Y31259D01*X28240Y31259D01*G37*
G36*
X10760Y25260D02*G01*
X10240Y25260D01*X10240Y24740D01*X10760Y24740D01*G37*
G36*
X31260Y9260D02*G01*
X30740Y9260D01*X30740Y8740D01*X31260Y8740D01*G37*
G36*
X10760Y27260D02*G01*
X10240Y27260D01*X10240Y26740D01*X10760Y26740D01*G37*
G36*
X17760Y11260D02*G01*
X17240Y11260D01*X17240Y10740D01*X17760Y10740D01*G37*
G36*
X24760Y12760D02*G01*
X24240Y12760D01*X24240Y12240D01*X24760Y12240D01*G37*
G36*
X28240Y31740D02*G01*
X28760Y31740D01*X28760Y32260D01*X28240Y32260D01*G37*
G36*
X4795Y32999D02*G01*
X4204Y32999D01*X4204Y32000D01*X4795Y32000D01*G37*
G36*
X21740Y2260D02*G01*
X21740Y1740D01*X22260Y1740D01*X22260Y2260D01*G37*
G36*
X14239Y30739D02*G01*
X14760Y30739D01*X14760Y31259D01*X14239Y31259D01*G37*
G36*
X22260Y8240D02*G01*
X22260Y8760D01*X21740Y8760D01*X21740Y8240D01*G37*
G36*
X28010Y9260D02*G01*
X27490Y9260D01*X27490Y8740D01*X28010Y8740D01*G37*
G36*
X10354Y5354D02*G01*
X9645Y5354D01*X9645Y4645D01*X10354Y4645D01*G37*
G36*
X37760Y9260D02*G01*
X37240Y9260D01*X37240Y8740D01*X37760Y8740D01*G37*
G36*
X28240Y29740D02*G01*
X28760Y29740D01*X28760Y30260D01*X28240Y30260D01*G37*
G36*
X17449Y18500D02*G01*
X17450Y22500D01*X15050Y22500D01*X15050Y18500D01*G37*
G36*
X9750Y21125D02*G01*
X9750Y21875D01*X8750Y21875D01*X8750Y21125D01*G37*
G36*
X7854Y26145D02*G01*
X7854Y26854D01*X7145Y26854D01*X7145Y26145D01*G37*
G36*
X7760Y11260D02*G01*
X7240Y11260D01*X7240Y10740D01*X7760Y10740D01*G37*
G36*
X20010Y24510D02*G01*
X19490Y24510D01*X19490Y23990D01*X20010Y23990D01*G37*
G36*
X24760Y28260D02*G01*
X24240Y28260D01*X24240Y27740D01*X24760Y27740D01*G37*
G36*
X7740Y4740D02*G01*
X8260Y4740D01*X8260Y5260D01*X7740Y5260D01*G37*
G36*
X28240Y28740D02*G01*
X28760Y28740D01*X28760Y29260D01*X28240Y29260D01*G37*
G36*
X12760Y12760D02*G01*
X12240Y12760D01*X12240Y12240D01*X12760Y12240D01*G37*
G36*
X34510Y9260D02*G01*
X33990Y9260D01*X33990Y8740D01*X34510Y8740D01*G37*
G36*
X10760Y26260D02*G01*
X10240Y26260D01*X10240Y25740D01*X10760Y25740D01*G37*
G36*
X36240Y10740D02*G01*
X36759Y10740D01*X36759Y11260D01*X36240Y11260D01*G37*
G36*
X33240Y12240D02*G01*
X33760Y12240D01*X33760Y12760D01*X33240Y12760D01*G37*
G36*
X38240Y12240D02*G01*
X38760Y12240D01*X38760Y12760D01*X38240Y12760D01*G37*
G36*
X27760Y11260D02*G01*
X27240Y11260D01*X27240Y10740D01*X27760Y10740D01*G37*
G36*
X19260Y16750D02*G01*
X18740Y16750D01*X18740Y15750D01*X19260Y15750D01*G37*
G36*
X11949Y13999D02*G01*
X11950Y18000D01*X9550Y18000D01*X9550Y13999D01*G37*
G36*
X4250Y16625D02*G01*
X4250Y17375D01*X3250Y17375D01*X3250Y16625D01*G37*
G36*
X5594Y25751D02*G01*
X5824Y25521D01*X5824Y24407D01*X5594Y24177D01*X5268Y24177D01*X5037Y24407D01*X5037Y25521D01*X5268Y25751D01*G37*
G36*
X4846Y23429D02*G01*
X5076Y23198D01*X5076Y22872D01*X4846Y22641D01*X3653Y22641D01*X3423Y22872D01*X3423Y23198D01*X3653Y23429D01*G37*
G36*
X3231Y25751D02*G01*
X3462Y25521D01*X3462Y24407D01*X3231Y24177D01*X2905Y24177D01*X2675Y24407D01*X2675Y25521D01*X2905Y25751D01*G37*
G36*
X25760Y25500D02*G01*
X25240Y25500D01*X25240Y24499D01*X25760Y24499D01*G37*
G36*
X17489Y24750D02*G01*
X18010Y24750D01*X18010Y25750D01*X17489Y25750D01*G37*
G36*
X16760Y28000D02*G01*
X16240Y28000D01*X16240Y27000D01*X16760Y27000D01*G37*
G36*
X24760Y33260D02*G01*
X24240Y33260D01*X24240Y32740D01*X24760Y32740D01*G37*
G36*
X10760Y30260D02*G01*
X10240Y30260D01*X10240Y29740D01*X10760Y29740D01*G37*
G36*
X14239Y28740D02*G01*
X14760Y28740D01*X14760Y29260D01*X14239Y29260D01*G37*
G36*
X14239Y27739D02*G01*
X14760Y27739D01*X14760Y28259D01*X14239Y28259D01*G37*
G36*
X4300Y2800D02*G01*
X3700Y2800D01*X3700Y2200D01*X4300Y2200D01*G37*
G36*
X19260Y19499D02*G01*
X18740Y19499D01*X18740Y18500D01*X19260Y18500D01*G37*
G36*
X32260Y25500D02*G01*
X31740Y25500D01*X31740Y24500D01*X32260Y24500D01*G37*
G36*
X5740Y35739D02*G01*
X6260Y35739D01*X6260Y36260D01*X5740Y36260D01*G37*
G36*
X17739Y35739D02*G01*
X18259Y35739D01*X18259Y36260D01*X17739Y36260D01*G37*
G36*
X24740Y35739D02*G01*
X25260Y35739D01*X25260Y36260D01*X24740Y36260D01*G37*
G36*
X36740Y35739D02*G01*
X37260Y35739D01*X37260Y36260D01*X36740Y36260D01*G37*
G36*
X33990Y32740D02*G01*
X34510Y32740D01*X34510Y33260D01*X33990Y33260D01*G37*
G36*
X33990Y31740D02*G01*
X34510Y31740D01*X34510Y32260D01*X33990Y32260D01*G37*
G36*
X33990Y29740D02*G01*
X34510Y29740D01*X34510Y30260D01*X33990Y30260D01*G37*
G36*
X33990Y30739D02*G01*
X34510Y30739D01*X34510Y31259D01*X33990Y31259D01*G37*
G36*
X44010Y32260D02*G01*
X43490Y32260D01*X43490Y31740D01*X44010Y31740D01*G37*
G36*
X44010Y27260D02*G01*
X43490Y27260D01*X43490Y26740D01*X44010Y26740D01*G37*
G36*
X44010Y21260D02*G01*
X43490Y21260D01*X43490Y20739D01*X44010Y20739D01*G37*
G36*
X44010Y16260D02*G01*
X43490Y16260D01*X43490Y15740D01*X44010Y15740D01*G37*
G36*
X35260Y23260D02*G01*
X34740Y23260D01*X34740Y22740D01*X35260Y22740D01*G37*
G36*
X35260Y22010D02*G01*
X34740Y22010D01*X34740Y21490D01*X35260Y21490D01*G37*
G36*
X35260Y20760D02*G01*
X34740Y20760D01*X34740Y20240D01*X35260Y20240D01*G37*
G36*
X35260Y19510D02*G01*
X34740Y19510D01*X34740Y18990D01*X35260Y18990D01*G37*
G36*
X31260Y14750D02*G01*
X30740Y14750D01*X30740Y13750D01*X31260Y13750D01*G37*
M02*
