%FSLAX24Y24*%
%MOIN*%
%ADD10C,0.0060*%
%ADD11C,0.0079*%
%ADD12C,0.0099*%
%ADD13C,0.0139*%
%ADD14C,0.0250*%
%ADD15C,0.0394*%
D10*
G01X31773Y32821D02*
X31773Y33178D01*
X31773Y33178D02*
X31952Y33178D01*
X31952Y33178D02*
X32011Y33119D01*
X32011Y33119D02*
X32011Y33059D01*
X32011Y33059D02*
X31952Y33000D01*
X31952Y33000D02*
X31773Y33000D01*
X31773Y33000D02*
X32011Y32821D01*
X32130Y33059D02*
X32130Y33119D01*
X32130Y33119D02*
X32190Y33178D01*
X32190Y33178D02*
X32309Y33178D01*
X32309Y33178D02*
X32369Y33119D01*
X32369Y33119D02*
X32369Y33059D01*
X32369Y33059D02*
X32130Y32821D01*
X32130Y32821D02*
X32369Y32821D01*
X32488Y33178D02*
X32726Y33178D01*
X32726Y33178D02*
X32488Y32821D01*
X31773Y31821D02*
X31773Y32178D01*
X31773Y32178D02*
X31952Y32178D01*
X31952Y32178D02*
X32011Y32119D01*
X32011Y32119D02*
X32011Y32059D01*
X32011Y32059D02*
X31952Y32000D01*
X31952Y32000D02*
X31773Y32000D01*
X31773Y32000D02*
X32011Y31821D01*
X32130Y32059D02*
X32130Y32119D01*
X32130Y32119D02*
X32190Y32178D01*
X32190Y32178D02*
X32309Y32178D01*
X32309Y32178D02*
X32369Y32119D01*
X32369Y32119D02*
X32369Y32059D01*
X32369Y32059D02*
X32130Y31821D01*
X32130Y31821D02*
X32369Y31821D01*
X32666Y32178D02*
X32547Y32178D01*
X32547Y32178D02*
X32488Y32119D01*
X32488Y32119D02*
X32488Y31880D01*
X32488Y31880D02*
X32547Y31821D01*
X32547Y31821D02*
X32666Y31821D01*
X32666Y31821D02*
X32726Y31880D01*
X32726Y31880D02*
X32726Y31970D01*
X32726Y31970D02*
X32666Y32029D01*
X32666Y32029D02*
X32547Y32029D01*
X32547Y32029D02*
X32488Y31970D01*
X31773Y29821D02*
X31773Y30178D01*
X31773Y30178D02*
X31952Y30178D01*
X31952Y30178D02*
X32011Y30119D01*
X32011Y30119D02*
X32011Y30059D01*
X32011Y30059D02*
X31952Y30000D01*
X31952Y30000D02*
X31773Y30000D01*
X31773Y30000D02*
X32011Y29821D01*
X32130Y30059D02*
X32130Y30119D01*
X32130Y30119D02*
X32190Y30178D01*
X32190Y30178D02*
X32309Y30178D01*
X32309Y30178D02*
X32369Y30119D01*
X32369Y30119D02*
X32369Y30059D01*
X32369Y30059D02*
X32130Y29821D01*
X32130Y29821D02*
X32369Y29821D01*
X32666Y29821D02*
X32666Y30178D01*
X32666Y30178D02*
X32488Y29940D01*
X32488Y29940D02*
X32726Y29940D01*
X31773Y30821D02*
X31773Y31178D01*
X31773Y31178D02*
X31952Y31178D01*
X31952Y31178D02*
X32011Y31119D01*
X32011Y31119D02*
X32011Y31059D01*
X32011Y31059D02*
X31952Y31000D01*
X31952Y31000D02*
X31773Y31000D01*
X31773Y31000D02*
X32011Y30821D01*
X32130Y31059D02*
X32130Y31119D01*
X32130Y31119D02*
X32190Y31178D01*
X32190Y31178D02*
X32309Y31178D01*
X32309Y31178D02*
X32369Y31119D01*
X32369Y31119D02*
X32369Y31059D01*
X32369Y31059D02*
X32130Y30821D01*
X32130Y30821D02*
X32369Y30821D01*
X32488Y31178D02*
X32726Y31178D01*
X32488Y31178D02*
X32488Y31029D01*
X32488Y31029D02*
X32666Y31029D01*
X32666Y31029D02*
X32726Y30970D01*
X32726Y30970D02*
X32726Y30880D01*
X32726Y30880D02*
X32666Y30821D01*
X32666Y30821D02*
X32488Y30821D01*
X36761Y29880D02*
X36702Y29821D01*
X36702Y29821D02*
X36583Y29821D01*
X36583Y29821D02*
X36523Y29880D01*
X36523Y29880D02*
X36523Y30119D01*
X36523Y30119D02*
X36583Y30178D01*
X36583Y30178D02*
X36702Y30178D01*
X36702Y30178D02*
X36761Y30119D01*
X37000Y29821D02*
X37000Y30178D01*
X37000Y30178D02*
X36880Y30059D01*
X37297Y29821D02*
X37238Y29940D01*
X37238Y29940D02*
X37238Y30059D01*
X37238Y30059D02*
X37297Y30178D01*
X37297Y30178D02*
X37416Y30178D01*
X37416Y30178D02*
X37476Y30059D01*
X37476Y30059D02*
X37476Y29940D01*
X37476Y29940D02*
X37416Y29821D01*
X37416Y29821D02*
X37297Y29821D01*
X32392Y15571D02*
X32392Y15928D01*
X32750Y15630D02*
X32690Y15571D01*
X32690Y15571D02*
X32571Y15571D01*
X32571Y15571D02*
X32511Y15630D01*
X32511Y15630D02*
X32511Y15869D01*
X32511Y15869D02*
X32571Y15928D01*
X32571Y15928D02*
X32690Y15928D01*
X32690Y15928D02*
X32750Y15869D01*
X32869Y15928D02*
X33107Y15928D01*
X33107Y15928D02*
X32869Y15571D01*
D11*
G01X23865Y10761D02*
X23865Y11238D01*
X23865Y11238D02*
X24103Y11238D01*
X24103Y11238D02*
X24182Y11158D01*
X24182Y11158D02*
X24182Y11079D01*
X24182Y11079D02*
X24103Y11000D01*
X24103Y11000D02*
X23865Y11000D01*
X23865Y11000D02*
X24182Y10761D01*
X24500Y10761D02*
X24500Y11238D01*
X24500Y11238D02*
X24341Y11079D01*
X25055Y10761D02*
X25055Y11238D01*
X25055Y11238D02*
X24817Y10920D01*
X24817Y10920D02*
X25134Y10920D01*
X6011Y28261D02*
X6011Y28738D01*
X5853Y28738D02*
X6170Y28738D01*
X6329Y28579D02*
X6329Y28658D01*
X6329Y28658D02*
X6408Y28738D01*
X6408Y28738D02*
X6567Y28738D01*
X6567Y28738D02*
X6646Y28658D01*
X6646Y28658D02*
X6646Y28579D01*
X6646Y28579D02*
X6329Y28261D01*
X6329Y28261D02*
X6646Y28261D01*
X11103Y6011D02*
X11103Y6488D01*
X11103Y6488D02*
X11341Y6488D01*
X11341Y6488D02*
X11420Y6408D01*
X11420Y6408D02*
X11420Y6091D01*
X11420Y6091D02*
X11341Y6011D01*
X11341Y6011D02*
X11103Y6011D01*
X11579Y6408D02*
X11658Y6488D01*
X11658Y6488D02*
X11817Y6488D01*
X11817Y6488D02*
X11896Y6408D01*
X11896Y6408D02*
X11896Y6329D01*
X11896Y6329D02*
X11817Y6250D01*
X11817Y6250D02*
X11698Y6250D01*
X11817Y6250D02*
X11896Y6170D01*
X11896Y6170D02*
X11896Y6091D01*
X11896Y6091D02*
X11817Y6011D01*
X11817Y6011D02*
X11658Y6011D01*
X11658Y6011D02*
X11579Y6091D01*
X13865Y10761D02*
X13865Y11238D01*
X13865Y11238D02*
X14103Y11238D01*
X14103Y11238D02*
X14182Y11158D01*
X14182Y11158D02*
X14182Y11079D01*
X14182Y11079D02*
X14103Y11000D01*
X14103Y11000D02*
X13865Y11000D01*
X13865Y11000D02*
X14182Y10761D01*
X14500Y10761D02*
X14500Y11238D01*
X14500Y11238D02*
X14341Y11079D01*
X14896Y10761D02*
X14817Y10920D01*
X14817Y10920D02*
X14817Y11079D01*
X14817Y11079D02*
X14896Y11238D01*
X14896Y11238D02*
X15055Y11238D01*
X15055Y11238D02*
X15134Y11079D01*
X15134Y11079D02*
X15134Y10920D01*
X15134Y10920D02*
X15055Y10761D01*
X15055Y10761D02*
X14896Y10761D01*
X22420Y12341D02*
X22341Y12261D01*
X22341Y12261D02*
X22182Y12261D01*
X22182Y12261D02*
X22103Y12341D01*
X22103Y12341D02*
X22103Y12658D01*
X22103Y12658D02*
X22182Y12738D01*
X22182Y12738D02*
X22341Y12738D01*
X22341Y12738D02*
X22420Y12658D01*
X22658Y12261D02*
X22817Y12261D01*
X22817Y12261D02*
X22896Y12341D01*
X22896Y12341D02*
X22896Y12658D01*
X22896Y12658D02*
X22817Y12738D01*
X22817Y12738D02*
X22658Y12738D01*
X22658Y12738D02*
X22579Y12658D01*
X22579Y12658D02*
X22579Y12539D01*
X22579Y12539D02*
X22658Y12460D01*
X22658Y12460D02*
X22817Y12460D01*
X22817Y12460D02*
X22896Y12539D01*
X25865Y30761D02*
X25865Y31238D01*
X25865Y31238D02*
X26103Y31238D01*
X26103Y31238D02*
X26182Y31158D01*
X26182Y31158D02*
X26182Y31079D01*
X26182Y31079D02*
X26103Y31000D01*
X26103Y31000D02*
X25865Y31000D01*
X25865Y31000D02*
X26182Y30761D01*
X26500Y30761D02*
X26500Y31238D01*
X26500Y31238D02*
X26341Y31079D01*
X26896Y30761D02*
X27055Y30761D01*
X27055Y30761D02*
X27134Y30841D01*
X27134Y30841D02*
X27134Y31158D01*
X27134Y31158D02*
X27055Y31238D01*
X27055Y31238D02*
X26896Y31238D01*
X26896Y31238D02*
X26817Y31158D01*
X26817Y31158D02*
X26817Y31039D01*
X26817Y31039D02*
X26896Y30960D01*
X26896Y30960D02*
X27055Y30960D01*
X27055Y30960D02*
X27134Y31039D01*
X12103Y24761D02*
X12103Y25238D01*
X12103Y25238D02*
X12341Y25238D01*
X12341Y25238D02*
X12420Y25158D01*
X12420Y25158D02*
X12420Y25079D01*
X12420Y25079D02*
X12341Y25000D01*
X12341Y25000D02*
X12103Y25000D01*
X12103Y25000D02*
X12420Y24761D01*
X12579Y25158D02*
X12658Y25238D01*
X12658Y25238D02*
X12817Y25238D01*
X12817Y25238D02*
X12896Y25158D01*
X12896Y25158D02*
X12896Y25079D01*
X12896Y25079D02*
X12817Y25000D01*
X12817Y25000D02*
X12698Y25000D01*
X12817Y25000D02*
X12896Y24920D01*
X12896Y24920D02*
X12896Y24841D01*
X12896Y24841D02*
X12817Y24761D01*
X12817Y24761D02*
X12658Y24761D01*
X12658Y24761D02*
X12579Y24841D01*
X12103Y26761D02*
X12103Y27238D01*
X12103Y27238D02*
X12341Y27238D01*
X12341Y27238D02*
X12420Y27158D01*
X12420Y27158D02*
X12420Y27079D01*
X12420Y27079D02*
X12341Y27000D01*
X12341Y27000D02*
X12103Y27000D01*
X12103Y27000D02*
X12420Y26761D01*
X12579Y27238D02*
X12896Y27238D01*
X12579Y27238D02*
X12579Y27039D01*
X12579Y27039D02*
X12817Y27039D01*
X12817Y27039D02*
X12896Y26960D01*
X12896Y26960D02*
X12896Y26841D01*
X12896Y26841D02*
X12817Y26761D01*
X12817Y26761D02*
X12579Y26761D01*
X2158Y15920D02*
X2238Y15841D01*
X2238Y15841D02*
X2238Y15682D01*
X2238Y15682D02*
X2158Y15603D01*
X2158Y15603D02*
X1841Y15603D01*
X1841Y15603D02*
X1761Y15682D01*
X1761Y15682D02*
X1761Y15841D01*
X1761Y15841D02*
X1841Y15920D01*
X2238Y16238D02*
X1761Y16238D01*
X1761Y16238D02*
X1920Y16079D01*
X7920Y22341D02*
X7841Y22261D01*
X7841Y22261D02*
X7682Y22261D01*
X7682Y22261D02*
X7603Y22341D01*
X7603Y22341D02*
X7603Y22658D01*
X7603Y22658D02*
X7682Y22738D01*
X7682Y22738D02*
X7841Y22738D01*
X7841Y22738D02*
X7920Y22658D01*
X8079Y22738D02*
X8396Y22738D01*
X8079Y22738D02*
X8079Y22539D01*
X8079Y22539D02*
X8317Y22539D01*
X8317Y22539D02*
X8396Y22460D01*
X8396Y22460D02*
X8396Y22341D01*
X8396Y22341D02*
X8317Y22261D01*
X8317Y22261D02*
X8079Y22261D01*
X18865Y10761D02*
X18865Y11238D01*
X18865Y11238D02*
X19103Y11238D01*
X19103Y11238D02*
X19182Y11158D01*
X19182Y11158D02*
X19182Y11079D01*
X19182Y11079D02*
X19103Y11000D01*
X19103Y11000D02*
X18865Y11000D01*
X18865Y11000D02*
X19182Y10761D01*
X19500Y10761D02*
X19500Y11238D01*
X19500Y11238D02*
X19341Y11079D01*
X19817Y11079D02*
X19817Y11158D01*
X19817Y11158D02*
X19896Y11238D01*
X19896Y11238D02*
X20055Y11238D01*
X20055Y11238D02*
X20134Y11158D01*
X20134Y11158D02*
X20134Y11079D01*
X20134Y11079D02*
X19817Y10761D01*
X19817Y10761D02*
X20134Y10761D01*
X25865Y12261D02*
X25865Y12738D01*
X25865Y12738D02*
X26103Y12738D01*
X26103Y12738D02*
X26182Y12658D01*
X26182Y12658D02*
X26182Y12579D01*
X26182Y12579D02*
X26103Y12500D01*
X26103Y12500D02*
X25865Y12500D01*
X25865Y12500D02*
X26182Y12261D01*
X26500Y12261D02*
X26500Y12738D01*
X26500Y12738D02*
X26341Y12579D01*
X26817Y12738D02*
X27134Y12738D01*
X26817Y12738D02*
X26817Y12539D01*
X26817Y12539D02*
X27055Y12539D01*
X27055Y12539D02*
X27134Y12460D01*
X27134Y12460D02*
X27134Y12341D01*
X27134Y12341D02*
X27055Y12261D01*
X27055Y12261D02*
X26817Y12261D01*
X6920Y6341D02*
X6841Y6261D01*
X6841Y6261D02*
X6682Y6261D01*
X6682Y6261D02*
X6603Y6341D01*
X6603Y6341D02*
X6603Y6658D01*
X6603Y6658D02*
X6682Y6738D01*
X6682Y6738D02*
X6841Y6738D01*
X6841Y6738D02*
X6920Y6658D01*
X7317Y6261D02*
X7317Y6738D01*
X7317Y6738D02*
X7079Y6420D01*
X7079Y6420D02*
X7396Y6420D01*
X25865Y31761D02*
X25865Y32238D01*
X25865Y32238D02*
X26103Y32238D01*
X26103Y32238D02*
X26182Y32158D01*
X26182Y32158D02*
X26182Y32079D01*
X26182Y32079D02*
X26103Y32000D01*
X26103Y32000D02*
X25865Y32000D01*
X25865Y32000D02*
X26182Y31761D01*
X26341Y32079D02*
X26341Y32158D01*
X26341Y32158D02*
X26420Y32238D01*
X26420Y32238D02*
X26579Y32238D01*
X26579Y32238D02*
X26658Y32158D01*
X26658Y32158D02*
X26658Y32079D01*
X26658Y32079D02*
X26341Y31761D01*
X26341Y31761D02*
X26658Y31761D01*
X26896Y31761D02*
X26817Y31920D01*
X26817Y31920D02*
X26817Y32079D01*
X26817Y32079D02*
X26896Y32238D01*
X26896Y32238D02*
X27055Y32238D01*
X27055Y32238D02*
X27134Y32079D01*
X27134Y32079D02*
X27134Y31920D01*
X27134Y31920D02*
X27055Y31761D01*
X27055Y31761D02*
X26896Y31761D01*
X12103Y30761D02*
X12103Y31238D01*
X12103Y31238D02*
X12341Y31238D01*
X12341Y31238D02*
X12420Y31158D01*
X12420Y31158D02*
X12420Y31079D01*
X12420Y31079D02*
X12341Y31000D01*
X12341Y31000D02*
X12103Y31000D01*
X12103Y31000D02*
X12420Y30761D01*
X12658Y30761D02*
X12817Y30761D01*
X12817Y30761D02*
X12896Y30841D01*
X12896Y30841D02*
X12896Y31158D01*
X12896Y31158D02*
X12817Y31238D01*
X12817Y31238D02*
X12658Y31238D01*
X12658Y31238D02*
X12579Y31158D01*
X12579Y31158D02*
X12579Y31039D01*
X12579Y31039D02*
X12658Y30960D01*
X12658Y30960D02*
X12817Y30960D01*
X12817Y30960D02*
X12896Y31039D01*
X6670Y22341D02*
X6591Y22261D01*
X6591Y22261D02*
X6432Y22261D01*
X6432Y22261D02*
X6353Y22341D01*
X6353Y22341D02*
X6353Y22658D01*
X6353Y22658D02*
X6432Y22738D01*
X6432Y22738D02*
X6591Y22738D01*
X6591Y22738D02*
X6670Y22658D01*
X6829Y22658D02*
X6908Y22738D01*
X6908Y22738D02*
X7067Y22738D01*
X7067Y22738D02*
X7146Y22658D01*
X7146Y22658D02*
X7146Y22579D01*
X7146Y22579D02*
X7067Y22500D01*
X7067Y22500D02*
X6948Y22500D01*
X7067Y22500D02*
X7146Y22420D01*
X7146Y22420D02*
X7146Y22341D01*
X7146Y22341D02*
X7067Y22261D01*
X7067Y22261D02*
X6908Y22261D01*
X6908Y22261D02*
X6829Y22341D01*
X22238Y5865D02*
X21761Y5865D01*
X21761Y5865D02*
X21761Y6103D01*
X21761Y6103D02*
X21841Y6182D01*
X21841Y6182D02*
X21920Y6182D01*
X21920Y6182D02*
X22000Y6103D01*
X22000Y6103D02*
X22000Y5865D01*
X22000Y5865D02*
X22238Y6182D01*
X22238Y6500D02*
X21761Y6500D01*
X21761Y6500D02*
X21920Y6341D01*
X21841Y6817D02*
X21761Y6896D01*
X21761Y6896D02*
X21761Y7055D01*
X21761Y7055D02*
X21841Y7134D01*
X21841Y7134D02*
X21920Y7134D01*
X21920Y7134D02*
X22000Y7055D01*
X22000Y7055D02*
X22000Y6936D01*
X22000Y7055D02*
X22079Y7134D01*
X22079Y7134D02*
X22158Y7134D01*
X22158Y7134D02*
X22238Y7055D01*
X22238Y7055D02*
X22238Y6896D01*
X22238Y6896D02*
X22158Y6817D01*
X11103Y4761D02*
X11103Y5238D01*
X11103Y5238D02*
X11341Y5238D01*
X11341Y5238D02*
X11420Y5158D01*
X11420Y5158D02*
X11420Y4841D01*
X11420Y4841D02*
X11341Y4761D01*
X11341Y4761D02*
X11103Y4761D01*
X11817Y4761D02*
X11817Y5238D01*
X11817Y5238D02*
X11579Y4920D01*
X11579Y4920D02*
X11896Y4920D01*
X5170Y30341D02*
X5091Y30261D01*
X5091Y30261D02*
X4932Y30261D01*
X4932Y30261D02*
X4853Y30341D01*
X4853Y30341D02*
X4853Y30658D01*
X4853Y30658D02*
X4932Y30738D01*
X4932Y30738D02*
X5091Y30738D01*
X5091Y30738D02*
X5170Y30658D01*
X5329Y30579D02*
X5329Y30658D01*
X5329Y30658D02*
X5408Y30738D01*
X5408Y30738D02*
X5567Y30738D01*
X5567Y30738D02*
X5646Y30658D01*
X5646Y30658D02*
X5646Y30579D01*
X5646Y30579D02*
X5329Y30261D01*
X5329Y30261D02*
X5646Y30261D01*
X16103Y6011D02*
X16103Y6488D01*
X16103Y6488D02*
X16341Y6488D01*
X16341Y6488D02*
X16420Y6408D01*
X16420Y6408D02*
X16420Y6091D01*
X16420Y6091D02*
X16341Y6011D01*
X16341Y6011D02*
X16103Y6011D01*
X16817Y6488D02*
X16658Y6488D01*
X16658Y6488D02*
X16579Y6408D01*
X16579Y6408D02*
X16579Y6091D01*
X16579Y6091D02*
X16658Y6011D01*
X16658Y6011D02*
X16817Y6011D01*
X16817Y6011D02*
X16896Y6091D01*
X16896Y6091D02*
X16896Y6210D01*
X16896Y6210D02*
X16817Y6289D01*
X16817Y6289D02*
X16658Y6289D01*
X16658Y6289D02*
X16579Y6210D01*
X42615Y6841D02*
X42694Y6761D01*
X42694Y6761D02*
X42853Y6761D01*
X42853Y6761D02*
X42932Y6841D01*
X42932Y6841D02*
X42932Y6920D01*
X42932Y6920D02*
X42853Y7000D01*
X42853Y7000D02*
X42694Y7000D01*
X42853Y7238D02*
X42932Y7158D01*
X42694Y7238D02*
X42853Y7238D01*
X42615Y7158D02*
X42694Y7238D01*
X42615Y7079D02*
X42615Y7158D01*
X42694Y7000D02*
X42615Y7079D01*
X43091Y7238D02*
X43170Y6761D01*
X43170Y6761D02*
X43250Y7000D01*
X43250Y7000D02*
X43329Y6761D01*
X43329Y6761D02*
X43408Y7238D01*
X43726Y6761D02*
X43726Y7238D01*
X43726Y7238D02*
X43567Y7079D01*
X25865Y29761D02*
X25865Y30238D01*
X25865Y30238D02*
X26103Y30238D01*
X26103Y30238D02*
X26182Y30158D01*
X26182Y30158D02*
X26182Y30079D01*
X26182Y30079D02*
X26103Y30000D01*
X26103Y30000D02*
X25865Y30000D01*
X25865Y30000D02*
X26182Y29761D01*
X26500Y29761D02*
X26500Y30238D01*
X26500Y30238D02*
X26341Y30079D01*
X26896Y29761D02*
X26817Y29841D01*
X26817Y29841D02*
X26817Y29920D01*
X26817Y29920D02*
X26896Y30000D01*
X26896Y30000D02*
X27055Y30000D01*
X27055Y30000D02*
X27134Y30079D01*
X27134Y30079D02*
X27134Y30158D01*
X27134Y30158D02*
X27055Y30238D01*
X27055Y30238D02*
X26896Y30238D01*
X26896Y30238D02*
X26817Y30158D01*
X26817Y30158D02*
X26817Y30079D01*
X26817Y30079D02*
X26896Y30000D01*
X27055Y30000D02*
X27134Y29920D01*
X27134Y29920D02*
X27134Y29841D01*
X27134Y29841D02*
X27055Y29761D01*
X27055Y29761D02*
X26896Y29761D01*
X11023Y23011D02*
X11023Y23488D01*
X11500Y23091D02*
X11420Y23011D01*
X11420Y23011D02*
X11261Y23011D01*
X11261Y23011D02*
X11182Y23091D01*
X11182Y23091D02*
X11182Y23408D01*
X11182Y23408D02*
X11261Y23488D01*
X11261Y23488D02*
X11420Y23488D01*
X11420Y23488D02*
X11500Y23408D01*
X11658Y23408D02*
X11738Y23488D01*
X11738Y23488D02*
X11896Y23488D01*
X11896Y23488D02*
X11976Y23408D01*
X11976Y23408D02*
X11976Y23329D01*
X11976Y23329D02*
X11896Y23250D01*
X11896Y23250D02*
X11777Y23250D01*
X11896Y23250D02*
X11976Y23170D01*
X11976Y23170D02*
X11976Y23091D01*
X11976Y23091D02*
X11896Y23011D01*
X11896Y23011D02*
X11738Y23011D01*
X11738Y23011D02*
X11658Y23091D01*
X7738Y24603D02*
X7261Y24603D01*
X7261Y24603D02*
X7261Y24841D01*
X7261Y24841D02*
X7341Y24920D01*
X7341Y24920D02*
X7658Y24920D01*
X7658Y24920D02*
X7738Y24841D01*
X7738Y24841D02*
X7738Y24603D01*
X7738Y25238D02*
X7261Y25238D01*
X7261Y25238D02*
X7420Y25079D01*
X8853Y10761D02*
X8853Y11238D01*
X8853Y11238D02*
X9091Y11238D01*
X9091Y11238D02*
X9170Y11158D01*
X9170Y11158D02*
X9170Y11079D01*
X9170Y11079D02*
X9091Y11000D01*
X9091Y11000D02*
X8853Y11000D01*
X8853Y11000D02*
X9170Y10761D01*
X9329Y11079D02*
X9329Y11158D01*
X9329Y11158D02*
X9408Y11238D01*
X9408Y11238D02*
X9567Y11238D01*
X9567Y11238D02*
X9646Y11158D01*
X9646Y11158D02*
X9646Y11079D01*
X9646Y11079D02*
X9329Y10761D01*
X9329Y10761D02*
X9646Y10761D01*
X21353Y24488D02*
X21353Y24011D01*
X21353Y24011D02*
X21670Y24011D01*
X21988Y24011D02*
X21988Y24488D01*
X21988Y24488D02*
X21829Y24329D01*
X25865Y27761D02*
X25865Y28238D01*
X25865Y28238D02*
X26103Y28238D01*
X26103Y28238D02*
X26182Y28158D01*
X26182Y28158D02*
X26182Y28079D01*
X26182Y28079D02*
X26103Y28000D01*
X26103Y28000D02*
X25865Y28000D01*
X25865Y28000D02*
X26182Y27761D01*
X26500Y27761D02*
X26500Y28238D01*
X26500Y28238D02*
X26341Y28079D01*
X27055Y28238D02*
X26896Y28238D01*
X26896Y28238D02*
X26817Y28158D01*
X26817Y28158D02*
X26817Y27841D01*
X26817Y27841D02*
X26896Y27761D01*
X26896Y27761D02*
X27055Y27761D01*
X27055Y27761D02*
X27134Y27841D01*
X27134Y27841D02*
X27134Y27960D01*
X27134Y27960D02*
X27055Y28039D01*
X27055Y28039D02*
X26896Y28039D01*
X26896Y28039D02*
X26817Y27960D01*
X5603Y4761D02*
X5603Y5238D01*
X5603Y5238D02*
X5841Y5238D01*
X5841Y5238D02*
X5920Y5158D01*
X5920Y5158D02*
X5920Y5079D01*
X5920Y5079D02*
X5841Y5000D01*
X5841Y5000D02*
X5603Y5000D01*
X5603Y5000D02*
X5920Y4761D01*
X6238Y4761D02*
X6238Y5238D01*
X6238Y5238D02*
X6079Y5079D01*
X25865Y28761D02*
X25865Y29238D01*
X25865Y29238D02*
X26103Y29238D01*
X26103Y29238D02*
X26182Y29158D01*
X26182Y29158D02*
X26182Y29079D01*
X26182Y29079D02*
X26103Y29000D01*
X26103Y29000D02*
X25865Y29000D01*
X25865Y29000D02*
X26182Y28761D01*
X26500Y28761D02*
X26500Y29238D01*
X26500Y29238D02*
X26341Y29079D01*
X26817Y29238D02*
X27134Y29238D01*
X27134Y29238D02*
X26817Y28761D01*
X13865Y12261D02*
X13865Y12738D01*
X13865Y12738D02*
X14103Y12738D01*
X14103Y12738D02*
X14182Y12658D01*
X14182Y12658D02*
X14182Y12579D01*
X14182Y12579D02*
X14103Y12500D01*
X14103Y12500D02*
X13865Y12500D01*
X13865Y12500D02*
X14182Y12261D01*
X14500Y12261D02*
X14500Y12738D01*
X14500Y12738D02*
X14341Y12579D01*
X14976Y12261D02*
X14976Y12738D01*
X14976Y12738D02*
X14817Y12579D01*
X12103Y25761D02*
X12103Y26238D01*
X12103Y26238D02*
X12341Y26238D01*
X12341Y26238D02*
X12420Y26158D01*
X12420Y26158D02*
X12420Y26079D01*
X12420Y26079D02*
X12341Y26000D01*
X12341Y26000D02*
X12103Y26000D01*
X12103Y26000D02*
X12420Y25761D01*
X12817Y25761D02*
X12817Y26238D01*
X12817Y26238D02*
X12579Y25920D01*
X12579Y25920D02*
X12896Y25920D01*
X10420Y12341D02*
X10341Y12261D01*
X10341Y12261D02*
X10182Y12261D01*
X10182Y12261D02*
X10103Y12341D01*
X10103Y12341D02*
X10103Y12658D01*
X10103Y12658D02*
X10182Y12738D01*
X10182Y12738D02*
X10341Y12738D01*
X10341Y12738D02*
X10420Y12658D01*
X10817Y12738D02*
X10658Y12738D01*
X10658Y12738D02*
X10579Y12658D01*
X10579Y12658D02*
X10579Y12341D01*
X10579Y12341D02*
X10658Y12261D01*
X10658Y12261D02*
X10817Y12261D01*
X10817Y12261D02*
X10896Y12341D01*
X10896Y12341D02*
X10896Y12460D01*
X10896Y12460D02*
X10817Y12539D01*
X10817Y12539D02*
X10658Y12539D01*
X10658Y12539D02*
X10579Y12460D01*
X33865Y10761D02*
X33865Y11238D01*
X33865Y11238D02*
X34103Y11238D01*
X34103Y11238D02*
X34182Y11158D01*
X34182Y11158D02*
X34182Y11079D01*
X34182Y11079D02*
X34103Y11000D01*
X34103Y11000D02*
X33865Y11000D01*
X33865Y11000D02*
X34182Y10761D01*
X34341Y11079D02*
X34341Y11158D01*
X34341Y11158D02*
X34420Y11238D01*
X34420Y11238D02*
X34579Y11238D01*
X34579Y11238D02*
X34658Y11158D01*
X34658Y11158D02*
X34658Y11079D01*
X34658Y11079D02*
X34341Y10761D01*
X34341Y10761D02*
X34658Y10761D01*
X34896Y10761D02*
X34817Y10841D01*
X34817Y10841D02*
X34817Y10920D01*
X34817Y10920D02*
X34896Y11000D01*
X34896Y11000D02*
X35055Y11000D01*
X35055Y11000D02*
X35134Y11079D01*
X35134Y11079D02*
X35134Y11158D01*
X35134Y11158D02*
X35055Y11238D01*
X35055Y11238D02*
X34896Y11238D01*
X34896Y11238D02*
X34817Y11158D01*
X34817Y11158D02*
X34817Y11079D01*
X34817Y11079D02*
X34896Y11000D01*
X35055Y11000D02*
X35134Y10920D01*
X35134Y10920D02*
X35134Y10841D01*
X35134Y10841D02*
X35055Y10761D01*
X35055Y10761D02*
X34896Y10761D01*
X30865Y12261D02*
X30865Y12738D01*
X30865Y12738D02*
X31103Y12738D01*
X31103Y12738D02*
X31182Y12658D01*
X31182Y12658D02*
X31182Y12579D01*
X31182Y12579D02*
X31103Y12500D01*
X31103Y12500D02*
X30865Y12500D01*
X30865Y12500D02*
X31182Y12261D01*
X31341Y12579D02*
X31341Y12658D01*
X31341Y12658D02*
X31420Y12738D01*
X31420Y12738D02*
X31579Y12738D01*
X31579Y12738D02*
X31658Y12658D01*
X31658Y12658D02*
X31658Y12579D01*
X31658Y12579D02*
X31341Y12261D01*
X31341Y12261D02*
X31658Y12261D01*
X31817Y12658D02*
X31896Y12738D01*
X31896Y12738D02*
X32055Y12738D01*
X32055Y12738D02*
X32134Y12658D01*
X32134Y12658D02*
X32134Y12579D01*
X32134Y12579D02*
X32055Y12500D01*
X32055Y12500D02*
X31936Y12500D01*
X32055Y12500D02*
X32134Y12420D01*
X32134Y12420D02*
X32134Y12341D01*
X32134Y12341D02*
X32055Y12261D01*
X32055Y12261D02*
X31896Y12261D01*
X31896Y12261D02*
X31817Y12341D01*
X35865Y12261D02*
X35865Y12738D01*
X35865Y12738D02*
X36103Y12738D01*
X36103Y12738D02*
X36182Y12658D01*
X36182Y12658D02*
X36182Y12579D01*
X36182Y12579D02*
X36103Y12500D01*
X36103Y12500D02*
X35865Y12500D01*
X35865Y12500D02*
X36182Y12261D01*
X36341Y12579D02*
X36341Y12658D01*
X36341Y12658D02*
X36420Y12738D01*
X36420Y12738D02*
X36579Y12738D01*
X36579Y12738D02*
X36658Y12658D01*
X36658Y12658D02*
X36658Y12579D01*
X36658Y12579D02*
X36341Y12261D01*
X36341Y12261D02*
X36658Y12261D01*
X36896Y12261D02*
X37055Y12261D01*
X37055Y12261D02*
X37134Y12341D01*
X37134Y12341D02*
X37134Y12658D01*
X37134Y12658D02*
X37055Y12738D01*
X37055Y12738D02*
X36896Y12738D01*
X36896Y12738D02*
X36817Y12658D01*
X36817Y12658D02*
X36817Y12539D01*
X36817Y12539D02*
X36896Y12460D01*
X36896Y12460D02*
X37055Y12460D01*
X37055Y12460D02*
X37134Y12539D01*
X16353Y4761D02*
X16353Y5238D01*
X16353Y5238D02*
X16591Y5238D01*
X16591Y5238D02*
X16670Y5158D01*
X16670Y5158D02*
X16670Y4841D01*
X16670Y4841D02*
X16591Y4761D01*
X16591Y4761D02*
X16353Y4761D01*
X16829Y5238D02*
X17146Y5238D01*
X16829Y5238D02*
X16829Y5039D01*
X16829Y5039D02*
X17067Y5039D01*
X17067Y5039D02*
X17146Y4960D01*
X17146Y4960D02*
X17146Y4841D01*
X17146Y4841D02*
X17067Y4761D01*
X17067Y4761D02*
X16829Y4761D01*
X28865Y10761D02*
X28865Y11238D01*
X28865Y11238D02*
X29103Y11238D01*
X29103Y11238D02*
X29182Y11158D01*
X29182Y11158D02*
X29182Y11079D01*
X29182Y11079D02*
X29103Y11000D01*
X29103Y11000D02*
X28865Y11000D01*
X28865Y11000D02*
X29182Y10761D01*
X29341Y11079D02*
X29341Y11158D01*
X29341Y11158D02*
X29420Y11238D01*
X29420Y11238D02*
X29579Y11238D01*
X29579Y11238D02*
X29658Y11158D01*
X29658Y11158D02*
X29658Y11079D01*
X29658Y11079D02*
X29341Y10761D01*
X29341Y10761D02*
X29658Y10761D01*
X29817Y11079D02*
X29817Y11158D01*
X29817Y11158D02*
X29896Y11238D01*
X29896Y11238D02*
X30055Y11238D01*
X30055Y11238D02*
X30134Y11158D01*
X30134Y11158D02*
X30134Y11079D01*
X30134Y11079D02*
X29817Y10761D01*
X29817Y10761D02*
X30134Y10761D01*
X16865Y16011D02*
X16865Y16488D01*
X16865Y16488D02*
X17103Y16488D01*
X17103Y16488D02*
X17182Y16408D01*
X17182Y16408D02*
X17182Y16329D01*
X17182Y16329D02*
X17103Y16250D01*
X17103Y16250D02*
X16865Y16250D01*
X16865Y16250D02*
X17182Y16011D01*
X17341Y16011D02*
X17341Y16488D01*
X17341Y16488D02*
X17658Y16011D01*
X17658Y16011D02*
X17658Y16488D01*
X17976Y16011D02*
X17976Y16488D01*
X17976Y16488D02*
X17817Y16329D01*
X4023Y13261D02*
X4023Y13738D01*
X4500Y13341D02*
X4420Y13261D01*
X4420Y13261D02*
X4261Y13261D01*
X4261Y13261D02*
X4182Y13341D01*
X4182Y13341D02*
X4182Y13658D01*
X4182Y13658D02*
X4261Y13738D01*
X4261Y13738D02*
X4420Y13738D01*
X4420Y13738D02*
X4500Y13658D01*
X4817Y13261D02*
X4817Y13738D01*
X4817Y13738D02*
X4658Y13579D01*
X3853Y24761D02*
X3853Y25238D01*
X3853Y24920D02*
X4170Y25238D01*
X3932Y25000D02*
X4170Y24761D01*
X4488Y24761D02*
X4488Y25238D01*
X4488Y25238D02*
X4329Y25079D01*
X26523Y26261D02*
X26523Y26738D01*
X27000Y26341D02*
X26920Y26261D01*
X26920Y26261D02*
X26761Y26261D01*
X26761Y26261D02*
X26682Y26341D01*
X26682Y26341D02*
X26682Y26658D01*
X26682Y26658D02*
X26761Y26738D01*
X26761Y26738D02*
X26920Y26738D01*
X26920Y26738D02*
X27000Y26658D01*
X27396Y26738D02*
X27238Y26738D01*
X27238Y26738D02*
X27158Y26658D01*
X27158Y26658D02*
X27158Y26341D01*
X27158Y26341D02*
X27238Y26261D01*
X27238Y26261D02*
X27396Y26261D01*
X27396Y26261D02*
X27476Y26341D01*
X27476Y26341D02*
X27476Y26460D01*
X27476Y26460D02*
X27396Y26539D01*
X27396Y26539D02*
X27238Y26539D01*
X27238Y26539D02*
X27158Y26460D01*
X17670Y23341D02*
X17591Y23261D01*
X17591Y23261D02*
X17432Y23261D01*
X17432Y23261D02*
X17353Y23341D01*
X17353Y23341D02*
X17353Y23658D01*
X17353Y23658D02*
X17432Y23738D01*
X17432Y23738D02*
X17591Y23738D01*
X17591Y23738D02*
X17670Y23658D01*
X17829Y23738D02*
X18146Y23738D01*
X18146Y23738D02*
X17829Y23261D01*
X19023Y28761D02*
X19023Y29238D01*
X19500Y28841D02*
X19420Y28761D01*
X19420Y28761D02*
X19261Y28761D01*
X19261Y28761D02*
X19182Y28841D01*
X19182Y28841D02*
X19182Y29158D01*
X19182Y29158D02*
X19261Y29238D01*
X19261Y29238D02*
X19420Y29238D01*
X19420Y29238D02*
X19500Y29158D01*
X19896Y28761D02*
X19896Y29238D01*
X19896Y29238D02*
X19658Y28920D01*
X19658Y28920D02*
X19976Y28920D01*
X25865Y32761D02*
X25865Y33238D01*
X25865Y33238D02*
X26103Y33238D01*
X26103Y33238D02*
X26182Y33158D01*
X26182Y33158D02*
X26182Y33079D01*
X26182Y33079D02*
X26103Y33000D01*
X26103Y33000D02*
X25865Y33000D01*
X25865Y33000D02*
X26182Y32761D01*
X26341Y33079D02*
X26341Y33158D01*
X26341Y33158D02*
X26420Y33238D01*
X26420Y33238D02*
X26579Y33238D01*
X26579Y33238D02*
X26658Y33158D01*
X26658Y33158D02*
X26658Y33079D01*
X26658Y33079D02*
X26341Y32761D01*
X26341Y32761D02*
X26658Y32761D01*
X26976Y32761D02*
X26976Y33238D01*
X26976Y33238D02*
X26817Y33079D01*
X12103Y29761D02*
X12103Y30238D01*
X12103Y30238D02*
X12341Y30238D01*
X12341Y30238D02*
X12420Y30158D01*
X12420Y30158D02*
X12420Y30079D01*
X12420Y30079D02*
X12341Y30000D01*
X12341Y30000D02*
X12103Y30000D01*
X12103Y30000D02*
X12420Y29761D01*
X12658Y29761D02*
X12579Y29841D01*
X12579Y29841D02*
X12579Y29920D01*
X12579Y29920D02*
X12658Y30000D01*
X12658Y30000D02*
X12817Y30000D01*
X12817Y30000D02*
X12896Y30079D01*
X12896Y30079D02*
X12896Y30158D01*
X12896Y30158D02*
X12817Y30238D01*
X12817Y30238D02*
X12658Y30238D01*
X12658Y30238D02*
X12579Y30158D01*
X12579Y30158D02*
X12579Y30079D01*
X12579Y30079D02*
X12658Y30000D01*
X12817Y30000D02*
X12896Y29920D01*
X12896Y29920D02*
X12896Y29841D01*
X12896Y29841D02*
X12817Y29761D01*
X12817Y29761D02*
X12658Y29761D01*
X12103Y28761D02*
X12103Y29238D01*
X12103Y29238D02*
X12341Y29238D01*
X12341Y29238D02*
X12420Y29158D01*
X12420Y29158D02*
X12420Y29079D01*
X12420Y29079D02*
X12341Y29000D01*
X12341Y29000D02*
X12103Y29000D01*
X12103Y29000D02*
X12420Y28761D01*
X12579Y29238D02*
X12896Y29238D01*
X12896Y29238D02*
X12579Y28761D01*
X12103Y27761D02*
X12103Y28238D01*
X12103Y28238D02*
X12341Y28238D01*
X12341Y28238D02*
X12420Y28158D01*
X12420Y28158D02*
X12420Y28079D01*
X12420Y28079D02*
X12341Y28000D01*
X12341Y28000D02*
X12103Y28000D01*
X12103Y28000D02*
X12420Y27761D01*
X12817Y28238D02*
X12658Y28238D01*
X12658Y28238D02*
X12579Y28158D01*
X12579Y28158D02*
X12579Y27841D01*
X12579Y27841D02*
X12658Y27761D01*
X12658Y27761D02*
X12817Y27761D01*
X12817Y27761D02*
X12896Y27841D01*
X12896Y27841D02*
X12896Y27960D01*
X12896Y27960D02*
X12817Y28039D01*
X12817Y28039D02*
X12658Y28039D01*
X12658Y28039D02*
X12579Y27960D01*
X20670Y25341D02*
X20591Y25261D01*
X20591Y25261D02*
X20432Y25261D01*
X20432Y25261D02*
X20353Y25341D01*
X20353Y25341D02*
X20353Y25658D01*
X20353Y25658D02*
X20432Y25738D01*
X20432Y25738D02*
X20591Y25738D01*
X20591Y25738D02*
X20670Y25658D01*
X20908Y25261D02*
X20829Y25341D01*
X20829Y25341D02*
X20829Y25420D01*
X20829Y25420D02*
X20908Y25500D01*
X20908Y25500D02*
X21067Y25500D01*
X21067Y25500D02*
X21146Y25579D01*
X21146Y25579D02*
X21146Y25658D01*
X21146Y25658D02*
X21067Y25738D01*
X21067Y25738D02*
X20908Y25738D01*
X20908Y25738D02*
X20829Y25658D01*
X20829Y25658D02*
X20829Y25579D01*
X20829Y25579D02*
X20908Y25500D01*
X21067Y25500D02*
X21146Y25420D01*
X21146Y25420D02*
X21146Y25341D01*
X21146Y25341D02*
X21067Y25261D01*
X21067Y25261D02*
X20908Y25261D01*
X10523Y7261D02*
X10523Y7738D01*
X11000Y7341D02*
X10920Y7261D01*
X10920Y7261D02*
X10761Y7261D01*
X10761Y7261D02*
X10682Y7341D01*
X10682Y7341D02*
X10682Y7658D01*
X10682Y7658D02*
X10761Y7738D01*
X10761Y7738D02*
X10920Y7738D01*
X10920Y7738D02*
X11000Y7658D01*
X11158Y7579D02*
X11158Y7658D01*
X11158Y7658D02*
X11238Y7738D01*
X11238Y7738D02*
X11396Y7738D01*
X11396Y7738D02*
X11476Y7658D01*
X11476Y7658D02*
X11476Y7579D01*
X11476Y7579D02*
X11158Y7261D01*
X11158Y7261D02*
X11476Y7261D01*
X23773Y20261D02*
X23773Y20738D01*
X24250Y20341D02*
X24170Y20261D01*
X24170Y20261D02*
X24011Y20261D01*
X24011Y20261D02*
X23932Y20341D01*
X23932Y20341D02*
X23932Y20658D01*
X23932Y20658D02*
X24011Y20738D01*
X24011Y20738D02*
X24170Y20738D01*
X24170Y20738D02*
X24250Y20658D01*
X24408Y20738D02*
X24726Y20738D01*
X24408Y20738D02*
X24408Y20539D01*
X24408Y20539D02*
X24646Y20539D01*
X24646Y20539D02*
X24726Y20460D01*
X24726Y20460D02*
X24726Y20341D01*
X24726Y20341D02*
X24646Y20261D01*
X24646Y20261D02*
X24408Y20261D01*
X34523Y26261D02*
X34523Y26738D01*
X35000Y26341D02*
X34920Y26261D01*
X34920Y26261D02*
X34761Y26261D01*
X34761Y26261D02*
X34682Y26341D01*
X34682Y26341D02*
X34682Y26658D01*
X34682Y26658D02*
X34761Y26738D01*
X34761Y26738D02*
X34920Y26738D01*
X34920Y26738D02*
X35000Y26658D01*
X35238Y26261D02*
X35158Y26341D01*
X35158Y26341D02*
X35158Y26420D01*
X35158Y26420D02*
X35238Y26500D01*
X35238Y26500D02*
X35396Y26500D01*
X35396Y26500D02*
X35476Y26579D01*
X35476Y26579D02*
X35476Y26658D01*
X35476Y26658D02*
X35396Y26738D01*
X35396Y26738D02*
X35238Y26738D01*
X35238Y26738D02*
X35158Y26658D01*
X35158Y26658D02*
X35158Y26579D01*
X35158Y26579D02*
X35238Y26500D01*
X35396Y26500D02*
X35476Y26420D01*
X35476Y26420D02*
X35476Y26341D01*
X35476Y26341D02*
X35396Y26261D01*
X35396Y26261D02*
X35238Y26261D01*
X2261Y11761D02*
X2261Y12238D01*
X2103Y12238D02*
X2420Y12238D01*
X2738Y11761D02*
X2738Y12238D01*
X2738Y12238D02*
X2579Y12079D01*
X36365Y22761D02*
X36365Y23238D01*
X36365Y23238D02*
X36603Y23238D01*
X36603Y23238D02*
X36682Y23158D01*
X36682Y23158D02*
X36682Y23079D01*
X36682Y23079D02*
X36603Y23000D01*
X36603Y23000D02*
X36365Y23000D01*
X36365Y23000D02*
X36682Y22761D01*
X36841Y23158D02*
X36920Y23238D01*
X36920Y23238D02*
X37079Y23238D01*
X37079Y23238D02*
X37158Y23158D01*
X37158Y23158D02*
X37158Y23079D01*
X37158Y23079D02*
X37079Y23000D01*
X37079Y23000D02*
X36960Y23000D01*
X37079Y23000D02*
X37158Y22920D01*
X37158Y22920D02*
X37158Y22841D01*
X37158Y22841D02*
X37079Y22761D01*
X37079Y22761D02*
X36920Y22761D01*
X36920Y22761D02*
X36841Y22841D01*
X37317Y23158D02*
X37396Y23238D01*
X37396Y23238D02*
X37555Y23238D01*
X37555Y23238D02*
X37634Y23158D01*
X37634Y23158D02*
X37634Y23079D01*
X37634Y23079D02*
X37555Y23000D01*
X37555Y23000D02*
X37436Y23000D01*
X37555Y23000D02*
X37634Y22920D01*
X37634Y22920D02*
X37634Y22841D01*
X37634Y22841D02*
X37555Y22761D01*
X37555Y22761D02*
X37396Y22761D01*
X37396Y22761D02*
X37317Y22841D01*
X36365Y21511D02*
X36365Y21988D01*
X36365Y21988D02*
X36603Y21988D01*
X36603Y21988D02*
X36682Y21908D01*
X36682Y21908D02*
X36682Y21829D01*
X36682Y21829D02*
X36603Y21750D01*
X36603Y21750D02*
X36365Y21750D01*
X36365Y21750D02*
X36682Y21511D01*
X36841Y21908D02*
X36920Y21988D01*
X36920Y21988D02*
X37079Y21988D01*
X37079Y21988D02*
X37158Y21908D01*
X37158Y21908D02*
X37158Y21829D01*
X37158Y21829D02*
X37079Y21750D01*
X37079Y21750D02*
X36960Y21750D01*
X37079Y21750D02*
X37158Y21670D01*
X37158Y21670D02*
X37158Y21591D01*
X37158Y21591D02*
X37079Y21511D01*
X37079Y21511D02*
X36920Y21511D01*
X36920Y21511D02*
X36841Y21591D01*
X37317Y21829D02*
X37317Y21908D01*
X37317Y21908D02*
X37396Y21988D01*
X37396Y21988D02*
X37555Y21988D01*
X37555Y21988D02*
X37634Y21908D01*
X37634Y21908D02*
X37634Y21829D01*
X37634Y21829D02*
X37317Y21511D01*
X37317Y21511D02*
X37634Y21511D01*
X36365Y20261D02*
X36365Y20738D01*
X36365Y20738D02*
X36603Y20738D01*
X36603Y20738D02*
X36682Y20658D01*
X36682Y20658D02*
X36682Y20579D01*
X36682Y20579D02*
X36603Y20500D01*
X36603Y20500D02*
X36365Y20500D01*
X36365Y20500D02*
X36682Y20261D01*
X36841Y20658D02*
X36920Y20738D01*
X36920Y20738D02*
X37079Y20738D01*
X37079Y20738D02*
X37158Y20658D01*
X37158Y20658D02*
X37158Y20579D01*
X37158Y20579D02*
X37079Y20500D01*
X37079Y20500D02*
X36960Y20500D01*
X37079Y20500D02*
X37158Y20420D01*
X37158Y20420D02*
X37158Y20341D01*
X37158Y20341D02*
X37079Y20261D01*
X37079Y20261D02*
X36920Y20261D01*
X36920Y20261D02*
X36841Y20341D01*
X37476Y20261D02*
X37476Y20738D01*
X37476Y20738D02*
X37317Y20579D01*
X36365Y19011D02*
X36365Y19488D01*
X36365Y19488D02*
X36603Y19488D01*
X36603Y19488D02*
X36682Y19408D01*
X36682Y19408D02*
X36682Y19329D01*
X36682Y19329D02*
X36603Y19250D01*
X36603Y19250D02*
X36365Y19250D01*
X36365Y19250D02*
X36682Y19011D01*
X36841Y19408D02*
X36920Y19488D01*
X36920Y19488D02*
X37079Y19488D01*
X37079Y19488D02*
X37158Y19408D01*
X37158Y19408D02*
X37158Y19329D01*
X37158Y19329D02*
X37079Y19250D01*
X37079Y19250D02*
X36960Y19250D01*
X37079Y19250D02*
X37158Y19170D01*
X37158Y19170D02*
X37158Y19091D01*
X37158Y19091D02*
X37079Y19011D01*
X37079Y19011D02*
X36920Y19011D01*
X36920Y19011D02*
X36841Y19091D01*
X37396Y19011D02*
X37317Y19170D01*
X37317Y19170D02*
X37317Y19329D01*
X37317Y19329D02*
X37396Y19488D01*
X37396Y19488D02*
X37555Y19488D01*
X37555Y19488D02*
X37634Y19329D01*
X37634Y19329D02*
X37634Y19170D01*
X37634Y19170D02*
X37555Y19011D01*
X37555Y19011D02*
X37396Y19011D01*
X12376Y23488D02*
X12694Y23488D01*
X12694Y23488D02*
X12376Y23011D01*
X12932Y23011D02*
X12853Y23091D01*
X12853Y23091D02*
X12853Y23170D01*
X12853Y23170D02*
X12932Y23250D01*
X12932Y23250D02*
X13091Y23250D01*
X13091Y23250D02*
X13170Y23329D01*
X13170Y23329D02*
X13170Y23408D01*
X13170Y23408D02*
X13091Y23488D01*
X13091Y23488D02*
X12932Y23488D01*
X12932Y23488D02*
X12853Y23408D01*
X12853Y23408D02*
X12853Y23329D01*
X12853Y23329D02*
X12932Y23250D01*
X13091Y23250D02*
X13170Y23170D01*
X13170Y23170D02*
X13170Y23091D01*
X13170Y23091D02*
X13091Y23011D01*
X13091Y23011D02*
X12932Y23011D01*
X13488Y23011D02*
X13488Y23488D01*
X13488Y23488D02*
X13329Y23329D01*
X13805Y23488D02*
X14123Y23488D01*
X13805Y23488D02*
X13805Y23289D01*
X13805Y23289D02*
X14043Y23289D01*
X14043Y23289D02*
X14123Y23210D01*
X14123Y23210D02*
X14123Y23091D01*
X14123Y23091D02*
X14043Y23011D01*
X14043Y23011D02*
X13805Y23011D01*
X6126Y13738D02*
X6444Y13738D01*
X6444Y13738D02*
X6126Y13261D01*
X6682Y13261D02*
X6603Y13341D01*
X6603Y13341D02*
X6603Y13420D01*
X6603Y13420D02*
X6682Y13500D01*
X6682Y13500D02*
X6841Y13500D01*
X6841Y13500D02*
X6920Y13579D01*
X6920Y13579D02*
X6920Y13658D01*
X6920Y13658D02*
X6841Y13738D01*
X6841Y13738D02*
X6682Y13738D01*
X6682Y13738D02*
X6603Y13658D01*
X6603Y13658D02*
X6603Y13579D01*
X6603Y13579D02*
X6682Y13500D01*
X6841Y13500D02*
X6920Y13420D01*
X6920Y13420D02*
X6920Y13341D01*
X6920Y13341D02*
X6841Y13261D01*
X6841Y13261D02*
X6682Y13261D01*
X7158Y13261D02*
X7079Y13420D01*
X7079Y13420D02*
X7079Y13579D01*
X7079Y13579D02*
X7158Y13738D01*
X7158Y13738D02*
X7317Y13738D01*
X7317Y13738D02*
X7396Y13579D01*
X7396Y13579D02*
X7396Y13420D01*
X7396Y13420D02*
X7317Y13261D01*
X7317Y13261D02*
X7158Y13261D01*
X7555Y13738D02*
X7873Y13738D01*
X7555Y13738D02*
X7555Y13539D01*
X7555Y13539D02*
X7793Y13539D01*
X7793Y13539D02*
X7873Y13460D01*
X7873Y13460D02*
X7873Y13341D01*
X7873Y13341D02*
X7793Y13261D01*
X7793Y13261D02*
X7555Y13261D01*
X31103Y3261D02*
X31103Y3738D01*
X31103Y3738D02*
X31341Y3738D01*
X31341Y3738D02*
X31420Y3658D01*
X31420Y3658D02*
X31420Y3579D01*
X31420Y3579D02*
X31341Y3500D01*
X31341Y3500D02*
X31103Y3500D01*
X31579Y3579D02*
X31579Y3658D01*
X31579Y3658D02*
X31658Y3738D01*
X31658Y3738D02*
X31817Y3738D01*
X31817Y3738D02*
X31896Y3658D01*
X31896Y3658D02*
X31896Y3579D01*
X31896Y3579D02*
X31579Y3261D01*
X31579Y3261D02*
X31896Y3261D01*
X27853Y3261D02*
X27853Y3738D01*
X27853Y3738D02*
X28091Y3738D01*
X28091Y3738D02*
X28170Y3658D01*
X28170Y3658D02*
X28170Y3579D01*
X28170Y3579D02*
X28091Y3500D01*
X28091Y3500D02*
X27853Y3500D01*
X28329Y3658D02*
X28408Y3738D01*
X28408Y3738D02*
X28567Y3738D01*
X28567Y3738D02*
X28646Y3658D01*
X28646Y3658D02*
X28646Y3579D01*
X28646Y3579D02*
X28567Y3500D01*
X28567Y3500D02*
X28448Y3500D01*
X28567Y3500D02*
X28646Y3420D01*
X28646Y3420D02*
X28646Y3341D01*
X28646Y3341D02*
X28567Y3261D01*
X28567Y3261D02*
X28408Y3261D01*
X28408Y3261D02*
X28329Y3341D01*
X24603Y3261D02*
X24603Y3738D01*
X24603Y3738D02*
X24841Y3738D01*
X24841Y3738D02*
X24920Y3658D01*
X24920Y3658D02*
X24920Y3579D01*
X24920Y3579D02*
X24841Y3500D01*
X24841Y3500D02*
X24603Y3500D01*
X25317Y3261D02*
X25317Y3738D01*
X25317Y3738D02*
X25079Y3420D01*
X25079Y3420D02*
X25396Y3420D01*
X34353Y3261D02*
X34353Y3738D01*
X34353Y3738D02*
X34591Y3738D01*
X34591Y3738D02*
X34670Y3658D01*
X34670Y3658D02*
X34670Y3579D01*
X34670Y3579D02*
X34591Y3500D01*
X34591Y3500D02*
X34353Y3500D01*
X34988Y3261D02*
X34988Y3738D01*
X34988Y3738D02*
X34829Y3579D01*
X31103Y7988D02*
X31103Y7511D01*
X31103Y7511D02*
X31420Y7511D01*
X31579Y7829D02*
X31579Y7908D01*
X31579Y7908D02*
X31658Y7988D01*
X31658Y7988D02*
X31817Y7988D01*
X31817Y7988D02*
X31896Y7908D01*
X31896Y7908D02*
X31896Y7829D01*
X31896Y7829D02*
X31579Y7511D01*
X31579Y7511D02*
X31896Y7511D01*
X27853Y7988D02*
X27853Y7511D01*
X27853Y7511D02*
X28170Y7511D01*
X28329Y7908D02*
X28408Y7988D01*
X28408Y7988D02*
X28567Y7988D01*
X28567Y7988D02*
X28646Y7908D01*
X28646Y7908D02*
X28646Y7829D01*
X28646Y7829D02*
X28567Y7750D01*
X28567Y7750D02*
X28448Y7750D01*
X28567Y7750D02*
X28646Y7670D01*
X28646Y7670D02*
X28646Y7591D01*
X28646Y7591D02*
X28567Y7511D01*
X28567Y7511D02*
X28408Y7511D01*
X28408Y7511D02*
X28329Y7591D01*
X24603Y7988D02*
X24603Y7511D01*
X24603Y7511D02*
X24920Y7511D01*
X25317Y7511D02*
X25317Y7988D01*
X25317Y7988D02*
X25079Y7670D01*
X25079Y7670D02*
X25396Y7670D01*
X41396Y1841D02*
X41317Y1761D01*
X41317Y1761D02*
X41158Y1761D01*
X41158Y1761D02*
X41079Y1841D01*
X41079Y1841D02*
X41079Y2158D01*
X41079Y2158D02*
X41158Y2238D01*
X41158Y2238D02*
X41317Y2238D01*
X41317Y2238D02*
X41396Y2158D01*
X41555Y2238D02*
X41555Y1761D01*
X41555Y1761D02*
X41873Y1761D01*
X42031Y1761D02*
X42031Y2238D01*
X42507Y1841D02*
X42428Y1761D01*
X42428Y1761D02*
X42269Y1761D01*
X42269Y1761D02*
X42190Y1841D01*
X42190Y1841D02*
X42190Y2158D01*
X42190Y2158D02*
X42269Y2238D01*
X42269Y2238D02*
X42428Y2238D01*
X42428Y2238D02*
X42507Y2158D01*
X42666Y1920D02*
X42984Y1920D01*
X43142Y2079D02*
X43142Y2158D01*
X43142Y2158D02*
X43222Y2238D01*
X43222Y2238D02*
X43380Y2238D01*
X43380Y2238D02*
X43460Y2158D01*
X43460Y2158D02*
X43460Y2079D01*
X43460Y2079D02*
X43142Y1761D01*
X43142Y1761D02*
X43460Y1761D01*
X34353Y7988D02*
X34353Y7511D01*
X34353Y7511D02*
X34670Y7511D01*
X34988Y7511D02*
X34988Y7988D01*
X34988Y7988D02*
X34829Y7829D01*
X37603Y3261D02*
X37603Y3738D01*
X37603Y3738D02*
X37841Y3738D01*
X37841Y3738D02*
X37920Y3658D01*
X37920Y3658D02*
X37920Y3579D01*
X37920Y3579D02*
X37841Y3500D01*
X37841Y3500D02*
X37603Y3500D01*
X38158Y3261D02*
X38079Y3420D01*
X38079Y3420D02*
X38079Y3579D01*
X38079Y3579D02*
X38158Y3738D01*
X38158Y3738D02*
X38317Y3738D01*
X38317Y3738D02*
X38396Y3579D01*
X38396Y3579D02*
X38396Y3420D01*
X38396Y3420D02*
X38317Y3261D01*
X38317Y3261D02*
X38158Y3261D01*
X37603Y7988D02*
X37603Y7511D01*
X37603Y7511D02*
X37920Y7511D01*
X38158Y7511D02*
X38079Y7670D01*
X38079Y7670D02*
X38079Y7829D01*
X38079Y7829D02*
X38158Y7988D01*
X38158Y7988D02*
X38317Y7988D01*
X38317Y7988D02*
X38396Y7829D01*
X38396Y7829D02*
X38396Y7670D01*
X38396Y7670D02*
X38317Y7511D01*
X38317Y7511D02*
X38158Y7511D01*
X41079Y2761D02*
X41079Y3158D01*
X41079Y3158D02*
X41158Y3238D01*
X41158Y3238D02*
X41317Y3238D01*
X41317Y3238D02*
X41396Y3158D01*
X41396Y3158D02*
X41396Y2761D01*
X41079Y3000D02*
X41396Y3000D01*
X41555Y2920D02*
X41873Y2920D01*
X42111Y2761D02*
X42031Y2920D01*
X42031Y2920D02*
X42031Y3079D01*
X42031Y3079D02*
X42111Y3238D01*
X42111Y3238D02*
X42269Y3238D01*
X42269Y3238D02*
X42349Y3079D01*
X42349Y3079D02*
X42349Y2920D01*
X42349Y2920D02*
X42269Y2761D01*
X42269Y2761D02*
X42111Y2761D01*
X42984Y2761D02*
X43222Y2761D01*
X43222Y2761D02*
X43301Y2841D01*
X43301Y2841D02*
X43301Y2920D01*
X43301Y2920D02*
X43222Y3000D01*
X43222Y3000D02*
X42984Y3000D01*
X42984Y2761D02*
X42984Y3238D01*
X42984Y3238D02*
X43222Y3238D01*
X43222Y3238D02*
X43301Y3158D01*
X43301Y3158D02*
X43301Y3079D01*
X43301Y3079D02*
X43222Y3000D01*
X43460Y2920D02*
X43777Y2920D01*
X44095Y2761D02*
X44095Y3238D01*
X44095Y3238D02*
X43936Y3079D01*
X21365Y1011D02*
X21365Y1488D01*
X21365Y1488D02*
X21603Y1488D01*
X21603Y1488D02*
X21682Y1408D01*
X21682Y1408D02*
X21682Y1329D01*
X21682Y1329D02*
X21603Y1250D01*
X21603Y1250D02*
X21365Y1250D01*
X21841Y1488D02*
X21920Y1011D01*
X21920Y1011D02*
X22000Y1250D01*
X22000Y1250D02*
X22079Y1011D01*
X22079Y1011D02*
X22158Y1488D01*
X22317Y1011D02*
X22317Y1488D01*
X22317Y1488D02*
X22555Y1488D01*
X22555Y1488D02*
X22634Y1408D01*
X22634Y1408D02*
X22634Y1329D01*
X22634Y1329D02*
X22555Y1250D01*
X22555Y1250D02*
X22317Y1250D01*
X22317Y1250D02*
X22634Y1011D01*
X20047Y37761D02*
X20047Y38238D01*
X20047Y38238D02*
X20206Y38000D01*
X20206Y38000D02*
X20365Y38238D01*
X20365Y38238D02*
X20365Y37761D01*
X20563Y38079D02*
X20682Y38079D01*
X20682Y38079D02*
X20761Y38000D01*
X20761Y38000D02*
X20761Y37761D01*
X20761Y37761D02*
X20563Y37761D01*
X20563Y37761D02*
X20523Y37841D01*
X20523Y37841D02*
X20563Y37920D01*
X20563Y37920D02*
X20761Y37920D01*
X20920Y37761D02*
X21079Y37761D01*
X21079Y37761D02*
X21158Y37841D01*
X21158Y37841D02*
X21079Y37920D01*
X21079Y37920D02*
X21000Y37920D01*
X21000Y37920D02*
X20920Y38000D01*
X20920Y38000D02*
X21000Y38079D01*
X21000Y38079D02*
X21158Y38079D01*
X21317Y37761D02*
X21476Y37761D01*
X21476Y37761D02*
X21555Y37841D01*
X21555Y37841D02*
X21476Y37920D01*
X21476Y37920D02*
X21396Y37920D01*
X21396Y37920D02*
X21317Y38000D01*
X21317Y38000D02*
X21396Y38079D01*
X21396Y38079D02*
X21555Y38079D01*
X21714Y37920D02*
X21952Y37920D01*
X21952Y37920D02*
X21952Y38000D01*
X21952Y38000D02*
X21873Y38079D01*
X21873Y38079D02*
X21793Y38079D01*
X21793Y38079D02*
X21714Y38000D01*
X21714Y38000D02*
X21714Y37841D01*
X21714Y37841D02*
X21793Y37761D01*
X21793Y37761D02*
X21952Y37761D01*
X45829Y12126D02*
X45829Y12444D01*
X45670Y12285D02*
X45988Y12285D01*
X45988Y12761D02*
X45511Y12761D01*
X45511Y12761D02*
X45670Y12603D01*
X45511Y13079D02*
X45511Y13396D01*
X45511Y13079D02*
X45710Y13079D01*
X45710Y13079D02*
X45710Y13317D01*
X45710Y13317D02*
X45789Y13396D01*
X45789Y13396D02*
X45908Y13396D01*
X45908Y13396D02*
X45988Y13317D01*
X45988Y13317D02*
X45988Y13079D01*
X45511Y13555D02*
X45988Y13714D01*
X45988Y13714D02*
X45511Y13873D01*
X25079Y2321D02*
X25079Y2718D01*
X25079Y2718D02*
X25158Y2797D01*
X25158Y2797D02*
X25317Y2797D01*
X25317Y2797D02*
X25396Y2718D01*
X25396Y2718D02*
X25396Y2321D01*
X25079Y2559D02*
X25396Y2559D01*
X25793Y2321D02*
X25634Y2321D01*
X25634Y2321D02*
X25555Y2400D01*
X25555Y2400D02*
X25555Y2559D01*
X25555Y2559D02*
X25634Y2638D01*
X25634Y2638D02*
X25793Y2638D01*
X25793Y2837D02*
X25793Y2321D01*
X25952Y2321D02*
X25952Y2638D01*
X25952Y2559D02*
X26031Y2638D01*
X26031Y2638D02*
X26111Y2638D01*
X26111Y2638D02*
X26190Y2559D01*
X26349Y2321D02*
X26349Y2638D01*
X26349Y2797D02*
X26349Y2797D01*
X26547Y2638D02*
X26666Y2638D01*
X26666Y2638D02*
X26746Y2559D01*
X26746Y2559D02*
X26746Y2321D01*
X26746Y2321D02*
X26547Y2321D01*
X26547Y2321D02*
X26507Y2400D01*
X26507Y2400D02*
X26547Y2480D01*
X26547Y2480D02*
X26746Y2480D01*
X26904Y2321D02*
X26904Y2638D01*
X26904Y2559D02*
X26984Y2638D01*
X26984Y2638D02*
X27063Y2638D01*
X27142Y2559D02*
X27142Y2321D01*
X27063Y2638D02*
X27142Y2559D01*
X27777Y2321D02*
X27777Y2797D01*
X27777Y2797D02*
X27936Y2559D01*
X27936Y2559D02*
X28095Y2797D01*
X28095Y2797D02*
X28095Y2321D01*
X28293Y2638D02*
X28412Y2638D01*
X28412Y2638D02*
X28492Y2559D01*
X28492Y2559D02*
X28492Y2321D01*
X28492Y2321D02*
X28293Y2321D01*
X28293Y2321D02*
X28253Y2400D01*
X28253Y2400D02*
X28293Y2480D01*
X28293Y2480D02*
X28492Y2480D01*
X28650Y2638D02*
X28888Y2638D01*
X28888Y2638D02*
X28650Y2321D01*
X28650Y2321D02*
X28888Y2321D01*
X29047Y2638D02*
X29285Y2638D01*
X29285Y2638D02*
X29047Y2321D01*
X29047Y2321D02*
X29285Y2321D01*
X29523Y2321D02*
X29444Y2400D01*
X29444Y2400D02*
X29444Y2559D01*
X29444Y2559D02*
X29523Y2638D01*
X29523Y2638D02*
X29682Y2638D01*
X29682Y2638D02*
X29761Y2559D01*
X29761Y2559D02*
X29761Y2400D01*
X29761Y2400D02*
X29682Y2321D01*
X29682Y2321D02*
X29523Y2321D01*
X29920Y2321D02*
X29920Y2837D01*
X30119Y2638D02*
X30238Y2638D01*
X30238Y2638D02*
X30317Y2559D01*
X30317Y2559D02*
X30317Y2321D01*
X30317Y2321D02*
X30119Y2321D01*
X30119Y2321D02*
X30079Y2400D01*
X30079Y2400D02*
X30119Y2480D01*
X30119Y2480D02*
X30317Y2480D01*
X30555Y2321D02*
X30555Y2242D01*
X30555Y2242D02*
X30476Y2162D01*
X31190Y2797D02*
X31190Y2321D01*
X31190Y2321D02*
X31507Y2321D01*
X31666Y2638D02*
X31666Y2400D01*
X31666Y2400D02*
X31746Y2321D01*
X31746Y2321D02*
X31825Y2321D01*
X31825Y2321D02*
X31904Y2400D01*
X31904Y2638D02*
X31904Y2321D01*
X32301Y2321D02*
X32142Y2321D01*
X32142Y2321D02*
X32063Y2400D01*
X32063Y2400D02*
X32063Y2559D01*
X32063Y2559D02*
X32142Y2638D01*
X32142Y2638D02*
X32301Y2638D01*
X32500Y2638D02*
X32619Y2638D01*
X32619Y2638D02*
X32698Y2559D01*
X32698Y2559D02*
X32698Y2321D01*
X32698Y2321D02*
X32500Y2321D01*
X32500Y2321D02*
X32460Y2400D01*
X32460Y2400D02*
X32500Y2480D01*
X32500Y2480D02*
X32698Y2480D01*
X32857Y2321D02*
X33015Y2321D01*
X33015Y2321D02*
X33095Y2400D01*
X33095Y2400D02*
X33015Y2480D01*
X33015Y2480D02*
X32936Y2480D01*
X32936Y2480D02*
X32857Y2559D01*
X32857Y2559D02*
X32936Y2638D01*
X32936Y2638D02*
X33095Y2638D01*
X33730Y2321D02*
X33730Y2797D01*
X33730Y2797D02*
X33888Y2559D01*
X33888Y2559D02*
X34047Y2797D01*
X34047Y2797D02*
X34047Y2321D01*
X34206Y2480D02*
X34444Y2480D01*
X34444Y2480D02*
X34444Y2559D01*
X34444Y2559D02*
X34365Y2638D01*
X34365Y2638D02*
X34285Y2638D01*
X34285Y2638D02*
X34206Y2559D01*
X34206Y2559D02*
X34206Y2400D01*
X34206Y2400D02*
X34285Y2321D01*
X34285Y2321D02*
X34444Y2321D01*
X34603Y2321D02*
X34603Y2638D01*
X34603Y2797D02*
X34603Y2797D01*
X34761Y2321D02*
X34761Y2638D01*
X34761Y2559D02*
X34841Y2638D01*
X34841Y2638D02*
X34920Y2638D01*
X34920Y2638D02*
X35000Y2559D01*
X35198Y2638D02*
X35317Y2638D01*
X35317Y2638D02*
X35396Y2559D01*
X35396Y2559D02*
X35396Y2321D01*
X35396Y2321D02*
X35198Y2321D01*
X35198Y2321D02*
X35158Y2400D01*
X35158Y2400D02*
X35198Y2480D01*
X35198Y2480D02*
X35396Y2480D01*
X25079Y1242D02*
X25079Y1718D01*
X25079Y1718D02*
X25396Y1718D01*
X25317Y1480D02*
X25079Y1480D01*
X25079Y1242D02*
X25396Y1242D01*
X25555Y1242D02*
X25555Y1757D01*
X25793Y1242D02*
X25714Y1321D01*
X25714Y1321D02*
X25714Y1480D01*
X25714Y1480D02*
X25793Y1559D01*
X25793Y1559D02*
X25952Y1559D01*
X25952Y1559D02*
X26031Y1480D01*
X26031Y1480D02*
X26031Y1321D01*
X26031Y1321D02*
X25952Y1242D01*
X25952Y1242D02*
X25793Y1242D01*
X26190Y1559D02*
X26190Y1321D01*
X26190Y1321D02*
X26269Y1242D01*
X26269Y1242D02*
X26349Y1242D01*
X26349Y1242D02*
X26428Y1321D01*
X26428Y1559D02*
X26428Y1242D01*
X26626Y1559D02*
X26746Y1559D01*
X26746Y1559D02*
X26825Y1480D01*
X26825Y1480D02*
X26825Y1242D01*
X26825Y1242D02*
X26626Y1242D01*
X26626Y1242D02*
X26587Y1321D01*
X26587Y1321D02*
X26626Y1400D01*
X26626Y1400D02*
X26825Y1400D01*
X26984Y1242D02*
X26984Y1559D01*
X26984Y1480D02*
X27063Y1559D01*
X27063Y1559D02*
X27142Y1559D01*
X27222Y1480D02*
X27222Y1242D01*
X27142Y1559D02*
X27222Y1480D01*
X27857Y1242D02*
X28095Y1242D01*
X28095Y1242D02*
X28174Y1321D01*
X28174Y1321D02*
X28174Y1400D01*
X28174Y1400D02*
X28095Y1480D01*
X28095Y1480D02*
X27857Y1480D01*
X27857Y1242D02*
X27857Y1718D01*
X27857Y1718D02*
X28095Y1718D01*
X28095Y1718D02*
X28174Y1638D01*
X28174Y1638D02*
X28174Y1559D01*
X28174Y1559D02*
X28095Y1480D01*
X28373Y1559D02*
X28492Y1559D01*
X28492Y1559D02*
X28571Y1480D01*
X28571Y1480D02*
X28571Y1242D01*
X28571Y1242D02*
X28373Y1242D01*
X28373Y1242D02*
X28333Y1321D01*
X28333Y1321D02*
X28373Y1400D01*
X28373Y1400D02*
X28571Y1400D01*
X28730Y1242D02*
X28730Y1559D01*
X28730Y1480D02*
X28809Y1559D01*
X28809Y1559D02*
X28888Y1559D01*
X28888Y1559D02*
X28968Y1480D01*
X29126Y1242D02*
X29126Y1757D01*
X29126Y1559D02*
X29285Y1559D01*
X29285Y1559D02*
X29365Y1480D01*
X29365Y1480D02*
X29365Y1321D01*
X29365Y1321D02*
X29285Y1242D01*
X29285Y1242D02*
X29126Y1242D01*
X29523Y1400D02*
X29761Y1400D01*
X29761Y1400D02*
X29761Y1480D01*
X29761Y1480D02*
X29682Y1559D01*
X29682Y1559D02*
X29603Y1559D01*
X29603Y1559D02*
X29523Y1480D01*
X29523Y1480D02*
X29523Y1321D01*
X29523Y1321D02*
X29603Y1242D01*
X29603Y1242D02*
X29761Y1242D01*
X29920Y1242D02*
X29920Y1559D01*
X29920Y1480D02*
X30000Y1559D01*
X30000Y1559D02*
X30079Y1559D01*
X30079Y1559D02*
X30158Y1480D01*
X30357Y1559D02*
X30476Y1559D01*
X30476Y1559D02*
X30555Y1480D01*
X30555Y1480D02*
X30555Y1242D01*
X30555Y1242D02*
X30357Y1242D01*
X30357Y1242D02*
X30317Y1321D01*
X30317Y1321D02*
X30357Y1400D01*
X30357Y1400D02*
X30555Y1400D01*
X30714Y1559D02*
X30714Y1321D01*
X30714Y1321D02*
X30793Y1242D01*
X30793Y1242D02*
X30873Y1242D01*
X30873Y1242D02*
X30952Y1321D01*
X30952Y1559D02*
X30952Y1242D01*
X31587Y1400D02*
X31825Y1400D01*
X31825Y1400D02*
X31825Y1480D01*
X31825Y1480D02*
X31746Y1559D01*
X31746Y1559D02*
X31666Y1559D01*
X31666Y1559D02*
X31587Y1480D01*
X31587Y1480D02*
X31587Y1321D01*
X31587Y1321D02*
X31666Y1242D01*
X31666Y1242D02*
X31825Y1242D01*
X31984Y1559D02*
X32222Y1559D01*
X32063Y1718D02*
X32063Y1321D01*
X32063Y1321D02*
X32142Y1242D01*
X32142Y1242D02*
X32222Y1242D01*
X32857Y1242D02*
X32936Y1242D01*
X32936Y1242D02*
X33015Y1321D01*
X33015Y1321D02*
X33015Y1718D01*
X32936Y1718D02*
X33095Y1718D01*
X33333Y1242D02*
X33253Y1321D01*
X33253Y1321D02*
X33253Y1480D01*
X33253Y1480D02*
X33333Y1559D01*
X33333Y1559D02*
X33492Y1559D01*
X33492Y1559D02*
X33571Y1480D01*
X33571Y1480D02*
X33571Y1321D01*
X33571Y1321D02*
X33492Y1242D01*
X33492Y1242D02*
X33333Y1242D01*
X33730Y1242D02*
X33888Y1242D01*
X33888Y1242D02*
X33968Y1321D01*
X33968Y1321D02*
X33888Y1400D01*
X33888Y1400D02*
X33809Y1400D01*
X33809Y1400D02*
X33730Y1480D01*
X33730Y1480D02*
X33809Y1559D01*
X33809Y1559D02*
X33968Y1559D01*
X34126Y1400D02*
X34365Y1400D01*
X34365Y1400D02*
X34365Y1480D01*
X34365Y1480D02*
X34285Y1559D01*
X34285Y1559D02*
X34206Y1559D01*
X34206Y1559D02*
X34126Y1480D01*
X34126Y1480D02*
X34126Y1321D01*
X34126Y1321D02*
X34206Y1242D01*
X34206Y1242D02*
X34365Y1242D01*
X35000Y1242D02*
X35000Y1718D01*
X35000Y1718D02*
X35238Y1718D01*
X35238Y1718D02*
X35317Y1638D01*
X35317Y1638D02*
X35317Y1559D01*
X35317Y1559D02*
X35238Y1480D01*
X35238Y1480D02*
X35000Y1480D01*
X35000Y1480D02*
X35317Y1242D01*
X35476Y1242D02*
X35476Y1559D01*
X35476Y1718D02*
X35476Y1718D01*
X35634Y1559D02*
X35753Y1242D01*
X35753Y1242D02*
X35873Y1559D01*
X36031Y1400D02*
X36269Y1400D01*
X36269Y1400D02*
X36269Y1480D01*
X36269Y1480D02*
X36190Y1559D01*
X36190Y1559D02*
X36111Y1559D01*
X36111Y1559D02*
X36031Y1480D01*
X36031Y1480D02*
X36031Y1321D01*
X36031Y1321D02*
X36111Y1242D01*
X36111Y1242D02*
X36269Y1242D01*
X36428Y1242D02*
X36428Y1559D01*
X36428Y1480D02*
X36507Y1559D01*
X36507Y1559D02*
X36587Y1559D01*
X36587Y1559D02*
X36666Y1480D01*
X36865Y1559D02*
X36984Y1559D01*
X36984Y1559D02*
X37063Y1480D01*
X37063Y1480D02*
X37063Y1242D01*
X37063Y1242D02*
X36865Y1242D01*
X36865Y1242D02*
X36825Y1321D01*
X36825Y1321D02*
X36865Y1400D01*
X36865Y1400D02*
X37063Y1400D01*
X3829Y1011D02*
X3829Y1488D01*
X3829Y1488D02*
X4146Y1488D01*
X4067Y1250D02*
X3829Y1250D01*
X3829Y1011D02*
X4146Y1011D01*
X4623Y1091D02*
X4543Y1011D01*
X4543Y1011D02*
X4384Y1011D01*
X4384Y1011D02*
X4305Y1091D01*
X4305Y1091D02*
X4305Y1408D01*
X4305Y1408D02*
X4384Y1488D01*
X4384Y1488D02*
X4543Y1488D01*
X4543Y1488D02*
X4623Y1408D01*
X4781Y1011D02*
X4781Y1488D01*
X4781Y1488D02*
X5099Y1011D01*
X5099Y1011D02*
X5099Y1488D01*
X5734Y1329D02*
X5734Y1408D01*
X5734Y1408D02*
X5813Y1488D01*
X5813Y1488D02*
X5972Y1488D01*
X5972Y1488D02*
X6051Y1408D01*
X6051Y1408D02*
X6051Y1329D01*
X6051Y1329D02*
X5734Y1011D01*
X5734Y1011D02*
X6051Y1011D01*
X6289Y1011D02*
X6210Y1170D01*
X6210Y1170D02*
X6210Y1329D01*
X6210Y1329D02*
X6289Y1488D01*
X6289Y1488D02*
X6448Y1488D01*
X6448Y1488D02*
X6527Y1329D01*
X6527Y1329D02*
X6527Y1170D01*
X6527Y1170D02*
X6448Y1011D01*
X6448Y1011D02*
X6289Y1011D01*
X6686Y1329D02*
X6686Y1408D01*
X6686Y1408D02*
X6765Y1488D01*
X6765Y1488D02*
X6924Y1488D01*
X6924Y1488D02*
X7003Y1408D01*
X7003Y1408D02*
X7003Y1329D01*
X7003Y1329D02*
X6686Y1011D01*
X6686Y1011D02*
X7003Y1011D01*
X7242Y1011D02*
X7162Y1170D01*
X7162Y1170D02*
X7162Y1329D01*
X7162Y1329D02*
X7242Y1488D01*
X7242Y1488D02*
X7400Y1488D01*
X7400Y1488D02*
X7480Y1329D01*
X7480Y1329D02*
X7480Y1170D01*
X7480Y1170D02*
X7400Y1011D01*
X7400Y1011D02*
X7242Y1011D01*
X8115Y1250D02*
X8511Y1250D01*
X9305Y1011D02*
X9305Y1488D01*
X9146Y1488D02*
X9464Y1488D01*
X9623Y1011D02*
X9623Y1488D01*
X9623Y1488D02*
X9861Y1488D01*
X9861Y1488D02*
X9940Y1408D01*
X9940Y1408D02*
X9940Y1329D01*
X9940Y1329D02*
X9861Y1250D01*
X9861Y1250D02*
X9623Y1250D01*
X10575Y1011D02*
X10575Y1408D01*
X10575Y1408D02*
X10654Y1488D01*
X10654Y1488D02*
X10813Y1488D01*
X10813Y1488D02*
X10892Y1408D01*
X10892Y1408D02*
X10892Y1011D01*
X10575Y1250D02*
X10892Y1250D01*
X11051Y1011D02*
X11210Y1011D01*
X11210Y1011D02*
X11289Y1091D01*
X11289Y1091D02*
X11210Y1170D01*
X11210Y1170D02*
X11130Y1170D01*
X11130Y1170D02*
X11051Y1250D01*
X11051Y1250D02*
X11130Y1329D01*
X11130Y1329D02*
X11289Y1329D01*
X11448Y1011D02*
X11607Y1011D01*
X11607Y1011D02*
X11686Y1091D01*
X11686Y1091D02*
X11607Y1170D01*
X11607Y1170D02*
X11527Y1170D01*
X11527Y1170D02*
X11448Y1250D01*
X11448Y1250D02*
X11527Y1329D01*
X11527Y1329D02*
X11686Y1329D01*
X11845Y1170D02*
X12083Y1170D01*
X12083Y1170D02*
X12083Y1250D01*
X12083Y1250D02*
X12003Y1329D01*
X12003Y1329D02*
X11924Y1329D01*
X11924Y1329D02*
X11845Y1250D01*
X11845Y1250D02*
X11845Y1091D01*
X11845Y1091D02*
X11924Y1011D01*
X11924Y1011D02*
X12083Y1011D01*
X12242Y1011D02*
X12242Y1329D01*
X12242Y1250D02*
X12321Y1329D01*
X12321Y1329D02*
X12400Y1329D01*
X12400Y1329D02*
X12480Y1250D01*
X12638Y1329D02*
X12757Y1011D01*
X12757Y1011D02*
X12876Y1329D01*
X13035Y1011D02*
X13035Y1329D01*
X13035Y1488D02*
X13035Y1488D01*
X13194Y1011D02*
X13353Y1011D01*
X13353Y1011D02*
X13432Y1091D01*
X13432Y1091D02*
X13353Y1170D01*
X13353Y1170D02*
X13273Y1170D01*
X13273Y1170D02*
X13194Y1250D01*
X13194Y1250D02*
X13273Y1329D01*
X13273Y1329D02*
X13432Y1329D01*
X13591Y1011D02*
X13749Y1011D01*
X13749Y1011D02*
X13829Y1091D01*
X13829Y1091D02*
X13749Y1170D01*
X13749Y1170D02*
X13670Y1170D01*
X13670Y1170D02*
X13591Y1250D01*
X13591Y1250D02*
X13670Y1329D01*
X13670Y1329D02*
X13829Y1329D01*
X13988Y1170D02*
X14226Y1170D01*
X14226Y1170D02*
X14226Y1250D01*
X14226Y1250D02*
X14146Y1329D01*
X14146Y1329D02*
X14067Y1329D01*
X14067Y1329D02*
X13988Y1250D01*
X13988Y1250D02*
X13988Y1091D01*
X13988Y1091D02*
X14067Y1011D01*
X14067Y1011D02*
X14226Y1011D01*
X14384Y1011D02*
X14384Y1329D01*
X14384Y1250D02*
X14464Y1329D01*
X14464Y1329D02*
X14543Y1250D01*
X14543Y1250D02*
X14543Y1011D01*
X14543Y1250D02*
X14623Y1329D01*
X14623Y1329D02*
X14702Y1250D01*
X14702Y1250D02*
X14702Y1011D01*
X14861Y1170D02*
X15099Y1170D01*
X15099Y1170D02*
X15099Y1250D01*
X15099Y1250D02*
X15019Y1329D01*
X15019Y1329D02*
X14940Y1329D01*
X14940Y1329D02*
X14861Y1250D01*
X14861Y1250D02*
X14861Y1091D01*
X14861Y1091D02*
X14940Y1011D01*
X14940Y1011D02*
X15099Y1011D01*
X15257Y1011D02*
X15257Y1329D01*
X15257Y1250D02*
X15337Y1329D01*
X15337Y1329D02*
X15416Y1329D01*
X15496Y1250D02*
X15496Y1011D01*
X15416Y1329D02*
X15496Y1250D01*
X15654Y1329D02*
X15892Y1329D01*
X15734Y1488D02*
X15734Y1091D01*
X15734Y1091D02*
X15813Y1011D01*
X15813Y1011D02*
X15892Y1011D01*
X16051Y1011D02*
X16210Y1011D01*
X16210Y1011D02*
X16289Y1091D01*
X16289Y1091D02*
X16210Y1170D01*
X16210Y1170D02*
X16130Y1170D01*
X16130Y1170D02*
X16051Y1250D01*
X16051Y1250D02*
X16130Y1329D01*
X16130Y1329D02*
X16289Y1329D01*
D12*
G01X6936Y37776D02*
X6936Y38372D01*
X6936Y38372D02*
X7333Y38372D01*
X7234Y38074D02*
X6936Y38074D01*
X6936Y37776D02*
X7333Y37776D01*
X7531Y37776D02*
X7531Y38173D01*
X7531Y38074D02*
X7630Y38173D01*
X7630Y38173D02*
X7730Y38173D01*
X7829Y38074D02*
X7829Y37776D01*
X7730Y38173D02*
X7829Y38074D01*
X8027Y38173D02*
X8325Y38173D01*
X8126Y38372D02*
X8126Y37875D01*
X8126Y37875D02*
X8226Y37776D01*
X8226Y37776D02*
X8325Y37776D01*
X8523Y37776D02*
X8523Y38173D01*
X8523Y38074D02*
X8623Y38173D01*
X8623Y38173D02*
X8722Y38173D01*
X8722Y38173D02*
X8821Y38074D01*
X9019Y37975D02*
X9317Y37975D01*
X9317Y37975D02*
X9317Y38074D01*
X9317Y38074D02*
X9218Y38173D01*
X9218Y38173D02*
X9119Y38173D01*
X9119Y38173D02*
X9019Y38074D01*
X9019Y38074D02*
X9019Y37875D01*
X9019Y37875D02*
X9119Y37776D01*
X9119Y37776D02*
X9317Y37776D01*
X9069Y38322D02*
X9218Y38421D01*
X9515Y37975D02*
X9813Y37975D01*
X9813Y37975D02*
X9813Y38074D01*
X9813Y38074D02*
X9714Y38173D01*
X9714Y38173D02*
X9615Y38173D01*
X9615Y38173D02*
X9515Y38074D01*
X9515Y38074D02*
X9515Y37875D01*
X9515Y37875D02*
X9615Y37776D01*
X9615Y37776D02*
X9813Y37776D01*
X10011Y37776D02*
X10210Y37776D01*
X10210Y37776D02*
X10309Y37875D01*
X10309Y37875D02*
X10210Y37975D01*
X10210Y37975D02*
X10111Y37975D01*
X10111Y37975D02*
X10011Y38074D01*
X10011Y38074D02*
X10111Y38173D01*
X10111Y38173D02*
X10309Y38173D01*
X11103Y37776D02*
X11103Y38272D01*
X11103Y38272D02*
X11202Y38372D01*
X11202Y38372D02*
X11400Y38372D01*
X11400Y38372D02*
X11500Y38272D01*
X11500Y38272D02*
X11500Y37776D01*
X11103Y38074D02*
X11500Y38074D01*
X11698Y37776D02*
X11698Y38173D01*
X11698Y38074D02*
X11797Y38173D01*
X11797Y38173D02*
X11896Y38173D01*
X11996Y38074D02*
X11996Y37776D01*
X11896Y38173D02*
X11996Y38074D01*
X12244Y38173D02*
X12392Y38173D01*
X12392Y38173D02*
X12492Y38074D01*
X12492Y38074D02*
X12492Y37776D01*
X12492Y37776D02*
X12244Y37776D01*
X12244Y37776D02*
X12194Y37875D01*
X12194Y37875D02*
X12244Y37975D01*
X12244Y37975D02*
X12492Y37975D01*
X12690Y37776D02*
X12690Y38421D01*
X12988Y37776D02*
X12888Y37875D01*
X12888Y37875D02*
X12888Y38074D01*
X12888Y38074D02*
X12988Y38173D01*
X12988Y38173D02*
X13186Y38173D01*
X13186Y38173D02*
X13285Y38074D01*
X13285Y38074D02*
X13285Y37875D01*
X13285Y37875D02*
X13186Y37776D01*
X13186Y37776D02*
X12988Y37776D01*
X13484Y37578D02*
X13682Y37578D01*
X13682Y37578D02*
X13781Y37677D01*
X13781Y37677D02*
X13781Y38173D01*
X13781Y38173D02*
X13583Y38173D01*
X13583Y38173D02*
X13484Y38074D01*
X13484Y38074D02*
X13484Y37875D01*
X13484Y37875D02*
X13583Y37776D01*
X13583Y37776D02*
X13781Y37776D01*
X13980Y37776D02*
X13980Y38173D01*
X13980Y38372D02*
X13980Y38372D01*
X14575Y37578D02*
X14575Y38173D01*
X14575Y38024D02*
X14426Y38173D01*
X14426Y38173D02*
X14277Y38173D01*
X14277Y38173D02*
X14178Y38074D01*
X14178Y38074D02*
X14178Y37875D01*
X14178Y37875D02*
X14277Y37776D01*
X14277Y37776D02*
X14426Y37776D01*
X14426Y37776D02*
X14575Y37925D01*
X14773Y38173D02*
X14773Y37875D01*
X14773Y37875D02*
X14873Y37776D01*
X14873Y37776D02*
X14972Y37776D01*
X14972Y37776D02*
X15071Y37875D01*
X15071Y38173D02*
X15071Y37776D01*
X15269Y37975D02*
X15567Y37975D01*
X15567Y37975D02*
X15567Y38074D01*
X15567Y38074D02*
X15468Y38173D01*
X15468Y38173D02*
X15369Y38173D01*
X15369Y38173D02*
X15269Y38074D01*
X15269Y38074D02*
X15269Y37875D01*
X15269Y37875D02*
X15369Y37776D01*
X15369Y37776D02*
X15567Y37776D01*
X15765Y37776D02*
X15964Y37776D01*
X15964Y37776D02*
X16063Y37875D01*
X16063Y37875D02*
X15964Y37975D01*
X15964Y37975D02*
X15865Y37975D01*
X15865Y37975D02*
X15765Y38074D01*
X15765Y38074D02*
X15865Y38173D01*
X15865Y38173D02*
X16063Y38173D01*
X26085Y37875D02*
X26184Y37776D01*
X26184Y37776D02*
X26382Y37776D01*
X26382Y37776D02*
X26482Y37875D01*
X26482Y37875D02*
X26482Y37975D01*
X26482Y37975D02*
X26382Y38074D01*
X26382Y38074D02*
X26184Y38074D01*
X26382Y38372D02*
X26482Y38272D01*
X26184Y38372D02*
X26382Y38372D01*
X26085Y38272D02*
X26184Y38372D01*
X26085Y38173D02*
X26085Y38272D01*
X26184Y38074D02*
X26085Y38173D01*
X26779Y37776D02*
X26680Y37875D01*
X26680Y37875D02*
X26680Y38074D01*
X26680Y38074D02*
X26779Y38173D01*
X26779Y38173D02*
X26978Y38173D01*
X26978Y38173D02*
X27077Y38074D01*
X27077Y38074D02*
X27077Y37875D01*
X27077Y37875D02*
X26978Y37776D01*
X26978Y37776D02*
X26779Y37776D01*
X27275Y37776D02*
X27275Y38173D01*
X27275Y38074D02*
X27375Y38173D01*
X27375Y38173D02*
X27474Y38173D01*
X27474Y38173D02*
X27573Y38074D01*
X27771Y38173D02*
X28069Y38173D01*
X27871Y38372D02*
X27871Y37875D01*
X27871Y37875D02*
X27970Y37776D01*
X27970Y37776D02*
X28069Y37776D01*
X28267Y37776D02*
X28267Y38173D01*
X28267Y38372D02*
X28267Y38372D01*
X28466Y37975D02*
X28763Y37975D01*
X28763Y37975D02*
X28763Y38074D01*
X28763Y38074D02*
X28664Y38173D01*
X28664Y38173D02*
X28565Y38173D01*
X28565Y38173D02*
X28466Y38074D01*
X28466Y38074D02*
X28466Y37875D01*
X28466Y37875D02*
X28565Y37776D01*
X28565Y37776D02*
X28763Y37776D01*
X28962Y37776D02*
X29160Y37776D01*
X29160Y37776D02*
X29259Y37875D01*
X29259Y37875D02*
X29160Y37975D01*
X29160Y37975D02*
X29061Y37975D01*
X29061Y37975D02*
X28962Y38074D01*
X28962Y38074D02*
X29061Y38173D01*
X29061Y38173D02*
X29259Y38173D01*
X30103Y38173D02*
X30251Y38173D01*
X30251Y38173D02*
X30351Y38074D01*
X30351Y38074D02*
X30351Y37776D01*
X30351Y37776D02*
X30103Y37776D01*
X30103Y37776D02*
X30053Y37875D01*
X30053Y37875D02*
X30103Y37975D01*
X30103Y37975D02*
X30351Y37975D01*
X30549Y37776D02*
X30549Y38173D01*
X30549Y38074D02*
X30648Y38173D01*
X30648Y38173D02*
X30748Y38173D01*
X30847Y38074D02*
X30847Y37776D01*
X30748Y38173D02*
X30847Y38074D01*
X31095Y38173D02*
X31244Y38173D01*
X31244Y38173D02*
X31343Y38074D01*
X31343Y38074D02*
X31343Y37776D01*
X31343Y37776D02*
X31095Y37776D01*
X31095Y37776D02*
X31045Y37875D01*
X31045Y37875D02*
X31095Y37975D01*
X31095Y37975D02*
X31343Y37975D01*
X31541Y37776D02*
X31541Y38421D01*
X31839Y37776D02*
X31740Y37875D01*
X31740Y37875D02*
X31740Y38074D01*
X31740Y38074D02*
X31839Y38173D01*
X31839Y38173D02*
X32037Y38173D01*
X32037Y38173D02*
X32136Y38074D01*
X32136Y38074D02*
X32136Y37875D01*
X32136Y37875D02*
X32037Y37776D01*
X32037Y37776D02*
X31839Y37776D01*
X32335Y37578D02*
X32533Y37578D01*
X32533Y37578D02*
X32632Y37677D01*
X32632Y37677D02*
X32632Y38173D01*
X32632Y38173D02*
X32434Y38173D01*
X32434Y38173D02*
X32335Y38074D01*
X32335Y38074D02*
X32335Y37875D01*
X32335Y37875D02*
X32434Y37776D01*
X32434Y37776D02*
X32632Y37776D01*
X32831Y37776D02*
X32831Y38173D01*
X32831Y38372D02*
X32831Y38372D01*
X33426Y37578D02*
X33426Y38173D01*
X33426Y38024D02*
X33277Y38173D01*
X33277Y38173D02*
X33128Y38173D01*
X33128Y38173D02*
X33029Y38074D01*
X33029Y38074D02*
X33029Y37875D01*
X33029Y37875D02*
X33128Y37776D01*
X33128Y37776D02*
X33277Y37776D01*
X33277Y37776D02*
X33426Y37925D01*
X33625Y38173D02*
X33625Y37875D01*
X33625Y37875D02*
X33724Y37776D01*
X33724Y37776D02*
X33823Y37776D01*
X33823Y37776D02*
X33922Y37875D01*
X33922Y38173D02*
X33922Y37776D01*
X34121Y37975D02*
X34418Y37975D01*
X34418Y37975D02*
X34418Y38074D01*
X34418Y38074D02*
X34319Y38173D01*
X34319Y38173D02*
X34220Y38173D01*
X34220Y38173D02*
X34121Y38074D01*
X34121Y38074D02*
X34121Y37875D01*
X34121Y37875D02*
X34220Y37776D01*
X34220Y37776D02*
X34418Y37776D01*
X34617Y37776D02*
X34815Y37776D01*
X34815Y37776D02*
X34914Y37875D01*
X34914Y37875D02*
X34815Y37975D01*
X34815Y37975D02*
X34716Y37975D01*
X34716Y37975D02*
X34617Y38074D01*
X34617Y38074D02*
X34716Y38173D01*
X34716Y38173D02*
X34914Y38173D01*
X6900Y36702D02*
X6801Y36900D01*
X6801Y36900D02*
X6801Y37099D01*
X6801Y37099D02*
X6900Y37297D01*
X6900Y37297D02*
X7099Y37297D01*
X7099Y37297D02*
X7198Y37099D01*
X7198Y37099D02*
X7198Y36900D01*
X7198Y36900D02*
X7099Y36702D01*
X7099Y36702D02*
X6900Y36702D01*
X16000Y36702D02*
X16000Y37297D01*
X16000Y37297D02*
X15801Y37099D01*
X25900Y36702D02*
X25801Y36900D01*
X25801Y36900D02*
X25801Y37099D01*
X25801Y37099D02*
X25900Y37297D01*
X25900Y37297D02*
X26099Y37297D01*
X26099Y37297D02*
X26198Y37099D01*
X26198Y37099D02*
X26198Y36900D01*
X26198Y36900D02*
X26099Y36702D01*
X26099Y36702D02*
X25900Y36702D01*
X35000Y36702D02*
X35000Y37297D01*
X35000Y37297D02*
X34801Y37099D01*
X44448Y33202D02*
X44349Y33400D01*
X44349Y33400D02*
X44349Y33599D01*
X44349Y33599D02*
X44448Y33797D01*
X44448Y33797D02*
X44646Y33797D01*
X44646Y33797D02*
X44746Y33599D01*
X44746Y33599D02*
X44746Y33400D01*
X44746Y33400D02*
X44646Y33202D01*
X44646Y33202D02*
X44448Y33202D01*
X44547Y28202D02*
X44547Y28797D01*
X44547Y28797D02*
X44349Y28599D01*
X44099Y22599D02*
X44099Y22698D01*
X44099Y22698D02*
X44198Y22797D01*
X44198Y22797D02*
X44396Y22797D01*
X44396Y22797D02*
X44496Y22698D01*
X44496Y22698D02*
X44496Y22599D01*
X44496Y22599D02*
X44099Y22202D01*
X44099Y22202D02*
X44496Y22202D01*
X44099Y17698D02*
X44198Y17797D01*
X44198Y17797D02*
X44396Y17797D01*
X44396Y17797D02*
X44496Y17698D01*
X44496Y17698D02*
X44496Y17599D01*
X44496Y17599D02*
X44396Y17500D01*
X44396Y17500D02*
X44248Y17500D01*
X44396Y17500D02*
X44496Y17400D01*
X44496Y17400D02*
X44496Y17301D01*
X44496Y17301D02*
X44396Y17202D01*
X44396Y17202D02*
X44198Y17202D01*
X44198Y17202D02*
X44099Y17301D01*
X45874Y21829D02*
X45973Y21928D01*
X45973Y21928D02*
X45973Y22126D01*
X45973Y22126D02*
X45874Y22226D01*
X45874Y22226D02*
X45774Y22226D01*
X45774Y22226D02*
X45675Y22126D01*
X45675Y22126D02*
X45675Y21928D01*
X45377Y22126D02*
X45477Y22226D01*
X45377Y21928D02*
X45377Y22126D01*
X45477Y21829D02*
X45377Y21928D01*
X45576Y21829D02*
X45477Y21829D01*
X45675Y21928D02*
X45576Y21829D01*
X45973Y22523D02*
X45874Y22424D01*
X45874Y22424D02*
X45675Y22424D01*
X45675Y22424D02*
X45576Y22523D01*
X45576Y22523D02*
X45576Y22722D01*
X45576Y22722D02*
X45675Y22821D01*
X45675Y22821D02*
X45874Y22821D01*
X45874Y22821D02*
X45973Y22722D01*
X45973Y22722D02*
X45973Y22523D01*
X45973Y23019D02*
X45576Y23019D01*
X45675Y23019D02*
X45576Y23119D01*
X45576Y23119D02*
X45576Y23218D01*
X45576Y23218D02*
X45675Y23317D01*
X45576Y23515D02*
X45576Y23813D01*
X45377Y23615D02*
X45874Y23615D01*
X45874Y23615D02*
X45973Y23714D01*
X45973Y23714D02*
X45973Y23813D01*
X45973Y24011D02*
X45576Y24011D01*
X45377Y24011D02*
X45377Y24011D01*
X45774Y24210D02*
X45774Y24507D01*
X45774Y24507D02*
X45675Y24507D01*
X45675Y24507D02*
X45576Y24408D01*
X45576Y24408D02*
X45576Y24309D01*
X45576Y24309D02*
X45675Y24210D01*
X45675Y24210D02*
X45874Y24210D01*
X45874Y24210D02*
X45973Y24309D01*
X45973Y24309D02*
X45973Y24507D01*
X45973Y24706D02*
X45973Y24904D01*
X45973Y24904D02*
X45874Y25003D01*
X45874Y25003D02*
X45774Y24904D01*
X45774Y24904D02*
X45774Y24805D01*
X45774Y24805D02*
X45675Y24706D01*
X45675Y24706D02*
X45576Y24805D01*
X45576Y24805D02*
X45576Y25003D01*
X45973Y25797D02*
X45328Y25797D01*
X45973Y26095D02*
X45874Y25996D01*
X45874Y25996D02*
X45675Y25996D01*
X45675Y25996D02*
X45576Y26095D01*
X45576Y26095D02*
X45576Y26293D01*
X45576Y26293D02*
X45675Y26392D01*
X45675Y26392D02*
X45874Y26392D01*
X45874Y26392D02*
X45973Y26293D01*
X45973Y26293D02*
X45973Y26095D01*
X46171Y26591D02*
X46171Y26789D01*
X46171Y26789D02*
X46072Y26888D01*
X46072Y26888D02*
X45576Y26888D01*
X45576Y26888D02*
X45576Y26690D01*
X45576Y26690D02*
X45675Y26591D01*
X45675Y26591D02*
X45874Y26591D01*
X45874Y26591D02*
X45973Y26690D01*
X45973Y26690D02*
X45973Y26888D01*
X45973Y27087D02*
X45576Y27087D01*
X45377Y27087D02*
X45377Y27087D01*
X46171Y27682D02*
X45576Y27682D01*
X45725Y27682D02*
X45576Y27533D01*
X45576Y27533D02*
X45576Y27384D01*
X45576Y27384D02*
X45675Y27285D01*
X45675Y27285D02*
X45874Y27285D01*
X45874Y27285D02*
X45973Y27384D01*
X45973Y27384D02*
X45973Y27533D01*
X45973Y27533D02*
X45824Y27682D01*
X45576Y27880D02*
X45874Y27880D01*
X45874Y27880D02*
X45973Y27980D01*
X45973Y27980D02*
X45973Y28079D01*
X45973Y28079D02*
X45874Y28178D01*
X45576Y28178D02*
X45973Y28178D01*
X45774Y28376D02*
X45774Y28674D01*
X45774Y28674D02*
X45675Y28674D01*
X45675Y28674D02*
X45576Y28575D01*
X45576Y28575D02*
X45576Y28476D01*
X45576Y28476D02*
X45675Y28376D01*
X45675Y28376D02*
X45874Y28376D01*
X45874Y28376D02*
X45973Y28476D01*
X45973Y28476D02*
X45973Y28674D01*
X45973Y28873D02*
X45973Y29071D01*
X45973Y29071D02*
X45874Y29170D01*
X45874Y29170D02*
X45774Y29071D01*
X45774Y29071D02*
X45774Y28972D01*
X45774Y28972D02*
X45675Y28873D01*
X45675Y28873D02*
X45576Y28972D01*
X45576Y28972D02*
X45576Y29170D01*
D13*
G01X25551Y9505D02*
X25438Y9606D01*
X25311Y9680D01*
X25174Y9727D01*
X25032Y9747D01*
X24888Y9739D01*
X24748Y9704D01*
X24615Y9641D01*
X24494Y9551D01*
X24393Y9438D01*
X24319Y9311D01*
X24272Y9174D01*
X24252Y9032D01*
X24260Y8888D01*
X24295Y8748D01*
X24358Y8615D01*
X24448Y8494D01*
X24561Y8393D01*
X24688Y8319D01*
X24825Y8272D01*
X24967Y8252D01*
X25111Y8260D01*
X25251Y8295D01*
X25384Y8358D01*
X25505Y8448D01*
X25551Y8494D01*
X25551Y9505D02*
X25551Y8494D01*
X23125Y10500D02*
X25875Y10500D01*
X22500Y11000D02*
X23125Y11000D01*
X23125Y11500D02*
X23125Y10500D01*
X23125Y11500D02*
X25875Y11500D01*
X25875Y11500D02*
X25875Y10500D01*
X26500Y11000D02*
X25875Y11000D01*
X8999Y27499D02*
X1499Y27499D01*
X8999Y27499D02*
X8999Y29500D01*
X8999Y29500D02*
X1499Y29500D01*
X1499Y27499D02*
X1499Y29500D01*
X1499Y27999D02*
X749Y27999D01*
X1499Y28999D02*
X749Y28999D01*
X749Y27999D02*
X749Y28999D01*
X13000Y6250D02*
X12499Y6250D01*
X12499Y5725D02*
X12499Y6775D01*
X9999Y6250D02*
X10500Y6250D01*
X10500Y5725D02*
X10500Y6750D01*
X12499Y5725D02*
X10500Y5725D01*
X12499Y6775D02*
X10500Y6775D01*
X10749Y5725D02*
X10749Y6775D01*
X15875Y11500D02*
X13125Y11500D01*
X16500Y11000D02*
X15875Y11000D01*
X15875Y10500D02*
X15875Y11500D01*
X15875Y10500D02*
X13125Y10500D01*
X13125Y10500D02*
X13125Y11500D01*
X12500Y11000D02*
X13125Y11000D01*
X21000Y13000D02*
X23999Y13000D01*
X21000Y13000D02*
X21000Y11999D01*
X23999Y13000D02*
X23999Y11999D01*
X21000Y11999D02*
X23999Y11999D01*
X27875Y31500D02*
X25125Y31500D01*
X28500Y31000D02*
X27875Y31000D01*
X27875Y30500D02*
X27875Y31500D01*
X27875Y30500D02*
X25125Y30500D01*
X25125Y30500D02*
X25125Y31500D01*
X24500Y31000D02*
X25125Y31000D01*
X37000Y4500D02*
X39000Y4500D01*
X37000Y6500D02*
X39000Y6500D01*
X37000Y4500D02*
X37000Y6500D01*
X39000Y4500D02*
X39000Y6500D01*
X38353Y5853D02*
X38188Y5963D01*
X38000Y5999D01*
X37811Y5963D01*
X37646Y5853D01*
X37536Y5688D01*
X37500Y5500D01*
X37536Y5311D01*
X37646Y5146D01*
X37811Y5036D01*
X38000Y5000D01*
X38188Y5036D01*
X38353Y5146D01*
X38463Y5311D01*
X38500Y5500D01*
X38463Y5688D01*
X38353Y5853D01*
X11125Y24500D02*
X13875Y24500D01*
X10500Y25000D02*
X11125Y25000D01*
X11125Y25500D02*
X11125Y24500D01*
X11125Y25500D02*
X13875Y25500D01*
X13875Y25500D02*
X13875Y24500D01*
X14500Y25000D02*
X13875Y25000D01*
X30500Y4500D02*
X32500Y4500D01*
X30500Y6500D02*
X32500Y6500D01*
X30500Y4500D02*
X30500Y6500D01*
X32500Y4500D02*
X32500Y6500D01*
X31853Y5853D02*
X31688Y5963D01*
X31500Y5999D01*
X31311Y5963D01*
X31146Y5853D01*
X31036Y5688D01*
X31000Y5500D01*
X31036Y5311D01*
X31146Y5146D01*
X31311Y5036D01*
X31500Y5000D01*
X31688Y5036D01*
X31853Y5146D01*
X31963Y5311D01*
X32000Y5500D01*
X31963Y5688D01*
X31853Y5853D01*
X32051Y9505D02*
X31938Y9606D01*
X31811Y9680D01*
X31674Y9727D01*
X31532Y9747D01*
X31388Y9739D01*
X31248Y9704D01*
X31115Y9641D01*
X30994Y9551D01*
X30893Y9438D01*
X30819Y9311D01*
X30772Y9174D01*
X30752Y9032D01*
X30760Y8888D01*
X30795Y8748D01*
X30858Y8615D01*
X30948Y8494D01*
X31061Y8393D01*
X31188Y8319D01*
X31325Y8272D01*
X31467Y8252D01*
X31611Y8260D01*
X31751Y8295D01*
X31884Y8358D01*
X32005Y8448D01*
X32051Y8494D01*
X32051Y9505D02*
X32051Y8494D01*
X11125Y26500D02*
X13875Y26500D01*
X10500Y27000D02*
X11125Y27000D01*
X11125Y27500D02*
X11125Y26500D01*
X11125Y27500D02*
X13875Y27500D01*
X13875Y27500D02*
X13875Y26500D01*
X14500Y27000D02*
X13875Y27000D01*
X1499Y14500D02*
X1500Y17500D01*
X1499Y14500D02*
X2500Y14500D01*
X1500Y17500D02*
X2500Y17500D01*
X2500Y14500D02*
X2500Y17500D01*
X24000Y4500D02*
X26000Y4500D01*
X24000Y6500D02*
X26000Y6500D01*
X24000Y4500D02*
X24000Y6500D01*
X26000Y4500D02*
X26000Y6500D01*
X25353Y5853D02*
X25188Y5963D01*
X25000Y5999D01*
X24811Y5963D01*
X24646Y5853D01*
X24536Y5688D01*
X24500Y5500D01*
X24536Y5311D01*
X24646Y5146D01*
X24811Y5036D01*
X25000Y5000D01*
X25188Y5036D01*
X25353Y5146D01*
X25463Y5311D01*
X25500Y5500D01*
X25463Y5688D01*
X25353Y5853D01*
X8500Y22000D02*
X8500Y19000D01*
X8500Y22000D02*
X7500Y22000D01*
X8500Y19000D02*
X7500Y19000D01*
X7500Y22000D02*
X7500Y19000D01*
X18125Y10500D02*
X20875Y10500D01*
X17500Y11000D02*
X18125Y11000D01*
X18125Y11500D02*
X18125Y10500D01*
X18125Y11500D02*
X20875Y11500D01*
X20875Y11500D02*
X20875Y10500D01*
X21500Y11000D02*
X20875Y11000D01*
X25125Y12000D02*
X27875Y12000D01*
X24500Y12500D02*
X25125Y12500D01*
X25125Y13000D02*
X25125Y12000D01*
X25125Y13000D02*
X27875Y13000D01*
X27875Y13000D02*
X27875Y12000D01*
X28500Y12500D02*
X27875Y12500D01*
X8500Y6000D02*
X5500Y6000D01*
X8500Y6000D02*
X8500Y7000D01*
X5500Y6000D02*
X5500Y7000D01*
X8500Y7000D02*
X5500Y7000D01*
X27875Y32500D02*
X25125Y32500D01*
X28500Y32000D02*
X27875Y32000D01*
X27875Y31500D02*
X27875Y32500D01*
X27875Y31500D02*
X25125Y31500D01*
X25125Y31500D02*
X25125Y32500D01*
X24500Y32000D02*
X25125Y32000D01*
X21494Y3051D02*
X21393Y2938D01*
X21319Y2811D01*
X21272Y2674D01*
X21252Y2532D01*
X21260Y2388D01*
X21295Y2248D01*
X21358Y2115D01*
X21448Y1994D01*
X21561Y1893D01*
X21688Y1819D01*
X21825Y1772D01*
X21967Y1752D01*
X22111Y1760D01*
X22251Y1795D01*
X22384Y1858D01*
X22505Y1948D01*
X22606Y2061D01*
X22680Y2188D01*
X22727Y2325D01*
X22747Y2467D01*
X22739Y2611D01*
X22704Y2751D01*
X22641Y2884D01*
X22551Y3005D01*
X22505Y3051D01*
X21494Y3051D02*
X22505Y3051D01*
X13874Y31500D02*
X11125Y31500D01*
X14499Y31000D02*
X13874Y31000D01*
X13874Y30500D02*
X13874Y31500D01*
X13874Y30500D02*
X11125Y30500D01*
X11125Y30500D02*
X11125Y31500D01*
X10500Y31000D02*
X11125Y31000D01*
X7500Y22000D02*
X7499Y19000D01*
X7500Y22000D02*
X6500Y22000D01*
X7499Y19000D02*
X6500Y19000D01*
X6500Y22000D02*
X6500Y19000D01*
X21500Y7875D02*
X21500Y5125D01*
X22000Y8500D02*
X22000Y7875D01*
X22500Y7875D02*
X21500Y7875D01*
X22500Y7875D02*
X22500Y5125D01*
X22500Y5125D02*
X21500Y5125D01*
X22000Y4500D02*
X22000Y5125D01*
X28801Y9505D02*
X28688Y9606D01*
X28561Y9680D01*
X28424Y9727D01*
X28282Y9747D01*
X28138Y9739D01*
X27998Y9704D01*
X27865Y9641D01*
X27744Y9551D01*
X27643Y9438D01*
X27569Y9311D01*
X27522Y9174D01*
X27502Y9032D01*
X27510Y8888D01*
X27545Y8748D01*
X27608Y8615D01*
X27698Y8494D01*
X27811Y8393D01*
X27938Y8319D01*
X28075Y8272D01*
X28217Y8252D01*
X28361Y8260D01*
X28501Y8295D01*
X28634Y8358D01*
X28755Y8448D01*
X28801Y8494D01*
X28801Y9505D02*
X28801Y8494D01*
X10000Y5000D02*
X10500Y5000D01*
X10500Y5525D02*
X10500Y4475D01*
X13000Y5000D02*
X12500Y5000D01*
X12500Y5525D02*
X12500Y4500D01*
X10500Y5525D02*
X12500Y5525D01*
X10500Y4475D02*
X12500Y4475D01*
X12249Y5525D02*
X12249Y4475D01*
X38551Y9505D02*
X38438Y9606D01*
X38311Y9680D01*
X38174Y9727D01*
X38032Y9747D01*
X37888Y9739D01*
X37748Y9704D01*
X37615Y9641D01*
X37494Y9551D01*
X37393Y9438D01*
X37319Y9311D01*
X37272Y9174D01*
X37252Y9032D01*
X37260Y8888D01*
X37295Y8748D01*
X37358Y8615D01*
X37448Y8494D01*
X37561Y8393D01*
X37688Y8319D01*
X37825Y8272D01*
X37967Y8252D01*
X38111Y8260D01*
X38251Y8295D01*
X38384Y8358D01*
X38505Y8448D01*
X38551Y8494D01*
X38551Y9505D02*
X38551Y8494D01*
X3749Y31000D02*
X6749Y31000D01*
X3749Y31000D02*
X3749Y30000D01*
X6749Y31000D02*
X6749Y30000D01*
X3749Y30000D02*
X6749Y30000D01*
X15000Y6250D02*
X15750Y6250D01*
X15750Y6625D02*
X15750Y5875D01*
X18000Y6250D02*
X17250Y6250D01*
X17250Y6625D02*
X17250Y5875D01*
X15750Y6625D02*
X17250Y6625D01*
X15750Y5875D02*
X17250Y5875D01*
X17000Y6625D02*
X17000Y5875D01*
X40675Y9314D02*
X40675Y4393D01*
X40675Y9314D02*
X41068Y9708D01*
X41068Y9708D02*
X45399Y9708D01*
X45399Y4000D02*
X45793Y4393D01*
X41068Y4000D02*
X40675Y4393D01*
X41068Y4000D02*
X45399Y4000D01*
X45793Y9314D02*
X45793Y4393D01*
X45793Y9314D02*
X45399Y9708D01*
X27875Y30500D02*
X25125Y30500D01*
X28500Y30000D02*
X27875Y30000D01*
X27875Y29500D02*
X27875Y30500D01*
X27875Y29500D02*
X25125Y29500D01*
X25125Y29500D02*
X25125Y30500D01*
X24500Y30000D02*
X25125Y30000D01*
X11000Y21500D02*
X9250Y21500D01*
X11000Y20500D02*
X9250Y20500D01*
X11000Y19500D02*
X9250Y19500D01*
X17500Y22500D02*
X11000Y22500D01*
X17500Y18500D02*
X11000Y18500D01*
X17500Y22500D02*
X17500Y18500D01*
X11000Y22500D02*
X11000Y18500D01*
X7500Y26500D02*
X7500Y26000D01*
X8025Y26000D02*
X6975Y26000D01*
X7500Y23500D02*
X7500Y24000D01*
X8025Y24000D02*
X7000Y24000D01*
X8025Y26000D02*
X8025Y24000D01*
X6975Y26000D02*
X6975Y24000D01*
X8025Y24250D02*
X6975Y24250D01*
X8125Y10500D02*
X10875Y10500D01*
X7500Y11000D02*
X8125Y11000D01*
X8125Y11500D02*
X8125Y10500D01*
X8125Y11500D02*
X10875Y11500D01*
X10875Y11500D02*
X10875Y10500D01*
X11500Y11000D02*
X10875Y11000D01*
X20375Y23750D02*
X23125Y23750D01*
X19750Y24250D02*
X20375Y24250D01*
X20375Y24750D02*
X20375Y23750D01*
X20375Y24750D02*
X23125Y24750D01*
X23125Y24750D02*
X23125Y23750D01*
X23750Y24250D02*
X23125Y24250D01*
X25125Y27500D02*
X27875Y27500D01*
X24500Y28000D02*
X25125Y28000D01*
X25125Y28500D02*
X25125Y27500D01*
X25125Y28500D02*
X27875Y28500D01*
X27875Y28500D02*
X27875Y27500D01*
X28500Y28000D02*
X27875Y28000D01*
X7375Y5499D02*
X4625Y5500D01*
X8000Y5000D02*
X7375Y5000D01*
X7375Y4500D02*
X7375Y5499D01*
X7375Y4500D02*
X4625Y4500D01*
X4625Y4500D02*
X4625Y5500D01*
X4000Y5000D02*
X4625Y5000D01*
X33749Y4500D02*
X35750Y4500D01*
X33749Y6500D02*
X35750Y6500D01*
X33749Y4500D02*
X33749Y6500D01*
X35750Y4500D02*
X35750Y6500D01*
X35103Y5853D02*
X34938Y5963D01*
X34749Y5999D01*
X34561Y5963D01*
X34396Y5853D01*
X34286Y5688D01*
X34249Y5500D01*
X34286Y5311D01*
X34396Y5146D01*
X34561Y5036D01*
X34749Y5000D01*
X34938Y5036D01*
X35103Y5146D01*
X35213Y5311D01*
X35249Y5500D01*
X35213Y5688D01*
X35103Y5853D01*
X27875Y29500D02*
X25125Y29500D01*
X28500Y29000D02*
X27875Y29000D01*
X27875Y28500D02*
X27875Y29500D01*
X27875Y28500D02*
X25125Y28500D01*
X25125Y28500D02*
X25125Y29500D01*
X24500Y29000D02*
X25125Y29000D01*
X13125Y12000D02*
X15875Y12000D01*
X12500Y12500D02*
X13125Y12500D01*
X13125Y13000D02*
X13125Y12000D01*
X13125Y13000D02*
X15875Y13000D01*
X15875Y13000D02*
X15875Y12000D01*
X16500Y12500D02*
X15875Y12500D01*
X35301Y9505D02*
X35188Y9606D01*
X35061Y9680D01*
X34924Y9727D01*
X34782Y9747D01*
X34638Y9739D01*
X34498Y9704D01*
X34365Y9641D01*
X34244Y9551D01*
X34143Y9438D01*
X34069Y9311D01*
X34022Y9174D01*
X34002Y9032D01*
X34010Y8888D01*
X34045Y8748D01*
X34108Y8615D01*
X34198Y8494D01*
X34311Y8393D01*
X34438Y8319D01*
X34575Y8272D01*
X34717Y8252D01*
X34861Y8260D01*
X35001Y8295D01*
X35134Y8358D01*
X35255Y8448D01*
X35301Y8494D01*
X35301Y9505D02*
X35301Y8494D01*
X11125Y25500D02*
X13875Y25500D01*
X10500Y26000D02*
X11125Y26000D01*
X11125Y26499D02*
X11125Y25500D01*
X11125Y26499D02*
X13875Y26499D01*
X13875Y26499D02*
X13875Y25500D01*
X14500Y26000D02*
X13875Y26000D01*
X11999Y11999D02*
X8999Y11999D01*
X11999Y11999D02*
X11999Y13000D01*
X8999Y11999D02*
X8999Y13000D01*
X11999Y13000D02*
X8999Y13000D01*
X35874Y11500D02*
X33124Y11500D01*
X36499Y11000D02*
X35874Y11000D01*
X35874Y10500D02*
X35874Y11500D01*
X35874Y10500D02*
X33124Y10500D01*
X33124Y10500D02*
X33124Y11500D01*
X32499Y11000D02*
X33124Y11000D01*
X32875Y13000D02*
X30125Y13000D01*
X33500Y12500D02*
X32875Y12500D01*
X32875Y12000D02*
X32875Y13000D01*
X32875Y12000D02*
X30125Y12000D01*
X30125Y12000D02*
X30125Y13000D01*
X29500Y12500D02*
X30125Y12500D01*
X27250Y4500D02*
X29250Y4500D01*
X27250Y6500D02*
X29250Y6500D01*
X27250Y4500D02*
X27250Y6500D01*
X29250Y4500D02*
X29250Y6500D01*
X28603Y5853D02*
X28438Y5963D01*
X28250Y5999D01*
X28061Y5963D01*
X27896Y5853D01*
X27786Y5688D01*
X27750Y5500D01*
X27786Y5311D01*
X27896Y5146D01*
X28061Y5036D01*
X28250Y5000D01*
X28438Y5036D01*
X28603Y5146D01*
X28713Y5311D01*
X28750Y5500D01*
X28713Y5688D01*
X28603Y5853D01*
X37875Y13000D02*
X35125Y13000D01*
X38500Y12500D02*
X37875Y12500D01*
X37875Y12000D02*
X37875Y13000D01*
X37875Y12000D02*
X35125Y12000D01*
X35125Y12000D02*
X35125Y13000D01*
X34500Y12500D02*
X35125Y12500D01*
X18000Y5000D02*
X17250Y5000D01*
X17250Y4625D02*
X17250Y5375D01*
X15000Y5000D02*
X15750Y5000D01*
X15750Y4625D02*
X15750Y5375D01*
X17250Y4625D02*
X15750Y4625D01*
X17250Y5375D02*
X15750Y5375D01*
X16000Y4625D02*
X16000Y5375D01*
X28125Y10500D02*
X30875Y10500D01*
X27500Y11000D02*
X28125Y11000D01*
X28125Y11500D02*
X28125Y10500D01*
X28125Y11500D02*
X30875Y11500D01*
X30875Y11500D02*
X30875Y10500D01*
X31500Y11000D02*
X30875Y11000D01*
X18500Y16750D02*
X28500Y16750D01*
X18500Y15750D02*
X28500Y15750D01*
X28500Y16750D02*
X28500Y15750D01*
X18500Y16500D02*
X18582Y16478D01*
X18640Y16421D01*
X18675Y16341D01*
X18687Y16250D01*
X18675Y16158D01*
X18640Y16078D01*
X18582Y16021D01*
X18500Y16000D01*
X18500Y16750D02*
X18500Y16500D01*
X18500Y16000D02*
X18500Y15750D01*
X5500Y17000D02*
X3750Y17000D01*
X5500Y16000D02*
X3750Y16000D01*
X5500Y15000D02*
X3750Y15000D01*
X12000Y18000D02*
X5500Y18000D01*
X12000Y13999D02*
X5500Y13999D01*
X12000Y18000D02*
X12000Y13999D01*
X5500Y18000D02*
X5500Y13999D01*
X37Y26736D02*
X5746Y26736D01*
X37Y23192D02*
X5746Y23192D01*
X37Y26736D02*
X37Y23192D01*
X5746Y26736D02*
X5746Y23192D01*
X1415Y26736D02*
X1415Y23192D01*
X24750Y26999D02*
X29250Y26999D01*
X24750Y24499D02*
X29250Y24499D01*
X29250Y26999D02*
X29250Y24499D01*
X24750Y26999D02*
X24750Y24499D01*
X16649Y24550D02*
X16249Y24550D01*
X16449Y24750D02*
X16449Y24350D01*
X16850Y25250D02*
X15749Y25250D01*
X17113Y25886D02*
X16998Y25745D01*
X16915Y25588D01*
X16866Y25421D01*
X16850Y25250D01*
X16866Y25078D01*
X16915Y24911D01*
X16998Y24754D01*
X17113Y24613D01*
X17254Y24498D01*
X17411Y24415D01*
X17578Y24366D01*
X17749Y24350D01*
X17921Y24366D01*
X18088Y24415D01*
X18245Y24498D01*
X18386Y24613D01*
X18501Y24754D01*
X18584Y24911D01*
X18633Y25078D01*
X18649Y25250D01*
X18633Y25421D01*
X18584Y25588D01*
X18501Y25745D01*
X18386Y25886D01*
X18245Y26001D01*
X18088Y26084D01*
X17921Y26133D01*
X17749Y26150D01*
X17578Y26133D01*
X17411Y26084D01*
X17254Y26001D01*
X17113Y25886D01*
X15950Y24550D02*
X15549Y24550D01*
X15750Y29250D02*
X15914Y29228D01*
X16031Y29171D01*
X16101Y29091D01*
X16125Y29000D01*
X16101Y28908D01*
X16031Y28828D01*
X15914Y28771D01*
X15750Y28750D01*
X15750Y29250D02*
X15750Y31000D01*
X15750Y28750D02*
X15750Y27000D01*
X15750Y31000D02*
X23250Y31000D01*
X23250Y31000D02*
X23250Y27000D01*
X23250Y27000D02*
X15750Y27000D01*
X25125Y32500D02*
X27875Y32500D01*
X24500Y33000D02*
X25125Y33000D01*
X25125Y33500D02*
X25125Y32500D01*
X25125Y33500D02*
X27875Y33500D01*
X27875Y33500D02*
X27875Y32500D01*
X28500Y33000D02*
X27875Y33000D01*
X11125Y29500D02*
X13875Y29500D01*
X10500Y30000D02*
X11125Y30000D01*
X11125Y30500D02*
X11125Y29500D01*
X11125Y30500D02*
X13875Y30500D01*
X13875Y30500D02*
X13875Y29500D01*
X14500Y30000D02*
X13875Y30000D01*
X13874Y29500D02*
X11125Y29500D01*
X14499Y29000D02*
X13874Y29000D01*
X13874Y28500D02*
X13874Y29500D01*
X13874Y28500D02*
X11125Y28500D01*
X11125Y28500D02*
X11125Y29500D01*
X10500Y29000D02*
X11125Y29000D01*
X13874Y28500D02*
X11125Y28500D01*
X14499Y28000D02*
X13874Y28000D01*
X13874Y27500D02*
X13874Y28500D01*
X13874Y27500D02*
X11125Y27500D01*
X11125Y27500D02*
X11125Y28500D01*
X10500Y28000D02*
X11125Y28000D01*
X19250Y26000D02*
X22250Y26000D01*
X19250Y26000D02*
X19250Y25000D01*
X22250Y26000D02*
X22250Y25000D01*
X19250Y25000D02*
X22250Y25000D01*
X500Y9250D02*
X20250Y9250D01*
X20250Y1750D02*
X20250Y9250D01*
X500Y1750D02*
X20250Y1750D01*
X500Y7250D02*
X500Y9250D01*
X2000Y7250D02*
X0Y7250D01*
X2000Y4500D02*
X0Y4500D01*
X2000Y4500D02*
X2000Y7250D01*
X0Y4500D02*
X0Y7250D01*
X500Y1750D02*
X500Y4500D01*
X18249Y20749D02*
X18414Y20728D01*
X18531Y20671D01*
X18601Y20591D01*
X18625Y20500D01*
X18601Y20408D01*
X18531Y20328D01*
X18414Y20271D01*
X18249Y20249D01*
X18249Y20749D02*
X18249Y22500D01*
X18249Y20249D02*
X18249Y18500D01*
X18249Y22500D02*
X32750Y22500D01*
X32750Y22500D02*
X32750Y18500D01*
X32750Y18500D02*
X18249Y18500D01*
X31250Y26750D02*
X31414Y26728D01*
X31531Y26671D01*
X31601Y26591D01*
X31625Y26500D01*
X31601Y26408D01*
X31531Y26328D01*
X31414Y26271D01*
X31250Y26250D01*
X31250Y26750D02*
X31250Y28500D01*
X31250Y26250D02*
X31250Y24500D01*
X31250Y28500D02*
X38750Y28500D01*
X38750Y28500D02*
X38750Y24500D01*
X38750Y24500D02*
X31250Y24500D01*
X4948Y35494D02*
X5061Y35393D01*
X5188Y35319D01*
X5325Y35272D01*
X5467Y35252D01*
X5611Y35260D01*
X5751Y35295D01*
X5884Y35358D01*
X6005Y35448D01*
X6106Y35561D01*
X6180Y35688D01*
X6227Y35825D01*
X6247Y35967D01*
X6239Y36111D01*
X6204Y36251D01*
X6141Y36384D01*
X6051Y36505D01*
X5938Y36606D01*
X5811Y36680D01*
X5674Y36727D01*
X5532Y36747D01*
X5388Y36739D01*
X5248Y36704D01*
X5115Y36641D01*
X4994Y36551D01*
X4948Y36505D01*
X4948Y35494D02*
X4948Y36505D01*
X16948Y35494D02*
X17061Y35393D01*
X17188Y35319D01*
X17325Y35272D01*
X17467Y35252D01*
X17611Y35260D01*
X17751Y35295D01*
X17884Y35358D01*
X18005Y35448D01*
X18106Y35561D01*
X18180Y35688D01*
X18227Y35825D01*
X18247Y35967D01*
X18239Y36111D01*
X18204Y36251D01*
X18141Y36384D01*
X18051Y36505D01*
X17938Y36606D01*
X17811Y36680D01*
X17674Y36727D01*
X17532Y36747D01*
X17388Y36739D01*
X17248Y36704D01*
X17115Y36641D01*
X16994Y36551D01*
X16948Y36505D01*
X16948Y35494D02*
X16948Y36505D01*
X23948Y35494D02*
X24061Y35393D01*
X24188Y35319D01*
X24325Y35272D01*
X24467Y35252D01*
X24611Y35260D01*
X24751Y35295D01*
X24884Y35358D01*
X25005Y35448D01*
X25106Y35561D01*
X25180Y35688D01*
X25227Y35825D01*
X25247Y35967D01*
X25239Y36111D01*
X25204Y36251D01*
X25141Y36384D01*
X25051Y36505D01*
X24938Y36606D01*
X24811Y36680D01*
X24674Y36727D01*
X24532Y36747D01*
X24388Y36739D01*
X24248Y36704D01*
X24115Y36641D01*
X23994Y36551D01*
X23948Y36505D01*
X23948Y35494D02*
X23948Y36505D01*
X35948Y35494D02*
X36061Y35393D01*
X36188Y35319D01*
X36325Y35272D01*
X36467Y35252D01*
X36611Y35260D01*
X36751Y35295D01*
X36884Y35358D01*
X37005Y35448D01*
X37106Y35561D01*
X37180Y35688D01*
X37227Y35825D01*
X37247Y35967D01*
X37239Y36111D01*
X37204Y36251D01*
X37141Y36384D01*
X37051Y36505D01*
X36938Y36606D01*
X36811Y36680D01*
X36674Y36727D01*
X36532Y36747D01*
X36388Y36739D01*
X36248Y36704D01*
X36115Y36641D01*
X35994Y36551D01*
X35948Y36505D01*
X35948Y35494D02*
X35948Y36505D01*
X33625Y33500D02*
X30875Y33500D01*
X34250Y33000D02*
X33625Y33000D01*
X33625Y32500D02*
X33625Y33500D01*
X33625Y32500D02*
X30875Y32500D01*
X30875Y32500D02*
X30875Y33500D01*
X30250Y33000D02*
X30875Y33000D01*
X33625Y32500D02*
X30875Y32500D01*
X34250Y32000D02*
X33625Y32000D01*
X33625Y31500D02*
X33625Y32500D01*
X33625Y31500D02*
X30875Y31500D01*
X30875Y31500D02*
X30875Y32500D01*
X30250Y32000D02*
X30875Y32000D01*
X33625Y30500D02*
X30875Y30500D01*
X34250Y30000D02*
X33625Y30000D01*
X33625Y29500D02*
X33625Y30500D01*
X33625Y29500D02*
X30875Y29500D01*
X30875Y29500D02*
X30875Y30500D01*
X30250Y30000D02*
X30875Y30000D01*
X33625Y31500D02*
X30875Y31500D01*
X34250Y31000D02*
X33625Y31000D01*
X33625Y30500D02*
X33625Y31500D01*
X33625Y30500D02*
X30875Y30500D01*
X30875Y30500D02*
X30875Y31500D01*
X30250Y31000D02*
X30875Y31000D01*
X35499Y30500D02*
X38500Y30500D01*
X35499Y30500D02*
X35499Y29500D01*
X38500Y30500D02*
X38500Y29500D01*
X35499Y29500D02*
X38500Y29500D01*
X3990Y12650D02*
X3874Y12483D01*
X3796Y12303D01*
X3756Y12114D01*
X3753Y11922D01*
X3786Y11733D01*
X3855Y11552D01*
X3960Y11386D01*
X4099Y11240D01*
X4266Y11124D01*
X4446Y11046D01*
X4635Y11006D01*
X4827Y11003D01*
X5016Y11036D01*
X5197Y11105D01*
X5363Y11210D01*
X5509Y11349D01*
X5614Y11497D01*
X5689Y11658D01*
X5734Y11827D01*
X5749Y11999D01*
X5735Y12172D01*
X5689Y12341D01*
X5614Y12502D01*
X5509Y12649D01*
X3990Y12650D02*
X5509Y12649D01*
X44801Y32505D02*
X44688Y32606D01*
X44561Y32680D01*
X44424Y32727D01*
X44282Y32747D01*
X44138Y32739D01*
X43998Y32704D01*
X43865Y32641D01*
X43744Y32551D01*
X43643Y32438D01*
X43569Y32311D01*
X43522Y32174D01*
X43502Y32032D01*
X43510Y31888D01*
X43545Y31748D01*
X43608Y31615D01*
X43698Y31494D01*
X43811Y31393D01*
X43938Y31319D01*
X44075Y31272D01*
X44217Y31252D01*
X44361Y31260D01*
X44501Y31295D01*
X44634Y31358D01*
X44755Y31448D01*
X44801Y31494D01*
X44801Y32505D02*
X44801Y31494D01*
X44801Y27505D02*
X44688Y27606D01*
X44561Y27680D01*
X44424Y27727D01*
X44282Y27747D01*
X44138Y27739D01*
X43998Y27704D01*
X43865Y27641D01*
X43744Y27551D01*
X43643Y27438D01*
X43569Y27311D01*
X43522Y27174D01*
X43502Y27032D01*
X43510Y26888D01*
X43545Y26748D01*
X43608Y26615D01*
X43698Y26494D01*
X43811Y26393D01*
X43938Y26319D01*
X44075Y26272D01*
X44217Y26252D01*
X44361Y26260D01*
X44501Y26295D01*
X44634Y26358D01*
X44755Y26448D01*
X44801Y26494D01*
X44801Y27505D02*
X44801Y26494D01*
X44801Y21505D02*
X44688Y21606D01*
X44561Y21680D01*
X44424Y21727D01*
X44282Y21747D01*
X44138Y21739D01*
X43998Y21704D01*
X43865Y21641D01*
X43744Y21551D01*
X43643Y21438D01*
X43569Y21311D01*
X43522Y21174D01*
X43502Y21032D01*
X43510Y20888D01*
X43545Y20748D01*
X43608Y20615D01*
X43698Y20494D01*
X43811Y20393D01*
X43938Y20319D01*
X44075Y20272D01*
X44217Y20252D01*
X44361Y20260D01*
X44501Y20295D01*
X44634Y20358D01*
X44755Y20448D01*
X44801Y20494D01*
X44801Y21505D02*
X44801Y20494D01*
X44801Y16505D02*
X44688Y16606D01*
X44561Y16680D01*
X44424Y16727D01*
X44282Y16747D01*
X44138Y16739D01*
X43998Y16704D01*
X43865Y16641D01*
X43744Y16551D01*
X43643Y16438D01*
X43569Y16311D01*
X43522Y16174D01*
X43502Y16032D01*
X43510Y15888D01*
X43545Y15748D01*
X43608Y15615D01*
X43698Y15494D01*
X43811Y15393D01*
X43938Y15319D01*
X44075Y15272D01*
X44217Y15252D01*
X44361Y15260D01*
X44501Y15295D01*
X44634Y15358D01*
X44755Y15448D01*
X44801Y15494D01*
X44801Y16505D02*
X44801Y15494D01*
X35625Y22500D02*
X38374Y22500D01*
X34999Y23000D02*
X35625Y23000D01*
X35625Y23500D02*
X35625Y22500D01*
X35625Y23500D02*
X38374Y23500D01*
X38374Y23500D02*
X38374Y22500D01*
X38999Y23000D02*
X38374Y23000D01*
X35625Y21250D02*
X38374Y21250D01*
X34999Y21750D02*
X35625Y21750D01*
X35625Y22250D02*
X35625Y21250D01*
X35625Y22250D02*
X38374Y22250D01*
X38374Y22250D02*
X38374Y21250D01*
X38999Y21750D02*
X38374Y21750D01*
X35625Y20000D02*
X38374Y20000D01*
X34999Y20500D02*
X35625Y20500D01*
X35625Y21000D02*
X35625Y20000D01*
X35625Y21000D02*
X38374Y21000D01*
X38374Y21000D02*
X38374Y20000D01*
X38999Y20500D02*
X38374Y20500D01*
X35625Y18750D02*
X38374Y18750D01*
X34999Y19250D02*
X35625Y19250D01*
X35625Y19750D02*
X35625Y18750D01*
X35625Y19750D02*
X38374Y19750D01*
X38374Y19750D02*
X38374Y18750D01*
X38999Y19250D02*
X38374Y19250D01*
X30250Y16000D02*
X30414Y15978D01*
X30531Y15921D01*
X30601Y15841D01*
X30625Y15750D01*
X30601Y15658D01*
X30531Y15578D01*
X30414Y15521D01*
X30250Y15500D01*
X30250Y16000D02*
X30250Y17750D01*
X30250Y15500D02*
X30250Y13750D01*
X30250Y17750D02*
X38500Y17750D01*
X38500Y17750D02*
X38500Y13750D01*
X38500Y13750D02*
X30250Y13750D01*
D14*
G01X4000Y38000D02*
X6500Y38000D01*
X4000Y38000D02*
X4000Y34000D01*
X16500Y38000D02*
X19750Y38000D01*
X19000Y34000D02*
X19000Y38000D01*
X4000Y34000D02*
X38000Y34000D01*
X35250Y38000D02*
X38000Y38000D01*
X38000Y34000D02*
X38000Y38000D01*
X23000Y34000D02*
X23000Y38000D01*
X22250Y38000D02*
X25750Y38000D01*
X40500Y11000D02*
X40500Y36000D01*
X40500Y36000D02*
X45750Y36000D01*
X45750Y36000D02*
X45750Y29500D01*
X40500Y15000D02*
X45750Y15000D01*
X45750Y14250D02*
X45750Y21500D01*
X40500Y11000D02*
X45750Y11000D01*
X45750Y11000D02*
X45750Y11750D01*
D15*
G01X0Y0D02*
X0Y39370D01*
X47244Y39370D01*
X47244Y0D01*
X0Y0D01*
M02*
