%FSLAX24Y24*%
%MOIN*%
%ADD10C,0.0100*%
%ADD11C,0.0200*%
%ADD12C,0.0300*%
%ADD13C,0.0500*%
%ADD14C,0.0520*%
%ADD15C,0.0591*%
%ADD16C,0.0600*%
%ADD17C,0.0700*%
%ADD18C,0.0709*%
%ADD19C,0.0750*%
%ADD20C,0.1575*%
%ADD21C,0.2362*%
%ADD22C,0.3150*%
D10*
G01X12500Y11000D02*
X12089Y10589D01*
X12089Y10589D02*
X9439Y10589D01*
X9439Y10589D02*
X7531Y8681D01*
X7531Y8681D02*
X7531Y6968D01*
X7531Y6968D02*
X8000Y6500D01*
X35410Y24031D02*
X37858Y24031D01*
X37858Y24031D02*
X38413Y24586D01*
X38413Y24586D02*
X38413Y28408D01*
X38413Y28408D02*
X34821Y32000D01*
X34821Y32000D02*
X34250Y32000D01*
X25000Y18999D02*
X25000Y19150D01*
X25000Y19150D02*
X26295Y20445D01*
X26295Y20445D02*
X32655Y20445D01*
X32655Y20445D02*
X33011Y20089D01*
X33011Y20089D02*
X35335Y20089D01*
X35335Y20089D02*
X35410Y20164D01*
X35410Y20164D02*
X35410Y24031D01*
X35410Y24031D02*
X35410Y24589D01*
X35410Y24589D02*
X35000Y25000D01*
X35000Y28000D02*
X34048Y28951D01*
X34048Y28951D02*
X29971Y28951D01*
X29971Y28951D02*
X29513Y29410D01*
X29513Y29410D02*
X18190Y29410D01*
X18190Y29410D02*
X17169Y28389D01*
X17169Y28389D02*
X14889Y28389D01*
X14889Y28389D02*
X14499Y28000D01*
X28500Y28000D02*
X29150Y28650D01*
X29150Y28650D02*
X32181Y28650D01*
X32181Y28650D02*
X32500Y28331D01*
X32500Y28331D02*
X32500Y27656D01*
X32500Y27656D02*
X34246Y25910D01*
X34246Y25910D02*
X36089Y25910D01*
X36089Y25910D02*
X37000Y25000D01*
X26000Y18999D02*
X26941Y19941D01*
X26941Y19941D02*
X28051Y19941D01*
X30249Y30000D02*
X34391Y34141D01*
X34391Y34141D02*
X35141Y34141D01*
X35141Y34141D02*
X37000Y36000D01*
X34250Y9000D02*
X32978Y10271D01*
X32978Y10271D02*
X29196Y10271D01*
X29196Y10271D02*
X26357Y13110D01*
X26357Y13110D02*
X20703Y13110D01*
X20703Y13110D02*
X20424Y12830D01*
X31000Y9000D02*
X30128Y9871D01*
X30128Y9871D02*
X27042Y9871D01*
X27042Y9871D02*
X25712Y11200D01*
X25712Y11200D02*
X25712Y12037D01*
X25712Y12037D02*
X24840Y12910D01*
X24840Y12910D02*
X22227Y12910D01*
X22227Y12910D02*
X22047Y12730D01*
X24349Y28150D02*
X21150Y28150D01*
X21150Y28150D02*
X20500Y27500D01*
X24500Y28000D02*
X24349Y28150D01*
X24349Y28150D02*
X24500Y28300D01*
X24500Y28300D02*
X24500Y29000D01*
X18500Y30500D02*
X16589Y28589D01*
X16589Y28589D02*
X14153Y28589D01*
X14153Y28589D02*
X11838Y26275D01*
X31000Y18999D02*
X31000Y18423D01*
X31000Y18423D02*
X27016Y14439D01*
X27016Y14439D02*
X16946Y14439D01*
X16946Y14439D02*
X11746Y9239D01*
X11746Y9239D02*
X9739Y9239D01*
X9739Y9239D02*
X9000Y8500D01*
X10500Y25000D02*
X10912Y24587D01*
X10912Y24587D02*
X15911Y24587D01*
X15911Y24587D02*
X17234Y25910D01*
X17234Y25910D02*
X33089Y25910D01*
X33089Y25910D02*
X34000Y25000D01*
X19499Y32500D02*
X18849Y31849D01*
X18849Y31849D02*
X15349Y31849D01*
X15349Y31849D02*
X14499Y31000D01*
X42250Y3999D02*
X40234Y6015D01*
X40234Y6015D02*
X35577Y6015D01*
X35577Y6015D02*
X31521Y10071D01*
X31521Y10071D02*
X27428Y10071D01*
X27428Y10071D02*
X26500Y11000D01*
X21500Y27500D02*
X20589Y26589D01*
X20589Y26589D02*
X13833Y26589D01*
X13833Y26589D02*
X13548Y26304D01*
X22500Y27500D02*
X21500Y27500D01*
X33000Y36000D02*
X33000Y35152D01*
X33000Y35152D02*
X30437Y32589D01*
X30437Y32589D02*
X29743Y32589D01*
X29743Y32589D02*
X28923Y33410D01*
X28923Y33410D02*
X24123Y33410D01*
X24123Y33410D02*
X22074Y31360D01*
X22074Y31360D02*
X17360Y31360D01*
X17360Y31360D02*
X16500Y30500D01*
X14500Y30000D02*
X15000Y30500D01*
X15000Y30500D02*
X16500Y30500D01*
X30000Y18999D02*
X30653Y19653D01*
X30653Y19653D02*
X31169Y19653D01*
X31169Y19653D02*
X31417Y19405D01*
X31417Y19405D02*
X31417Y18557D01*
X31417Y18557D02*
X27099Y14239D01*
X27099Y14239D02*
X17358Y14239D01*
X17358Y14239D02*
X14000Y10881D01*
X14000Y10881D02*
X14000Y8500D01*
X23999Y18999D02*
X24669Y18330D01*
X24669Y18330D02*
X25176Y18330D01*
X25176Y18330D02*
X25429Y18583D01*
X25429Y18583D02*
X25429Y19260D01*
X25429Y19260D02*
X26412Y20243D01*
X26412Y20243D02*
X31604Y20243D01*
X31604Y20243D02*
X33028Y18818D01*
X33000Y17250D02*
X33000Y18790D01*
X33000Y18790D02*
X33028Y18818D01*
X33028Y18818D02*
X33459Y19250D01*
X33459Y19250D02*
X34999Y19250D01*
X21000Y21999D02*
X21668Y22668D01*
X21668Y22668D02*
X29174Y22668D01*
X29174Y22668D02*
X29570Y22272D01*
X29570Y22272D02*
X29570Y21609D01*
X29570Y21609D02*
X29840Y21339D01*
X29840Y21339D02*
X34160Y21339D01*
X34160Y21339D02*
X34999Y20500D01*
X21999Y18999D02*
X23344Y17655D01*
X23344Y17655D02*
X24900Y17655D01*
X16500Y11000D02*
X19022Y13522D01*
X19022Y13522D02*
X29453Y13522D01*
X29453Y13522D02*
X31487Y11487D01*
X31487Y11487D02*
X35154Y11487D01*
X35154Y11487D02*
X36875Y9766D01*
X36875Y9766D02*
X41242Y9766D01*
X41242Y9766D02*
X41965Y9042D01*
X41965Y9042D02*
X43552Y9042D01*
X43552Y9042D02*
X44218Y9708D01*
X29620Y9571D02*
X27515Y9571D01*
X27515Y9571D02*
X23134Y5189D01*
X23134Y5189D02*
X22081Y5189D01*
X22081Y5189D02*
X20314Y3422D01*
X20314Y3422D02*
X12922Y3422D01*
X12922Y3422D02*
X12000Y2500D01*
X31000Y17250D02*
X31656Y16593D01*
X31656Y16593D02*
X35187Y16593D01*
X35187Y16593D02*
X35500Y16906D01*
X35500Y16906D02*
X35500Y17589D01*
X35500Y17589D02*
X37570Y19660D01*
X37570Y19660D02*
X41339Y19660D01*
X41339Y19660D02*
X42500Y18500D01*
X30249Y33000D02*
X29506Y33743D01*
X29506Y33743D02*
X8256Y33743D01*
X8256Y33743D02*
X6000Y36000D01*
X24349Y31150D02*
X24500Y31000D01*
X21500Y30500D02*
X22150Y31150D01*
X22150Y31150D02*
X24349Y31150D01*
X24349Y31150D02*
X24349Y31849D01*
X24349Y31849D02*
X24500Y32000D01*
X10500Y29000D02*
X10500Y28000D01*
X10910Y29589D02*
X10500Y29179D01*
X10500Y29179D02*
X10500Y29000D01*
X10910Y29589D02*
X10500Y30000D01*
X17500Y30500D02*
X16589Y29589D01*
X16589Y29589D02*
X10910Y29589D01*
X24500Y12500D02*
X24500Y10000D01*
X24500Y10000D02*
X25500Y9000D01*
X31999Y18999D02*
X32000Y19106D01*
X32000Y19106D02*
X31252Y19853D01*
X31252Y19853D02*
X30033Y19853D01*
X30033Y19853D02*
X29490Y19309D01*
X29490Y19309D02*
X29490Y18662D01*
X29490Y18662D02*
X28727Y17900D01*
X28727Y17900D02*
X27818Y17900D01*
X27818Y17900D02*
X26500Y16581D01*
X26500Y16581D02*
X26500Y15906D01*
X26500Y15906D02*
X25232Y14639D01*
X25232Y14639D02*
X16735Y14639D01*
X16735Y14639D02*
X11683Y9587D01*
X11683Y9587D02*
X9439Y9587D01*
X9439Y9587D02*
X8534Y8682D01*
X8534Y8682D02*
X8534Y8319D01*
X8534Y8319D02*
X8807Y8046D01*
X8807Y8046D02*
X9546Y8046D01*
X9546Y8046D02*
X10000Y8500D01*
X36000Y14250D02*
X35348Y13598D01*
X35348Y13598D02*
X30496Y13598D01*
X30496Y13598D02*
X30172Y13922D01*
X30172Y13922D02*
X17324Y13922D01*
X17324Y13922D02*
X14500Y11098D01*
X14500Y11098D02*
X14500Y8337D01*
X14500Y8337D02*
X13990Y7828D01*
X13990Y7828D02*
X8671Y7828D01*
X8671Y7828D02*
X8000Y8500D01*
X38999Y20500D02*
X43250Y20500D01*
X43250Y20500D02*
X43750Y21000D01*
X42250Y9708D02*
X39999Y11959D01*
X39999Y11959D02*
X31735Y11959D01*
X31735Y11959D02*
X29972Y13722D01*
X29972Y13722D02*
X17722Y13722D01*
X17722Y13722D02*
X16500Y12500D01*
X20000Y21999D02*
X23653Y25653D01*
X23653Y25653D02*
X31346Y25653D01*
X31346Y25653D02*
X32000Y25000D01*
X4249Y30500D02*
X2750Y29000D01*
X2750Y29000D02*
X2749Y27999D01*
X18500Y32500D02*
X17847Y33152D01*
X17847Y33152D02*
X6152Y33152D01*
X6152Y33152D02*
X5499Y32500D01*
X22500Y11000D02*
X21500Y11000D01*
X18500Y27500D02*
X17849Y26849D01*
X17849Y26849D02*
X14650Y26849D01*
X14650Y26849D02*
X14500Y27000D01*
X28500Y32000D02*
X29616Y30883D01*
X29616Y30883D02*
X29616Y30052D01*
X29616Y30052D02*
X30273Y29395D01*
X30273Y29395D02*
X36604Y29395D01*
X36604Y29395D02*
X38000Y28000D01*
X37500Y9000D02*
X36354Y9000D01*
X36354Y9000D02*
X34882Y10471D01*
X34882Y10471D02*
X29611Y10471D01*
X29611Y10471D02*
X26772Y13310D01*
X26772Y13310D02*
X19769Y13310D01*
X19769Y13310D02*
X19322Y12863D01*
X17500Y27500D02*
X16500Y27500D01*
X29000Y18999D02*
X28295Y18295D01*
X28295Y18295D02*
X27214Y18295D01*
X27214Y18295D02*
X25500Y16581D01*
X25500Y16581D02*
X25500Y15906D01*
X25500Y15906D02*
X24433Y14839D01*
X24433Y14839D02*
X14400Y14839D01*
X14400Y14839D02*
X12651Y13090D01*
X12651Y13090D02*
X10951Y13090D01*
X10951Y13090D02*
X6500Y8639D01*
X6500Y8639D02*
X6500Y7587D01*
X6500Y7587D02*
X5568Y6655D01*
X5568Y6655D02*
X5568Y3631D01*
X5568Y3631D02*
X6500Y2700D01*
X6500Y2700D02*
X6500Y2363D01*
X6500Y2363D02*
X6818Y2045D01*
X6818Y2045D02*
X8545Y2045D01*
X8545Y2045D02*
X9000Y2500D01*
X22500Y30500D02*
X26000Y30500D01*
X26000Y30500D02*
X28500Y33000D01*
X31146Y30417D02*
X33667Y30417D01*
X33667Y30417D02*
X34250Y31000D01*
X29000Y21999D02*
X28310Y21310D01*
X28310Y21310D02*
X20325Y21310D01*
X20325Y21310D02*
X18513Y19498D01*
X18513Y19498D02*
X18513Y19332D01*
X18513Y19332D02*
X12510Y13330D01*
X12510Y13330D02*
X7330Y13330D01*
X7330Y13330D02*
X6000Y12000D01*
X6000Y12000D02*
X6000Y8500D01*
X6000Y12000D02*
X5750Y12000D01*
X38999Y19250D02*
X42250Y16000D01*
X42250Y16000D02*
X43750Y16000D01*
X11499Y12500D02*
X11500Y11000D01*
X12500Y12500D02*
X11499Y12500D01*
X38999Y23000D02*
X43000Y27000D01*
X43000Y27000D02*
X43750Y26999D01*
D11*
G01X7500Y26500D02*
X6966Y26500D01*
X6966Y26500D02*
X5431Y24964D01*
X30000Y21999D02*
X30000Y23500D01*
X30000Y23500D02*
X28500Y25000D01*
X36000Y25000D02*
X36706Y24293D01*
X36706Y24293D02*
X37293Y24293D01*
X37293Y24293D02*
X38000Y25000D01*
X10750Y15999D02*
X7750Y15999D01*
X7750Y19500D02*
X6999Y19500D01*
X7999Y19500D02*
X7750Y19500D01*
X7750Y19500D02*
X7750Y15999D01*
X13250Y20500D02*
X9250Y20500D01*
X16250Y20500D02*
X13250Y20500D01*
X31500Y11000D02*
X31000Y11000D01*
X31000Y11000D02*
X29500Y12500D01*
X32499Y11000D02*
X31500Y11000D01*
X4547Y32500D02*
X4547Y35547D01*
X4547Y35547D02*
X5000Y36000D01*
X6250Y31301D02*
X5745Y31301D01*
X5745Y31301D02*
X4547Y32500D01*
X4547Y32500D02*
X4499Y32500D01*
X6250Y31301D02*
X6250Y30500D01*
X8499Y32500D02*
X7301Y31301D01*
X7301Y31301D02*
X6250Y31301D01*
X7039Y5460D02*
X6000Y6500D01*
X10000Y5000D02*
X9539Y5460D01*
X9539Y5460D02*
X7039Y5460D01*
X7039Y5460D02*
X7039Y2539D01*
X7039Y2539D02*
X7000Y2500D01*
X5000Y8500D02*
X3750Y9750D01*
X3750Y9750D02*
X3750Y12000D01*
X18000Y5000D02*
X21500Y8500D01*
X21500Y8500D02*
X22000Y8500D01*
X10000Y5000D02*
X10564Y4435D01*
X10564Y4435D02*
X17435Y4435D01*
X17435Y4435D02*
X18000Y5000D01*
X39000Y4000D02*
X38499Y3499D01*
X38499Y3499D02*
X36250Y3499D01*
X36250Y3499D02*
X35749Y4000D01*
X29250Y4000D02*
X28749Y4500D01*
X28749Y4500D02*
X26500Y4500D01*
X26500Y4500D02*
X26000Y4000D01*
X8499Y32500D02*
X10000Y31000D01*
X10000Y31000D02*
X10500Y31000D01*
X44500Y30796D02*
X44500Y27250D01*
X44500Y27250D02*
X44750Y26999D01*
X44750Y31999D02*
X44500Y31750D01*
X44500Y31750D02*
X44500Y30796D01*
X44500Y30796D02*
X38796Y30796D01*
X38796Y30796D02*
X37999Y30000D01*
X32500Y4000D02*
X33007Y3492D01*
X33007Y3492D02*
X35242Y3492D01*
X35242Y3492D02*
X35749Y4000D01*
X21000Y36000D02*
X20539Y35539D01*
X20539Y35539D02*
X17460Y35539D01*
X17460Y35539D02*
X16999Y36000D01*
X24000Y36000D02*
X21000Y36000D01*
X34000Y17250D02*
X35000Y17250D01*
X35000Y14250D02*
X34000Y14250D01*
X28500Y12500D02*
X29500Y12500D01*
X23500Y12500D02*
X23500Y10000D01*
X23500Y10000D02*
X22000Y8500D01*
X3750Y15999D02*
X7750Y15999D01*
X7749Y27999D02*
X9750Y26000D01*
X9750Y26000D02*
X10500Y26000D01*
X10500Y26000D02*
X13500Y29000D01*
X13500Y29000D02*
X14499Y29000D01*
X8000Y20750D02*
X8000Y21500D01*
X9250Y19500D02*
X8000Y20750D01*
X3750Y16999D02*
X7500Y20750D01*
X7500Y20750D02*
X8000Y20750D01*
X17749Y25250D02*
X15612Y23112D01*
X15612Y23112D02*
X9612Y23112D01*
X9612Y23112D02*
X8000Y21500D01*
X31000Y14250D02*
X31711Y14961D01*
X31711Y14961D02*
X37288Y14961D01*
X37288Y14961D02*
X38000Y14250D01*
X38000Y14250D02*
X39250Y13000D01*
X39250Y13000D02*
X42500Y13000D01*
X19750Y25250D02*
X17749Y25250D01*
X19750Y24250D02*
X19750Y25250D01*
X19750Y25250D02*
X19750Y25500D01*
X23750Y24250D02*
X25802Y24250D01*
X25802Y24250D02*
X26500Y24947D01*
X26500Y24947D02*
X26500Y25000D01*
X4000Y8500D02*
X3499Y7999D01*
X3499Y7999D02*
X3499Y2115D01*
X3499Y2115D02*
X3841Y1773D01*
X3841Y1773D02*
X21773Y1773D01*
X21773Y1773D02*
X22000Y2000D01*
X32000Y28000D02*
X30339Y26339D01*
X30339Y26339D02*
X15843Y26339D01*
X15843Y26339D02*
X15043Y25539D01*
X15043Y25539D02*
X10207Y25539D01*
X10207Y25539D02*
X9153Y24485D01*
X9153Y24485D02*
X9153Y23853D01*
X9153Y23853D02*
X7500Y22199D01*
X7500Y22199D02*
X7500Y21320D01*
X7500Y21320D02*
X5575Y19396D01*
X5575Y19396D02*
X4982Y19396D01*
X4982Y19396D02*
X3035Y17449D01*
X3035Y17449D02*
X3035Y15287D01*
X1999Y15000D02*
X2287Y15287D01*
X2287Y15287D02*
X3035Y15287D01*
X3035Y15287D02*
X3462Y15287D01*
X3462Y15287D02*
X3750Y15000D01*
X26999Y18999D02*
X25102Y17102D01*
X25102Y17102D02*
X18796Y17102D01*
X18796Y17102D02*
X17091Y15396D01*
X17091Y15396D02*
X17091Y15139D01*
X15999Y8500D02*
X14516Y7016D01*
X14516Y7016D02*
X10766Y7016D01*
X10766Y7016D02*
X9999Y6250D01*
X15999Y8500D02*
X17000Y8500D01*
D12*
G01X28051Y19941D03*
X20424Y12830D03*
X22047Y12730D03*
X11838Y26275D03*
X13548Y26304D03*
X24900Y17655D03*
X29620Y9571D03*
X19322Y12863D03*
X31146Y30417D03*
X17091Y15139D03*
D13*
G01X5750Y12000D03*
X3750Y12000D03*
X4750Y12000D03*
D14*
G01X25500Y9000D03*
X26500Y11000D03*
X12500Y11000D03*
X21499Y12500D03*
X23500Y12500D03*
X24500Y31000D03*
X14500Y25000D03*
X32000Y9000D03*
X14500Y27000D03*
X2000Y15000D03*
X2000Y17000D03*
X8000Y21500D03*
X8000Y19500D03*
X21500Y11000D03*
X28500Y12500D03*
X8000Y6500D03*
X6000Y6500D03*
X24500Y32000D03*
X22000Y3000D03*
X10500Y31000D03*
X7000Y21500D03*
X6999Y19500D03*
X22000Y4500D03*
X28750Y9000D03*
X38500Y9000D03*
X4250Y30500D03*
X6250Y30500D03*
X18000Y6250D03*
X15000Y6250D03*
X24500Y30000D03*
X11500Y11000D03*
X23750Y24250D03*
X28500Y28000D03*
X4000Y5000D03*
X24500Y29000D03*
X16500Y12500D03*
X35250Y9000D03*
X14500Y26000D03*
X11499Y12500D03*
X9499Y12500D03*
X32499Y11000D03*
X29500Y12500D03*
X34500Y12500D03*
X15000Y5000D03*
X18000Y5000D03*
X31500Y11000D03*
X28500Y33000D03*
X14500Y30000D03*
X10500Y29000D03*
X10500Y28000D03*
X19750Y25500D03*
X21750Y25500D03*
X5000Y36000D03*
X16999Y36000D03*
X24000Y36000D03*
X36000Y36000D03*
X30250Y33000D03*
X30250Y32000D03*
X30250Y30000D03*
X30250Y31000D03*
X36000Y30000D03*
X37999Y30000D03*
X44750Y32000D03*
X44750Y26999D03*
X44750Y21000D03*
X44750Y16000D03*
X38999Y23000D03*
X38999Y21750D03*
X38999Y20500D03*
X38999Y19250D03*
X20000Y16010D02*
X20000Y16490D01*
X26999Y16010D02*
X26999Y16490D01*
X28000Y16010D02*
X28000Y16490D01*
X26000Y16010D02*
X26000Y16490D01*
X23999Y16010D02*
X23999Y16490D01*
X23000Y16010D02*
X23000Y16490D01*
X21000Y16010D02*
X21000Y16490D01*
X21999Y16010D02*
X21999Y16490D01*
X25000Y16010D02*
X25000Y16490D01*
X28500Y24760D02*
X28500Y25240D01*
X27500Y24760D02*
X27500Y25240D01*
X26500Y24760D02*
X26500Y25240D01*
X15749Y25490D02*
X15749Y25010D01*
X20500Y30260D02*
X20500Y30740D01*
X17500Y27260D02*
X17500Y27740D01*
X19500Y30260D02*
X19500Y30740D01*
X18500Y30260D02*
X18500Y30740D01*
X18500Y27260D02*
X18500Y27740D01*
X22500Y27260D02*
X22500Y27740D01*
X22500Y30260D02*
X22500Y30740D01*
X17500Y30260D02*
X17500Y30740D01*
X16500Y30260D02*
X16500Y30740D01*
X20500Y27260D02*
X20500Y27740D01*
X21500Y27260D02*
X21500Y27740D01*
X21500Y30260D02*
X21500Y30740D01*
X19500Y27260D02*
X19500Y27740D01*
X26000Y18760D02*
X26000Y19240D01*
X29000Y18760D02*
X29000Y19240D01*
X28000Y21760D02*
X28000Y22239D01*
X23000Y18760D02*
X23000Y19240D01*
X29000Y21760D02*
X29000Y22239D01*
X20000Y21760D02*
X20000Y22239D01*
X21999Y21760D02*
X21999Y22239D01*
X31000Y18760D02*
X31000Y19240D01*
X21000Y21760D02*
X21000Y22239D01*
X26000Y21760D02*
X26000Y22239D01*
X31000Y21760D02*
X31000Y22239D01*
X32000Y21760D02*
X32000Y22239D01*
X18999Y21760D02*
X18999Y22239D01*
X25000Y21760D02*
X25000Y22239D01*
X32000Y18760D02*
X32000Y19240D01*
X26999Y21760D02*
X26999Y22239D01*
X25000Y18760D02*
X25000Y19240D01*
X30000Y21760D02*
X30000Y22239D01*
X30000Y18760D02*
X30000Y19240D01*
X21999Y18760D02*
X21999Y19240D01*
X23999Y21760D02*
X23999Y22239D01*
X20000Y18760D02*
X20000Y19240D01*
X21000Y18760D02*
X21000Y19240D01*
X23000Y21760D02*
X23000Y22239D01*
X23999Y18760D02*
X23999Y19240D01*
X28000Y18760D02*
X28000Y19240D01*
X26999Y18760D02*
X26999Y19240D01*
X38000Y24760D02*
X38000Y25240D01*
X33000Y24760D02*
X33000Y25240D01*
X35000Y27760D02*
X35000Y28240D01*
X38000Y27760D02*
X38000Y28240D01*
X34000Y27760D02*
X34000Y28240D01*
X36000Y27760D02*
X36000Y28240D01*
X35000Y24760D02*
X35000Y25240D01*
X36000Y24760D02*
X36000Y25240D01*
X37000Y24760D02*
X37000Y25240D01*
X34000Y24760D02*
X34000Y25240D01*
X33000Y27760D02*
X33000Y28240D01*
X32000Y27760D02*
X32000Y28240D01*
X37000Y27760D02*
X37000Y28240D01*
X35000Y17010D02*
X35000Y17490D01*
X36000Y14010D02*
X36000Y14490D01*
X33000Y17010D02*
X33000Y17490D01*
X34000Y17010D02*
X34000Y17490D01*
X35000Y14010D02*
X35000Y14490D01*
X33000Y14010D02*
X33000Y14490D01*
X36000Y17010D02*
X36000Y17490D01*
X38000Y17010D02*
X38000Y17490D01*
X37000Y17010D02*
X37000Y17490D01*
X38000Y14010D02*
X38000Y14490D01*
X37000Y14010D02*
X37000Y14490D01*
X31000Y17010D02*
X31000Y17490D01*
X32000Y17010D02*
X32000Y17490D01*
X34000Y14010D02*
X34000Y14490D01*
X32000Y14010D02*
X32000Y14490D01*
D15*
G01X11499Y32295D02*
X11499Y32704D01*
X12499Y32295D02*
X12499Y32704D01*
X18500Y32295D02*
X18500Y32704D01*
X13499Y32295D02*
X13499Y32704D01*
X6499Y32295D02*
X6499Y32704D01*
X19499Y32295D02*
X19499Y32704D01*
X8499Y32295D02*
X8499Y32704D01*
X17499Y32295D02*
X17499Y32704D01*
X9499Y32295D02*
X9499Y32704D01*
X7499Y32295D02*
X7499Y32704D01*
X16499Y32295D02*
X16499Y32704D01*
X10499Y32295D02*
X10499Y32704D01*
X5499Y32295D02*
X5499Y32704D01*
X14499Y32295D02*
X14499Y32704D01*
X15500Y32295D02*
X15500Y32704D01*
D16*
G01X9000Y8500D03*
X9000Y2500D03*
X8000Y8500D03*
X11000Y8500D03*
X17000Y8500D03*
X13000Y2500D03*
X5000Y2500D03*
X16000Y2500D03*
X13000Y8500D03*
X10000Y2500D03*
X14000Y8500D03*
X4000Y8500D03*
X6000Y8500D03*
X17000Y2500D03*
X18000Y8500D03*
X16000Y8500D03*
X15000Y8500D03*
X6000Y2500D03*
X14000Y2500D03*
X7000Y8500D03*
X11000Y2500D03*
X15000Y2500D03*
X18000Y2500D03*
X12000Y2500D03*
X7000Y2500D03*
X8000Y2500D03*
X10000Y8500D03*
X5000Y8500D03*
X12000Y8500D03*
X39200Y4000D02*
X38800Y4000D01*
X37199Y7000D02*
X36800Y7000D01*
X37199Y4000D02*
X36800Y4000D01*
X39200Y7000D02*
X38800Y7000D01*
X32700Y4000D02*
X32300Y4000D01*
X30700Y7000D02*
X30300Y7000D01*
X30700Y4000D02*
X30300Y4000D01*
X32700Y7000D02*
X32300Y7000D01*
X26199Y4000D02*
X25800Y4000D01*
X24200Y7000D02*
X23800Y7000D01*
X24200Y4000D02*
X23800Y4000D01*
X26199Y7000D02*
X25800Y7000D01*
X35949Y4000D02*
X35550Y4000D01*
X33949Y7000D02*
X33549Y7000D01*
X33949Y4000D02*
X33549Y4000D01*
X35949Y7000D02*
X35550Y7000D01*
X29450Y4000D02*
X29050Y4000D01*
X27450Y7000D02*
X27050Y7000D01*
X27450Y4000D02*
X27050Y4000D01*
X29450Y7000D02*
X29050Y7000D01*
D17*
G01X42250Y3850D02*
X42250Y4149D01*
X42250Y9558D02*
X42250Y9858D01*
X43234Y9558D02*
X43234Y9858D01*
X44218Y9558D02*
X44218Y9858D01*
X44218Y3850D02*
X44218Y4149D01*
D18*
G01X9999Y6250D03*
X13000Y5000D03*
X7500Y23500D03*
D19*
G01X9125Y19500D02*
X9375Y19500D01*
X9125Y20500D02*
X9375Y20500D01*
X3625Y15000D02*
X3875Y15000D01*
X3625Y16000D02*
X3875Y16000D01*
D20*
G01X1499Y32500D03*
X38250Y10749D03*
X1499Y10749D03*
X38250Y32500D03*
X45793Y6952D03*
X40675Y6952D03*
D21*
G01X45000Y37500D03*
X2000Y2000D03*
X45250Y2000D03*
X2000Y37500D03*
D22*
G01X33000Y36000D03*
X28000Y36000D03*
X13999Y36000D03*
X9000Y36000D03*
X21000Y36000D03*
X42500Y34000D03*
X42500Y29000D03*
X42500Y23500D03*
X42500Y18500D03*
X42500Y13000D03*
G36*
X24760Y9260D02*G01*
X24240Y9260D01*X24240Y8740D01*X24760Y8740D01*G37*
G36*
X22760Y11260D02*G01*
X22240Y11260D01*X22240Y10740D01*X22760Y10740D01*G37*
G36*
X2489Y27499D02*G01*
X3009Y27499D01*X3009Y28500D01*X2489Y28500D01*G37*
G36*
X7489Y27499D02*G01*
X8009Y27499D01*X8009Y28499D01*X7489Y28500D01*G37*
G36*
X4489Y28500D02*G01*
X5009Y28500D01*X5009Y29500D01*X4489Y29500D01*G37*
G36*
X12645Y5895D02*G01*
X13354Y5895D01*X13354Y6604D01*X12645Y6604D01*G37*
G36*
X16240Y10740D02*G01*
X16760Y10740D01*X16760Y11260D01*X16240Y11260D01*G37*
G36*
X28240Y30739D02*G01*
X28760Y30739D01*X28760Y31259D01*X28240Y31259D01*G37*
G36*
X10760Y25260D02*G01*
X10240Y25260D01*X10240Y24740D01*X10760Y24740D01*G37*
G36*
X31260Y9260D02*G01*
X30740Y9260D01*X30740Y8740D01*X31260Y8740D01*G37*
G36*
X10760Y27260D02*G01*
X10240Y27260D01*X10240Y26740D01*X10760Y26740D01*G37*
G36*
X17760Y11260D02*G01*
X17240Y11260D01*X17240Y10740D01*X17760Y10740D01*G37*
G36*
X24760Y12760D02*G01*
X24240Y12760D01*X24240Y12240D01*X24760Y12240D01*G37*
G36*
X28240Y31740D02*G01*
X28760Y31740D01*X28760Y32260D01*X28240Y32260D01*G37*
G36*
X4795Y32999D02*G01*
X4204Y32999D01*X4204Y32000D01*X4795Y32000D01*G37*
G36*
X21740Y2260D02*G01*
X21740Y1740D01*X22260Y1740D01*X22260Y2260D01*G37*
G36*
X14239Y30739D02*G01*
X14760Y30739D01*X14760Y31259D01*X14239Y31259D01*G37*
G36*
X22260Y8240D02*G01*
X22260Y8760D01*X21740Y8760D01*X21740Y8240D01*G37*
G36*
X28010Y9260D02*G01*
X27490Y9260D01*X27490Y8740D01*X28010Y8740D01*G37*
G36*
X10354Y5354D02*G01*
X9645Y5354D01*X9645Y4645D01*X10354Y4645D01*G37*
G36*
X37760Y9260D02*G01*
X37240Y9260D01*X37240Y8740D01*X37760Y8740D01*G37*
G36*
X28240Y29740D02*G01*
X28760Y29740D01*X28760Y30260D01*X28240Y30260D01*G37*
G36*
X15500Y18500D02*G01*
X15500Y22500D01*X11000Y22500D01*X11000Y18500D01*G37*
G36*
X17449Y18500D02*G01*
X17450Y22500D01*X15050Y22500D01*X15050Y18500D01*G37*
G36*
X9750Y21125D02*G01*
X9750Y21875D01*X8750Y21875D01*X8750Y21125D01*G37*
G36*
X7854Y26145D02*G01*
X7854Y26854D01*X7145Y26854D01*X7145Y26145D01*G37*
G36*
X7760Y11260D02*G01*
X7240Y11260D01*X7240Y10740D01*X7760Y10740D01*G37*
G36*
X20010Y24510D02*G01*
X19490Y24510D01*X19490Y23990D01*X20010Y23990D01*G37*
G36*
X24760Y28260D02*G01*
X24240Y28260D01*X24240Y27740D01*X24760Y27740D01*G37*
G36*
X7740Y4740D02*G01*
X8260Y4740D01*X8260Y5260D01*X7740Y5260D01*G37*
G36*
X28240Y28740D02*G01*
X28760Y28740D01*X28760Y29260D01*X28240Y29260D01*G37*
G36*
X12760Y12760D02*G01*
X12240Y12760D01*X12240Y12240D01*X12760Y12240D01*G37*
G36*
X34510Y9260D02*G01*
X33990Y9260D01*X33990Y8740D01*X34510Y8740D01*G37*
G36*
X10760Y26260D02*G01*
X10240Y26260D01*X10240Y25740D01*X10760Y25740D01*G37*
G36*
X36240Y10740D02*G01*
X36759Y10740D01*X36759Y11260D01*X36240Y11260D01*G37*
G36*
X33240Y12240D02*G01*
X33760Y12240D01*X33760Y12760D01*X33240Y12760D01*G37*
G36*
X38240Y12240D02*G01*
X38760Y12240D01*X38760Y12760D01*X38240Y12760D01*G37*
G36*
X27760Y11260D02*G01*
X27240Y11260D01*X27240Y10740D01*X27760Y10740D01*G37*
G36*
X19260Y16750D02*G01*
X18740Y16750D01*X18740Y15750D01*X19260Y15750D01*G37*
G36*
X10000Y13999D02*G01*
X10000Y18000D01*X5500Y18000D01*X5500Y13999D01*G37*
G36*
X11949Y13999D02*G01*
X11950Y18000D01*X9550Y18000D01*X9550Y13999D01*G37*
G36*
X4250Y16625D02*G01*
X4250Y17375D01*X3250Y17375D01*X3250Y16625D01*G37*
G36*
X5594Y25751D02*G01*
X5824Y25521D01*X5824Y24407D01*X5594Y24177D01*X5268Y24177D01*X5037Y24407D01*X5037Y25521D01*X5268Y25751D01*G37*
G36*
X4846Y23429D02*G01*
X5076Y23198D01*X5076Y22872D01*X4846Y22641D01*X3653Y22641D01*X3423Y22872D01*X3423Y23198D01*X3653Y23429D01*G37*
G36*
X3231Y25751D02*G01*
X3462Y25521D01*X3462Y24407D01*X3231Y24177D01*X2905Y24177D01*X2675Y24407D01*X2675Y25521D01*X2905Y25751D01*G37*
G36*
X25760Y25500D02*G01*
X25240Y25500D01*X25240Y24499D01*X25760Y24499D01*G37*
G36*
X17489Y24750D02*G01*
X18010Y24750D01*X18010Y25750D01*X17489Y25750D01*G37*
G36*
X16760Y28000D02*G01*
X16240Y28000D01*X16240Y27000D01*X16760Y27000D01*G37*
G36*
X24760Y33260D02*G01*
X24240Y33260D01*X24240Y32740D01*X24760Y32740D01*G37*
G36*
X10760Y30260D02*G01*
X10240Y30260D01*X10240Y29740D01*X10760Y29740D01*G37*
G36*
X14239Y28740D02*G01*
X14760Y28740D01*X14760Y29260D01*X14239Y29260D01*G37*
G36*
X14239Y27739D02*G01*
X14760Y27739D01*X14760Y28259D01*X14239Y28259D01*G37*
G36*
X4300Y2800D02*G01*
X3700Y2800D01*X3700Y2200D01*X4300Y2200D01*G37*
G36*
X19260Y19499D02*G01*
X18740Y19499D01*X18740Y18500D01*X19260Y18500D01*G37*
G36*
X32260Y25500D02*G01*
X31740Y25500D01*X31740Y24500D01*X32260Y24500D01*G37*
G36*
X5740Y35739D02*G01*
X6260Y35739D01*X6260Y36260D01*X5740Y36260D01*G37*
G36*
X17739Y35739D02*G01*
X18259Y35739D01*X18259Y36260D01*X17739Y36260D01*G37*
G36*
X24740Y35739D02*G01*
X25260Y35739D01*X25260Y36260D01*X24740Y36260D01*G37*
G36*
X36740Y35739D02*G01*
X37260Y35739D01*X37260Y36260D01*X36740Y36260D01*G37*
G36*
X33990Y32740D02*G01*
X34510Y32740D01*X34510Y33260D01*X33990Y33260D01*G37*
G36*
X33990Y31740D02*G01*
X34510Y31740D01*X34510Y32260D01*X33990Y32260D01*G37*
G36*
X33990Y29740D02*G01*
X34510Y29740D01*X34510Y30260D01*X33990Y30260D01*G37*
G36*
X33990Y30739D02*G01*
X34510Y30739D01*X34510Y31259D01*X33990Y31259D01*G37*
G36*
X44010Y32260D02*G01*
X43490Y32260D01*X43490Y31740D01*X44010Y31740D01*G37*
G36*
X44010Y27260D02*G01*
X43490Y27260D01*X43490Y26740D01*X44010Y26740D01*G37*
G36*
X44010Y21260D02*G01*
X43490Y21260D01*X43490Y20739D01*X44010Y20739D01*G37*
G36*
X44010Y16260D02*G01*
X43490Y16260D01*X43490Y15740D01*X44010Y15740D01*G37*
G36*
X35260Y23260D02*G01*
X34740Y23260D01*X34740Y22740D01*X35260Y22740D01*G37*
G36*
X35260Y22010D02*G01*
X34740Y22010D01*X34740Y21490D01*X35260Y21490D01*G37*
G36*
X35260Y20760D02*G01*
X34740Y20760D01*X34740Y20240D01*X35260Y20240D01*G37*
G36*
X35260Y19510D02*G01*
X34740Y19510D01*X34740Y18990D01*X35260Y18990D01*G37*
G36*
X31260Y14750D02*G01*
X30740Y14750D01*X30740Y13750D01*X31260Y13750D01*G37*
M02*
