%FSLAX24Y24*%
%MOIN*%
%ADD10C,0.0200*%
%ADD11C,0.0500*%
%ADD12C,0.0520*%
%ADD13C,0.0600*%
%ADD14C,0.0709*%
%ADD15C,0.0787*%
%ADD16C,0.2362*%
D10*
G01X12875Y4000D02*
X11250Y4000D01*
X10500Y3250D01*
X10500Y12000D02*
X9750Y11250D01*
X5500Y11250D01*
X10500Y5000D02*
X9940Y4440D01*
X5560Y4440D01*
X5500Y4500D01*
X6500Y13500D02*
X6198Y13198D01*
X2302Y13198D01*
X1750Y13750D01*
X10500Y24000D02*
X12625Y24000D01*
X12875Y24250D01*
X10500Y13500D02*
X9750Y14250D01*
X5500Y14250D01*
X10500Y28500D02*
X12625Y28500D01*
X12875Y28250D01*
X10500Y30750D02*
X12625Y30750D01*
X12875Y31000D01*
X6500Y6750D02*
X6199Y6449D01*
X2301Y6449D01*
X1750Y7000D01*
X5000Y34000D02*
X4439Y34561D01*
X4439Y35257D01*
X6933Y37750D01*
X9000Y37750D01*
X6500Y20250D02*
X6195Y19945D01*
X2305Y19945D01*
X1750Y20500D01*
X6500Y10500D02*
X6188Y10188D01*
X4758Y10188D01*
X4444Y10501D01*
X4444Y11194D01*
X5000Y11750D01*
X6500Y17250D02*
X6184Y16934D01*
X3316Y16934D01*
X1750Y18500D01*
X10500Y35000D02*
X12875Y35000D01*
X10500Y21750D02*
X12625Y21750D01*
X12875Y21500D01*
X6500Y24000D02*
X6194Y23694D01*
X4771Y23694D01*
X4434Y24032D01*
X4434Y24684D01*
X5000Y25250D01*
X10500Y20250D02*
X9750Y21000D01*
X5500Y21000D01*
X10500Y8250D02*
X12625Y8250D01*
X12875Y8000D01*
X10500Y27000D02*
X9750Y27750D01*
X5500Y27750D01*
X10500Y17250D02*
X9750Y18000D01*
X5500Y18000D01*
X5000Y5000D02*
X4446Y4446D01*
X4446Y3773D01*
X4969Y3250D01*
X6500Y3250D01*
X10500Y25500D02*
X9750Y24750D01*
X5500Y24750D01*
X6500Y15000D02*
X5250Y15000D01*
X5000Y14750D01*
X6500Y12000D02*
X6199Y12301D01*
X2301Y12301D01*
X1750Y11750D01*
X10500Y32250D02*
X9750Y31500D01*
X5500Y31500D01*
X10500Y10500D02*
X12625Y10500D01*
X12875Y10750D01*
X6500Y33750D02*
X6199Y33449D01*
X2301Y33449D01*
X1750Y34000D01*
X6500Y5000D02*
X5942Y5558D01*
X2308Y5558D01*
X1750Y5000D01*
X6500Y35000D02*
X6438Y35062D01*
X5062Y35062D01*
X5000Y35000D01*
X6500Y30750D02*
X6194Y30444D01*
X4771Y30444D01*
X4434Y30782D01*
X4434Y31434D01*
X5000Y32000D01*
X6500Y27000D02*
X6199Y26699D01*
X2301Y26699D01*
X1750Y27250D01*
X10500Y6750D02*
X9750Y7500D01*
X5500Y7500D01*
X6500Y25500D02*
X6198Y25802D01*
X2302Y25802D01*
X1750Y25250D01*
X6500Y32250D02*
X6198Y32552D01*
X2302Y32552D01*
X1750Y32000D01*
X6500Y18750D02*
X5250Y18750D01*
X5000Y18500D01*
X10500Y18750D02*
X11750Y17500D01*
X12875Y17500D01*
X6500Y8250D02*
X5250Y8250D01*
X5000Y8000D01*
X10500Y33750D02*
X9940Y34310D01*
X5690Y34310D01*
X5500Y34500D01*
X10500Y15000D02*
X12625Y15000D01*
X12875Y14750D01*
X32560Y4000D02*
X30935Y4000D01*
X30185Y3250D01*
X30185Y12000D02*
X29435Y11250D01*
X25185Y11250D01*
X30185Y5000D02*
X29625Y4440D01*
X25245Y4440D01*
X25185Y4500D01*
X26185Y13500D02*
X25883Y13198D01*
X21987Y13198D01*
X21435Y13750D01*
X30185Y24000D02*
X32310Y24000D01*
X32560Y24250D01*
X30185Y13500D02*
X29435Y14250D01*
X25185Y14250D01*
X30185Y28500D02*
X32310Y28500D01*
X32560Y28250D01*
X30185Y30750D02*
X32310Y30750D01*
X32560Y31000D01*
X26185Y6750D02*
X25884Y6449D01*
X21986Y6449D01*
X21435Y7000D01*
X24685Y34000D02*
X24124Y34561D01*
X24124Y35257D01*
X26618Y37750D01*
X28685Y37750D01*
X26185Y20250D02*
X25880Y19945D01*
X21990Y19945D01*
X21435Y20500D01*
X26185Y10500D02*
X25873Y10188D01*
X24443Y10188D01*
X24129Y10501D01*
X24129Y11194D01*
X24685Y11750D01*
X26185Y17250D02*
X25869Y16934D01*
X23001Y16934D01*
X21435Y18500D01*
X30185Y35000D02*
X32560Y35000D01*
X30185Y21750D02*
X32310Y21750D01*
X32560Y21500D01*
X26185Y24000D02*
X25879Y23694D01*
X24456Y23694D01*
X24119Y24032D01*
X24119Y24684D01*
X24685Y25250D01*
X30185Y20250D02*
X29435Y21000D01*
X25185Y21000D01*
X30185Y8250D02*
X32310Y8250D01*
X32560Y8000D01*
X30185Y27000D02*
X29435Y27750D01*
X25185Y27750D01*
X30185Y17250D02*
X29435Y18000D01*
X25185Y18000D01*
X24685Y5000D02*
X24131Y4446D01*
X24131Y3773D01*
X24654Y3250D01*
X26185Y3250D01*
X30185Y25500D02*
X29435Y24750D01*
X25185Y24750D01*
X26185Y15000D02*
X24935Y15000D01*
X24685Y14750D01*
X26185Y12000D02*
X25884Y12301D01*
X21987Y12301D01*
X21435Y11750D01*
X30185Y32250D02*
X29435Y31500D01*
X25185Y31500D01*
X30185Y10500D02*
X32310Y10500D01*
X32560Y10750D01*
X26185Y33750D02*
X25884Y33449D01*
X21987Y33449D01*
X21435Y34000D01*
X26185Y5000D02*
X25627Y5558D01*
X21993Y5558D01*
X21435Y5000D01*
X26185Y35000D02*
X26123Y35062D01*
X24747Y35062D01*
X24685Y35000D01*
X26185Y30750D02*
X25879Y30444D01*
X24456Y30444D01*
X24119Y30782D01*
X24119Y31434D01*
X24685Y32000D01*
X26185Y27000D02*
X25884Y26699D01*
X21987Y26699D01*
X21435Y27250D01*
X30185Y6750D02*
X29435Y7500D01*
X25185Y7500D01*
X26185Y25500D02*
X25883Y25802D01*
X21987Y25802D01*
X21435Y25250D01*
X26185Y32250D02*
X25883Y32552D01*
X21987Y32552D01*
X21435Y32000D01*
X26185Y18750D02*
X24935Y18750D01*
X24685Y18500D01*
X30185Y18750D02*
X31435Y17500D01*
X32560Y17500D01*
X26185Y8250D02*
X24935Y8250D01*
X24685Y8000D01*
X30185Y33750D02*
X29625Y34310D01*
X25375Y34310D01*
X25185Y34500D01*
X30185Y15000D02*
X32310Y15000D01*
X32560Y14750D01*
D11*
G01X5500Y34500D03*
X5000Y35000D03*
X5000Y34000D03*
X5500Y31500D03*
X5000Y32000D03*
X5000Y31000D03*
X5500Y27750D03*
X5000Y28250D03*
X5000Y27250D03*
X5500Y24750D03*
X5000Y25250D03*
X5000Y24250D03*
X5500Y21000D03*
X5000Y21500D03*
X5000Y20500D03*
X5500Y18000D03*
X5000Y18500D03*
X5000Y17500D03*
X5500Y14250D03*
X5000Y14750D03*
X5000Y13750D03*
X5500Y11250D03*
X5000Y11750D03*
X5000Y10750D03*
X5500Y7500D03*
X5000Y8000D03*
X5000Y7000D03*
X5500Y4500D03*
X5000Y5000D03*
X5000Y4000D03*
X25185Y34500D03*
X24685Y35000D03*
X24685Y34000D03*
X25185Y31500D03*
X24685Y32000D03*
X24685Y31000D03*
X25185Y27750D03*
X24685Y28250D03*
X24685Y27250D03*
X25185Y24750D03*
X24685Y25250D03*
X24685Y24250D03*
X25185Y21000D03*
X24685Y21500D03*
X24685Y20500D03*
X25185Y18000D03*
X24685Y18500D03*
X24685Y17500D03*
X25185Y14250D03*
X24685Y14750D03*
X24685Y13750D03*
X25185Y11250D03*
X24685Y11750D03*
X24685Y10750D03*
X25185Y7500D03*
X24685Y8000D03*
X24685Y7000D03*
X25185Y4500D03*
X24685Y5000D03*
X24685Y4000D03*
X15513Y33500D02*
X14862Y33500D01*
X13750Y34612D01*
X13750Y35000D01*
X18000Y34000D02*
X17500Y33500D01*
X15513Y33500D01*
X15513Y32500D02*
X16013Y32000D01*
X18000Y32000D01*
X13750Y31000D02*
X13750Y31386D01*
X14864Y32500D01*
X15513Y32500D01*
X15513Y25750D02*
X16013Y25250D01*
X18000Y25250D01*
X13750Y24250D02*
X13750Y24636D01*
X14864Y25750D01*
X15513Y25750D01*
X14625Y35000D02*
X14625Y36125D01*
X13000Y37750D01*
X13750Y8000D02*
X13750Y7614D01*
X14864Y6500D01*
X15513Y6500D01*
X16013Y7000D01*
X18000Y7000D01*
X15513Y5500D02*
X14862Y5500D01*
X13750Y4388D01*
X13750Y4000D01*
X13750Y17500D02*
X13750Y17886D01*
X14864Y19000D01*
X15513Y19000D01*
X16013Y18500D01*
X18000Y18500D01*
X13750Y10750D02*
X13750Y11136D01*
X14864Y12250D01*
X15513Y12250D01*
X16013Y11750D01*
X18000Y11750D01*
X15513Y13250D02*
X16013Y13750D01*
X18000Y13750D01*
X13750Y14750D02*
X13750Y14364D01*
X14864Y13250D01*
X15513Y13250D01*
X13750Y21500D02*
X13750Y21114D01*
X14864Y20000D01*
X15513Y20000D01*
X16013Y20500D01*
X18000Y20500D01*
X13750Y28250D02*
X13750Y27864D01*
X14864Y26750D01*
X15513Y26750D01*
X16013Y27250D01*
X18000Y27250D01*
X35198Y33500D02*
X34547Y33500D01*
X33435Y34612D01*
X33435Y35000D01*
X37685Y34000D02*
X37185Y33500D01*
X35198Y33500D01*
X35198Y32500D02*
X35698Y32000D01*
X37685Y32000D01*
X33435Y31000D02*
X33435Y31386D01*
X34549Y32500D01*
X35198Y32500D01*
X35198Y25750D02*
X35698Y25250D01*
X37685Y25250D01*
X33435Y24250D02*
X33435Y24636D01*
X34549Y25750D01*
X35198Y25750D01*
X34310Y35000D02*
X34310Y36125D01*
X32685Y37750D01*
X33435Y8000D02*
X33435Y7614D01*
X34549Y6500D01*
X35198Y6500D01*
X35698Y7000D01*
X37685Y7000D01*
X35198Y5500D02*
X34547Y5500D01*
X33435Y4388D01*
X33435Y4000D01*
X33435Y17500D02*
X33435Y17886D01*
X34549Y19000D01*
X35198Y19000D01*
X35698Y18500D01*
X37685Y18500D01*
X33435Y10750D02*
X33435Y11136D01*
X34549Y12250D01*
X35198Y12250D01*
X35698Y11750D01*
X37685Y11750D01*
X35198Y13250D02*
X35698Y13750D01*
X37685Y13750D01*
X33435Y14750D02*
X33435Y14364D01*
X34549Y13250D01*
X35198Y13250D01*
X33435Y21500D02*
X33435Y21114D01*
X34549Y20000D01*
X35198Y20000D01*
X35698Y20500D01*
X37685Y20500D01*
X33435Y28250D02*
X33435Y27864D01*
X34549Y26750D01*
X35198Y26750D01*
X35698Y27250D01*
X37685Y27250D01*
D12*
G01X10500Y33750D03*
X10500Y32250D03*
X10500Y35000D03*
X10500Y30750D03*
X10500Y27000D03*
X10500Y25500D03*
X10500Y28500D03*
X10500Y24000D03*
X10500Y21750D03*
X10500Y20250D03*
X10500Y18750D03*
X10500Y17250D03*
X10500Y15000D03*
X10500Y13500D03*
X10500Y12000D03*
X10500Y10500D03*
X10500Y8250D03*
X10500Y6750D03*
X10500Y5000D03*
X10500Y3250D03*
X7500Y2000D03*
X30185Y33750D03*
X30185Y32250D03*
X30185Y35000D03*
X30185Y30750D03*
X30185Y27000D03*
X30185Y25500D03*
X30185Y28500D03*
X30185Y24000D03*
X30185Y21750D03*
X30185Y20250D03*
X30185Y18750D03*
X30185Y17250D03*
X30185Y15000D03*
X30185Y13500D03*
X30185Y12000D03*
X30185Y10500D03*
X30185Y8250D03*
X30185Y6750D03*
X30185Y5000D03*
X30185Y3250D03*
X27185Y2000D03*
D13*
G01X14625Y35200D02*
X14625Y34800D01*
X13750Y35200D02*
X13750Y34800D01*
X14625Y31200D02*
X14625Y30800D01*
X13750Y31200D02*
X13750Y30800D01*
X14625Y28450D02*
X14625Y28050D01*
X13750Y28450D02*
X13750Y28050D01*
X14625Y24450D02*
X14625Y24050D01*
X13750Y24450D02*
X13750Y24050D01*
X14625Y21700D02*
X14625Y21300D01*
X13750Y21700D02*
X13750Y21300D01*
X14625Y17700D02*
X14625Y17300D01*
X13750Y17700D02*
X13750Y17300D01*
X14625Y14950D02*
X14625Y14550D01*
X13750Y14950D02*
X13750Y14550D01*
X14625Y10950D02*
X14625Y10550D01*
X13750Y10950D02*
X13750Y10550D01*
X14625Y8200D02*
X14625Y7800D01*
X13750Y8200D02*
X13750Y7800D01*
X14625Y4200D02*
X14625Y3800D01*
X13750Y4200D02*
X13750Y3800D01*
X34310Y35200D02*
X34310Y34800D01*
X33435Y35200D02*
X33435Y34800D01*
X34310Y31200D02*
X34310Y30800D01*
X33435Y31200D02*
X33435Y30800D01*
X34310Y28450D02*
X34310Y28050D01*
X33435Y28450D02*
X33435Y28050D01*
X34310Y24450D02*
X34310Y24050D01*
X33435Y24450D02*
X33435Y24050D01*
X34310Y21700D02*
X34310Y21300D01*
X33435Y21700D02*
X33435Y21300D01*
X34310Y17700D02*
X34310Y17300D01*
X33435Y17700D02*
X33435Y17300D01*
X34310Y14950D02*
X34310Y14550D01*
X33435Y14950D02*
X33435Y14550D01*
X34310Y10950D02*
X34310Y10550D01*
X33435Y10950D02*
X33435Y10550D01*
X34310Y8200D02*
X34310Y7800D01*
X33435Y8200D02*
X33435Y7800D01*
X34310Y4200D02*
X34310Y3800D01*
X33435Y4200D02*
X33435Y3800D01*
D14*
G01X15513Y33500D03*
X15513Y32500D03*
X15513Y26750D03*
X15513Y25750D03*
X15513Y20000D03*
X15513Y19000D03*
X15513Y13250D03*
X15513Y12250D03*
X15513Y6500D03*
X15513Y5500D03*
X35198Y33500D03*
X35198Y32500D03*
X35198Y26750D03*
X35198Y25750D03*
X35198Y20000D03*
X35198Y19000D03*
X35198Y13250D03*
X35198Y12250D03*
X35198Y6500D03*
X35198Y5500D03*
D15*
G01X18000Y32000D03*
X1750Y34000D03*
X1750Y27250D03*
X18000Y25250D03*
X1750Y20500D03*
X18000Y18500D03*
X1750Y13750D03*
X18000Y11750D03*
X1750Y7000D03*
X18000Y5000D03*
X11000Y37750D03*
X13000Y37750D03*
X37685Y32000D03*
X21435Y34000D03*
X21435Y27250D03*
X37685Y25250D03*
X21435Y20500D03*
X37685Y18500D03*
X21435Y13750D03*
X37685Y11750D03*
X21435Y7000D03*
X37685Y5000D03*
X30685Y37750D03*
X32685Y37750D03*
D16*
G01X2000Y37250D03*
X2000Y2000D03*
X17750Y2000D03*
X17750Y37250D03*
X21685Y37250D03*
X21685Y2000D03*
X37435Y2000D03*
X37435Y37250D03*
G36*
X18393Y33606D02*
X18393Y34393D01*
X17606Y34393D01*
X17606Y33606D01*
X18393Y33606D01*
G37*
G36*
X6760Y34010D02*
X6240Y34010D01*
X6240Y33490D01*
X6760Y33490D01*
X6760Y34010D01*
G37*
G36*
X6760Y32510D02*
X6240Y32510D01*
X6240Y31990D01*
X6760Y31990D01*
X6760Y32510D01*
G37*
G36*
X6760Y35260D02*
X6240Y35260D01*
X6240Y34740D01*
X6760Y34740D01*
X6760Y35260D01*
G37*
G36*
X6760Y31010D02*
X6240Y31010D01*
X6240Y30490D01*
X6760Y30490D01*
X6760Y31010D01*
G37*
G36*
X13175Y35500D02*
X12575Y35500D01*
X12575Y34500D01*
X13175Y34500D01*
X13175Y35500D01*
G37*
G36*
X11842Y33854D02*
X11133Y33854D01*
X11133Y33145D01*
X11842Y33145D01*
X11842Y33854D01*
G37*
G36*
X11842Y32854D02*
X11133Y32854D01*
X11133Y32145D01*
X11842Y32145D01*
X11842Y32854D01*
G37*
G36*
X13175Y31500D02*
X12575Y31500D01*
X12575Y30500D01*
X13175Y30500D01*
X13175Y31500D01*
G37*
G36*
X1356Y32393D02*
X1356Y31606D01*
X2143Y31606D01*
X2143Y32393D01*
X1356Y32393D01*
G37*
G36*
X1356Y25643D02*
X1356Y24856D01*
X2143Y24856D01*
X2143Y25643D01*
X1356Y25643D01*
G37*
G36*
X18393Y26856D02*
X18393Y27643D01*
X17606Y27643D01*
X17606Y26856D01*
X18393Y26856D01*
G37*
G36*
X6760Y27260D02*
X6240Y27260D01*
X6240Y26740D01*
X6760Y26740D01*
X6760Y27260D01*
G37*
G36*
X6760Y25760D02*
X6240Y25760D01*
X6240Y25240D01*
X6760Y25240D01*
X6760Y25760D01*
G37*
G36*
X6760Y28760D02*
X6240Y28760D01*
X6240Y28240D01*
X6760Y28240D01*
X6760Y28760D01*
G37*
G36*
X6760Y24260D02*
X6240Y24260D01*
X6240Y23740D01*
X6760Y23740D01*
X6760Y24260D01*
G37*
G36*
X11842Y27104D02*
X11133Y27104D01*
X11133Y26395D01*
X11842Y26395D01*
X11842Y27104D01*
G37*
G36*
X11842Y26104D02*
X11133Y26104D01*
X11133Y25395D01*
X11842Y25395D01*
X11842Y26104D01*
G37*
G36*
X13175Y28750D02*
X12575Y28750D01*
X12575Y27750D01*
X13175Y27750D01*
X13175Y28750D01*
G37*
G36*
X13175Y24750D02*
X12575Y24750D01*
X12575Y23750D01*
X13175Y23750D01*
X13175Y24750D01*
G37*
G36*
X1356Y18893D02*
X1356Y18106D01*
X2143Y18106D01*
X2143Y18893D01*
X1356Y18893D01*
G37*
G36*
X6760Y22010D02*
X6240Y22010D01*
X6240Y21490D01*
X6760Y21490D01*
X6760Y22010D01*
G37*
G36*
X6760Y20510D02*
X6240Y20510D01*
X6240Y19990D01*
X6760Y19990D01*
X6760Y20510D01*
G37*
G36*
X6760Y19010D02*
X6240Y19010D01*
X6240Y18490D01*
X6760Y18490D01*
X6760Y19010D01*
G37*
G36*
X6760Y17510D02*
X6240Y17510D01*
X6240Y16990D01*
X6760Y16990D01*
X6760Y17510D01*
G37*
G36*
X11842Y20354D02*
X11133Y20354D01*
X11133Y19645D01*
X11842Y19645D01*
X11842Y20354D01*
G37*
G36*
X11842Y19354D02*
X11133Y19354D01*
X11133Y18645D01*
X11842Y18645D01*
X11842Y19354D01*
G37*
G36*
X13175Y22000D02*
X12575Y22000D01*
X12575Y21000D01*
X13175Y21000D01*
X13175Y22000D01*
G37*
G36*
X13175Y18000D02*
X12575Y18000D01*
X12575Y17000D01*
X13175Y17000D01*
X13175Y18000D01*
G37*
G36*
X18393Y20106D02*
X18393Y20893D01*
X17606Y20893D01*
X17606Y20106D01*
X18393Y20106D01*
G37*
G36*
X1356Y12143D02*
X1356Y11356D01*
X2143Y11356D01*
X2143Y12143D01*
X1356Y12143D01*
G37*
G36*
X6760Y15260D02*
X6240Y15260D01*
X6240Y14740D01*
X6760Y14740D01*
X6760Y15260D01*
G37*
G36*
X6760Y13760D02*
X6240Y13760D01*
X6240Y13240D01*
X6760Y13240D01*
X6760Y13760D01*
G37*
G36*
X6760Y12260D02*
X6240Y12260D01*
X6240Y11740D01*
X6760Y11740D01*
X6760Y12260D01*
G37*
G36*
X6760Y10760D02*
X6240Y10760D01*
X6240Y10240D01*
X6760Y10240D01*
X6760Y10760D01*
G37*
G36*
X13175Y15250D02*
X12575Y15250D01*
X12575Y14250D01*
X13175Y14250D01*
X13175Y15250D01*
G37*
G36*
X11842Y13604D02*
X11133Y13604D01*
X11133Y12895D01*
X11842Y12895D01*
X11842Y13604D01*
G37*
G36*
X11842Y12604D02*
X11133Y12604D01*
X11133Y11895D01*
X11842Y11895D01*
X11842Y12604D01*
G37*
G36*
X13175Y11250D02*
X12575Y11250D01*
X12575Y10250D01*
X13175Y10250D01*
X13175Y11250D01*
G37*
G36*
X18393Y13356D02*
X18393Y14143D01*
X17606Y14143D01*
X17606Y13356D01*
X18393Y13356D01*
G37*
G36*
X1356Y5393D02*
X1356Y4606D01*
X2143Y4606D01*
X2143Y5393D01*
X1356Y5393D01*
G37*
G36*
X6760Y8510D02*
X6240Y8510D01*
X6240Y7990D01*
X6760Y7990D01*
X6760Y8510D01*
G37*
G36*
X6760Y7010D02*
X6240Y7010D01*
X6240Y6490D01*
X6760Y6490D01*
X6760Y7010D01*
G37*
G36*
X6760Y5260D02*
X6240Y5260D01*
X6240Y4740D01*
X6760Y4740D01*
X6760Y5260D01*
G37*
G36*
X6760Y3510D02*
X6240Y3510D01*
X6240Y2990D01*
X6760Y2990D01*
X6760Y3510D01*
G37*
G36*
X13175Y8500D02*
X12575Y8500D01*
X12575Y7500D01*
X13175Y7500D01*
X13175Y8500D01*
G37*
G36*
X11842Y6854D02*
X11133Y6854D01*
X11133Y6145D01*
X11842Y6145D01*
X11842Y6854D01*
G37*
G36*
X11842Y5854D02*
X11133Y5854D01*
X11133Y5145D01*
X11842Y5145D01*
X11842Y5854D01*
G37*
G36*
X13175Y4500D02*
X12575Y4500D01*
X12575Y3500D01*
X13175Y3500D01*
X13175Y4500D01*
G37*
G36*
X18393Y6606D02*
X18393Y7393D01*
X17606Y7393D01*
X17606Y6606D01*
X18393Y6606D01*
G37*
G36*
X11240Y1740D02*
X11760Y1740D01*
X11760Y2260D01*
X11240Y2260D01*
X11240Y1740D01*
G37*
G36*
X9393Y38143D02*
X8606Y38143D01*
X8606Y37356D01*
X9393Y37356D01*
X9393Y38143D01*
G37*
G36*
X38078Y33606D02*
X38078Y34393D01*
X37291Y34393D01*
X37291Y33606D01*
X38078Y33606D01*
G37*
G36*
X26445Y34010D02*
X25925Y34010D01*
X25925Y33490D01*
X26445Y33490D01*
X26445Y34010D01*
G37*
G36*
X26445Y32510D02*
X25925Y32510D01*
X25925Y31990D01*
X26445Y31990D01*
X26445Y32510D01*
G37*
G36*
X26445Y35260D02*
X25925Y35260D01*
X25925Y34740D01*
X26445Y34740D01*
X26445Y35260D01*
G37*
G36*
X26445Y31010D02*
X25925Y31010D01*
X25925Y30490D01*
X26445Y30490D01*
X26445Y31010D01*
G37*
G36*
X32860Y35500D02*
X32260Y35500D01*
X32260Y34500D01*
X32860Y34500D01*
X32860Y35500D01*
G37*
G36*
X31527Y33854D02*
X30818Y33854D01*
X30818Y33145D01*
X31527Y33145D01*
X31527Y33854D01*
G37*
G36*
X31527Y32854D02*
X30818Y32854D01*
X30818Y32145D01*
X31527Y32145D01*
X31527Y32854D01*
G37*
G36*
X32860Y31500D02*
X32260Y31500D01*
X32260Y30500D01*
X32860Y30500D01*
X32860Y31500D01*
G37*
G36*
X21041Y32393D02*
X21041Y31606D01*
X21828Y31606D01*
X21828Y32393D01*
X21041Y32393D01*
G37*
G36*
X21041Y25643D02*
X21041Y24856D01*
X21828Y24856D01*
X21828Y25643D01*
X21041Y25643D01*
G37*
G36*
X38078Y26856D02*
X38078Y27643D01*
X37291Y27643D01*
X37291Y26856D01*
X38078Y26856D01*
G37*
G36*
X26445Y27260D02*
X25925Y27260D01*
X25925Y26740D01*
X26445Y26740D01*
X26445Y27260D01*
G37*
G36*
X26445Y25760D02*
X25925Y25760D01*
X25925Y25240D01*
X26445Y25240D01*
X26445Y25760D01*
G37*
G36*
X26445Y28760D02*
X25925Y28760D01*
X25925Y28240D01*
X26445Y28240D01*
X26445Y28760D01*
G37*
G36*
X26445Y24260D02*
X25925Y24260D01*
X25925Y23740D01*
X26445Y23740D01*
X26445Y24260D01*
G37*
G36*
X31527Y27104D02*
X30818Y27104D01*
X30818Y26395D01*
X31527Y26395D01*
X31527Y27104D01*
G37*
G36*
X31527Y26104D02*
X30818Y26104D01*
X30818Y25395D01*
X31527Y25395D01*
X31527Y26104D01*
G37*
G36*
X32860Y28750D02*
X32260Y28750D01*
X32260Y27750D01*
X32860Y27750D01*
X32860Y28750D01*
G37*
G36*
X32860Y24750D02*
X32260Y24750D01*
X32260Y23750D01*
X32860Y23750D01*
X32860Y24750D01*
G37*
G36*
X21041Y18893D02*
X21041Y18106D01*
X21828Y18106D01*
X21828Y18893D01*
X21041Y18893D01*
G37*
G36*
X26445Y22010D02*
X25925Y22010D01*
X25925Y21490D01*
X26445Y21490D01*
X26445Y22010D01*
G37*
G36*
X26445Y20510D02*
X25925Y20510D01*
X25925Y19990D01*
X26445Y19990D01*
X26445Y20510D01*
G37*
G36*
X26445Y19010D02*
X25925Y19010D01*
X25925Y18490D01*
X26445Y18490D01*
X26445Y19010D01*
G37*
G36*
X26445Y17510D02*
X25925Y17510D01*
X25925Y16990D01*
X26445Y16990D01*
X26445Y17510D01*
G37*
G36*
X31527Y20354D02*
X30818Y20354D01*
X30818Y19645D01*
X31527Y19645D01*
X31527Y20354D01*
G37*
G36*
X31527Y19354D02*
X30818Y19354D01*
X30818Y18645D01*
X31527Y18645D01*
X31527Y19354D01*
G37*
G36*
X32860Y22000D02*
X32260Y22000D01*
X32260Y21000D01*
X32860Y21000D01*
X32860Y22000D01*
G37*
G36*
X32860Y18000D02*
X32260Y18000D01*
X32260Y17000D01*
X32860Y17000D01*
X32860Y18000D01*
G37*
G36*
X38078Y20106D02*
X38078Y20893D01*
X37291Y20893D01*
X37291Y20106D01*
X38078Y20106D01*
G37*
G36*
X21041Y12143D02*
X21041Y11356D01*
X21828Y11356D01*
X21828Y12143D01*
X21041Y12143D01*
G37*
G36*
X26445Y15260D02*
X25925Y15260D01*
X25925Y14740D01*
X26445Y14740D01*
X26445Y15260D01*
G37*
G36*
X26445Y13760D02*
X25925Y13760D01*
X25925Y13240D01*
X26445Y13240D01*
X26445Y13760D01*
G37*
G36*
X26445Y12260D02*
X25925Y12260D01*
X25925Y11740D01*
X26445Y11740D01*
X26445Y12260D01*
G37*
G36*
X26445Y10760D02*
X25925Y10760D01*
X25925Y10240D01*
X26445Y10240D01*
X26445Y10760D01*
G37*
G36*
X32860Y15250D02*
X32260Y15250D01*
X32260Y14250D01*
X32860Y14250D01*
X32860Y15250D01*
G37*
G36*
X31527Y13604D02*
X30818Y13604D01*
X30818Y12895D01*
X31527Y12895D01*
X31527Y13604D01*
G37*
G36*
X31527Y12604D02*
X30818Y12604D01*
X30818Y11895D01*
X31527Y11895D01*
X31527Y12604D01*
G37*
G36*
X32860Y11250D02*
X32260Y11250D01*
X32260Y10250D01*
X32860Y10250D01*
X32860Y11250D01*
G37*
G36*
X38078Y13356D02*
X38078Y14143D01*
X37291Y14143D01*
X37291Y13356D01*
X38078Y13356D01*
G37*
G36*
X21041Y5393D02*
X21041Y4606D01*
X21828Y4606D01*
X21828Y5393D01*
X21041Y5393D01*
G37*
G36*
X26445Y8510D02*
X25925Y8510D01*
X25925Y7990D01*
X26445Y7990D01*
X26445Y8510D01*
G37*
G36*
X26445Y7010D02*
X25925Y7010D01*
X25925Y6490D01*
X26445Y6490D01*
X26445Y7010D01*
G37*
G36*
X26445Y5260D02*
X25925Y5260D01*
X25925Y4740D01*
X26445Y4740D01*
X26445Y5260D01*
G37*
G36*
X26445Y3510D02*
X25925Y3510D01*
X25925Y2990D01*
X26445Y2990D01*
X26445Y3510D01*
G37*
G36*
X32860Y8500D02*
X32260Y8500D01*
X32260Y7500D01*
X32860Y7500D01*
X32860Y8500D01*
G37*
G36*
X31527Y6854D02*
X30818Y6854D01*
X30818Y6145D01*
X31527Y6145D01*
X31527Y6854D01*
G37*
G36*
X31527Y5854D02*
X30818Y5854D01*
X30818Y5145D01*
X31527Y5145D01*
X31527Y5854D01*
G37*
G36*
X32860Y4500D02*
X32260Y4500D01*
X32260Y3500D01*
X32860Y3500D01*
X32860Y4500D01*
G37*
G36*
X38078Y6606D02*
X38078Y7393D01*
X37291Y7393D01*
X37291Y6606D01*
X38078Y6606D01*
G37*
G36*
X30925Y1740D02*
X31445Y1740D01*
X31445Y2260D01*
X30925Y2260D01*
X30925Y1740D01*
G37*
G36*
X29078Y38143D02*
X28291Y38143D01*
X28291Y37356D01*
X29078Y37356D01*
X29078Y38143D01*
G37*
M02*
