%FSLAX24Y24*%
%MOIN*%
%ADD10C,0.0079*%
%ADD11C,0.0394*%
D10*
G01X10766Y15901D02*
X10687Y15821D01*
X10528Y15821D01*
X10448Y15901D01*
X10448Y15980D01*
X10528Y16060D01*
X10687Y16060D01*
X10528Y16298D02*
X10448Y16218D01*
X10687Y16298D02*
X10528Y16298D01*
X10766Y16218D02*
X10687Y16298D01*
X10766Y16139D02*
X10766Y16218D01*
X10687Y16060D02*
X10766Y16139D01*
X10290Y15980D02*
X10052Y15980D01*
X10052Y16060D01*
X10131Y16139D01*
X10210Y16139D01*
X10290Y16060D01*
X10290Y15901D01*
X10210Y15821D01*
X10052Y15821D01*
X9893Y15663D02*
X9893Y16139D01*
X9893Y16020D02*
X9774Y16139D01*
X9655Y16139D01*
X9575Y16060D01*
X9575Y15901D01*
X9655Y15821D01*
X9774Y15821D01*
X9893Y15940D01*
X9417Y16139D02*
X9179Y16139D01*
X9337Y16298D02*
X9337Y15901D01*
X9258Y15821D01*
X9179Y15821D01*
X9020Y15980D02*
X8782Y15980D01*
X8782Y16060D01*
X8861Y16139D01*
X8940Y16139D01*
X9020Y16060D01*
X9020Y15901D01*
X8940Y15821D01*
X8782Y15821D01*
X8623Y15821D02*
X8623Y16139D01*
X8623Y16060D02*
X8544Y16139D01*
X8464Y16060D01*
X8464Y15821D01*
X8464Y16060D02*
X8385Y16139D01*
X8306Y16060D01*
X8306Y15821D01*
X8147Y15821D02*
X8147Y16337D01*
X8147Y16139D02*
X7988Y16139D01*
X7909Y16060D01*
X7909Y15901D01*
X7988Y15821D01*
X8147Y15821D01*
X7750Y15821D02*
X7750Y16139D01*
X7750Y16060D02*
X7671Y16139D01*
X7591Y16139D01*
X7512Y16060D01*
X7353Y15980D02*
X7115Y15980D01*
X7115Y16060D01*
X7194Y16139D01*
X7274Y16139D01*
X7353Y16060D01*
X7353Y15901D01*
X7274Y15821D01*
X7115Y15821D01*
X6480Y16139D02*
X6480Y16218D01*
X6401Y16298D01*
X6242Y16298D01*
X6163Y16218D01*
X6163Y16139D01*
X6480Y15821D01*
X6163Y15821D01*
X5925Y15821D02*
X6004Y15980D01*
X6004Y16139D01*
X5925Y16298D01*
X5766Y16298D01*
X5687Y16139D01*
X5687Y15980D01*
X5766Y15821D01*
X5925Y15821D01*
X5528Y16139D02*
X5528Y16218D01*
X5448Y16298D01*
X5290Y16298D01*
X5210Y16218D01*
X5210Y16139D01*
X5528Y15821D01*
X5210Y15821D01*
X4893Y15821D02*
X4893Y16298D01*
X5052Y16139D01*
X10766Y22762D02*
X10766Y23238D01*
X10528Y23238D01*
X10448Y23159D01*
X10448Y23079D01*
X10528Y23000D01*
X10766Y23000D01*
X10290Y22762D02*
X10290Y23079D01*
X10290Y23238D02*
X10290Y23238D01*
X10131Y22921D02*
X9893Y22921D01*
X9893Y23000D01*
X9972Y23079D01*
X10052Y23079D01*
X10131Y23000D01*
X10131Y22841D01*
X10052Y22762D01*
X9893Y22762D01*
X9734Y22762D02*
X9734Y23079D01*
X9734Y23000D02*
X9655Y23079D01*
X9575Y23079D01*
X9496Y23000D01*
X9337Y22762D02*
X9337Y23079D01*
X9337Y23000D02*
X9258Y23079D01*
X9179Y23079D01*
X9099Y23000D01*
X8940Y22921D02*
X8702Y22921D01*
X8702Y23000D01*
X8782Y23079D01*
X8861Y23079D01*
X8940Y23000D01*
X8940Y22841D01*
X8861Y22762D01*
X8702Y22762D01*
X8067Y22762D02*
X8067Y23238D01*
X7909Y23000D01*
X7750Y23238D01*
X7750Y22762D01*
X7591Y22841D02*
X7591Y23159D01*
X7512Y23238D01*
X7353Y23238D01*
X7274Y23159D01*
X7274Y22841D01*
X7353Y22762D01*
X7512Y22762D01*
X7591Y22841D01*
X7115Y23238D02*
X7115Y22762D01*
X6798Y22762D01*
X6639Y22762D02*
X6639Y23238D01*
X6480Y22762D02*
X6480Y23238D01*
X6163Y22762D01*
X6163Y23238D01*
X6004Y22762D02*
X6004Y23159D01*
X5925Y23238D01*
X5766Y23238D01*
X5687Y23159D01*
X5687Y22762D01*
X6004Y23000D02*
X5687Y23000D01*
X5528Y22762D02*
X5528Y23238D01*
X5290Y23238D01*
X5210Y23159D01*
X5210Y23079D01*
X5290Y23000D01*
X5528Y23000D01*
X5210Y22762D01*
X5052Y22841D02*
X5052Y23159D01*
X4972Y23238D01*
X4813Y23238D01*
X4734Y23159D01*
X4734Y22841D01*
X4813Y22762D01*
X4972Y22762D01*
X5052Y22841D01*
X30451Y15901D02*
X30372Y15821D01*
X30213Y15821D01*
X30133Y15901D01*
X30133Y15980D01*
X30213Y16060D01*
X30372Y16060D01*
X30213Y16298D02*
X30133Y16218D01*
X30372Y16298D02*
X30213Y16298D01*
X30451Y16218D02*
X30372Y16298D01*
X30451Y16139D02*
X30451Y16218D01*
X30372Y16060D02*
X30451Y16139D01*
X29975Y15980D02*
X29737Y15980D01*
X29737Y16060D01*
X29816Y16139D01*
X29895Y16139D01*
X29975Y16060D01*
X29975Y15901D01*
X29895Y15821D01*
X29737Y15821D01*
X29578Y15663D02*
X29578Y16139D01*
X29578Y16020D02*
X29459Y16139D01*
X29340Y16139D01*
X29260Y16060D01*
X29260Y15901D01*
X29340Y15821D01*
X29459Y15821D01*
X29578Y15940D01*
X29102Y16139D02*
X28864Y16139D01*
X29022Y16298D02*
X29022Y15901D01*
X28943Y15821D01*
X28864Y15821D01*
X28705Y15980D02*
X28467Y15980D01*
X28467Y16060D01*
X28546Y16139D01*
X28626Y16139D01*
X28705Y16060D01*
X28705Y15901D01*
X28626Y15821D01*
X28467Y15821D01*
X28308Y15821D02*
X28308Y16139D01*
X28308Y16060D02*
X28229Y16139D01*
X28149Y16060D01*
X28149Y15821D01*
X28149Y16060D02*
X28070Y16139D01*
X27991Y16060D01*
X27991Y15821D01*
X27832Y15821D02*
X27832Y16337D01*
X27832Y16139D02*
X27673Y16139D01*
X27594Y16060D01*
X27594Y15901D01*
X27673Y15821D01*
X27832Y15821D01*
X27435Y15821D02*
X27435Y16139D01*
X27435Y16060D02*
X27356Y16139D01*
X27276Y16139D01*
X27197Y16060D01*
X27038Y15980D02*
X26800Y15980D01*
X26800Y16060D01*
X26879Y16139D01*
X26959Y16139D01*
X27038Y16060D01*
X27038Y15901D01*
X26959Y15821D01*
X26800Y15821D01*
X26165Y16139D02*
X26165Y16218D01*
X26086Y16298D01*
X25927Y16298D01*
X25848Y16218D01*
X25848Y16139D01*
X26165Y15821D01*
X25848Y15821D01*
X25610Y15821D02*
X25689Y15980D01*
X25689Y16139D01*
X25610Y16298D01*
X25451Y16298D01*
X25372Y16139D01*
X25372Y15980D01*
X25451Y15821D01*
X25610Y15821D01*
X25213Y16139D02*
X25213Y16218D01*
X25133Y16298D01*
X24975Y16298D01*
X24895Y16218D01*
X24895Y16139D01*
X25213Y15821D01*
X24895Y15821D01*
X24578Y15821D02*
X24578Y16298D01*
X24737Y16139D01*
X30451Y22762D02*
X30451Y23238D01*
X30213Y23238D01*
X30133Y23159D01*
X30133Y23079D01*
X30213Y23000D01*
X30451Y23000D01*
X29975Y22762D02*
X29975Y23079D01*
X29975Y23238D02*
X29975Y23238D01*
X29816Y22921D02*
X29578Y22921D01*
X29578Y23000D01*
X29657Y23079D01*
X29737Y23079D01*
X29816Y23000D01*
X29816Y22841D01*
X29737Y22762D01*
X29578Y22762D01*
X29419Y22762D02*
X29419Y23079D01*
X29419Y23000D02*
X29340Y23079D01*
X29260Y23079D01*
X29181Y23000D01*
X29022Y22762D02*
X29022Y23079D01*
X29022Y23000D02*
X28943Y23079D01*
X28864Y23079D01*
X28784Y23000D01*
X28626Y22921D02*
X28387Y22921D01*
X28387Y23000D01*
X28467Y23079D01*
X28546Y23079D01*
X28626Y23000D01*
X28626Y22841D01*
X28546Y22762D01*
X28387Y22762D01*
X27752Y22762D02*
X27752Y23238D01*
X27594Y23000D01*
X27435Y23238D01*
X27435Y22762D01*
X27276Y22841D02*
X27276Y23159D01*
X27197Y23238D01*
X27038Y23238D01*
X26959Y23159D01*
X26959Y22841D01*
X27038Y22762D01*
X27197Y22762D01*
X27276Y22841D01*
X26800Y23238D02*
X26800Y22762D01*
X26483Y22762D01*
X26324Y22762D02*
X26324Y23238D01*
X26165Y22762D02*
X26165Y23238D01*
X25848Y22762D01*
X25848Y23238D01*
X25689Y22762D02*
X25689Y23159D01*
X25610Y23238D01*
X25451Y23238D01*
X25372Y23159D01*
X25372Y22762D01*
X25689Y23000D02*
X25372Y23000D01*
X25213Y22762D02*
X25213Y23238D01*
X24975Y23238D01*
X24895Y23159D01*
X24895Y23079D01*
X24975Y23000D01*
X25213Y23000D01*
X24895Y22762D01*
X24737Y22841D02*
X24737Y23159D01*
X24657Y23238D01*
X24499Y23238D01*
X24419Y23159D01*
X24419Y22841D01*
X24499Y22762D01*
X24657Y22762D01*
X24737Y22841D01*
D11*
G01X197Y197D02*
X197Y39173D01*
X39173Y39173D01*
X39173Y197D01*
X197Y197D01*
M02*
