M48
INCH
T1C0.0250
T2C0.0320
T3C0.0394
T4C0.0433
T5C0.0512
T6C0.1181
%
G05
M72
T1
X0.5500Y3.4500
X0.5000Y3.5000
X0.5000Y3.4000
X0.5500Y3.1500
X0.5000Y3.2000
X0.5000Y3.1000
X0.5500Y2.7750
X0.5000Y2.8250
X0.5000Y2.7250
X0.5500Y2.4750
X0.5000Y2.5250
X0.5000Y2.4250
X0.5500Y2.1000
X0.5000Y2.1500
X0.5000Y2.0500
X0.5500Y1.8000
X0.5000Y1.8500
X0.5000Y1.7500
X0.5500Y1.4250
X0.5000Y1.4750
X0.5000Y1.3750
X0.5500Y1.1250
X0.5000Y1.1750
X0.5000Y1.0750
X0.5500Y0.7500
X0.5000Y0.8000
X0.5000Y0.7000
X0.5500Y0.4500
X0.5000Y0.5000
X0.5000Y0.4000
X2.5185Y3.4500
X2.4685Y3.5000
X2.4685Y3.4000
X2.5185Y3.1500
X2.4685Y3.2000
X2.4685Y3.1000
X2.5185Y2.7750
X2.4685Y2.8250
X2.4685Y2.7250
X2.5185Y2.4750
X2.4685Y2.5250
X2.4685Y2.4250
X2.5185Y2.1000
X2.4685Y2.1500
X2.4685Y2.0500
X2.5185Y1.8000
X2.4685Y1.8500
X2.4685Y1.7500
X2.5185Y1.4250
X2.4685Y1.4750
X2.4685Y1.3750
X2.5185Y1.1250
X2.4685Y1.1750
X2.4685Y1.0750
X2.5185Y0.7500
X2.4685Y0.8000
X2.4685Y0.7000
X2.5185Y0.4500
X2.4685Y0.5000
X2.4685Y0.4000
T2
X0.6500Y3.3750
X1.0500Y3.3750
X0.6500Y3.2250
X1.0500Y3.2250
X0.6500Y3.5000
X1.0500Y3.5000
X0.6500Y3.0750
X1.0500Y3.0750
X0.6500Y2.7000
X1.0500Y2.7000
X0.6500Y2.5500
X1.0500Y2.5500
X0.6500Y2.8500
X1.0500Y2.8500
X0.6500Y2.4000
X1.0500Y2.4000
X0.6500Y2.1750
X1.0500Y2.1750
X0.6500Y2.0250
X1.0500Y2.0250
X0.6500Y1.8750
X1.0500Y1.8750
X0.6500Y1.7250
X1.0500Y1.7250
X0.6500Y1.5000
X1.0500Y1.5000
X0.6500Y1.3500
X1.0500Y1.3500
X0.6500Y1.2000
X1.0500Y1.2000
X0.6500Y1.0500
X1.0500Y1.0500
X0.6500Y0.8250
X1.0500Y0.8250
X0.6500Y0.6750
X1.0500Y0.6750
X0.6500Y0.5000
X1.0500Y0.5000
X0.6500Y0.3250
X1.0500Y0.3250
X1.1500Y0.2000
X0.7500Y0.2000
X2.6185Y3.3750
X3.0185Y3.3750
X2.6185Y3.2250
X3.0185Y3.2250
X2.6185Y3.5000
X3.0185Y3.5000
X2.6185Y3.0750
X3.0185Y3.0750
X2.6185Y2.7000
X3.0185Y2.7000
X2.6185Y2.5500
X3.0185Y2.5500
X2.6185Y2.8500
X3.0185Y2.8500
X2.6185Y2.4000
X3.0185Y2.4000
X2.6185Y2.1750
X3.0185Y2.1750
X2.6185Y2.0250
X3.0185Y2.0250
X2.6185Y1.8750
X3.0185Y1.8750
X2.6185Y1.7250
X3.0185Y1.7250
X2.6185Y1.5000
X3.0185Y1.5000
X2.6185Y1.3500
X3.0185Y1.3500
X2.6185Y1.2000
X3.0185Y1.2000
X2.6185Y1.0500
X3.0185Y1.0500
X2.6185Y0.8250
X3.0185Y0.8250
X2.6185Y0.6750
X3.0185Y0.6750
X2.6185Y0.5000
X3.0185Y0.5000
X2.6185Y0.3250
X3.0185Y0.3250
X3.1185Y0.2000
X2.7185Y0.2000
T3
X1.4625Y3.5000
X1.3750Y3.5000
X1.2875Y3.5000
X1.4625Y3.1000
X1.3750Y3.1000
X1.2875Y3.1000
X1.4625Y2.8250
X1.3750Y2.8250
X1.2875Y2.8250
X1.4625Y2.4250
X1.3750Y2.4250
X1.2875Y2.4250
X1.4625Y2.1500
X1.3750Y2.1500
X1.2875Y2.1500
X1.4625Y1.7500
X1.3750Y1.7500
X1.2875Y1.7500
X1.4625Y1.4750
X1.3750Y1.4750
X1.2875Y1.4750
X1.4625Y1.0750
X1.3750Y1.0750
X1.2875Y1.0750
X1.4625Y0.8000
X1.3750Y0.8000
X1.2875Y0.8000
X1.4625Y0.4000
X1.3750Y0.4000
X1.2875Y0.4000
X3.4310Y3.5000
X3.3435Y3.5000
X3.2560Y3.5000
X3.4310Y3.1000
X3.3435Y3.1000
X3.2560Y3.1000
X3.4310Y2.8250
X3.3435Y2.8250
X3.2560Y2.8250
X3.4310Y2.4250
X3.3435Y2.4250
X3.2560Y2.4250
X3.4310Y2.1500
X3.3435Y2.1500
X3.2560Y2.1500
X3.4310Y1.7500
X3.3435Y1.7500
X3.2560Y1.7500
X3.4310Y1.4750
X3.3435Y1.4750
X3.2560Y1.4750
X3.4310Y1.0750
X3.3435Y1.0750
X3.2560Y1.0750
X3.4310Y0.8000
X3.3435Y0.8000
X3.2560Y0.8000
X3.4310Y0.4000
X3.3435Y0.4000
X3.2560Y0.4000
T4
X1.1488Y3.3500
X1.5513Y3.3500
X1.1488Y3.2500
X1.5513Y3.2500
X1.1488Y2.6750
X1.5513Y2.6750
X1.1488Y2.5750
X1.5513Y2.5750
X1.1488Y2.0000
X1.5513Y2.0000
X1.1488Y1.9000
X1.5513Y1.9000
X1.1488Y1.3250
X1.5513Y1.3250
X1.1488Y1.2250
X1.5513Y1.2250
X1.1488Y0.6500
X1.5513Y0.6500
X1.1488Y0.5500
X1.5513Y0.5500
X3.1173Y3.3500
X3.5198Y3.3500
X3.1173Y3.2500
X3.5198Y3.2500
X3.1173Y2.6750
X3.5198Y2.6750
X3.1173Y2.5750
X3.5198Y2.5750
X3.1173Y2.0000
X3.5198Y2.0000
X3.1173Y1.9000
X3.5198Y1.9000
X3.1173Y1.3250
X3.5198Y1.3250
X3.1173Y1.2250
X3.5198Y1.2250
X3.1173Y0.6500
X3.5198Y0.6500
X3.1173Y0.5500
X3.5198Y0.5500
T5
X1.8000Y3.2000
X1.8000Y3.4000
X0.1750Y3.4000
X0.1750Y3.2000
X0.1750Y2.7250
X0.1750Y2.5250
X1.8000Y2.5250
X1.8000Y2.7250
X0.1750Y2.0500
X0.1750Y1.8500
X1.8000Y1.8500
X1.8000Y2.0500
X0.1750Y1.3750
X0.1750Y1.1750
X1.8000Y1.1750
X1.8000Y1.3750
X0.1750Y0.7000
X0.1750Y0.5000
X1.8000Y0.5000
X1.8000Y0.7000
X1.1000Y3.7750
X1.3000Y3.7750
X0.9000Y3.7750
X3.7685Y3.2000
X3.7685Y3.4000
X2.1435Y3.4000
X2.1435Y3.2000
X2.1435Y2.7250
X2.1435Y2.5250
X3.7685Y2.5250
X3.7685Y2.7250
X2.1435Y2.0500
X2.1435Y1.8500
X3.7685Y1.8500
X3.7685Y2.0500
X2.1435Y1.3750
X2.1435Y1.1750
X3.7685Y1.1750
X3.7685Y1.3750
X2.1435Y0.7000
X2.1435Y0.5000
X3.7685Y0.5000
X3.7685Y0.7000
X3.0685Y3.7750
X3.2685Y3.7750
X2.8685Y3.7750
T6
X0.2000Y3.7250
X0.2000Y0.2000
X1.7750Y0.2000
X1.7750Y3.7250
X2.1685Y3.7250
X2.1685Y0.2000
X3.7435Y0.2000
X3.7435Y3.7250
T0
M30
