M48
INCH
T1C0.0250
T2C0.0320
T3C0.0394
T4C0.0433
T5C0.1181
T6C0.1575
%
G05
M72
T1
X1.8938Y2.5500
X0.0938Y2.6000
X1.9938Y0.9000
X1.9938Y3.2500
X0.1938Y2.7000
X1.8938Y2.0000
X1.9938Y1.9000
X1.9938Y2.7500
X1.9938Y2.8500
X1.8938Y1.4000
X1.9938Y2.6500
X1.8938Y1.1000
X0.1938Y1.5000
X0.1938Y1.4000
X0.1938Y1.8000
X1.9938Y2.2000
X0.0938Y3.1000
X0.1938Y0.8000
X0.0938Y2.5000
X0.0938Y1.6000
X0.0938Y3.0000
X0.0938Y2.2000
X0.1938Y1.7000
X0.0938Y2.4000
X1.8938Y3.3500
X0.1938Y2.5000
X0.0938Y1.0000
X1.9938Y2.1000
X0.0938Y1.2000
X1.9938Y3.4500
X1.8938Y1.5000
X0.0938Y1.5000
X1.9938Y0.8000
X0.1938Y2.8000
X0.1938Y1.2000
X1.9938Y1.0000
X0.0938Y2.0000
X1.9938Y1.1000
X1.8938Y1.9000
X0.0938Y2.1000
X0.0938Y1.3000
X1.8938Y2.7500
X1.8938Y0.9000
X0.1938Y1.1000
X0.1938Y2.1000
X0.1938Y2.6000
X1.8938Y1.7000
X0.1938Y3.1000
X1.8938Y1.6000
X0.1938Y2.0000
X1.9938Y2.9500
X0.0938Y0.8000
X1.8938Y1.0000
X0.0938Y0.9000
X1.9938Y3.1500
X1.9938Y2.4000
X1.8938Y3.2500
X1.9938Y1.4000
X1.8938Y2.1000
X0.0938Y1.7000
X1.8938Y2.2000
X1.8938Y1.2000
X0.1938Y2.2000
X0.0938Y2.8000
X1.9938Y2.0000
X0.0938Y1.8000
X1.9938Y3.3500
X1.9938Y1.6000
X1.9938Y1.3000
X1.8938Y1.8000
X0.1938Y2.4000
X0.0938Y2.7000
X0.1938Y1.9000
X1.9938Y2.3000
X0.1938Y3.0000
X1.8938Y2.8500
X1.9938Y3.0500
X1.8938Y3.0500
X0.0938Y1.1000
X0.1938Y0.9000
X1.9938Y2.5500
X1.8938Y0.8000
X1.9938Y1.2000
X1.8938Y2.9500
X1.9938Y1.5000
X1.9938Y1.7000
X1.9938Y1.8000
X1.8938Y3.1500
X1.8938Y2.3000
X0.1938Y1.6000
X0.1938Y1.0000
X0.0938Y2.9000
X0.0938Y1.4000
X1.8938Y1.3000
X1.8938Y3.4500
X0.1938Y2.9000
X0.1938Y1.3000
X0.0938Y1.9000
X1.8938Y2.6500
X1.8938Y2.4000
T2
X1.0938Y0.6000
X1.1938Y0.6000
X1.2938Y0.3000
X0.9938Y0.6000
X0.9938Y0.3000
X1.2938Y0.6000
X1.1938Y0.3000
X1.0938Y0.3000
X1.4438Y0.4000
X1.4438Y0.1000
X1.5438Y0.4000
X1.5438Y0.1000
X1.1938Y0.1500
X0.9938Y0.1500
X0.9438Y0.7500
X1.1438Y0.7500
X1.6688Y0.2500
X1.6688Y0.1500
X1.9688Y0.1500
X1.9688Y0.2500
X1.6938Y0.6000
X1.8938Y0.6000
X1.7938Y0.6000
T3
X0.6497Y0.5382
X0.6497Y0.6461
X0.5378Y0.7000
X0.5378Y0.8079
X0.5378Y0.9157
X0.6497Y0.8618
X0.5378Y0.4843
X0.6497Y0.7539
X0.5378Y0.5921
X0.6497Y1.8382
X0.6497Y1.9461
X0.5378Y2.0000
X0.5378Y2.1079
X0.5378Y2.2157
X0.6497Y2.1618
X0.5378Y1.7843
X0.6497Y2.0539
X0.5378Y1.8921
X0.6497Y3.1382
X0.6497Y3.2461
X0.5378Y3.3000
X0.5378Y3.4079
X0.5378Y3.5157
X0.6497Y3.4618
X0.5378Y3.0843
X0.6497Y3.3539
X0.5378Y3.1921
X1.5497Y1.1882
X1.5497Y1.2961
X1.4378Y1.3500
X1.4378Y1.4579
X1.4378Y1.5657
X1.5497Y1.5118
X1.4378Y1.1343
X1.5497Y1.4039
X1.4378Y1.2421
X1.5497Y2.4882
X1.5497Y2.5961
X1.4378Y2.6500
X1.4378Y2.7579
X1.4378Y2.8657
X1.5497Y2.8118
X1.4378Y2.4343
X1.5497Y2.7039
X1.4378Y2.5421
T4
X0.9938Y2.8987
X0.9938Y3.3012
X0.9938Y1.6487
X0.9938Y2.0512
X0.9938Y0.8987
X0.9938Y1.3012
X0.9938Y2.1987
X0.9938Y2.6012
X0.9938Y3.3987
X0.9938Y3.8012
X1.0938Y0.8987
X1.0938Y1.3012
X1.0938Y2.1987
X1.0938Y2.6012
X1.0938Y3.3987
X1.0938Y3.8012
X1.0938Y1.6487
X1.0938Y2.0512
X1.0938Y2.8987
X1.0938Y3.3012
T5
X0.5938Y0.2079
X0.5938Y1.1921
X0.5938Y1.5079
X0.5938Y2.4921
X0.5938Y2.8079
X0.5938Y3.7921
X1.4938Y0.8579
X1.4938Y1.8421
X1.4938Y2.1579
X1.4938Y3.1421
T6
X1.4438Y3.7000
X1.8688Y3.7000
T0
M30
