%FSLAX24Y24*%
%MOIN*%
%ADD10C,0.0200*%
%ADD11C,0.0500*%
%ADD12C,0.0520*%
%ADD13C,0.0591*%
%ADD14C,0.0709*%
%ADD15C,0.1378*%
%ADD16C,0.3150*%
D10*
G01X19389Y31950D02*
X18605Y31950D01*
X18605Y31950D02*
X14997Y28341D01*
X14997Y28341D02*
X14997Y27119D01*
X14997Y27119D02*
X14378Y26500D01*
X19937Y31500D02*
X19487Y31950D01*
X19487Y31950D02*
X19389Y31950D01*
X19389Y31950D02*
X19389Y36297D01*
X19389Y36297D02*
X18687Y37000D01*
X18937Y16000D02*
X19387Y16450D01*
X19387Y16450D02*
X19387Y21549D01*
X19387Y21549D02*
X18937Y21999D01*
X19937Y14000D02*
X19437Y14500D01*
X19437Y14500D02*
X19437Y15500D01*
X19437Y15500D02*
X18937Y16000D01*
X937Y25000D02*
X1437Y24500D01*
X1437Y24500D02*
X1437Y23837D01*
X1437Y23837D02*
X5275Y20000D01*
X5275Y20000D02*
X5378Y20000D01*
X937Y25000D02*
X937Y26000D01*
X19937Y14000D02*
X19387Y13450D01*
X19387Y13450D02*
X19387Y11450D01*
X19387Y11450D02*
X18937Y10999D01*
X10937Y2999D02*
X10937Y2500D01*
X10937Y2500D02*
X9937Y1499D01*
X9937Y5999D02*
X9937Y4474D01*
X9937Y4474D02*
X10937Y3474D01*
X10937Y3474D02*
X10937Y2999D01*
X9437Y7500D02*
X9937Y7000D01*
X9937Y7000D02*
X9937Y5999D01*
X9937Y33012D02*
X9368Y33581D01*
X9368Y33581D02*
X9368Y37443D01*
X9368Y37443D02*
X9937Y38012D01*
X9937Y26012D02*
X9376Y26573D01*
X9376Y26573D02*
X9376Y32451D01*
X9376Y32451D02*
X9937Y33012D01*
X9937Y20512D02*
X9378Y21071D01*
X9378Y21071D02*
X9378Y25453D01*
X9378Y25453D02*
X9937Y26012D01*
X9937Y13012D02*
X9383Y13566D01*
X9383Y13566D02*
X9383Y19958D01*
X9383Y19958D02*
X9937Y20512D01*
X9468Y3000D02*
X9937Y2999D01*
X937Y9000D02*
X1437Y8500D01*
X1437Y8500D02*
X3177Y8500D01*
X3177Y8500D02*
X5173Y6504D01*
X5173Y6504D02*
X5525Y6504D01*
X5525Y6504D02*
X6108Y5921D01*
X6108Y5921D02*
X6664Y5921D01*
X6664Y5921D02*
X9468Y3117D01*
X9468Y3117D02*
X9468Y3000D01*
X9468Y3000D02*
X9468Y1293D01*
X9468Y1293D02*
X9727Y1034D01*
X9727Y1034D02*
X12133Y1034D01*
X12133Y1034D02*
X12437Y1338D01*
X12437Y1338D02*
X12437Y3401D01*
X12437Y3401D02*
X12750Y3713D01*
X12750Y3713D02*
X13114Y3713D01*
X13114Y3713D02*
X13288Y3539D01*
X13288Y3539D02*
X15790Y3539D01*
X15790Y3539D02*
X16937Y4687D01*
X16937Y4687D02*
X16937Y6000D01*
X14437Y4000D02*
X14423Y4013D01*
X14423Y4013D02*
X12923Y4013D01*
X12923Y4013D02*
X10937Y5999D01*
X15991Y12960D02*
X15991Y4554D01*
X15991Y4554D02*
X15437Y4000D01*
X15496Y25960D02*
X15991Y25465D01*
X15991Y25465D02*
X15991Y12960D01*
X15496Y12960D02*
X15991Y12960D01*
X10937Y20512D02*
X11491Y21066D01*
X11491Y21066D02*
X11491Y25458D01*
X11491Y25458D02*
X10937Y26012D01*
X10937Y13012D02*
X11491Y13566D01*
X11491Y13566D02*
X11491Y19958D01*
X11491Y19958D02*
X10937Y20512D01*
X11509Y37000D02*
X11509Y37440D01*
X11509Y37440D02*
X10937Y38012D01*
X10937Y33012D02*
X11509Y33583D01*
X11509Y33583D02*
X11509Y37000D01*
X11509Y37000D02*
X14437Y37000D01*
X10937Y33012D02*
X11493Y32456D01*
X11493Y32456D02*
X11493Y26568D01*
X11493Y26568D02*
X10937Y26012D01*
X937Y26999D02*
X1487Y26450D01*
X1487Y26450D02*
X1487Y25794D01*
X1487Y25794D02*
X1782Y25500D01*
X1782Y25500D02*
X2075Y25500D01*
X2075Y25500D02*
X3493Y24082D01*
X3493Y24082D02*
X3493Y22245D01*
X3493Y22245D02*
X5199Y20539D01*
X5199Y20539D02*
X5541Y20539D01*
X5541Y20539D02*
X5873Y20206D01*
X5873Y20206D02*
X5873Y17681D01*
X5873Y17681D02*
X8439Y15116D01*
X8439Y15116D02*
X8439Y9505D01*
X8439Y9505D02*
X10437Y7507D01*
X10437Y7507D02*
X10437Y4500D01*
X10437Y4500D02*
X11937Y2999D01*
X11937Y2999D02*
X11937Y1499D01*
X18937Y6000D02*
X15937Y3000D01*
X15937Y3000D02*
X12937Y2999D01*
X937Y28000D02*
X1437Y27500D01*
X1437Y27500D02*
X2101Y27500D01*
X2101Y27500D02*
X8805Y20796D01*
X8805Y20796D02*
X8805Y13042D01*
X8805Y13042D02*
X11512Y10335D01*
X11512Y10335D02*
X11512Y7574D01*
X11512Y7574D02*
X11437Y7500D01*
X14378Y12421D02*
X11937Y9980D01*
X11937Y9980D02*
X11937Y5999D01*
X16687Y1500D02*
X16687Y2500D01*
D11*
G01X18937Y25500D03*
X937Y26000D03*
X19937Y9000D03*
X19937Y32500D03*
X1937Y26999D03*
X18937Y20000D03*
X19937Y19000D03*
X19937Y27500D03*
X19937Y28500D03*
X18937Y14000D03*
X19937Y26500D03*
X18937Y10999D03*
X1937Y15000D03*
X1937Y14000D03*
X1937Y18000D03*
X19937Y21999D03*
X937Y31000D03*
X1937Y8000D03*
X937Y25000D03*
X937Y16000D03*
X937Y30000D03*
X937Y21999D03*
X1937Y17000D03*
X937Y24000D03*
X18937Y33500D03*
X1937Y25000D03*
X937Y10000D03*
X19937Y21000D03*
X937Y12000D03*
X19937Y34500D03*
X18937Y15000D03*
X937Y15000D03*
X19937Y8000D03*
X1937Y28000D03*
X1937Y12000D03*
X19937Y10000D03*
X937Y20000D03*
X19937Y10999D03*
X18937Y19000D03*
X937Y21000D03*
X937Y13000D03*
X18937Y27500D03*
X18937Y9000D03*
X1937Y10999D03*
X1937Y21000D03*
X1937Y26000D03*
X18937Y17000D03*
X1937Y31000D03*
X18937Y16000D03*
X1937Y20000D03*
X19937Y29500D03*
X937Y8000D03*
X18937Y10000D03*
X937Y9000D03*
X19937Y31500D03*
X19937Y24000D03*
X18937Y32500D03*
X19937Y14000D03*
X18937Y21000D03*
X937Y17000D03*
X18937Y21999D03*
X18937Y12000D03*
X1937Y21999D03*
X937Y28000D03*
X19937Y20000D03*
X937Y18000D03*
X19937Y33500D03*
X19937Y16000D03*
X19937Y13000D03*
X18937Y18000D03*
X1937Y24000D03*
X937Y26999D03*
X1937Y19000D03*
X19937Y23000D03*
X1937Y30000D03*
X18937Y28500D03*
X19937Y30500D03*
X18937Y30500D03*
X937Y10999D03*
X1937Y9000D03*
X19937Y25500D03*
X18937Y8000D03*
X19937Y12000D03*
X18937Y29500D03*
X19937Y15000D03*
X19937Y17000D03*
X19937Y18000D03*
X18937Y31500D03*
X18937Y23000D03*
X1937Y16000D03*
X1937Y10000D03*
X937Y29000D03*
X937Y14000D03*
X18937Y13000D03*
X18937Y34500D03*
X1937Y29000D03*
X1937Y13000D03*
X937Y19000D03*
X18937Y26500D03*
X18937Y24000D03*
D12*
G01X14437Y999D03*
X15437Y999D03*
X11937Y1499D03*
X9937Y1499D03*
X9437Y7500D03*
X11437Y7500D03*
X10937Y5759D02*
X10937Y6240D01*
X11937Y5759D02*
X11937Y6240D01*
X12937Y2759D02*
X12937Y3240D01*
X9937Y5759D02*
X9937Y6240D01*
X12937Y5759D02*
X12937Y6240D01*
X11937Y2759D02*
X11937Y3240D01*
X10937Y2759D02*
X10937Y3240D01*
X16927Y2500D02*
X16447Y2500D01*
X16927Y1500D02*
X16447Y1500D01*
X19927Y2500D02*
X19447Y2500D01*
X18937Y5860D02*
X18937Y6140D01*
X17937Y5860D02*
X17937Y6140D01*
D13*
G01X6496Y5381D03*
X6496Y6460D03*
X5378Y7000D03*
X5378Y8078D03*
X5378Y9157D03*
X6496Y8618D03*
X5378Y4842D03*
X6496Y7539D03*
X5378Y5921D03*
X6496Y18381D03*
X6496Y19460D03*
X5378Y20000D03*
X5378Y21078D03*
X5378Y22157D03*
X6496Y21618D03*
X5378Y17842D03*
X6496Y20539D03*
X5378Y18921D03*
X6496Y31381D03*
X6496Y32460D03*
X5378Y33000D03*
X5378Y34078D03*
X5378Y35157D03*
X6496Y34618D03*
X5378Y30842D03*
X6496Y33539D03*
X5378Y31921D03*
X15496Y11881D03*
X15496Y12960D03*
X14378Y13500D03*
X14378Y14578D03*
X14378Y15657D03*
X15496Y15118D03*
X14378Y11342D03*
X15496Y14039D03*
X14378Y12421D03*
X15496Y24881D03*
X15496Y25960D03*
X14378Y26500D03*
X14378Y27578D03*
X14378Y28657D03*
X15496Y28118D03*
X14378Y24342D03*
X15496Y27039D03*
X14378Y25421D03*
D14*
G01X9937Y28987D03*
X9937Y16487D03*
X9937Y8987D03*
X9937Y21987D03*
X9937Y33987D03*
X10937Y8987D03*
X10937Y21987D03*
X10937Y33987D03*
X10937Y16487D03*
X10937Y28987D03*
D15*
G01X5937Y2078D03*
X5937Y11921D03*
X5937Y15078D03*
X5937Y24921D03*
X5937Y28078D03*
X5937Y37921D03*
X14937Y8578D03*
X14937Y18421D03*
X14937Y21578D03*
X14937Y31421D03*
D16*
G01X14437Y37000D03*
X18687Y37000D03*
G36*
X10197Y3499D02*G01*
X9677Y3499D01*X9677Y2499D01*X10197Y2499D01*G37*
G36*
X14697Y3740D02*G01*
X14697Y4260D01*X14177Y4260D01*X14177Y3740D01*G37*
G36*
X15697Y3740D02*G01*
X15697Y4260D01*X15177Y4260D01*X15177Y3740D01*G37*
G36*
X10291Y32658D02*G01*
X10291Y33366D01*X9583Y33366D01*X9583Y32658D01*G37*
G36*
X10291Y20158D02*G01*
X10291Y20866D01*X9583Y20866D01*X9583Y20158D01*G37*
G36*
X10291Y12658D02*G01*
X10291Y13366D01*X9583Y13366D01*X9583Y12658D01*G37*
G36*
X10291Y25658D02*G01*
X10291Y26366D01*X9583Y26366D01*X9583Y25658D01*G37*
G36*
X10291Y37658D02*G01*
X10291Y38366D01*X9583Y38366D01*X9583Y37658D01*G37*
G36*
X11291Y12658D02*G01*
X11291Y13366D01*X10583Y13366D01*X10583Y12658D01*G37*
G36*
X11291Y25658D02*G01*
X11291Y26366D01*X10583Y26366D01*X10583Y25658D01*G37*
G36*
X11291Y37658D02*G01*
X11291Y38366D01*X10583Y38366D01*X10583Y37658D01*G37*
G36*
X11291Y20158D02*G01*
X11291Y20866D01*X10583Y20866D01*X10583Y20158D01*G37*
G36*
X11291Y32658D02*G01*
X11291Y33366D01*X10583Y33366D01*X10583Y32658D01*G37*
G36*
X19187Y1760D02*G01*
X19187Y1240D01*X20187Y1240D01*X20187Y1760D01*G37*
G36*
X17197Y6400D02*G01*
X16677Y6400D01*X16677Y5600D01*X17197Y5600D01*G37*
M02*
