%FSLAX24Y24*%
%MOIN*%
%ADD10C,0.0200*%
%ADD11C,0.0500*%
%ADD12C,0.0520*%
%ADD13C,0.0591*%
%ADD14C,0.0709*%
%ADD15C,0.1378*%
%ADD16C,0.3150*%
D10*
G01X18937Y21999D02*
X18937Y22141D01*
X18937Y22141D02*
X15701Y25377D01*
X15701Y25377D02*
X15349Y25377D01*
X15349Y25377D02*
X14378Y26348D01*
X14378Y26348D02*
X14378Y26500D01*
X5378Y7044D02*
X8981Y7044D01*
X8981Y7044D02*
X9437Y7500D01*
X5378Y7044D02*
X5378Y7000D01*
X1103Y11165D02*
X1768Y10500D01*
X1768Y10500D02*
X2074Y10500D01*
X2074Y10500D02*
X5378Y7195D01*
X5378Y7195D02*
X5378Y7044D01*
X1103Y11165D02*
X1437Y11500D01*
X1437Y11500D02*
X1437Y16500D01*
X1437Y16500D02*
X1937Y16999D01*
X937Y10999D02*
X1103Y11165D01*
X937Y26000D02*
X1437Y26500D01*
X1437Y26500D02*
X1437Y30145D01*
X1437Y30145D02*
X1841Y30549D01*
X1841Y30549D02*
X2927Y30549D01*
X2927Y30549D02*
X5378Y33000D01*
X17201Y7661D02*
X17201Y9264D01*
X17201Y9264D02*
X18937Y10999D01*
X17937Y6000D02*
X17201Y6735D01*
X17201Y6735D02*
X17201Y7661D01*
X9437Y7500D02*
X9908Y7970D01*
X9908Y7970D02*
X13116Y7970D01*
X13116Y7970D02*
X13425Y7661D01*
X13425Y7661D02*
X17201Y7661D01*
X1937Y16999D02*
X4937Y20000D01*
X4937Y20000D02*
X5378Y20000D01*
X14378Y13500D02*
X14378Y13375D01*
X14378Y13375D02*
X15332Y12421D01*
X15332Y12421D02*
X17516Y12421D01*
X17516Y12421D02*
X18937Y10999D01*
X937Y24000D02*
X1437Y24500D01*
X1437Y24500D02*
X3616Y24500D01*
X3616Y24500D02*
X5128Y26012D01*
X5128Y26012D02*
X9937Y26012D01*
X9937Y8987D02*
X6865Y8987D01*
X6865Y8987D02*
X6496Y8618D01*
X10937Y8987D02*
X9937Y8987D01*
X10937Y16487D02*
X12306Y15118D01*
X12306Y15118D02*
X15496Y15118D01*
X9937Y16487D02*
X10937Y16487D01*
X10937Y5999D02*
X10228Y6708D01*
X10228Y6708D02*
X6744Y6708D01*
X6744Y6708D02*
X6496Y6460D01*
X15496Y12960D02*
X15496Y13112D01*
X15496Y13112D02*
X14525Y14083D01*
X14525Y14083D02*
X11557Y14083D01*
X11557Y14083D02*
X7692Y17948D01*
X7692Y17948D02*
X7692Y18373D01*
X7692Y18373D02*
X6604Y19460D01*
X6604Y19460D02*
X6496Y19460D01*
X15496Y25960D02*
X15496Y26085D01*
X15496Y26085D02*
X14575Y27006D01*
X14575Y27006D02*
X11133Y27006D01*
X11133Y27006D02*
X7079Y31060D01*
X7079Y31060D02*
X7079Y31877D01*
X7079Y31877D02*
X6496Y32460D01*
X14437Y4000D02*
X15437Y4000D01*
X10937Y28987D02*
X9937Y28987D01*
X15496Y28118D02*
X11806Y28118D01*
X11806Y28118D02*
X10937Y28987D01*
X9937Y21987D02*
X6865Y21987D01*
X6865Y21987D02*
X6496Y21618D01*
X10937Y21987D02*
X9937Y21987D01*
X937Y10000D02*
X1487Y9450D01*
X1487Y9450D02*
X1487Y8794D01*
X1487Y8794D02*
X1782Y8500D01*
X1782Y8500D02*
X2085Y8500D01*
X2085Y8500D02*
X5203Y5381D01*
X5203Y5381D02*
X5555Y5381D01*
X5555Y5381D02*
X7226Y3711D01*
X7226Y3711D02*
X12226Y3711D01*
X12226Y3711D02*
X12937Y2999D01*
X14437Y999D02*
X15437Y2000D01*
X15437Y2000D02*
X19187Y2000D01*
X19187Y2000D02*
X19687Y2500D01*
X15437Y999D02*
X19187Y1000D01*
X19187Y1000D02*
X19687Y1500D01*
X12937Y5999D02*
X11437Y7500D01*
X5843Y19386D02*
X5378Y18921D01*
X11501Y25573D02*
X9960Y24032D01*
X9960Y24032D02*
X8198Y24032D01*
X8198Y24032D02*
X5997Y21831D01*
X5997Y21831D02*
X5997Y19540D01*
X5997Y19540D02*
X5843Y19386D01*
X5843Y19386D02*
X6264Y18965D01*
X6264Y18965D02*
X6622Y18965D01*
X6622Y18965D02*
X7285Y18301D01*
X7285Y18301D02*
X7285Y17900D01*
X7285Y17900D02*
X12764Y12421D01*
X12764Y12421D02*
X14378Y12421D01*
X5378Y31921D02*
X5378Y31799D01*
X5378Y31799D02*
X10610Y26567D01*
X10610Y26567D02*
X11389Y26567D01*
X11389Y26567D02*
X11501Y26455D01*
X11501Y26455D02*
X11501Y25573D01*
X11501Y25573D02*
X14226Y25573D01*
X14226Y25573D02*
X14378Y25421D01*
X11937Y5656D02*
X15093Y2500D01*
X15093Y2500D02*
X16687Y2500D01*
X11937Y5999D02*
X11937Y5656D01*
X5378Y5921D02*
X8906Y5921D01*
X8906Y5921D02*
X9533Y5295D01*
X9533Y5295D02*
X11576Y5295D01*
X11576Y5295D02*
X11937Y5656D01*
X10937Y33987D02*
X9937Y33987D01*
X6496Y34618D02*
X9306Y34618D01*
X9306Y34618D02*
X9937Y33987D01*
D11*
G01X18937Y25500D03*
X937Y26000D03*
X19937Y9000D03*
X19937Y32500D03*
X1937Y26999D03*
X18937Y20000D03*
X19937Y19000D03*
X19937Y27500D03*
X19937Y28500D03*
X18937Y14000D03*
X19937Y26500D03*
X18937Y10999D03*
X1937Y15000D03*
X1937Y14000D03*
X1937Y18000D03*
X19937Y21999D03*
X937Y31000D03*
X1937Y8000D03*
X937Y25000D03*
X937Y16000D03*
X937Y30000D03*
X937Y21999D03*
X1937Y17000D03*
X937Y24000D03*
X18937Y33500D03*
X1937Y25000D03*
X937Y10000D03*
X19937Y21000D03*
X937Y12000D03*
X19937Y34500D03*
X18937Y15000D03*
X937Y15000D03*
X19937Y8000D03*
X1937Y28000D03*
X1937Y12000D03*
X19937Y10000D03*
X937Y20000D03*
X19937Y10999D03*
X18937Y19000D03*
X937Y21000D03*
X937Y13000D03*
X18937Y27500D03*
X18937Y9000D03*
X1937Y10999D03*
X1937Y21000D03*
X1937Y26000D03*
X18937Y17000D03*
X1937Y31000D03*
X18937Y16000D03*
X1937Y20000D03*
X19937Y29500D03*
X937Y8000D03*
X18937Y10000D03*
X937Y9000D03*
X19937Y31500D03*
X19937Y24000D03*
X18937Y32500D03*
X19937Y14000D03*
X18937Y21000D03*
X937Y17000D03*
X18937Y21999D03*
X18937Y12000D03*
X1937Y21999D03*
X937Y28000D03*
X19937Y20000D03*
X937Y18000D03*
X19937Y33500D03*
X19937Y16000D03*
X19937Y13000D03*
X18937Y18000D03*
X1937Y24000D03*
X937Y26999D03*
X1937Y19000D03*
X19937Y23000D03*
X1937Y30000D03*
X18937Y28500D03*
X19937Y30500D03*
X18937Y30500D03*
X937Y10999D03*
X1937Y9000D03*
X19937Y25500D03*
X18937Y8000D03*
X19937Y12000D03*
X18937Y29500D03*
X19937Y15000D03*
X19937Y17000D03*
X19937Y18000D03*
X18937Y31500D03*
X18937Y23000D03*
X1937Y16000D03*
X1937Y10000D03*
X937Y29000D03*
X937Y14000D03*
X18937Y13000D03*
X18937Y34500D03*
X1937Y29000D03*
X1937Y13000D03*
X937Y19000D03*
X18937Y26500D03*
X18937Y24000D03*
D12*
G01X14437Y999D03*
X15437Y999D03*
X11937Y1499D03*
X9937Y1499D03*
X9437Y7500D03*
X11437Y7500D03*
X10937Y5759D02*
X10937Y6240D01*
X11937Y5759D02*
X11937Y6240D01*
X12937Y2759D02*
X12937Y3240D01*
X9937Y5759D02*
X9937Y6240D01*
X12937Y5759D02*
X12937Y6240D01*
X11937Y2759D02*
X11937Y3240D01*
X10937Y2759D02*
X10937Y3240D01*
X16927Y2500D02*
X16447Y2500D01*
X16927Y1500D02*
X16447Y1500D01*
X19927Y2500D02*
X19447Y2500D01*
X18937Y5860D02*
X18937Y6140D01*
X17937Y5860D02*
X17937Y6140D01*
D13*
G01X6496Y5381D03*
X6496Y6460D03*
X5378Y7000D03*
X5378Y8078D03*
X5378Y9157D03*
X6496Y8618D03*
X5378Y4842D03*
X6496Y7539D03*
X5378Y5921D03*
X6496Y18381D03*
X6496Y19460D03*
X5378Y20000D03*
X5378Y21078D03*
X5378Y22157D03*
X6496Y21618D03*
X5378Y17842D03*
X6496Y20539D03*
X5378Y18921D03*
X6496Y31381D03*
X6496Y32460D03*
X5378Y33000D03*
X5378Y34078D03*
X5378Y35157D03*
X6496Y34618D03*
X5378Y30842D03*
X6496Y33539D03*
X5378Y31921D03*
X15496Y11881D03*
X15496Y12960D03*
X14378Y13500D03*
X14378Y14578D03*
X14378Y15657D03*
X15496Y15118D03*
X14378Y11342D03*
X15496Y14039D03*
X14378Y12421D03*
X15496Y24881D03*
X15496Y25960D03*
X14378Y26500D03*
X14378Y27578D03*
X14378Y28657D03*
X15496Y28118D03*
X14378Y24342D03*
X15496Y27039D03*
X14378Y25421D03*
D14*
G01X9937Y28987D03*
X9937Y16487D03*
X9937Y8987D03*
X9937Y21987D03*
X9937Y33987D03*
X10937Y8987D03*
X10937Y21987D03*
X10937Y33987D03*
X10937Y16487D03*
X10937Y28987D03*
D15*
G01X5937Y2078D03*
X5937Y11921D03*
X5937Y15078D03*
X5937Y24921D03*
X5937Y28078D03*
X5937Y37921D03*
X14937Y8578D03*
X14937Y18421D03*
X14937Y21578D03*
X14937Y31421D03*
D16*
G01X14437Y37000D03*
X18687Y37000D03*
G36*
X10197Y3499D02*G01*
X9677Y3499D01*X9677Y2499D01*X10197Y2499D01*G37*
G36*
X14697Y3740D02*G01*
X14697Y4260D01*X14177Y4260D01*X14177Y3740D01*G37*
G36*
X15697Y3740D02*G01*
X15697Y4260D01*X15177Y4260D01*X15177Y3740D01*G37*
G36*
X10291Y32658D02*G01*
X10291Y33366D01*X9583Y33366D01*X9583Y32658D01*G37*
G36*
X10291Y20158D02*G01*
X10291Y20866D01*X9583Y20866D01*X9583Y20158D01*G37*
G36*
X10291Y12658D02*G01*
X10291Y13366D01*X9583Y13366D01*X9583Y12658D01*G37*
G36*
X10291Y25658D02*G01*
X10291Y26366D01*X9583Y26366D01*X9583Y25658D01*G37*
G36*
X10291Y37658D02*G01*
X10291Y38366D01*X9583Y38366D01*X9583Y37658D01*G37*
G36*
X11291Y12658D02*G01*
X11291Y13366D01*X10583Y13366D01*X10583Y12658D01*G37*
G36*
X11291Y25658D02*G01*
X11291Y26366D01*X10583Y26366D01*X10583Y25658D01*G37*
G36*
X11291Y37658D02*G01*
X11291Y38366D01*X10583Y38366D01*X10583Y37658D01*G37*
G36*
X11291Y20158D02*G01*
X11291Y20866D01*X10583Y20866D01*X10583Y20158D01*G37*
G36*
X11291Y32658D02*G01*
X11291Y33366D01*X10583Y33366D01*X10583Y32658D01*G37*
G36*
X19187Y1760D02*G01*
X19187Y1240D01*X20187Y1240D01*X20187Y1760D01*G37*
G36*
X17197Y6400D02*G01*
X16677Y6400D01*X16677Y5600D01*X17197Y5600D01*G37*
M02*
