M48
INCH
T1C0.0120
T2C0.0320
T3C0.0354
T4C0.0433
T5C0.0512
T6C0.0512
T7C0.1181
%
G05
M72
T1
X2.3447Y0.7648
X1.8424Y0.4263
X2.3447Y2.7333
X1.8424Y2.3948
T2
X1.7000Y1.8500
X1.7000Y1.6500
X0.8000Y0.7500
X1.0000Y0.7500
X1.0500Y0.6500
X0.7500Y0.6500
X3.3000Y0.6500
X3.3000Y0.8500
X2.8500Y1.3500
X3.1500Y1.3500
X2.2000Y1.8500
X2.2000Y1.6500
X2.0000Y1.4000
X1.8000Y1.4000
X2.0000Y0.4500
X2.0000Y0.2500
X1.3000Y0.4000
X1.3000Y0.2000
X2.7000Y1.1000
X2.7000Y1.3000
X2.6000Y0.4250
X2.6000Y0.2250
X2.5500Y1.8000
X2.6500Y1.8000
X2.3500Y1.8000
X2.4500Y1.5000
X2.5500Y1.5000
X2.6500Y1.5000
X2.3500Y1.5000
X2.4500Y1.8000
X3.0500Y1.2000
X3.1500Y1.2000
X2.8500Y1.2000
X2.9500Y0.9000
X3.0500Y0.9000
X3.1500Y0.9000
X2.8500Y0.9000
X2.9500Y1.2000
X3.3000Y1.0000
X3.3000Y1.3000
X3.1750Y0.7500
X2.8750Y0.7500
X3.1750Y0.6500
X2.8750Y0.6500
X2.3500Y0.4500
X2.4500Y0.4500
X2.1500Y0.4500
X2.2500Y0.1500
X2.3500Y0.1500
X2.4500Y0.1500
X2.1500Y0.1500
X2.2500Y0.4500
X2.4500Y1.3500
X2.5500Y1.3500
X2.2500Y1.3500
X2.3500Y1.0500
X2.4500Y1.0500
X2.5500Y1.0500
X2.2500Y1.0500
X2.3500Y1.3500
X1.0000Y1.3500
X0.7000Y1.3500
X0.6000Y1.3500
X0.6000Y1.0500
X0.6000Y0.9500
X0.6000Y0.6500
X0.9500Y1.2000
X1.0500Y1.2000
X0.7500Y1.2000
X0.8500Y0.9000
X0.9500Y0.9000
X1.0500Y0.9000
X0.7500Y0.9000
X0.8500Y1.2000
X1.4500Y1.8000
X1.5500Y1.8000
X1.2500Y1.8000
X1.3500Y1.5000
X1.4500Y1.5000
X1.5500Y1.5000
X1.2500Y1.5000
X1.3500Y1.8000
X1.4500Y1.3500
X1.5500Y1.3500
X1.2500Y1.3500
X1.3500Y1.0500
X1.4500Y1.0500
X1.5500Y1.0500
X1.2500Y1.0500
X1.3500Y1.3500
X1.6500Y0.4500
X1.7500Y0.4500
X1.4500Y0.4500
X1.5500Y0.1500
X1.6500Y0.1500
X1.7500Y0.1500
X1.4500Y0.1500
X1.5500Y0.4500
X1.8000Y1.0500
X2.0000Y1.0500
X1.9000Y0.9000
X2.2000Y0.9000
X1.6000Y0.9000
X2.4000Y0.9000
X1.3000Y0.9000
X2.0000Y0.6000
X2.3000Y0.9000
X2.6000Y0.6000
X2.4000Y0.6000
X1.4000Y0.6000
X2.3000Y0.6000
X1.3000Y0.6000
X2.1000Y0.6000
X1.8000Y0.9000
X1.7000Y0.6000
X1.7000Y0.9000
X2.5000Y0.9000
X2.5000Y0.6000
X2.2000Y0.6000
X1.6000Y0.6000
X2.0000Y0.9000
X2.6000Y0.9000
X1.5000Y0.9000
X1.5000Y0.6000
X1.4000Y0.9000
X1.9000Y0.6000
X2.1000Y0.9000
X1.8000Y0.6000
X1.9000Y0.4500
X1.9000Y0.2500
X0.4000Y1.8500
X0.5000Y1.8500
X0.4250Y1.7000
X0.3250Y1.7000
X0.4250Y0.3000
X0.3250Y0.3000
X0.4250Y0.1500
X0.5250Y0.1500
X1.1750Y0.5500
X1.1750Y0.2500
X0.5000Y1.0000
X0.2000Y1.0000
X1.1750Y0.6250
X1.1750Y0.9250
X3.4750Y1.8250
X3.3750Y1.8250
X3.5250Y1.7000
X3.6250Y1.7000
X3.5250Y0.3000
X3.6250Y0.3000
X3.5000Y0.1500
X3.4000Y0.1500
X3.4000Y1.0000
X3.7000Y1.0000
X2.7250Y0.5500
X2.7250Y0.2500
X2.7250Y0.6500
X2.7250Y0.9500
X1.7000Y3.8185
X1.7000Y3.6185
X0.8000Y2.7185
X1.0000Y2.7185
X1.0500Y2.6185
X0.7500Y2.6185
X3.3000Y2.6185
X3.3000Y2.8185
X2.8500Y3.3185
X3.1500Y3.3185
X2.2000Y3.8185
X2.2000Y3.6185
X2.0000Y3.3685
X1.8000Y3.3685
X2.0000Y2.4185
X2.0000Y2.2185
X1.3000Y2.3685
X1.3000Y2.1685
X2.7000Y3.0685
X2.7000Y3.2685
X2.6000Y2.3935
X2.6000Y2.1935
X2.5500Y3.7685
X2.6500Y3.7685
X2.3500Y3.7685
X2.4500Y3.4685
X2.5500Y3.4685
X2.6500Y3.4685
X2.3500Y3.4685
X2.4500Y3.7685
X3.0500Y3.1685
X3.1500Y3.1685
X2.8500Y3.1685
X2.9500Y2.8685
X3.0500Y2.8685
X3.1500Y2.8685
X2.8500Y2.8685
X2.9500Y3.1685
X3.3000Y2.9685
X3.3000Y3.2685
X3.1750Y2.7185
X2.8750Y2.7185
X3.1750Y2.6185
X2.8750Y2.6185
X2.3500Y2.4185
X2.4500Y2.4185
X2.1500Y2.4185
X2.2500Y2.1185
X2.3500Y2.1185
X2.4500Y2.1185
X2.1500Y2.1185
X2.2500Y2.4185
X2.4500Y3.3185
X2.5500Y3.3185
X2.2500Y3.3185
X2.3500Y3.0185
X2.4500Y3.0185
X2.5500Y3.0185
X2.2500Y3.0185
X2.3500Y3.3185
X1.0000Y3.3185
X0.7000Y3.3185
X0.6000Y3.3185
X0.6000Y3.0185
X0.6000Y2.9185
X0.6000Y2.6185
X0.9500Y3.1685
X1.0500Y3.1685
X0.7500Y3.1685
X0.8500Y2.8685
X0.9500Y2.8685
X1.0500Y2.8685
X0.7500Y2.8685
X0.8500Y3.1685
X1.4500Y3.7685
X1.5500Y3.7685
X1.2500Y3.7685
X1.3500Y3.4685
X1.4500Y3.4685
X1.5500Y3.4685
X1.2500Y3.4685
X1.3500Y3.7685
X1.4500Y3.3185
X1.5500Y3.3185
X1.2500Y3.3185
X1.3500Y3.0185
X1.4500Y3.0185
X1.5500Y3.0185
X1.2500Y3.0185
X1.3500Y3.3185
X1.6500Y2.4185
X1.7500Y2.4185
X1.4500Y2.4185
X1.5500Y2.1185
X1.6500Y2.1185
X1.7500Y2.1185
X1.4500Y2.1185
X1.5500Y2.4185
X1.8000Y3.0185
X2.0000Y3.0185
X1.9000Y2.8685
X2.2000Y2.8685
X1.6000Y2.8685
X2.4000Y2.8685
X1.3000Y2.8685
X2.0000Y2.5685
X2.3000Y2.8685
X2.6000Y2.5685
X2.4000Y2.5685
X1.4000Y2.5685
X2.3000Y2.5685
X1.3000Y2.5685
X2.1000Y2.5685
X1.8000Y2.8685
X1.7000Y2.5685
X1.7000Y2.8685
X2.5000Y2.8685
X2.5000Y2.5685
X2.2000Y2.5685
X1.6000Y2.5685
X2.0000Y2.8685
X2.6000Y2.8685
X1.5000Y2.8685
X1.5000Y2.5685
X1.4000Y2.8685
X1.9000Y2.5685
X2.1000Y2.8685
X1.8000Y2.5685
X1.9000Y2.4185
X1.9000Y2.2185
X0.4000Y3.8185
X0.5000Y3.8185
X0.4250Y3.6685
X0.3250Y3.6685
X0.4250Y2.2685
X0.3250Y2.2685
X0.4250Y2.1185
X0.5250Y2.1185
X1.1750Y2.5185
X1.1750Y2.2185
X0.5000Y2.9685
X0.2000Y2.9685
X1.1750Y2.5935
X1.1750Y2.8935
X3.4750Y3.7935
X3.3750Y3.7935
X3.5250Y3.6685
X3.6250Y3.6685
X3.5250Y2.2685
X3.6250Y2.2685
X3.5000Y2.1185
X3.4000Y2.1185
X3.4000Y2.9685
X3.7000Y2.9685
X2.7250Y2.5185
X2.7250Y2.2185
X2.7250Y2.6185
X2.7250Y2.9185
T3
X0.8250Y0.5250
X0.7750Y0.4250
X0.9250Y0.5250
X0.8750Y0.4250
X3.0750Y1.4750
X3.1250Y1.5750
X2.9750Y1.4750
X3.0250Y1.5750
X3.4250Y1.3000
X3.5250Y1.2500
X3.4250Y1.4000
X3.5250Y1.3500
X3.4250Y0.6500
X3.5250Y0.6000
X3.4250Y0.7500
X3.5250Y0.7000
X3.0250Y0.5250
X2.9750Y0.4250
X3.1250Y0.5250
X3.0750Y0.4250
X0.4750Y0.7000
X0.3750Y0.7500
X0.4750Y0.6000
X0.3750Y0.6500
X0.4750Y1.3500
X0.3750Y1.4000
X0.4750Y1.2500
X0.3750Y1.3000
X0.8750Y1.4750
X0.9250Y1.5750
X0.7750Y1.4750
X0.8250Y1.5750
X0.8250Y2.4935
X0.7750Y2.3935
X0.9250Y2.4935
X0.8750Y2.3935
X3.0750Y3.4435
X3.1250Y3.5435
X2.9750Y3.4435
X3.0250Y3.5435
X3.4250Y3.2685
X3.5250Y3.2185
X3.4250Y3.3685
X3.5250Y3.3185
X3.4250Y2.6185
X3.5250Y2.5685
X3.4250Y2.7185
X3.5250Y2.6685
X3.0250Y2.4935
X2.9750Y2.3935
X3.1250Y2.4935
X3.0750Y2.3935
X0.4750Y2.6685
X0.3750Y2.7185
X0.4750Y2.5685
X0.3750Y2.6185
X0.4750Y3.3185
X0.3750Y3.3685
X0.4750Y3.2185
X0.3750Y3.2685
X0.8750Y3.4435
X0.9250Y3.5435
X0.7750Y3.4435
X0.8250Y3.5435
T4
X1.7487Y1.5500
X2.1512Y1.5500
X1.7487Y3.5185
X2.1512Y3.5185
T5
X2.0189Y1.8500
X1.8811Y1.8500
X2.0189Y3.8185
X1.8811Y3.8185
T6
X2.0000Y1.2000
X1.8000Y1.2000
X1.9000Y1.2000
X2.0000Y3.1685
X1.8000Y3.1685
X1.9000Y3.1685
T7
X1.0500Y0.1750
X0.6500Y0.1750
X2.8500Y1.8250
X3.2500Y1.8250
X3.7750Y1.5250
X3.7750Y1.1250
X3.7750Y0.8750
X3.7750Y0.4750
X3.2500Y0.1750
X2.8500Y0.1750
X0.1250Y0.4750
X0.1250Y0.8750
X0.1250Y1.1250
X0.1250Y1.5250
X0.6500Y1.8250
X1.0500Y1.8250
X0.1750Y1.8000
X3.7500Y1.8000
X0.1750Y0.2000
X3.7500Y0.2000
X1.0500Y2.1435
X0.6500Y2.1435
X2.8500Y3.7935
X3.2500Y3.7935
X3.7750Y3.4935
X3.7750Y3.0935
X3.7750Y2.8435
X3.7750Y2.4435
X3.2500Y2.1435
X2.8500Y2.1435
X0.1250Y2.4435
X0.1250Y2.8435
X0.1250Y3.0935
X0.1250Y3.4935
X0.6500Y3.7935
X1.0500Y3.7935
X0.1750Y3.7685
X3.7500Y3.7685
X0.1750Y2.1685
X3.7500Y2.1685
T0
M30
