%FSLAX24Y24*%
%MOIN*%
%ADD10C,0.0060*%
%ADD11C,0.0139*%
%ADD12C,0.0394*%
D10*
G01X8202Y1821D02*
X8202Y2179D01*
X8202Y1940D02*
X8440Y2179D01*
X8262Y2000D02*
X8440Y1821D01*
X8560Y2119D02*
X8619Y2179D01*
X8738Y2179D01*
X8798Y2119D01*
X8798Y2060D01*
X8738Y2000D01*
X8649Y2000D01*
X8738Y2000D02*
X8798Y1940D01*
X8798Y1881D01*
X8738Y1821D01*
X8619Y1821D01*
X8560Y1881D01*
X17119Y17440D02*
X17179Y17381D01*
X17179Y17262D01*
X17119Y17202D01*
X16881Y17202D01*
X16821Y17262D01*
X16821Y17381D01*
X16881Y17440D01*
X16881Y17560D02*
X16821Y17619D01*
X16821Y17738D01*
X16881Y17798D01*
X16940Y17798D01*
X17000Y17738D01*
X17000Y17649D01*
X17000Y17738D02*
X17060Y17798D01*
X17119Y17798D01*
X17179Y17738D01*
X17179Y17619D01*
X17119Y17560D01*
X19190Y15321D02*
X19190Y15679D01*
X19368Y15679D01*
X19428Y15619D01*
X19428Y15381D01*
X19368Y15321D01*
X19190Y15321D01*
X19547Y15679D02*
X19785Y15679D01*
X19547Y15679D02*
X19547Y15530D01*
X19726Y15530D01*
X19785Y15470D01*
X19785Y15381D01*
X19726Y15321D01*
X19547Y15321D01*
X8940Y7381D02*
X8881Y7321D01*
X8762Y7321D01*
X8702Y7381D01*
X8702Y7619D01*
X8762Y7679D01*
X8881Y7679D01*
X8940Y7619D01*
X9179Y7321D02*
X9179Y7679D01*
X9060Y7560D01*
X8702Y6321D02*
X8702Y6679D01*
X8881Y6679D01*
X8940Y6619D01*
X8940Y6560D01*
X8881Y6500D01*
X8702Y6500D01*
X8940Y6321D01*
X9060Y6679D02*
X9298Y6679D01*
X9060Y6679D02*
X9060Y6530D01*
X9238Y6530D01*
X9298Y6470D01*
X9298Y6381D01*
X9238Y6321D01*
X9060Y6321D01*
X19202Y17632D02*
X19202Y17990D01*
X19202Y17751D02*
X19440Y17990D01*
X19262Y17811D02*
X19440Y17632D01*
X19560Y17990D02*
X19798Y17990D01*
X19560Y17990D02*
X19560Y17841D01*
X19738Y17841D01*
X19798Y17781D01*
X19798Y17692D01*
X19738Y17632D01*
X19560Y17632D01*
X33119Y7262D02*
X33179Y7202D01*
X33179Y7083D01*
X33119Y7024D01*
X32881Y7024D01*
X32821Y7083D01*
X32821Y7202D01*
X32881Y7262D01*
X33179Y7500D02*
X32821Y7500D01*
X32940Y7381D01*
X33179Y7857D02*
X32821Y7857D01*
X32940Y7738D01*
X29524Y13321D02*
X29524Y13679D01*
X29702Y13679D01*
X29762Y13619D01*
X29762Y13560D01*
X29702Y13500D01*
X29524Y13500D01*
X29762Y13321D01*
X30000Y13321D02*
X30000Y13679D01*
X29881Y13560D01*
X30298Y13321D02*
X30238Y13440D01*
X30238Y13560D01*
X30298Y13679D01*
X30417Y13679D01*
X30476Y13560D01*
X30476Y13440D01*
X30417Y13321D01*
X30298Y13321D01*
X29952Y17571D02*
X29952Y17929D01*
X29952Y17690D02*
X30190Y17929D01*
X30012Y17750D02*
X30190Y17571D01*
X30310Y17929D02*
X30548Y17929D01*
X30310Y17571D01*
X22119Y17440D02*
X22179Y17381D01*
X22179Y17262D01*
X22119Y17202D01*
X21881Y17202D01*
X21821Y17262D01*
X21821Y17381D01*
X21881Y17440D01*
X22179Y17619D02*
X22119Y17560D01*
X22060Y17560D01*
X22000Y17619D01*
X22000Y17738D01*
X21940Y17798D01*
X21881Y17798D01*
X21821Y17738D01*
X21821Y17619D01*
X21881Y17560D01*
X21940Y17560D01*
X22000Y17619D01*
X22000Y17738D02*
X22060Y17798D01*
X22119Y17798D01*
X22179Y17738D01*
X22179Y17619D01*
X18940Y13881D02*
X18881Y13821D01*
X18762Y13821D01*
X18702Y13881D01*
X18702Y14119D01*
X18762Y14179D01*
X18881Y14179D01*
X18940Y14119D01*
X19238Y14179D02*
X19119Y14179D01*
X19060Y14119D01*
X19060Y13881D01*
X19119Y13821D01*
X19238Y13821D01*
X19298Y13881D01*
X19298Y13970D01*
X19238Y14030D01*
X19119Y14030D01*
X19060Y13970D01*
X16643Y10571D02*
X16643Y10929D01*
X17000Y10631D02*
X16940Y10571D01*
X16821Y10571D01*
X16762Y10631D01*
X16762Y10869D01*
X16821Y10929D01*
X16940Y10929D01*
X17000Y10869D01*
X17119Y10929D02*
X17357Y10929D01*
X17119Y10929D02*
X17119Y10780D01*
X17298Y10780D01*
X17357Y10720D01*
X17357Y10631D01*
X17298Y10571D01*
X17119Y10571D01*
X19940Y3381D02*
X19881Y3321D01*
X19762Y3321D01*
X19702Y3381D01*
X19702Y3619D01*
X19762Y3679D01*
X19881Y3679D01*
X19940Y3619D01*
X20060Y3679D02*
X20298Y3679D01*
X20060Y3321D01*
X12940Y2881D02*
X12881Y2821D01*
X12762Y2821D01*
X12702Y2881D01*
X12702Y3119D01*
X12762Y3179D01*
X12881Y3179D01*
X12940Y3119D01*
X13060Y3060D02*
X13060Y3119D01*
X13119Y3179D01*
X13238Y3179D01*
X13298Y3119D01*
X13298Y3060D01*
X13060Y2821D01*
X13298Y2821D01*
X27119Y11762D02*
X27179Y11702D01*
X27179Y11583D01*
X27119Y11524D01*
X26881Y11524D01*
X26821Y11583D01*
X26821Y11702D01*
X26881Y11762D01*
X27179Y12000D02*
X26821Y12000D01*
X26940Y11881D01*
X27179Y12298D02*
X27060Y12238D01*
X26940Y12238D01*
X26821Y12298D01*
X26821Y12417D01*
X26940Y12476D01*
X27060Y12476D01*
X27179Y12417D01*
X27179Y12298D01*
X26119Y3190D02*
X26179Y3131D01*
X26179Y3012D01*
X26119Y2952D01*
X25881Y2952D01*
X25821Y3012D01*
X25821Y3131D01*
X25881Y3190D01*
X26179Y3369D02*
X26179Y3488D01*
X26119Y3548D01*
X25881Y3548D01*
X25821Y3488D01*
X25821Y3369D01*
X25881Y3310D01*
X25970Y3310D01*
X26030Y3369D01*
X26030Y3488D01*
X25970Y3548D01*
X24643Y16321D02*
X24643Y16679D01*
X25000Y16381D02*
X24940Y16321D01*
X24821Y16321D01*
X24762Y16381D01*
X24762Y16619D01*
X24821Y16679D01*
X24940Y16679D01*
X25000Y16619D01*
X25179Y16321D02*
X25298Y16321D01*
X25357Y16381D01*
X25357Y16619D01*
X25298Y16679D01*
X25179Y16679D01*
X25119Y16619D01*
X25119Y16530D01*
X25179Y16470D01*
X25298Y16470D01*
X25357Y16530D01*
X29464Y10321D02*
X29464Y10679D01*
X29821Y10381D02*
X29762Y10321D01*
X29643Y10321D01*
X29583Y10381D01*
X29583Y10619D01*
X29643Y10679D01*
X29762Y10679D01*
X29821Y10619D01*
X30060Y10321D02*
X30060Y10679D01*
X29940Y10560D01*
X30357Y10321D02*
X30298Y10440D01*
X30298Y10560D01*
X30357Y10679D01*
X30476Y10679D01*
X30536Y10560D01*
X30536Y10440D01*
X30476Y10321D01*
X30357Y10321D01*
X36702Y13071D02*
X36702Y13429D01*
X36702Y13190D02*
X36940Y13429D01*
X36762Y13250D02*
X36940Y13071D01*
X37119Y13071D02*
X37238Y13071D01*
X37298Y13131D01*
X37298Y13369D01*
X37238Y13429D01*
X37119Y13429D01*
X37060Y13369D01*
X37060Y13280D01*
X37119Y13220D01*
X37238Y13220D01*
X37298Y13280D01*
X36702Y6571D02*
X36702Y6929D01*
X36702Y6690D02*
X36940Y6929D01*
X36762Y6750D02*
X36940Y6571D01*
X37119Y6571D02*
X37060Y6631D01*
X37060Y6690D01*
X37119Y6750D01*
X37238Y6750D01*
X37298Y6810D01*
X37298Y6869D01*
X37238Y6929D01*
X37119Y6929D01*
X37060Y6869D01*
X37060Y6810D01*
X37119Y6750D01*
X37238Y6750D02*
X37298Y6690D01*
X37298Y6631D01*
X37238Y6571D01*
X37119Y6571D01*
X30202Y2321D02*
X30202Y2679D01*
X30202Y2440D02*
X30440Y2679D01*
X30262Y2500D02*
X30440Y2321D01*
X30738Y2679D02*
X30619Y2679D01*
X30560Y2619D01*
X30560Y2381D01*
X30619Y2321D01*
X30738Y2321D01*
X30798Y2381D01*
X30798Y2470D01*
X30738Y2530D01*
X30619Y2530D01*
X30560Y2470D01*
X33179Y11024D02*
X32821Y11024D01*
X32821Y11202D01*
X32881Y11262D01*
X32940Y11262D01*
X33000Y11202D01*
X33000Y11024D01*
X33179Y11262D01*
X33179Y11500D02*
X32821Y11500D01*
X32940Y11381D01*
X32881Y11738D02*
X32821Y11798D01*
X32821Y11917D01*
X32881Y11976D01*
X32940Y11976D01*
X33000Y11917D01*
X33000Y11827D01*
X33000Y11917D02*
X33060Y11976D01*
X33119Y11976D01*
X33179Y11917D01*
X33179Y11798D01*
X33119Y11738D01*
X29774Y7321D02*
X29774Y7679D01*
X29952Y7679D01*
X30012Y7619D01*
X30012Y7560D01*
X29952Y7500D01*
X29774Y7500D01*
X30012Y7321D01*
X30250Y7321D02*
X30250Y7679D01*
X30131Y7560D01*
X30488Y7560D02*
X30488Y7619D01*
X30548Y7679D01*
X30667Y7679D01*
X30726Y7619D01*
X30726Y7560D01*
X30488Y7321D01*
X30726Y7321D01*
X29774Y6321D02*
X29774Y6679D01*
X29952Y6679D01*
X30012Y6619D01*
X30012Y6560D01*
X29952Y6500D01*
X29774Y6500D01*
X30012Y6321D01*
X30250Y6321D02*
X30250Y6679D01*
X30131Y6560D01*
X30607Y6321D02*
X30607Y6679D01*
X30488Y6560D01*
X22643Y3321D02*
X22643Y3679D01*
X23000Y3381D02*
X22940Y3321D01*
X22821Y3321D01*
X22762Y3381D01*
X22762Y3619D01*
X22821Y3679D01*
X22940Y3679D01*
X23000Y3619D01*
X23119Y3679D02*
X23357Y3679D01*
X23119Y3321D01*
X23643Y11821D02*
X23643Y12179D01*
X24000Y11881D02*
X23940Y11821D01*
X23821Y11821D01*
X23762Y11881D01*
X23762Y12119D01*
X23821Y12179D01*
X23940Y12179D01*
X24000Y12119D01*
X24179Y11821D02*
X24119Y11881D01*
X24119Y11940D01*
X24179Y12000D01*
X24298Y12000D01*
X24357Y12060D01*
X24357Y12119D01*
X24298Y12179D01*
X24179Y12179D01*
X24119Y12119D01*
X24119Y12060D01*
X24179Y12000D01*
X24298Y12000D02*
X24357Y11940D01*
X24357Y11881D01*
X24298Y11821D01*
X24179Y11821D01*
X1702Y6571D02*
X1702Y6929D01*
X1702Y6690D02*
X1940Y6929D01*
X1762Y6750D02*
X1940Y6571D01*
X2179Y6571D02*
X2179Y6929D01*
X2060Y6810D01*
X1702Y13071D02*
X1702Y13429D01*
X1702Y13190D02*
X1940Y13429D01*
X1762Y13250D02*
X1940Y13071D01*
X2060Y13310D02*
X2060Y13369D01*
X2119Y13429D01*
X2238Y13429D01*
X2298Y13369D01*
X2298Y13310D01*
X2060Y13071D01*
X2298Y13071D01*
X8202Y17321D02*
X8202Y17679D01*
X8202Y17440D02*
X8440Y17679D01*
X8262Y17500D02*
X8440Y17321D01*
X8738Y17321D02*
X8738Y17679D01*
X8560Y17440D01*
X8798Y17440D01*
X8202Y13321D02*
X8202Y13679D01*
X8381Y13679D01*
X8440Y13619D01*
X8440Y13560D01*
X8381Y13500D01*
X8202Y13500D01*
X8440Y13321D01*
X8738Y13321D02*
X8738Y13679D01*
X8560Y13440D01*
X8798Y13440D01*
X6179Y11702D02*
X5821Y11702D01*
X5821Y11881D01*
X5881Y11940D01*
X5940Y11940D01*
X6000Y11881D01*
X6000Y11702D01*
X6179Y11940D01*
X5881Y12060D02*
X5821Y12119D01*
X5821Y12238D01*
X5881Y12298D01*
X5940Y12298D01*
X6000Y12238D01*
X6000Y12149D01*
X6000Y12238D02*
X6060Y12298D01*
X6119Y12298D01*
X6179Y12238D01*
X6179Y12119D01*
X6119Y12060D01*
X6179Y7702D02*
X5821Y7702D01*
X5821Y7881D01*
X5881Y7940D01*
X5940Y7940D01*
X6000Y7881D01*
X6000Y7702D01*
X6179Y7940D01*
X5940Y8060D02*
X5881Y8060D01*
X5821Y8119D01*
X5821Y8238D01*
X5881Y8298D01*
X5940Y8298D01*
X6179Y8060D01*
X6179Y8298D01*
X8643Y10321D02*
X8643Y10679D01*
X9000Y10381D02*
X8940Y10321D01*
X8821Y10321D01*
X8762Y10381D01*
X8762Y10619D01*
X8821Y10679D01*
X8940Y10679D01*
X9000Y10619D01*
X9238Y10321D02*
X9238Y10679D01*
X9119Y10560D01*
X12643Y16321D02*
X12643Y16679D01*
X13000Y16381D02*
X12940Y16321D01*
X12821Y16321D01*
X12762Y16381D01*
X12762Y16619D01*
X12821Y16679D01*
X12940Y16679D01*
X13000Y16619D01*
X13119Y16619D02*
X13179Y16679D01*
X13298Y16679D01*
X13357Y16619D01*
X13357Y16560D01*
X13298Y16500D01*
X13208Y16500D01*
X13298Y16500D02*
X13357Y16440D01*
X13357Y16381D01*
X13298Y16321D01*
X13179Y16321D01*
X13119Y16381D01*
X12643Y11821D02*
X12643Y12179D01*
X13000Y11881D02*
X12940Y11821D01*
X12821Y11821D01*
X12762Y11881D01*
X12762Y12119D01*
X12821Y12179D01*
X12940Y12179D01*
X13000Y12119D01*
X13119Y12060D02*
X13119Y12119D01*
X13179Y12179D01*
X13298Y12179D01*
X13357Y12119D01*
X13357Y12060D01*
X13119Y11821D01*
X13357Y11821D01*
X15643Y2821D02*
X15643Y3179D01*
X16000Y2881D02*
X15940Y2821D01*
X15821Y2821D01*
X15762Y2881D01*
X15762Y3119D01*
X15821Y3179D01*
X15940Y3179D01*
X16000Y3119D01*
X16298Y2821D02*
X16298Y3179D01*
X16119Y2940D01*
X16357Y2940D01*
X18940Y10381D02*
X18881Y10321D01*
X18762Y10321D01*
X18702Y10381D01*
X18702Y10619D01*
X18762Y10679D01*
X18881Y10679D01*
X18940Y10619D01*
X19060Y10679D02*
X19298Y10679D01*
X19060Y10679D02*
X19060Y10530D01*
X19238Y10530D01*
X19298Y10470D01*
X19298Y10381D01*
X19238Y10321D01*
X19060Y10321D01*
X17643Y7321D02*
X17643Y7679D01*
X18000Y7381D02*
X17940Y7321D01*
X17821Y7321D01*
X17762Y7381D01*
X17762Y7619D01*
X17821Y7679D01*
X17940Y7679D01*
X18000Y7619D01*
X18298Y7679D02*
X18179Y7679D01*
X18119Y7619D01*
X18119Y7381D01*
X18179Y7321D01*
X18298Y7321D01*
X18357Y7381D01*
X18357Y7470D01*
X18298Y7530D01*
X18179Y7530D01*
X18119Y7470D01*
X19119Y3440D02*
X19179Y3381D01*
X19179Y3262D01*
X19119Y3202D01*
X18881Y3202D01*
X18821Y3262D01*
X18821Y3381D01*
X18881Y3440D01*
X19179Y3738D02*
X18821Y3738D01*
X19060Y3560D01*
X19060Y3798D01*
X4952Y17321D02*
X4952Y17679D01*
X5131Y17679D01*
X5190Y17619D01*
X5190Y17381D01*
X5131Y17321D01*
X4952Y17321D01*
X5310Y17619D02*
X5369Y17679D01*
X5488Y17679D01*
X5548Y17619D01*
X5548Y17560D01*
X5488Y17500D01*
X5399Y17500D01*
X5488Y17500D02*
X5548Y17440D01*
X5548Y17381D01*
X5488Y17321D01*
X5369Y17321D01*
X5310Y17381D01*
X2202Y16321D02*
X2202Y16679D01*
X2381Y16679D01*
X2440Y16619D01*
X2440Y16381D01*
X2381Y16321D01*
X2202Y16321D01*
X2560Y16560D02*
X2560Y16619D01*
X2619Y16679D01*
X2738Y16679D01*
X2798Y16619D01*
X2798Y16560D01*
X2560Y16321D01*
X2798Y16321D01*
X2202Y3321D02*
X2202Y3679D01*
X2381Y3679D01*
X2440Y3619D01*
X2440Y3381D01*
X2381Y3321D01*
X2202Y3321D01*
X2679Y3321D02*
X2679Y3679D01*
X2560Y3560D01*
X4952Y2821D02*
X4952Y3179D01*
X5131Y3179D01*
X5190Y3119D01*
X5190Y2881D01*
X5131Y2821D01*
X4952Y2821D01*
X5488Y2821D02*
X5488Y3179D01*
X5310Y2940D01*
X5548Y2940D01*
X11929Y3702D02*
X11571Y3702D01*
X11571Y3881D01*
X11631Y3940D01*
X11690Y3940D01*
X11750Y3881D01*
X11750Y3702D01*
X11929Y3940D01*
X11571Y4238D02*
X11571Y4119D01*
X11631Y4060D01*
X11869Y4060D01*
X11929Y4119D01*
X11929Y4238D01*
X11869Y4298D01*
X11780Y4298D01*
X11720Y4238D01*
X11720Y4119D01*
X11780Y4060D01*
X3202Y9821D02*
X3202Y10179D01*
X3381Y10179D01*
X3440Y10119D01*
X3440Y10060D01*
X3381Y10000D01*
X3202Y10000D01*
X3440Y9821D01*
X3679Y9821D02*
X3679Y10179D01*
X3560Y10060D01*
X11929Y7452D02*
X11571Y7452D01*
X11571Y7631D01*
X11631Y7690D01*
X11690Y7690D01*
X11750Y7631D01*
X11750Y7452D01*
X11929Y7690D01*
X11571Y7810D02*
X11571Y8048D01*
X11929Y7810D01*
X33452Y16821D02*
X33452Y17179D01*
X33631Y17179D01*
X33690Y17119D01*
X33690Y16881D01*
X33631Y16821D01*
X33452Y16821D01*
X33810Y17179D02*
X34048Y17179D01*
X33810Y16821D01*
X36702Y16321D02*
X36702Y16679D01*
X36881Y16679D01*
X36940Y16619D01*
X36940Y16381D01*
X36881Y16321D01*
X36702Y16321D01*
X37119Y16321D02*
X37238Y16321D01*
X37298Y16381D01*
X37298Y16619D01*
X37238Y16679D01*
X37119Y16679D01*
X37060Y16619D01*
X37060Y16530D01*
X37119Y16470D01*
X37238Y16470D01*
X37298Y16530D01*
X36702Y3321D02*
X36702Y3679D01*
X36881Y3679D01*
X36940Y3619D01*
X36940Y3381D01*
X36881Y3321D01*
X36702Y3321D01*
X37238Y3679D02*
X37119Y3679D01*
X37060Y3619D01*
X37060Y3381D01*
X37119Y3321D01*
X37238Y3321D01*
X37298Y3381D01*
X37298Y3470D01*
X37238Y3530D01*
X37119Y3530D01*
X37060Y3470D01*
X33702Y2571D02*
X33702Y2929D01*
X33881Y2929D01*
X33940Y2869D01*
X33940Y2631D01*
X33881Y2571D01*
X33702Y2571D01*
X34119Y2571D02*
X34060Y2631D01*
X34060Y2690D01*
X34119Y2750D01*
X34238Y2750D01*
X34298Y2810D01*
X34298Y2869D01*
X34238Y2929D01*
X34119Y2929D01*
X34060Y2869D01*
X34060Y2810D01*
X34119Y2750D01*
X34238Y2750D02*
X34298Y2690D01*
X34298Y2631D01*
X34238Y2571D01*
X34119Y2571D01*
X35024Y9821D02*
X35024Y10179D01*
X35202Y10179D01*
X35262Y10119D01*
X35262Y10060D01*
X35202Y10000D01*
X35024Y10000D01*
X35262Y9821D01*
X35500Y9821D02*
X35500Y10179D01*
X35381Y10060D01*
X35917Y9821D02*
X35917Y10179D01*
X35738Y9940D01*
X35976Y9940D01*
X27429Y3702D02*
X27071Y3702D01*
X27071Y3881D01*
X27131Y3940D01*
X27190Y3940D01*
X27250Y3881D01*
X27250Y3702D01*
X27429Y3940D01*
X27429Y4119D02*
X27369Y4060D01*
X27310Y4060D01*
X27250Y4119D01*
X27250Y4238D01*
X27190Y4298D01*
X27131Y4298D01*
X27071Y4238D01*
X27071Y4119D01*
X27131Y4060D01*
X27190Y4060D01*
X27250Y4119D01*
X27250Y4238D02*
X27310Y4298D01*
X27369Y4298D01*
X27429Y4238D01*
X27429Y4119D01*
X27429Y7702D02*
X27071Y7702D01*
X27071Y7881D01*
X27131Y7940D01*
X27190Y7940D01*
X27250Y7881D01*
X27250Y7702D01*
X27429Y7940D01*
X27429Y8119D02*
X27429Y8238D01*
X27369Y8298D01*
X27131Y8298D01*
X27071Y8238D01*
X27071Y8119D01*
X27131Y8060D01*
X27220Y8060D01*
X27280Y8119D01*
X27280Y8238D01*
X27220Y8298D01*
X8202Y21506D02*
X8202Y21864D01*
X8202Y21626D02*
X8440Y21864D01*
X8262Y21685D02*
X8440Y21506D01*
X8560Y21804D02*
X8619Y21864D01*
X8738Y21864D01*
X8798Y21804D01*
X8798Y21745D01*
X8738Y21685D01*
X8649Y21685D01*
X8738Y21685D02*
X8798Y21626D01*
X8798Y21566D01*
X8738Y21506D01*
X8619Y21506D01*
X8560Y21566D01*
X17119Y37126D02*
X17179Y37066D01*
X17179Y36947D01*
X17119Y36887D01*
X16881Y36887D01*
X16821Y36947D01*
X16821Y37066D01*
X16881Y37126D01*
X16881Y37245D02*
X16821Y37304D01*
X16821Y37423D01*
X16881Y37483D01*
X16940Y37483D01*
X17000Y37423D01*
X17000Y37334D01*
X17000Y37423D02*
X17060Y37483D01*
X17119Y37483D01*
X17179Y37423D01*
X17179Y37304D01*
X17119Y37245D01*
X19190Y35006D02*
X19190Y35364D01*
X19368Y35364D01*
X19428Y35304D01*
X19428Y35066D01*
X19368Y35006D01*
X19190Y35006D01*
X19547Y35364D02*
X19785Y35364D01*
X19547Y35364D02*
X19547Y35215D01*
X19726Y35215D01*
X19785Y35155D01*
X19785Y35066D01*
X19726Y35006D01*
X19547Y35006D01*
X8940Y27066D02*
X8881Y27006D01*
X8762Y27006D01*
X8702Y27066D01*
X8702Y27304D01*
X8762Y27364D01*
X8881Y27364D01*
X8940Y27304D01*
X9179Y27006D02*
X9179Y27364D01*
X9060Y27245D01*
X8702Y26006D02*
X8702Y26364D01*
X8881Y26364D01*
X8940Y26304D01*
X8940Y26245D01*
X8881Y26185D01*
X8702Y26185D01*
X8940Y26006D01*
X9060Y26364D02*
X9298Y26364D01*
X9060Y26364D02*
X9060Y26215D01*
X9238Y26215D01*
X9298Y26155D01*
X9298Y26066D01*
X9238Y26006D01*
X9060Y26006D01*
X19202Y37317D02*
X19202Y37675D01*
X19202Y37437D02*
X19440Y37675D01*
X19262Y37496D02*
X19440Y37317D01*
X19560Y37675D02*
X19798Y37675D01*
X19560Y37675D02*
X19560Y37526D01*
X19738Y37526D01*
X19798Y37466D01*
X19798Y37377D01*
X19738Y37317D01*
X19560Y37317D01*
X33119Y26947D02*
X33179Y26887D01*
X33179Y26768D01*
X33119Y26709D01*
X32881Y26709D01*
X32821Y26768D01*
X32821Y26887D01*
X32881Y26947D01*
X33179Y27185D02*
X32821Y27185D01*
X32940Y27066D01*
X33179Y27542D02*
X32821Y27542D01*
X32940Y27423D01*
X29524Y33006D02*
X29524Y33364D01*
X29702Y33364D01*
X29762Y33304D01*
X29762Y33245D01*
X29702Y33185D01*
X29524Y33185D01*
X29762Y33006D01*
X30000Y33006D02*
X30000Y33364D01*
X29881Y33245D01*
X30298Y33006D02*
X30238Y33126D01*
X30238Y33245D01*
X30298Y33364D01*
X30417Y33364D01*
X30476Y33245D01*
X30476Y33126D01*
X30417Y33006D01*
X30298Y33006D01*
X29952Y37256D02*
X29952Y37614D01*
X29952Y37376D02*
X30190Y37614D01*
X30012Y37435D02*
X30190Y37256D01*
X30310Y37614D02*
X30548Y37614D01*
X30310Y37256D01*
X22119Y37126D02*
X22179Y37066D01*
X22179Y36947D01*
X22119Y36887D01*
X21881Y36887D01*
X21821Y36947D01*
X21821Y37066D01*
X21881Y37126D01*
X22179Y37304D02*
X22119Y37245D01*
X22060Y37245D01*
X22000Y37304D01*
X22000Y37423D01*
X21940Y37483D01*
X21881Y37483D01*
X21821Y37423D01*
X21821Y37304D01*
X21881Y37245D01*
X21940Y37245D01*
X22000Y37304D01*
X22000Y37423D02*
X22060Y37483D01*
X22119Y37483D01*
X22179Y37423D01*
X22179Y37304D01*
X18940Y33566D02*
X18881Y33506D01*
X18762Y33506D01*
X18702Y33566D01*
X18702Y33804D01*
X18762Y33864D01*
X18881Y33864D01*
X18940Y33804D01*
X19238Y33864D02*
X19119Y33864D01*
X19060Y33804D01*
X19060Y33566D01*
X19119Y33506D01*
X19238Y33506D01*
X19298Y33566D01*
X19298Y33655D01*
X19238Y33715D01*
X19119Y33715D01*
X19060Y33655D01*
X16643Y30256D02*
X16643Y30614D01*
X17000Y30316D02*
X16940Y30256D01*
X16821Y30256D01*
X16762Y30316D01*
X16762Y30554D01*
X16821Y30614D01*
X16940Y30614D01*
X17000Y30554D01*
X17119Y30614D02*
X17357Y30614D01*
X17119Y30614D02*
X17119Y30465D01*
X17298Y30465D01*
X17357Y30405D01*
X17357Y30316D01*
X17298Y30256D01*
X17119Y30256D01*
X19940Y23066D02*
X19881Y23006D01*
X19762Y23006D01*
X19702Y23066D01*
X19702Y23304D01*
X19762Y23364D01*
X19881Y23364D01*
X19940Y23304D01*
X20060Y23364D02*
X20298Y23364D01*
X20060Y23006D01*
X12940Y22566D02*
X12881Y22506D01*
X12762Y22506D01*
X12702Y22566D01*
X12702Y22804D01*
X12762Y22864D01*
X12881Y22864D01*
X12940Y22804D01*
X13060Y22745D02*
X13060Y22804D01*
X13119Y22864D01*
X13238Y22864D01*
X13298Y22804D01*
X13298Y22745D01*
X13060Y22506D01*
X13298Y22506D01*
X27119Y31447D02*
X27179Y31387D01*
X27179Y31268D01*
X27119Y31209D01*
X26881Y31209D01*
X26821Y31268D01*
X26821Y31387D01*
X26881Y31447D01*
X27179Y31685D02*
X26821Y31685D01*
X26940Y31566D01*
X27179Y31983D02*
X27060Y31923D01*
X26940Y31923D01*
X26821Y31983D01*
X26821Y32102D01*
X26940Y32161D01*
X27060Y32161D01*
X27179Y32102D01*
X27179Y31983D01*
X26119Y22876D02*
X26179Y22816D01*
X26179Y22697D01*
X26119Y22637D01*
X25881Y22637D01*
X25821Y22697D01*
X25821Y22816D01*
X25881Y22876D01*
X26179Y23054D02*
X26179Y23173D01*
X26119Y23233D01*
X25881Y23233D01*
X25821Y23173D01*
X25821Y23054D01*
X25881Y22995D01*
X25970Y22995D01*
X26030Y23054D01*
X26030Y23173D01*
X25970Y23233D01*
X24643Y36006D02*
X24643Y36364D01*
X25000Y36066D02*
X24940Y36006D01*
X24821Y36006D01*
X24762Y36066D01*
X24762Y36304D01*
X24821Y36364D01*
X24940Y36364D01*
X25000Y36304D01*
X25179Y36006D02*
X25298Y36006D01*
X25357Y36066D01*
X25357Y36304D01*
X25298Y36364D01*
X25179Y36364D01*
X25119Y36304D01*
X25119Y36215D01*
X25179Y36155D01*
X25298Y36155D01*
X25357Y36215D01*
X29464Y30006D02*
X29464Y30364D01*
X29821Y30066D02*
X29762Y30006D01*
X29643Y30006D01*
X29583Y30066D01*
X29583Y30304D01*
X29643Y30364D01*
X29762Y30364D01*
X29821Y30304D01*
X30060Y30006D02*
X30060Y30364D01*
X29940Y30245D01*
X30357Y30006D02*
X30298Y30126D01*
X30298Y30245D01*
X30357Y30364D01*
X30476Y30364D01*
X30536Y30245D01*
X30536Y30126D01*
X30476Y30006D01*
X30357Y30006D01*
X36702Y32756D02*
X36702Y33114D01*
X36702Y32876D02*
X36940Y33114D01*
X36762Y32935D02*
X36940Y32756D01*
X37119Y32756D02*
X37238Y32756D01*
X37298Y32816D01*
X37298Y33054D01*
X37238Y33114D01*
X37119Y33114D01*
X37060Y33054D01*
X37060Y32965D01*
X37119Y32905D01*
X37238Y32905D01*
X37298Y32965D01*
X36702Y26256D02*
X36702Y26614D01*
X36702Y26376D02*
X36940Y26614D01*
X36762Y26435D02*
X36940Y26256D01*
X37119Y26256D02*
X37060Y26316D01*
X37060Y26376D01*
X37119Y26435D01*
X37238Y26435D01*
X37298Y26495D01*
X37298Y26554D01*
X37238Y26614D01*
X37119Y26614D01*
X37060Y26554D01*
X37060Y26495D01*
X37119Y26435D01*
X37238Y26435D02*
X37298Y26376D01*
X37298Y26316D01*
X37238Y26256D01*
X37119Y26256D01*
X30202Y22006D02*
X30202Y22364D01*
X30202Y22126D02*
X30440Y22364D01*
X30262Y22185D02*
X30440Y22006D01*
X30738Y22364D02*
X30619Y22364D01*
X30560Y22304D01*
X30560Y22066D01*
X30619Y22006D01*
X30738Y22006D01*
X30798Y22066D01*
X30798Y22155D01*
X30738Y22215D01*
X30619Y22215D01*
X30560Y22155D01*
X33179Y30709D02*
X32821Y30709D01*
X32821Y30887D01*
X32881Y30947D01*
X32940Y30947D01*
X33000Y30887D01*
X33000Y30709D01*
X33179Y30947D01*
X33179Y31185D02*
X32821Y31185D01*
X32940Y31066D01*
X32881Y31423D02*
X32821Y31483D01*
X32821Y31602D01*
X32881Y31661D01*
X32940Y31661D01*
X33000Y31602D01*
X33000Y31512D01*
X33000Y31602D02*
X33060Y31661D01*
X33119Y31661D01*
X33179Y31602D01*
X33179Y31483D01*
X33119Y31423D01*
X29774Y27006D02*
X29774Y27364D01*
X29952Y27364D01*
X30012Y27304D01*
X30012Y27245D01*
X29952Y27185D01*
X29774Y27185D01*
X30012Y27006D01*
X30250Y27006D02*
X30250Y27364D01*
X30131Y27245D01*
X30488Y27245D02*
X30488Y27304D01*
X30548Y27364D01*
X30667Y27364D01*
X30726Y27304D01*
X30726Y27245D01*
X30488Y27006D01*
X30726Y27006D01*
X29774Y26006D02*
X29774Y26364D01*
X29952Y26364D01*
X30012Y26304D01*
X30012Y26245D01*
X29952Y26185D01*
X29774Y26185D01*
X30012Y26006D01*
X30250Y26006D02*
X30250Y26364D01*
X30131Y26245D01*
X30607Y26006D02*
X30607Y26364D01*
X30488Y26245D01*
X22643Y23006D02*
X22643Y23364D01*
X23000Y23066D02*
X22940Y23006D01*
X22821Y23006D01*
X22762Y23066D01*
X22762Y23304D01*
X22821Y23364D01*
X22940Y23364D01*
X23000Y23304D01*
X23119Y23364D02*
X23357Y23364D01*
X23119Y23006D01*
X23643Y31506D02*
X23643Y31864D01*
X24000Y31566D02*
X23940Y31506D01*
X23821Y31506D01*
X23762Y31566D01*
X23762Y31804D01*
X23821Y31864D01*
X23940Y31864D01*
X24000Y31804D01*
X24179Y31506D02*
X24119Y31566D01*
X24119Y31626D01*
X24179Y31685D01*
X24298Y31685D01*
X24357Y31745D01*
X24357Y31804D01*
X24298Y31864D01*
X24179Y31864D01*
X24119Y31804D01*
X24119Y31745D01*
X24179Y31685D01*
X24298Y31685D02*
X24357Y31626D01*
X24357Y31566D01*
X24298Y31506D01*
X24179Y31506D01*
X1702Y26256D02*
X1702Y26614D01*
X1702Y26376D02*
X1940Y26614D01*
X1762Y26435D02*
X1940Y26256D01*
X2179Y26256D02*
X2179Y26614D01*
X2060Y26495D01*
X1702Y32756D02*
X1702Y33114D01*
X1702Y32876D02*
X1940Y33114D01*
X1762Y32935D02*
X1940Y32756D01*
X2060Y32995D02*
X2060Y33054D01*
X2119Y33114D01*
X2238Y33114D01*
X2298Y33054D01*
X2298Y32995D01*
X2060Y32756D01*
X2298Y32756D01*
X8202Y37006D02*
X8202Y37364D01*
X8202Y37126D02*
X8440Y37364D01*
X8262Y37185D02*
X8440Y37006D01*
X8738Y37006D02*
X8738Y37364D01*
X8560Y37126D01*
X8798Y37126D01*
X8202Y33006D02*
X8202Y33364D01*
X8381Y33364D01*
X8440Y33304D01*
X8440Y33245D01*
X8381Y33185D01*
X8202Y33185D01*
X8440Y33006D01*
X8738Y33006D02*
X8738Y33364D01*
X8560Y33126D01*
X8798Y33126D01*
X6179Y31387D02*
X5821Y31387D01*
X5821Y31566D01*
X5881Y31626D01*
X5940Y31626D01*
X6000Y31566D01*
X6000Y31387D01*
X6179Y31626D01*
X5881Y31745D02*
X5821Y31804D01*
X5821Y31923D01*
X5881Y31983D01*
X5940Y31983D01*
X6000Y31923D01*
X6000Y31834D01*
X6000Y31923D02*
X6060Y31983D01*
X6119Y31983D01*
X6179Y31923D01*
X6179Y31804D01*
X6119Y31745D01*
X6179Y27387D02*
X5821Y27387D01*
X5821Y27566D01*
X5881Y27626D01*
X5940Y27626D01*
X6000Y27566D01*
X6000Y27387D01*
X6179Y27626D01*
X5940Y27745D02*
X5881Y27745D01*
X5821Y27804D01*
X5821Y27923D01*
X5881Y27983D01*
X5940Y27983D01*
X6179Y27745D01*
X6179Y27983D01*
X8643Y30006D02*
X8643Y30364D01*
X9000Y30066D02*
X8940Y30006D01*
X8821Y30006D01*
X8762Y30066D01*
X8762Y30304D01*
X8821Y30364D01*
X8940Y30364D01*
X9000Y30304D01*
X9238Y30006D02*
X9238Y30364D01*
X9119Y30245D01*
X12643Y36006D02*
X12643Y36364D01*
X13000Y36066D02*
X12940Y36006D01*
X12821Y36006D01*
X12762Y36066D01*
X12762Y36304D01*
X12821Y36364D01*
X12940Y36364D01*
X13000Y36304D01*
X13119Y36304D02*
X13179Y36364D01*
X13298Y36364D01*
X13357Y36304D01*
X13357Y36245D01*
X13298Y36185D01*
X13208Y36185D01*
X13298Y36185D02*
X13357Y36126D01*
X13357Y36066D01*
X13298Y36006D01*
X13179Y36006D01*
X13119Y36066D01*
X12643Y31506D02*
X12643Y31864D01*
X13000Y31566D02*
X12940Y31506D01*
X12821Y31506D01*
X12762Y31566D01*
X12762Y31804D01*
X12821Y31864D01*
X12940Y31864D01*
X13000Y31804D01*
X13119Y31745D02*
X13119Y31804D01*
X13179Y31864D01*
X13298Y31864D01*
X13357Y31804D01*
X13357Y31745D01*
X13119Y31506D01*
X13357Y31506D01*
X15643Y22506D02*
X15643Y22864D01*
X16000Y22566D02*
X15940Y22506D01*
X15821Y22506D01*
X15762Y22566D01*
X15762Y22804D01*
X15821Y22864D01*
X15940Y22864D01*
X16000Y22804D01*
X16298Y22506D02*
X16298Y22864D01*
X16119Y22626D01*
X16357Y22626D01*
X18940Y30066D02*
X18881Y30006D01*
X18762Y30006D01*
X18702Y30066D01*
X18702Y30304D01*
X18762Y30364D01*
X18881Y30364D01*
X18940Y30304D01*
X19060Y30364D02*
X19298Y30364D01*
X19060Y30364D02*
X19060Y30215D01*
X19238Y30215D01*
X19298Y30155D01*
X19298Y30066D01*
X19238Y30006D01*
X19060Y30006D01*
X17643Y27006D02*
X17643Y27364D01*
X18000Y27066D02*
X17940Y27006D01*
X17821Y27006D01*
X17762Y27066D01*
X17762Y27304D01*
X17821Y27364D01*
X17940Y27364D01*
X18000Y27304D01*
X18298Y27364D02*
X18179Y27364D01*
X18119Y27304D01*
X18119Y27066D01*
X18179Y27006D01*
X18298Y27006D01*
X18357Y27066D01*
X18357Y27155D01*
X18298Y27215D01*
X18179Y27215D01*
X18119Y27155D01*
X19119Y23126D02*
X19179Y23066D01*
X19179Y22947D01*
X19119Y22887D01*
X18881Y22887D01*
X18821Y22947D01*
X18821Y23066D01*
X18881Y23126D01*
X19179Y23423D02*
X18821Y23423D01*
X19060Y23245D01*
X19060Y23483D01*
X4952Y37006D02*
X4952Y37364D01*
X5131Y37364D01*
X5190Y37304D01*
X5190Y37066D01*
X5131Y37006D01*
X4952Y37006D01*
X5310Y37304D02*
X5369Y37364D01*
X5488Y37364D01*
X5548Y37304D01*
X5548Y37245D01*
X5488Y37185D01*
X5399Y37185D01*
X5488Y37185D02*
X5548Y37126D01*
X5548Y37066D01*
X5488Y37006D01*
X5369Y37006D01*
X5310Y37066D01*
X2202Y36006D02*
X2202Y36364D01*
X2381Y36364D01*
X2440Y36304D01*
X2440Y36066D01*
X2381Y36006D01*
X2202Y36006D01*
X2560Y36245D02*
X2560Y36304D01*
X2619Y36364D01*
X2738Y36364D01*
X2798Y36304D01*
X2798Y36245D01*
X2560Y36006D01*
X2798Y36006D01*
X2202Y23006D02*
X2202Y23364D01*
X2381Y23364D01*
X2440Y23304D01*
X2440Y23066D01*
X2381Y23006D01*
X2202Y23006D01*
X2679Y23006D02*
X2679Y23364D01*
X2560Y23245D01*
X4952Y22506D02*
X4952Y22864D01*
X5131Y22864D01*
X5190Y22804D01*
X5190Y22566D01*
X5131Y22506D01*
X4952Y22506D01*
X5488Y22506D02*
X5488Y22864D01*
X5310Y22626D01*
X5548Y22626D01*
X11929Y23387D02*
X11571Y23387D01*
X11571Y23566D01*
X11631Y23626D01*
X11690Y23626D01*
X11750Y23566D01*
X11750Y23387D01*
X11929Y23626D01*
X11571Y23923D02*
X11571Y23804D01*
X11631Y23745D01*
X11869Y23745D01*
X11929Y23804D01*
X11929Y23923D01*
X11869Y23983D01*
X11780Y23983D01*
X11720Y23923D01*
X11720Y23804D01*
X11780Y23745D01*
X3202Y29506D02*
X3202Y29864D01*
X3381Y29864D01*
X3440Y29804D01*
X3440Y29745D01*
X3381Y29685D01*
X3202Y29685D01*
X3440Y29506D01*
X3679Y29506D02*
X3679Y29864D01*
X3560Y29745D01*
X11929Y27137D02*
X11571Y27137D01*
X11571Y27316D01*
X11631Y27376D01*
X11690Y27376D01*
X11750Y27316D01*
X11750Y27137D01*
X11929Y27376D01*
X11571Y27495D02*
X11571Y27733D01*
X11929Y27495D01*
X33452Y36506D02*
X33452Y36864D01*
X33631Y36864D01*
X33690Y36804D01*
X33690Y36566D01*
X33631Y36506D01*
X33452Y36506D01*
X33810Y36864D02*
X34048Y36864D01*
X33810Y36506D01*
X36702Y36006D02*
X36702Y36364D01*
X36881Y36364D01*
X36940Y36304D01*
X36940Y36066D01*
X36881Y36006D01*
X36702Y36006D01*
X37119Y36006D02*
X37238Y36006D01*
X37298Y36066D01*
X37298Y36304D01*
X37238Y36364D01*
X37119Y36364D01*
X37060Y36304D01*
X37060Y36215D01*
X37119Y36155D01*
X37238Y36155D01*
X37298Y36215D01*
X36702Y23006D02*
X36702Y23364D01*
X36881Y23364D01*
X36940Y23304D01*
X36940Y23066D01*
X36881Y23006D01*
X36702Y23006D01*
X37238Y23364D02*
X37119Y23364D01*
X37060Y23304D01*
X37060Y23066D01*
X37119Y23006D01*
X37238Y23006D01*
X37298Y23066D01*
X37298Y23155D01*
X37238Y23215D01*
X37119Y23215D01*
X37060Y23155D01*
X33702Y22256D02*
X33702Y22614D01*
X33881Y22614D01*
X33940Y22554D01*
X33940Y22316D01*
X33881Y22256D01*
X33702Y22256D01*
X34119Y22256D02*
X34060Y22316D01*
X34060Y22376D01*
X34119Y22435D01*
X34238Y22435D01*
X34298Y22495D01*
X34298Y22554D01*
X34238Y22614D01*
X34119Y22614D01*
X34060Y22554D01*
X34060Y22495D01*
X34119Y22435D01*
X34238Y22435D02*
X34298Y22376D01*
X34298Y22316D01*
X34238Y22256D01*
X34119Y22256D01*
X35024Y29506D02*
X35024Y29864D01*
X35202Y29864D01*
X35262Y29804D01*
X35262Y29745D01*
X35202Y29685D01*
X35024Y29685D01*
X35262Y29506D01*
X35500Y29506D02*
X35500Y29864D01*
X35381Y29745D01*
X35917Y29506D02*
X35917Y29864D01*
X35738Y29626D01*
X35976Y29626D01*
X27429Y23387D02*
X27071Y23387D01*
X27071Y23566D01*
X27131Y23626D01*
X27190Y23626D01*
X27250Y23566D01*
X27250Y23387D01*
X27429Y23626D01*
X27429Y23804D02*
X27369Y23745D01*
X27310Y23745D01*
X27250Y23804D01*
X27250Y23923D01*
X27190Y23983D01*
X27131Y23983D01*
X27071Y23923D01*
X27071Y23804D01*
X27131Y23745D01*
X27190Y23745D01*
X27250Y23804D01*
X27250Y23923D02*
X27310Y23983D01*
X27369Y23983D01*
X27429Y23923D01*
X27429Y23804D01*
X27429Y27387D02*
X27071Y27387D01*
X27071Y27566D01*
X27131Y27626D01*
X27190Y27626D01*
X27250Y27566D01*
X27250Y27387D01*
X27429Y27626D01*
X27429Y27804D02*
X27429Y27923D01*
X27369Y27983D01*
X27131Y27983D01*
X27071Y27923D01*
X27071Y27804D01*
X27131Y27745D01*
X27220Y27745D01*
X27280Y27804D01*
X27280Y27923D01*
X27220Y27983D01*
D11*
G01X11125Y69D02*
X11125Y5750D01*
X5875Y69D02*
X5875Y5750D01*
X11125Y5750D02*
X5875Y5750D01*
X16500Y16000D02*
X16500Y19000D01*
X17500Y16000D02*
X17500Y19000D01*
X16500Y19000D02*
X17500Y19000D01*
X16500Y16000D02*
X17500Y16000D01*
X21487Y15500D02*
X20487Y15500D01*
X20487Y14975D02*
X20487Y16025D01*
X17512Y15500D02*
X18487Y15500D01*
X18487Y14975D02*
X18487Y16025D01*
X20487Y14975D02*
X18487Y14975D01*
X20487Y16025D02*
X18487Y16025D01*
X18737Y14975D02*
X18737Y16025D01*
X10500Y7000D02*
X7500Y7000D01*
X10500Y8000D02*
X7500Y8000D01*
X7500Y7000D02*
X7500Y8000D01*
X10500Y7000D02*
X10500Y8000D01*
X8125Y6125D02*
X9875Y6125D01*
X7500Y6500D02*
X8125Y6500D01*
X8125Y6875D02*
X8125Y6125D01*
X8125Y6875D02*
X9875Y6875D01*
X9875Y6125D01*
X10500Y6500D02*
X9875Y6500D01*
X17827Y19484D02*
X21173Y19484D01*
X17827Y17516D02*
X21173Y17516D01*
X17827Y19484D02*
X17827Y16728D01*
X21173Y19484D02*
X21173Y16728D01*
X17827Y16728D02*
X21173Y16728D01*
X33500Y9000D02*
X33500Y6000D01*
X32500Y9000D02*
X32500Y6000D01*
X33500Y6000D02*
X32500Y6000D01*
X33500Y9000D02*
X32500Y9000D01*
X30875Y13875D02*
X29125Y13875D01*
X31500Y13500D02*
X30875Y13500D01*
X30875Y13125D02*
X30875Y13875D01*
X30875Y13125D02*
X29125Y13125D01*
X29125Y13875D01*
X28500Y13500D02*
X29125Y13500D01*
X27875Y19616D02*
X27875Y14250D01*
X33125Y19616D02*
X33125Y14250D01*
X27875Y14250D02*
X33125Y14250D01*
X21500Y16000D02*
X21500Y19000D01*
X22500Y16000D02*
X22500Y19000D01*
X21500Y19000D02*
X22500Y19000D01*
X21500Y16000D02*
X22500Y16000D01*
X17500Y14500D02*
X20500Y14500D01*
X17500Y13500D02*
X20500Y13500D01*
X20500Y14500D02*
X20500Y13500D01*
X17500Y14500D02*
X17500Y13500D01*
X16875Y12750D02*
X21125Y12750D01*
X16875Y11375D02*
X21125Y11375D01*
X16875Y12750D02*
X16875Y11375D01*
X21125Y12750D02*
X21125Y11375D01*
X16875Y13125D02*
X21125Y13125D01*
X19500Y2000D02*
X19500Y5000D01*
X20500Y2000D02*
X20500Y5000D01*
X19500Y5000D02*
X20500Y5000D01*
X19500Y2000D02*
X20500Y2000D01*
X12500Y1500D02*
X12500Y4500D01*
X13500Y1500D02*
X13500Y4500D01*
X12500Y4500D02*
X13500Y4500D01*
X12500Y1500D02*
X13500Y1500D01*
X27500Y13500D02*
X27500Y10500D01*
X26500Y13500D02*
X26500Y10500D01*
X27500Y10500D02*
X26500Y10500D01*
X27500Y13500D02*
X26500Y13500D01*
X25500Y1750D02*
X25500Y4750D01*
X26500Y1750D02*
X26500Y4750D01*
X25500Y4750D02*
X26500Y4750D01*
X25500Y1750D02*
X26500Y1750D01*
X22750Y16750D02*
X22914Y16729D01*
X23031Y16672D01*
X23102Y16592D01*
X23125Y16500D01*
X23102Y16408D01*
X23031Y16328D01*
X22914Y16271D01*
X22750Y16250D01*
X22750Y16750D02*
X22750Y18500D01*
X22750Y16250D02*
X22750Y14500D01*
X22750Y18500D02*
X27250Y18500D01*
X27250Y14500D01*
X22750Y14500D01*
X27750Y10750D02*
X27914Y10729D01*
X28031Y10672D01*
X28102Y10592D01*
X28125Y10500D01*
X28102Y10408D01*
X28031Y10328D01*
X27914Y10271D01*
X27750Y10250D01*
X27750Y10750D02*
X27750Y12500D01*
X27750Y10250D02*
X27750Y8500D01*
X27750Y12500D02*
X32250Y12500D01*
X32250Y8500D01*
X27750Y8500D01*
X39301Y15875D02*
X33750Y15875D01*
X39301Y10625D02*
X33750Y10625D01*
X33750Y15875D02*
X33750Y10625D01*
X39301Y9375D02*
X33750Y9375D01*
X39301Y4125D02*
X33750Y4125D01*
X33750Y9375D02*
X33750Y4125D01*
X33125Y69D02*
X33125Y5750D01*
X27875Y69D02*
X27875Y5750D01*
X33125Y5750D02*
X27875Y5750D01*
X32625Y12375D02*
X32625Y10625D01*
X33000Y13000D02*
X33000Y12375D01*
X33375Y12375D02*
X32625Y12375D01*
X33375Y12375D02*
X33375Y10625D01*
X32625Y10625D01*
X33000Y10000D02*
X33000Y10625D01*
X29375Y7125D02*
X31125Y7125D01*
X28750Y7500D02*
X29375Y7500D01*
X29375Y7875D02*
X29375Y7125D01*
X29375Y7875D02*
X31125Y7875D01*
X31125Y7125D01*
X31750Y7500D02*
X31125Y7500D01*
X29375Y6125D02*
X31125Y6125D01*
X28750Y6500D02*
X29375Y6500D01*
X29375Y6875D02*
X29375Y6125D01*
X29375Y6875D02*
X31125Y6875D01*
X31125Y6125D01*
X31750Y6500D02*
X31125Y6500D01*
X20750Y3250D02*
X20914Y3229D01*
X21031Y3172D01*
X21102Y3092D01*
X21125Y3000D01*
X21102Y2908D01*
X21031Y2828D01*
X20914Y2771D01*
X20750Y2750D01*
X20750Y3250D02*
X20750Y5000D01*
X20750Y2750D02*
X20750Y1000D01*
X20750Y5000D02*
X25250Y5000D01*
X25250Y1000D01*
X20750Y1000D01*
X21750Y12250D02*
X21914Y12229D01*
X22031Y12172D01*
X22102Y12092D01*
X22125Y12000D01*
X22102Y11908D01*
X22031Y11828D01*
X21914Y11771D01*
X21750Y11750D01*
X21750Y12250D02*
X21750Y14000D01*
X21750Y11750D02*
X21750Y10000D01*
X21750Y14000D02*
X26250Y14000D01*
X26250Y10000D01*
X21750Y10000D01*
X69Y4125D02*
X5250Y4125D01*
X69Y9375D02*
X5250Y9375D01*
X5250Y4125D02*
X5250Y9375D01*
X69Y10625D02*
X5250Y10625D01*
X69Y15875D02*
X5250Y15875D01*
X5250Y10625D02*
X5250Y15875D01*
X5875Y19616D02*
X5875Y14250D01*
X11125Y19616D02*
X11125Y14250D01*
X5875Y14250D02*
X11125Y14250D01*
X7625Y13125D02*
X9375Y13125D01*
X7000Y13500D02*
X7625Y13500D01*
X7625Y13875D02*
X7625Y13125D01*
X7625Y13875D02*
X9375Y13875D01*
X9375Y13125D01*
X10000Y13500D02*
X9375Y13500D01*
X6375Y11125D02*
X6375Y12875D01*
X6000Y10500D02*
X6000Y11125D01*
X5625Y11125D02*
X6375Y11125D01*
X5625Y11125D02*
X5625Y12875D01*
X6375Y12875D01*
X6000Y13500D02*
X6000Y12875D01*
X6375Y7125D02*
X6375Y8875D01*
X6000Y6500D02*
X6000Y7125D01*
X5625Y7125D02*
X6375Y7125D01*
X5625Y7125D02*
X5625Y8875D01*
X6375Y8875D01*
X6000Y9500D02*
X6000Y8875D01*
X6750Y10750D02*
X6914Y10729D01*
X7031Y10672D01*
X7102Y10592D01*
X7125Y10500D01*
X7102Y10408D01*
X7031Y10328D01*
X6914Y10271D01*
X6750Y10250D01*
X6750Y10750D02*
X6750Y12500D01*
X6750Y10250D02*
X6750Y8500D01*
X6750Y12500D02*
X11250Y12500D01*
X11250Y8500D01*
X6750Y8500D01*
X11750Y16750D02*
X11914Y16729D01*
X12031Y16672D01*
X12102Y16592D01*
X12125Y16500D01*
X12102Y16408D01*
X12031Y16328D01*
X11914Y16271D01*
X11750Y16250D01*
X11750Y16750D02*
X11750Y18500D01*
X11750Y16250D02*
X11750Y14500D01*
X11750Y18500D02*
X16250Y18500D01*
X16250Y14500D01*
X11750Y14500D01*
X11750Y12250D02*
X11914Y12229D01*
X12031Y12172D01*
X12102Y12092D01*
X12125Y12000D01*
X12102Y11908D01*
X12031Y11828D01*
X11914Y11771D01*
X11750Y11750D01*
X11750Y12250D02*
X11750Y14000D01*
X11750Y11750D02*
X11750Y10000D01*
X11750Y14000D02*
X16250Y14000D01*
X16250Y10000D01*
X11750Y10000D01*
X13750Y3250D02*
X13914Y3229D01*
X14031Y3172D01*
X14102Y3092D01*
X14125Y3000D01*
X14102Y2908D01*
X14031Y2828D01*
X13914Y2771D01*
X13750Y2750D01*
X13750Y3250D02*
X13750Y5000D01*
X13750Y2750D02*
X13750Y1000D01*
X13750Y5000D02*
X18250Y5000D01*
X18250Y1000D01*
X13750Y1000D01*
X20500Y10000D02*
X17500Y10000D01*
X20500Y11000D02*
X17500Y11000D01*
X17500Y10000D02*
X17500Y11000D01*
X20500Y10000D02*
X20500Y11000D01*
X12250Y7750D02*
X12414Y7729D01*
X12531Y7672D01*
X12602Y7592D01*
X12625Y7500D01*
X12602Y7408D01*
X12531Y7328D01*
X12414Y7271D01*
X12250Y7250D01*
X12250Y7750D02*
X12250Y9500D01*
X12250Y7250D02*
X12250Y5500D01*
X12250Y9500D02*
X26750Y9500D01*
X26750Y5500D01*
X12250Y5500D01*
X18500Y2000D02*
X18500Y5000D01*
X19500Y2000D02*
X19500Y5000D01*
X18500Y5000D02*
X19500Y5000D01*
X18500Y2000D02*
X19500Y2000D01*
X5051Y19006D02*
X4938Y19107D01*
X4811Y19181D01*
X4674Y19228D01*
X4532Y19247D01*
X4389Y19240D01*
X4249Y19205D01*
X4116Y19142D01*
X3994Y19051D01*
X3893Y18938D01*
X3819Y18811D01*
X3772Y18674D01*
X3753Y18532D01*
X3760Y18389D01*
X3795Y18249D01*
X3858Y18116D01*
X3949Y17994D01*
X4062Y17893D01*
X4189Y17819D01*
X4326Y17772D01*
X4468Y17753D01*
X4611Y17760D01*
X4751Y17795D01*
X4884Y17858D01*
X5006Y17949D01*
X5051Y17994D01*
X5051Y19006D02*
X5051Y17994D01*
X3199Y16494D02*
X3312Y16393D01*
X3439Y16319D01*
X3576Y16272D01*
X3718Y16253D01*
X3861Y16260D01*
X4001Y16295D01*
X4134Y16358D01*
X4256Y16449D01*
X4357Y16562D01*
X4431Y16689D01*
X4478Y16826D01*
X4497Y16968D01*
X4490Y17111D01*
X4455Y17251D01*
X4392Y17384D01*
X4301Y17506D01*
X4188Y17607D01*
X4061Y17681D01*
X3924Y17728D01*
X3782Y17747D01*
X3639Y17740D01*
X3499Y17705D01*
X3366Y17642D01*
X3244Y17551D01*
X3199Y17506D01*
X3199Y16494D02*
X3199Y17506D01*
X3199Y2494D02*
X3312Y2393D01*
X3439Y2319D01*
X3576Y2272D01*
X3718Y2253D01*
X3861Y2260D01*
X4001Y2295D01*
X4134Y2358D01*
X4256Y2449D01*
X4357Y2562D01*
X4431Y2689D01*
X4478Y2826D01*
X4497Y2968D01*
X4490Y3111D01*
X4455Y3251D01*
X4392Y3384D01*
X4301Y3506D01*
X4188Y3607D01*
X4061Y3681D01*
X3924Y3728D01*
X3782Y3747D01*
X3639Y3740D01*
X3499Y3705D01*
X3366Y3642D01*
X3244Y3551D01*
X3199Y3506D01*
X3199Y2494D02*
X3199Y3506D01*
X5301Y2006D02*
X5188Y2107D01*
X5061Y2181D01*
X4924Y2228D01*
X4782Y2247D01*
X4639Y2240D01*
X4499Y2205D01*
X4366Y2142D01*
X4244Y2051D01*
X4143Y1938D01*
X4069Y1811D01*
X4022Y1674D01*
X4003Y1532D01*
X4010Y1389D01*
X4045Y1249D01*
X4108Y1116D01*
X4199Y994D01*
X4312Y893D01*
X4439Y819D01*
X4576Y772D01*
X4718Y753D01*
X4861Y760D01*
X5001Y795D01*
X5134Y858D01*
X5256Y949D01*
X5301Y994D01*
X5301Y2006D02*
X5301Y994D01*
X12125Y3125D02*
X12125Y4875D01*
X11750Y2500D02*
X11750Y3125D01*
X11375Y3125D02*
X12125Y3125D01*
X11375Y3125D02*
X11375Y4875D01*
X12125Y4875D01*
X11750Y5500D02*
X11750Y4875D01*
X2625Y9625D02*
X4375Y9625D01*
X2000Y10000D02*
X2625Y10000D01*
X2625Y10375D02*
X2625Y9625D01*
X2625Y10375D02*
X4375Y10375D01*
X4375Y9625D01*
X5000Y10000D02*
X4375Y10000D01*
X11375Y8625D02*
X11375Y6875D01*
X11750Y9250D02*
X11750Y8625D01*
X12125Y8625D02*
X11375Y8625D01*
X12125Y8625D02*
X12125Y6875D01*
X11375Y6875D01*
X11750Y6250D02*
X11750Y6875D01*
X33699Y17744D02*
X33812Y17643D01*
X33939Y17569D01*
X34076Y17522D01*
X34218Y17503D01*
X34361Y17510D01*
X34501Y17545D01*
X34634Y17608D01*
X34756Y17699D01*
X34857Y17812D01*
X34931Y17939D01*
X34978Y18076D01*
X34997Y18218D01*
X34990Y18361D01*
X34955Y18501D01*
X34892Y18634D01*
X34801Y18756D01*
X34688Y18857D01*
X34561Y18931D01*
X34424Y18978D01*
X34282Y18997D01*
X34139Y18990D01*
X33999Y18955D01*
X33866Y18892D01*
X33744Y18801D01*
X33699Y18756D01*
X33699Y17744D02*
X33699Y18756D01*
X36301Y17506D02*
X36188Y17607D01*
X36061Y17681D01*
X35924Y17728D01*
X35782Y17747D01*
X35639Y17740D01*
X35499Y17705D01*
X35366Y17642D01*
X35244Y17551D01*
X35143Y17438D01*
X35069Y17311D01*
X35022Y17174D01*
X35003Y17032D01*
X35010Y16889D01*
X35045Y16749D01*
X35108Y16616D01*
X35199Y16494D01*
X35312Y16393D01*
X35439Y16319D01*
X35576Y16272D01*
X35718Y16253D01*
X35861Y16260D01*
X36001Y16295D01*
X36134Y16358D01*
X36256Y16449D01*
X36301Y16494D01*
X36301Y17506D02*
X36301Y16494D01*
X36301Y3506D02*
X36188Y3607D01*
X36061Y3681D01*
X35924Y3728D01*
X35782Y3747D01*
X35639Y3740D01*
X35499Y3705D01*
X35366Y3642D01*
X35244Y3551D01*
X35143Y3438D01*
X35069Y3311D01*
X35022Y3174D01*
X35003Y3032D01*
X35010Y2889D01*
X35045Y2749D01*
X35108Y2616D01*
X35199Y2494D01*
X35312Y2393D01*
X35439Y2319D01*
X35576Y2272D01*
X35718Y2253D01*
X35861Y2260D01*
X36001Y2295D01*
X36134Y2358D01*
X36256Y2449D01*
X36301Y2494D01*
X36301Y3506D02*
X36301Y2494D01*
X33949Y994D02*
X34062Y893D01*
X34189Y819D01*
X34326Y772D01*
X34468Y753D01*
X34611Y760D01*
X34751Y795D01*
X34884Y858D01*
X35006Y949D01*
X35107Y1062D01*
X35181Y1189D01*
X35228Y1326D01*
X35247Y1468D01*
X35240Y1611D01*
X35205Y1751D01*
X35142Y1884D01*
X35051Y2006D01*
X34938Y2107D01*
X34811Y2181D01*
X34674Y2228D01*
X34532Y2247D01*
X34389Y2240D01*
X34249Y2205D01*
X34116Y2142D01*
X33994Y2051D01*
X33949Y2006D01*
X33949Y994D02*
X33949Y2006D01*
X36375Y10375D02*
X34625Y10375D01*
X37000Y10000D02*
X36375Y10000D01*
X36375Y9625D02*
X36375Y10375D01*
X36375Y9625D02*
X34625Y9625D01*
X34625Y10375D01*
X34000Y10000D02*
X34625Y10000D01*
X27625Y3125D02*
X27625Y4875D01*
X27250Y2500D02*
X27250Y3125D01*
X26875Y3125D02*
X27625Y3125D01*
X26875Y3125D02*
X26875Y4875D01*
X27625Y4875D01*
X27250Y5500D02*
X27250Y4875D01*
X26875Y8875D02*
X26875Y7125D01*
X27250Y9500D02*
X27250Y8875D01*
X27625Y8875D02*
X26875Y8875D01*
X27625Y8875D02*
X27625Y7125D01*
X26875Y7125D01*
X27250Y6500D02*
X27250Y7125D01*
X11125Y19754D02*
X11125Y25435D01*
X5875Y19754D02*
X5875Y25435D01*
X11125Y25435D02*
X5875Y25435D01*
X16500Y35685D02*
X16500Y38685D01*
X17500Y35685D02*
X17500Y38685D01*
X16500Y38685D02*
X17500Y38685D01*
X16500Y35685D02*
X17500Y35685D01*
X21487Y35185D02*
X20487Y35185D01*
X20487Y34660D02*
X20487Y35710D01*
X17512Y35185D02*
X18487Y35185D01*
X18487Y34660D02*
X18487Y35710D01*
X20487Y34660D02*
X18487Y34660D01*
X20487Y35710D02*
X18487Y35710D01*
X18737Y34660D02*
X18737Y35710D01*
X10500Y26685D02*
X7500Y26685D01*
X10500Y27685D02*
X7500Y27685D01*
X7500Y26685D02*
X7500Y27685D01*
X10500Y26685D02*
X10500Y27685D01*
X8125Y25810D02*
X9875Y25810D01*
X7500Y26185D02*
X8125Y26185D01*
X8125Y26560D02*
X8125Y25810D01*
X8125Y26560D02*
X9875Y26560D01*
X9875Y25810D01*
X10500Y26185D02*
X9875Y26185D01*
X17827Y39169D02*
X21173Y39169D01*
X17827Y37201D02*
X21173Y37201D01*
X17827Y39169D02*
X17827Y36413D01*
X21173Y39169D02*
X21173Y36413D01*
X17827Y36413D02*
X21173Y36413D01*
X33500Y28685D02*
X33500Y25685D01*
X32500Y28685D02*
X32500Y25685D01*
X33500Y25685D02*
X32500Y25685D01*
X33500Y28685D02*
X32500Y28685D01*
X30875Y33560D02*
X29125Y33560D01*
X31500Y33185D02*
X30875Y33185D01*
X30875Y32810D02*
X30875Y33560D01*
X30875Y32810D02*
X29125Y32810D01*
X29125Y33560D01*
X28500Y33185D02*
X29125Y33185D01*
X27875Y39301D02*
X27875Y33935D01*
X33125Y39301D02*
X33125Y33935D01*
X27875Y33935D02*
X33125Y33935D01*
X21500Y35685D02*
X21500Y38685D01*
X22500Y35685D02*
X22500Y38685D01*
X21500Y38685D02*
X22500Y38685D01*
X21500Y35685D02*
X22500Y35685D01*
X17500Y34185D02*
X20500Y34185D01*
X17500Y33185D02*
X20500Y33185D01*
X20500Y34185D02*
X20500Y33185D01*
X17500Y34185D02*
X17500Y33185D01*
X16875Y32435D02*
X21125Y32435D01*
X16875Y31060D02*
X21125Y31060D01*
X16875Y32435D02*
X16875Y31060D01*
X21125Y32435D02*
X21125Y31060D01*
X16875Y32810D02*
X21125Y32810D01*
X19500Y21685D02*
X19500Y24685D01*
X20500Y21685D02*
X20500Y24685D01*
X19500Y24685D02*
X20500Y24685D01*
X19500Y21685D02*
X20500Y21685D01*
X12500Y21185D02*
X12500Y24185D01*
X13500Y21185D02*
X13500Y24185D01*
X12500Y24185D02*
X13500Y24185D01*
X12500Y21185D02*
X13500Y21185D01*
X27500Y33185D02*
X27500Y30185D01*
X26500Y33185D02*
X26500Y30185D01*
X27500Y30185D02*
X26500Y30185D01*
X27500Y33185D02*
X26500Y33185D01*
X25500Y21435D02*
X25500Y24435D01*
X26500Y21435D02*
X26500Y24435D01*
X25500Y24435D02*
X26500Y24435D01*
X25500Y21435D02*
X26500Y21435D01*
X22750Y36435D02*
X22914Y36414D01*
X23031Y36357D01*
X23102Y36277D01*
X23125Y36185D01*
X23102Y36093D01*
X23031Y36013D01*
X22914Y35957D01*
X22750Y35935D01*
X22750Y36435D02*
X22750Y38185D01*
X22750Y35935D02*
X22750Y34185D01*
X22750Y38185D02*
X27250Y38185D01*
X27250Y34185D01*
X22750Y34185D01*
X27750Y30435D02*
X27914Y30414D01*
X28031Y30357D01*
X28102Y30277D01*
X28125Y30185D01*
X28102Y30093D01*
X28031Y30013D01*
X27914Y29957D01*
X27750Y29935D01*
X27750Y30435D02*
X27750Y32185D01*
X27750Y29935D02*
X27750Y28185D01*
X27750Y32185D02*
X32250Y32185D01*
X32250Y28185D01*
X27750Y28185D01*
X39301Y35560D02*
X33750Y35560D01*
X39301Y30310D02*
X33750Y30310D01*
X33750Y35560D02*
X33750Y30310D01*
X39301Y29060D02*
X33750Y29060D01*
X39301Y23810D02*
X33750Y23810D01*
X33750Y29060D02*
X33750Y23810D01*
X33125Y19754D02*
X33125Y25435D01*
X27875Y19754D02*
X27875Y25435D01*
X33125Y25435D02*
X27875Y25435D01*
X32625Y32060D02*
X32625Y30310D01*
X33000Y32685D02*
X33000Y32060D01*
X33375Y32060D02*
X32625Y32060D01*
X33375Y32060D02*
X33375Y30310D01*
X32625Y30310D01*
X33000Y29685D02*
X33000Y30310D01*
X29375Y26810D02*
X31125Y26810D01*
X28750Y27185D02*
X29375Y27185D01*
X29375Y27560D02*
X29375Y26810D01*
X29375Y27560D02*
X31125Y27560D01*
X31125Y26810D01*
X31750Y27185D02*
X31125Y27185D01*
X29375Y25810D02*
X31125Y25810D01*
X28750Y26185D02*
X29375Y26185D01*
X29375Y26560D02*
X29375Y25810D01*
X29375Y26560D02*
X31125Y26560D01*
X31125Y25810D01*
X31750Y26185D02*
X31125Y26185D01*
X20750Y22935D02*
X20914Y22914D01*
X21031Y22857D01*
X21102Y22777D01*
X21125Y22685D01*
X21102Y22593D01*
X21031Y22513D01*
X20914Y22457D01*
X20750Y22435D01*
X20750Y22935D02*
X20750Y24685D01*
X20750Y22435D02*
X20750Y20685D01*
X20750Y24685D02*
X25250Y24685D01*
X25250Y20685D01*
X20750Y20685D01*
X21750Y31935D02*
X21914Y31914D01*
X22031Y31857D01*
X22102Y31777D01*
X22125Y31685D01*
X22102Y31593D01*
X22031Y31513D01*
X21914Y31457D01*
X21750Y31435D01*
X21750Y31935D02*
X21750Y33685D01*
X21750Y31435D02*
X21750Y29685D01*
X21750Y33685D02*
X26250Y33685D01*
X26250Y29685D01*
X21750Y29685D01*
X69Y23810D02*
X5250Y23810D01*
X69Y29060D02*
X5250Y29060D01*
X5250Y23810D02*
X5250Y29060D01*
X69Y30310D02*
X5250Y30310D01*
X69Y35560D02*
X5250Y35560D01*
X5250Y30310D02*
X5250Y35560D01*
X5875Y39301D02*
X5875Y33935D01*
X11125Y39301D02*
X11125Y33935D01*
X5875Y33935D02*
X11125Y33935D01*
X7625Y32810D02*
X9375Y32810D01*
X7000Y33185D02*
X7625Y33185D01*
X7625Y33560D02*
X7625Y32810D01*
X7625Y33560D02*
X9375Y33560D01*
X9375Y32810D01*
X10000Y33185D02*
X9375Y33185D01*
X6375Y30810D02*
X6375Y32560D01*
X6000Y30185D02*
X6000Y30810D01*
X5625Y30810D02*
X6375Y30810D01*
X5625Y30810D02*
X5625Y32560D01*
X6375Y32560D01*
X6000Y33185D02*
X6000Y32560D01*
X6375Y26810D02*
X6375Y28560D01*
X6000Y26185D02*
X6000Y26810D01*
X5625Y26810D02*
X6375Y26810D01*
X5625Y26810D02*
X5625Y28560D01*
X6375Y28560D01*
X6000Y29185D02*
X6000Y28560D01*
X6750Y30435D02*
X6914Y30414D01*
X7031Y30357D01*
X7102Y30277D01*
X7125Y30185D01*
X7102Y30093D01*
X7031Y30013D01*
X6914Y29957D01*
X6750Y29935D01*
X6750Y30435D02*
X6750Y32185D01*
X6750Y29935D02*
X6750Y28185D01*
X6750Y32185D02*
X11250Y32185D01*
X11250Y28185D01*
X6750Y28185D01*
X11750Y36435D02*
X11914Y36414D01*
X12031Y36357D01*
X12102Y36277D01*
X12125Y36185D01*
X12102Y36093D01*
X12031Y36013D01*
X11914Y35957D01*
X11750Y35935D01*
X11750Y36435D02*
X11750Y38185D01*
X11750Y35935D02*
X11750Y34185D01*
X11750Y38185D02*
X16250Y38185D01*
X16250Y34185D01*
X11750Y34185D01*
X11750Y31935D02*
X11914Y31914D01*
X12031Y31857D01*
X12102Y31777D01*
X12125Y31685D01*
X12102Y31593D01*
X12031Y31513D01*
X11914Y31457D01*
X11750Y31435D01*
X11750Y31935D02*
X11750Y33685D01*
X11750Y31435D02*
X11750Y29685D01*
X11750Y33685D02*
X16250Y33685D01*
X16250Y29685D01*
X11750Y29685D01*
X13750Y22935D02*
X13914Y22914D01*
X14031Y22857D01*
X14102Y22777D01*
X14125Y22685D01*
X14102Y22593D01*
X14031Y22513D01*
X13914Y22457D01*
X13750Y22435D01*
X13750Y22935D02*
X13750Y24685D01*
X13750Y22435D02*
X13750Y20685D01*
X13750Y24685D02*
X18250Y24685D01*
X18250Y20685D01*
X13750Y20685D01*
X20500Y29685D02*
X17500Y29685D01*
X20500Y30685D02*
X17500Y30685D01*
X17500Y29685D02*
X17500Y30685D01*
X20500Y29685D02*
X20500Y30685D01*
X12250Y27435D02*
X12414Y27414D01*
X12531Y27357D01*
X12602Y27277D01*
X12625Y27185D01*
X12602Y27093D01*
X12531Y27013D01*
X12414Y26957D01*
X12250Y26935D01*
X12250Y27435D02*
X12250Y29185D01*
X12250Y26935D02*
X12250Y25185D01*
X12250Y29185D02*
X26750Y29185D01*
X26750Y25185D01*
X12250Y25185D01*
X18500Y21685D02*
X18500Y24685D01*
X19500Y21685D02*
X19500Y24685D01*
X18500Y24685D02*
X19500Y24685D01*
X18500Y21685D02*
X19500Y21685D01*
X5051Y38691D02*
X4938Y38792D01*
X4811Y38866D01*
X4674Y38913D01*
X4532Y38932D01*
X4389Y38925D01*
X4249Y38890D01*
X4116Y38827D01*
X3994Y38736D01*
X3893Y38623D01*
X3819Y38496D01*
X3772Y38359D01*
X3753Y38217D01*
X3760Y38074D01*
X3795Y37934D01*
X3858Y37801D01*
X3949Y37679D01*
X4062Y37579D01*
X4189Y37505D01*
X4326Y37458D01*
X4468Y37438D01*
X4611Y37445D01*
X4751Y37480D01*
X4884Y37543D01*
X5006Y37634D01*
X5051Y37679D01*
X5051Y38691D02*
X5051Y37679D01*
X3199Y36179D02*
X3312Y36079D01*
X3439Y36005D01*
X3576Y35958D01*
X3718Y35938D01*
X3861Y35945D01*
X4001Y35980D01*
X4134Y36043D01*
X4256Y36134D01*
X4357Y36247D01*
X4431Y36374D01*
X4478Y36511D01*
X4497Y36653D01*
X4490Y36796D01*
X4455Y36936D01*
X4392Y37069D01*
X4301Y37191D01*
X4188Y37292D01*
X4061Y37366D01*
X3924Y37413D01*
X3782Y37432D01*
X3639Y37425D01*
X3499Y37390D01*
X3366Y37327D01*
X3244Y37236D01*
X3199Y37191D01*
X3199Y36179D02*
X3199Y37191D01*
X3199Y22179D02*
X3312Y22079D01*
X3439Y22005D01*
X3576Y21958D01*
X3718Y21938D01*
X3861Y21945D01*
X4001Y21980D01*
X4134Y22043D01*
X4256Y22134D01*
X4357Y22247D01*
X4431Y22374D01*
X4478Y22511D01*
X4497Y22653D01*
X4490Y22796D01*
X4455Y22936D01*
X4392Y23069D01*
X4301Y23191D01*
X4188Y23292D01*
X4061Y23366D01*
X3924Y23413D01*
X3782Y23432D01*
X3639Y23425D01*
X3499Y23390D01*
X3366Y23327D01*
X3244Y23236D01*
X3199Y23191D01*
X3199Y22179D02*
X3199Y23191D01*
X5301Y21691D02*
X5188Y21792D01*
X5061Y21866D01*
X4924Y21913D01*
X4782Y21932D01*
X4639Y21925D01*
X4499Y21890D01*
X4366Y21827D01*
X4244Y21736D01*
X4143Y21623D01*
X4069Y21496D01*
X4022Y21359D01*
X4003Y21217D01*
X4010Y21074D01*
X4045Y20934D01*
X4108Y20801D01*
X4199Y20679D01*
X4312Y20579D01*
X4439Y20505D01*
X4576Y20458D01*
X4718Y20438D01*
X4861Y20445D01*
X5001Y20480D01*
X5134Y20543D01*
X5256Y20634D01*
X5301Y20679D01*
X5301Y21691D02*
X5301Y20679D01*
X12125Y22810D02*
X12125Y24560D01*
X11750Y22185D02*
X11750Y22810D01*
X11375Y22810D02*
X12125Y22810D01*
X11375Y22810D02*
X11375Y24560D01*
X12125Y24560D01*
X11750Y25185D02*
X11750Y24560D01*
X2625Y29310D02*
X4375Y29310D01*
X2000Y29685D02*
X2625Y29685D01*
X2625Y30060D02*
X2625Y29310D01*
X2625Y30060D02*
X4375Y30060D01*
X4375Y29310D01*
X5000Y29685D02*
X4375Y29685D01*
X11375Y28310D02*
X11375Y26560D01*
X11750Y28935D02*
X11750Y28310D01*
X12125Y28310D02*
X11375Y28310D01*
X12125Y28310D02*
X12125Y26560D01*
X11375Y26560D01*
X11750Y25935D02*
X11750Y26560D01*
X33699Y37429D02*
X33812Y37329D01*
X33939Y37255D01*
X34076Y37208D01*
X34218Y37188D01*
X34361Y37195D01*
X34501Y37230D01*
X34634Y37293D01*
X34756Y37384D01*
X34857Y37497D01*
X34931Y37624D01*
X34978Y37761D01*
X34997Y37903D01*
X34990Y38046D01*
X34955Y38186D01*
X34892Y38319D01*
X34801Y38441D01*
X34688Y38542D01*
X34561Y38616D01*
X34424Y38663D01*
X34282Y38682D01*
X34139Y38675D01*
X33999Y38640D01*
X33866Y38577D01*
X33744Y38486D01*
X33699Y38441D01*
X33699Y37429D02*
X33699Y38441D01*
X36301Y37191D02*
X36188Y37292D01*
X36061Y37366D01*
X35924Y37413D01*
X35782Y37432D01*
X35639Y37425D01*
X35499Y37390D01*
X35366Y37327D01*
X35244Y37236D01*
X35143Y37123D01*
X35069Y36996D01*
X35022Y36859D01*
X35003Y36717D01*
X35010Y36574D01*
X35045Y36434D01*
X35108Y36301D01*
X35199Y36179D01*
X35312Y36079D01*
X35439Y36005D01*
X35576Y35958D01*
X35718Y35938D01*
X35861Y35945D01*
X36001Y35980D01*
X36134Y36043D01*
X36256Y36134D01*
X36301Y36179D01*
X36301Y37191D02*
X36301Y36179D01*
X36301Y23191D02*
X36188Y23292D01*
X36061Y23366D01*
X35924Y23413D01*
X35782Y23432D01*
X35639Y23425D01*
X35499Y23390D01*
X35366Y23327D01*
X35244Y23236D01*
X35143Y23123D01*
X35069Y22996D01*
X35022Y22859D01*
X35003Y22717D01*
X35010Y22574D01*
X35045Y22434D01*
X35108Y22301D01*
X35199Y22179D01*
X35312Y22079D01*
X35439Y22005D01*
X35576Y21958D01*
X35718Y21938D01*
X35861Y21945D01*
X36001Y21980D01*
X36134Y22043D01*
X36256Y22134D01*
X36301Y22179D01*
X36301Y23191D02*
X36301Y22179D01*
X33949Y20679D02*
X34062Y20579D01*
X34189Y20505D01*
X34326Y20458D01*
X34468Y20438D01*
X34611Y20445D01*
X34751Y20480D01*
X34884Y20543D01*
X35006Y20634D01*
X35107Y20747D01*
X35181Y20874D01*
X35228Y21011D01*
X35247Y21153D01*
X35240Y21296D01*
X35205Y21436D01*
X35142Y21569D01*
X35051Y21691D01*
X34938Y21792D01*
X34811Y21866D01*
X34674Y21913D01*
X34532Y21932D01*
X34389Y21925D01*
X34249Y21890D01*
X34116Y21827D01*
X33994Y21736D01*
X33949Y21691D01*
X33949Y20679D02*
X33949Y21691D01*
X36375Y30060D02*
X34625Y30060D01*
X37000Y29685D02*
X36375Y29685D01*
X36375Y29310D02*
X36375Y30060D01*
X36375Y29310D02*
X34625Y29310D01*
X34625Y30060D01*
X34000Y29685D02*
X34625Y29685D01*
X27625Y22810D02*
X27625Y24560D01*
X27250Y22185D02*
X27250Y22810D01*
X26875Y22810D02*
X27625Y22810D01*
X26875Y22810D02*
X26875Y24560D01*
X27625Y24560D01*
X27250Y25185D02*
X27250Y24560D01*
X26875Y28560D02*
X26875Y26810D01*
X27250Y29185D02*
X27250Y28560D01*
X27625Y28560D02*
X26875Y28560D01*
X27625Y28560D02*
X27625Y26810D01*
X26875Y26810D01*
X27250Y26185D02*
X27250Y26810D01*
D12*
G01X197Y197D02*
X197Y19488D01*
X39173Y19488D01*
X39173Y197D01*
X197Y197D01*
X197Y19882D02*
X197Y39173D01*
X39173Y39173D01*
X39173Y19882D01*
X197Y19882D01*
X197Y197D02*
X197Y39173D01*
X39173Y39173D01*
X39173Y197D01*
X197Y197D01*
M02*
