%FSLAX24Y24*%
%MOIN*%
%ADD10C,0.0090*%
%ADD11C,0.0200*%
%ADD12C,0.0300*%
%ADD13C,0.0520*%
%ADD14C,0.0551*%
%ADD15C,0.0709*%
%ADD16C,0.0750*%
%ADD17C,0.0787*%
%ADD18C,0.1575*%
%ADD19C,0.2362*%
D10*
G01X21500Y1500D02*
X22078Y2078D01*
X22078Y5135D01*
X22561Y5618D01*
X22561Y6372D01*
X24000Y7811D01*
X24000Y9000D01*
X5000Y17000D02*
X5000Y18500D01*
X11750Y9250D02*
X9920Y11080D01*
X9460Y11080D01*
X9000Y11539D01*
X9000Y12591D01*
X5000Y16591D01*
X5000Y17000D01*
X4250Y17000D01*
X28750Y6500D02*
X26614Y8636D01*
X26614Y11386D01*
X24500Y13500D01*
X23500Y15000D02*
X23000Y14500D01*
X23000Y12874D01*
X24939Y10935D01*
X24939Y10061D01*
X26000Y9000D01*
X26500Y15000D02*
X25794Y15706D01*
X25272Y15706D01*
X24886Y15320D01*
X24886Y14400D01*
X24860Y14374D01*
X24286Y14374D01*
X23886Y14774D01*
X23886Y15600D01*
X23860Y15626D01*
X23001Y15626D01*
X21944Y14569D01*
X21944Y11895D01*
X19952Y9904D01*
X18086Y9904D01*
X17398Y9215D01*
X17398Y8391D01*
X17372Y8366D01*
X16634Y8366D01*
X16000Y9000D01*
X35250Y3000D02*
X35652Y3402D01*
X35652Y8652D01*
X37000Y10000D01*
X34000Y1500D02*
X35250Y2750D01*
X35250Y3000D01*
X35250Y17000D02*
X36815Y15435D01*
X36815Y10185D01*
X37000Y10000D01*
X23447Y7648D02*
X22000Y6201D01*
X22000Y6000D01*
X4750Y12500D02*
X4750Y12816D01*
X3750Y13816D01*
X3750Y14000D01*
X8250Y5250D02*
X7500Y6000D01*
X7500Y6500D01*
X8250Y5250D02*
X8250Y4750D01*
X8750Y4250D01*
X5000Y10000D02*
X6064Y10000D01*
X6462Y9602D01*
X6462Y8492D01*
X7840Y7114D01*
X8214Y7114D01*
X9102Y8002D01*
X9102Y9600D01*
X9128Y9626D01*
X10860Y9626D01*
X10886Y9600D01*
X10886Y9246D01*
X13000Y7131D01*
X13869Y7131D01*
X15000Y6000D01*
X6000Y9500D02*
X4750Y8250D01*
X4750Y7000D01*
X6000Y13500D02*
X6507Y12993D01*
X7507Y12993D01*
X8500Y12000D01*
X34750Y18250D02*
X31664Y15164D01*
X30374Y15164D01*
X30348Y15139D01*
X30348Y14580D01*
X29000Y13231D01*
X29000Y11250D01*
X27250Y9500D01*
X19000Y4500D02*
X18000Y5500D01*
X18000Y6000D01*
X33000Y11066D02*
X35250Y13316D01*
X35250Y13500D01*
X33000Y10000D02*
X33000Y11066D01*
X30434Y11066D01*
X29500Y12000D01*
X20000Y9000D02*
X20000Y8750D01*
X19387Y8137D01*
X19387Y4260D01*
X17500Y2374D01*
X17500Y1500D01*
X17000Y9000D02*
X17000Y13500D01*
X15500Y15000D01*
X22500Y4500D02*
X23172Y5172D01*
X26376Y5172D01*
X27134Y5930D01*
X30180Y5930D01*
X31750Y7500D01*
X31750Y6500D02*
X32203Y6953D01*
X32203Y7667D01*
X31879Y7992D01*
X31505Y7992D01*
X29624Y6111D01*
X28424Y6111D01*
X26443Y8092D01*
X26443Y10557D01*
X23500Y13500D01*
X31750Y6500D02*
X30750Y5500D01*
X30750Y4250D01*
X30750Y14750D02*
X31500Y14000D01*
X31500Y13500D01*
X22500Y10500D02*
X22500Y9500D01*
X23000Y9000D01*
X8750Y14750D02*
X8750Y15250D01*
X8250Y15750D01*
X4250Y3000D02*
X5250Y2000D01*
X5250Y1500D01*
X2000Y10000D02*
X4250Y7750D01*
X4250Y3000D01*
X3250Y17000D02*
X4000Y17750D01*
X4000Y18500D01*
X2000Y10000D02*
X3250Y11250D01*
X3250Y17000D01*
X16500Y4500D02*
X15851Y5149D01*
X11958Y5149D01*
X11775Y4966D01*
X11673Y4966D01*
X10500Y6139D01*
X10500Y6500D01*
X26000Y6000D02*
X24500Y7500D01*
X24500Y9514D01*
X24343Y9672D01*
X23521Y9672D01*
X23085Y10107D01*
X23085Y10856D01*
X22650Y11291D01*
X21680Y11291D01*
X20019Y9630D01*
X19835Y9630D01*
X19408Y9204D01*
X19408Y8400D01*
X19171Y8162D01*
X15959Y8162D01*
X15500Y8621D01*
X15500Y9462D01*
X15108Y9854D01*
X13140Y9854D01*
X12920Y10074D01*
X12920Y12128D01*
X12063Y12985D01*
X12063Y14563D01*
X12500Y15000D01*
X33000Y13000D02*
X34250Y13000D01*
X14000Y9000D02*
X16439Y6561D01*
X16439Y5775D01*
X16879Y5335D01*
X17505Y5335D01*
X18424Y4417D01*
X18424Y4263D01*
X21500Y21185D02*
X22078Y21763D01*
X22078Y24820D01*
X22561Y25303D01*
X22561Y26057D01*
X24000Y27496D01*
X24000Y28685D01*
X5000Y36685D02*
X5000Y38185D01*
X11750Y28935D02*
X9920Y30765D01*
X9460Y30765D01*
X9000Y31224D01*
X9000Y32276D01*
X5000Y36276D01*
X5000Y36685D01*
X4250Y36685D01*
X28750Y26185D02*
X26614Y28321D01*
X26614Y31071D01*
X24500Y33185D01*
X23500Y34685D02*
X23000Y34185D01*
X23000Y32559D01*
X24939Y30620D01*
X24939Y29746D01*
X26000Y28685D01*
X26500Y34685D02*
X25794Y35391D01*
X25272Y35391D01*
X24886Y35005D01*
X24886Y34085D01*
X24860Y34059D01*
X24286Y34059D01*
X23886Y34459D01*
X23886Y35285D01*
X23860Y35311D01*
X23001Y35311D01*
X21944Y34254D01*
X21944Y31580D01*
X19952Y29589D01*
X18086Y29589D01*
X17398Y28900D01*
X17398Y28076D01*
X17372Y28051D01*
X16634Y28051D01*
X16000Y28685D01*
X35250Y22685D02*
X35652Y23087D01*
X35652Y28337D01*
X37000Y29685D01*
X34000Y21185D02*
X35250Y22435D01*
X35250Y22685D01*
X35250Y36685D02*
X36815Y35120D01*
X36815Y29870D01*
X37000Y29685D01*
X23447Y27333D02*
X22000Y25886D01*
X22000Y25685D01*
X4750Y32185D02*
X4750Y32501D01*
X3750Y33501D01*
X3750Y33685D01*
X8250Y24935D02*
X7500Y25685D01*
X7500Y26185D01*
X8250Y24935D02*
X8250Y24435D01*
X8750Y23935D01*
X5000Y29685D02*
X6064Y29685D01*
X6462Y29287D01*
X6462Y28177D01*
X7840Y26799D01*
X8214Y26799D01*
X9102Y27687D01*
X9102Y29285D01*
X9128Y29311D01*
X10860Y29311D01*
X10886Y29285D01*
X10886Y28931D01*
X13000Y26817D01*
X13869Y26817D01*
X15000Y25685D01*
X6000Y29185D02*
X4750Y27935D01*
X4750Y26685D01*
X6000Y33185D02*
X6507Y32678D01*
X7507Y32678D01*
X8500Y31685D01*
X34750Y37935D02*
X31664Y34849D01*
X30374Y34849D01*
X30348Y34824D01*
X30348Y34265D01*
X29000Y32917D01*
X29000Y30935D01*
X27250Y29185D01*
X19000Y24185D02*
X18000Y25185D01*
X18000Y25685D01*
X33000Y30751D02*
X35250Y33001D01*
X35250Y33185D01*
X33000Y29685D02*
X33000Y30751D01*
X30434Y30751D01*
X29500Y31685D01*
X20000Y28685D02*
X20000Y28435D01*
X19387Y27822D01*
X19387Y23945D01*
X17500Y22059D01*
X17500Y21185D01*
X17000Y28685D02*
X17000Y33185D01*
X15500Y34685D01*
X22500Y24185D02*
X23172Y24857D01*
X26376Y24857D01*
X27134Y25615D01*
X30180Y25615D01*
X31750Y27185D01*
X31750Y26185D02*
X32203Y26638D01*
X32203Y27352D01*
X31879Y27677D01*
X31505Y27677D01*
X29624Y25796D01*
X28424Y25796D01*
X26443Y27777D01*
X26443Y30242D01*
X23500Y33185D01*
X31750Y26185D02*
X30750Y25185D01*
X30750Y23935D01*
X30750Y34435D02*
X31500Y33685D01*
X31500Y33185D01*
X22500Y30185D02*
X22500Y29185D01*
X23000Y28685D01*
X8750Y34435D02*
X8750Y34935D01*
X8250Y35435D01*
X4250Y22685D02*
X5250Y21685D01*
X5250Y21185D01*
X2000Y29685D02*
X4250Y27435D01*
X4250Y22685D01*
X3250Y36685D02*
X4000Y37435D01*
X4000Y38185D01*
X2000Y29685D02*
X3250Y30935D01*
X3250Y36685D01*
X16500Y24185D02*
X15851Y24834D01*
X11958Y24834D01*
X11775Y24651D01*
X11673Y24651D01*
X10500Y25824D01*
X10500Y26185D01*
X26000Y25685D02*
X24500Y27185D01*
X24500Y29199D01*
X24343Y29357D01*
X23521Y29357D01*
X23085Y29793D01*
X23085Y30541D01*
X22650Y30976D01*
X21680Y30976D01*
X20019Y29315D01*
X19835Y29315D01*
X19408Y28889D01*
X19408Y28085D01*
X19171Y27847D01*
X15959Y27847D01*
X15500Y28306D01*
X15500Y29147D01*
X15108Y29539D01*
X13140Y29539D01*
X12920Y29759D01*
X12920Y31813D01*
X12063Y32670D01*
X12063Y34248D01*
X12500Y34685D01*
X33000Y32685D02*
X34250Y32685D01*
X14000Y28685D02*
X16439Y26246D01*
X16439Y25460D01*
X16879Y25020D01*
X17505Y25020D01*
X18424Y24102D01*
X18424Y23948D01*
D11*
G01X20189Y18500D02*
X20189Y16824D01*
X21512Y15500D01*
X34250Y7500D02*
X33372Y7500D01*
X32375Y6503D01*
X32375Y6375D01*
X31250Y5250D01*
X19144Y2644D02*
X20969Y819D01*
X21941Y819D01*
X22500Y1378D01*
X22500Y1500D01*
X19144Y2644D02*
X20000Y3500D01*
X20000Y4500D01*
X19000Y2500D02*
X19144Y2644D01*
X23500Y10500D02*
X23500Y11199D01*
X22500Y12199D01*
X22500Y13500D01*
X12500Y13500D02*
X13500Y12500D01*
X13500Y10500D01*
X13500Y15000D02*
X13500Y14500D01*
X12500Y13500D01*
X33000Y6500D02*
X33543Y7043D01*
X34561Y7043D01*
X24500Y15000D02*
X24500Y17000D01*
X23500Y18000D01*
X19000Y12000D02*
X19000Y11500D01*
X18000Y10500D01*
X20000Y14000D02*
X19000Y13000D01*
X19000Y12000D01*
X34561Y7043D02*
X35250Y6354D01*
X35250Y6000D01*
X35250Y12500D02*
X35250Y7733D01*
X34561Y7043D01*
X13500Y17000D02*
X13500Y15000D01*
X12500Y18000D02*
X13500Y17000D01*
X17000Y18500D02*
X15500Y17000D01*
X13500Y17000D01*
X14500Y4150D02*
X13150Y4150D01*
X13000Y4000D01*
X15500Y1500D02*
X15500Y3150D01*
X14500Y4150D01*
X14500Y4500D01*
X22500Y1500D02*
X25250Y4250D01*
X26000Y4250D01*
X21500Y4500D02*
X21500Y8500D01*
X22000Y9000D01*
X8500Y9000D02*
X8000Y8500D01*
X8000Y7500D01*
X7500Y12000D02*
X8500Y11000D01*
X8500Y9000D01*
X20000Y6000D02*
X20000Y4500D01*
X20866Y13810D02*
X22048Y14993D01*
X22048Y16452D01*
X22000Y16500D01*
X20000Y12000D02*
X20000Y12944D01*
X20866Y13810D01*
X18176Y16500D01*
X17000Y16500D01*
X20000Y10500D02*
X20000Y12000D01*
X21000Y9000D02*
X20500Y8500D01*
X20500Y3000D01*
X20000Y2500D01*
X13000Y2000D02*
X13000Y3319D01*
X10000Y6319D01*
X10000Y7500D01*
X30500Y9000D02*
X31282Y8218D01*
X32718Y8218D01*
X33000Y8500D01*
X23500Y1500D02*
X24250Y2250D01*
X26000Y2250D01*
X25500Y15000D02*
X27000Y13500D01*
X27000Y13000D01*
X9500Y9000D02*
X9500Y8000D01*
X10000Y7500D01*
X14500Y10500D02*
X14000Y11000D01*
X14000Y14500D01*
X14500Y15000D01*
X20189Y38185D02*
X20189Y36509D01*
X21512Y35185D01*
X34250Y27185D02*
X33372Y27185D01*
X32375Y26188D01*
X32375Y26060D01*
X31250Y24935D01*
X19144Y22329D02*
X20969Y20504D01*
X21941Y20504D01*
X22500Y21063D01*
X22500Y21185D01*
X19144Y22329D02*
X20000Y23185D01*
X20000Y24185D01*
X19000Y22185D02*
X19144Y22329D01*
X23500Y30185D02*
X23500Y30884D01*
X22500Y31884D01*
X22500Y33185D01*
X12500Y33185D02*
X13500Y32185D01*
X13500Y30185D01*
X13500Y34685D02*
X13500Y34185D01*
X12500Y33185D01*
X33000Y26185D02*
X33543Y26728D01*
X34561Y26728D01*
X24500Y34685D02*
X24500Y36685D01*
X23500Y37685D01*
X19000Y31685D02*
X19000Y31185D01*
X18000Y30185D01*
X20000Y33685D02*
X19000Y32685D01*
X19000Y31685D01*
X34561Y26728D02*
X35250Y26039D01*
X35250Y25685D01*
X35250Y32185D02*
X35250Y27418D01*
X34561Y26728D01*
X13500Y36685D02*
X13500Y34685D01*
X12500Y37685D02*
X13500Y36685D01*
X17000Y38185D02*
X15500Y36685D01*
X13500Y36685D01*
X14500Y23835D02*
X13150Y23835D01*
X13000Y23685D01*
X15500Y21185D02*
X15500Y22835D01*
X14500Y23835D01*
X14500Y24185D01*
X22500Y21185D02*
X25250Y23935D01*
X26000Y23935D01*
X21500Y24185D02*
X21500Y28185D01*
X22000Y28685D01*
X8500Y28685D02*
X8000Y28185D01*
X8000Y27185D01*
X7500Y31685D02*
X8500Y30685D01*
X8500Y28685D01*
X20000Y25685D02*
X20000Y24185D01*
X20866Y33495D02*
X22048Y34678D01*
X22048Y36137D01*
X22000Y36185D01*
X20000Y31685D02*
X20000Y32630D01*
X20866Y33495D01*
X18176Y36185D01*
X17000Y36185D01*
X20000Y30185D02*
X20000Y31685D01*
X21000Y28685D02*
X20500Y28185D01*
X20500Y22685D01*
X20000Y22185D01*
X13000Y21685D02*
X13000Y23004D01*
X10000Y26004D01*
X10000Y27185D01*
X30500Y28685D02*
X31282Y27903D01*
X32718Y27903D01*
X33000Y28185D01*
X23500Y21185D02*
X24250Y21935D01*
X26000Y21935D01*
X25500Y34685D02*
X27000Y33185D01*
X27000Y32685D01*
X9500Y28685D02*
X9500Y27685D01*
X10000Y27185D01*
X14500Y30185D02*
X14000Y30685D01*
X14000Y34185D01*
X14500Y34685D01*
D12*
G01X23447Y7648D03*
X18424Y4263D03*
X23447Y27333D03*
X18424Y23948D03*
D13*
G01X17000Y18500D03*
X17000Y16500D03*
X8000Y7500D03*
X10000Y7500D03*
X10500Y6500D03*
X33000Y6500D03*
X33000Y8500D03*
X28500Y13500D03*
X22000Y18500D03*
X22000Y16500D03*
X20000Y14000D03*
X18000Y14000D03*
X20000Y4500D03*
X20000Y2500D03*
X13000Y4000D03*
X13000Y2000D03*
X27000Y11000D03*
X27000Y13000D03*
X26000Y4250D03*
X26000Y2250D03*
X25500Y18240D02*
X25500Y17760D01*
X26500Y18240D02*
X26500Y17760D01*
X23500Y18240D02*
X23500Y17760D01*
X24500Y15240D02*
X24500Y14760D01*
X25500Y15240D02*
X25500Y14760D01*
X26500Y15240D02*
X26500Y14760D01*
X24500Y18240D02*
X24500Y17760D01*
X30500Y12240D02*
X30500Y11760D01*
X31500Y12240D02*
X31500Y11760D01*
X28500Y12240D02*
X28500Y11760D01*
X29500Y9240D02*
X29500Y8760D01*
X30500Y9240D02*
X30500Y8760D01*
X31500Y9240D02*
X31500Y8760D01*
X29500Y12240D02*
X29500Y11760D01*
X33000Y10000D03*
X31750Y7500D03*
X31750Y6500D03*
X23500Y4740D02*
X23500Y4260D01*
X24500Y4740D02*
X24500Y4260D01*
X21500Y4740D02*
X21500Y4260D01*
X22500Y1740D02*
X22500Y1260D01*
X23500Y1740D02*
X23500Y1260D01*
X24500Y1740D02*
X24500Y1260D01*
X22500Y4740D02*
X22500Y4260D01*
X24500Y13740D02*
X24500Y13260D01*
X25500Y13740D02*
X25500Y13260D01*
X22500Y13740D02*
X22500Y13260D01*
X23500Y10740D02*
X23500Y10260D01*
X24500Y10740D02*
X24500Y10260D01*
X25500Y10740D02*
X25500Y10260D01*
X23500Y13740D02*
X23500Y13260D01*
X10000Y13500D03*
X6000Y13500D03*
X6000Y9500D03*
X9500Y12240D02*
X9500Y11760D01*
X10500Y12240D02*
X10500Y11760D01*
X7500Y12240D02*
X7500Y11760D01*
X8500Y9240D02*
X8500Y8760D01*
X9500Y9240D02*
X9500Y8760D01*
X10500Y9240D02*
X10500Y8760D01*
X8500Y12240D02*
X8500Y11760D01*
X14500Y18240D02*
X14500Y17760D01*
X15500Y18240D02*
X15500Y17760D01*
X12500Y18240D02*
X12500Y17760D01*
X13500Y15240D02*
X13500Y14760D01*
X14500Y15240D02*
X14500Y14760D01*
X15500Y15240D02*
X15500Y14760D01*
X13500Y18240D02*
X13500Y17760D01*
X14500Y13740D02*
X14500Y13260D01*
X15500Y13740D02*
X15500Y13260D01*
X12500Y13740D02*
X12500Y13260D01*
X13500Y10740D02*
X13500Y10260D01*
X14500Y10740D02*
X14500Y10260D01*
X15500Y10740D02*
X15500Y10260D01*
X13500Y13740D02*
X13500Y13260D01*
X16500Y4740D02*
X16500Y4260D01*
X17500Y4740D02*
X17500Y4260D01*
X14500Y4740D02*
X14500Y4260D01*
X15500Y1740D02*
X15500Y1260D01*
X16500Y1740D02*
X16500Y1260D01*
X17500Y1740D02*
X17500Y1260D01*
X15500Y4740D02*
X15500Y4260D01*
X18000Y10500D03*
X20000Y10500D03*
X19000Y9240D02*
X19000Y8760D01*
X22000Y9240D02*
X22000Y8760D01*
X16000Y9240D02*
X16000Y8760D01*
X24000Y9240D02*
X24000Y8760D01*
X13000Y9240D02*
X13000Y8760D01*
X20000Y6240D02*
X20000Y5760D01*
X23000Y9240D02*
X23000Y8760D01*
X26000Y6240D02*
X26000Y5760D01*
X24000Y6240D02*
X24000Y5760D01*
X14000Y6240D02*
X14000Y5760D01*
X23000Y6240D02*
X23000Y5760D01*
X21000Y6240D02*
X21000Y5760D01*
X18000Y9240D02*
X18000Y8760D01*
X17000Y6240D02*
X17000Y5760D01*
X17000Y9240D02*
X17000Y8760D01*
X25000Y9240D02*
X25000Y8760D01*
X25000Y6240D02*
X25000Y5760D01*
X22000Y6240D02*
X22000Y5760D01*
X16000Y6240D02*
X16000Y5760D01*
X20000Y9240D02*
X20000Y8760D01*
X26000Y9240D02*
X26000Y8760D01*
X15000Y9240D02*
X15000Y8760D01*
X15000Y6240D02*
X15000Y5760D01*
X14000Y9240D02*
X14000Y8760D01*
X19000Y6240D02*
X19000Y5760D01*
X21000Y9240D02*
X21000Y8760D01*
X18000Y6240D02*
X18000Y5760D01*
X19000Y4500D03*
X19000Y2500D03*
X5000Y18500D03*
X3250Y17000D03*
X3250Y3000D03*
X5250Y1500D03*
X11750Y5500D03*
X5000Y10000D03*
X11750Y6250D03*
X33750Y18250D03*
X36250Y17000D03*
X36250Y3000D03*
X34000Y1500D03*
X34000Y10000D03*
X27250Y5500D03*
X27250Y6500D03*
X17000Y38185D03*
X17000Y36185D03*
X8000Y27185D03*
X10000Y27185D03*
X10500Y26185D03*
X33000Y26185D03*
X33000Y28185D03*
X28500Y33185D03*
X22000Y38185D03*
X22000Y36185D03*
X20000Y33685D03*
X18000Y33685D03*
X20000Y24185D03*
X20000Y22185D03*
X13000Y23685D03*
X13000Y21685D03*
X27000Y30685D03*
X27000Y32685D03*
X26000Y23935D03*
X26000Y21935D03*
X25500Y37925D02*
X25500Y37445D01*
X26500Y37925D02*
X26500Y37445D01*
X23500Y37925D02*
X23500Y37445D01*
X24500Y34925D02*
X24500Y34445D01*
X25500Y34925D02*
X25500Y34445D01*
X26500Y34925D02*
X26500Y34445D01*
X24500Y37925D02*
X24500Y37445D01*
X30500Y31925D02*
X30500Y31445D01*
X31500Y31925D02*
X31500Y31445D01*
X28500Y31925D02*
X28500Y31445D01*
X29500Y28925D02*
X29500Y28445D01*
X30500Y28925D02*
X30500Y28445D01*
X31500Y28925D02*
X31500Y28445D01*
X29500Y31925D02*
X29500Y31445D01*
X33000Y29685D03*
X31750Y27185D03*
X31750Y26185D03*
X23500Y24425D02*
X23500Y23945D01*
X24500Y24425D02*
X24500Y23945D01*
X21500Y24425D02*
X21500Y23945D01*
X22500Y21425D02*
X22500Y20945D01*
X23500Y21425D02*
X23500Y20945D01*
X24500Y21425D02*
X24500Y20945D01*
X22500Y24425D02*
X22500Y23945D01*
X24500Y33425D02*
X24500Y32945D01*
X25500Y33425D02*
X25500Y32945D01*
X22500Y33425D02*
X22500Y32945D01*
X23500Y30425D02*
X23500Y29945D01*
X24500Y30425D02*
X24500Y29945D01*
X25500Y30425D02*
X25500Y29945D01*
X23500Y33425D02*
X23500Y32945D01*
X10000Y33185D03*
X6000Y33185D03*
X6000Y29185D03*
X9500Y31925D02*
X9500Y31445D01*
X10500Y31925D02*
X10500Y31445D01*
X7500Y31925D02*
X7500Y31445D01*
X8500Y28925D02*
X8500Y28445D01*
X9500Y28925D02*
X9500Y28445D01*
X10500Y28925D02*
X10500Y28445D01*
X8500Y31925D02*
X8500Y31445D01*
X14500Y37925D02*
X14500Y37445D01*
X15500Y37925D02*
X15500Y37445D01*
X12500Y37925D02*
X12500Y37445D01*
X13500Y34925D02*
X13500Y34445D01*
X14500Y34925D02*
X14500Y34445D01*
X15500Y34925D02*
X15500Y34445D01*
X13500Y37925D02*
X13500Y37445D01*
X14500Y33425D02*
X14500Y32945D01*
X15500Y33425D02*
X15500Y32945D01*
X12500Y33425D02*
X12500Y32945D01*
X13500Y30425D02*
X13500Y29945D01*
X14500Y30425D02*
X14500Y29945D01*
X15500Y30425D02*
X15500Y29945D01*
X13500Y33425D02*
X13500Y32945D01*
X16500Y24425D02*
X16500Y23945D01*
X17500Y24425D02*
X17500Y23945D01*
X14500Y24425D02*
X14500Y23945D01*
X15500Y21425D02*
X15500Y20945D01*
X16500Y21425D02*
X16500Y20945D01*
X17500Y21425D02*
X17500Y20945D01*
X15500Y24425D02*
X15500Y23945D01*
X18000Y30185D03*
X20000Y30185D03*
X19000Y28925D02*
X19000Y28445D01*
X22000Y28925D02*
X22000Y28445D01*
X16000Y28925D02*
X16000Y28445D01*
X24000Y28925D02*
X24000Y28445D01*
X13000Y28925D02*
X13000Y28445D01*
X20000Y25925D02*
X20000Y25445D01*
X23000Y28925D02*
X23000Y28445D01*
X26000Y25925D02*
X26000Y25445D01*
X24000Y25925D02*
X24000Y25445D01*
X14000Y25925D02*
X14000Y25445D01*
X23000Y25925D02*
X23000Y25445D01*
X21000Y25925D02*
X21000Y25445D01*
X18000Y28925D02*
X18000Y28445D01*
X17000Y25925D02*
X17000Y25445D01*
X17000Y28925D02*
X17000Y28445D01*
X25000Y28925D02*
X25000Y28445D01*
X25000Y25925D02*
X25000Y25445D01*
X22000Y25925D02*
X22000Y25445D01*
X16000Y25925D02*
X16000Y25445D01*
X20000Y28925D02*
X20000Y28445D01*
X26000Y28925D02*
X26000Y28445D01*
X15000Y28925D02*
X15000Y28445D01*
X15000Y25925D02*
X15000Y25445D01*
X14000Y28925D02*
X14000Y28445D01*
X19000Y25925D02*
X19000Y25445D01*
X21000Y28925D02*
X21000Y28445D01*
X18000Y25925D02*
X18000Y25445D01*
X19000Y24185D03*
X19000Y22185D03*
X5000Y38185D03*
X3250Y36685D03*
X3250Y22685D03*
X5250Y21185D03*
X11750Y25185D03*
X5000Y29685D03*
X11750Y25935D03*
X33750Y37935D03*
X36250Y36685D03*
X36250Y22685D03*
X34000Y21185D03*
X34000Y29685D03*
X27250Y25185D03*
X27250Y26185D03*
D14*
G01X8250Y5250D03*
X7750Y4250D03*
X9250Y5250D03*
X8750Y4250D03*
X30750Y14750D03*
X31250Y15750D03*
X29750Y14750D03*
X30250Y15750D03*
X34250Y13000D03*
X35250Y12500D03*
X34250Y14000D03*
X35250Y13500D03*
X34250Y6500D03*
X35250Y6000D03*
X34250Y7500D03*
X35250Y7000D03*
X30250Y5250D03*
X29750Y4250D03*
X31250Y5250D03*
X30750Y4250D03*
X4750Y7000D03*
X3750Y7500D03*
X4750Y6000D03*
X3750Y6500D03*
X4750Y13500D03*
X3750Y14000D03*
X4750Y12500D03*
X3750Y13000D03*
X8750Y14750D03*
X9250Y15750D03*
X7750Y14750D03*
X8250Y15750D03*
X8250Y24935D03*
X7750Y23935D03*
X9250Y24935D03*
X8750Y23935D03*
X30750Y34435D03*
X31250Y35435D03*
X29750Y34435D03*
X30250Y35435D03*
X34250Y32685D03*
X35250Y32185D03*
X34250Y33685D03*
X35250Y33185D03*
X34250Y26185D03*
X35250Y25685D03*
X34250Y27185D03*
X35250Y26685D03*
X30250Y24935D03*
X29750Y23935D03*
X31250Y24935D03*
X30750Y23935D03*
X4750Y26685D03*
X3750Y27185D03*
X4750Y25685D03*
X3750Y26185D03*
X4750Y33185D03*
X3750Y33685D03*
X4750Y32185D03*
X3750Y32685D03*
X8750Y34435D03*
X9250Y35435D03*
X7750Y34435D03*
X8250Y35435D03*
D15*
G01X17487Y15500D03*
X17487Y35185D03*
D16*
G01X20000Y12125D02*
X20000Y11875D01*
X19000Y12125D02*
X19000Y11875D01*
X20000Y31810D02*
X20000Y31560D01*
X19000Y31810D02*
X19000Y31560D01*
D17*
G01X20189Y18500D03*
X20189Y38185D03*
D18*
G01X10500Y1750D03*
X6500Y1750D03*
X28500Y18250D03*
X32500Y18250D03*
X37750Y15250D03*
X37750Y11250D03*
X37750Y8750D03*
X37750Y4750D03*
X32500Y1750D03*
X28500Y1750D03*
X1250Y4750D03*
X1250Y8750D03*
X1250Y11250D03*
X1250Y15250D03*
X6500Y18250D03*
X10500Y18250D03*
X10500Y21435D03*
X6500Y21435D03*
X28500Y37935D03*
X32500Y37935D03*
X37750Y34935D03*
X37750Y30935D03*
X37750Y28435D03*
X37750Y24435D03*
X32500Y21435D03*
X28500Y21435D03*
X1250Y24435D03*
X1250Y28435D03*
X1250Y30935D03*
X1250Y34935D03*
X6500Y37935D03*
X10500Y37935D03*
D19*
G01X1750Y18000D03*
X37500Y18000D03*
X1750Y2000D03*
X37500Y2000D03*
X1750Y37685D03*
X37500Y37685D03*
X1750Y21685D03*
X37500Y21685D03*
G36*
X21157Y15145D02*
X21866Y15145D01*
X21866Y15854D01*
X21157Y15854D01*
X21157Y15145D01*
G37*
G36*
X7760Y6760D02*
X7240Y6760D01*
X7240Y6240D01*
X7760Y6240D01*
X7760Y6760D01*
G37*
G36*
X19204Y18893D02*
X18417Y18893D01*
X18417Y18106D01*
X19204Y18106D01*
X19204Y18893D01*
G37*
G36*
X31240Y13240D02*
X31760Y13240D01*
X31760Y13760D01*
X31240Y13760D01*
X31240Y13240D01*
G37*
G36*
X18375Y12500D02*
X17625Y12500D01*
X17625Y11500D01*
X18375Y11500D01*
X18375Y12500D01*
G37*
G36*
X23760Y15500D02*
X23240Y15500D01*
X23240Y14500D01*
X23760Y14500D01*
X23760Y15500D01*
G37*
G36*
X28760Y9500D02*
X28240Y9500D01*
X28240Y8500D01*
X28760Y8500D01*
X28760Y9500D01*
G37*
G36*
X33260Y12740D02*
X33260Y13260D01*
X32740Y13260D01*
X32740Y12740D01*
X33260Y12740D01*
G37*
G36*
X29010Y7760D02*
X28490Y7760D01*
X28490Y7240D01*
X29010Y7240D01*
X29010Y7760D01*
G37*
G36*
X29010Y6760D02*
X28490Y6760D01*
X28490Y6240D01*
X29010Y6240D01*
X29010Y6760D01*
G37*
G36*
X21760Y2000D02*
X21240Y2000D01*
X21240Y1000D01*
X21760Y1000D01*
X21760Y2000D01*
G37*
G36*
X22760Y11000D02*
X22240Y11000D01*
X22240Y10000D01*
X22760Y10000D01*
X22760Y11000D01*
G37*
G36*
X7260Y13760D02*
X6740Y13760D01*
X6740Y13240D01*
X7260Y13240D01*
X7260Y13760D01*
G37*
G36*
X5740Y10760D02*
X5740Y10240D01*
X6260Y10240D01*
X6260Y10760D01*
X5740Y10760D01*
G37*
G36*
X5740Y6760D02*
X5740Y6240D01*
X6260Y6240D01*
X6260Y6760D01*
X5740Y6760D01*
G37*
G36*
X7760Y9500D02*
X7240Y9500D01*
X7240Y8500D01*
X7760Y8500D01*
X7760Y9500D01*
G37*
G36*
X12760Y15500D02*
X12240Y15500D01*
X12240Y14500D01*
X12760Y14500D01*
X12760Y15500D01*
G37*
G36*
X12760Y11000D02*
X12240Y11000D01*
X12240Y10000D01*
X12760Y10000D01*
X12760Y11000D01*
G37*
G36*
X14760Y2000D02*
X14240Y2000D01*
X14240Y1000D01*
X14760Y1000D01*
X14760Y2000D01*
G37*
G36*
X13260Y6500D02*
X12740Y6500D01*
X12740Y5500D01*
X13260Y5500D01*
X13260Y6500D01*
G37*
G36*
X4260Y18760D02*
X3740Y18760D01*
X3740Y18240D01*
X4260Y18240D01*
X4260Y18760D01*
G37*
G36*
X3990Y16740D02*
X4510Y16740D01*
X4510Y17260D01*
X3990Y17260D01*
X3990Y16740D01*
G37*
G36*
X3990Y2740D02*
X4510Y2740D01*
X4510Y3260D01*
X3990Y3260D01*
X3990Y2740D01*
G37*
G36*
X4510Y1760D02*
X3990Y1760D01*
X3990Y1240D01*
X4510Y1240D01*
X4510Y1760D01*
G37*
G36*
X11490Y2760D02*
X11490Y2240D01*
X12010Y2240D01*
X12010Y2760D01*
X11490Y2760D01*
G37*
G36*
X2260Y10260D02*
X1740Y10260D01*
X1740Y9740D01*
X2260Y9740D01*
X2260Y10260D01*
G37*
G36*
X12010Y8990D02*
X12010Y9510D01*
X11490Y9510D01*
X11490Y8990D01*
X12010Y8990D01*
G37*
G36*
X34490Y17990D02*
X35010Y17990D01*
X35010Y18510D01*
X34490Y18510D01*
X34490Y17990D01*
G37*
G36*
X35510Y17260D02*
X34990Y17260D01*
X34990Y16740D01*
X35510Y16740D01*
X35510Y17260D01*
G37*
G36*
X35510Y3260D02*
X34990Y3260D01*
X34990Y2740D01*
X35510Y2740D01*
X35510Y3260D01*
G37*
G36*
X34740Y1240D02*
X35260Y1240D01*
X35260Y1760D01*
X34740Y1760D01*
X34740Y1240D01*
G37*
G36*
X36740Y9740D02*
X37260Y9740D01*
X37260Y10260D01*
X36740Y10260D01*
X36740Y9740D01*
G37*
G36*
X26990Y2760D02*
X26990Y2240D01*
X27510Y2240D01*
X27510Y2760D01*
X26990Y2760D01*
G37*
G36*
X27510Y9240D02*
X27510Y9760D01*
X26990Y9760D01*
X26990Y9240D01*
X27510Y9240D01*
G37*
G36*
X21157Y34830D02*
X21866Y34830D01*
X21866Y35539D01*
X21157Y35539D01*
X21157Y34830D01*
G37*
G36*
X7760Y26445D02*
X7240Y26445D01*
X7240Y25925D01*
X7760Y25925D01*
X7760Y26445D01*
G37*
G36*
X19204Y38578D02*
X18417Y38578D01*
X18417Y37791D01*
X19204Y37791D01*
X19204Y38578D01*
G37*
G36*
X31240Y32925D02*
X31760Y32925D01*
X31760Y33445D01*
X31240Y33445D01*
X31240Y32925D01*
G37*
G36*
X18375Y32185D02*
X17625Y32185D01*
X17625Y31185D01*
X18375Y31185D01*
X18375Y32185D01*
G37*
G36*
X23760Y35185D02*
X23240Y35185D01*
X23240Y34185D01*
X23760Y34185D01*
X23760Y35185D01*
G37*
G36*
X28760Y29185D02*
X28240Y29185D01*
X28240Y28185D01*
X28760Y28185D01*
X28760Y29185D01*
G37*
G36*
X33260Y32425D02*
X33260Y32945D01*
X32740Y32945D01*
X32740Y32425D01*
X33260Y32425D01*
G37*
G36*
X29010Y27445D02*
X28490Y27445D01*
X28490Y26925D01*
X29010Y26925D01*
X29010Y27445D01*
G37*
G36*
X29010Y26445D02*
X28490Y26445D01*
X28490Y25925D01*
X29010Y25925D01*
X29010Y26445D01*
G37*
G36*
X21760Y21685D02*
X21240Y21685D01*
X21240Y20685D01*
X21760Y20685D01*
X21760Y21685D01*
G37*
G36*
X22760Y30685D02*
X22240Y30685D01*
X22240Y29685D01*
X22760Y29685D01*
X22760Y30685D01*
G37*
G36*
X7260Y33445D02*
X6740Y33445D01*
X6740Y32925D01*
X7260Y32925D01*
X7260Y33445D01*
G37*
G36*
X5740Y30445D02*
X5740Y29925D01*
X6260Y29925D01*
X6260Y30445D01*
X5740Y30445D01*
G37*
G36*
X5740Y26445D02*
X5740Y25925D01*
X6260Y25925D01*
X6260Y26445D01*
X5740Y26445D01*
G37*
G36*
X7760Y29185D02*
X7240Y29185D01*
X7240Y28185D01*
X7760Y28185D01*
X7760Y29185D01*
G37*
G36*
X12760Y35185D02*
X12240Y35185D01*
X12240Y34185D01*
X12760Y34185D01*
X12760Y35185D01*
G37*
G36*
X12760Y30685D02*
X12240Y30685D01*
X12240Y29685D01*
X12760Y29685D01*
X12760Y30685D01*
G37*
G36*
X14760Y21685D02*
X14240Y21685D01*
X14240Y20685D01*
X14760Y20685D01*
X14760Y21685D01*
G37*
G36*
X13260Y26185D02*
X12740Y26185D01*
X12740Y25185D01*
X13260Y25185D01*
X13260Y26185D01*
G37*
G36*
X4260Y38445D02*
X3740Y38445D01*
X3740Y37925D01*
X4260Y37925D01*
X4260Y38445D01*
G37*
G36*
X3990Y36425D02*
X4510Y36425D01*
X4510Y36945D01*
X3990Y36945D01*
X3990Y36425D01*
G37*
G36*
X3990Y22425D02*
X4510Y22425D01*
X4510Y22945D01*
X3990Y22945D01*
X3990Y22425D01*
G37*
G36*
X4510Y21445D02*
X3990Y21445D01*
X3990Y20925D01*
X4510Y20925D01*
X4510Y21445D01*
G37*
G36*
X11490Y22445D02*
X11490Y21925D01*
X12010Y21925D01*
X12010Y22445D01*
X11490Y22445D01*
G37*
G36*
X2260Y29945D02*
X1740Y29945D01*
X1740Y29425D01*
X2260Y29425D01*
X2260Y29945D01*
G37*
G36*
X12010Y28675D02*
X12010Y29195D01*
X11490Y29195D01*
X11490Y28675D01*
X12010Y28675D01*
G37*
G36*
X34490Y37675D02*
X35010Y37675D01*
X35010Y38195D01*
X34490Y38195D01*
X34490Y37675D01*
G37*
G36*
X35510Y36945D02*
X34990Y36945D01*
X34990Y36425D01*
X35510Y36425D01*
X35510Y36945D01*
G37*
G36*
X35510Y22945D02*
X34990Y22945D01*
X34990Y22425D01*
X35510Y22425D01*
X35510Y22945D01*
G37*
G36*
X34740Y20925D02*
X35260Y20925D01*
X35260Y21445D01*
X34740Y21445D01*
X34740Y20925D01*
G37*
G36*
X36740Y29425D02*
X37260Y29425D01*
X37260Y29945D01*
X36740Y29945D01*
X36740Y29425D01*
G37*
G36*
X26990Y22445D02*
X26990Y21925D01*
X27510Y21925D01*
X27510Y22445D01*
X26990Y22445D01*
G37*
G36*
X27510Y28925D02*
X27510Y29445D01*
X26990Y29445D01*
X26990Y28925D01*
X27510Y28925D01*
G37*
M02*
