%FSLAX24Y24*%
%MOIN*%
%ADD10C,0.0300*%
%ADD11C,0.0520*%
%ADD12C,0.0551*%
%ADD13C,0.0709*%
%ADD14C,0.0750*%
%ADD15C,0.0787*%
%ADD16C,0.1575*%
%ADD17C,0.2362*%
D10*
G01X23447Y7648D03*
X18424Y4263D03*
X23447Y27333D03*
X18424Y23948D03*
D11*
G01X17000Y18500D03*
X17000Y16500D03*
X8000Y7500D03*
X10000Y7500D03*
X10500Y6500D03*
X33000Y6500D03*
X33000Y8500D03*
X28500Y13500D03*
X22000Y18500D03*
X22000Y16500D03*
X20000Y14000D03*
X18000Y14000D03*
X20000Y4500D03*
X20000Y2500D03*
X13000Y4000D03*
X13000Y2000D03*
X27000Y11000D03*
X27000Y13000D03*
X26000Y4250D03*
X26000Y2250D03*
X25500Y18240D02*
X25500Y17760D01*
X26500Y18240D02*
X26500Y17760D01*
X23500Y18240D02*
X23500Y17760D01*
X24500Y15240D02*
X24500Y14760D01*
X25500Y15240D02*
X25500Y14760D01*
X26500Y15240D02*
X26500Y14760D01*
X24500Y18240D02*
X24500Y17760D01*
X30500Y12240D02*
X30500Y11760D01*
X31500Y12240D02*
X31500Y11760D01*
X28500Y12240D02*
X28500Y11760D01*
X29500Y9240D02*
X29500Y8760D01*
X30500Y9240D02*
X30500Y8760D01*
X31500Y9240D02*
X31500Y8760D01*
X29500Y12240D02*
X29500Y11760D01*
X33000Y10000D03*
X31750Y7500D03*
X31750Y6500D03*
X23500Y4740D02*
X23500Y4260D01*
X24500Y4740D02*
X24500Y4260D01*
X21500Y4740D02*
X21500Y4260D01*
X22500Y1740D02*
X22500Y1260D01*
X23500Y1740D02*
X23500Y1260D01*
X24500Y1740D02*
X24500Y1260D01*
X22500Y4740D02*
X22500Y4260D01*
X24500Y13740D02*
X24500Y13260D01*
X25500Y13740D02*
X25500Y13260D01*
X22500Y13740D02*
X22500Y13260D01*
X23500Y10740D02*
X23500Y10260D01*
X24500Y10740D02*
X24500Y10260D01*
X25500Y10740D02*
X25500Y10260D01*
X23500Y13740D02*
X23500Y13260D01*
X10000Y13500D03*
X6000Y13500D03*
X6000Y9500D03*
X9500Y12240D02*
X9500Y11760D01*
X10500Y12240D02*
X10500Y11760D01*
X7500Y12240D02*
X7500Y11760D01*
X8500Y9240D02*
X8500Y8760D01*
X9500Y9240D02*
X9500Y8760D01*
X10500Y9240D02*
X10500Y8760D01*
X8500Y12240D02*
X8500Y11760D01*
X14500Y18240D02*
X14500Y17760D01*
X15500Y18240D02*
X15500Y17760D01*
X12500Y18240D02*
X12500Y17760D01*
X13500Y15240D02*
X13500Y14760D01*
X14500Y15240D02*
X14500Y14760D01*
X15500Y15240D02*
X15500Y14760D01*
X13500Y18240D02*
X13500Y17760D01*
X14500Y13740D02*
X14500Y13260D01*
X15500Y13740D02*
X15500Y13260D01*
X12500Y13740D02*
X12500Y13260D01*
X13500Y10740D02*
X13500Y10260D01*
X14500Y10740D02*
X14500Y10260D01*
X15500Y10740D02*
X15500Y10260D01*
X13500Y13740D02*
X13500Y13260D01*
X16500Y4740D02*
X16500Y4260D01*
X17500Y4740D02*
X17500Y4260D01*
X14500Y4740D02*
X14500Y4260D01*
X15500Y1740D02*
X15500Y1260D01*
X16500Y1740D02*
X16500Y1260D01*
X17500Y1740D02*
X17500Y1260D01*
X15500Y4740D02*
X15500Y4260D01*
X18000Y10500D03*
X20000Y10500D03*
X19000Y9240D02*
X19000Y8760D01*
X22000Y9240D02*
X22000Y8760D01*
X16000Y9240D02*
X16000Y8760D01*
X24000Y9240D02*
X24000Y8760D01*
X13000Y9240D02*
X13000Y8760D01*
X20000Y6240D02*
X20000Y5760D01*
X23000Y9240D02*
X23000Y8760D01*
X26000Y6240D02*
X26000Y5760D01*
X24000Y6240D02*
X24000Y5760D01*
X14000Y6240D02*
X14000Y5760D01*
X23000Y6240D02*
X23000Y5760D01*
X21000Y6240D02*
X21000Y5760D01*
X18000Y9240D02*
X18000Y8760D01*
X17000Y6240D02*
X17000Y5760D01*
X17000Y9240D02*
X17000Y8760D01*
X25000Y9240D02*
X25000Y8760D01*
X25000Y6240D02*
X25000Y5760D01*
X22000Y6240D02*
X22000Y5760D01*
X16000Y6240D02*
X16000Y5760D01*
X20000Y9240D02*
X20000Y8760D01*
X26000Y9240D02*
X26000Y8760D01*
X15000Y9240D02*
X15000Y8760D01*
X15000Y6240D02*
X15000Y5760D01*
X14000Y9240D02*
X14000Y8760D01*
X19000Y6240D02*
X19000Y5760D01*
X21000Y9240D02*
X21000Y8760D01*
X18000Y6240D02*
X18000Y5760D01*
X19000Y4500D03*
X19000Y2500D03*
X5000Y18500D03*
X3250Y17000D03*
X3250Y3000D03*
X5250Y1500D03*
X11750Y5500D03*
X5000Y10000D03*
X11750Y6250D03*
X33750Y18250D03*
X36250Y17000D03*
X36250Y3000D03*
X34000Y1500D03*
X34000Y10000D03*
X27250Y5500D03*
X27250Y6500D03*
X17000Y38185D03*
X17000Y36185D03*
X8000Y27185D03*
X10000Y27185D03*
X10500Y26185D03*
X33000Y26185D03*
X33000Y28185D03*
X28500Y33185D03*
X22000Y38185D03*
X22000Y36185D03*
X20000Y33685D03*
X18000Y33685D03*
X20000Y24185D03*
X20000Y22185D03*
X13000Y23685D03*
X13000Y21685D03*
X27000Y30685D03*
X27000Y32685D03*
X26000Y23935D03*
X26000Y21935D03*
X25500Y37925D02*
X25500Y37445D01*
X26500Y37925D02*
X26500Y37445D01*
X23500Y37925D02*
X23500Y37445D01*
X24500Y34925D02*
X24500Y34445D01*
X25500Y34925D02*
X25500Y34445D01*
X26500Y34925D02*
X26500Y34445D01*
X24500Y37925D02*
X24500Y37445D01*
X30500Y31925D02*
X30500Y31445D01*
X31500Y31925D02*
X31500Y31445D01*
X28500Y31925D02*
X28500Y31445D01*
X29500Y28925D02*
X29500Y28445D01*
X30500Y28925D02*
X30500Y28445D01*
X31500Y28925D02*
X31500Y28445D01*
X29500Y31925D02*
X29500Y31445D01*
X33000Y29685D03*
X31750Y27185D03*
X31750Y26185D03*
X23500Y24425D02*
X23500Y23945D01*
X24500Y24425D02*
X24500Y23945D01*
X21500Y24425D02*
X21500Y23945D01*
X22500Y21425D02*
X22500Y20945D01*
X23500Y21425D02*
X23500Y20945D01*
X24500Y21425D02*
X24500Y20945D01*
X22500Y24425D02*
X22500Y23945D01*
X24500Y33425D02*
X24500Y32945D01*
X25500Y33425D02*
X25500Y32945D01*
X22500Y33425D02*
X22500Y32945D01*
X23500Y30425D02*
X23500Y29945D01*
X24500Y30425D02*
X24500Y29945D01*
X25500Y30425D02*
X25500Y29945D01*
X23500Y33425D02*
X23500Y32945D01*
X10000Y33185D03*
X6000Y33185D03*
X6000Y29185D03*
X9500Y31925D02*
X9500Y31445D01*
X10500Y31925D02*
X10500Y31445D01*
X7500Y31925D02*
X7500Y31445D01*
X8500Y28925D02*
X8500Y28445D01*
X9500Y28925D02*
X9500Y28445D01*
X10500Y28925D02*
X10500Y28445D01*
X8500Y31925D02*
X8500Y31445D01*
X14500Y37925D02*
X14500Y37445D01*
X15500Y37925D02*
X15500Y37445D01*
X12500Y37925D02*
X12500Y37445D01*
X13500Y34925D02*
X13500Y34445D01*
X14500Y34925D02*
X14500Y34445D01*
X15500Y34925D02*
X15500Y34445D01*
X13500Y37925D02*
X13500Y37445D01*
X14500Y33425D02*
X14500Y32945D01*
X15500Y33425D02*
X15500Y32945D01*
X12500Y33425D02*
X12500Y32945D01*
X13500Y30425D02*
X13500Y29945D01*
X14500Y30425D02*
X14500Y29945D01*
X15500Y30425D02*
X15500Y29945D01*
X13500Y33425D02*
X13500Y32945D01*
X16500Y24425D02*
X16500Y23945D01*
X17500Y24425D02*
X17500Y23945D01*
X14500Y24425D02*
X14500Y23945D01*
X15500Y21425D02*
X15500Y20945D01*
X16500Y21425D02*
X16500Y20945D01*
X17500Y21425D02*
X17500Y20945D01*
X15500Y24425D02*
X15500Y23945D01*
X18000Y30185D03*
X20000Y30185D03*
X19000Y28925D02*
X19000Y28445D01*
X22000Y28925D02*
X22000Y28445D01*
X16000Y28925D02*
X16000Y28445D01*
X24000Y28925D02*
X24000Y28445D01*
X13000Y28925D02*
X13000Y28445D01*
X20000Y25925D02*
X20000Y25445D01*
X23000Y28925D02*
X23000Y28445D01*
X26000Y25925D02*
X26000Y25445D01*
X24000Y25925D02*
X24000Y25445D01*
X14000Y25925D02*
X14000Y25445D01*
X23000Y25925D02*
X23000Y25445D01*
X21000Y25925D02*
X21000Y25445D01*
X18000Y28925D02*
X18000Y28445D01*
X17000Y25925D02*
X17000Y25445D01*
X17000Y28925D02*
X17000Y28445D01*
X25000Y28925D02*
X25000Y28445D01*
X25000Y25925D02*
X25000Y25445D01*
X22000Y25925D02*
X22000Y25445D01*
X16000Y25925D02*
X16000Y25445D01*
X20000Y28925D02*
X20000Y28445D01*
X26000Y28925D02*
X26000Y28445D01*
X15000Y28925D02*
X15000Y28445D01*
X15000Y25925D02*
X15000Y25445D01*
X14000Y28925D02*
X14000Y28445D01*
X19000Y25925D02*
X19000Y25445D01*
X21000Y28925D02*
X21000Y28445D01*
X18000Y25925D02*
X18000Y25445D01*
X19000Y24185D03*
X19000Y22185D03*
X5000Y38185D03*
X3250Y36685D03*
X3250Y22685D03*
X5250Y21185D03*
X11750Y25185D03*
X5000Y29685D03*
X11750Y25935D03*
X33750Y37935D03*
X36250Y36685D03*
X36250Y22685D03*
X34000Y21185D03*
X34000Y29685D03*
X27250Y25185D03*
X27250Y26185D03*
D12*
G01X8250Y5250D03*
X7750Y4250D03*
X9250Y5250D03*
X8750Y4250D03*
X30750Y14750D03*
X31250Y15750D03*
X29750Y14750D03*
X30250Y15750D03*
X34250Y13000D03*
X35250Y12500D03*
X34250Y14000D03*
X35250Y13500D03*
X34250Y6500D03*
X35250Y6000D03*
X34250Y7500D03*
X35250Y7000D03*
X30250Y5250D03*
X29750Y4250D03*
X31250Y5250D03*
X30750Y4250D03*
X4750Y7000D03*
X3750Y7500D03*
X4750Y6000D03*
X3750Y6500D03*
X4750Y13500D03*
X3750Y14000D03*
X4750Y12500D03*
X3750Y13000D03*
X8750Y14750D03*
X9250Y15750D03*
X7750Y14750D03*
X8250Y15750D03*
X8250Y24935D03*
X7750Y23935D03*
X9250Y24935D03*
X8750Y23935D03*
X30750Y34435D03*
X31250Y35435D03*
X29750Y34435D03*
X30250Y35435D03*
X34250Y32685D03*
X35250Y32185D03*
X34250Y33685D03*
X35250Y33185D03*
X34250Y26185D03*
X35250Y25685D03*
X34250Y27185D03*
X35250Y26685D03*
X30250Y24935D03*
X29750Y23935D03*
X31250Y24935D03*
X30750Y23935D03*
X4750Y26685D03*
X3750Y27185D03*
X4750Y25685D03*
X3750Y26185D03*
X4750Y33185D03*
X3750Y33685D03*
X4750Y32185D03*
X3750Y32685D03*
X8750Y34435D03*
X9250Y35435D03*
X7750Y34435D03*
X8250Y35435D03*
D13*
G01X17487Y15500D03*
X17487Y35185D03*
D14*
G01X20000Y12125D02*
X20000Y11875D01*
X19000Y12125D02*
X19000Y11875D01*
X20000Y31810D02*
X20000Y31560D01*
X19000Y31810D02*
X19000Y31560D01*
D15*
G01X20189Y18500D03*
X20189Y38185D03*
D16*
G01X10500Y1750D03*
X6500Y1750D03*
X28500Y18250D03*
X32500Y18250D03*
X37750Y15250D03*
X37750Y11250D03*
X37750Y8750D03*
X37750Y4750D03*
X32500Y1750D03*
X28500Y1750D03*
X1250Y4750D03*
X1250Y8750D03*
X1250Y11250D03*
X1250Y15250D03*
X6500Y18250D03*
X10500Y18250D03*
X10500Y21435D03*
X6500Y21435D03*
X28500Y37935D03*
X32500Y37935D03*
X37750Y34935D03*
X37750Y30935D03*
X37750Y28435D03*
X37750Y24435D03*
X32500Y21435D03*
X28500Y21435D03*
X1250Y24435D03*
X1250Y28435D03*
X1250Y30935D03*
X1250Y34935D03*
X6500Y37935D03*
X10500Y37935D03*
D17*
G01X1750Y18000D03*
X37500Y18000D03*
X1750Y2000D03*
X37500Y2000D03*
X1750Y37685D03*
X37500Y37685D03*
X1750Y21685D03*
X37500Y21685D03*
G36*
X21157Y15145D02*
X21866Y15145D01*
X21866Y15854D01*
X21157Y15854D01*
X21157Y15145D01*
G37*
G36*
X7760Y6760D02*
X7240Y6760D01*
X7240Y6240D01*
X7760Y6240D01*
X7760Y6760D01*
G37*
G36*
X19204Y18893D02*
X18417Y18893D01*
X18417Y18106D01*
X19204Y18106D01*
X19204Y18893D01*
G37*
G36*
X31240Y13240D02*
X31760Y13240D01*
X31760Y13760D01*
X31240Y13760D01*
X31240Y13240D01*
G37*
G36*
X18375Y12500D02*
X17625Y12500D01*
X17625Y11500D01*
X18375Y11500D01*
X18375Y12500D01*
G37*
G36*
X23760Y15500D02*
X23240Y15500D01*
X23240Y14500D01*
X23760Y14500D01*
X23760Y15500D01*
G37*
G36*
X28760Y9500D02*
X28240Y9500D01*
X28240Y8500D01*
X28760Y8500D01*
X28760Y9500D01*
G37*
G36*
X33260Y12740D02*
X33260Y13260D01*
X32740Y13260D01*
X32740Y12740D01*
X33260Y12740D01*
G37*
G36*
X29010Y7760D02*
X28490Y7760D01*
X28490Y7240D01*
X29010Y7240D01*
X29010Y7760D01*
G37*
G36*
X29010Y6760D02*
X28490Y6760D01*
X28490Y6240D01*
X29010Y6240D01*
X29010Y6760D01*
G37*
G36*
X21760Y2000D02*
X21240Y2000D01*
X21240Y1000D01*
X21760Y1000D01*
X21760Y2000D01*
G37*
G36*
X22760Y11000D02*
X22240Y11000D01*
X22240Y10000D01*
X22760Y10000D01*
X22760Y11000D01*
G37*
G36*
X7260Y13760D02*
X6740Y13760D01*
X6740Y13240D01*
X7260Y13240D01*
X7260Y13760D01*
G37*
G36*
X5740Y10760D02*
X5740Y10240D01*
X6260Y10240D01*
X6260Y10760D01*
X5740Y10760D01*
G37*
G36*
X5740Y6760D02*
X5740Y6240D01*
X6260Y6240D01*
X6260Y6760D01*
X5740Y6760D01*
G37*
G36*
X7760Y9500D02*
X7240Y9500D01*
X7240Y8500D01*
X7760Y8500D01*
X7760Y9500D01*
G37*
G36*
X12760Y15500D02*
X12240Y15500D01*
X12240Y14500D01*
X12760Y14500D01*
X12760Y15500D01*
G37*
G36*
X12760Y11000D02*
X12240Y11000D01*
X12240Y10000D01*
X12760Y10000D01*
X12760Y11000D01*
G37*
G36*
X14760Y2000D02*
X14240Y2000D01*
X14240Y1000D01*
X14760Y1000D01*
X14760Y2000D01*
G37*
G36*
X13260Y6500D02*
X12740Y6500D01*
X12740Y5500D01*
X13260Y5500D01*
X13260Y6500D01*
G37*
G36*
X4260Y18760D02*
X3740Y18760D01*
X3740Y18240D01*
X4260Y18240D01*
X4260Y18760D01*
G37*
G36*
X3990Y16740D02*
X4510Y16740D01*
X4510Y17260D01*
X3990Y17260D01*
X3990Y16740D01*
G37*
G36*
X3990Y2740D02*
X4510Y2740D01*
X4510Y3260D01*
X3990Y3260D01*
X3990Y2740D01*
G37*
G36*
X4510Y1760D02*
X3990Y1760D01*
X3990Y1240D01*
X4510Y1240D01*
X4510Y1760D01*
G37*
G36*
X11490Y2760D02*
X11490Y2240D01*
X12010Y2240D01*
X12010Y2760D01*
X11490Y2760D01*
G37*
G36*
X2260Y10260D02*
X1740Y10260D01*
X1740Y9740D01*
X2260Y9740D01*
X2260Y10260D01*
G37*
G36*
X12010Y8990D02*
X12010Y9510D01*
X11490Y9510D01*
X11490Y8990D01*
X12010Y8990D01*
G37*
G36*
X34490Y17990D02*
X35010Y17990D01*
X35010Y18510D01*
X34490Y18510D01*
X34490Y17990D01*
G37*
G36*
X35510Y17260D02*
X34990Y17260D01*
X34990Y16740D01*
X35510Y16740D01*
X35510Y17260D01*
G37*
G36*
X35510Y3260D02*
X34990Y3260D01*
X34990Y2740D01*
X35510Y2740D01*
X35510Y3260D01*
G37*
G36*
X34740Y1240D02*
X35260Y1240D01*
X35260Y1760D01*
X34740Y1760D01*
X34740Y1240D01*
G37*
G36*
X36740Y9740D02*
X37260Y9740D01*
X37260Y10260D01*
X36740Y10260D01*
X36740Y9740D01*
G37*
G36*
X26990Y2760D02*
X26990Y2240D01*
X27510Y2240D01*
X27510Y2760D01*
X26990Y2760D01*
G37*
G36*
X27510Y9240D02*
X27510Y9760D01*
X26990Y9760D01*
X26990Y9240D01*
X27510Y9240D01*
G37*
G36*
X21157Y34830D02*
X21866Y34830D01*
X21866Y35539D01*
X21157Y35539D01*
X21157Y34830D01*
G37*
G36*
X7760Y26445D02*
X7240Y26445D01*
X7240Y25925D01*
X7760Y25925D01*
X7760Y26445D01*
G37*
G36*
X19204Y38578D02*
X18417Y38578D01*
X18417Y37791D01*
X19204Y37791D01*
X19204Y38578D01*
G37*
G36*
X31240Y32925D02*
X31760Y32925D01*
X31760Y33445D01*
X31240Y33445D01*
X31240Y32925D01*
G37*
G36*
X18375Y32185D02*
X17625Y32185D01*
X17625Y31185D01*
X18375Y31185D01*
X18375Y32185D01*
G37*
G36*
X23760Y35185D02*
X23240Y35185D01*
X23240Y34185D01*
X23760Y34185D01*
X23760Y35185D01*
G37*
G36*
X28760Y29185D02*
X28240Y29185D01*
X28240Y28185D01*
X28760Y28185D01*
X28760Y29185D01*
G37*
G36*
X33260Y32425D02*
X33260Y32945D01*
X32740Y32945D01*
X32740Y32425D01*
X33260Y32425D01*
G37*
G36*
X29010Y27445D02*
X28490Y27445D01*
X28490Y26925D01*
X29010Y26925D01*
X29010Y27445D01*
G37*
G36*
X29010Y26445D02*
X28490Y26445D01*
X28490Y25925D01*
X29010Y25925D01*
X29010Y26445D01*
G37*
G36*
X21760Y21685D02*
X21240Y21685D01*
X21240Y20685D01*
X21760Y20685D01*
X21760Y21685D01*
G37*
G36*
X22760Y30685D02*
X22240Y30685D01*
X22240Y29685D01*
X22760Y29685D01*
X22760Y30685D01*
G37*
G36*
X7260Y33445D02*
X6740Y33445D01*
X6740Y32925D01*
X7260Y32925D01*
X7260Y33445D01*
G37*
G36*
X5740Y30445D02*
X5740Y29925D01*
X6260Y29925D01*
X6260Y30445D01*
X5740Y30445D01*
G37*
G36*
X5740Y26445D02*
X5740Y25925D01*
X6260Y25925D01*
X6260Y26445D01*
X5740Y26445D01*
G37*
G36*
X7760Y29185D02*
X7240Y29185D01*
X7240Y28185D01*
X7760Y28185D01*
X7760Y29185D01*
G37*
G36*
X12760Y35185D02*
X12240Y35185D01*
X12240Y34185D01*
X12760Y34185D01*
X12760Y35185D01*
G37*
G36*
X12760Y30685D02*
X12240Y30685D01*
X12240Y29685D01*
X12760Y29685D01*
X12760Y30685D01*
G37*
G36*
X14760Y21685D02*
X14240Y21685D01*
X14240Y20685D01*
X14760Y20685D01*
X14760Y21685D01*
G37*
G36*
X13260Y26185D02*
X12740Y26185D01*
X12740Y25185D01*
X13260Y25185D01*
X13260Y26185D01*
G37*
G36*
X4260Y38445D02*
X3740Y38445D01*
X3740Y37925D01*
X4260Y37925D01*
X4260Y38445D01*
G37*
G36*
X3990Y36425D02*
X4510Y36425D01*
X4510Y36945D01*
X3990Y36945D01*
X3990Y36425D01*
G37*
G36*
X3990Y22425D02*
X4510Y22425D01*
X4510Y22945D01*
X3990Y22945D01*
X3990Y22425D01*
G37*
G36*
X4510Y21445D02*
X3990Y21445D01*
X3990Y20925D01*
X4510Y20925D01*
X4510Y21445D01*
G37*
G36*
X11490Y22445D02*
X11490Y21925D01*
X12010Y21925D01*
X12010Y22445D01*
X11490Y22445D01*
G37*
G36*
X2260Y29945D02*
X1740Y29945D01*
X1740Y29425D01*
X2260Y29425D01*
X2260Y29945D01*
G37*
G36*
X12010Y28675D02*
X12010Y29195D01*
X11490Y29195D01*
X11490Y28675D01*
X12010Y28675D01*
G37*
G36*
X34490Y37675D02*
X35010Y37675D01*
X35010Y38195D01*
X34490Y38195D01*
X34490Y37675D01*
G37*
G36*
X35510Y36945D02*
X34990Y36945D01*
X34990Y36425D01*
X35510Y36425D01*
X35510Y36945D01*
G37*
G36*
X35510Y22945D02*
X34990Y22945D01*
X34990Y22425D01*
X35510Y22425D01*
X35510Y22945D01*
G37*
G36*
X34740Y20925D02*
X35260Y20925D01*
X35260Y21445D01*
X34740Y21445D01*
X34740Y20925D01*
G37*
G36*
X36740Y29425D02*
X37260Y29425D01*
X37260Y29945D01*
X36740Y29945D01*
X36740Y29425D01*
G37*
G36*
X26990Y22445D02*
X26990Y21925D01*
X27510Y21925D01*
X27510Y22445D01*
X26990Y22445D01*
G37*
G36*
X27510Y28925D02*
X27510Y29445D01*
X26990Y29445D01*
X26990Y28925D01*
X27510Y28925D01*
G37*
M02*
