%FSLAX24Y24*%
%MOIN*%
%ADD10C,0.0053*%
%ADD11C,0.0394*%
D10*
G01X16452Y2038D02*
X16505Y2064D01*
X16505Y2064D02*
X16611Y2064D01*
X16611Y2064D02*
X16664Y2038D01*
X16664Y2038D02*
X16716Y1985D01*
X16716Y1985D02*
X16743Y1932D01*
X16743Y1932D02*
X16743Y1826D01*
X16743Y1826D02*
X16716Y1773D01*
X16716Y1773D02*
X16664Y1720D01*
X16664Y1720D02*
X16611Y1694D01*
X16611Y1694D02*
X16505Y1694D01*
X16505Y1694D02*
X16452Y1720D01*
X16558Y2250D02*
X16690Y2223D01*
X16690Y2223D02*
X16822Y2144D01*
X16822Y2144D02*
X16902Y2011D01*
X16902Y2011D02*
X16928Y1879D01*
X16928Y1879D02*
X16902Y1747D01*
X16902Y1747D02*
X16822Y1615D01*
X16822Y1615D02*
X16690Y1535D01*
X16690Y1535D02*
X16558Y1509D01*
X16558Y1509D02*
X16425Y1535D01*
X16425Y1535D02*
X16293Y1615D01*
X16293Y1615D02*
X16214Y1747D01*
X16214Y1747D02*
X16187Y1879D01*
X16187Y1879D02*
X16214Y2011D01*
X16214Y2011D02*
X16293Y2144D01*
X16293Y2144D02*
X16425Y2223D01*
X16425Y2223D02*
X16558Y2250D01*
X15526Y1615D02*
X15526Y2170D01*
X15526Y2170D02*
X15314Y2170D01*
X15314Y2170D02*
X15261Y2144D01*
X15261Y2144D02*
X15235Y2117D01*
X15235Y2117D02*
X15208Y2064D01*
X15208Y2064D02*
X15208Y1985D01*
X15208Y1985D02*
X15235Y1932D01*
X15235Y1932D02*
X15261Y1906D01*
X15261Y1906D02*
X15314Y1879D01*
X15314Y1879D02*
X15526Y1879D01*
X14970Y1615D02*
X14970Y1985D01*
X14970Y2170D02*
X14997Y2144D01*
X14997Y2144D02*
X14970Y2117D01*
X14970Y2117D02*
X14944Y2144D01*
X14944Y2144D02*
X14970Y2170D01*
X14970Y2170D02*
X14970Y2117D01*
X14494Y1641D02*
X14547Y1615D01*
X14547Y1615D02*
X14653Y1615D01*
X14653Y1615D02*
X14706Y1641D01*
X14706Y1641D02*
X14732Y1694D01*
X14732Y1694D02*
X14732Y1906D01*
X14732Y1906D02*
X14706Y1958D01*
X14706Y1958D02*
X14653Y1985D01*
X14653Y1985D02*
X14547Y1985D01*
X14547Y1985D02*
X14494Y1958D01*
X14494Y1958D02*
X14468Y1906D01*
X14468Y1906D02*
X14468Y1853D01*
X14468Y1853D02*
X14732Y1800D01*
X14230Y1615D02*
X14230Y1985D01*
X14230Y1879D02*
X14203Y1932D01*
X14203Y1932D02*
X14177Y1958D01*
X14177Y1958D02*
X14124Y1985D01*
X14124Y1985D02*
X14071Y1985D01*
X13886Y1615D02*
X13886Y1985D01*
X13886Y1879D02*
X13859Y1932D01*
X13859Y1932D02*
X13833Y1958D01*
X13833Y1958D02*
X13780Y1985D01*
X13780Y1985D02*
X13727Y1985D01*
X13330Y1641D02*
X13383Y1615D01*
X13383Y1615D02*
X13489Y1615D01*
X13489Y1615D02*
X13542Y1641D01*
X13542Y1641D02*
X13568Y1694D01*
X13568Y1694D02*
X13568Y1906D01*
X13568Y1906D02*
X13542Y1958D01*
X13542Y1958D02*
X13489Y1985D01*
X13489Y1985D02*
X13383Y1985D01*
X13383Y1985D02*
X13330Y1958D01*
X13330Y1958D02*
X13304Y1906D01*
X13304Y1906D02*
X13304Y1853D01*
X13304Y1853D02*
X13568Y1800D01*
X12642Y1615D02*
X12642Y2170D01*
X12642Y2170D02*
X12457Y1773D01*
X12457Y1773D02*
X12272Y2170D01*
X12272Y2170D02*
X12272Y1615D01*
X11928Y1615D02*
X11981Y1641D01*
X11981Y1641D02*
X12007Y1667D01*
X12007Y1667D02*
X12034Y1720D01*
X12034Y1720D02*
X12034Y1879D01*
X12034Y1879D02*
X12007Y1932D01*
X12007Y1932D02*
X11981Y1958D01*
X11981Y1958D02*
X11928Y1985D01*
X11928Y1985D02*
X11849Y1985D01*
X11849Y1985D02*
X11796Y1958D01*
X11796Y1958D02*
X11769Y1932D01*
X11769Y1932D02*
X11743Y1879D01*
X11743Y1879D02*
X11743Y1720D01*
X11743Y1720D02*
X11769Y1667D01*
X11769Y1667D02*
X11796Y1641D01*
X11796Y1641D02*
X11849Y1615D01*
X11849Y1615D02*
X11928Y1615D01*
X11425Y1615D02*
X11478Y1641D01*
X11478Y1641D02*
X11505Y1694D01*
X11505Y1694D02*
X11505Y2170D01*
X11214Y1615D02*
X11214Y1985D01*
X11214Y2170D02*
X11240Y2144D01*
X11240Y2144D02*
X11214Y2117D01*
X11214Y2117D02*
X11187Y2144D01*
X11187Y2144D02*
X11214Y2170D01*
X11214Y2170D02*
X11214Y2117D01*
X10949Y1985D02*
X10949Y1615D01*
X10949Y1932D02*
X10923Y1958D01*
X10923Y1958D02*
X10870Y1985D01*
X10870Y1985D02*
X10791Y1985D01*
X10791Y1985D02*
X10738Y1958D01*
X10738Y1958D02*
X10711Y1906D01*
X10711Y1906D02*
X10711Y1615D01*
X10208Y1615D02*
X10208Y1906D01*
X10208Y1906D02*
X10235Y1958D01*
X10235Y1958D02*
X10288Y1985D01*
X10288Y1985D02*
X10394Y1985D01*
X10394Y1985D02*
X10447Y1958D01*
X10208Y1641D02*
X10261Y1615D01*
X10261Y1615D02*
X10394Y1615D01*
X10394Y1615D02*
X10447Y1641D01*
X10447Y1641D02*
X10473Y1694D01*
X10473Y1694D02*
X10473Y1747D01*
X10473Y1747D02*
X10447Y1800D01*
X10447Y1800D02*
X10394Y1826D01*
X10394Y1826D02*
X10261Y1826D01*
X10261Y1826D02*
X10208Y1853D01*
X9944Y1615D02*
X9944Y1985D01*
X9944Y1879D02*
X9917Y1932D01*
X9917Y1932D02*
X9891Y1958D01*
X9891Y1958D02*
X9838Y1985D01*
X9838Y1985D02*
X9785Y1985D01*
X9521Y1615D02*
X9574Y1641D01*
X9574Y1641D02*
X9600Y1667D01*
X9600Y1667D02*
X9626Y1720D01*
X9626Y1720D02*
X9626Y1879D01*
X9626Y1879D02*
X9600Y1932D01*
X9600Y1932D02*
X9574Y1958D01*
X9574Y1958D02*
X9521Y1985D01*
X9521Y1985D02*
X9441Y1985D01*
X9441Y1985D02*
X9388Y1958D01*
X9388Y1958D02*
X9362Y1932D01*
X9362Y1932D02*
X9335Y1879D01*
X9335Y1879D02*
X9335Y1720D01*
X9335Y1720D02*
X9362Y1667D01*
X9362Y1667D02*
X9388Y1641D01*
X9388Y1641D02*
X9441Y1615D01*
X9441Y1615D02*
X9521Y1615D01*
X9071Y1641D02*
X9071Y1615D01*
X9071Y1615D02*
X9097Y1562D01*
X9097Y1562D02*
X9124Y1535D01*
X8410Y1615D02*
X8410Y1985D01*
X8410Y1932D02*
X8383Y1958D01*
X8383Y1958D02*
X8330Y1985D01*
X8330Y1985D02*
X8251Y1985D01*
X8251Y1985D02*
X8198Y1958D01*
X8198Y1958D02*
X8171Y1906D01*
X8171Y1906D02*
X8171Y1615D01*
X8171Y1906D02*
X8145Y1958D01*
X8145Y1958D02*
X8092Y1985D01*
X8092Y1985D02*
X8013Y1985D01*
X8013Y1985D02*
X7960Y1958D01*
X7960Y1958D02*
X7933Y1906D01*
X7933Y1906D02*
X7933Y1615D01*
X7431Y1615D02*
X7431Y1906D01*
X7431Y1906D02*
X7457Y1958D01*
X7457Y1958D02*
X7510Y1985D01*
X7510Y1985D02*
X7616Y1985D01*
X7616Y1985D02*
X7669Y1958D01*
X7431Y1641D02*
X7484Y1615D01*
X7484Y1615D02*
X7616Y1615D01*
X7616Y1615D02*
X7669Y1641D01*
X7669Y1641D02*
X7695Y1694D01*
X7695Y1694D02*
X7695Y1747D01*
X7695Y1747D02*
X7669Y1800D01*
X7669Y1800D02*
X7616Y1826D01*
X7616Y1826D02*
X7484Y1826D01*
X7484Y1826D02*
X7431Y1853D01*
X7166Y1615D02*
X7166Y1985D01*
X7166Y1879D02*
X7140Y1932D01*
X7140Y1932D02*
X7113Y1958D01*
X7113Y1958D02*
X7060Y1985D01*
X7060Y1985D02*
X7007Y1985D01*
X6849Y1641D02*
X6796Y1615D01*
X6796Y1615D02*
X6690Y1615D01*
X6690Y1615D02*
X6637Y1641D01*
X6637Y1641D02*
X6611Y1694D01*
X6611Y1694D02*
X6611Y1720D01*
X6611Y1720D02*
X6637Y1773D01*
X6637Y1773D02*
X6690Y1800D01*
X6690Y1800D02*
X6769Y1800D01*
X6769Y1800D02*
X6822Y1826D01*
X6822Y1826D02*
X6849Y1879D01*
X6849Y1879D02*
X6849Y1906D01*
X6849Y1906D02*
X6822Y1958D01*
X6822Y1958D02*
X6769Y1985D01*
X6769Y1985D02*
X6690Y1985D01*
X6690Y1985D02*
X6637Y1958D01*
X5976Y2117D02*
X5949Y2144D01*
X5949Y2144D02*
X5896Y2170D01*
X5896Y2170D02*
X5764Y2170D01*
X5764Y2170D02*
X5711Y2144D01*
X5711Y2144D02*
X5685Y2117D01*
X5685Y2117D02*
X5658Y2064D01*
X5658Y2064D02*
X5658Y2011D01*
X5658Y2011D02*
X5685Y1932D01*
X5685Y1932D02*
X6002Y1615D01*
X6002Y1615D02*
X5658Y1615D01*
X5314Y2170D02*
X5261Y2170D01*
X5261Y2170D02*
X5208Y2144D01*
X5208Y2144D02*
X5182Y2117D01*
X5182Y2117D02*
X5156Y2064D01*
X5156Y2064D02*
X5129Y1958D01*
X5129Y1958D02*
X5129Y1826D01*
X5129Y1826D02*
X5156Y1720D01*
X5156Y1720D02*
X5182Y1667D01*
X5182Y1667D02*
X5208Y1641D01*
X5208Y1641D02*
X5261Y1615D01*
X5261Y1615D02*
X5314Y1615D01*
X5314Y1615D02*
X5367Y1641D01*
X5367Y1641D02*
X5394Y1667D01*
X5394Y1667D02*
X5420Y1720D01*
X5420Y1720D02*
X5447Y1826D01*
X5447Y1826D02*
X5447Y1958D01*
X5447Y1958D02*
X5420Y2064D01*
X5420Y2064D02*
X5394Y2117D01*
X5394Y2117D02*
X5367Y2144D01*
X5367Y2144D02*
X5314Y2170D01*
X4917Y2117D02*
X4891Y2144D01*
X4891Y2144D02*
X4838Y2170D01*
X4838Y2170D02*
X4706Y2170D01*
X4706Y2170D02*
X4653Y2144D01*
X4653Y2144D02*
X4626Y2117D01*
X4626Y2117D02*
X4600Y2064D01*
X4600Y2064D02*
X4600Y2011D01*
X4600Y2011D02*
X4626Y1932D01*
X4626Y1932D02*
X4944Y1615D01*
X4944Y1615D02*
X4600Y1615D01*
X4415Y2170D02*
X4071Y2170D01*
X4071Y2170D02*
X4256Y1958D01*
X4256Y1958D02*
X4177Y1958D01*
X4177Y1958D02*
X4124Y1932D01*
X4124Y1932D02*
X4097Y1906D01*
X4097Y1906D02*
X4071Y1853D01*
X4071Y1853D02*
X4071Y1720D01*
X4071Y1720D02*
X4097Y1667D01*
X4097Y1667D02*
X4124Y1641D01*
X4124Y1641D02*
X4177Y1615D01*
X4177Y1615D02*
X4335Y1615D01*
X4335Y1615D02*
X4388Y1641D01*
X4388Y1641D02*
X4415Y1667D01*
D11*
G01X0Y0D02*
X0Y19685D01*
X39370Y19685D01*
X39370Y0D01*
X0Y0D01*
M02*
