M48
INCH
T1C0.0320
T2C0.0394
T3C0.0400
T4C0.0433
T5C0.0512
T6C0.0550
T7C0.0591
T8C0.1260
T9C0.1500
%
G05
M72
T1
X2.9500Y0.4439
X2.9500Y0.3061
X2.6500Y1.3234
X2.6500Y1.1266
X2.5000Y1.5500
X2.7000Y1.5500
X2.0000Y0.8500
X2.0000Y1.2500
X2.1000Y0.8500
X2.1000Y1.2500
X2.5750Y0.5750
X2.2750Y0.6750
X2.5750Y0.7750
X2.5750Y0.4750
X2.5750Y0.6750
X2.2750Y0.5750
X2.2750Y0.7750
X2.2750Y0.4750
X3.7500Y1.4000
X3.7500Y1.0000
X3.7500Y0.8000
X3.7500Y0.4000
X2.7000Y0.9500
X2.6000Y0.9500
X0.8000Y1.4000
X1.3000Y1.4000
X2.0000Y1.4000
X0.2000Y1.4000
X0.8000Y0.7000
X1.2000Y1.4000
X1.6000Y0.7000
X0.5000Y1.4000
X1.0000Y1.4000
X1.8000Y1.4000
X1.7000Y0.7000
X0.3000Y0.7000
X0.4000Y1.4000
X1.5000Y0.7000
X1.7000Y1.4000
X0.6000Y0.7000
X0.2000Y0.7000
X0.9000Y0.7000
X1.9000Y0.7000
X1.1000Y0.7000
X1.6000Y1.4000
X0.6000Y1.4000
X1.3000Y0.7000
X2.1000Y1.4000
X1.5000Y1.4000
X1.0000Y0.7000
X0.3000Y1.4000
X0.5000Y0.7000
X1.8000Y0.7000
X0.7000Y0.7000
X1.4000Y0.7000
X2.0000Y0.7000
X1.2000Y0.7000
X1.1000Y1.4000
X0.4000Y0.7000
X0.7000Y1.4000
X1.4000Y1.4000
X0.9000Y1.4000
X2.1000Y0.7000
X1.9000Y1.4000
X2.2750Y0.3000
X2.4750Y0.3000
X2.3750Y0.3000
X2.5750Y0.3000
X3.2000Y0.5000
X3.2000Y0.3000
X0.1500Y0.5750
X0.1500Y0.4750
X0.6000Y0.5750
X0.6000Y0.4750
X0.4500Y0.5750
X0.4500Y0.4750
X0.3000Y0.5750
X0.3000Y0.4750
X0.2000Y1.2500
X0.2000Y0.8500
X0.3000Y1.2500
X0.3000Y0.8500
X0.4000Y1.2500
X0.4000Y0.8500
X0.5000Y1.2500
X0.5000Y0.8500
X1.7000Y1.6000
X1.3000Y1.6000
X1.6000Y1.6000
X1.0000Y1.6000
X1.2000Y1.6000
X1.4000Y1.6000
X1.5000Y1.6000
X0.9000Y1.6000
X1.1000Y1.6000
X2.3500Y1.7000
X2.0500Y1.7000
X2.3500Y1.6000
X2.0500Y1.8000
X2.0500Y1.6000
X2.3500Y1.8000
X1.3500Y0.3750
X1.4500Y0.3750
X1.2500Y0.3750
X0.8500Y0.3750
X1.0500Y0.3750
X1.6500Y0.3750
X1.1500Y0.3750
X1.7500Y0.3750
X1.9500Y0.3750
X0.9500Y0.3750
X2.0500Y0.3750
X1.5500Y0.3750
X1.8500Y0.3750
X0.7500Y0.3750
X0.9000Y0.9500
X0.9000Y1.1500
X0.8000Y0.9500
X0.8000Y1.1500
X2.3000Y1.0894
X2.3000Y1.0106
X2.8500Y1.0000
X2.8500Y0.6000
X3.1500Y0.1500
X2.7500Y0.1500
T2
X3.6000Y1.3125
X3.2000Y1.3125
X3.1000Y1.3125
X3.0000Y1.3125
X3.5000Y1.3125
X3.3000Y1.3125
X3.4000Y1.3125
X3.3750Y0.2250
X3.3750Y0.3250
X3.3750Y0.4250
T3
X0.4000Y1.8000
X0.4000Y1.6000
X0.7000Y1.6000
X0.7000Y1.8000
T4
X0.6500Y0.8488
X0.6500Y1.2513
X2.7250Y0.8000
X2.7250Y0.5000
T5
X2.8250Y1.7750
X2.6250Y1.7750
X3.3939Y1.7750
X3.2561Y1.7750
T6
X1.0500Y1.0500
X1.0500Y0.9500
X1.0500Y1.1500
T7
X3.5750Y1.5250
X2.9750Y1.5250
T8
X0.2000Y0.2000
X0.2000Y1.7750
X3.7500Y1.7750
X3.7500Y0.2000
X3.3000Y0.7375
T9
X1.7500Y1.0500
T0
M30
