%FSLAX24Y24*%
%MOIN*%
%ADD10C,0.0053*%
%ADD11C,0.0069*%
%ADD12C,0.0250*%
%ADD13C,0.0394*%
D10*
G01X30157Y3525D02*
X30130Y3498D01*
X30130Y3498D02*
X30051Y3472D01*
X30051Y3472D02*
X29998Y3472D01*
X29998Y3472D02*
X29919Y3498D01*
X29919Y3498D02*
X29866Y3551D01*
X29866Y3551D02*
X29839Y3604D01*
X29839Y3604D02*
X29813Y3710D01*
X29813Y3710D02*
X29813Y3789D01*
X29813Y3789D02*
X29839Y3895D01*
X29839Y3895D02*
X29866Y3948D01*
X29866Y3948D02*
X29919Y4001D01*
X29919Y4001D02*
X29998Y4027D01*
X29998Y4027D02*
X30051Y4027D01*
X30051Y4027D02*
X30130Y4001D01*
X30130Y4001D02*
X30157Y3974D01*
X30633Y4027D02*
X30527Y4027D01*
X30527Y4027D02*
X30474Y4001D01*
X30474Y4001D02*
X30448Y3974D01*
X30448Y3974D02*
X30395Y3895D01*
X30395Y3895D02*
X30369Y3789D01*
X30369Y3789D02*
X30369Y3578D01*
X30369Y3578D02*
X30395Y3525D01*
X30395Y3525D02*
X30421Y3498D01*
X30421Y3498D02*
X30474Y3472D01*
X30474Y3472D02*
X30580Y3472D01*
X30580Y3472D02*
X30633Y3498D01*
X30633Y3498D02*
X30660Y3525D01*
X30660Y3525D02*
X30686Y3578D01*
X30686Y3578D02*
X30686Y3710D01*
X30686Y3710D02*
X30660Y3763D01*
X30660Y3763D02*
X30633Y3789D01*
X30633Y3789D02*
X30580Y3816D01*
X30580Y3816D02*
X30474Y3816D01*
X30474Y3816D02*
X30421Y3789D01*
X30421Y3789D02*
X30395Y3763D01*
X30395Y3763D02*
X30369Y3710D01*
X26407Y12025D02*
X26380Y11998D01*
X26380Y11998D02*
X26301Y11972D01*
X26301Y11972D02*
X26248Y11972D01*
X26248Y11972D02*
X26169Y11998D01*
X26169Y11998D02*
X26116Y12051D01*
X26116Y12051D02*
X26089Y12104D01*
X26089Y12104D02*
X26063Y12210D01*
X26063Y12210D02*
X26063Y12289D01*
X26063Y12289D02*
X26089Y12395D01*
X26089Y12395D02*
X26116Y12448D01*
X26116Y12448D02*
X26169Y12501D01*
X26169Y12501D02*
X26248Y12527D01*
X26248Y12527D02*
X26301Y12527D01*
X26301Y12527D02*
X26380Y12501D01*
X26380Y12501D02*
X26407Y12474D01*
X26910Y12527D02*
X26645Y12527D01*
X26645Y12527D02*
X26619Y12263D01*
X26619Y12263D02*
X26645Y12289D01*
X26645Y12289D02*
X26698Y12316D01*
X26698Y12316D02*
X26830Y12316D01*
X26830Y12316D02*
X26883Y12289D01*
X26883Y12289D02*
X26910Y12263D01*
X26910Y12263D02*
X26936Y12210D01*
X26936Y12210D02*
X26936Y12078D01*
X26936Y12078D02*
X26910Y12025D01*
X26910Y12025D02*
X26883Y11998D01*
X26883Y11998D02*
X26830Y11972D01*
X26830Y11972D02*
X26698Y11972D01*
X26698Y11972D02*
X26645Y11998D01*
X26645Y11998D02*
X26619Y12025D01*
X25907Y15261D02*
X25880Y15235D01*
X25880Y15235D02*
X25801Y15208D01*
X25801Y15208D02*
X25748Y15208D01*
X25748Y15208D02*
X25669Y15235D01*
X25669Y15235D02*
X25616Y15288D01*
X25616Y15288D02*
X25589Y15341D01*
X25589Y15341D02*
X25563Y15447D01*
X25563Y15447D02*
X25563Y15526D01*
X25563Y15526D02*
X25589Y15632D01*
X25589Y15632D02*
X25616Y15685D01*
X25616Y15685D02*
X25669Y15738D01*
X25669Y15738D02*
X25748Y15764D01*
X25748Y15764D02*
X25801Y15764D01*
X25801Y15764D02*
X25880Y15738D01*
X25880Y15738D02*
X25907Y15711D01*
X26383Y15579D02*
X26383Y15208D01*
X26251Y15791D02*
X26119Y15394D01*
X26119Y15394D02*
X26462Y15394D01*
X20277Y10407D02*
X20013Y10222D01*
X20277Y10089D02*
X19722Y10089D01*
X19722Y10089D02*
X19722Y10301D01*
X19722Y10301D02*
X19748Y10354D01*
X19748Y10354D02*
X19775Y10380D01*
X19775Y10380D02*
X19828Y10407D01*
X19828Y10407D02*
X19907Y10407D01*
X19907Y10407D02*
X19960Y10380D01*
X19960Y10380D02*
X19986Y10354D01*
X19986Y10354D02*
X20013Y10301D01*
X20013Y10301D02*
X20013Y10089D01*
X19722Y10910D02*
X19722Y10645D01*
X19722Y10645D02*
X19986Y10619D01*
X19986Y10619D02*
X19960Y10645D01*
X19960Y10645D02*
X19933Y10698D01*
X19933Y10698D02*
X19933Y10830D01*
X19933Y10830D02*
X19960Y10883D01*
X19960Y10883D02*
X19986Y10910D01*
X19986Y10910D02*
X20039Y10936D01*
X20039Y10936D02*
X20171Y10936D01*
X20171Y10936D02*
X20224Y10910D01*
X20224Y10910D02*
X20251Y10883D01*
X20251Y10883D02*
X20277Y10830D01*
X20277Y10830D02*
X20277Y10698D01*
X20277Y10698D02*
X20251Y10645D01*
X20251Y10645D02*
X20224Y10619D01*
X21277Y10407D02*
X21013Y10222D01*
X21277Y10089D02*
X20722Y10089D01*
X20722Y10089D02*
X20722Y10301D01*
X20722Y10301D02*
X20748Y10354D01*
X20748Y10354D02*
X20775Y10380D01*
X20775Y10380D02*
X20828Y10407D01*
X20828Y10407D02*
X20907Y10407D01*
X20907Y10407D02*
X20960Y10380D01*
X20960Y10380D02*
X20986Y10354D01*
X20986Y10354D02*
X21013Y10301D01*
X21013Y10301D02*
X21013Y10089D01*
X20722Y10883D02*
X20722Y10777D01*
X20722Y10777D02*
X20748Y10724D01*
X20748Y10724D02*
X20775Y10698D01*
X20775Y10698D02*
X20854Y10645D01*
X20854Y10645D02*
X20960Y10619D01*
X20960Y10619D02*
X21171Y10619D01*
X21171Y10619D02*
X21224Y10645D01*
X21224Y10645D02*
X21251Y10671D01*
X21251Y10671D02*
X21277Y10724D01*
X21277Y10724D02*
X21277Y10830D01*
X21277Y10830D02*
X21251Y10883D01*
X21251Y10883D02*
X21224Y10910D01*
X21224Y10910D02*
X21171Y10936D01*
X21171Y10936D02*
X21039Y10936D01*
X21039Y10936D02*
X20986Y10910D01*
X20986Y10910D02*
X20960Y10883D01*
X20960Y10883D02*
X20933Y10830D01*
X20933Y10830D02*
X20933Y10724D01*
X20933Y10724D02*
X20960Y10671D01*
X20960Y10671D02*
X20986Y10645D01*
X20986Y10645D02*
X21039Y10619D01*
X24041Y5207D02*
X23485Y5207D01*
X23988Y5789D02*
X24014Y5763D01*
X24014Y5763D02*
X24041Y5683D01*
X24041Y5683D02*
X24041Y5630D01*
X24041Y5630D02*
X24014Y5551D01*
X24014Y5551D02*
X23961Y5498D01*
X23961Y5498D02*
X23908Y5472D01*
X23908Y5472D02*
X23802Y5445D01*
X23802Y5445D02*
X23723Y5445D01*
X23723Y5445D02*
X23617Y5472D01*
X23617Y5472D02*
X23564Y5498D01*
X23564Y5498D02*
X23511Y5551D01*
X23511Y5551D02*
X23485Y5630D01*
X23485Y5630D02*
X23485Y5683D01*
X23485Y5683D02*
X23511Y5763D01*
X23511Y5763D02*
X23538Y5789D01*
X23670Y6265D02*
X24041Y6265D01*
X23458Y6133D02*
X23855Y6001D01*
X23855Y6001D02*
X23855Y6345D01*
X37777Y11907D02*
X37513Y11722D01*
X37777Y11589D02*
X37222Y11589D01*
X37222Y11589D02*
X37222Y11801D01*
X37222Y11801D02*
X37248Y11854D01*
X37248Y11854D02*
X37275Y11880D01*
X37275Y11880D02*
X37328Y11907D01*
X37328Y11907D02*
X37407Y11907D01*
X37407Y11907D02*
X37460Y11880D01*
X37460Y11880D02*
X37486Y11854D01*
X37486Y11854D02*
X37513Y11801D01*
X37513Y11801D02*
X37513Y11589D01*
X37777Y12171D02*
X37777Y12277D01*
X37777Y12277D02*
X37751Y12330D01*
X37751Y12330D02*
X37724Y12357D01*
X37724Y12357D02*
X37645Y12410D01*
X37645Y12410D02*
X37539Y12436D01*
X37539Y12436D02*
X37328Y12436D01*
X37328Y12436D02*
X37275Y12410D01*
X37275Y12410D02*
X37248Y12383D01*
X37248Y12383D02*
X37222Y12330D01*
X37222Y12330D02*
X37222Y12224D01*
X37222Y12224D02*
X37248Y12171D01*
X37248Y12171D02*
X37275Y12145D01*
X37275Y12145D02*
X37328Y12119D01*
X37328Y12119D02*
X37460Y12119D01*
X37460Y12119D02*
X37513Y12145D01*
X37513Y12145D02*
X37539Y12171D01*
X37539Y12171D02*
X37566Y12224D01*
X37566Y12224D02*
X37566Y12330D01*
X37566Y12330D02*
X37539Y12383D01*
X37539Y12383D02*
X37513Y12410D01*
X37513Y12410D02*
X37460Y12436D01*
X37777Y5907D02*
X37513Y5722D01*
X37777Y5589D02*
X37222Y5589D01*
X37222Y5589D02*
X37222Y5801D01*
X37222Y5801D02*
X37248Y5854D01*
X37248Y5854D02*
X37275Y5880D01*
X37275Y5880D02*
X37328Y5907D01*
X37328Y5907D02*
X37407Y5907D01*
X37407Y5907D02*
X37460Y5880D01*
X37460Y5880D02*
X37486Y5854D01*
X37486Y5854D02*
X37513Y5801D01*
X37513Y5801D02*
X37513Y5589D01*
X37460Y6224D02*
X37433Y6171D01*
X37433Y6171D02*
X37407Y6145D01*
X37407Y6145D02*
X37354Y6119D01*
X37354Y6119D02*
X37328Y6119D01*
X37328Y6119D02*
X37275Y6145D01*
X37275Y6145D02*
X37248Y6171D01*
X37248Y6171D02*
X37222Y6224D01*
X37222Y6224D02*
X37222Y6330D01*
X37222Y6330D02*
X37248Y6383D01*
X37248Y6383D02*
X37275Y6410D01*
X37275Y6410D02*
X37328Y6436D01*
X37328Y6436D02*
X37354Y6436D01*
X37354Y6436D02*
X37407Y6410D01*
X37407Y6410D02*
X37433Y6383D01*
X37433Y6383D02*
X37460Y6330D01*
X37460Y6330D02*
X37460Y6224D01*
X37460Y6224D02*
X37486Y6171D01*
X37486Y6171D02*
X37513Y6145D01*
X37513Y6145D02*
X37566Y6119D01*
X37566Y6119D02*
X37671Y6119D01*
X37671Y6119D02*
X37724Y6145D01*
X37724Y6145D02*
X37751Y6171D01*
X37751Y6171D02*
X37777Y6224D01*
X37777Y6224D02*
X37777Y6330D01*
X37777Y6330D02*
X37751Y6383D01*
X37751Y6383D02*
X37724Y6410D01*
X37724Y6410D02*
X37671Y6436D01*
X37671Y6436D02*
X37566Y6436D01*
X37566Y6436D02*
X37513Y6410D01*
X37513Y6410D02*
X37486Y6383D01*
X37486Y6383D02*
X37460Y6330D01*
X22707Y1472D02*
X22707Y2027D01*
X23289Y1525D02*
X23263Y1498D01*
X23263Y1498D02*
X23183Y1472D01*
X23183Y1472D02*
X23130Y1472D01*
X23130Y1472D02*
X23051Y1498D01*
X23051Y1498D02*
X22998Y1551D01*
X22998Y1551D02*
X22972Y1604D01*
X22972Y1604D02*
X22945Y1710D01*
X22945Y1710D02*
X22945Y1789D01*
X22945Y1789D02*
X22972Y1895D01*
X22972Y1895D02*
X22998Y1948D01*
X22998Y1948D02*
X23051Y2001D01*
X23051Y2001D02*
X23130Y2027D01*
X23130Y2027D02*
X23183Y2027D01*
X23183Y2027D02*
X23263Y2001D01*
X23263Y2001D02*
X23289Y1974D01*
X23474Y2027D02*
X23818Y2027D01*
X23818Y2027D02*
X23633Y1816D01*
X23633Y1816D02*
X23712Y1816D01*
X23712Y1816D02*
X23765Y1789D01*
X23765Y1789D02*
X23792Y1763D01*
X23792Y1763D02*
X23818Y1710D01*
X23818Y1710D02*
X23818Y1578D01*
X23818Y1578D02*
X23792Y1525D01*
X23792Y1525D02*
X23765Y1498D01*
X23765Y1498D02*
X23712Y1472D01*
X23712Y1472D02*
X23554Y1472D01*
X23554Y1472D02*
X23501Y1498D01*
X23501Y1498D02*
X23474Y1525D01*
X32224Y3907D02*
X32251Y3880D01*
X32251Y3880D02*
X32277Y3801D01*
X32277Y3801D02*
X32277Y3748D01*
X32277Y3748D02*
X32251Y3669D01*
X32251Y3669D02*
X32198Y3616D01*
X32198Y3616D02*
X32145Y3589D01*
X32145Y3589D02*
X32039Y3563D01*
X32039Y3563D02*
X31960Y3563D01*
X31960Y3563D02*
X31854Y3589D01*
X31854Y3589D02*
X31801Y3616D01*
X31801Y3616D02*
X31748Y3669D01*
X31748Y3669D02*
X31722Y3748D01*
X31722Y3748D02*
X31722Y3801D01*
X31722Y3801D02*
X31748Y3880D01*
X31748Y3880D02*
X31775Y3907D01*
X31722Y4092D02*
X31722Y4462D01*
X31722Y4462D02*
X32277Y4224D01*
X34457Y2972D02*
X34457Y3527D01*
X35039Y3025D02*
X35013Y2998D01*
X35013Y2998D02*
X34933Y2972D01*
X34933Y2972D02*
X34880Y2972D01*
X34880Y2972D02*
X34801Y2998D01*
X34801Y2998D02*
X34748Y3051D01*
X34748Y3051D02*
X34722Y3104D01*
X34722Y3104D02*
X34695Y3210D01*
X34695Y3210D02*
X34695Y3289D01*
X34695Y3289D02*
X34722Y3395D01*
X34722Y3395D02*
X34748Y3448D01*
X34748Y3448D02*
X34801Y3501D01*
X34801Y3501D02*
X34880Y3527D01*
X34880Y3527D02*
X34933Y3527D01*
X34933Y3527D02*
X35013Y3501D01*
X35013Y3501D02*
X35039Y3474D01*
X35515Y3527D02*
X35410Y3527D01*
X35410Y3527D02*
X35357Y3501D01*
X35357Y3501D02*
X35330Y3474D01*
X35330Y3474D02*
X35277Y3395D01*
X35277Y3395D02*
X35251Y3289D01*
X35251Y3289D02*
X35251Y3078D01*
X35251Y3078D02*
X35277Y3025D01*
X35277Y3025D02*
X35304Y2998D01*
X35304Y2998D02*
X35357Y2972D01*
X35357Y2972D02*
X35462Y2972D01*
X35462Y2972D02*
X35515Y2998D01*
X35515Y2998D02*
X35542Y3025D01*
X35542Y3025D02*
X35568Y3078D01*
X35568Y3078D02*
X35568Y3210D01*
X35568Y3210D02*
X35542Y3263D01*
X35542Y3263D02*
X35515Y3289D01*
X35515Y3289D02*
X35462Y3316D01*
X35462Y3316D02*
X35357Y3316D01*
X35357Y3316D02*
X35304Y3289D01*
X35304Y3289D02*
X35277Y3263D01*
X35277Y3263D02*
X35251Y3210D01*
X32339Y14972D02*
X32339Y15527D01*
X32339Y15527D02*
X32472Y15527D01*
X32472Y15527D02*
X32551Y15501D01*
X32551Y15501D02*
X32604Y15448D01*
X32604Y15448D02*
X32630Y15395D01*
X32630Y15395D02*
X32657Y15289D01*
X32657Y15289D02*
X32657Y15210D01*
X32657Y15210D02*
X32630Y15104D01*
X32630Y15104D02*
X32604Y15051D01*
X32604Y15051D02*
X32551Y14998D01*
X32551Y14998D02*
X32472Y14972D01*
X32472Y14972D02*
X32339Y14972D01*
X32842Y15527D02*
X33212Y15527D01*
X33212Y15527D02*
X32974Y14972D01*
X6777Y10089D02*
X6222Y10089D01*
X6222Y10089D02*
X6222Y10222D01*
X6222Y10222D02*
X6248Y10301D01*
X6248Y10301D02*
X6301Y10354D01*
X6301Y10354D02*
X6354Y10380D01*
X6354Y10380D02*
X6460Y10407D01*
X6460Y10407D02*
X6539Y10407D01*
X6539Y10407D02*
X6645Y10380D01*
X6645Y10380D02*
X6698Y10354D01*
X6698Y10354D02*
X6751Y10301D01*
X6751Y10301D02*
X6777Y10222D01*
X6777Y10222D02*
X6777Y10089D01*
X6222Y10910D02*
X6222Y10645D01*
X6222Y10645D02*
X6486Y10619D01*
X6486Y10619D02*
X6460Y10645D01*
X6460Y10645D02*
X6433Y10698D01*
X6433Y10698D02*
X6433Y10830D01*
X6433Y10830D02*
X6460Y10883D01*
X6460Y10883D02*
X6486Y10910D01*
X6486Y10910D02*
X6539Y10936D01*
X6539Y10936D02*
X6671Y10936D01*
X6671Y10936D02*
X6724Y10910D01*
X6724Y10910D02*
X6751Y10883D01*
X6751Y10883D02*
X6777Y10830D01*
X6777Y10830D02*
X6777Y10698D01*
X6777Y10698D02*
X6751Y10645D01*
X6751Y10645D02*
X6724Y10619D01*
X2277Y10407D02*
X2013Y10222D01*
X2277Y10089D02*
X1722Y10089D01*
X1722Y10089D02*
X1722Y10301D01*
X1722Y10301D02*
X1748Y10354D01*
X1748Y10354D02*
X1775Y10380D01*
X1775Y10380D02*
X1828Y10407D01*
X1828Y10407D02*
X1907Y10407D01*
X1907Y10407D02*
X1960Y10380D01*
X1960Y10380D02*
X1986Y10354D01*
X1986Y10354D02*
X2013Y10301D01*
X2013Y10301D02*
X2013Y10089D01*
X2277Y10936D02*
X2277Y10619D01*
X2277Y10777D02*
X1722Y10777D01*
X1722Y10777D02*
X1801Y10724D01*
X1801Y10724D02*
X1854Y10671D01*
X1854Y10671D02*
X1880Y10619D01*
X3277Y10407D02*
X3013Y10222D01*
X3277Y10089D02*
X2722Y10089D01*
X2722Y10089D02*
X2722Y10301D01*
X2722Y10301D02*
X2748Y10354D01*
X2748Y10354D02*
X2775Y10380D01*
X2775Y10380D02*
X2828Y10407D01*
X2828Y10407D02*
X2907Y10407D01*
X2907Y10407D02*
X2960Y10380D01*
X2960Y10380D02*
X2986Y10354D01*
X2986Y10354D02*
X3013Y10301D01*
X3013Y10301D02*
X3013Y10089D01*
X2775Y10619D02*
X2748Y10645D01*
X2748Y10645D02*
X2722Y10698D01*
X2722Y10698D02*
X2722Y10830D01*
X2722Y10830D02*
X2748Y10883D01*
X2748Y10883D02*
X2775Y10910D01*
X2775Y10910D02*
X2828Y10936D01*
X2828Y10936D02*
X2880Y10936D01*
X2880Y10936D02*
X2960Y10910D01*
X2960Y10910D02*
X3277Y10592D01*
X3277Y10592D02*
X3277Y10936D01*
X4277Y10407D02*
X4013Y10222D01*
X4277Y10089D02*
X3722Y10089D01*
X3722Y10089D02*
X3722Y10301D01*
X3722Y10301D02*
X3748Y10354D01*
X3748Y10354D02*
X3775Y10380D01*
X3775Y10380D02*
X3828Y10407D01*
X3828Y10407D02*
X3907Y10407D01*
X3907Y10407D02*
X3960Y10380D01*
X3960Y10380D02*
X3986Y10354D01*
X3986Y10354D02*
X4013Y10301D01*
X4013Y10301D02*
X4013Y10089D01*
X3722Y10592D02*
X3722Y10936D01*
X3722Y10936D02*
X3933Y10751D01*
X3933Y10751D02*
X3933Y10830D01*
X3933Y10830D02*
X3960Y10883D01*
X3960Y10883D02*
X3986Y10910D01*
X3986Y10910D02*
X4039Y10936D01*
X4039Y10936D02*
X4171Y10936D01*
X4171Y10936D02*
X4224Y10910D01*
X4224Y10910D02*
X4251Y10883D01*
X4251Y10883D02*
X4277Y10830D01*
X4277Y10830D02*
X4277Y10671D01*
X4277Y10671D02*
X4251Y10619D01*
X4251Y10619D02*
X4224Y10592D01*
X5291Y10407D02*
X5026Y10222D01*
X5291Y10089D02*
X4735Y10089D01*
X4735Y10089D02*
X4735Y10301D01*
X4735Y10301D02*
X4761Y10354D01*
X4761Y10354D02*
X4788Y10380D01*
X4788Y10380D02*
X4841Y10407D01*
X4841Y10407D02*
X4920Y10407D01*
X4920Y10407D02*
X4973Y10380D01*
X4973Y10380D02*
X5000Y10354D01*
X5000Y10354D02*
X5026Y10301D01*
X5026Y10301D02*
X5026Y10089D01*
X4920Y10883D02*
X5291Y10883D01*
X4708Y10751D02*
X5105Y10619D01*
X5105Y10619D02*
X5105Y10962D01*
X12589Y14722D02*
X12589Y15277D01*
X12907Y14722D02*
X12669Y15039D01*
X12907Y15277D02*
X12589Y14960D01*
X13436Y14722D02*
X13119Y14722D01*
X13277Y14722D02*
X13277Y15277D01*
X13277Y15277D02*
X13224Y15198D01*
X13224Y15198D02*
X13171Y15145D01*
X13171Y15145D02*
X13119Y15119D01*
X21576Y16748D02*
X21656Y16722D01*
X21656Y16722D02*
X21788Y16722D01*
X21788Y16722D02*
X21841Y16748D01*
X21841Y16748D02*
X21867Y16775D01*
X21867Y16775D02*
X21894Y16828D01*
X21894Y16828D02*
X21894Y16880D01*
X21894Y16880D02*
X21867Y16933D01*
X21867Y16933D02*
X21841Y16960D01*
X21841Y16960D02*
X21788Y16986D01*
X21788Y16986D02*
X21682Y17013D01*
X21682Y17013D02*
X21629Y17039D01*
X21629Y17039D02*
X21603Y17066D01*
X21603Y17066D02*
X21576Y17119D01*
X21576Y17119D02*
X21576Y17171D01*
X21576Y17171D02*
X21603Y17224D01*
X21603Y17224D02*
X21629Y17251D01*
X21629Y17251D02*
X21682Y17277D01*
X21682Y17277D02*
X21814Y17277D01*
X21814Y17277D02*
X21894Y17251D01*
X22105Y17224D02*
X22132Y17251D01*
X22132Y17251D02*
X22185Y17277D01*
X22185Y17277D02*
X22317Y17277D01*
X22317Y17277D02*
X22370Y17251D01*
X22370Y17251D02*
X22396Y17224D01*
X22396Y17224D02*
X22423Y17171D01*
X22423Y17171D02*
X22423Y17119D01*
X22423Y17119D02*
X22396Y17039D01*
X22396Y17039D02*
X22079Y16722D01*
X22079Y16722D02*
X22423Y16722D01*
X16957Y12722D02*
X16957Y13277D01*
X17539Y12775D02*
X17513Y12748D01*
X17513Y12748D02*
X17433Y12722D01*
X17433Y12722D02*
X17380Y12722D01*
X17380Y12722D02*
X17301Y12748D01*
X17301Y12748D02*
X17248Y12801D01*
X17248Y12801D02*
X17222Y12854D01*
X17222Y12854D02*
X17195Y12960D01*
X17195Y12960D02*
X17195Y13039D01*
X17195Y13039D02*
X17222Y13145D01*
X17222Y13145D02*
X17248Y13198D01*
X17248Y13198D02*
X17301Y13251D01*
X17301Y13251D02*
X17380Y13277D01*
X17380Y13277D02*
X17433Y13277D01*
X17433Y13277D02*
X17513Y13251D01*
X17513Y13251D02*
X17539Y13224D01*
X17751Y13224D02*
X17777Y13251D01*
X17777Y13251D02*
X17830Y13277D01*
X17830Y13277D02*
X17962Y13277D01*
X17962Y13277D02*
X18015Y13251D01*
X18015Y13251D02*
X18042Y13224D01*
X18042Y13224D02*
X18068Y13171D01*
X18068Y13171D02*
X18068Y13119D01*
X18068Y13119D02*
X18042Y13039D01*
X18042Y13039D02*
X17724Y12722D01*
X17724Y12722D02*
X18068Y12722D01*
X13589Y4722D02*
X13589Y5277D01*
X13907Y4722D02*
X13669Y5039D01*
X13907Y5277D02*
X13589Y4960D01*
X14119Y5224D02*
X14145Y5251D01*
X14145Y5251D02*
X14198Y5277D01*
X14198Y5277D02*
X14330Y5277D01*
X14330Y5277D02*
X14383Y5251D01*
X14383Y5251D02*
X14410Y5224D01*
X14410Y5224D02*
X14436Y5171D01*
X14436Y5171D02*
X14436Y5119D01*
X14436Y5119D02*
X14410Y5039D01*
X14410Y5039D02*
X14092Y4722D01*
X14092Y4722D02*
X14436Y4722D01*
X9224Y10407D02*
X9251Y10380D01*
X9251Y10380D02*
X9277Y10301D01*
X9277Y10301D02*
X9277Y10248D01*
X9277Y10248D02*
X9251Y10169D01*
X9251Y10169D02*
X9198Y10116D01*
X9198Y10116D02*
X9145Y10089D01*
X9145Y10089D02*
X9039Y10063D01*
X9039Y10063D02*
X8960Y10063D01*
X8960Y10063D02*
X8854Y10089D01*
X8854Y10089D02*
X8801Y10116D01*
X8801Y10116D02*
X8748Y10169D01*
X8748Y10169D02*
X8722Y10248D01*
X8722Y10248D02*
X8722Y10301D01*
X8722Y10301D02*
X8748Y10380D01*
X8748Y10380D02*
X8775Y10407D01*
X8775Y10619D02*
X8748Y10645D01*
X8748Y10645D02*
X8722Y10698D01*
X8722Y10698D02*
X8722Y10830D01*
X8722Y10830D02*
X8748Y10883D01*
X8748Y10883D02*
X8775Y10910D01*
X8775Y10910D02*
X8828Y10936D01*
X8828Y10936D02*
X8880Y10936D01*
X8880Y10936D02*
X8960Y10910D01*
X8960Y10910D02*
X9277Y10592D01*
X9277Y10592D02*
X9277Y10936D01*
X8224Y10407D02*
X8251Y10380D01*
X8251Y10380D02*
X8277Y10301D01*
X8277Y10301D02*
X8277Y10248D01*
X8277Y10248D02*
X8251Y10169D01*
X8251Y10169D02*
X8198Y10116D01*
X8198Y10116D02*
X8145Y10089D01*
X8145Y10089D02*
X8039Y10063D01*
X8039Y10063D02*
X7960Y10063D01*
X7960Y10063D02*
X7854Y10089D01*
X7854Y10089D02*
X7801Y10116D01*
X7801Y10116D02*
X7748Y10169D01*
X7748Y10169D02*
X7722Y10248D01*
X7722Y10248D02*
X7722Y10301D01*
X7722Y10301D02*
X7748Y10380D01*
X7748Y10380D02*
X7775Y10407D01*
X8277Y10936D02*
X8277Y10619D01*
X8277Y10777D02*
X7722Y10777D01*
X7722Y10777D02*
X7801Y10724D01*
X7801Y10724D02*
X7854Y10671D01*
X7854Y10671D02*
X7880Y10619D01*
X22907Y12025D02*
X22880Y11998D01*
X22880Y11998D02*
X22801Y11972D01*
X22801Y11972D02*
X22748Y11972D01*
X22748Y11972D02*
X22669Y11998D01*
X22669Y11998D02*
X22616Y12051D01*
X22616Y12051D02*
X22589Y12104D01*
X22589Y12104D02*
X22563Y12210D01*
X22563Y12210D02*
X22563Y12289D01*
X22563Y12289D02*
X22589Y12395D01*
X22589Y12395D02*
X22616Y12448D01*
X22616Y12448D02*
X22669Y12501D01*
X22669Y12501D02*
X22748Y12527D01*
X22748Y12527D02*
X22801Y12527D01*
X22801Y12527D02*
X22880Y12501D01*
X22880Y12501D02*
X22907Y12474D01*
X23092Y12527D02*
X23436Y12527D01*
X23436Y12527D02*
X23251Y12316D01*
X23251Y12316D02*
X23330Y12316D01*
X23330Y12316D02*
X23383Y12289D01*
X23383Y12289D02*
X23410Y12263D01*
X23410Y12263D02*
X23436Y12210D01*
X23436Y12210D02*
X23436Y12078D01*
X23436Y12078D02*
X23410Y12025D01*
X23410Y12025D02*
X23383Y11998D01*
X23383Y11998D02*
X23330Y11972D01*
X23330Y11972D02*
X23171Y11972D01*
X23171Y11972D02*
X23119Y11998D01*
X23119Y11998D02*
X23092Y12025D01*
X28777Y7907D02*
X28513Y7722D01*
X28777Y7589D02*
X28222Y7589D01*
X28222Y7589D02*
X28222Y7801D01*
X28222Y7801D02*
X28248Y7854D01*
X28248Y7854D02*
X28275Y7880D01*
X28275Y7880D02*
X28328Y7907D01*
X28328Y7907D02*
X28407Y7907D01*
X28407Y7907D02*
X28460Y7880D01*
X28460Y7880D02*
X28486Y7854D01*
X28486Y7854D02*
X28513Y7801D01*
X28513Y7801D02*
X28513Y7589D01*
X28222Y8092D02*
X28222Y8462D01*
X28222Y8462D02*
X28777Y8224D01*
X27527Y6089D02*
X26972Y6089D01*
X26972Y6089D02*
X26972Y6222D01*
X26972Y6222D02*
X26998Y6301D01*
X26998Y6301D02*
X27051Y6354D01*
X27051Y6354D02*
X27104Y6380D01*
X27104Y6380D02*
X27210Y6407D01*
X27210Y6407D02*
X27289Y6407D01*
X27289Y6407D02*
X27395Y6380D01*
X27395Y6380D02*
X27448Y6354D01*
X27448Y6354D02*
X27501Y6301D01*
X27501Y6301D02*
X27527Y6222D01*
X27527Y6222D02*
X27527Y6089D01*
X26972Y6883D02*
X26972Y6777D01*
X26972Y6777D02*
X26998Y6724D01*
X26998Y6724D02*
X27025Y6698D01*
X27025Y6698D02*
X27104Y6645D01*
X27104Y6645D02*
X27210Y6619D01*
X27210Y6619D02*
X27421Y6619D01*
X27421Y6619D02*
X27474Y6645D01*
X27474Y6645D02*
X27501Y6671D01*
X27501Y6671D02*
X27527Y6724D01*
X27527Y6724D02*
X27527Y6830D01*
X27527Y6830D02*
X27501Y6883D01*
X27501Y6883D02*
X27474Y6910D01*
X27474Y6910D02*
X27421Y6936D01*
X27421Y6936D02*
X27289Y6936D01*
X27289Y6936D02*
X27236Y6910D01*
X27236Y6910D02*
X27210Y6883D01*
X27210Y6883D02*
X27183Y6830D01*
X27183Y6830D02*
X27183Y6724D01*
X27183Y6724D02*
X27210Y6671D01*
X27210Y6671D02*
X27236Y6645D01*
X27236Y6645D02*
X27289Y6619D01*
X29407Y1222D02*
X29142Y1222D01*
X29142Y1222D02*
X29142Y1777D01*
X29883Y1222D02*
X29566Y1222D01*
X29724Y1222D02*
X29724Y1777D01*
X29724Y1777D02*
X29671Y1698D01*
X29671Y1698D02*
X29619Y1645D01*
X29619Y1645D02*
X29566Y1619D01*
X1443Y15722D02*
X1257Y15986D01*
X1125Y15722D02*
X1125Y16277D01*
X1125Y16277D02*
X1337Y16277D01*
X1337Y16277D02*
X1390Y16251D01*
X1390Y16251D02*
X1416Y16224D01*
X1416Y16224D02*
X1443Y16171D01*
X1443Y16171D02*
X1443Y16092D01*
X1443Y16092D02*
X1416Y16039D01*
X1416Y16039D02*
X1390Y16013D01*
X1390Y16013D02*
X1337Y15986D01*
X1337Y15986D02*
X1125Y15986D01*
X1681Y16013D02*
X1866Y16013D01*
X1945Y15722D02*
X1681Y15722D01*
X1681Y15722D02*
X1681Y16277D01*
X1681Y16277D02*
X1945Y16277D01*
X2157Y15748D02*
X2236Y15722D01*
X2236Y15722D02*
X2369Y15722D01*
X2369Y15722D02*
X2421Y15748D01*
X2421Y15748D02*
X2448Y15775D01*
X2448Y15775D02*
X2474Y15828D01*
X2474Y15828D02*
X2474Y15880D01*
X2474Y15880D02*
X2448Y15933D01*
X2448Y15933D02*
X2421Y15960D01*
X2421Y15960D02*
X2369Y15986D01*
X2369Y15986D02*
X2263Y16013D01*
X2263Y16013D02*
X2210Y16039D01*
X2210Y16039D02*
X2183Y16066D01*
X2183Y16066D02*
X2157Y16119D01*
X2157Y16119D02*
X2157Y16171D01*
X2157Y16171D02*
X2183Y16224D01*
X2183Y16224D02*
X2210Y16251D01*
X2210Y16251D02*
X2263Y16277D01*
X2263Y16277D02*
X2395Y16277D01*
X2395Y16277D02*
X2474Y16251D01*
X2712Y16013D02*
X2898Y16013D01*
X2977Y15722D02*
X2712Y15722D01*
X2712Y15722D02*
X2712Y16277D01*
X2712Y16277D02*
X2977Y16277D01*
X3136Y16277D02*
X3453Y16277D01*
X3294Y15722D02*
X3294Y16277D01*
X5748Y3353D02*
X5722Y3300D01*
X5722Y3300D02*
X5722Y3220D01*
X5722Y3220D02*
X5748Y3141D01*
X5748Y3141D02*
X5801Y3088D01*
X5801Y3088D02*
X5854Y3062D01*
X5854Y3062D02*
X5960Y3035D01*
X5960Y3035D02*
X6039Y3035D01*
X6039Y3035D02*
X6145Y3062D01*
X6145Y3062D02*
X6198Y3088D01*
X6198Y3088D02*
X6251Y3141D01*
X6251Y3141D02*
X6277Y3220D01*
X6277Y3220D02*
X6277Y3273D01*
X6277Y3273D02*
X6251Y3353D01*
X6251Y3353D02*
X6224Y3379D01*
X6224Y3379D02*
X6039Y3379D01*
X6039Y3379D02*
X6039Y3273D01*
X6277Y3617D02*
X5722Y3617D01*
X5722Y3617D02*
X5722Y3829D01*
X5722Y3829D02*
X5748Y3882D01*
X5748Y3882D02*
X5775Y3908D01*
X5775Y3908D02*
X5828Y3935D01*
X5828Y3935D02*
X5907Y3935D01*
X5907Y3935D02*
X5960Y3908D01*
X5960Y3908D02*
X5986Y3882D01*
X5986Y3882D02*
X6013Y3829D01*
X6013Y3829D02*
X6013Y3617D01*
X5722Y4120D02*
X5722Y4464D01*
X5722Y4464D02*
X5933Y4279D01*
X5933Y4279D02*
X5933Y4358D01*
X5933Y4358D02*
X5960Y4411D01*
X5960Y4411D02*
X5986Y4437D01*
X5986Y4437D02*
X6039Y4464D01*
X6039Y4464D02*
X6171Y4464D01*
X6171Y4464D02*
X6224Y4437D01*
X6224Y4437D02*
X6251Y4411D01*
X6251Y4411D02*
X6277Y4358D01*
X6277Y4358D02*
X6277Y4199D01*
X6277Y4199D02*
X6251Y4146D01*
X6251Y4146D02*
X6224Y4120D01*
X4248Y3353D02*
X4222Y3300D01*
X4222Y3300D02*
X4222Y3220D01*
X4222Y3220D02*
X4248Y3141D01*
X4248Y3141D02*
X4301Y3088D01*
X4301Y3088D02*
X4354Y3062D01*
X4354Y3062D02*
X4460Y3035D01*
X4460Y3035D02*
X4539Y3035D01*
X4539Y3035D02*
X4645Y3062D01*
X4645Y3062D02*
X4698Y3088D01*
X4698Y3088D02*
X4751Y3141D01*
X4751Y3141D02*
X4777Y3220D01*
X4777Y3220D02*
X4777Y3273D01*
X4777Y3273D02*
X4751Y3353D01*
X4751Y3353D02*
X4724Y3379D01*
X4724Y3379D02*
X4539Y3379D01*
X4539Y3379D02*
X4539Y3273D01*
X4777Y3617D02*
X4222Y3617D01*
X4222Y3617D02*
X4222Y3829D01*
X4222Y3829D02*
X4248Y3882D01*
X4248Y3882D02*
X4275Y3908D01*
X4275Y3908D02*
X4328Y3935D01*
X4328Y3935D02*
X4407Y3935D01*
X4407Y3935D02*
X4460Y3908D01*
X4460Y3908D02*
X4486Y3882D01*
X4486Y3882D02*
X4513Y3829D01*
X4513Y3829D02*
X4513Y3617D01*
X4275Y4146D02*
X4248Y4173D01*
X4248Y4173D02*
X4222Y4226D01*
X4222Y4226D02*
X4222Y4358D01*
X4222Y4358D02*
X4248Y4411D01*
X4248Y4411D02*
X4275Y4437D01*
X4275Y4437D02*
X4328Y4464D01*
X4328Y4464D02*
X4380Y4464D01*
X4380Y4464D02*
X4460Y4437D01*
X4460Y4437D02*
X4777Y4120D01*
X4777Y4120D02*
X4777Y4464D01*
X2748Y3353D02*
X2722Y3300D01*
X2722Y3300D02*
X2722Y3220D01*
X2722Y3220D02*
X2748Y3141D01*
X2748Y3141D02*
X2801Y3088D01*
X2801Y3088D02*
X2854Y3062D01*
X2854Y3062D02*
X2960Y3035D01*
X2960Y3035D02*
X3039Y3035D01*
X3039Y3035D02*
X3145Y3062D01*
X3145Y3062D02*
X3198Y3088D01*
X3198Y3088D02*
X3251Y3141D01*
X3251Y3141D02*
X3277Y3220D01*
X3277Y3220D02*
X3277Y3273D01*
X3277Y3273D02*
X3251Y3353D01*
X3251Y3353D02*
X3224Y3379D01*
X3224Y3379D02*
X3039Y3379D01*
X3039Y3379D02*
X3039Y3273D01*
X3277Y3617D02*
X2722Y3617D01*
X2722Y3617D02*
X2722Y3829D01*
X2722Y3829D02*
X2748Y3882D01*
X2748Y3882D02*
X2775Y3908D01*
X2775Y3908D02*
X2828Y3935D01*
X2828Y3935D02*
X2907Y3935D01*
X2907Y3935D02*
X2960Y3908D01*
X2960Y3908D02*
X2986Y3882D01*
X2986Y3882D02*
X3013Y3829D01*
X3013Y3829D02*
X3013Y3617D01*
X3277Y4464D02*
X3277Y4146D01*
X3277Y4305D02*
X2722Y4305D01*
X2722Y4305D02*
X2801Y4252D01*
X2801Y4252D02*
X2854Y4199D01*
X2854Y4199D02*
X2880Y4146D01*
X35250Y16871D02*
X35250Y16977D01*
X35250Y16977D02*
X35276Y17030D01*
X35276Y17030D02*
X35329Y17083D01*
X35329Y17083D02*
X35435Y17109D01*
X35435Y17109D02*
X35620Y17109D01*
X35620Y17109D02*
X35726Y17083D01*
X35726Y17083D02*
X35779Y17030D01*
X35779Y17030D02*
X35805Y16977D01*
X35805Y16977D02*
X35805Y16871D01*
X35805Y16871D02*
X35779Y16818D01*
X35779Y16818D02*
X35726Y16765D01*
X35726Y16765D02*
X35620Y16739D01*
X35620Y16739D02*
X35435Y16739D01*
X35435Y16739D02*
X35329Y16765D01*
X35329Y16765D02*
X35276Y16818D01*
X35276Y16818D02*
X35250Y16871D01*
X35250Y17347D02*
X35699Y17347D01*
X35699Y17347D02*
X35752Y17374D01*
X35752Y17374D02*
X35779Y17400D01*
X35779Y17400D02*
X35805Y17453D01*
X35805Y17453D02*
X35805Y17559D01*
X35805Y17559D02*
X35779Y17612D01*
X35779Y17612D02*
X35752Y17638D01*
X35752Y17638D02*
X35699Y17665D01*
X35699Y17665D02*
X35250Y17665D01*
X35250Y17850D02*
X35250Y18167D01*
X35805Y18009D02*
X35250Y18009D01*
X35805Y18644D02*
X35805Y18326D01*
X35805Y18485D02*
X35250Y18485D01*
X35250Y18485D02*
X35329Y18432D01*
X35329Y18432D02*
X35382Y18379D01*
X35382Y18379D02*
X35408Y18326D01*
X30694Y16871D02*
X30694Y16977D01*
X30694Y16977D02*
X30720Y17030D01*
X30720Y17030D02*
X30773Y17083D01*
X30773Y17083D02*
X30879Y17109D01*
X30879Y17109D02*
X31064Y17109D01*
X31064Y17109D02*
X31170Y17083D01*
X31170Y17083D02*
X31223Y17030D01*
X31223Y17030D02*
X31250Y16977D01*
X31250Y16977D02*
X31250Y16871D01*
X31250Y16871D02*
X31223Y16818D01*
X31223Y16818D02*
X31170Y16765D01*
X31170Y16765D02*
X31064Y16739D01*
X31064Y16739D02*
X30879Y16739D01*
X30879Y16739D02*
X30773Y16765D01*
X30773Y16765D02*
X30720Y16818D01*
X30720Y16818D02*
X30694Y16871D01*
X30694Y17347D02*
X31144Y17347D01*
X31144Y17347D02*
X31197Y17374D01*
X31197Y17374D02*
X31223Y17400D01*
X31223Y17400D02*
X31250Y17453D01*
X31250Y17453D02*
X31250Y17559D01*
X31250Y17559D02*
X31223Y17612D01*
X31223Y17612D02*
X31197Y17638D01*
X31197Y17638D02*
X31144Y17665D01*
X31144Y17665D02*
X30694Y17665D01*
X30694Y17850D02*
X30694Y18167D01*
X31250Y18009D02*
X30694Y18009D01*
X30747Y18326D02*
X30720Y18353D01*
X30720Y18353D02*
X30694Y18406D01*
X30694Y18406D02*
X30694Y18538D01*
X30694Y18538D02*
X30720Y18591D01*
X30720Y18591D02*
X30747Y18617D01*
X30747Y18617D02*
X30800Y18644D01*
X30800Y18644D02*
X30853Y18644D01*
X30853Y18644D02*
X30932Y18617D01*
X30932Y18617D02*
X31250Y18300D01*
X31250Y18300D02*
X31250Y18644D01*
X29843Y17083D02*
X29843Y17506D01*
X30055Y17294D02*
X29632Y17294D01*
X29500Y17691D02*
X30055Y17876D01*
X30055Y17876D02*
X29500Y18062D01*
X30055Y18247D02*
X29500Y18247D01*
X29500Y18247D02*
X29896Y18432D01*
X29896Y18432D02*
X29500Y18617D01*
X29500Y18617D02*
X30055Y18617D01*
X25000Y16633D02*
X24444Y16633D01*
X24444Y16633D02*
X24444Y16845D01*
X24444Y16845D02*
X24470Y16898D01*
X24470Y16898D02*
X24497Y16924D01*
X24497Y16924D02*
X24550Y16951D01*
X24550Y16951D02*
X24629Y16951D01*
X24629Y16951D02*
X24682Y16924D01*
X24682Y16924D02*
X24708Y16898D01*
X24708Y16898D02*
X24735Y16845D01*
X24735Y16845D02*
X24735Y16633D01*
X24470Y17480D02*
X24444Y17427D01*
X24444Y17427D02*
X24444Y17347D01*
X24444Y17347D02*
X24470Y17268D01*
X24470Y17268D02*
X24523Y17215D01*
X24523Y17215D02*
X24576Y17189D01*
X24576Y17189D02*
X24682Y17162D01*
X24682Y17162D02*
X24761Y17162D01*
X24761Y17162D02*
X24867Y17189D01*
X24867Y17189D02*
X24920Y17215D01*
X24920Y17215D02*
X24973Y17268D01*
X24973Y17268D02*
X25000Y17347D01*
X25000Y17347D02*
X25000Y17400D01*
X25000Y17400D02*
X24973Y17480D01*
X24973Y17480D02*
X24947Y17506D01*
X24947Y17506D02*
X24761Y17506D01*
X24761Y17506D02*
X24761Y17400D01*
X25000Y17744D02*
X24444Y17744D01*
X24444Y17744D02*
X25000Y18062D01*
X25000Y18062D02*
X24444Y18062D01*
X25000Y18326D02*
X24444Y18326D01*
X24444Y18326D02*
X24444Y18458D01*
X24444Y18458D02*
X24470Y18538D01*
X24470Y18538D02*
X24523Y18591D01*
X24523Y18591D02*
X24576Y18617D01*
X24576Y18617D02*
X24682Y18644D01*
X24682Y18644D02*
X24761Y18644D01*
X24761Y18644D02*
X24867Y18617D01*
X24867Y18617D02*
X24920Y18591D01*
X24920Y18591D02*
X24973Y18538D01*
X24973Y18538D02*
X25000Y18458D01*
X25000Y18458D02*
X25000Y18326D01*
X8722Y16829D02*
X8722Y17173D01*
X8722Y17173D02*
X8933Y16988D01*
X8933Y16988D02*
X8933Y17067D01*
X8933Y17067D02*
X8960Y17120D01*
X8960Y17120D02*
X8986Y17146D01*
X8986Y17146D02*
X9039Y17173D01*
X9039Y17173D02*
X9171Y17173D01*
X9171Y17173D02*
X9224Y17146D01*
X9224Y17146D02*
X9251Y17120D01*
X9251Y17120D02*
X9277Y17067D01*
X9277Y17067D02*
X9277Y16908D01*
X9277Y16908D02*
X9251Y16855D01*
X9251Y16855D02*
X9224Y16829D01*
X8722Y17332D02*
X9277Y17517D01*
X9277Y17517D02*
X8722Y17702D01*
X8722Y17834D02*
X8722Y18178D01*
X8722Y18178D02*
X8933Y17993D01*
X8933Y17993D02*
X8933Y18072D01*
X8933Y18072D02*
X8960Y18125D01*
X8960Y18125D02*
X8986Y18152D01*
X8986Y18152D02*
X9039Y18178D01*
X9039Y18178D02*
X9171Y18178D01*
X9171Y18178D02*
X9224Y18152D01*
X9224Y18152D02*
X9251Y18125D01*
X9251Y18125D02*
X9277Y18072D01*
X9277Y18072D02*
X9277Y17914D01*
X9277Y17914D02*
X9251Y17861D01*
X9251Y17861D02*
X9224Y17834D01*
X9748Y17173D02*
X9722Y17120D01*
X9722Y17120D02*
X9722Y17041D01*
X9722Y17041D02*
X9748Y16961D01*
X9748Y16961D02*
X9801Y16908D01*
X9801Y16908D02*
X9854Y16882D01*
X9854Y16882D02*
X9960Y16855D01*
X9960Y16855D02*
X10039Y16855D01*
X10039Y16855D02*
X10145Y16882D01*
X10145Y16882D02*
X10198Y16908D01*
X10198Y16908D02*
X10251Y16961D01*
X10251Y16961D02*
X10277Y17041D01*
X10277Y17041D02*
X10277Y17093D01*
X10277Y17093D02*
X10251Y17173D01*
X10251Y17173D02*
X10224Y17199D01*
X10224Y17199D02*
X10039Y17199D01*
X10039Y17199D02*
X10039Y17093D01*
X10277Y17437D02*
X9722Y17437D01*
X9722Y17437D02*
X9722Y17649D01*
X9722Y17649D02*
X9748Y17702D01*
X9748Y17702D02*
X9775Y17728D01*
X9775Y17728D02*
X9828Y17755D01*
X9828Y17755D02*
X9907Y17755D01*
X9907Y17755D02*
X9960Y17728D01*
X9960Y17728D02*
X9986Y17702D01*
X9986Y17702D02*
X10013Y17649D01*
X10013Y17649D02*
X10013Y17437D01*
X9775Y17966D02*
X9748Y17993D01*
X9748Y17993D02*
X9722Y18046D01*
X9722Y18046D02*
X9722Y18178D01*
X9722Y18178D02*
X9748Y18231D01*
X9748Y18231D02*
X9775Y18257D01*
X9775Y18257D02*
X9828Y18284D01*
X9828Y18284D02*
X9880Y18284D01*
X9880Y18284D02*
X9960Y18257D01*
X9960Y18257D02*
X10277Y17940D01*
X10277Y17940D02*
X10277Y18284D01*
X9960Y18601D02*
X9933Y18548D01*
X9933Y18548D02*
X9907Y18522D01*
X9907Y18522D02*
X9854Y18496D01*
X9854Y18496D02*
X9828Y18496D01*
X9828Y18496D02*
X9775Y18522D01*
X9775Y18522D02*
X9748Y18548D01*
X9748Y18548D02*
X9722Y18601D01*
X9722Y18601D02*
X9722Y18707D01*
X9722Y18707D02*
X9748Y18760D01*
X9748Y18760D02*
X9775Y18787D01*
X9775Y18787D02*
X9828Y18813D01*
X9828Y18813D02*
X9854Y18813D01*
X9854Y18813D02*
X9907Y18787D01*
X9907Y18787D02*
X9933Y18760D01*
X9933Y18760D02*
X9960Y18707D01*
X9960Y18707D02*
X9960Y18601D01*
X9960Y18601D02*
X9986Y18548D01*
X9986Y18548D02*
X10013Y18522D01*
X10013Y18522D02*
X10066Y18496D01*
X10066Y18496D02*
X10171Y18496D01*
X10171Y18496D02*
X10224Y18522D01*
X10224Y18522D02*
X10251Y18548D01*
X10251Y18548D02*
X10277Y18601D01*
X10277Y18601D02*
X10277Y18707D01*
X10277Y18707D02*
X10251Y18760D01*
X10251Y18760D02*
X10224Y18787D01*
X10224Y18787D02*
X10171Y18813D01*
X10171Y18813D02*
X10066Y18813D01*
X10066Y18813D02*
X10013Y18787D01*
X10013Y18787D02*
X9986Y18760D01*
X9986Y18760D02*
X9960Y18707D01*
X16748Y17173D02*
X16722Y17120D01*
X16722Y17120D02*
X16722Y17041D01*
X16722Y17041D02*
X16748Y16961D01*
X16748Y16961D02*
X16801Y16908D01*
X16801Y16908D02*
X16854Y16882D01*
X16854Y16882D02*
X16960Y16855D01*
X16960Y16855D02*
X17039Y16855D01*
X17039Y16855D02*
X17145Y16882D01*
X17145Y16882D02*
X17198Y16908D01*
X17198Y16908D02*
X17251Y16961D01*
X17251Y16961D02*
X17277Y17041D01*
X17277Y17041D02*
X17277Y17093D01*
X17277Y17093D02*
X17251Y17173D01*
X17251Y17173D02*
X17224Y17199D01*
X17224Y17199D02*
X17039Y17199D01*
X17039Y17199D02*
X17039Y17093D01*
X17277Y17437D02*
X16722Y17437D01*
X16722Y17437D02*
X17277Y17755D01*
X17277Y17755D02*
X16722Y17755D01*
X17277Y18019D02*
X16722Y18019D01*
X16722Y18019D02*
X16722Y18152D01*
X16722Y18152D02*
X16748Y18231D01*
X16748Y18231D02*
X16801Y18284D01*
X16801Y18284D02*
X16854Y18310D01*
X16854Y18310D02*
X16960Y18337D01*
X16960Y18337D02*
X17039Y18337D01*
X17039Y18337D02*
X17145Y18310D01*
X17145Y18310D02*
X17198Y18284D01*
X17198Y18284D02*
X17251Y18231D01*
X17251Y18231D02*
X17277Y18152D01*
X17277Y18152D02*
X17277Y18019D01*
X10748Y17173D02*
X10722Y17120D01*
X10722Y17120D02*
X10722Y17041D01*
X10722Y17041D02*
X10748Y16961D01*
X10748Y16961D02*
X10801Y16908D01*
X10801Y16908D02*
X10854Y16882D01*
X10854Y16882D02*
X10960Y16855D01*
X10960Y16855D02*
X11039Y16855D01*
X11039Y16855D02*
X11145Y16882D01*
X11145Y16882D02*
X11198Y16908D01*
X11198Y16908D02*
X11251Y16961D01*
X11251Y16961D02*
X11277Y17041D01*
X11277Y17041D02*
X11277Y17093D01*
X11277Y17093D02*
X11251Y17173D01*
X11251Y17173D02*
X11224Y17199D01*
X11224Y17199D02*
X11039Y17199D01*
X11039Y17199D02*
X11039Y17093D01*
X11277Y17437D02*
X10722Y17437D01*
X10722Y17437D02*
X10722Y17649D01*
X10722Y17649D02*
X10748Y17702D01*
X10748Y17702D02*
X10775Y17728D01*
X10775Y17728D02*
X10828Y17755D01*
X10828Y17755D02*
X10907Y17755D01*
X10907Y17755D02*
X10960Y17728D01*
X10960Y17728D02*
X10986Y17702D01*
X10986Y17702D02*
X11013Y17649D01*
X11013Y17649D02*
X11013Y17437D01*
X10775Y17966D02*
X10748Y17993D01*
X10748Y17993D02*
X10722Y18046D01*
X10722Y18046D02*
X10722Y18178D01*
X10722Y18178D02*
X10748Y18231D01*
X10748Y18231D02*
X10775Y18257D01*
X10775Y18257D02*
X10828Y18284D01*
X10828Y18284D02*
X10880Y18284D01*
X10880Y18284D02*
X10960Y18257D01*
X10960Y18257D02*
X11277Y17940D01*
X11277Y17940D02*
X11277Y18284D01*
X10722Y18469D02*
X10722Y18839D01*
X10722Y18839D02*
X11277Y18601D01*
X11748Y17173D02*
X11722Y17120D01*
X11722Y17120D02*
X11722Y17041D01*
X11722Y17041D02*
X11748Y16961D01*
X11748Y16961D02*
X11801Y16908D01*
X11801Y16908D02*
X11854Y16882D01*
X11854Y16882D02*
X11960Y16855D01*
X11960Y16855D02*
X12039Y16855D01*
X12039Y16855D02*
X12145Y16882D01*
X12145Y16882D02*
X12198Y16908D01*
X12198Y16908D02*
X12251Y16961D01*
X12251Y16961D02*
X12277Y17041D01*
X12277Y17041D02*
X12277Y17093D01*
X12277Y17093D02*
X12251Y17173D01*
X12251Y17173D02*
X12224Y17199D01*
X12224Y17199D02*
X12039Y17199D01*
X12039Y17199D02*
X12039Y17093D01*
X12277Y17437D02*
X11722Y17437D01*
X11722Y17437D02*
X11722Y17649D01*
X11722Y17649D02*
X11748Y17702D01*
X11748Y17702D02*
X11775Y17728D01*
X11775Y17728D02*
X11828Y17755D01*
X11828Y17755D02*
X11907Y17755D01*
X11907Y17755D02*
X11960Y17728D01*
X11960Y17728D02*
X11986Y17702D01*
X11986Y17702D02*
X12013Y17649D01*
X12013Y17649D02*
X12013Y17437D01*
X11775Y17966D02*
X11748Y17993D01*
X11748Y17993D02*
X11722Y18046D01*
X11722Y18046D02*
X11722Y18178D01*
X11722Y18178D02*
X11748Y18231D01*
X11748Y18231D02*
X11775Y18257D01*
X11775Y18257D02*
X11828Y18284D01*
X11828Y18284D02*
X11880Y18284D01*
X11880Y18284D02*
X11960Y18257D01*
X11960Y18257D02*
X12277Y17940D01*
X12277Y17940D02*
X12277Y18284D01*
X11722Y18760D02*
X11722Y18654D01*
X11722Y18654D02*
X11748Y18601D01*
X11748Y18601D02*
X11775Y18575D01*
X11775Y18575D02*
X11854Y18522D01*
X11854Y18522D02*
X11960Y18496D01*
X11960Y18496D02*
X12171Y18496D01*
X12171Y18496D02*
X12224Y18522D01*
X12224Y18522D02*
X12251Y18548D01*
X12251Y18548D02*
X12277Y18601D01*
X12277Y18601D02*
X12277Y18707D01*
X12277Y18707D02*
X12251Y18760D01*
X12251Y18760D02*
X12224Y18787D01*
X12224Y18787D02*
X12171Y18813D01*
X12171Y18813D02*
X12039Y18813D01*
X12039Y18813D02*
X11986Y18787D01*
X11986Y18787D02*
X11960Y18760D01*
X11960Y18760D02*
X11933Y18707D01*
X11933Y18707D02*
X11933Y18601D01*
X11933Y18601D02*
X11960Y18548D01*
X11960Y18548D02*
X11986Y18522D01*
X11986Y18522D02*
X12039Y18496D01*
X12748Y17173D02*
X12722Y17120D01*
X12722Y17120D02*
X12722Y17041D01*
X12722Y17041D02*
X12748Y16961D01*
X12748Y16961D02*
X12801Y16908D01*
X12801Y16908D02*
X12854Y16882D01*
X12854Y16882D02*
X12960Y16855D01*
X12960Y16855D02*
X13039Y16855D01*
X13039Y16855D02*
X13145Y16882D01*
X13145Y16882D02*
X13198Y16908D01*
X13198Y16908D02*
X13251Y16961D01*
X13251Y16961D02*
X13277Y17041D01*
X13277Y17041D02*
X13277Y17093D01*
X13277Y17093D02*
X13251Y17173D01*
X13251Y17173D02*
X13224Y17199D01*
X13224Y17199D02*
X13039Y17199D01*
X13039Y17199D02*
X13039Y17093D01*
X13277Y17437D02*
X12722Y17437D01*
X12722Y17437D02*
X12722Y17649D01*
X12722Y17649D02*
X12748Y17702D01*
X12748Y17702D02*
X12775Y17728D01*
X12775Y17728D02*
X12828Y17755D01*
X12828Y17755D02*
X12907Y17755D01*
X12907Y17755D02*
X12960Y17728D01*
X12960Y17728D02*
X12986Y17702D01*
X12986Y17702D02*
X13013Y17649D01*
X13013Y17649D02*
X13013Y17437D01*
X12775Y17966D02*
X12748Y17993D01*
X12748Y17993D02*
X12722Y18046D01*
X12722Y18046D02*
X12722Y18178D01*
X12722Y18178D02*
X12748Y18231D01*
X12748Y18231D02*
X12775Y18257D01*
X12775Y18257D02*
X12828Y18284D01*
X12828Y18284D02*
X12880Y18284D01*
X12880Y18284D02*
X12960Y18257D01*
X12960Y18257D02*
X13277Y17940D01*
X13277Y17940D02*
X13277Y18284D01*
X12775Y18496D02*
X12748Y18522D01*
X12748Y18522D02*
X12722Y18575D01*
X12722Y18575D02*
X12722Y18707D01*
X12722Y18707D02*
X12748Y18760D01*
X12748Y18760D02*
X12775Y18787D01*
X12775Y18787D02*
X12828Y18813D01*
X12828Y18813D02*
X12880Y18813D01*
X12880Y18813D02*
X12960Y18787D01*
X12960Y18787D02*
X13277Y18469D01*
X13277Y18469D02*
X13277Y18813D01*
X13748Y17173D02*
X13722Y17120D01*
X13722Y17120D02*
X13722Y17041D01*
X13722Y17041D02*
X13748Y16961D01*
X13748Y16961D02*
X13801Y16908D01*
X13801Y16908D02*
X13854Y16882D01*
X13854Y16882D02*
X13960Y16855D01*
X13960Y16855D02*
X14039Y16855D01*
X14039Y16855D02*
X14145Y16882D01*
X14145Y16882D02*
X14198Y16908D01*
X14198Y16908D02*
X14251Y16961D01*
X14251Y16961D02*
X14277Y17041D01*
X14277Y17041D02*
X14277Y17093D01*
X14277Y17093D02*
X14251Y17173D01*
X14251Y17173D02*
X14224Y17199D01*
X14224Y17199D02*
X14039Y17199D01*
X14039Y17199D02*
X14039Y17093D01*
X14277Y17437D02*
X13722Y17437D01*
X13722Y17437D02*
X13722Y17649D01*
X13722Y17649D02*
X13748Y17702D01*
X13748Y17702D02*
X13775Y17728D01*
X13775Y17728D02*
X13828Y17755D01*
X13828Y17755D02*
X13907Y17755D01*
X13907Y17755D02*
X13960Y17728D01*
X13960Y17728D02*
X13986Y17702D01*
X13986Y17702D02*
X14013Y17649D01*
X14013Y17649D02*
X14013Y17437D01*
X13775Y17966D02*
X13748Y17993D01*
X13748Y17993D02*
X13722Y18046D01*
X13722Y18046D02*
X13722Y18178D01*
X13722Y18178D02*
X13748Y18231D01*
X13748Y18231D02*
X13775Y18257D01*
X13775Y18257D02*
X13828Y18284D01*
X13828Y18284D02*
X13880Y18284D01*
X13880Y18284D02*
X13960Y18257D01*
X13960Y18257D02*
X14277Y17940D01*
X14277Y17940D02*
X14277Y18284D01*
X14277Y18813D02*
X14277Y18496D01*
X14277Y18654D02*
X13722Y18654D01*
X13722Y18654D02*
X13801Y18601D01*
X13801Y18601D02*
X13854Y18548D01*
X13854Y18548D02*
X13880Y18496D01*
X14748Y17173D02*
X14722Y17120D01*
X14722Y17120D02*
X14722Y17041D01*
X14722Y17041D02*
X14748Y16961D01*
X14748Y16961D02*
X14801Y16908D01*
X14801Y16908D02*
X14854Y16882D01*
X14854Y16882D02*
X14960Y16855D01*
X14960Y16855D02*
X15039Y16855D01*
X15039Y16855D02*
X15145Y16882D01*
X15145Y16882D02*
X15198Y16908D01*
X15198Y16908D02*
X15251Y16961D01*
X15251Y16961D02*
X15277Y17041D01*
X15277Y17041D02*
X15277Y17093D01*
X15277Y17093D02*
X15251Y17173D01*
X15251Y17173D02*
X15224Y17199D01*
X15224Y17199D02*
X15039Y17199D01*
X15039Y17199D02*
X15039Y17093D01*
X15277Y17437D02*
X14722Y17437D01*
X14722Y17437D02*
X14722Y17649D01*
X14722Y17649D02*
X14748Y17702D01*
X14748Y17702D02*
X14775Y17728D01*
X14775Y17728D02*
X14828Y17755D01*
X14828Y17755D02*
X14907Y17755D01*
X14907Y17755D02*
X14960Y17728D01*
X14960Y17728D02*
X14986Y17702D01*
X14986Y17702D02*
X15013Y17649D01*
X15013Y17649D02*
X15013Y17437D01*
X14775Y17966D02*
X14748Y17993D01*
X14748Y17993D02*
X14722Y18046D01*
X14722Y18046D02*
X14722Y18178D01*
X14722Y18178D02*
X14748Y18231D01*
X14748Y18231D02*
X14775Y18257D01*
X14775Y18257D02*
X14828Y18284D01*
X14828Y18284D02*
X14880Y18284D01*
X14880Y18284D02*
X14960Y18257D01*
X14960Y18257D02*
X15277Y17940D01*
X15277Y17940D02*
X15277Y18284D01*
X14722Y18628D02*
X14722Y18681D01*
X14722Y18681D02*
X14748Y18734D01*
X14748Y18734D02*
X14775Y18760D01*
X14775Y18760D02*
X14828Y18787D01*
X14828Y18787D02*
X14933Y18813D01*
X14933Y18813D02*
X15066Y18813D01*
X15066Y18813D02*
X15171Y18787D01*
X15171Y18787D02*
X15224Y18760D01*
X15224Y18760D02*
X15251Y18734D01*
X15251Y18734D02*
X15277Y18681D01*
X15277Y18681D02*
X15277Y18628D01*
X15277Y18628D02*
X15251Y18575D01*
X15251Y18575D02*
X15224Y18548D01*
X15224Y18548D02*
X15171Y18522D01*
X15171Y18522D02*
X15066Y18496D01*
X15066Y18496D02*
X14933Y18496D01*
X14933Y18496D02*
X14828Y18522D01*
X14828Y18522D02*
X14775Y18548D01*
X14775Y18548D02*
X14748Y18575D01*
X14748Y18575D02*
X14722Y18628D01*
X15748Y17173D02*
X15722Y17120D01*
X15722Y17120D02*
X15722Y17041D01*
X15722Y17041D02*
X15748Y16961D01*
X15748Y16961D02*
X15801Y16908D01*
X15801Y16908D02*
X15854Y16882D01*
X15854Y16882D02*
X15960Y16855D01*
X15960Y16855D02*
X16039Y16855D01*
X16039Y16855D02*
X16145Y16882D01*
X16145Y16882D02*
X16198Y16908D01*
X16198Y16908D02*
X16251Y16961D01*
X16251Y16961D02*
X16277Y17041D01*
X16277Y17041D02*
X16277Y17093D01*
X16277Y17093D02*
X16251Y17173D01*
X16251Y17173D02*
X16224Y17199D01*
X16224Y17199D02*
X16039Y17199D01*
X16039Y17199D02*
X16039Y17093D01*
X16277Y17437D02*
X15722Y17437D01*
X15722Y17437D02*
X15722Y17649D01*
X15722Y17649D02*
X15748Y17702D01*
X15748Y17702D02*
X15775Y17728D01*
X15775Y17728D02*
X15828Y17755D01*
X15828Y17755D02*
X15907Y17755D01*
X15907Y17755D02*
X15960Y17728D01*
X15960Y17728D02*
X15986Y17702D01*
X15986Y17702D02*
X16013Y17649D01*
X16013Y17649D02*
X16013Y17437D01*
X16277Y18284D02*
X16277Y17966D01*
X16277Y18125D02*
X15722Y18125D01*
X15722Y18125D02*
X15801Y18072D01*
X15801Y18072D02*
X15854Y18019D01*
X15854Y18019D02*
X15880Y17966D01*
X16277Y18548D02*
X16277Y18654D01*
X16277Y18654D02*
X16251Y18707D01*
X16251Y18707D02*
X16224Y18734D01*
X16224Y18734D02*
X16145Y18787D01*
X16145Y18787D02*
X16039Y18813D01*
X16039Y18813D02*
X15828Y18813D01*
X15828Y18813D02*
X15775Y18787D01*
X15775Y18787D02*
X15748Y18760D01*
X15748Y18760D02*
X15722Y18707D01*
X15722Y18707D02*
X15722Y18601D01*
X15722Y18601D02*
X15748Y18548D01*
X15748Y18548D02*
X15775Y18522D01*
X15775Y18522D02*
X15828Y18496D01*
X15828Y18496D02*
X15960Y18496D01*
X15960Y18496D02*
X16013Y18522D01*
X16013Y18522D02*
X16039Y18548D01*
X16039Y18548D02*
X16066Y18601D01*
X16066Y18601D02*
X16066Y18707D01*
X16066Y18707D02*
X16039Y18760D01*
X16039Y18760D02*
X16013Y18787D01*
X16013Y18787D02*
X15960Y18813D01*
X18003Y18251D02*
X17951Y18277D01*
X17951Y18277D02*
X17871Y18277D01*
X17871Y18277D02*
X17792Y18251D01*
X17792Y18251D02*
X17739Y18198D01*
X17739Y18198D02*
X17712Y18145D01*
X17712Y18145D02*
X17686Y18039D01*
X17686Y18039D02*
X17686Y17960D01*
X17686Y17960D02*
X17712Y17854D01*
X17712Y17854D02*
X17739Y17801D01*
X17739Y17801D02*
X17792Y17748D01*
X17792Y17748D02*
X17871Y17722D01*
X17871Y17722D02*
X17924Y17722D01*
X17924Y17722D02*
X18003Y17748D01*
X18003Y17748D02*
X18030Y17775D01*
X18030Y17775D02*
X18030Y17960D01*
X18030Y17960D02*
X17924Y17960D01*
X18268Y17722D02*
X18268Y18277D01*
X18268Y18277D02*
X18480Y18277D01*
X18480Y18277D02*
X18533Y18251D01*
X18533Y18251D02*
X18559Y18224D01*
X18559Y18224D02*
X18585Y18171D01*
X18585Y18171D02*
X18585Y18092D01*
X18585Y18092D02*
X18559Y18039D01*
X18559Y18039D02*
X18533Y18013D01*
X18533Y18013D02*
X18480Y17986D01*
X18480Y17986D02*
X18268Y17986D01*
X19115Y17722D02*
X18797Y17722D01*
X18956Y17722D02*
X18956Y18277D01*
X18956Y18277D02*
X18903Y18198D01*
X18903Y18198D02*
X18850Y18145D01*
X18850Y18145D02*
X18797Y18119D01*
X19591Y18277D02*
X19485Y18277D01*
X19485Y18277D02*
X19432Y18251D01*
X19432Y18251D02*
X19406Y18224D01*
X19406Y18224D02*
X19353Y18145D01*
X19353Y18145D02*
X19326Y18039D01*
X19326Y18039D02*
X19326Y17828D01*
X19326Y17828D02*
X19353Y17775D01*
X19353Y17775D02*
X19379Y17748D01*
X19379Y17748D02*
X19432Y17722D01*
X19432Y17722D02*
X19538Y17722D01*
X19538Y17722D02*
X19591Y17748D01*
X19591Y17748D02*
X19617Y17775D01*
X19617Y17775D02*
X19644Y17828D01*
X19644Y17828D02*
X19644Y17960D01*
X19644Y17960D02*
X19617Y18013D01*
X19617Y18013D02*
X19591Y18039D01*
X19591Y18039D02*
X19538Y18066D01*
X19538Y18066D02*
X19432Y18066D01*
X19432Y18066D02*
X19379Y18039D01*
X19379Y18039D02*
X19353Y18013D01*
X19353Y18013D02*
X19326Y17960D01*
X18003Y17251D02*
X17951Y17277D01*
X17951Y17277D02*
X17871Y17277D01*
X17871Y17277D02*
X17792Y17251D01*
X17792Y17251D02*
X17739Y17198D01*
X17739Y17198D02*
X17712Y17145D01*
X17712Y17145D02*
X17686Y17039D01*
X17686Y17039D02*
X17686Y16960D01*
X17686Y16960D02*
X17712Y16854D01*
X17712Y16854D02*
X17739Y16801D01*
X17739Y16801D02*
X17792Y16748D01*
X17792Y16748D02*
X17871Y16722D01*
X17871Y16722D02*
X17924Y16722D01*
X17924Y16722D02*
X18003Y16748D01*
X18003Y16748D02*
X18030Y16775D01*
X18030Y16775D02*
X18030Y16960D01*
X18030Y16960D02*
X17924Y16960D01*
X18268Y16722D02*
X18268Y17277D01*
X18268Y17277D02*
X18480Y17277D01*
X18480Y17277D02*
X18533Y17251D01*
X18533Y17251D02*
X18559Y17224D01*
X18559Y17224D02*
X18585Y17171D01*
X18585Y17171D02*
X18585Y17092D01*
X18585Y17092D02*
X18559Y17039D01*
X18559Y17039D02*
X18533Y17013D01*
X18533Y17013D02*
X18480Y16986D01*
X18480Y16986D02*
X18268Y16986D01*
X19115Y16722D02*
X18797Y16722D01*
X18956Y16722D02*
X18956Y17277D01*
X18956Y17277D02*
X18903Y17198D01*
X18903Y17198D02*
X18850Y17145D01*
X18850Y17145D02*
X18797Y17119D01*
X19300Y17277D02*
X19670Y17277D01*
X19670Y17277D02*
X19432Y16722D01*
X18003Y16251D02*
X17951Y16277D01*
X17951Y16277D02*
X17871Y16277D01*
X17871Y16277D02*
X17792Y16251D01*
X17792Y16251D02*
X17739Y16198D01*
X17739Y16198D02*
X17712Y16145D01*
X17712Y16145D02*
X17686Y16039D01*
X17686Y16039D02*
X17686Y15960D01*
X17686Y15960D02*
X17712Y15854D01*
X17712Y15854D02*
X17739Y15801D01*
X17739Y15801D02*
X17792Y15748D01*
X17792Y15748D02*
X17871Y15722D01*
X17871Y15722D02*
X17924Y15722D01*
X17924Y15722D02*
X18003Y15748D01*
X18003Y15748D02*
X18030Y15775D01*
X18030Y15775D02*
X18030Y15960D01*
X18030Y15960D02*
X17924Y15960D01*
X18268Y15722D02*
X18268Y16277D01*
X18268Y16277D02*
X18480Y16277D01*
X18480Y16277D02*
X18533Y16251D01*
X18533Y16251D02*
X18559Y16224D01*
X18559Y16224D02*
X18585Y16171D01*
X18585Y16171D02*
X18585Y16092D01*
X18585Y16092D02*
X18559Y16039D01*
X18559Y16039D02*
X18533Y16013D01*
X18533Y16013D02*
X18480Y15986D01*
X18480Y15986D02*
X18268Y15986D01*
X19115Y15722D02*
X18797Y15722D01*
X18956Y15722D02*
X18956Y16277D01*
X18956Y16277D02*
X18903Y16198D01*
X18903Y16198D02*
X18850Y16145D01*
X18850Y16145D02*
X18797Y16119D01*
X19432Y16039D02*
X19379Y16066D01*
X19379Y16066D02*
X19353Y16092D01*
X19353Y16092D02*
X19326Y16145D01*
X19326Y16145D02*
X19326Y16171D01*
X19326Y16171D02*
X19353Y16224D01*
X19353Y16224D02*
X19379Y16251D01*
X19379Y16251D02*
X19432Y16277D01*
X19432Y16277D02*
X19538Y16277D01*
X19538Y16277D02*
X19591Y16251D01*
X19591Y16251D02*
X19617Y16224D01*
X19617Y16224D02*
X19644Y16171D01*
X19644Y16171D02*
X19644Y16145D01*
X19644Y16145D02*
X19617Y16092D01*
X19617Y16092D02*
X19591Y16066D01*
X19591Y16066D02*
X19538Y16039D01*
X19538Y16039D02*
X19432Y16039D01*
X19432Y16039D02*
X19379Y16013D01*
X19379Y16013D02*
X19353Y15986D01*
X19353Y15986D02*
X19326Y15933D01*
X19326Y15933D02*
X19326Y15828D01*
X19326Y15828D02*
X19353Y15775D01*
X19353Y15775D02*
X19379Y15748D01*
X19379Y15748D02*
X19432Y15722D01*
X19432Y15722D02*
X19538Y15722D01*
X19538Y15722D02*
X19591Y15748D01*
X19591Y15748D02*
X19617Y15775D01*
X19617Y15775D02*
X19644Y15828D01*
X19644Y15828D02*
X19644Y15933D01*
X19644Y15933D02*
X19617Y15986D01*
X19617Y15986D02*
X19591Y16013D01*
X19591Y16013D02*
X19538Y16039D01*
X7222Y1544D02*
X7222Y1888D01*
X7222Y1888D02*
X7433Y1703D01*
X7433Y1703D02*
X7433Y1783D01*
X7433Y1783D02*
X7460Y1835D01*
X7460Y1835D02*
X7486Y1862D01*
X7486Y1862D02*
X7539Y1888D01*
X7539Y1888D02*
X7671Y1888D01*
X7671Y1888D02*
X7724Y1862D01*
X7724Y1862D02*
X7751Y1835D01*
X7751Y1835D02*
X7777Y1783D01*
X7777Y1783D02*
X7777Y1624D01*
X7777Y1624D02*
X7751Y1571D01*
X7751Y1571D02*
X7724Y1544D01*
X7222Y2047D02*
X7777Y2232D01*
X7777Y2232D02*
X7222Y2417D01*
X7222Y2550D02*
X7222Y2894D01*
X7222Y2894D02*
X7433Y2708D01*
X7433Y2708D02*
X7433Y2788D01*
X7433Y2788D02*
X7460Y2841D01*
X7460Y2841D02*
X7486Y2867D01*
X7486Y2867D02*
X7539Y2894D01*
X7539Y2894D02*
X7671Y2894D01*
X7671Y2894D02*
X7724Y2867D01*
X7724Y2867D02*
X7751Y2841D01*
X7751Y2841D02*
X7777Y2788D01*
X7777Y2788D02*
X7777Y2629D01*
X7777Y2629D02*
X7751Y2576D01*
X7751Y2576D02*
X7724Y2550D01*
X14248Y1253D02*
X14222Y1201D01*
X14222Y1201D02*
X14222Y1121D01*
X14222Y1121D02*
X14248Y1042D01*
X14248Y1042D02*
X14301Y989D01*
X14301Y989D02*
X14354Y962D01*
X14354Y962D02*
X14460Y936D01*
X14460Y936D02*
X14539Y936D01*
X14539Y936D02*
X14645Y962D01*
X14645Y962D02*
X14698Y989D01*
X14698Y989D02*
X14751Y1042D01*
X14751Y1042D02*
X14777Y1121D01*
X14777Y1121D02*
X14777Y1174D01*
X14777Y1174D02*
X14751Y1253D01*
X14751Y1253D02*
X14724Y1280D01*
X14724Y1280D02*
X14539Y1280D01*
X14539Y1280D02*
X14539Y1174D01*
X14777Y1518D02*
X14222Y1518D01*
X14222Y1518D02*
X14222Y1730D01*
X14222Y1730D02*
X14248Y1783D01*
X14248Y1783D02*
X14275Y1809D01*
X14275Y1809D02*
X14328Y1835D01*
X14328Y1835D02*
X14407Y1835D01*
X14407Y1835D02*
X14460Y1809D01*
X14460Y1809D02*
X14486Y1783D01*
X14486Y1783D02*
X14513Y1730D01*
X14513Y1730D02*
X14513Y1518D01*
X14777Y2365D02*
X14777Y2047D01*
X14777Y2206D02*
X14222Y2206D01*
X14222Y2206D02*
X14301Y2153D01*
X14301Y2153D02*
X14354Y2100D01*
X14354Y2100D02*
X14380Y2047D01*
X14222Y2708D02*
X14222Y2761D01*
X14222Y2761D02*
X14248Y2814D01*
X14248Y2814D02*
X14275Y2841D01*
X14275Y2841D02*
X14328Y2867D01*
X14328Y2867D02*
X14433Y2894D01*
X14433Y2894D02*
X14566Y2894D01*
X14566Y2894D02*
X14671Y2867D01*
X14671Y2867D02*
X14724Y2841D01*
X14724Y2841D02*
X14751Y2814D01*
X14751Y2814D02*
X14777Y2761D01*
X14777Y2761D02*
X14777Y2708D01*
X14777Y2708D02*
X14751Y2656D01*
X14751Y2656D02*
X14724Y2629D01*
X14724Y2629D02*
X14671Y2603D01*
X14671Y2603D02*
X14566Y2576D01*
X14566Y2576D02*
X14433Y2576D01*
X14433Y2576D02*
X14328Y2603D01*
X14328Y2603D02*
X14275Y2629D01*
X14275Y2629D02*
X14248Y2656D01*
X14248Y2656D02*
X14222Y2708D01*
X18248Y1730D02*
X18222Y1677D01*
X18222Y1677D02*
X18222Y1597D01*
X18222Y1597D02*
X18248Y1518D01*
X18248Y1518D02*
X18301Y1465D01*
X18301Y1465D02*
X18354Y1439D01*
X18354Y1439D02*
X18460Y1412D01*
X18460Y1412D02*
X18539Y1412D01*
X18539Y1412D02*
X18645Y1439D01*
X18645Y1439D02*
X18698Y1465D01*
X18698Y1465D02*
X18751Y1518D01*
X18751Y1518D02*
X18777Y1597D01*
X18777Y1597D02*
X18777Y1650D01*
X18777Y1650D02*
X18751Y1730D01*
X18751Y1730D02*
X18724Y1756D01*
X18724Y1756D02*
X18539Y1756D01*
X18539Y1756D02*
X18539Y1650D01*
X18777Y1994D02*
X18222Y1994D01*
X18222Y1994D02*
X18777Y2312D01*
X18777Y2312D02*
X18222Y2312D01*
X18777Y2576D02*
X18222Y2576D01*
X18222Y2576D02*
X18222Y2708D01*
X18222Y2708D02*
X18248Y2788D01*
X18248Y2788D02*
X18301Y2841D01*
X18301Y2841D02*
X18354Y2867D01*
X18354Y2867D02*
X18460Y2894D01*
X18460Y2894D02*
X18539Y2894D01*
X18539Y2894D02*
X18645Y2867D01*
X18645Y2867D02*
X18698Y2841D01*
X18698Y2841D02*
X18751Y2788D01*
X18751Y2788D02*
X18777Y2708D01*
X18777Y2708D02*
X18777Y2576D01*
X15248Y1253D02*
X15222Y1201D01*
X15222Y1201D02*
X15222Y1121D01*
X15222Y1121D02*
X15248Y1042D01*
X15248Y1042D02*
X15301Y989D01*
X15301Y989D02*
X15354Y962D01*
X15354Y962D02*
X15460Y936D01*
X15460Y936D02*
X15539Y936D01*
X15539Y936D02*
X15645Y962D01*
X15645Y962D02*
X15698Y989D01*
X15698Y989D02*
X15751Y1042D01*
X15751Y1042D02*
X15777Y1121D01*
X15777Y1121D02*
X15777Y1174D01*
X15777Y1174D02*
X15751Y1253D01*
X15751Y1253D02*
X15724Y1280D01*
X15724Y1280D02*
X15539Y1280D01*
X15539Y1280D02*
X15539Y1174D01*
X15777Y1518D02*
X15222Y1518D01*
X15222Y1518D02*
X15222Y1730D01*
X15222Y1730D02*
X15248Y1783D01*
X15248Y1783D02*
X15275Y1809D01*
X15275Y1809D02*
X15328Y1835D01*
X15328Y1835D02*
X15407Y1835D01*
X15407Y1835D02*
X15460Y1809D01*
X15460Y1809D02*
X15486Y1783D01*
X15486Y1783D02*
X15513Y1730D01*
X15513Y1730D02*
X15513Y1518D01*
X15777Y2365D02*
X15777Y2047D01*
X15777Y2206D02*
X15222Y2206D01*
X15222Y2206D02*
X15301Y2153D01*
X15301Y2153D02*
X15354Y2100D01*
X15354Y2100D02*
X15380Y2047D01*
X15777Y2894D02*
X15777Y2576D01*
X15777Y2735D02*
X15222Y2735D01*
X15222Y2735D02*
X15301Y2682D01*
X15301Y2682D02*
X15354Y2629D01*
X15354Y2629D02*
X15380Y2576D01*
X16248Y1253D02*
X16222Y1201D01*
X16222Y1201D02*
X16222Y1121D01*
X16222Y1121D02*
X16248Y1042D01*
X16248Y1042D02*
X16301Y989D01*
X16301Y989D02*
X16354Y962D01*
X16354Y962D02*
X16460Y936D01*
X16460Y936D02*
X16539Y936D01*
X16539Y936D02*
X16645Y962D01*
X16645Y962D02*
X16698Y989D01*
X16698Y989D02*
X16751Y1042D01*
X16751Y1042D02*
X16777Y1121D01*
X16777Y1121D02*
X16777Y1174D01*
X16777Y1174D02*
X16751Y1253D01*
X16751Y1253D02*
X16724Y1280D01*
X16724Y1280D02*
X16539Y1280D01*
X16539Y1280D02*
X16539Y1174D01*
X16777Y1518D02*
X16222Y1518D01*
X16222Y1518D02*
X16222Y1730D01*
X16222Y1730D02*
X16248Y1783D01*
X16248Y1783D02*
X16275Y1809D01*
X16275Y1809D02*
X16328Y1835D01*
X16328Y1835D02*
X16407Y1835D01*
X16407Y1835D02*
X16460Y1809D01*
X16460Y1809D02*
X16486Y1783D01*
X16486Y1783D02*
X16513Y1730D01*
X16513Y1730D02*
X16513Y1518D01*
X16777Y2365D02*
X16777Y2047D01*
X16777Y2206D02*
X16222Y2206D01*
X16222Y2206D02*
X16301Y2153D01*
X16301Y2153D02*
X16354Y2100D01*
X16354Y2100D02*
X16380Y2047D01*
X16275Y2576D02*
X16248Y2603D01*
X16248Y2603D02*
X16222Y2656D01*
X16222Y2656D02*
X16222Y2788D01*
X16222Y2788D02*
X16248Y2841D01*
X16248Y2841D02*
X16275Y2867D01*
X16275Y2867D02*
X16328Y2894D01*
X16328Y2894D02*
X16380Y2894D01*
X16380Y2894D02*
X16460Y2867D01*
X16460Y2867D02*
X16777Y2550D01*
X16777Y2550D02*
X16777Y2894D01*
X17248Y1253D02*
X17222Y1201D01*
X17222Y1201D02*
X17222Y1121D01*
X17222Y1121D02*
X17248Y1042D01*
X17248Y1042D02*
X17301Y989D01*
X17301Y989D02*
X17354Y962D01*
X17354Y962D02*
X17460Y936D01*
X17460Y936D02*
X17539Y936D01*
X17539Y936D02*
X17645Y962D01*
X17645Y962D02*
X17698Y989D01*
X17698Y989D02*
X17751Y1042D01*
X17751Y1042D02*
X17777Y1121D01*
X17777Y1121D02*
X17777Y1174D01*
X17777Y1174D02*
X17751Y1253D01*
X17751Y1253D02*
X17724Y1280D01*
X17724Y1280D02*
X17539Y1280D01*
X17539Y1280D02*
X17539Y1174D01*
X17777Y1518D02*
X17222Y1518D01*
X17222Y1518D02*
X17222Y1730D01*
X17222Y1730D02*
X17248Y1783D01*
X17248Y1783D02*
X17275Y1809D01*
X17275Y1809D02*
X17328Y1835D01*
X17328Y1835D02*
X17407Y1835D01*
X17407Y1835D02*
X17460Y1809D01*
X17460Y1809D02*
X17486Y1783D01*
X17486Y1783D02*
X17513Y1730D01*
X17513Y1730D02*
X17513Y1518D01*
X17777Y2365D02*
X17777Y2047D01*
X17777Y2206D02*
X17222Y2206D01*
X17222Y2206D02*
X17301Y2153D01*
X17301Y2153D02*
X17354Y2100D01*
X17354Y2100D02*
X17380Y2047D01*
X17222Y2550D02*
X17222Y2894D01*
X17222Y2894D02*
X17433Y2708D01*
X17433Y2708D02*
X17433Y2788D01*
X17433Y2788D02*
X17460Y2841D01*
X17460Y2841D02*
X17486Y2867D01*
X17486Y2867D02*
X17539Y2894D01*
X17539Y2894D02*
X17671Y2894D01*
X17671Y2894D02*
X17724Y2867D01*
X17724Y2867D02*
X17751Y2841D01*
X17751Y2841D02*
X17777Y2788D01*
X17777Y2788D02*
X17777Y2629D01*
X17777Y2629D02*
X17751Y2576D01*
X17751Y2576D02*
X17724Y2550D01*
X8261Y1783D02*
X8235Y1730D01*
X8235Y1730D02*
X8235Y1650D01*
X8235Y1650D02*
X8261Y1571D01*
X8261Y1571D02*
X8314Y1518D01*
X8314Y1518D02*
X8367Y1492D01*
X8367Y1492D02*
X8473Y1465D01*
X8473Y1465D02*
X8552Y1465D01*
X8552Y1465D02*
X8658Y1492D01*
X8658Y1492D02*
X8711Y1518D01*
X8711Y1518D02*
X8764Y1571D01*
X8764Y1571D02*
X8791Y1650D01*
X8791Y1650D02*
X8791Y1703D01*
X8791Y1703D02*
X8764Y1783D01*
X8764Y1783D02*
X8738Y1809D01*
X8738Y1809D02*
X8552Y1809D01*
X8552Y1809D02*
X8552Y1703D01*
X8791Y2047D02*
X8235Y2047D01*
X8235Y2047D02*
X8235Y2259D01*
X8235Y2259D02*
X8261Y2312D01*
X8261Y2312D02*
X8288Y2338D01*
X8288Y2338D02*
X8341Y2365D01*
X8341Y2365D02*
X8420Y2365D01*
X8420Y2365D02*
X8473Y2338D01*
X8473Y2338D02*
X8500Y2312D01*
X8500Y2312D02*
X8526Y2259D01*
X8526Y2259D02*
X8526Y2047D01*
X8420Y2841D02*
X8791Y2841D01*
X8208Y2708D02*
X8605Y2576D01*
X8605Y2576D02*
X8605Y2920D01*
X9248Y1783D02*
X9222Y1730D01*
X9222Y1730D02*
X9222Y1650D01*
X9222Y1650D02*
X9248Y1571D01*
X9248Y1571D02*
X9301Y1518D01*
X9301Y1518D02*
X9354Y1492D01*
X9354Y1492D02*
X9460Y1465D01*
X9460Y1465D02*
X9539Y1465D01*
X9539Y1465D02*
X9645Y1492D01*
X9645Y1492D02*
X9698Y1518D01*
X9698Y1518D02*
X9751Y1571D01*
X9751Y1571D02*
X9777Y1650D01*
X9777Y1650D02*
X9777Y1703D01*
X9777Y1703D02*
X9751Y1783D01*
X9751Y1783D02*
X9724Y1809D01*
X9724Y1809D02*
X9539Y1809D01*
X9539Y1809D02*
X9539Y1703D01*
X9777Y2047D02*
X9222Y2047D01*
X9222Y2047D02*
X9222Y2259D01*
X9222Y2259D02*
X9248Y2312D01*
X9248Y2312D02*
X9275Y2338D01*
X9275Y2338D02*
X9328Y2365D01*
X9328Y2365D02*
X9407Y2365D01*
X9407Y2365D02*
X9460Y2338D01*
X9460Y2338D02*
X9486Y2312D01*
X9486Y2312D02*
X9513Y2259D01*
X9513Y2259D02*
X9513Y2047D01*
X9222Y2867D02*
X9222Y2603D01*
X9222Y2603D02*
X9486Y2576D01*
X9486Y2576D02*
X9460Y2603D01*
X9460Y2603D02*
X9433Y2656D01*
X9433Y2656D02*
X9433Y2788D01*
X9433Y2788D02*
X9460Y2841D01*
X9460Y2841D02*
X9486Y2867D01*
X9486Y2867D02*
X9539Y2894D01*
X9539Y2894D02*
X9671Y2894D01*
X9671Y2894D02*
X9724Y2867D01*
X9724Y2867D02*
X9751Y2841D01*
X9751Y2841D02*
X9777Y2788D01*
X9777Y2788D02*
X9777Y2656D01*
X9777Y2656D02*
X9751Y2603D01*
X9751Y2603D02*
X9724Y2576D01*
X10248Y1783D02*
X10222Y1730D01*
X10222Y1730D02*
X10222Y1650D01*
X10222Y1650D02*
X10248Y1571D01*
X10248Y1571D02*
X10301Y1518D01*
X10301Y1518D02*
X10354Y1492D01*
X10354Y1492D02*
X10460Y1465D01*
X10460Y1465D02*
X10539Y1465D01*
X10539Y1465D02*
X10645Y1492D01*
X10645Y1492D02*
X10698Y1518D01*
X10698Y1518D02*
X10751Y1571D01*
X10751Y1571D02*
X10777Y1650D01*
X10777Y1650D02*
X10777Y1703D01*
X10777Y1703D02*
X10751Y1783D01*
X10751Y1783D02*
X10724Y1809D01*
X10724Y1809D02*
X10539Y1809D01*
X10539Y1809D02*
X10539Y1703D01*
X10777Y2047D02*
X10222Y2047D01*
X10222Y2047D02*
X10222Y2259D01*
X10222Y2259D02*
X10248Y2312D01*
X10248Y2312D02*
X10275Y2338D01*
X10275Y2338D02*
X10328Y2365D01*
X10328Y2365D02*
X10407Y2365D01*
X10407Y2365D02*
X10460Y2338D01*
X10460Y2338D02*
X10486Y2312D01*
X10486Y2312D02*
X10513Y2259D01*
X10513Y2259D02*
X10513Y2047D01*
X10222Y2841D02*
X10222Y2735D01*
X10222Y2735D02*
X10248Y2682D01*
X10248Y2682D02*
X10275Y2656D01*
X10275Y2656D02*
X10354Y2603D01*
X10354Y2603D02*
X10460Y2576D01*
X10460Y2576D02*
X10671Y2576D01*
X10671Y2576D02*
X10724Y2603D01*
X10724Y2603D02*
X10751Y2629D01*
X10751Y2629D02*
X10777Y2682D01*
X10777Y2682D02*
X10777Y2788D01*
X10777Y2788D02*
X10751Y2841D01*
X10751Y2841D02*
X10724Y2867D01*
X10724Y2867D02*
X10671Y2894D01*
X10671Y2894D02*
X10539Y2894D01*
X10539Y2894D02*
X10486Y2867D01*
X10486Y2867D02*
X10460Y2841D01*
X10460Y2841D02*
X10433Y2788D01*
X10433Y2788D02*
X10433Y2682D01*
X10433Y2682D02*
X10460Y2629D01*
X10460Y2629D02*
X10486Y2603D01*
X10486Y2603D02*
X10539Y2576D01*
X11248Y1783D02*
X11222Y1730D01*
X11222Y1730D02*
X11222Y1650D01*
X11222Y1650D02*
X11248Y1571D01*
X11248Y1571D02*
X11301Y1518D01*
X11301Y1518D02*
X11354Y1492D01*
X11354Y1492D02*
X11460Y1465D01*
X11460Y1465D02*
X11539Y1465D01*
X11539Y1465D02*
X11645Y1492D01*
X11645Y1492D02*
X11698Y1518D01*
X11698Y1518D02*
X11751Y1571D01*
X11751Y1571D02*
X11777Y1650D01*
X11777Y1650D02*
X11777Y1703D01*
X11777Y1703D02*
X11751Y1783D01*
X11751Y1783D02*
X11724Y1809D01*
X11724Y1809D02*
X11539Y1809D01*
X11539Y1809D02*
X11539Y1703D01*
X11777Y2047D02*
X11222Y2047D01*
X11222Y2047D02*
X11222Y2259D01*
X11222Y2259D02*
X11248Y2312D01*
X11248Y2312D02*
X11275Y2338D01*
X11275Y2338D02*
X11328Y2365D01*
X11328Y2365D02*
X11407Y2365D01*
X11407Y2365D02*
X11460Y2338D01*
X11460Y2338D02*
X11486Y2312D01*
X11486Y2312D02*
X11513Y2259D01*
X11513Y2259D02*
X11513Y2047D01*
X11222Y2550D02*
X11222Y2920D01*
X11222Y2920D02*
X11777Y2682D01*
X12248Y1783D02*
X12222Y1730D01*
X12222Y1730D02*
X12222Y1650D01*
X12222Y1650D02*
X12248Y1571D01*
X12248Y1571D02*
X12301Y1518D01*
X12301Y1518D02*
X12354Y1492D01*
X12354Y1492D02*
X12460Y1465D01*
X12460Y1465D02*
X12539Y1465D01*
X12539Y1465D02*
X12645Y1492D01*
X12645Y1492D02*
X12698Y1518D01*
X12698Y1518D02*
X12751Y1571D01*
X12751Y1571D02*
X12777Y1650D01*
X12777Y1650D02*
X12777Y1703D01*
X12777Y1703D02*
X12751Y1783D01*
X12751Y1783D02*
X12724Y1809D01*
X12724Y1809D02*
X12539Y1809D01*
X12539Y1809D02*
X12539Y1703D01*
X12777Y2047D02*
X12222Y2047D01*
X12222Y2047D02*
X12222Y2259D01*
X12222Y2259D02*
X12248Y2312D01*
X12248Y2312D02*
X12275Y2338D01*
X12275Y2338D02*
X12328Y2365D01*
X12328Y2365D02*
X12407Y2365D01*
X12407Y2365D02*
X12460Y2338D01*
X12460Y2338D02*
X12486Y2312D01*
X12486Y2312D02*
X12513Y2259D01*
X12513Y2259D02*
X12513Y2047D01*
X12460Y2682D02*
X12433Y2629D01*
X12433Y2629D02*
X12407Y2603D01*
X12407Y2603D02*
X12354Y2576D01*
X12354Y2576D02*
X12328Y2576D01*
X12328Y2576D02*
X12275Y2603D01*
X12275Y2603D02*
X12248Y2629D01*
X12248Y2629D02*
X12222Y2682D01*
X12222Y2682D02*
X12222Y2788D01*
X12222Y2788D02*
X12248Y2841D01*
X12248Y2841D02*
X12275Y2867D01*
X12275Y2867D02*
X12328Y2894D01*
X12328Y2894D02*
X12354Y2894D01*
X12354Y2894D02*
X12407Y2867D01*
X12407Y2867D02*
X12433Y2841D01*
X12433Y2841D02*
X12460Y2788D01*
X12460Y2788D02*
X12460Y2682D01*
X12460Y2682D02*
X12486Y2629D01*
X12486Y2629D02*
X12513Y2603D01*
X12513Y2603D02*
X12566Y2576D01*
X12566Y2576D02*
X12671Y2576D01*
X12671Y2576D02*
X12724Y2603D01*
X12724Y2603D02*
X12751Y2629D01*
X12751Y2629D02*
X12777Y2682D01*
X12777Y2682D02*
X12777Y2788D01*
X12777Y2788D02*
X12751Y2841D01*
X12751Y2841D02*
X12724Y2867D01*
X12724Y2867D02*
X12671Y2894D01*
X12671Y2894D02*
X12566Y2894D01*
X12566Y2894D02*
X12513Y2867D01*
X12513Y2867D02*
X12486Y2841D01*
X12486Y2841D02*
X12460Y2788D01*
X13248Y1783D02*
X13222Y1730D01*
X13222Y1730D02*
X13222Y1650D01*
X13222Y1650D02*
X13248Y1571D01*
X13248Y1571D02*
X13301Y1518D01*
X13301Y1518D02*
X13354Y1492D01*
X13354Y1492D02*
X13460Y1465D01*
X13460Y1465D02*
X13539Y1465D01*
X13539Y1465D02*
X13645Y1492D01*
X13645Y1492D02*
X13698Y1518D01*
X13698Y1518D02*
X13751Y1571D01*
X13751Y1571D02*
X13777Y1650D01*
X13777Y1650D02*
X13777Y1703D01*
X13777Y1703D02*
X13751Y1783D01*
X13751Y1783D02*
X13724Y1809D01*
X13724Y1809D02*
X13539Y1809D01*
X13539Y1809D02*
X13539Y1703D01*
X13777Y2047D02*
X13222Y2047D01*
X13222Y2047D02*
X13222Y2259D01*
X13222Y2259D02*
X13248Y2312D01*
X13248Y2312D02*
X13275Y2338D01*
X13275Y2338D02*
X13328Y2365D01*
X13328Y2365D02*
X13407Y2365D01*
X13407Y2365D02*
X13460Y2338D01*
X13460Y2338D02*
X13486Y2312D01*
X13486Y2312D02*
X13513Y2259D01*
X13513Y2259D02*
X13513Y2047D01*
X13777Y2629D02*
X13777Y2735D01*
X13777Y2735D02*
X13751Y2788D01*
X13751Y2788D02*
X13724Y2814D01*
X13724Y2814D02*
X13645Y2867D01*
X13645Y2867D02*
X13539Y2894D01*
X13539Y2894D02*
X13328Y2894D01*
X13328Y2894D02*
X13275Y2867D01*
X13275Y2867D02*
X13248Y2841D01*
X13248Y2841D02*
X13222Y2788D01*
X13222Y2788D02*
X13222Y2682D01*
X13222Y2682D02*
X13248Y2629D01*
X13248Y2629D02*
X13275Y2603D01*
X13275Y2603D02*
X13328Y2576D01*
X13328Y2576D02*
X13460Y2576D01*
X13460Y2576D02*
X13513Y2603D01*
X13513Y2603D02*
X13539Y2629D01*
X13539Y2629D02*
X13566Y2682D01*
X13566Y2682D02*
X13566Y2788D01*
X13566Y2788D02*
X13539Y2841D01*
X13539Y2841D02*
X13513Y2867D01*
X13513Y2867D02*
X13460Y2894D01*
X1103Y4223D02*
X1050Y4250D01*
X1050Y4250D02*
X970Y4250D01*
X970Y4250D02*
X891Y4223D01*
X891Y4223D02*
X838Y4170D01*
X838Y4170D02*
X812Y4117D01*
X812Y4117D02*
X785Y4011D01*
X785Y4011D02*
X785Y3932D01*
X785Y3932D02*
X812Y3826D01*
X812Y3826D02*
X838Y3773D01*
X838Y3773D02*
X891Y3720D01*
X891Y3720D02*
X970Y3694D01*
X970Y3694D02*
X1023Y3694D01*
X1023Y3694D02*
X1103Y3720D01*
X1103Y3720D02*
X1129Y3747D01*
X1129Y3747D02*
X1129Y3932D01*
X1129Y3932D02*
X1023Y3932D01*
X1367Y3694D02*
X1367Y4250D01*
X1367Y4250D02*
X1579Y4250D01*
X1579Y4250D02*
X1632Y4223D01*
X1632Y4223D02*
X1658Y4197D01*
X1658Y4197D02*
X1685Y4144D01*
X1685Y4144D02*
X1685Y4064D01*
X1685Y4064D02*
X1658Y4011D01*
X1658Y4011D02*
X1632Y3985D01*
X1632Y3985D02*
X1579Y3958D01*
X1579Y3958D02*
X1367Y3958D01*
X2029Y4250D02*
X2082Y4250D01*
X2082Y4250D02*
X2134Y4223D01*
X2134Y4223D02*
X2161Y4197D01*
X2161Y4197D02*
X2187Y4144D01*
X2187Y4144D02*
X2214Y4038D01*
X2214Y4038D02*
X2214Y3906D01*
X2214Y3906D02*
X2187Y3800D01*
X2187Y3800D02*
X2161Y3747D01*
X2161Y3747D02*
X2134Y3720D01*
X2134Y3720D02*
X2082Y3694D01*
X2082Y3694D02*
X2029Y3694D01*
X2029Y3694D02*
X1976Y3720D01*
X1976Y3720D02*
X1949Y3747D01*
X1949Y3747D02*
X1923Y3800D01*
X1923Y3800D02*
X1896Y3906D01*
X1896Y3906D02*
X1896Y4038D01*
X1896Y4038D02*
X1923Y4144D01*
X1923Y4144D02*
X1949Y4197D01*
X1949Y4197D02*
X1976Y4223D01*
X1976Y4223D02*
X2029Y4250D01*
X19777Y1756D02*
X19222Y1756D01*
X19777Y2021D02*
X19222Y2021D01*
X19222Y2021D02*
X19777Y2338D01*
X19777Y2338D02*
X19222Y2338D01*
X19777Y2894D02*
X19777Y2576D01*
X19777Y2735D02*
X19222Y2735D01*
X19222Y2735D02*
X19301Y2682D01*
X19301Y2682D02*
X19354Y2629D01*
X19354Y2629D02*
X19380Y2576D01*
X20777Y1756D02*
X20222Y1756D01*
X20777Y2021D02*
X20222Y2021D01*
X20222Y2021D02*
X20777Y2338D01*
X20777Y2338D02*
X20222Y2338D01*
X20275Y2576D02*
X20248Y2603D01*
X20248Y2603D02*
X20222Y2656D01*
X20222Y2656D02*
X20222Y2788D01*
X20222Y2788D02*
X20248Y2841D01*
X20248Y2841D02*
X20275Y2867D01*
X20275Y2867D02*
X20328Y2894D01*
X20328Y2894D02*
X20380Y2894D01*
X20380Y2894D02*
X20460Y2867D01*
X20460Y2867D02*
X20777Y2550D01*
X20777Y2550D02*
X20777Y2894D01*
X32038Y2038D02*
X32461Y2038D01*
X32250Y1826D02*
X32250Y2250D01*
D11*
G01X30613Y4863D02*
X30366Y5065D01*
X30092Y5209D01*
X29800Y5295D01*
X29500Y5324D01*
X29199Y5295D01*
X28907Y5209D01*
X28633Y5065D01*
X28386Y4863D01*
X28184Y4616D01*
X28040Y4342D01*
X27954Y4050D01*
X27925Y3750D01*
X27954Y3449D01*
X28040Y3157D01*
X28184Y2883D01*
X28386Y2636D01*
X28633Y2434D01*
X28907Y2290D01*
X29199Y2204D01*
X29500Y2175D01*
X29800Y2204D01*
X30092Y2290D01*
X30366Y2434D01*
X30613Y2636D01*
X30815Y2883D01*
X30959Y3157D01*
X31045Y3449D01*
X31074Y3749D01*
X31045Y4050D01*
X30959Y4342D01*
X30815Y4616D01*
X30613Y4863D01*
X28515Y2864D02*
X28515Y3257D01*
X28515Y4242D02*
X28515Y4635D01*
X28712Y4438D02*
X28318Y4438D01*
X27891Y10858D02*
X28144Y11166D01*
X28324Y11509D01*
X28432Y11874D01*
X28468Y12250D01*
X28432Y12625D01*
X28324Y12990D01*
X28144Y13333D01*
X27891Y13641D01*
X27583Y13894D01*
X27240Y14074D01*
X26875Y14182D01*
X26500Y14218D01*
X26124Y14182D01*
X25759Y14074D01*
X25416Y13894D01*
X25108Y13641D01*
X24855Y13333D01*
X24675Y12990D01*
X24567Y12625D01*
X24531Y12250D01*
X24567Y11874D01*
X24675Y11509D01*
X24855Y11166D01*
X25108Y10858D01*
X25416Y10605D01*
X25759Y10425D01*
X26124Y10317D01*
X26500Y10281D01*
X26875Y10317D01*
X27240Y10425D01*
X27583Y10605D01*
X27891Y10858D01*
X27500Y11015D02*
X27500Y11515D01*
X27750Y11265D02*
X27250Y11265D01*
X27500Y13015D02*
X27500Y13515D01*
X27500Y14999D02*
X24500Y14999D01*
X27500Y14999D02*
X27500Y16000D01*
X24500Y14999D02*
X24500Y16000D01*
X27500Y16000D02*
X24500Y16000D01*
X29250Y16750D02*
X25249Y16750D01*
X29250Y18750D02*
X25249Y18750D01*
X29250Y16750D02*
X29250Y19550D01*
X25249Y16750D02*
X25249Y19550D01*
X29250Y19550D02*
X25249Y19550D01*
X36375Y12250D02*
X29625Y12250D01*
X36375Y12250D02*
X36375Y9875D01*
X36375Y7250D02*
X35500Y6875D01*
X29625Y7250D02*
X30250Y6875D01*
X35500Y6875D02*
X34875Y6000D01*
X30250Y6875D02*
X30875Y6000D01*
X34875Y6000D02*
X30875Y6000D01*
X36375Y9000D02*
X36169Y9037D01*
X36023Y9136D01*
X35935Y9276D01*
X35906Y9437D01*
X35935Y9598D01*
X36023Y9738D01*
X36169Y9837D01*
X36375Y9875D01*
X36375Y9000D02*
X36375Y7250D01*
X29625Y12250D02*
X29625Y9875D01*
X29625Y9000D02*
X29830Y9037D01*
X29976Y9136D01*
X30064Y9276D01*
X30093Y9437D01*
X30064Y9598D01*
X29976Y9738D01*
X29830Y9837D01*
X29625Y9875D01*
X29625Y9000D02*
X29625Y7250D01*
X20500Y9124D02*
X20500Y11875D01*
X20000Y8500D02*
X20000Y9124D01*
X19500Y9124D02*
X20500Y9124D01*
X19500Y9124D02*
X19500Y11875D01*
X19500Y11875D02*
X20500Y11875D01*
X20000Y12500D02*
X20000Y11875D01*
X21499Y9124D02*
X21499Y11875D01*
X21000Y8500D02*
X21000Y9124D01*
X20500Y9124D02*
X21499Y9124D01*
X20500Y9124D02*
X20500Y11875D01*
X20500Y11875D02*
X21499Y11875D01*
X21000Y12500D02*
X21000Y11875D01*
X24499Y8500D02*
X24478Y8335D01*
X24421Y8218D01*
X24341Y8148D01*
X24250Y8125D01*
X24158Y8148D01*
X24078Y8218D01*
X24021Y8335D01*
X23999Y8500D01*
X24499Y8500D02*
X26250Y8500D01*
X23999Y8500D02*
X22250Y8500D01*
X26250Y8500D02*
X26250Y4000D01*
X26250Y4000D02*
X22250Y4000D01*
X22250Y4000D02*
X22250Y8500D01*
X37000Y13375D02*
X37000Y10625D01*
X37500Y14000D02*
X37500Y13375D01*
X38000Y13375D02*
X37000Y13375D01*
X38000Y13375D02*
X38000Y10625D01*
X38000Y10625D02*
X37000Y10625D01*
X37500Y10000D02*
X37500Y10625D01*
X37000Y7375D02*
X37000Y4625D01*
X37500Y8000D02*
X37500Y7375D01*
X38000Y7375D02*
X37000Y7375D01*
X38000Y7375D02*
X38000Y4625D01*
X38000Y4625D02*
X37000Y4625D01*
X37500Y4000D02*
X37500Y4625D01*
X27500Y9250D02*
X27500Y9750D01*
X27250Y9000D02*
X26750Y9000D01*
X27500Y9250D02*
X27250Y9000D01*
X26750Y9000D02*
X26500Y9250D01*
X26500Y9250D02*
X26500Y9750D01*
X27500Y9750D02*
X27250Y10000D01*
X27250Y10000D02*
X26750Y10000D01*
X26750Y10000D02*
X26500Y9750D01*
X25750Y10000D02*
X25500Y9750D01*
X26500Y9750D02*
X26250Y10000D01*
X25500Y9250D02*
X25500Y9750D01*
X25750Y9000D02*
X25500Y9250D01*
X26500Y9250D02*
X26250Y9000D01*
X26250Y9000D02*
X25750Y9000D01*
X26250Y10000D02*
X25750Y10000D01*
X26499Y1000D02*
X21999Y1000D01*
X26499Y3500D02*
X21999Y3500D01*
X21999Y1000D02*
X21999Y3500D01*
X26499Y1000D02*
X26499Y3500D01*
X31500Y2500D02*
X31500Y5500D01*
X31500Y2500D02*
X32500Y2500D01*
X31500Y5500D02*
X32500Y5500D01*
X32500Y2500D02*
X32500Y5500D01*
X36000Y5374D02*
X36000Y1124D01*
X32875Y5375D02*
X32875Y1125D01*
X36000Y5374D02*
X32875Y5375D01*
X36000Y1124D02*
X32875Y1125D01*
X29750Y15250D02*
X30750Y15250D01*
X30750Y16250D02*
X30750Y14250D01*
X35750Y15250D02*
X34500Y15250D01*
X34500Y16250D02*
X34500Y14250D01*
X30750Y16250D02*
X34500Y16250D01*
X30750Y14250D02*
X34500Y14250D01*
X34000Y16250D02*
X34000Y14250D01*
X6500Y8512D02*
X6500Y9512D01*
X5974Y9512D02*
X7025Y9512D01*
X6500Y12487D02*
X6500Y11512D01*
X5974Y11512D02*
X7025Y11512D01*
X5974Y9512D02*
X5974Y11512D01*
X7025Y9512D02*
X7025Y11512D01*
X5974Y11262D02*
X7025Y11262D01*
X6500Y16000D02*
X6500Y18000D01*
X4499Y16000D02*
X4499Y18000D01*
X6500Y16000D02*
X4499Y16000D01*
X6500Y18000D02*
X4499Y18000D01*
X5146Y17353D02*
X5036Y17188D01*
X5000Y17000D01*
X5036Y16811D01*
X5146Y16646D01*
X5311Y16536D01*
X5499Y16500D01*
X5688Y16536D01*
X5853Y16646D01*
X5963Y16811D01*
X5999Y17000D01*
X5963Y17188D01*
X5853Y17353D01*
X5688Y17463D01*
X5499Y17500D01*
X5311Y17463D01*
X5146Y17353D01*
X2005Y4698D02*
X2106Y4811D01*
X2180Y4938D01*
X2227Y5075D01*
X2247Y5217D01*
X2239Y5361D01*
X2204Y5501D01*
X2141Y5634D01*
X2051Y5755D01*
X1938Y5856D01*
X1811Y5930D01*
X1674Y5977D01*
X1532Y5997D01*
X1388Y5989D01*
X1248Y5954D01*
X1115Y5891D01*
X994Y5801D01*
X893Y5688D01*
X819Y5561D01*
X772Y5424D01*
X752Y5282D01*
X760Y5138D01*
X795Y4998D01*
X858Y4865D01*
X948Y4744D01*
X994Y4698D01*
X2005Y4698D02*
X994Y4698D01*
X6505Y4698D02*
X6606Y4811D01*
X6680Y4938D01*
X6727Y5075D01*
X6747Y5217D01*
X6739Y5361D01*
X6704Y5501D01*
X6641Y5634D01*
X6551Y5755D01*
X6438Y5856D01*
X6311Y5930D01*
X6174Y5977D01*
X6032Y5997D01*
X5888Y5989D01*
X5748Y5954D01*
X5615Y5891D01*
X5494Y5801D01*
X5393Y5688D01*
X5319Y5561D01*
X5272Y5424D01*
X5252Y5282D01*
X5260Y5138D01*
X5295Y4998D01*
X5358Y4865D01*
X5448Y4744D01*
X5494Y4698D01*
X6505Y4698D02*
X5494Y4698D01*
X5005Y4698D02*
X5106Y4811D01*
X5180Y4938D01*
X5227Y5075D01*
X5247Y5217D01*
X5239Y5361D01*
X5204Y5501D01*
X5141Y5634D01*
X5051Y5755D01*
X4938Y5856D01*
X4811Y5930D01*
X4674Y5977D01*
X4532Y5997D01*
X4388Y5989D01*
X4248Y5954D01*
X4115Y5891D01*
X3994Y5801D01*
X3893Y5688D01*
X3819Y5561D01*
X3772Y5424D01*
X3752Y5282D01*
X3760Y5138D01*
X3795Y4998D01*
X3858Y4865D01*
X3948Y4744D01*
X3994Y4698D01*
X5005Y4698D02*
X3994Y4698D01*
X3505Y4698D02*
X3606Y4811D01*
X3680Y4938D01*
X3727Y5075D01*
X3747Y5217D01*
X3739Y5361D01*
X3704Y5501D01*
X3641Y5634D01*
X3551Y5755D01*
X3438Y5856D01*
X3311Y5930D01*
X3174Y5977D01*
X3032Y5997D01*
X2888Y5989D01*
X2748Y5954D01*
X2615Y5891D01*
X2494Y5801D01*
X2393Y5688D01*
X2319Y5561D01*
X2272Y5424D01*
X2252Y5282D01*
X2260Y5138D01*
X2295Y4998D01*
X2358Y4865D01*
X2448Y4744D01*
X2494Y4698D01*
X3505Y4698D02*
X2494Y4698D01*
X1500Y11874D02*
X1499Y9124D01*
X2000Y12499D02*
X2000Y11874D01*
X2500Y11874D02*
X1500Y11874D01*
X2500Y11874D02*
X2500Y9124D01*
X2500Y9124D02*
X1499Y9124D01*
X1999Y8499D02*
X2000Y9124D01*
X2500Y11874D02*
X2500Y9124D01*
X3000Y12499D02*
X3000Y11874D01*
X3500Y11874D02*
X2500Y11874D01*
X3500Y11874D02*
X3500Y9124D01*
X3500Y9124D02*
X2500Y9124D01*
X2999Y8499D02*
X3000Y9124D01*
X3500Y11874D02*
X3500Y9124D01*
X4000Y12499D02*
X4000Y11874D01*
X4500Y11874D02*
X3500Y11874D01*
X4500Y11874D02*
X4500Y9124D01*
X4500Y9124D02*
X3500Y9124D01*
X4000Y8499D02*
X4000Y9124D01*
X4500Y11874D02*
X4500Y9124D01*
X5000Y12499D02*
X5000Y11874D01*
X5500Y11874D02*
X4500Y11874D01*
X5500Y11874D02*
X5499Y9124D01*
X5499Y9124D02*
X4500Y9124D01*
X5000Y8499D02*
X5000Y9124D01*
X8500Y16500D02*
X17500Y16500D01*
X8500Y15500D02*
X17500Y15500D01*
X17500Y16500D02*
X17500Y15500D01*
X8500Y16250D02*
X8582Y16228D01*
X8640Y16171D01*
X8675Y16091D01*
X8687Y16000D01*
X8675Y15908D01*
X8640Y15828D01*
X8582Y15771D01*
X8500Y15750D01*
X8500Y16500D02*
X8500Y16250D01*
X8500Y15750D02*
X8500Y15500D01*
X21750Y15250D02*
X21771Y15414D01*
X21828Y15531D01*
X21908Y15601D01*
X22000Y15625D01*
X22091Y15601D01*
X22171Y15531D01*
X22228Y15414D01*
X22250Y15250D01*
X21750Y15250D02*
X20000Y15250D01*
X22250Y15250D02*
X24000Y15250D01*
X20000Y15250D02*
X20000Y18750D01*
X20000Y18750D02*
X24000Y18750D01*
X24000Y18750D02*
X24000Y15250D01*
X34923Y16765D02*
X31576Y16765D01*
X34923Y18734D02*
X31576Y18734D01*
X34923Y16765D02*
X34923Y19521D01*
X31576Y16765D02*
X31576Y19521D01*
X34923Y19521D02*
X31576Y19521D01*
X12250Y11500D02*
X10500Y11500D01*
X12250Y10500D02*
X10500Y10500D01*
X12250Y9500D02*
X10500Y9500D01*
X18750Y12499D02*
X12250Y12500D01*
X18750Y8499D02*
X12250Y8500D01*
X18750Y12499D02*
X18750Y8499D01*
X12250Y12500D02*
X12250Y8500D01*
X7000Y4250D02*
X21000Y4250D01*
X7000Y3250D02*
X21000Y3250D01*
X7000Y3250D02*
X7000Y4250D01*
X21000Y3250D02*
X21000Y4250D01*
X9500Y12000D02*
X9500Y9000D01*
X9500Y12000D02*
X8500Y12000D01*
X9500Y9000D02*
X8500Y9000D01*
X8500Y12000D02*
X8500Y9000D01*
X8500Y12000D02*
X8500Y9000D01*
X8500Y12000D02*
X7500Y12000D01*
X8500Y9000D02*
X7500Y9000D01*
X7500Y12000D02*
X7500Y9000D01*
X23765Y11265D02*
X23595Y11404D01*
X23407Y11503D01*
X23206Y11562D01*
X23000Y11582D01*
X22793Y11562D01*
X22592Y11503D01*
X22404Y11404D01*
X22234Y11265D01*
X22095Y11095D01*
X21996Y10907D01*
X21937Y10706D01*
X21917Y10500D01*
X21937Y10293D01*
X21996Y10092D01*
X22095Y9904D01*
X22234Y9734D01*
X22404Y9595D01*
X22592Y9496D01*
X22793Y9437D01*
X22999Y9417D01*
X23206Y9437D01*
X23407Y9496D01*
X23595Y9595D01*
X23765Y9734D01*
X23904Y9904D01*
X24003Y10092D01*
X24062Y10293D01*
X24082Y10500D01*
X24062Y10706D01*
X24003Y10907D01*
X23904Y11095D01*
X23765Y11265D01*
X22311Y9909D02*
X22311Y10303D01*
X22311Y10696D02*
X22311Y11090D01*
X22507Y10893D02*
X22114Y10893D01*
X28000Y9375D02*
X28000Y6625D01*
X28500Y10000D02*
X28500Y9375D01*
X28999Y9375D02*
X28000Y9375D01*
X28999Y9375D02*
X28999Y6625D01*
X28999Y6625D02*
X28000Y6625D01*
X28500Y6000D02*
X28500Y6625D01*
X27250Y7999D02*
X27250Y7499D01*
X27775Y7499D02*
X26724Y7499D01*
X27250Y4999D02*
X27250Y5499D01*
X27774Y5499D02*
X26749Y5499D01*
X27775Y7499D02*
X27774Y5499D01*
X26724Y7499D02*
X26724Y5499D01*
X27774Y5749D02*
X26724Y5749D01*
X30875Y2000D02*
X28125Y2000D01*
X31500Y1500D02*
X30875Y1500D01*
X30875Y1000D02*
X30875Y2000D01*
X30875Y1000D02*
X28125Y1000D01*
X28125Y1000D02*
X28125Y2000D01*
X27500Y1500D02*
X28125Y1500D01*
D12*
G01X24250Y250D02*
X24250Y19500D01*
D13*
G01X0Y0D02*
X0Y19685D01*
X39370Y19685D01*
X39370Y0D01*
X0Y0D01*
M02*
