%FSLAX24Y24*%
%MOIN*%
%ADD10C,0.0400*%
%ADD11C,0.0520*%
D10*
G01X3182Y2734D03*
X5625Y2724D03*
D11*
G01X875Y3697D02*
X875Y4177D01*
X2875Y697D02*
X2875Y1177D01*
X1875Y697D02*
X1875Y1177D01*
X1875Y3697D02*
X1875Y4177D01*
X7875Y3697D02*
X7875Y4177D01*
X6875Y3697D02*
X6875Y4177D01*
X4875Y697D02*
X4875Y1177D01*
X6875Y697D02*
X6875Y1177D01*
X3875Y697D02*
X3875Y1177D01*
X7875Y697D02*
X7875Y1177D01*
X5875Y697D02*
X5875Y1177D01*
X3875Y3697D02*
X3875Y4177D01*
X2875Y3697D02*
X2875Y4177D01*
X5875Y3697D02*
X5875Y4177D01*
X4875Y3697D02*
X4875Y4177D01*
G36*
X1135Y1437D02*G01*
X615Y1437D01*X615Y437D01*X1135Y437D01*G37*
G36*
X6253Y2412D02*G01*
X5997Y2412D01*X5997Y1703D01*X6253Y1703D01*G37*
G36*
X2753Y2411D02*G01*
X2497Y2411D01*X2497Y1703D01*X2753Y1703D01*G37*
G36*
X5252Y6171D02*G01*
X4996Y6171D01*X4996Y5463D01*X5252Y5463D01*G37*
G36*
X4753Y2411D02*G01*
X4497Y2411D01*X4497Y1703D01*X4753Y1703D01*G37*
G36*
X5253Y2412D02*G01*
X4997Y2412D01*X4997Y1703D01*X5253Y1703D01*G37*
G36*
X4253Y2411D02*G01*
X3997Y2411D01*X3997Y1703D01*X4253Y1703D01*G37*
G36*
X4752Y6171D02*G01*
X4496Y6171D01*X4496Y5463D01*X4752Y5463D01*G37*
G36*
X4252Y6171D02*G01*
X3996Y6171D01*X3996Y5463D01*X4252Y5463D01*G37*
G36*
X5752Y6171D02*G01*
X5496Y6171D01*X5496Y5463D01*X5752Y5463D01*G37*
G36*
X2752Y6171D02*G01*
X2496Y6171D01*X2496Y5462D01*X2752Y5462D01*G37*
G36*
X3753Y2411D02*G01*
X3497Y2411D01*X3497Y1703D01*X3753Y1703D01*G37*
G36*
X3252Y6171D02*G01*
X2996Y6171D01*X2996Y5463D01*X3252Y5463D01*G37*
G36*
X3752Y6171D02*G01*
X3496Y6171D01*X3496Y5463D01*X3752Y5463D01*G37*
G36*
X6252Y6171D02*G01*
X5996Y6171D01*X5996Y5463D01*X6252Y5463D01*G37*
G36*
X5753Y2412D02*G01*
X5497Y2412D01*X5497Y1703D01*X5753Y1703D01*G37*
G36*
X3253Y2411D02*G01*
X2997Y2411D01*X2997Y1703D01*X3253Y1703D01*G37*
M02*
