M48
INCH
T1C0.0125
T2C0.0320
T3C0.0394
T4C0.0433
T5C0.0512
T6C0.1260
%
G05
M72
T1
X0.2211Y2.2091
X0.2722Y2.2570
X0.3165Y2.2171
X0.2693Y2.1685
X0.7329Y2.2091
X0.7840Y2.2570
X0.8283Y2.2171
X0.7811Y2.1685
X1.2448Y2.2091
X1.2958Y2.2570
X1.3402Y2.2171
X1.2929Y2.1685
X1.7566Y2.2091
X1.8076Y2.2570
X1.8520Y2.2171
X1.8047Y2.1685
X2.2684Y2.2091
X2.3194Y2.2570
X2.3638Y2.2171
X2.3165Y2.1685
X2.7802Y2.2091
X2.8312Y2.2570
X2.8756Y2.2171
X2.8283Y2.1685
X3.2920Y2.2091
X3.3430Y2.2570
X3.3874Y2.2171
X3.3402Y2.1685
T2
X0.6000Y1.5500
X1.2750Y1.4606
X1.2750Y1.5394
X1.4500Y0.6000
X1.4500Y0.7000
X1.4500Y1.3000
X1.4500Y1.4000
X1.4500Y1.6000
X1.5000Y0.8500
X1.5000Y1.1500
X1.6000Y0.8500
X1.6000Y1.1500
X1.7000Y0.8500
X1.7000Y1.1500
X0.1766Y1.2500
X1.8000Y0.8500
X1.8000Y1.1500
X1.8500Y0.6000
X1.8500Y0.7000
X1.8500Y1.3000
X1.8500Y1.4000
X1.8500Y1.6000
X0.2000Y1.5500
X0.2000Y0.9500
X0.3734Y1.2500
X0.4000Y0.7250
X0.4000Y0.8250
X0.4000Y0.9500
X2.5685Y1.5500
X3.2435Y1.4606
X3.2435Y1.5394
X3.4185Y0.6000
X3.4185Y0.7000
X3.4185Y1.3000
X3.4185Y1.4000
X3.4185Y1.6000
X3.4685Y0.8500
X3.4685Y1.1500
X3.5685Y0.8500
X3.5685Y1.1500
X3.6685Y0.8500
X3.6685Y1.1500
X2.1451Y1.2500
X3.7685Y0.8500
X3.7685Y1.1500
X3.8185Y0.6000
X3.8185Y0.7000
X3.8185Y1.3000
X3.8185Y1.4000
X3.8185Y1.6000
X2.1685Y1.5500
X2.1685Y0.9500
X2.3419Y1.2500
X2.3685Y0.7250
X2.3685Y0.8250
X2.3685Y0.9500
X0.6000Y3.6409
X0.6250Y2.6909
X0.6750Y2.9266
X0.6750Y3.0053
X0.6750Y3.0841
X0.6750Y3.2228
X0.6750Y3.3016
X0.6750Y3.3803
X0.6750Y3.4591
X0.6750Y2.8478
X0.9000Y3.5409
X0.9000Y2.8409
X1.0000Y3.5409
X1.0000Y2.8409
X1.0250Y3.0409
X1.0250Y3.3409
X1.1000Y3.5409
X1.1000Y2.8409
X1.2000Y3.5409
X1.2000Y2.8409
X1.2250Y3.0409
X1.2250Y3.3409
X1.3000Y3.5409
X1.3000Y2.8409
X1.3250Y3.0409
X1.3250Y3.3409
X1.4000Y3.5409
X1.4000Y2.8409
X1.4250Y3.0409
X1.4250Y3.3409
X1.5000Y3.5409
X1.5000Y2.8409
X1.5250Y3.0409
X1.5250Y3.3409
X1.6000Y3.5409
X1.6000Y2.8409
X1.7000Y3.0909
X1.7000Y3.2909
X1.7000Y3.5409
X1.7000Y2.8409
X1.8000Y3.5409
X1.8000Y2.6409
X1.8000Y2.8409
X1.9000Y3.5409
X1.9000Y2.8409
X0.1969Y2.9134
X0.1969Y2.9921
X0.1969Y3.0709
X0.1969Y3.2283
X0.1969Y3.3071
X0.1969Y3.3858
X0.1969Y3.4646
X0.1969Y2.8346
X2.0000Y3.5409
X2.0000Y2.8409
X2.1000Y3.5409
X2.1000Y2.6409
X2.1000Y2.8409
X2.2000Y2.6409
X2.2000Y2.8409
X2.2000Y3.5409
X2.3000Y3.5409
X2.3000Y2.8409
X2.4000Y2.8409
X2.4000Y3.5409
X2.5000Y3.5409
X2.5000Y2.6409
X2.5000Y2.8409
X2.6000Y3.0409
X2.6000Y3.1409
X2.6000Y3.2409
X2.6000Y3.3409
X2.6000Y3.5409
X2.6000Y2.6409
X2.6000Y2.8409
X2.7000Y2.8409
X2.7000Y3.0409
X2.7000Y3.1409
X2.7000Y3.2409
X2.7000Y3.3409
X2.7000Y3.5409
X2.7000Y2.6409
X2.8000Y3.5409
X2.8000Y2.8409
X3.0500Y3.6159
X3.0500Y2.6909
X3.2500Y3.6159
X3.2500Y2.6909
X3.5039Y2.9331
X3.5039Y3.0118
X3.5039Y3.0906
X3.5039Y3.2283
X3.5039Y3.3071
X3.5039Y3.3858
X3.5039Y3.4646
X3.5039Y2.8543
X0.4000Y3.6409
X0.4250Y2.6909
X0.4082Y2.0560
X0.3082Y2.0560
X0.2082Y2.0560
X0.2082Y2.3560
X0.1082Y2.0560
X0.4082Y2.3560
X0.1082Y2.3560
X0.3082Y2.3560
X0.9200Y2.0560
X0.8200Y2.0560
X0.7200Y2.0560
X0.7200Y2.3560
X0.6200Y2.0560
X0.9200Y2.3560
X0.6200Y2.3560
X0.8200Y2.3560
X1.4318Y2.0560
X1.3318Y2.0560
X1.2318Y2.0560
X1.2318Y2.3560
X1.1318Y2.0560
X1.4318Y2.3560
X1.1318Y2.3560
X1.3318Y2.3560
X1.9437Y2.0560
X1.8437Y2.0560
X1.7437Y2.0560
X1.7437Y2.3560
X1.6437Y2.0560
X1.9437Y2.3560
X1.6437Y2.3560
X1.8437Y2.3560
X2.4555Y2.0560
X2.3555Y2.0560
X2.2555Y2.0560
X2.2555Y2.3560
X2.1555Y2.0560
X2.4555Y2.3560
X2.1555Y2.3560
X2.3555Y2.3560
X2.9673Y2.0560
X2.8673Y2.0560
X2.7673Y2.0560
X2.7673Y2.3560
X2.6673Y2.0560
X2.9673Y2.3560
X2.6673Y2.3560
X2.8673Y2.3560
X3.4791Y2.0560
X3.3791Y2.0560
X3.2791Y2.0560
X3.2791Y2.3560
X3.1791Y2.0560
X3.4791Y2.3560
X3.1791Y2.3560
X3.3791Y2.3560
T3
X0.5500Y1.3125
X0.6500Y1.3125
X0.7500Y1.3125
X0.8500Y1.3125
X0.9500Y1.3125
X1.0500Y1.3125
X1.1500Y1.3125
X2.5185Y1.3125
X2.6185Y1.3125
X2.7185Y1.3125
X2.8185Y1.3125
X2.9185Y1.3125
X3.0185Y1.3125
X3.1185Y1.3125
T4
X1.4512Y1.5000
X1.8487Y1.5000
X3.4198Y1.5000
X3.8173Y1.5000
T5
X0.4622Y0.2000
X0.5250Y1.7500
X0.6000Y0.2000
X0.7250Y1.7500
X0.7378Y0.2000
X1.0933Y0.2000
X1.2311Y0.2000
X1.3061Y1.7750
X1.3689Y0.2000
X1.4439Y1.7750
X1.5067Y0.2000
X2.4307Y0.2000
X2.4935Y1.7500
X2.5685Y0.2000
X2.6935Y1.7500
X2.7063Y0.2000
X3.0618Y0.2000
X3.1996Y0.2000
X3.2746Y1.7750
X3.3374Y0.2000
X3.4124Y1.7750
X3.4752Y0.2000
T6
X0.8500Y0.7375
X1.7750Y1.7750
X1.7750Y0.2000
X0.2000Y1.7750
X0.2000Y0.2000
X2.8185Y0.7375
X3.7435Y1.7750
X3.7435Y0.2000
X2.1685Y1.7750
X2.1685Y0.2000
X0.2000Y3.6409
X0.2000Y2.6409
X3.4750Y3.6409
X3.4750Y2.6409
T0
M30
