%FSLAX24Y24*%
%MOIN*%
%ADD10C,0.0040*%
%ADD11C,0.0053*%
%ADD12C,0.0069*%
%ADD13C,0.0250*%
%ADD14C,0.0374*%
%ADD15C,0.0394*%
D10*
G01X10042Y31602D02*
X10042Y31761D01*
X10062Y31800D01*
X10042Y31979D02*
X10042Y32237D01*
X10200Y32098D01*
X10062Y31800D02*
X10081Y31820D01*
X10121Y31840D01*
X10181Y31840D01*
X10220Y31820D01*
X10200Y32098D02*
X10200Y32157D01*
X10220Y32197D01*
X10220Y31820D02*
X10240Y31800D01*
X10220Y32197D02*
X10240Y32217D01*
X10240Y31800D02*
X10260Y31761D01*
X10240Y32217D02*
X10280Y32237D01*
X10260Y31761D02*
X10260Y31602D01*
X10280Y32237D02*
X10379Y32237D01*
X10419Y32217D01*
X10438Y32197D01*
X10438Y31999D02*
X10419Y31979D01*
X10438Y32197D02*
X10458Y32157D01*
X10458Y31602D02*
X10042Y31602D01*
X10458Y31840D02*
X10260Y31701D01*
X10458Y32038D02*
X10438Y31999D01*
X10458Y32157D02*
X10458Y32038D01*
X4381Y28965D02*
X4361Y28945D01*
X4381Y29303D02*
X4401Y29263D01*
X4401Y29005D02*
X4381Y28965D01*
X4401Y29263D02*
X4421Y29183D01*
X4421Y29084D02*
X4401Y29005D01*
X4421Y29183D02*
X4421Y29084D01*
X4500Y29713D02*
X4500Y30130D01*
X4500Y29971D02*
X4540Y29991D01*
X4540Y29713D02*
X4500Y29733D01*
X4540Y29991D02*
X4619Y29991D01*
X4560Y33041D02*
X4560Y33101D01*
X4580Y33180D01*
X4560Y33670D02*
X4619Y33650D01*
X4560Y33948D02*
X4560Y33987D01*
X4580Y34027D01*
X4580Y32075D02*
X4580Y32492D01*
X4738Y32492D01*
X4580Y32962D02*
X4560Y33041D01*
X4580Y33180D02*
X4600Y33220D01*
X4580Y33908D02*
X4560Y33948D01*
X4580Y34027D02*
X4600Y34047D01*
X4600Y32922D02*
X4580Y32962D01*
X4600Y33220D02*
X4639Y33259D01*
X4600Y33888D02*
X4580Y33908D01*
X4600Y34047D02*
X4639Y34067D01*
X4619Y29713D02*
X4540Y29713D01*
X4619Y29991D02*
X4659Y29971D01*
X4619Y33650D02*
X4719Y33650D01*
X4639Y32882D02*
X4600Y32922D01*
X4639Y33259D02*
X4699Y33279D01*
X4639Y33868D02*
X4600Y33888D01*
X4639Y34067D02*
X4738Y34067D01*
X4659Y29733D02*
X4619Y29713D01*
X4659Y29971D02*
X4679Y29951D01*
X4679Y29753D02*
X4659Y29733D01*
X4679Y29951D02*
X4699Y29911D01*
X4699Y29792D02*
X4679Y29753D01*
X4699Y29911D02*
X4699Y29792D01*
X4699Y32863D02*
X4639Y32882D01*
X4699Y33279D02*
X4738Y33279D01*
X4719Y33650D02*
X4758Y33670D01*
X4719Y33848D02*
X4639Y33868D01*
X4738Y32274D02*
X4580Y32274D01*
X4738Y32492D02*
X4778Y32472D01*
X4738Y32863D02*
X4699Y32863D01*
X4738Y33279D02*
X4798Y33259D01*
X4738Y34067D02*
X4798Y34047D01*
X4758Y33670D02*
X4778Y33690D01*
X4758Y33829D02*
X4719Y33848D01*
X4778Y32293D02*
X4738Y32274D01*
X4778Y32472D02*
X4798Y32452D01*
X4778Y33690D02*
X4798Y33729D01*
X4778Y33809D02*
X4758Y33829D01*
X4798Y32313D02*
X4778Y32293D01*
X4798Y32452D02*
X4818Y32412D01*
X4798Y32882D02*
X4738Y32863D01*
X4798Y33259D02*
X4818Y33240D01*
X4798Y33729D02*
X4798Y33769D01*
X4778Y33809D01*
X4818Y32075D02*
X4679Y32274D01*
X4818Y32353D02*
X4798Y32313D01*
X4818Y32412D02*
X4818Y32353D01*
X4818Y32902D02*
X4798Y32882D01*
X4858Y29772D02*
X4858Y29812D01*
X4877Y29852D01*
X4877Y29733D02*
X4858Y29772D01*
X4877Y29852D02*
X4917Y29872D01*
X4917Y29713D02*
X4877Y29733D01*
X4917Y29872D02*
X5016Y29872D01*
X4917Y29991D02*
X4877Y29971D01*
X4957Y32492D02*
X5235Y32075D01*
X4957Y33829D02*
X4957Y33888D01*
X4977Y33967D01*
X4977Y32882D02*
X5036Y32863D01*
X4977Y33160D02*
X4977Y33200D01*
X4996Y33240D01*
X4977Y33749D02*
X4957Y33829D01*
X4977Y33967D02*
X4996Y34007D01*
X4996Y29991D02*
X4917Y29991D01*
X4996Y33120D02*
X4977Y33160D01*
X4996Y33240D02*
X5016Y33259D01*
X4996Y33709D02*
X4977Y33749D01*
X4996Y34007D02*
X5036Y34047D01*
X5016Y29713D02*
X4917Y29713D01*
X5016Y29872D02*
X5056Y29891D01*
X5016Y33101D02*
X4996Y33120D01*
X5016Y33259D02*
X5056Y33279D01*
X5036Y29971D02*
X4996Y29991D01*
X5036Y32863D02*
X5135Y32863D01*
X5036Y33670D02*
X4996Y33709D01*
X5036Y34047D02*
X5096Y34067D01*
X5056Y29713D02*
X5056Y29931D01*
X5056Y29733D02*
X5016Y29713D01*
X5056Y29931D02*
X5036Y29971D01*
X5056Y33081D02*
X5016Y33101D01*
X5056Y33279D02*
X5155Y33279D01*
X5096Y33650D02*
X5036Y33670D01*
X5096Y34067D02*
X5135Y34067D01*
X5135Y32863D02*
X5175Y32882D01*
X5135Y33061D02*
X5056Y33081D01*
X5135Y33650D02*
X5096Y33650D01*
X5135Y34067D02*
X5195Y34047D01*
X5155Y33279D02*
X5215Y33259D01*
X5175Y32882D02*
X5195Y32902D01*
X5175Y33041D02*
X5135Y33061D01*
X5195Y29991D02*
X5354Y29991D01*
X5195Y32902D02*
X5215Y32942D01*
X5195Y33021D02*
X5175Y33041D01*
X5195Y33670D02*
X5135Y33650D01*
X5195Y34047D02*
X5215Y34027D01*
X5215Y32942D02*
X5215Y32982D01*
X5195Y33021D01*
X5215Y33690D02*
X5195Y33670D01*
X5235Y32492D02*
X4957Y32075D01*
X5254Y29772D02*
X5274Y29733D01*
X5254Y30130D02*
X5254Y29772D01*
X5274Y29733D02*
X5314Y29713D01*
X5354Y29713D01*
X5393Y33101D02*
X5413Y33120D01*
X5393Y33140D02*
X5393Y32863D01*
X5393Y33650D02*
X5393Y34067D01*
X5413Y33120D02*
X5453Y33140D01*
X5433Y29991D02*
X5592Y29991D01*
X5453Y33140D02*
X5512Y33140D01*
X5492Y29772D02*
X5512Y29733D01*
X5492Y30130D02*
X5492Y29772D01*
X5512Y29733D02*
X5552Y29713D01*
X5512Y33140D02*
X5552Y33120D01*
X5552Y29713D02*
X5592Y29713D01*
X5552Y33120D02*
X5572Y33081D01*
X5572Y32863D01*
X5631Y33650D02*
X5453Y33888D01*
X5631Y34067D02*
X5393Y33829D01*
X5711Y29733D02*
X5731Y29753D01*
X5731Y29713D02*
X5711Y29733D01*
X5731Y29753D02*
X5731Y29713D01*
X5731Y29753D02*
X5750Y29733D01*
X5731Y29713D01*
X2992Y28926D02*
X3131Y29342D01*
X2992Y30130D02*
X3131Y29713D01*
X3012Y28555D02*
X3270Y28555D01*
X3032Y29045D02*
X3231Y29045D01*
X3032Y30679D02*
X3052Y30600D01*
X3032Y30738D02*
X3032Y30679D01*
X3032Y32095D02*
X3092Y32075D01*
X3032Y32373D02*
X3032Y32412D01*
X3052Y32452D01*
X3032Y32882D02*
X3092Y32863D01*
X3032Y33160D02*
X3032Y33200D01*
X3052Y33240D01*
X3032Y33670D02*
X3092Y33650D01*
X3032Y33948D02*
X3032Y33987D01*
X3052Y34027D01*
X3032Y34616D02*
X3052Y34537D01*
X3032Y34675D02*
X3032Y34616D01*
X3032Y28158D02*
X3012Y28178D01*
X3052Y30600D02*
X3072Y30560D01*
X3052Y30818D02*
X3032Y30738D01*
X3052Y32333D02*
X3032Y32373D01*
X3052Y32452D02*
X3072Y32472D01*
X3052Y33120D02*
X3032Y33160D01*
X3052Y33240D02*
X3072Y33259D01*
X3052Y33908D02*
X3032Y33948D01*
X3052Y34027D02*
X3072Y34047D01*
X3052Y34537D02*
X3072Y34497D01*
X3052Y34755D02*
X3032Y34675D01*
X3072Y30560D02*
X3111Y30520D01*
X3072Y30857D02*
X3052Y30818D01*
X3072Y32313D02*
X3052Y32333D01*
X3072Y32472D02*
X3111Y32492D01*
X3072Y33101D02*
X3052Y33120D01*
X3072Y33259D02*
X3111Y33279D01*
X3072Y33888D02*
X3052Y33908D01*
X3072Y34047D02*
X3111Y34067D01*
X3072Y34497D02*
X3111Y34457D01*
X3072Y34794D02*
X3052Y34755D01*
X3072Y28138D02*
X3032Y28158D01*
X3092Y32075D02*
X3191Y32075D01*
X3092Y32863D02*
X3191Y32863D01*
X3092Y33650D02*
X3191Y33650D01*
X31059Y30500D02*
X31059Y30917D01*
X31079Y29713D02*
X31079Y30130D01*
X3111Y30520D02*
X3171Y30500D01*
X3111Y30897D02*
X3072Y30857D01*
X3111Y32293D02*
X3072Y32313D01*
X3111Y32492D02*
X3211Y32492D01*
X3111Y33081D02*
X3072Y33101D01*
X3111Y33279D02*
X3211Y33279D01*
X3111Y33868D02*
X3072Y33888D01*
X3111Y34067D02*
X3211Y34067D01*
X3111Y34457D02*
X3171Y34437D01*
X3111Y34834D02*
X3072Y34794D01*
X31218Y30500D02*
X31476Y30500D01*
X31238Y29713D02*
X31496Y29713D01*
X31238Y30877D02*
X31257Y30897D01*
X31257Y30090D02*
X31277Y30110D01*
X31257Y30897D02*
X31297Y30917D01*
X31277Y30110D02*
X31317Y30130D01*
X31297Y30917D02*
X31396Y30917D01*
X3131Y29342D02*
X3270Y28926D01*
X3131Y29713D02*
X3270Y30130D01*
X3131Y28396D02*
X3191Y28396D01*
X31317Y30130D02*
X31416Y30130D01*
X31377Y33670D02*
X31436Y33650D01*
X31377Y33948D02*
X31377Y33987D01*
X31396Y34027D01*
X31396Y30917D02*
X31436Y30897D01*
X31396Y33908D02*
X31377Y33948D01*
X31396Y34027D02*
X31416Y34047D01*
X31416Y30130D02*
X31456Y30110D01*
X31416Y32882D02*
X31476Y32863D01*
X31416Y33160D02*
X31416Y33200D01*
X31436Y33240D01*
X31416Y33888D02*
X31396Y33908D01*
X31416Y34047D02*
X31456Y34067D01*
X31436Y30897D02*
X31456Y30877D01*
X31436Y33120D02*
X31416Y33160D01*
X31436Y33240D02*
X31456Y33259D01*
X31436Y33650D02*
X31535Y33650D01*
X31456Y30110D02*
X31476Y30090D01*
X31456Y30738D02*
X31218Y30500D01*
X31456Y30877D02*
X31476Y30838D01*
X31456Y33101D02*
X31436Y33120D01*
X31456Y33259D02*
X31496Y33279D01*
X31456Y33868D02*
X31416Y33888D01*
X31456Y34067D02*
X31555Y34067D01*
X31476Y29951D02*
X31238Y29713D01*
X31476Y30090D02*
X31496Y30050D01*
X31476Y30798D02*
X31456Y30738D01*
X31476Y30838D02*
X31476Y30798D01*
X31476Y32863D02*
X31575Y32863D01*
X31496Y30011D02*
X31476Y29951D01*
X31496Y30050D02*
X31496Y30011D01*
X31496Y33081D02*
X31456Y33101D01*
X31496Y33279D02*
X31595Y33279D01*
X31535Y33650D02*
X31575Y33670D01*
X31535Y33848D02*
X31456Y33868D01*
X31555Y34067D02*
X31615Y34047D01*
X31575Y32863D02*
X31615Y32882D01*
X31575Y33061D02*
X31496Y33081D01*
X31575Y33670D02*
X31595Y33690D01*
X31575Y33829D02*
X31535Y33848D01*
X31595Y33279D02*
X31654Y33259D01*
X31595Y33690D02*
X31615Y33729D01*
X31595Y33809D02*
X31575Y33829D01*
X31615Y32882D02*
X31634Y32902D01*
X31615Y33041D02*
X31575Y33061D01*
X31615Y33729D02*
X31615Y33769D01*
X31595Y33809D01*
X31634Y30679D02*
X31634Y30738D01*
X31654Y30818D01*
X31634Y32902D02*
X31654Y32942D01*
X31634Y33021D02*
X31615Y33041D01*
X31654Y29891D02*
X31654Y29951D01*
X31674Y30030D01*
X31654Y30600D02*
X31634Y30679D01*
X31654Y30818D02*
X31674Y30857D01*
X31654Y32942D02*
X31654Y32982D01*
X31634Y33021D01*
X31674Y29812D02*
X31654Y29891D01*
X31674Y30030D02*
X31694Y30070D01*
X31674Y30560D02*
X31654Y30600D01*
X31674Y30857D02*
X31714Y30897D01*
X31694Y29772D02*
X31674Y29812D01*
X31694Y30070D02*
X31734Y30110D01*
X3171Y30500D02*
X3211Y30500D01*
X3171Y30917D02*
X3111Y30897D01*
X3171Y34437D02*
X3211Y34437D01*
X3171Y34854D02*
X3111Y34834D01*
X31714Y30520D02*
X31674Y30560D01*
X31714Y30897D02*
X31773Y30917D01*
X31734Y29733D02*
X31694Y29772D01*
X31734Y30110D02*
X31793Y30130D01*
X31773Y30500D02*
X31714Y30520D01*
X31773Y30917D02*
X31813Y30917D01*
X31793Y29713D02*
X31734Y29733D01*
X31793Y30130D02*
X31833Y30130D01*
X31793Y32095D02*
X31853Y32075D01*
X31793Y32373D02*
X31793Y32412D01*
X31813Y32452D01*
X31793Y33650D02*
X31793Y34067D01*
X31952Y34067D01*
X31813Y30500D02*
X31773Y30500D01*
X31813Y30917D02*
X31873Y30897D01*
X31813Y32333D02*
X31793Y32373D01*
X31813Y32452D02*
X31833Y32472D01*
X31833Y29713D02*
X31793Y29713D01*
X31833Y30130D02*
X31892Y30110D01*
X31833Y32313D02*
X31813Y32333D01*
X31833Y32472D02*
X31873Y32492D01*
X31833Y32863D02*
X31833Y33279D01*
X31992Y33279D01*
X31853Y32075D02*
X31952Y32075D01*
X31873Y30520D02*
X31813Y30500D01*
X31873Y30897D02*
X31892Y30877D01*
X31873Y32293D02*
X31833Y32313D01*
X31873Y32492D02*
X31972Y32492D01*
X31892Y29733D02*
X31833Y29713D01*
X31892Y30110D02*
X31912Y30090D01*
X31892Y30540D02*
X31873Y30520D01*
X3191Y32075D02*
X3231Y32095D01*
X3191Y32274D02*
X3111Y32293D01*
X3191Y32863D02*
X3231Y32882D01*
X3191Y33061D02*
X3111Y33081D01*
X3191Y33650D02*
X3231Y33670D01*
X3191Y33848D02*
X3111Y33868D01*
X3191Y28138D02*
X3072Y28138D01*
X3191Y28396D02*
X3231Y28376D01*
X31912Y29753D02*
X31892Y29733D01*
X31952Y32075D02*
X31992Y32095D01*
X31952Y32274D02*
X31873Y32293D01*
X31952Y33848D02*
X31793Y33848D01*
X31952Y34067D02*
X31992Y34047D01*
X31972Y32492D02*
X32031Y32472D01*
X31992Y32095D02*
X32011Y32115D01*
X31992Y32254D02*
X31952Y32274D01*
X31992Y33061D02*
X31833Y33061D01*
X31992Y33279D02*
X32031Y33259D01*
X31992Y33868D02*
X31952Y33848D01*
X31992Y34047D02*
X32011Y34027D01*
X32011Y32115D02*
X32031Y32154D01*
X32011Y32234D02*
X31992Y32254D01*
X32011Y33888D02*
X31992Y33868D01*
X32011Y34027D02*
X32031Y33987D01*
X32031Y32154D02*
X32031Y32194D01*
X32011Y32234D01*
X32031Y33081D02*
X31992Y33061D01*
X32031Y33259D02*
X32051Y33240D01*
X32031Y33928D02*
X32011Y33888D01*
X32031Y33987D02*
X32031Y33928D01*
X32051Y33101D02*
X32031Y33081D01*
X32051Y33240D02*
X32071Y33200D01*
X32071Y33140D02*
X32051Y33101D01*
X32071Y33200D02*
X32071Y33140D01*
X32091Y30818D02*
X32051Y30798D01*
X3211Y30500D02*
X3270Y30520D01*
X3211Y32492D02*
X3270Y32472D01*
X3211Y33279D02*
X3270Y33259D01*
X3211Y34067D02*
X3270Y34047D01*
X3211Y34437D02*
X3270Y34457D01*
X32111Y30030D02*
X32071Y30011D01*
X32131Y30857D02*
X32091Y30818D01*
X32150Y30070D02*
X32111Y30030D01*
X32170Y30500D02*
X32170Y30917D01*
X32131Y30857D01*
X32190Y29713D02*
X32190Y30130D01*
X32150Y30070D01*
X32210Y32075D02*
X32210Y32492D01*
X32369Y32492D01*
X32210Y33650D02*
X32210Y34067D01*
X32250Y32863D02*
X32250Y33279D01*
X32289Y30500D02*
X32051Y30500D01*
X3231Y30917D02*
X3171Y30917D01*
X3231Y32095D02*
X3250Y32115D01*
X3231Y32254D02*
X3191Y32274D01*
X3231Y32882D02*
X3250Y32902D01*
X3231Y33041D02*
X3191Y33061D01*
X3231Y33670D02*
X3250Y33690D01*
X3231Y33829D02*
X3191Y33848D01*
X3231Y34854D02*
X3171Y34854D01*
X3231Y28158D02*
X3191Y28138D01*
X3231Y28376D02*
X3250Y28356D01*
X32309Y29713D02*
X32071Y29713D01*
X32369Y32274D02*
X32210Y32274D01*
X32369Y32492D02*
X32408Y32472D01*
X32408Y32293D02*
X32369Y32274D01*
X32408Y32472D02*
X32428Y32452D01*
X32408Y33809D02*
X32726Y33809D01*
X32428Y32313D02*
X32408Y32293D01*
X32428Y32452D02*
X32448Y32412D01*
X32448Y32353D02*
X32428Y32313D01*
X32448Y32412D02*
X32448Y32353D01*
X32448Y33021D02*
X32765Y33021D01*
X32468Y30659D02*
X32785Y30659D01*
X32488Y29872D02*
X32805Y29872D01*
X3250Y32115D02*
X3270Y32154D01*
X3250Y32234D02*
X3231Y32254D01*
X3250Y32902D02*
X3270Y32942D01*
X3250Y33021D02*
X3231Y33041D01*
X3250Y33690D02*
X3270Y33729D01*
X3250Y33809D02*
X3231Y33829D01*
X3250Y28178D02*
X3231Y28158D01*
X3250Y28356D02*
X3270Y28317D01*
X32547Y28926D02*
X32686Y29342D01*
X32587Y29045D02*
X32785Y29045D01*
X32627Y32075D02*
X32627Y32492D01*
X32686Y29342D02*
X32825Y28926D01*
X3270Y30520D02*
X3290Y30540D01*
X3270Y30897D02*
X3231Y30917D01*
X3270Y32154D02*
X3270Y32194D01*
X3250Y32234D01*
X3270Y32942D02*
X3270Y32982D01*
X3250Y33021D01*
X3270Y33729D02*
X3270Y33769D01*
X3250Y33809D01*
X3270Y34457D02*
X3290Y34477D01*
X3270Y34834D02*
X3231Y34854D01*
X3270Y28217D02*
X3250Y28178D01*
X3270Y28317D02*
X3270Y28217D01*
X3270Y28555D02*
X3131Y28396D01*
X32825Y32234D02*
X33142Y32234D01*
X32865Y34616D02*
X32884Y34537D01*
X32865Y34675D02*
X32865Y34616D01*
X32884Y34537D02*
X32904Y34497D01*
X32884Y34755D02*
X32865Y34675D01*
X3290Y30540D02*
X3290Y30679D01*
X3211Y30679D01*
X3290Y34477D02*
X3290Y34616D01*
X3211Y34616D01*
X32904Y33670D02*
X32964Y33650D01*
X32904Y33948D02*
X32904Y33987D01*
X32924Y34027D01*
X32904Y34497D02*
X32944Y34457D01*
X32904Y34794D02*
X32884Y34755D01*
X32924Y33908D02*
X32904Y33948D01*
X32924Y34027D02*
X32944Y34047D01*
X32944Y33041D02*
X32944Y33101D01*
X32964Y33180D01*
X32944Y33888D02*
X32924Y33908D01*
X32944Y34047D02*
X32984Y34067D01*
X32944Y34457D02*
X33004Y34437D01*
X32944Y34834D02*
X32904Y34794D01*
X32964Y28926D02*
X32964Y29342D01*
X33202Y28926D01*
X32964Y30520D02*
X33023Y30500D01*
X32964Y30798D02*
X32964Y30838D01*
X32984Y30877D01*
X32964Y32962D02*
X32944Y33041D01*
X32964Y33180D02*
X32984Y33220D01*
X32964Y33650D02*
X33063Y33650D01*
X32964Y28555D02*
X33222Y28555D01*
X32984Y29733D02*
X33043Y29713D01*
X32984Y30011D02*
X32984Y30050D01*
X33004Y30090D01*
X32984Y30758D02*
X32964Y30798D01*
X32984Y30877D02*
X33004Y30897D01*
X32984Y32922D02*
X32964Y32962D01*
X32984Y33220D02*
X33023Y33259D01*
X32984Y33868D02*
X32944Y33888D01*
X32984Y34067D02*
X33083Y34067D01*
X32984Y28158D02*
X32964Y28178D01*
X33004Y29971D02*
X32984Y30011D01*
X33004Y30090D02*
X33023Y30110D01*
X33004Y30738D02*
X32984Y30758D01*
X33004Y30897D02*
X33043Y30917D01*
X33004Y34437D02*
X33043Y34437D01*
X33004Y34854D02*
X32944Y34834D01*
X33023Y29951D02*
X33004Y29971D01*
X33023Y30110D02*
X33063Y30130D01*
X33023Y30500D02*
X33123Y30500D01*
X33023Y32882D02*
X32984Y32922D01*
X33023Y33259D02*
X33083Y33279D01*
X33023Y28138D02*
X32984Y28158D01*
X33043Y29713D02*
X33142Y29713D01*
X33043Y30719D02*
X33004Y30738D01*
X33043Y30917D02*
X33142Y30917D01*
X33043Y34437D02*
X33103Y34457D01*
X33063Y29931D02*
X33023Y29951D01*
X33063Y30130D02*
X33162Y30130D01*
X33063Y33650D02*
X33103Y33670D01*
X33063Y33848D02*
X32984Y33868D01*
X33063Y34854D02*
X33004Y34854D01*
X33083Y32863D02*
X33023Y32882D01*
X33083Y33279D02*
X33123Y33279D01*
X33083Y34067D02*
X33142Y34047D01*
X33083Y28396D02*
X33142Y28396D01*
X33103Y33670D02*
X33123Y33690D01*
X33103Y33829D02*
X33063Y33848D01*
X33103Y34457D02*
X33123Y34477D01*
X33103Y34834D02*
X33063Y34854D01*
X33123Y30500D02*
X33162Y30520D01*
X33123Y30699D02*
X33043Y30719D01*
X33123Y32863D02*
X33083Y32863D01*
X33123Y33279D02*
X33182Y33259D01*
X33123Y33690D02*
X33142Y33729D01*
X33123Y33809D02*
X33103Y33829D01*
X33123Y34477D02*
X33123Y34616D01*
X33043Y34616D01*
X33142Y29713D02*
X33182Y29733D01*
X33142Y29911D02*
X33063Y29931D01*
X33142Y30917D02*
X33202Y30897D01*
X33142Y33729D02*
X33142Y33769D01*
X33123Y33809D01*
X33142Y28138D02*
X33023Y28138D01*
X33142Y28396D02*
X33182Y28376D01*
X33162Y30130D02*
X33222Y30110D01*
X33162Y30520D02*
X33182Y30540D01*
X33162Y30679D02*
X33123Y30699D01*
X33182Y29733D02*
X33202Y29753D01*
X33182Y29891D02*
X33142Y29911D01*
X33182Y30540D02*
X33202Y30580D01*
X33182Y30659D02*
X33162Y30679D01*
X33182Y32882D02*
X33123Y32863D01*
X33182Y33259D02*
X33202Y33240D01*
X33182Y28158D02*
X33142Y28138D01*
X33182Y28376D02*
X33202Y28356D01*
X33202Y28926D02*
X33202Y29342D01*
X33202Y29753D02*
X33222Y29792D01*
X33202Y29872D02*
X33182Y29891D01*
X33202Y30580D02*
X33202Y30619D01*
X33182Y30659D01*
X33202Y32902D02*
X33182Y32882D01*
X33202Y28178D02*
X33182Y28158D01*
X33202Y28356D02*
X33222Y28317D01*
X33222Y29792D02*
X33222Y29832D01*
X33202Y29872D01*
X33222Y28217D02*
X33202Y28178D01*
X33222Y28317D02*
X33222Y28217D01*
X33222Y28555D02*
X33083Y28396D01*
X33301Y33829D02*
X33301Y33888D01*
X33321Y33967D01*
X33301Y34437D02*
X33301Y34854D01*
X33539Y34437D01*
X33321Y33749D02*
X33301Y33829D01*
X33321Y33967D02*
X33341Y34007D01*
X33341Y28926D02*
X33480Y29342D01*
X33341Y32075D02*
X33341Y32492D01*
X33500Y32492D01*
X33341Y33709D02*
X33321Y33749D01*
X33341Y34007D02*
X33381Y34047D01*
X33341Y28555D02*
X33480Y28138D01*
X33361Y32882D02*
X33420Y32863D01*
X33361Y33160D02*
X33361Y33200D01*
X33381Y33240D01*
X33381Y29045D02*
X33579Y29045D01*
X33381Y29891D02*
X33381Y29951D01*
X33400Y30030D01*
X33381Y30500D02*
X33381Y30917D01*
X33480Y30917D01*
X33381Y33120D02*
X33361Y33160D01*
X33381Y33240D02*
X33400Y33259D01*
X33381Y33670D02*
X33341Y33709D01*
X33381Y34047D02*
X33440Y34067D01*
X33400Y29812D02*
X33381Y29891D01*
X33400Y30030D02*
X33420Y30070D01*
X33400Y33101D02*
X33381Y33120D01*
X33400Y33259D02*
X33440Y33279D01*
X33420Y29772D02*
X33400Y29812D01*
X33420Y30070D02*
X33460Y30110D01*
X33420Y32863D02*
X33519Y32863D01*
X33440Y33081D02*
X33400Y33101D01*
X33440Y33279D02*
X33539Y33279D01*
X33440Y33650D02*
X33381Y33670D01*
X33440Y34067D02*
X33480Y34067D01*
X33460Y29733D02*
X33420Y29772D01*
X33460Y30110D02*
X33519Y30130D01*
X33480Y29342D02*
X33619Y28926D01*
X33480Y30500D02*
X33381Y30500D01*
X33480Y30917D02*
X33539Y30897D01*
X33480Y33650D02*
X33440Y33650D01*
X33480Y34067D02*
X33539Y34047D01*
X33480Y28138D02*
X33619Y28555D01*
X33500Y32274D02*
X33341Y32274D01*
X33500Y32492D02*
X33539Y32472D01*
X33519Y29713D02*
X33460Y29733D01*
X33519Y30130D02*
X33559Y30130D01*
X33519Y32863D02*
X33559Y32882D01*
X33519Y33061D02*
X33440Y33081D01*
X33539Y30520D02*
X33480Y30500D01*
X33539Y30897D02*
X33579Y30857D01*
X33539Y32293D02*
X33500Y32274D01*
X33539Y32472D02*
X33559Y32452D01*
X33539Y33279D02*
X33599Y33259D01*
X33539Y33670D02*
X33480Y33650D01*
X33539Y34047D02*
X33559Y34027D01*
X33539Y34437D02*
X33539Y34854D01*
X33559Y29713D02*
X33519Y29713D01*
X33559Y30130D02*
X33619Y30110D01*
X33559Y32313D02*
X33539Y32293D01*
X33559Y32452D02*
X33579Y32412D01*
X33559Y32882D02*
X33579Y32902D01*
X33559Y33041D02*
X33519Y33061D01*
X33559Y33690D02*
X33539Y33670D01*
X33579Y30560D02*
X33539Y30520D01*
X33579Y30857D02*
X33599Y30818D01*
X33579Y32075D02*
X33440Y32274D01*
X33579Y32353D02*
X33559Y32313D01*
X33579Y32412D02*
X33579Y32353D01*
X33579Y32902D02*
X33599Y32942D01*
X33579Y33021D02*
X33559Y33041D01*
X33599Y30600D02*
X33579Y30560D01*
X33599Y30818D02*
X33619Y30738D01*
X33599Y32942D02*
X33599Y32982D01*
X33579Y33021D01*
X33619Y29733D02*
X33559Y29713D01*
X33619Y30110D02*
X33638Y30090D01*
X33619Y30679D02*
X33599Y30600D01*
X33619Y30738D02*
X33619Y30679D01*
X33638Y29753D02*
X33619Y29733D01*
X33718Y32492D02*
X33996Y32075D01*
X33718Y28555D02*
X33976Y28555D01*
X33738Y30500D02*
X33877Y30917D01*
X33738Y33650D02*
X33738Y34067D01*
X33738Y34437D02*
X33738Y34854D01*
X33837Y34854D01*
X33738Y28158D02*
X33718Y28178D01*
X33777Y29243D02*
X33738Y29223D01*
X33777Y30619D02*
X33976Y30619D01*
X33777Y33101D02*
X33797Y33120D01*
X33777Y33140D02*
X33777Y32863D01*
X33777Y28138D02*
X33738Y28158D01*
X33797Y33120D02*
X33837Y33140D01*
X33817Y29283D02*
X33777Y29243D01*
X33817Y29713D02*
X33817Y30130D01*
X33837Y33140D02*
X33896Y33140D01*
X33837Y34437D02*
X33738Y34437D01*
X33837Y34854D02*
X33896Y34834D01*
X33837Y28396D02*
X33896Y28396D01*
X33857Y28926D02*
X33857Y29342D01*
X33817Y29283D01*
X33877Y30917D02*
X34015Y30500D01*
X3389Y30110D02*
X3409Y30090D01*
X3389Y28555D02*
X3528Y28138D01*
X33896Y33140D02*
X33936Y33120D01*
X33896Y34457D02*
X33837Y34437D01*
X33896Y34834D02*
X33936Y34794D01*
X33896Y28138D02*
X33777Y28138D01*
X33896Y28396D02*
X33936Y28376D01*
X33936Y33120D02*
X33956Y33081D01*
X33936Y34497D02*
X33896Y34457D01*
X33936Y34794D02*
X33956Y34755D01*
X33936Y28158D02*
X33896Y28138D01*
X33936Y28376D02*
X33956Y28356D01*
X33956Y33081D02*
X33956Y32863D01*
X33956Y34537D02*
X33936Y34497D01*
X33956Y34755D02*
X33976Y34675D01*
X33956Y28178D02*
X33936Y28158D01*
X33956Y28356D02*
X33976Y28317D01*
X33976Y28926D02*
X33738Y28926D01*
X33976Y33650D02*
X33797Y33888D01*
X33976Y34067D02*
X33738Y33829D01*
X33976Y34616D02*
X33956Y34537D01*
X33976Y34675D02*
X33976Y34616D01*
X33976Y28217D02*
X33956Y28178D01*
X33976Y28317D02*
X33976Y28217D01*
X33976Y28555D02*
X33837Y28396D01*
X33996Y32492D02*
X33718Y32075D01*
X34015Y29713D02*
X33817Y29713D01*
X3409Y28926D02*
X3409Y29342D01*
X3647Y28926D01*
X3409Y29713D02*
X3409Y29991D01*
X3409Y30090D02*
X3429Y30110D01*
X3409Y30130D02*
X3389Y30110D01*
X3409Y30130D02*
X3409Y30090D01*
X3429Y30110D02*
X3409Y30130D01*
X3449Y32075D02*
X3449Y32492D01*
X3608Y32492D01*
X3449Y32863D02*
X3449Y33279D01*
X3608Y33279D01*
X3449Y33650D02*
X3449Y34067D01*
X3608Y34067D01*
X3469Y30500D02*
X3469Y30917D01*
X3707Y30500D01*
X3469Y34437D02*
X3469Y34854D01*
X3707Y34437D01*
X3528Y28138D02*
X3667Y28555D01*
X3608Y29951D02*
X3627Y29971D01*
X3608Y29991D02*
X3608Y29713D01*
X3608Y32274D02*
X3449Y32274D01*
X3608Y32492D02*
X3647Y32472D01*
X3608Y33061D02*
X3449Y33061D01*
X3608Y33279D02*
X3647Y33259D01*
X3608Y33848D02*
X3449Y33848D01*
X3608Y34067D02*
X3647Y34047D01*
X3627Y29971D02*
X3667Y29991D01*
X3647Y28926D02*
X3647Y29342D01*
X3647Y32293D02*
X3608Y32274D01*
X3647Y32472D02*
X3667Y32452D01*
X3647Y33081D02*
X3608Y33061D01*
X3647Y33259D02*
X3667Y33240D01*
X3647Y33868D02*
X3608Y33848D01*
X3647Y34047D02*
X3667Y34027D01*
X3667Y29991D02*
X3727Y29991D01*
X3667Y32313D02*
X3647Y32293D01*
X3667Y32452D02*
X3687Y32412D01*
X3667Y33101D02*
X3647Y33081D01*
X3667Y33240D02*
X3687Y33200D01*
X3667Y33888D02*
X3647Y33868D01*
X3667Y34027D02*
X3687Y33987D01*
X3687Y32353D02*
X3667Y32313D01*
X3687Y32412D02*
X3687Y32353D01*
X3687Y33140D02*
X3667Y33101D01*
X3687Y33200D02*
X3687Y33140D01*
X3687Y33928D02*
X3667Y33888D01*
X3687Y33987D02*
X3687Y33928D01*
X3707Y30500D02*
X3707Y30917D01*
X3707Y34437D02*
X3707Y34854D01*
X3727Y29991D02*
X3766Y29971D01*
X3786Y29931D01*
X3766Y28555D02*
X4024Y28555D01*
X3786Y28926D02*
X3925Y29342D01*
X3786Y29931D02*
X3786Y29713D01*
X3786Y28158D02*
X3766Y28178D01*
X3826Y29045D02*
X4024Y29045D01*
X3826Y28138D02*
X3786Y28158D01*
X3865Y32075D02*
X3865Y32492D01*
X3865Y32863D02*
X3865Y33279D01*
X3865Y33650D02*
X3865Y34067D01*
X3885Y28396D02*
X3945Y28396D01*
X3905Y30500D02*
X3905Y30917D01*
X4004Y30917D01*
X3905Y34437D02*
X3905Y34854D01*
X4004Y34854D01*
X3925Y29342D02*
X4064Y28926D01*
X3945Y28138D02*
X3826Y28138D01*
X3945Y28396D02*
X3985Y28376D01*
X3985Y29872D02*
X4302Y29872D01*
X3985Y28158D02*
X3945Y28138D01*
X3985Y28376D02*
X4004Y28356D01*
X4004Y30500D02*
X3905Y30500D01*
X4004Y30917D02*
X4064Y30897D01*
X4004Y34437D02*
X3905Y34437D01*
X4004Y34854D02*
X4064Y34834D01*
X4004Y28178D02*
X3985Y28158D01*
X4004Y28356D02*
X4024Y28317D01*
X4024Y28217D02*
X4004Y28178D01*
X4024Y28317D02*
X4024Y28217D01*
X4024Y28555D02*
X3885Y28396D01*
X4064Y30520D02*
X4004Y30500D01*
X4064Y30897D02*
X4104Y30857D01*
X4064Y32234D02*
X4381Y32234D01*
X4064Y33021D02*
X4381Y33021D01*
X4064Y33809D02*
X4381Y33809D01*
X4064Y34457D02*
X4004Y34437D01*
X4064Y34834D02*
X4104Y34794D01*
X4104Y30560D02*
X4064Y30520D01*
X4104Y30857D02*
X4123Y30818D01*
X4104Y34497D02*
X4064Y34457D01*
X4104Y34794D02*
X4123Y34755D01*
X4123Y30600D02*
X4104Y30560D01*
X4123Y30818D02*
X4143Y30738D01*
X4123Y34537D02*
X4104Y34497D01*
X4123Y34755D02*
X4143Y34675D01*
X4143Y30679D02*
X4123Y30600D01*
X4143Y30738D02*
X4143Y30679D01*
X4143Y34616D02*
X4123Y34537D01*
X4143Y34675D02*
X4143Y34616D01*
X4183Y29084D02*
X4183Y29183D01*
X4203Y29263D01*
X4203Y29005D02*
X4183Y29084D01*
X4203Y29263D02*
X4223Y29303D01*
X4223Y28965D02*
X4203Y29005D01*
X4223Y29303D02*
X4242Y29322D01*
X4242Y28945D02*
X4223Y28965D01*
X4242Y29322D02*
X4282Y29342D01*
X4282Y28926D02*
X4242Y28945D01*
X4282Y29342D02*
X4322Y29342D01*
X4322Y28926D02*
X4282Y28926D01*
X4322Y29342D02*
X4361Y29322D01*
X4361Y28945D02*
X4322Y28926D01*
X4361Y29322D02*
X4381Y29303D01*
D11*
G01X4437Y15222D02*
X4119Y15222D01*
X12313Y13210D02*
X12313Y13290D01*
X12340Y13395D01*
X12340Y13104D02*
X12313Y13210D01*
X12340Y13395D02*
X12366Y13448D01*
X12366Y13052D02*
X12340Y13104D01*
X12366Y13448D02*
X12419Y13501D01*
X12419Y12999D02*
X12366Y13052D01*
X12419Y13501D02*
X12499Y13528D01*
X12458Y10972D02*
X12458Y11528D01*
X12499Y12972D02*
X12419Y12999D01*
X12499Y13528D02*
X12552Y13528D01*
X12552Y12972D02*
X12499Y12972D01*
X12552Y13528D02*
X12631Y13501D01*
X12631Y12999D02*
X12552Y12972D01*
X12631Y13501D02*
X12657Y13475D01*
X12657Y13025D02*
X12631Y12999D01*
X12696Y11210D02*
X12696Y11290D01*
X12722Y11395D01*
X12722Y11104D02*
X12696Y11210D01*
X12722Y11395D02*
X12749Y11448D01*
X12749Y11052D02*
X12722Y11104D01*
X12749Y11448D02*
X12802Y11501D01*
X12802Y10999D02*
X12749Y11052D01*
X12802Y11501D02*
X12881Y11528D01*
X12843Y13528D02*
X13187Y13528D01*
X12869Y12999D02*
X12843Y13025D01*
X12881Y10972D02*
X12802Y10999D01*
X12881Y11528D02*
X12934Y11528D01*
X12922Y12972D02*
X12869Y12999D01*
X12934Y10972D02*
X12881Y10972D01*
X12934Y11528D02*
X13013Y11501D01*
X13001Y13316D02*
X13081Y13316D01*
X13013Y10999D02*
X12934Y10972D01*
X13013Y11501D02*
X13040Y11475D01*
X13040Y11025D02*
X13013Y10999D01*
X13081Y12972D02*
X12922Y12972D01*
X13081Y13316D02*
X13134Y13290D01*
X13134Y12999D02*
X13081Y12972D01*
X13134Y13290D02*
X13160Y13263D01*
X13160Y13025D02*
X13134Y12999D01*
X13160Y13263D02*
X13187Y13210D01*
X13187Y13078D02*
X13160Y13025D01*
X13187Y13210D02*
X13187Y13078D01*
X13187Y13528D02*
X13001Y13316D01*
X13304Y11395D02*
X13251Y11369D01*
X13357Y11448D02*
X13304Y11395D01*
X13410Y10972D02*
X13410Y11528D01*
X13357Y11448D01*
X13569Y10972D02*
X13251Y10972D01*
X15958Y9722D02*
X15958Y10278D01*
X16050Y14722D02*
X16421Y14722D01*
X16050Y15278D02*
X16421Y15278D01*
X16090Y5722D02*
X16090Y6278D01*
X16302Y6278D01*
X16090Y6722D02*
X16090Y7278D01*
X16302Y7278D01*
X16090Y12722D02*
X16090Y13278D01*
X16302Y13278D01*
X16090Y13722D02*
X16090Y14278D01*
X16302Y14278D01*
X16090Y15709D02*
X16090Y16265D01*
X16302Y16265D01*
X16196Y9960D02*
X16196Y10040D01*
X16222Y10145D01*
X16222Y9854D02*
X16196Y9960D01*
X16222Y10145D02*
X16249Y10198D01*
X16249Y9802D02*
X16222Y9854D01*
X16249Y10198D02*
X16302Y10251D01*
X16302Y5987D02*
X16090Y5987D01*
X16302Y6278D02*
X16354Y6251D01*
X16302Y6987D02*
X16090Y6987D01*
X16302Y7278D02*
X16354Y7251D01*
X16302Y9749D02*
X16249Y9802D01*
X16302Y10251D02*
X16381Y10278D01*
X16302Y12987D02*
X16090Y12987D01*
X16302Y13278D02*
X16354Y13251D01*
X16302Y13987D02*
X16090Y13987D01*
X16302Y14278D02*
X16354Y14251D01*
X16302Y15974D02*
X16090Y15974D01*
X16302Y16265D02*
X16354Y16238D01*
X16354Y6013D02*
X16302Y5987D01*
X16354Y6251D02*
X16381Y6225D01*
X16354Y7013D02*
X16302Y6987D01*
X16354Y7251D02*
X16381Y7225D01*
X16354Y13013D02*
X16302Y12987D01*
X16354Y13251D02*
X16381Y13225D01*
X16354Y14013D02*
X16302Y13987D01*
X16354Y14251D02*
X16381Y14225D01*
X16354Y16000D02*
X16302Y15974D01*
X16354Y16238D02*
X16381Y16212D01*
X16381Y6040D02*
X16354Y6013D01*
X16381Y6225D02*
X16407Y6172D01*
X16381Y7040D02*
X16354Y7013D01*
X16381Y7225D02*
X16407Y7172D01*
X16381Y9722D02*
X16302Y9749D01*
X16381Y10278D02*
X16434Y10278D01*
X16381Y13040D02*
X16354Y13013D01*
X16381Y13225D02*
X16407Y13172D01*
X16381Y14040D02*
X16354Y14013D01*
X16381Y14225D02*
X16407Y14172D01*
X16381Y16026D02*
X16354Y16000D01*
X16381Y16212D02*
X16407Y16159D01*
X16407Y5722D02*
X16222Y5987D01*
X16407Y6093D02*
X16381Y6040D01*
X16407Y6172D02*
X16407Y6093D01*
X16407Y6722D02*
X16222Y6987D01*
X16407Y7093D02*
X16381Y7040D01*
X16407Y7172D02*
X16407Y7093D01*
X16407Y12722D02*
X16222Y12987D01*
X16407Y13093D02*
X16381Y13040D01*
X16407Y13172D02*
X16407Y13093D01*
X16407Y13722D02*
X16222Y13987D01*
X16407Y14093D02*
X16381Y14040D01*
X16407Y14172D02*
X16407Y14093D01*
X16407Y15709D02*
X16222Y15974D01*
X16407Y16079D02*
X16381Y16026D01*
X16407Y16159D02*
X16407Y16079D01*
X16421Y15278D02*
X16050Y14722D01*
X16434Y9722D02*
X16381Y9722D01*
X16434Y10278D02*
X16513Y10251D01*
X16513Y9749D02*
X16434Y9722D01*
X16513Y10251D02*
X16540Y10225D01*
X16540Y9775D02*
X16513Y9749D01*
X16593Y13278D02*
X16937Y13278D01*
X16593Y13722D02*
X16937Y13722D01*
X16619Y5828D02*
X16645Y5775D01*
X16619Y6040D02*
X16619Y5828D01*
X16619Y7013D02*
X16645Y7040D01*
X16619Y12749D02*
X16593Y12775D01*
X16619Y14225D02*
X16645Y14251D01*
X16619Y15894D02*
X16963Y15894D01*
X16645Y5775D02*
X16672Y5749D01*
X16645Y6013D02*
X16619Y5960D01*
X16645Y6145D02*
X16619Y6040D01*
X16645Y6749D02*
X16619Y6775D01*
X16645Y7040D02*
X16698Y7066D01*
X16645Y7278D02*
X16619Y7013D01*
X16645Y14251D02*
X16698Y14278D01*
X16659Y15145D02*
X16606Y15119D01*
X16672Y5749D02*
X16725Y5722D01*
X16672Y6040D02*
X16645Y6013D01*
X16672Y12722D02*
X16619Y12749D01*
X16698Y6225D02*
X16645Y6145D01*
X16698Y6722D02*
X16645Y6749D01*
X16698Y7066D02*
X16831Y7066D01*
X16698Y14278D02*
X16831Y14278D01*
X16712Y15198D02*
X16659Y15145D01*
X16725Y5722D02*
X16831Y5722D01*
X16725Y6066D02*
X16672Y6040D01*
X16725Y6251D02*
X16698Y6225D01*
X16725Y9722D02*
X17069Y9722D01*
X16751Y10225D02*
X16778Y10251D01*
X16751Y13066D02*
X16831Y13066D01*
X16751Y16291D02*
X16619Y15894D01*
X16765Y14722D02*
X16765Y15278D01*
X16712Y15198D01*
X16778Y6278D02*
X16725Y6251D01*
X16778Y10251D02*
X16831Y10278D01*
X16831Y5722D02*
X16884Y5749D01*
X16831Y6066D02*
X16725Y6066D01*
X16831Y6722D02*
X16698Y6722D01*
X16831Y7066D02*
X16884Y7040D01*
X16831Y10278D02*
X16963Y10278D01*
X16831Y12722D02*
X16672Y12722D01*
X16831Y13066D02*
X16884Y13040D01*
X16831Y14278D02*
X16884Y14251D01*
X16884Y5749D02*
X16910Y5775D01*
X16884Y6040D02*
X16831Y6066D01*
X16884Y6278D02*
X16778Y6278D01*
X16884Y6749D02*
X16831Y6722D01*
X16884Y7040D02*
X16910Y7013D01*
X16884Y12749D02*
X16831Y12722D01*
X16884Y13040D02*
X16910Y13013D01*
X16884Y14251D02*
X16910Y14225D01*
X16884Y16079D02*
X16884Y15709D01*
X16910Y5775D02*
X16937Y5828D01*
X16910Y6013D02*
X16884Y6040D01*
X16910Y6775D02*
X16884Y6749D01*
X16910Y7013D02*
X16937Y6960D01*
X16910Y7278D02*
X16645Y7278D01*
X16910Y12775D02*
X16884Y12749D01*
X16910Y13013D02*
X16937Y12960D01*
X16910Y14040D02*
X16593Y13722D01*
X16910Y14225D02*
X16937Y14172D01*
X16923Y14722D02*
X16606Y14722D01*
X16937Y5828D02*
X16937Y5960D01*
X16910Y6013D01*
X16937Y6828D02*
X16910Y6775D01*
X16937Y6960D02*
X16937Y6828D01*
X16937Y12828D02*
X16910Y12775D01*
X16937Y12960D02*
X16937Y12828D01*
X16937Y13278D02*
X16751Y13066D01*
X16937Y14119D02*
X16910Y14040D01*
X16937Y14172D02*
X16937Y14119D01*
X16963Y10278D02*
X17016Y10251D01*
X17042Y10225D01*
X17042Y10040D02*
X16725Y9722D01*
X17042Y10225D02*
X17069Y10172D01*
X17069Y10119D02*
X17042Y10040D01*
X17069Y10172D02*
X17069Y10119D01*
X2313Y13460D02*
X2313Y13540D01*
X2340Y13645D01*
X2340Y13354D02*
X2313Y13460D01*
X2340Y13645D02*
X2366Y13698D01*
X2366Y13302D02*
X2340Y13354D01*
X2366Y13698D02*
X2419Y13751D01*
X2419Y13249D02*
X2366Y13302D01*
X2419Y13751D02*
X2499Y13778D01*
X2499Y13222D02*
X2419Y13249D01*
X2499Y13778D02*
X2552Y13778D01*
X2552Y13222D02*
X2499Y13222D01*
X2552Y13778D02*
X2631Y13751D01*
X2563Y9460D02*
X2563Y9540D01*
X2590Y9645D01*
X2590Y9354D02*
X2563Y9460D01*
X2590Y9645D02*
X2616Y9698D01*
X2616Y9302D02*
X2590Y9354D01*
X2616Y9698D02*
X2669Y9751D01*
X2631Y13249D02*
X2552Y13222D01*
X2631Y13751D02*
X2657Y13725D01*
X2657Y13275D02*
X2631Y13249D01*
X2669Y9249D02*
X2616Y9302D01*
X2669Y9751D02*
X2749Y9778D01*
X2749Y9222D02*
X2669Y9249D01*
X2749Y9778D02*
X2802Y9778D01*
X2802Y9222D02*
X2749Y9222D01*
X2802Y9778D02*
X2881Y9751D01*
X2881Y9249D02*
X2802Y9222D01*
X2881Y9751D02*
X2907Y9725D01*
X2907Y9275D02*
X2881Y9249D01*
X2922Y13645D02*
X2869Y13619D01*
X2975Y13698D02*
X2922Y13645D01*
X3028Y13222D02*
X3028Y13778D01*
X2975Y13698D01*
X3093Y9222D02*
X3437Y9222D01*
X3119Y9725D02*
X3145Y9751D01*
X3198Y9778D01*
X3187Y13222D02*
X2869Y13222D01*
X3198Y9778D02*
X3331Y9778D01*
X3384Y9751D01*
X3410Y9725D01*
X3410Y9540D02*
X3093Y9222D01*
X3410Y9725D02*
X3437Y9672D01*
X3437Y9619D02*
X3410Y9540D01*
X3437Y9672D02*
X3437Y9619D01*
X3590Y15222D02*
X3590Y15778D01*
X3802Y15778D01*
X3802Y15487D02*
X3590Y15487D01*
X3802Y15778D02*
X3854Y15751D01*
X3854Y15513D02*
X3802Y15487D01*
X3854Y15751D02*
X3881Y15725D01*
X3881Y15540D02*
X3854Y15513D01*
X3881Y15725D02*
X3907Y15672D01*
X3907Y15222D02*
X3722Y15487D01*
X3907Y15593D02*
X3881Y15540D01*
X3907Y15672D02*
X3907Y15593D01*
X4172Y15645D02*
X4119Y15619D01*
X4225Y15698D02*
X4172Y15645D01*
X4278Y15222D02*
X4278Y15778D01*
X4225Y15698D01*
X24122Y15222D02*
X23804Y15222D01*
X31999Y13210D02*
X31999Y13290D01*
X32025Y13395D01*
X32025Y13104D02*
X31999Y13210D01*
X32025Y13395D02*
X32051Y13448D01*
X32051Y13052D02*
X32025Y13104D01*
X32051Y13448D02*
X32104Y13501D01*
X32104Y12999D02*
X32051Y13052D01*
X32104Y13501D02*
X32184Y13528D01*
X32143Y10972D02*
X32143Y11528D01*
X32184Y12972D02*
X32104Y12999D01*
X32184Y13528D02*
X32237Y13528D01*
X32237Y12972D02*
X32184Y12972D01*
X32237Y13528D02*
X32316Y13501D01*
X32316Y12999D02*
X32237Y12972D01*
X32316Y13501D02*
X32342Y13475D01*
X32342Y13025D02*
X32316Y12999D01*
X32381Y11210D02*
X32381Y11290D01*
X32407Y11395D01*
X32407Y11104D02*
X32381Y11210D01*
X32407Y11395D02*
X32434Y11448D01*
X32434Y11052D02*
X32407Y11104D01*
X32434Y11448D02*
X32487Y11501D01*
X32487Y10999D02*
X32434Y11052D01*
X32487Y11501D02*
X32566Y11528D01*
X32528Y13528D02*
X32872Y13528D01*
X32554Y12999D02*
X32528Y13025D01*
X32566Y10972D02*
X32487Y10999D01*
X32566Y11528D02*
X32619Y11528D01*
X32607Y12972D02*
X32554Y12999D01*
X32619Y10972D02*
X32566Y10972D01*
X32619Y11528D02*
X32698Y11501D01*
X32686Y13316D02*
X32766Y13316D01*
X32698Y10999D02*
X32619Y10972D01*
X32698Y11501D02*
X32725Y11475D01*
X32725Y11025D02*
X32698Y10999D01*
X32766Y12972D02*
X32607Y12972D01*
X32766Y13316D02*
X32819Y13290D01*
X32819Y12999D02*
X32766Y12972D01*
X32819Y13290D02*
X32845Y13263D01*
X32845Y13025D02*
X32819Y12999D01*
X32845Y13263D02*
X32872Y13210D01*
X32872Y13078D02*
X32845Y13025D01*
X32872Y13210D02*
X32872Y13078D01*
X32872Y13528D02*
X32686Y13316D01*
X32989Y11395D02*
X32936Y11369D01*
X33042Y11448D02*
X32989Y11395D01*
X33095Y10972D02*
X33095Y11528D01*
X33042Y11448D01*
X33254Y10972D02*
X32936Y10972D01*
X35643Y9722D02*
X35643Y10278D01*
X35735Y14722D02*
X36106Y14722D01*
X35735Y15278D02*
X36106Y15278D01*
X35775Y5722D02*
X35775Y6278D01*
X35987Y6278D01*
X35775Y6722D02*
X35775Y7278D01*
X35987Y7278D01*
X35775Y12722D02*
X35775Y13278D01*
X35987Y13278D01*
X35775Y13722D02*
X35775Y14278D01*
X35987Y14278D01*
X35775Y15709D02*
X35775Y16265D01*
X35987Y16265D01*
X35881Y9960D02*
X35881Y10040D01*
X35907Y10145D01*
X35907Y9854D02*
X35881Y9960D01*
X35907Y10145D02*
X35934Y10198D01*
X35934Y9802D02*
X35907Y9854D01*
X35934Y10198D02*
X35987Y10251D01*
X35987Y5987D02*
X35775Y5987D01*
X35987Y6278D02*
X36040Y6251D01*
X35987Y6987D02*
X35775Y6987D01*
X35987Y7278D02*
X36040Y7251D01*
X35987Y9749D02*
X35934Y9802D01*
X35987Y10251D02*
X36066Y10278D01*
X35987Y12987D02*
X35775Y12987D01*
X35987Y13278D02*
X36040Y13251D01*
X35987Y13987D02*
X35775Y13987D01*
X35987Y14278D02*
X36040Y14251D01*
X35987Y15974D02*
X35775Y15974D01*
X35987Y16265D02*
X36040Y16238D01*
X36040Y6013D02*
X35987Y5987D01*
X36040Y6251D02*
X36066Y6225D01*
X36040Y7013D02*
X35987Y6987D01*
X36040Y7251D02*
X36066Y7225D01*
X36040Y13013D02*
X35987Y12987D01*
X36040Y13251D02*
X36066Y13225D01*
X36040Y14013D02*
X35987Y13987D01*
X36040Y14251D02*
X36066Y14225D01*
X36040Y16000D02*
X35987Y15974D01*
X36040Y16238D02*
X36066Y16212D01*
X36066Y6040D02*
X36040Y6013D01*
X36066Y6225D02*
X36092Y6172D01*
X36066Y7040D02*
X36040Y7013D01*
X36066Y7225D02*
X36092Y7172D01*
X36066Y9722D02*
X35987Y9749D01*
X36066Y10278D02*
X36119Y10278D01*
X36066Y13040D02*
X36040Y13013D01*
X36066Y13225D02*
X36092Y13172D01*
X36066Y14040D02*
X36040Y14013D01*
X36066Y14225D02*
X36092Y14172D01*
X36066Y16026D02*
X36040Y16000D01*
X36066Y16212D02*
X36092Y16159D01*
X36092Y5722D02*
X35907Y5987D01*
X36092Y6093D02*
X36066Y6040D01*
X36092Y6172D02*
X36092Y6093D01*
X36092Y6722D02*
X35907Y6987D01*
X36092Y7093D02*
X36066Y7040D01*
X36092Y7172D02*
X36092Y7093D01*
X36092Y12722D02*
X35907Y12987D01*
X36092Y13093D02*
X36066Y13040D01*
X36092Y13172D02*
X36092Y13093D01*
X36092Y13722D02*
X35907Y13987D01*
X36092Y14093D02*
X36066Y14040D01*
X36092Y14172D02*
X36092Y14093D01*
X36092Y15709D02*
X35907Y15974D01*
X36092Y16079D02*
X36066Y16026D01*
X36092Y16159D02*
X36092Y16079D01*
X36106Y15278D02*
X35735Y14722D01*
X36119Y9722D02*
X36066Y9722D01*
X36119Y10278D02*
X36198Y10251D01*
X36198Y9749D02*
X36119Y9722D01*
X36198Y10251D02*
X36225Y10225D01*
X36225Y9775D02*
X36198Y9749D01*
X36278Y13278D02*
X36622Y13278D01*
X36278Y13722D02*
X36622Y13722D01*
X36304Y5828D02*
X36331Y5775D01*
X36304Y6040D02*
X36304Y5828D01*
X36304Y7013D02*
X36331Y7040D01*
X36304Y12749D02*
X36278Y12775D01*
X36304Y14225D02*
X36331Y14251D01*
X36304Y15894D02*
X36648Y15894D01*
X36331Y5775D02*
X36357Y5749D01*
X36331Y6013D02*
X36304Y5960D01*
X36331Y6145D02*
X36304Y6040D01*
X36331Y6749D02*
X36304Y6775D01*
X36331Y7040D02*
X36383Y7066D01*
X36331Y7278D02*
X36304Y7013D01*
X36331Y14251D02*
X36383Y14278D01*
X36344Y15145D02*
X36291Y15119D01*
X36357Y5749D02*
X36410Y5722D01*
X36357Y6040D02*
X36331Y6013D01*
X36357Y12722D02*
X36304Y12749D01*
X36383Y6225D02*
X36331Y6145D01*
X36383Y6722D02*
X36331Y6749D01*
X36383Y7066D02*
X36516Y7066D01*
X36383Y14278D02*
X36516Y14278D01*
X36397Y15198D02*
X36344Y15145D01*
X36410Y5722D02*
X36516Y5722D01*
X36410Y6066D02*
X36357Y6040D01*
X36410Y6251D02*
X36383Y6225D01*
X36410Y9722D02*
X36754Y9722D01*
X36436Y10225D02*
X36463Y10251D01*
X36436Y13066D02*
X36516Y13066D01*
X36436Y16291D02*
X36304Y15894D01*
X36450Y14722D02*
X36450Y15278D01*
X36397Y15198D01*
X36463Y6278D02*
X36410Y6251D01*
X36463Y10251D02*
X36516Y10278D01*
X36516Y5722D02*
X36569Y5749D01*
X36516Y6066D02*
X36410Y6066D01*
X36516Y6722D02*
X36383Y6722D01*
X36516Y7066D02*
X36569Y7040D01*
X36516Y10278D02*
X36648Y10278D01*
X36516Y12722D02*
X36357Y12722D01*
X36516Y13066D02*
X36569Y13040D01*
X36516Y14278D02*
X36569Y14251D01*
X36569Y5749D02*
X36595Y5775D01*
X36569Y6040D02*
X36516Y6066D01*
X36569Y6278D02*
X36463Y6278D01*
X36569Y6749D02*
X36516Y6722D01*
X36569Y7040D02*
X36595Y7013D01*
X36569Y12749D02*
X36516Y12722D01*
X36569Y13040D02*
X36595Y13013D01*
X36569Y14251D02*
X36595Y14225D01*
X36569Y16079D02*
X36569Y15709D01*
X36595Y5775D02*
X36622Y5828D01*
X36595Y6013D02*
X36569Y6040D01*
X36595Y6775D02*
X36569Y6749D01*
X36595Y7013D02*
X36622Y6960D01*
X36595Y7278D02*
X36331Y7278D01*
X36595Y12775D02*
X36569Y12749D01*
X36595Y13013D02*
X36622Y12960D01*
X36595Y14040D02*
X36278Y13722D01*
X36595Y14225D02*
X36622Y14172D01*
X36608Y14722D02*
X36291Y14722D01*
X36622Y5828D02*
X36622Y5960D01*
X36595Y6013D01*
X36622Y6828D02*
X36595Y6775D01*
X36622Y6960D02*
X36622Y6828D01*
X36622Y12828D02*
X36595Y12775D01*
X36622Y12960D02*
X36622Y12828D01*
X36622Y13278D02*
X36436Y13066D01*
X36622Y14119D02*
X36595Y14040D01*
X36622Y14172D02*
X36622Y14119D01*
X36648Y10278D02*
X36701Y10251D01*
X36727Y10225D01*
X36727Y10040D02*
X36410Y9722D01*
X36727Y10225D02*
X36754Y10172D01*
X36754Y10119D02*
X36727Y10040D01*
X36754Y10172D02*
X36754Y10119D01*
X21999Y13460D02*
X21999Y13540D01*
X22025Y13645D01*
X22025Y13354D02*
X21999Y13460D01*
X22025Y13645D02*
X22051Y13698D01*
X22051Y13302D02*
X22025Y13354D01*
X22051Y13698D02*
X22104Y13751D01*
X22104Y13249D02*
X22051Y13302D01*
X22104Y13751D02*
X22184Y13778D01*
X22184Y13222D02*
X22104Y13249D01*
X22184Y13778D02*
X22237Y13778D01*
X22237Y13222D02*
X22184Y13222D01*
X22237Y13778D02*
X22316Y13751D01*
X22249Y9460D02*
X22249Y9540D01*
X22275Y9645D01*
X22275Y9354D02*
X22249Y9460D01*
X22275Y9645D02*
X22301Y9698D01*
X22301Y9302D02*
X22275Y9354D01*
X22301Y9698D02*
X22354Y9751D01*
X22316Y13249D02*
X22237Y13222D01*
X22316Y13751D02*
X22342Y13725D01*
X22342Y13275D02*
X22316Y13249D01*
X22354Y9249D02*
X22301Y9302D01*
X22354Y9751D02*
X22434Y9778D01*
X22434Y9222D02*
X22354Y9249D01*
X22434Y9778D02*
X22487Y9778D01*
X22487Y9222D02*
X22434Y9222D01*
X22487Y9778D02*
X22566Y9751D01*
X22566Y9249D02*
X22487Y9222D01*
X22566Y9751D02*
X22592Y9725D01*
X22592Y9275D02*
X22566Y9249D01*
X22607Y13645D02*
X22554Y13619D01*
X22660Y13698D02*
X22607Y13645D01*
X22713Y13222D02*
X22713Y13778D01*
X22660Y13698D01*
X22778Y9222D02*
X23122Y9222D01*
X22804Y9725D02*
X22831Y9751D01*
X22883Y9778D01*
X22872Y13222D02*
X22554Y13222D01*
X22883Y9778D02*
X23016Y9778D01*
X23069Y9751D01*
X23095Y9725D01*
X23095Y9540D02*
X22778Y9222D01*
X23095Y9725D02*
X23122Y9672D01*
X23122Y9619D02*
X23095Y9540D01*
X23122Y9672D02*
X23122Y9619D01*
X23275Y15222D02*
X23275Y15778D01*
X23487Y15778D01*
X23487Y15487D02*
X23275Y15487D01*
X23487Y15778D02*
X23540Y15751D01*
X23540Y15513D02*
X23487Y15487D01*
X23540Y15751D02*
X23566Y15725D01*
X23566Y15540D02*
X23540Y15513D01*
X23566Y15725D02*
X23592Y15672D01*
X23592Y15222D02*
X23407Y15487D01*
X23592Y15593D02*
X23566Y15540D01*
X23592Y15672D02*
X23592Y15593D01*
X23857Y15645D02*
X23804Y15619D01*
X23910Y15698D02*
X23857Y15645D01*
X23963Y15222D02*
X23963Y15778D01*
X23910Y15698D01*
X4813Y25801D02*
X4813Y25880D01*
X4840Y25986D01*
X4840Y25695D02*
X4813Y25801D01*
X4840Y25986D02*
X4866Y26039D01*
X4866Y25642D02*
X4840Y25695D01*
X4866Y26039D02*
X4919Y26092D01*
X4919Y25589D02*
X4866Y25642D01*
X4919Y26092D02*
X4999Y26118D01*
X4999Y25563D02*
X4919Y25589D01*
X4999Y26118D02*
X5052Y26118D01*
X5052Y25563D02*
X4999Y25563D01*
X5052Y26118D02*
X5131Y26092D01*
X5131Y25589D02*
X5052Y25563D01*
X5131Y26092D02*
X5157Y26065D01*
X5157Y25616D02*
X5131Y25589D01*
X5422Y25986D02*
X5369Y25960D01*
X5475Y26039D02*
X5422Y25986D01*
X5528Y25563D02*
X5528Y26118D01*
X5475Y26039D01*
X5687Y25563D02*
X5369Y25563D01*
X7063Y36288D02*
X7063Y36367D01*
X7090Y36473D01*
X7090Y36182D02*
X7063Y36288D01*
X7090Y36473D02*
X7116Y36526D01*
X7116Y36129D02*
X7090Y36182D01*
X7116Y36526D02*
X7169Y36579D01*
X7169Y36076D02*
X7116Y36129D01*
X7169Y36579D02*
X7249Y36605D01*
X7249Y36050D02*
X7169Y36076D01*
X7249Y36605D02*
X7302Y36605D01*
X7302Y36050D02*
X7249Y36050D01*
X7302Y36605D02*
X7381Y36579D01*
X7381Y36076D02*
X7302Y36050D01*
X7381Y36579D02*
X7407Y36552D01*
X7407Y36102D02*
X7381Y36076D01*
X7619Y36235D02*
X7963Y36235D01*
X7751Y36632D02*
X7619Y36235D01*
X7884Y36420D02*
X7884Y36050D01*
X13208Y31632D02*
X13208Y32187D01*
X13446Y31870D02*
X13446Y31949D01*
X13472Y32055D01*
X13472Y31764D02*
X13446Y31870D01*
X13472Y32055D02*
X13499Y32108D01*
X13499Y31711D02*
X13472Y31764D01*
X13499Y32108D02*
X13552Y32161D01*
X13552Y31658D02*
X13499Y31711D01*
X13552Y32161D02*
X13631Y32187D01*
X13631Y31632D02*
X13552Y31658D01*
X13631Y32187D02*
X13684Y32187D01*
X13684Y31632D02*
X13631Y31632D01*
X13684Y32187D02*
X13763Y32161D01*
X13763Y31658D02*
X13684Y31632D01*
X13763Y32161D02*
X13790Y32134D01*
X13790Y31685D02*
X13763Y31658D01*
X13975Y31632D02*
X14319Y31632D01*
X14001Y32134D02*
X14028Y32161D01*
X14081Y32187D01*
X14213Y32187D01*
X14266Y32161D01*
X14292Y32134D01*
X14292Y31949D02*
X13975Y31632D01*
X14292Y32134D02*
X14319Y32081D01*
X14319Y32028D02*
X14292Y31949D01*
X14319Y32081D02*
X14319Y32028D01*
X16722Y31589D02*
X16722Y31642D01*
X16749Y31722D01*
X16722Y31933D02*
X16722Y32277D01*
X16934Y32092D01*
X16749Y31510D02*
X16722Y31589D01*
X16749Y31722D02*
X16775Y31748D01*
X16802Y31457D02*
X16749Y31510D01*
X16854Y31430D02*
X16802Y31457D01*
X16934Y32092D02*
X16934Y32171D01*
X16960Y32224D01*
X16960Y31404D02*
X16854Y31430D01*
X16960Y32224D02*
X16987Y32251D01*
X17040Y32277D01*
X17040Y31404D02*
X16960Y31404D01*
X17040Y32277D02*
X17172Y32277D01*
X17145Y31430D02*
X17040Y31404D01*
X17172Y32277D02*
X17225Y32251D01*
X17198Y31457D02*
X17145Y31430D01*
X17225Y31748D02*
X17251Y31722D01*
X17225Y32251D02*
X17251Y32224D01*
X17251Y31510D02*
X17198Y31457D01*
X17251Y31722D02*
X17278Y31642D01*
X17251Y31960D02*
X17225Y31933D01*
X17251Y32224D02*
X17278Y32171D01*
X17278Y31589D02*
X17251Y31510D01*
X17278Y31642D02*
X17278Y31589D01*
X17278Y32013D02*
X17251Y31960D01*
X17278Y32171D02*
X17278Y32013D01*
X17958Y32632D02*
X17958Y33187D01*
X18196Y32870D02*
X18196Y32949D01*
X18222Y33055D01*
X18222Y32764D02*
X18196Y32870D01*
X18222Y33055D02*
X18249Y33108D01*
X18249Y32711D02*
X18222Y32764D01*
X18249Y33108D02*
X18302Y33161D01*
X18302Y32658D02*
X18249Y32711D01*
X18302Y33161D02*
X18381Y33187D01*
X18381Y32632D02*
X18302Y32658D01*
X18381Y33187D02*
X18434Y33187D01*
X18434Y32632D02*
X18381Y32632D01*
X18434Y33187D02*
X18513Y33161D01*
X18513Y32658D02*
X18434Y32632D01*
X18513Y33161D02*
X18540Y33134D01*
X18540Y32685D02*
X18513Y32658D01*
X18804Y33055D02*
X18751Y33028D01*
X18857Y33108D02*
X18804Y33055D01*
X18910Y32632D02*
X18910Y33187D01*
X18857Y33108D01*
X19069Y32632D02*
X18751Y32632D01*
X19090Y27132D02*
X19090Y27687D01*
X19302Y27687D01*
X19302Y27396D02*
X19090Y27396D01*
X19302Y27687D02*
X19354Y27661D01*
X19354Y27423D02*
X19302Y27396D01*
X19354Y27661D02*
X19381Y27634D01*
X19381Y27449D02*
X19354Y27423D01*
X19381Y27634D02*
X19407Y27581D01*
X19407Y27132D02*
X19222Y27396D01*
X19407Y27502D02*
X19381Y27449D01*
X19407Y27581D02*
X19407Y27502D01*
X19593Y27132D02*
X19937Y27132D01*
X19619Y27634D02*
X19645Y27661D01*
X19698Y27687D01*
X19831Y27687D01*
X19884Y27661D01*
X19910Y27634D01*
X19910Y27449D02*
X19593Y27132D01*
X19910Y27634D02*
X19937Y27581D01*
X19937Y27528D02*
X19910Y27449D01*
X19937Y27581D02*
X19937Y27528D01*
X23090Y27132D02*
X23090Y27687D01*
X23302Y27687D01*
X23302Y27396D02*
X23090Y27396D01*
X23302Y27687D02*
X23354Y27661D01*
X23354Y27423D02*
X23302Y27396D01*
X23354Y27661D02*
X23381Y27634D01*
X23381Y27449D02*
X23354Y27423D01*
X23381Y27634D02*
X23407Y27581D01*
X23407Y27132D02*
X23222Y27396D01*
X23407Y27502D02*
X23381Y27449D01*
X23407Y27581D02*
X23407Y27502D01*
X23672Y27555D02*
X23619Y27528D01*
X23725Y27608D02*
X23672Y27555D01*
X23778Y27132D02*
X23778Y27687D01*
X23725Y27608D01*
X23937Y27132D02*
X23619Y27132D01*
X24340Y31632D02*
X24340Y32187D01*
X24657Y31632D02*
X24419Y31949D01*
X24657Y32187D02*
X24340Y31870D01*
X24869Y31737D02*
X24895Y31685D01*
X24869Y31949D02*
X24869Y31737D01*
X24895Y31685D02*
X24922Y31658D01*
X24895Y31923D02*
X24869Y31870D01*
X24895Y32055D02*
X24869Y31949D01*
X24922Y31658D02*
X24975Y31632D01*
X24922Y31949D02*
X24895Y31923D01*
X24948Y32134D02*
X24895Y32055D01*
X24975Y31632D02*
X25081Y31632D01*
X24975Y31976D02*
X24922Y31949D01*
X24975Y32161D02*
X24948Y32134D01*
X25028Y32187D02*
X24975Y32161D01*
X25081Y31632D02*
X25134Y31658D01*
X25081Y31976D02*
X24975Y31976D01*
X25134Y31658D02*
X25160Y31685D01*
X25134Y31949D02*
X25081Y31976D01*
X25134Y32187D02*
X25028Y32187D01*
X25160Y31685D02*
X25187Y31737D01*
X25160Y31923D02*
X25134Y31949D01*
X25187Y31737D02*
X25187Y31870D01*
X25160Y31923D01*
X27827Y26158D02*
X27906Y26132D01*
X27827Y26528D02*
X27827Y26581D01*
X27853Y26634D01*
X27840Y31632D02*
X27840Y32187D01*
X27853Y26476D02*
X27827Y26528D01*
X27853Y26634D02*
X27880Y26661D01*
X27880Y26449D02*
X27853Y26476D01*
X27880Y26661D02*
X27933Y26687D01*
X27906Y26132D02*
X28038Y26132D01*
X27933Y26423D02*
X27880Y26449D01*
X27933Y26687D02*
X28065Y26687D01*
X28038Y26132D02*
X28091Y26158D01*
X28038Y26396D02*
X27933Y26423D01*
X28065Y26687D02*
X28144Y26661D01*
X28091Y26158D02*
X28118Y26185D01*
X28091Y26370D02*
X28038Y26396D01*
X28118Y26185D02*
X28144Y26237D01*
X28118Y26343D02*
X28091Y26370D01*
X28144Y26237D02*
X28144Y26290D01*
X28118Y26343D01*
X28157Y31632D02*
X27919Y31949D01*
X28157Y32187D02*
X27840Y31870D01*
X28369Y31923D02*
X28395Y31949D01*
X28395Y31658D02*
X28369Y31685D01*
X28395Y31949D02*
X28448Y31976D01*
X28395Y32187D02*
X28369Y31923D01*
X28409Y26555D02*
X28356Y26528D01*
X28448Y31632D02*
X28395Y31658D01*
X28448Y31976D02*
X28581Y31976D01*
X28462Y26608D02*
X28409Y26555D01*
X28515Y26132D02*
X28515Y26687D01*
X28462Y26608D01*
X28581Y31632D02*
X28448Y31632D01*
X28581Y31976D02*
X28634Y31949D01*
X28634Y31658D02*
X28581Y31632D01*
X28634Y31949D02*
X28660Y31923D01*
X28660Y31685D02*
X28634Y31658D01*
X28660Y31923D02*
X28687Y31870D01*
X28660Y32187D02*
X28395Y32187D01*
X28673Y26132D02*
X28356Y26132D01*
X28687Y31737D02*
X28660Y31685D01*
X28687Y31870D02*
X28687Y31737D01*
X31063Y36136D02*
X31063Y36215D01*
X31090Y36321D01*
X31063Y25801D02*
X31063Y25880D01*
X31090Y25986D01*
X31090Y36030D02*
X31063Y36136D01*
X31090Y36321D02*
X31116Y36374D01*
X31090Y25695D02*
X31063Y25801D01*
X31090Y25986D02*
X31116Y26039D01*
X31116Y35977D02*
X31090Y36030D01*
X31116Y36374D02*
X31169Y36427D01*
X31116Y25642D02*
X31090Y25695D01*
X31116Y26039D02*
X31169Y26092D01*
X31169Y35924D02*
X31116Y35977D01*
X31169Y25589D02*
X31116Y25642D01*
X31169Y36427D02*
X31249Y36453D01*
X31169Y26092D02*
X31249Y26118D01*
X31249Y35897D02*
X31169Y35924D01*
X31249Y25563D02*
X31169Y25589D01*
X31249Y36453D02*
X31302Y36453D01*
X31249Y26118D02*
X31302Y26118D01*
X31302Y35897D02*
X31249Y35897D01*
X31302Y25563D02*
X31249Y25563D01*
X31302Y36453D02*
X31381Y36427D01*
X31302Y26118D02*
X31381Y26092D01*
X31381Y35924D02*
X31302Y35897D01*
X31381Y25589D02*
X31302Y25563D01*
X31381Y36427D02*
X31407Y36400D01*
X31381Y26092D02*
X31407Y26065D01*
X31407Y35950D02*
X31381Y35924D01*
X31407Y25616D02*
X31381Y25589D01*
X31593Y35897D02*
X31937Y35897D01*
X31619Y36400D02*
X31645Y36427D01*
X31619Y25854D02*
X31645Y25880D01*
X31645Y25589D02*
X31619Y25616D01*
X31645Y36427D02*
X31698Y36453D01*
X31645Y25880D02*
X31698Y25907D01*
X31645Y26118D02*
X31619Y25854D01*
X31698Y25563D02*
X31645Y25589D01*
X31698Y36453D02*
X31831Y36453D01*
X31698Y25907D02*
X31831Y25907D01*
X31831Y25563D02*
X31698Y25563D01*
X31831Y36453D02*
X31884Y36427D01*
X31831Y25907D02*
X31884Y25880D01*
X31884Y25589D02*
X31831Y25563D01*
X31884Y36427D02*
X31910Y36400D01*
X31884Y25880D02*
X31910Y25854D01*
X31910Y36215D02*
X31593Y35897D01*
X31910Y36400D02*
X31937Y36347D01*
X31910Y25616D02*
X31884Y25589D01*
X31910Y25854D02*
X31937Y25801D01*
X31910Y26118D02*
X31645Y26118D01*
X31937Y36294D02*
X31910Y36215D01*
X31937Y36347D02*
X31937Y36294D01*
X31937Y25669D02*
X31910Y25616D01*
X31937Y25801D02*
X31937Y25669D01*
X4778Y3132D02*
X4222Y3132D01*
X4778Y3397D02*
X4222Y3397D01*
X4778Y3714D02*
X4222Y3714D01*
X4778Y4111D02*
X4222Y4111D01*
X4778Y4270D02*
X4778Y3952D01*
X5722Y3397D02*
X6278Y3714D01*
X5722Y4032D02*
X5722Y4164D01*
X5749Y4217D01*
X5749Y3979D02*
X5722Y4032D01*
X5749Y4217D02*
X5775Y4243D01*
X5775Y3952D02*
X5749Y3979D01*
X5775Y4243D02*
X5828Y4270D01*
X5881Y4270D01*
X5960Y4243D01*
X6278Y3926D01*
X6278Y3132D02*
X5722Y3132D01*
X6278Y3397D02*
X5722Y3397D01*
X6278Y3714D02*
X5722Y3714D01*
X6278Y3926D02*
X6278Y4270D01*
X6972Y4825D02*
X6972Y4958D01*
X6999Y5037D01*
X6972Y3132D02*
X6972Y3344D01*
X6999Y3397D01*
X6972Y3847D02*
X6999Y3767D01*
X6972Y3926D02*
X6972Y3847D01*
X6972Y4243D02*
X7528Y4561D01*
X6999Y5037D02*
X7052Y5090D01*
X6999Y3397D02*
X7025Y3423D01*
X6999Y3767D02*
X7052Y3714D01*
X6999Y3979D02*
X6972Y3926D01*
X7025Y3423D02*
X7078Y3450D01*
X7052Y5090D02*
X7104Y5116D01*
X7052Y3714D02*
X7104Y3688D01*
X7078Y3450D02*
X7157Y3450D01*
X7104Y5116D02*
X7210Y5143D01*
X7104Y3688D02*
X7210Y3661D01*
X7157Y3450D02*
X7210Y3423D01*
X7210Y5143D02*
X7290Y5143D01*
X7210Y3423D02*
X7237Y3397D01*
X7210Y3661D02*
X7290Y3661D01*
X7237Y3397D02*
X7263Y3344D01*
X7263Y3132D01*
X7290Y5143D02*
X7395Y5116D01*
X7290Y3661D02*
X7395Y3688D01*
X7290Y4005D02*
X7290Y3899D01*
X7395Y5116D02*
X7448Y5090D01*
X7395Y3688D02*
X7448Y3714D01*
X7448Y5090D02*
X7501Y5037D01*
X7448Y3714D02*
X7501Y3767D01*
X7475Y4005D02*
X7290Y4005D01*
X7501Y5037D02*
X7528Y4958D01*
X7501Y3767D02*
X7528Y3847D01*
X7501Y3979D02*
X7475Y4005D01*
X7528Y4561D02*
X6972Y4561D01*
X7528Y4825D02*
X6972Y4825D01*
X7528Y4958D02*
X7528Y4825D01*
X7528Y3132D02*
X6972Y3132D01*
X7528Y3847D02*
X7528Y3899D01*
X7501Y3979D01*
X7528Y4243D02*
X6972Y4243D01*
X8500Y17254D02*
X9056Y17439D01*
X8500Y17810D02*
X8897Y17995D01*
X8500Y18180D02*
X9056Y18180D01*
X8844Y18444D02*
X8844Y18868D01*
X8897Y17995D02*
X8500Y18180D01*
X9056Y17439D02*
X8500Y17624D01*
X9056Y17810D02*
X8500Y17810D01*
X9056Y18656D02*
X8632Y18656D01*
X10722Y3647D02*
X11278Y3964D01*
X10722Y4361D02*
X10802Y4308D01*
X10854Y4255D01*
X10881Y4202D01*
X11066Y4758D02*
X11066Y5181D01*
X11194Y17122D02*
X11194Y17228D01*
X11221Y17280D01*
X11194Y17598D02*
X11644Y17598D01*
X11194Y18101D02*
X11194Y18418D01*
X11194Y18656D02*
X11194Y18788D01*
X11221Y18841D01*
X11221Y17069D02*
X11194Y17122D01*
X11221Y17280D02*
X11274Y17333D01*
X11221Y18603D02*
X11194Y18656D01*
X11221Y18841D02*
X11247Y18868D01*
X11247Y18577D02*
X11221Y18603D01*
X11247Y18868D02*
X11300Y18894D01*
X11274Y17016D02*
X11221Y17069D01*
X11274Y17333D02*
X11380Y17360D01*
X11278Y4520D02*
X11278Y4202D01*
X11278Y4970D02*
X10854Y4970D01*
X11278Y3382D02*
X10722Y3382D01*
X11278Y3647D02*
X10722Y3647D01*
X11278Y3964D02*
X10722Y3964D01*
X11278Y4361D02*
X10722Y4361D01*
X11300Y18894D02*
X11353Y18894D01*
X11433Y18868D01*
X11380Y16989D02*
X11274Y17016D01*
X11380Y17360D02*
X11565Y17360D01*
X11433Y18868D02*
X11750Y18550D01*
X11565Y16989D02*
X11380Y16989D01*
X11565Y17360D02*
X11671Y17333D01*
X11644Y17598D02*
X11697Y17624D01*
X11644Y17915D02*
X11194Y17915D01*
X11671Y17016D02*
X11565Y16989D01*
X11671Y17333D02*
X11724Y17280D01*
X11697Y17624D02*
X11724Y17651D01*
X11697Y17889D02*
X11644Y17915D01*
X11724Y17069D02*
X11671Y17016D01*
X11724Y17280D02*
X11750Y17228D01*
X11724Y17651D02*
X11750Y17704D01*
X11724Y17862D02*
X11697Y17889D01*
X11750Y17122D02*
X11724Y17069D01*
X11750Y17228D02*
X11750Y17122D01*
X11750Y17704D02*
X11750Y17810D01*
X11724Y17862D01*
X11750Y18259D02*
X11194Y18259D01*
X11750Y18550D02*
X11750Y18894D01*
X11972Y3647D02*
X12528Y3964D01*
X11972Y4361D02*
X12052Y4308D01*
X12104Y4255D01*
X12131Y4202D01*
X12316Y4758D02*
X12316Y5181D01*
X12528Y4520D02*
X12528Y4202D01*
X12528Y3382D02*
X11972Y3382D01*
X12528Y3647D02*
X11972Y3647D01*
X12528Y3964D02*
X11972Y3964D01*
X12528Y4361D02*
X11972Y4361D01*
X13472Y4414D02*
X13499Y4467D01*
X13472Y3647D02*
X14028Y3964D01*
X13472Y4282D02*
X13472Y4414D01*
X13499Y4467D02*
X13525Y4493D01*
X13499Y4229D02*
X13472Y4282D01*
X13525Y4493D02*
X13578Y4520D01*
X13525Y4202D02*
X13499Y4229D01*
X13578Y4520D02*
X13631Y4520D01*
X13710Y4493D01*
X14028Y4176D01*
X13816Y4758D02*
X13816Y5181D01*
X14028Y4970D02*
X13604Y4970D01*
X14028Y3382D02*
X13472Y3382D01*
X14028Y3647D02*
X13472Y3647D01*
X14028Y3964D02*
X13472Y3964D01*
X14028Y4176D02*
X14028Y4520D01*
X14722Y4414D02*
X14749Y4467D01*
X14722Y3647D02*
X15278Y3964D01*
X14722Y4282D02*
X14722Y4414D01*
X14749Y4467D02*
X14775Y4493D01*
X14749Y4229D02*
X14722Y4282D01*
X14775Y4493D02*
X14828Y4520D01*
X14775Y4202D02*
X14749Y4229D01*
X14828Y4520D02*
X14881Y4520D01*
X14960Y4493D01*
X15278Y4176D01*
X15066Y4758D02*
X15066Y5181D01*
X15278Y3382D02*
X14722Y3382D01*
X15278Y3647D02*
X14722Y3647D01*
X15278Y3964D02*
X14722Y3964D01*
X15278Y4176D02*
X15278Y4520D01*
X15750Y17122D02*
X15750Y17228D01*
X15776Y17280D01*
X15750Y17598D02*
X16200Y17598D01*
X15750Y18101D02*
X15750Y18418D01*
X15750Y18735D02*
X15829Y18683D01*
X15776Y17069D02*
X15750Y17122D01*
X15776Y17280D02*
X15829Y17333D01*
X15829Y17016D02*
X15776Y17069D01*
X15829Y17333D02*
X15935Y17360D01*
X15829Y18683D02*
X15882Y18630D01*
X15909Y18577D01*
X15935Y16989D02*
X15829Y17016D01*
X15935Y17360D02*
X16120Y17360D01*
X16120Y16989D02*
X15935Y16989D01*
X16120Y17360D02*
X16226Y17333D01*
X16200Y17598D02*
X16253Y17624D01*
X16200Y17915D02*
X15750Y17915D01*
X16226Y17016D02*
X16120Y16989D01*
X16226Y17333D02*
X16279Y17280D01*
X16253Y17624D02*
X16279Y17651D01*
X16253Y17889D02*
X16200Y17915D01*
X16279Y17069D02*
X16226Y17016D01*
X16279Y17280D02*
X16306Y17228D01*
X16279Y17651D02*
X16306Y17704D01*
X16279Y17862D02*
X16253Y17889D01*
X16306Y17122D02*
X16279Y17069D01*
X16306Y17228D02*
X16306Y17122D01*
X16306Y17704D02*
X16306Y17810D01*
X16279Y17862D01*
X16306Y18259D02*
X15750Y18259D01*
X16306Y18735D02*
X15750Y18735D01*
X16306Y18894D02*
X16306Y18577D01*
X3444Y16884D02*
X3444Y17095D01*
X3471Y17148D01*
X3444Y17598D02*
X3471Y17519D01*
X3444Y17677D02*
X3444Y17598D01*
X3444Y17995D02*
X4000Y18312D01*
X3444Y18577D02*
X3444Y18709D01*
X3471Y18788D01*
X3471Y17148D02*
X3497Y17175D01*
X3471Y17519D02*
X3524Y17466D01*
X3471Y17730D02*
X3444Y17677D01*
X3471Y18788D02*
X3524Y18841D01*
X3497Y17175D02*
X3550Y17201D01*
X3524Y17466D02*
X3577Y17439D01*
X3524Y18841D02*
X3577Y18868D01*
X3550Y17201D02*
X3630Y17201D01*
X3577Y17439D02*
X3683Y17413D01*
X3577Y18868D02*
X3683Y18894D01*
X3630Y17201D02*
X3683Y17175D01*
X3709Y17148D01*
X3683Y17413D02*
X3762Y17413D01*
X3683Y18894D02*
X3762Y18894D01*
X3709Y17148D02*
X3735Y17095D01*
X3735Y16884D01*
X3762Y17413D02*
X3868Y17439D01*
X3762Y17757D02*
X3762Y17651D01*
X3762Y18894D02*
X3868Y18868D01*
X3868Y17439D02*
X3921Y17466D01*
X3868Y18868D02*
X3921Y18841D01*
X3921Y17466D02*
X3974Y17519D01*
X3921Y18841D02*
X3974Y18788D01*
X3947Y17757D02*
X3762Y17757D01*
X3974Y17519D02*
X4000Y17598D01*
X3974Y17730D02*
X3947Y17757D01*
X3974Y18788D02*
X4000Y18709D01*
X4000Y16884D02*
X3444Y16884D01*
X4000Y17598D02*
X4000Y17651D01*
X3974Y17730D01*
X4000Y17995D02*
X3444Y17995D01*
X4000Y18312D02*
X3444Y18312D01*
X4000Y18577D02*
X3444Y18577D01*
X4000Y18709D02*
X4000Y18577D01*
X4222Y3397D02*
X4778Y3714D01*
X4222Y4111D02*
X4302Y4058D01*
X4354Y4005D01*
X4381Y3952D01*
X24463Y3132D02*
X23907Y3132D01*
X24463Y3397D02*
X23907Y3397D01*
X24463Y3714D02*
X23907Y3714D01*
X24463Y4111D02*
X23907Y4111D01*
X24463Y4270D02*
X24463Y3952D01*
X25407Y3397D02*
X25963Y3714D01*
X25407Y4032D02*
X25407Y4164D01*
X25434Y4217D01*
X25434Y3979D02*
X25407Y4032D01*
X25434Y4217D02*
X25460Y4243D01*
X25460Y3952D02*
X25434Y3979D01*
X25460Y4243D02*
X25513Y4270D01*
X25566Y4270D01*
X25645Y4243D01*
X25963Y3926D01*
X25963Y3132D02*
X25407Y3132D01*
X25963Y3397D02*
X25407Y3397D01*
X25963Y3714D02*
X25407Y3714D01*
X25963Y3926D02*
X25963Y4270D01*
X26657Y4825D02*
X26657Y4958D01*
X26684Y5037D01*
X26657Y3132D02*
X26657Y3344D01*
X26684Y3397D01*
X26657Y3847D02*
X26684Y3767D01*
X26657Y3926D02*
X26657Y3847D01*
X26657Y4243D02*
X27213Y4561D01*
X26684Y5037D02*
X26737Y5090D01*
X26684Y3397D02*
X26710Y3423D01*
X26684Y3767D02*
X26737Y3714D01*
X26684Y3979D02*
X26657Y3926D01*
X26710Y3423D02*
X26763Y3450D01*
X26737Y5090D02*
X26790Y5116D01*
X26737Y3714D02*
X26790Y3688D01*
X26763Y3450D02*
X26842Y3450D01*
X26790Y5116D02*
X26895Y5143D01*
X26790Y3688D02*
X26895Y3661D01*
X26842Y3450D02*
X26895Y3423D01*
X26895Y5143D02*
X26975Y5143D01*
X26895Y3423D02*
X26922Y3397D01*
X26895Y3661D02*
X26975Y3661D01*
X26922Y3397D02*
X26948Y3344D01*
X26948Y3132D01*
X26975Y5143D02*
X27081Y5116D01*
X26975Y3661D02*
X27081Y3688D01*
X26975Y4005D02*
X26975Y3899D01*
X27081Y5116D02*
X27133Y5090D01*
X27081Y3688D02*
X27133Y3714D01*
X27133Y5090D02*
X27186Y5037D01*
X27133Y3714D02*
X27186Y3767D01*
X27160Y4005D02*
X26975Y4005D01*
X27186Y5037D02*
X27213Y4958D01*
X27186Y3767D02*
X27213Y3847D01*
X27186Y3979D02*
X27160Y4005D01*
X27213Y4561D02*
X26657Y4561D01*
X27213Y4825D02*
X26657Y4825D01*
X27213Y4958D02*
X27213Y4825D01*
X27213Y3132D02*
X26657Y3132D01*
X27213Y3847D02*
X27213Y3899D01*
X27186Y3979D01*
X27213Y4243D02*
X26657Y4243D01*
X28185Y17254D02*
X28741Y17439D01*
X28185Y17810D02*
X28582Y17995D01*
X28185Y18180D02*
X28741Y18180D01*
X28529Y18444D02*
X28529Y18868D01*
X28582Y17995D02*
X28185Y18180D01*
X28741Y17439D02*
X28185Y17624D01*
X28741Y17810D02*
X28185Y17810D01*
X28741Y18656D02*
X28317Y18656D01*
X30407Y3647D02*
X30963Y3964D01*
X30407Y4361D02*
X30487Y4308D01*
X30540Y4255D01*
X30566Y4202D01*
X30751Y4758D02*
X30751Y5181D01*
X30879Y17122D02*
X30879Y17228D01*
X30906Y17280D01*
X30879Y17598D02*
X31329Y17598D01*
X30879Y18101D02*
X30879Y18418D01*
X30879Y18656D02*
X30879Y18788D01*
X30906Y18841D01*
X30906Y17069D02*
X30879Y17122D01*
X30906Y17280D02*
X30959Y17333D01*
X30906Y18603D02*
X30879Y18656D01*
X30906Y18841D02*
X30932Y18868D01*
X30932Y18577D02*
X30906Y18603D01*
X30932Y18868D02*
X30985Y18894D01*
X30959Y17016D02*
X30906Y17069D01*
X30959Y17333D02*
X31065Y17360D01*
X30963Y4520D02*
X30963Y4202D01*
X30963Y4970D02*
X30540Y4970D01*
X30963Y3382D02*
X30407Y3382D01*
X30963Y3647D02*
X30407Y3647D01*
X30963Y3964D02*
X30407Y3964D01*
X30963Y4361D02*
X30407Y4361D01*
X30985Y18894D02*
X31038Y18894D01*
X31118Y18868D01*
X31065Y16989D02*
X30959Y17016D01*
X31065Y17360D02*
X31250Y17360D01*
X31118Y18868D02*
X31435Y18550D01*
X31250Y16989D02*
X31065Y16989D01*
X31250Y17360D02*
X31356Y17333D01*
X31329Y17598D02*
X31382Y17624D01*
X31329Y17915D02*
X30879Y17915D01*
X31356Y17016D02*
X31250Y16989D01*
X31356Y17333D02*
X31409Y17280D01*
X31382Y17624D02*
X31409Y17651D01*
X31382Y17889D02*
X31329Y17915D01*
X31409Y17069D02*
X31356Y17016D01*
X31409Y17280D02*
X31435Y17228D01*
X31409Y17651D02*
X31435Y17704D01*
X31409Y17862D02*
X31382Y17889D01*
X31435Y17122D02*
X31409Y17069D01*
X31435Y17228D02*
X31435Y17122D01*
X31435Y17704D02*
X31435Y17810D01*
X31409Y17862D01*
X31435Y18259D02*
X30879Y18259D01*
X31435Y18550D02*
X31435Y18894D01*
X31657Y3647D02*
X32213Y3964D01*
X31657Y4361D02*
X31737Y4308D01*
X31790Y4255D01*
X31816Y4202D01*
X32001Y4758D02*
X32001Y5181D01*
X32213Y4520D02*
X32213Y4202D01*
X32213Y3382D02*
X31657Y3382D01*
X32213Y3647D02*
X31657Y3647D01*
X32213Y3964D02*
X31657Y3964D01*
X32213Y4361D02*
X31657Y4361D01*
X33157Y4414D02*
X33184Y4467D01*
X33157Y3647D02*
X33713Y3964D01*
X33157Y4282D02*
X33157Y4414D01*
X33184Y4467D02*
X33210Y4493D01*
X33184Y4229D02*
X33157Y4282D01*
X33210Y4493D02*
X33263Y4520D01*
X33210Y4202D02*
X33184Y4229D01*
X33263Y4520D02*
X33316Y4520D01*
X33395Y4493D01*
X33713Y4176D01*
X33501Y4758D02*
X33501Y5181D01*
X33713Y4970D02*
X33290Y4970D01*
X33713Y3382D02*
X33157Y3382D01*
X33713Y3647D02*
X33157Y3647D01*
X33713Y3964D02*
X33157Y3964D01*
X33713Y4176D02*
X33713Y4520D01*
X34407Y4414D02*
X34434Y4467D01*
X34407Y3647D02*
X34963Y3964D01*
X34407Y4282D02*
X34407Y4414D01*
X34434Y4467D02*
X34460Y4493D01*
X34434Y4229D02*
X34407Y4282D01*
X34460Y4493D02*
X34513Y4520D01*
X34460Y4202D02*
X34434Y4229D01*
X34513Y4520D02*
X34566Y4520D01*
X34645Y4493D01*
X34963Y4176D01*
X34751Y4758D02*
X34751Y5181D01*
X34963Y3382D02*
X34407Y3382D01*
X34963Y3647D02*
X34407Y3647D01*
X34963Y3964D02*
X34407Y3964D01*
X34963Y4176D02*
X34963Y4520D01*
X35435Y17122D02*
X35435Y17228D01*
X35461Y17280D01*
X35435Y17598D02*
X35885Y17598D01*
X35435Y18101D02*
X35435Y18418D01*
X35435Y18735D02*
X35514Y18683D01*
X35461Y17069D02*
X35435Y17122D01*
X35461Y17280D02*
X35514Y17333D01*
X35514Y17016D02*
X35461Y17069D01*
X35514Y17333D02*
X35620Y17360D01*
X35514Y18683D02*
X35567Y18630D01*
X35594Y18577D01*
X35620Y16989D02*
X35514Y17016D01*
X35620Y17360D02*
X35805Y17360D01*
X35805Y16989D02*
X35620Y16989D01*
X35805Y17360D02*
X35911Y17333D01*
X35885Y17598D02*
X35938Y17624D01*
X35885Y17915D02*
X35435Y17915D01*
X35911Y17016D02*
X35805Y16989D01*
X35911Y17333D02*
X35964Y17280D01*
X35938Y17624D02*
X35964Y17651D01*
X35938Y17889D02*
X35885Y17915D01*
X35964Y17069D02*
X35911Y17016D01*
X35964Y17280D02*
X35991Y17228D01*
X35964Y17651D02*
X35991Y17704D01*
X35964Y17862D02*
X35938Y17889D01*
X35991Y17122D02*
X35964Y17069D01*
X35991Y17228D02*
X35991Y17122D01*
X35991Y17704D02*
X35991Y17810D01*
X35964Y17862D01*
X35991Y18259D02*
X35435Y18259D01*
X35991Y18735D02*
X35435Y18735D01*
X35991Y18894D02*
X35991Y18577D01*
X23129Y16884D02*
X23129Y17095D01*
X23156Y17148D01*
X23129Y17598D02*
X23156Y17519D01*
X23129Y17677D02*
X23129Y17598D01*
X23129Y17995D02*
X23685Y18312D01*
X23129Y18577D02*
X23129Y18709D01*
X23156Y18788D01*
X23156Y17148D02*
X23182Y17175D01*
X23156Y17519D02*
X23209Y17466D01*
X23156Y17730D02*
X23129Y17677D01*
X23156Y18788D02*
X23209Y18841D01*
X23182Y17175D02*
X23235Y17201D01*
X23209Y17466D02*
X23262Y17439D01*
X23209Y18841D02*
X23262Y18868D01*
X23235Y17201D02*
X23315Y17201D01*
X23262Y17439D02*
X23368Y17413D01*
X23262Y18868D02*
X23368Y18894D01*
X23315Y17201D02*
X23368Y17175D01*
X23394Y17148D01*
X23368Y17413D02*
X23447Y17413D01*
X23368Y18894D02*
X23447Y18894D01*
X23394Y17148D02*
X23420Y17095D01*
X23420Y16884D01*
X23447Y17413D02*
X23553Y17439D01*
X23447Y17757D02*
X23447Y17651D01*
X23447Y18894D02*
X23553Y18868D01*
X23553Y17439D02*
X23606Y17466D01*
X23553Y18868D02*
X23606Y18841D01*
X23606Y17466D02*
X23659Y17519D01*
X23606Y18841D02*
X23659Y18788D01*
X23632Y17757D02*
X23447Y17757D01*
X23659Y17519D02*
X23685Y17598D01*
X23659Y17730D02*
X23632Y17757D01*
X23659Y18788D02*
X23685Y18709D01*
X23685Y16884D02*
X23129Y16884D01*
X23685Y17598D02*
X23685Y17651D01*
X23659Y17730D01*
X23685Y17995D02*
X23129Y17995D01*
X23685Y18312D02*
X23129Y18312D01*
X23685Y18577D02*
X23129Y18577D01*
X23685Y18709D02*
X23685Y18577D01*
X23907Y3397D02*
X24463Y3714D01*
X23907Y4111D02*
X23987Y4058D01*
X24040Y4005D01*
X24066Y3952D01*
D12*
G01X4394Y11417D02*
X4574Y11759D01*
X4394Y13583D02*
X4142Y13892D01*
X4500Y7000D02*
X4250Y6750D01*
X4500Y7500D02*
X4500Y7000D01*
X4500Y8000D02*
X4250Y7750D01*
X4500Y8500D02*
X4500Y8000D01*
X4500Y10000D02*
X4500Y9000D01*
X4574Y11759D02*
X4682Y12124D01*
X4574Y13241D02*
X4394Y13583D01*
X4682Y12124D02*
X4718Y12500D01*
X4682Y12876D02*
X4574Y13241D01*
X4718Y12500D02*
X4682Y12876D01*
X5125Y7250D02*
X5750Y6875D01*
X5125Y9000D02*
X5125Y7250D01*
X5125Y9000D02*
X5330Y9038D01*
X5125Y12250D02*
X5125Y9875D01*
X5330Y9038D02*
X5477Y9137D01*
X5330Y9837D02*
X5125Y9875D01*
X5375Y15000D02*
X5375Y16000D01*
X5375Y15000D02*
X2625Y15000D01*
X5375Y16000D02*
X2625Y16000D01*
X5477Y9137D02*
X5564Y9277D01*
X5477Y9738D02*
X5330Y9837D01*
X5564Y9277D02*
X5594Y9437D01*
X5564Y9598D02*
X5477Y9738D01*
X5594Y9437D02*
X5564Y9598D01*
X5750Y6875D02*
X6375Y6000D01*
X6000Y15500D02*
X5375Y15500D01*
X781Y12500D02*
X818Y12124D01*
X926Y11759D01*
X818Y12876D02*
X781Y12500D01*
X8250Y16500D02*
X8250Y19300D01*
X8250Y16500D02*
X4250Y16500D01*
X8250Y18500D02*
X4250Y18500D01*
X8250Y19300D02*
X4250Y19300D01*
X8362Y2984D02*
X8362Y228D01*
X926Y11759D02*
X1106Y11417D01*
X926Y13241D02*
X818Y12876D01*
X9949Y1016D02*
X16051Y1016D01*
X9949Y228D02*
X16051Y228D01*
X9949Y2984D02*
X9949Y228D01*
X9949Y2984D02*
X16051Y2984D01*
X10375Y6000D02*
X6375Y6000D01*
X11000Y6875D02*
X10375Y6000D01*
X1106Y11417D02*
X1358Y11108D01*
X1106Y13583D02*
X926Y13241D01*
X11406Y9437D02*
X11436Y9598D01*
X11436Y9277D02*
X11406Y9437D01*
X11436Y9598D02*
X11523Y9738D01*
X11523Y9137D02*
X11436Y9277D01*
X11523Y9738D02*
X11670Y9837D01*
X11667Y15000D02*
X11687Y14793D01*
X11670Y9038D02*
X11523Y9137D01*
X11670Y9837D02*
X11875Y9875D01*
X11687Y14793D02*
X11747Y14593D01*
X11687Y15207D02*
X11667Y15000D01*
X11747Y14593D02*
X11846Y14404D01*
X11747Y15407D02*
X11687Y15207D01*
X11846Y14404D02*
X11984Y14234D01*
X11846Y15596D02*
X11747Y15407D01*
X11875Y7250D02*
X11000Y6875D01*
X11875Y9000D02*
X11670Y9038D01*
X11875Y9000D02*
X11875Y7250D01*
X11875Y12250D02*
X5125Y12250D01*
X11875Y12250D02*
X11875Y9875D01*
X11984Y14234D02*
X12154Y14096D01*
X11984Y15766D02*
X11846Y15596D01*
X12061Y14409D02*
X12061Y14803D01*
X12061Y15197D02*
X12061Y15591D01*
X12077Y16766D02*
X12077Y19522D01*
X12154Y14096D02*
X12343Y13997D01*
X12154Y15904D02*
X11984Y15766D01*
X12258Y15394D02*
X11864Y15394D01*
X12343Y13997D02*
X12543Y13937D01*
X12343Y16003D02*
X12154Y15904D01*
X12543Y13937D02*
X12750Y13917D01*
X12543Y16063D02*
X12343Y16003D01*
X12750Y13917D02*
X12957Y13937D01*
X12750Y16083D02*
X12543Y16063D01*
X12957Y13937D02*
X13157Y13997D01*
X12957Y16063D02*
X12750Y16083D01*
X13157Y13997D02*
X13346Y14096D01*
X13157Y16003D02*
X12957Y16063D01*
X13346Y14096D02*
X13516Y14234D01*
X13346Y15904D02*
X13157Y16003D01*
X13516Y14234D02*
X13654Y14404D01*
X13516Y15766D02*
X13346Y15904D01*
X1358Y11108D02*
X1667Y10856D01*
X1358Y13892D02*
X1106Y13583D01*
X13654Y14404D02*
X13753Y14593D01*
X13654Y15596D02*
X13516Y15766D01*
X13753Y14593D02*
X13813Y14793D01*
X13753Y15407D02*
X13654Y15596D01*
X13813Y14793D02*
X13833Y15000D01*
X13813Y15207D02*
X13753Y15407D01*
X13833Y15000D02*
X13813Y15207D01*
X14250Y9750D02*
X14250Y8000D01*
X14250Y10250D02*
X14250Y12000D01*
X14250Y10250D02*
X14414Y10229D01*
X14250Y12000D02*
X18750Y12000D01*
X14414Y9771D02*
X14250Y9750D01*
X14414Y10229D02*
X14531Y10172D01*
X14500Y6000D02*
X15125Y6000D01*
X14500Y7000D02*
X15125Y7000D01*
X14500Y13000D02*
X15125Y13000D01*
X14500Y14000D02*
X15125Y14000D01*
X14500Y16000D02*
X15125Y16000D01*
X14512Y15000D02*
X15287Y15000D01*
X14531Y9828D02*
X14414Y9771D01*
X14531Y10172D02*
X14602Y10092D01*
X14602Y9908D02*
X14531Y9828D01*
X14602Y10092D02*
X14625Y10000D01*
X14602Y9908D01*
X1500Y9000D02*
X4500Y9000D01*
X1500Y10000D02*
X4500Y10000D01*
X1500Y10000D02*
X1500Y9000D01*
X15125Y5500D02*
X15125Y6500D01*
X15125Y7500D01*
X15125Y12500D02*
X17875Y12500D01*
X15125Y13500D02*
X17875Y13500D01*
X15125Y13500D02*
X15125Y12500D01*
X15125Y13500D02*
X17875Y13500D01*
X15125Y14500D02*
X15125Y13500D01*
X15125Y14500D02*
X17875Y14500D01*
X15125Y15500D02*
X15125Y16500D01*
X1516Y11500D02*
X2016Y11500D01*
X15312Y14425D02*
X15312Y15600D01*
X15423Y16766D02*
X12077Y16766D01*
X15423Y16766D02*
X15423Y19522D01*
X15423Y18734D02*
X12077Y18734D01*
X15423Y19522D02*
X12077Y19522D01*
X15612Y14425D02*
X15612Y15600D01*
X16051Y2984D02*
X16051Y228D01*
X1667Y10856D02*
X2009Y10676D01*
X1667Y14144D02*
X1358Y13892D01*
X1766Y11250D02*
X1766Y11750D01*
X17787Y14425D02*
X15312Y14425D01*
X17787Y14450D02*
X17787Y15600D01*
X15312Y15600D01*
X17875Y13500D02*
X17875Y12500D01*
X17875Y14500D02*
X17875Y13500D01*
X17875Y5500D02*
X15125Y5500D01*
X17875Y5500D02*
X17875Y6500D01*
X15125Y6500D01*
X17875Y6500D02*
X15125Y6500D01*
X17875Y6500D02*
X17875Y7500D01*
X15125Y7500D01*
X17875Y15500D02*
X15125Y15500D01*
X17875Y15500D02*
X17875Y16500D01*
X15125Y16500D01*
X18487Y15000D02*
X17787Y15000D01*
X18500Y6000D02*
X17875Y6000D01*
X18500Y7000D02*
X17875Y7000D01*
X18500Y13000D02*
X17875Y13000D01*
X18500Y14000D02*
X17875Y14000D01*
X18500Y16000D02*
X17875Y16000D01*
X18750Y8000D02*
X14250Y8000D01*
X18750Y12000D02*
X18750Y8000D01*
X2000Y15500D02*
X2625Y15500D01*
X2009Y10676D02*
X2374Y10568D01*
X2009Y14324D02*
X1667Y14144D01*
X2374Y10568D02*
X2750Y10531D01*
X2374Y14432D02*
X2009Y14324D01*
X2625Y15000D02*
X2625Y16000D01*
X2750Y10531D02*
X3126Y10568D01*
X2750Y14468D02*
X2374Y14432D01*
X3126Y10568D02*
X3491Y10676D01*
X3126Y14432D02*
X2750Y14468D01*
X3491Y10676D02*
X3833Y10856D01*
X3491Y14324D02*
X3126Y14432D01*
X3500Y7000D02*
X3750Y6750D01*
X3500Y7500D02*
X3500Y7000D01*
X3500Y8000D02*
X3750Y7750D01*
X3500Y8500D02*
X3500Y8000D01*
X3516Y11500D02*
X4016Y11500D01*
X3638Y1016D02*
X8362Y1016D01*
X3638Y228D02*
X8362Y228D01*
X3638Y2984D02*
X8362Y2984D01*
X3638Y2984D02*
X3638Y228D01*
X3750Y7750D02*
X3500Y7500D01*
X3750Y8750D02*
X3500Y8500D01*
X3833Y10856D02*
X4142Y11108D01*
X3833Y14144D02*
X3491Y14324D01*
X4142Y11108D02*
X4394Y11417D01*
X4142Y13892D02*
X3833Y14144D01*
X4250Y6750D02*
X3750Y6750D01*
X4250Y16500D02*
X4250Y19300D01*
X4250Y7750D02*
X4500Y7500D01*
X4250Y7750D02*
X3750Y7750D01*
X4250Y8750D02*
X4500Y8500D01*
X4250Y8750D02*
X3750Y8750D01*
X24079Y11417D02*
X24259Y11759D01*
X24079Y13583D02*
X23827Y13892D01*
X24185Y7000D02*
X23935Y6750D01*
X24185Y7500D02*
X24185Y7000D01*
X24185Y8000D02*
X23935Y7750D01*
X24185Y8500D02*
X24185Y8000D01*
X24185Y10000D02*
X24185Y9000D01*
X24259Y11759D02*
X24368Y12124D01*
X24259Y13241D02*
X24079Y13583D01*
X24368Y12124D02*
X24404Y12500D01*
X24368Y12876D02*
X24259Y13241D01*
X24404Y12500D02*
X24368Y12876D01*
X24810Y7250D02*
X25435Y6875D01*
X24810Y9000D02*
X24810Y7250D01*
X24810Y9000D02*
X25015Y9038D01*
X24810Y12250D02*
X24810Y9875D01*
X25015Y9038D02*
X25162Y9137D01*
X25015Y9837D02*
X24810Y9875D01*
X25060Y15000D02*
X25060Y16000D01*
X25060Y15000D02*
X22310Y15000D01*
X25060Y16000D02*
X22310Y16000D01*
X25162Y9137D02*
X25249Y9277D01*
X25162Y9738D02*
X25015Y9837D01*
X25249Y9277D02*
X25279Y9437D01*
X25249Y9598D02*
X25162Y9738D01*
X25279Y9437D02*
X25249Y9598D01*
X25435Y6875D02*
X26060Y6000D01*
X25685Y15500D02*
X25060Y15500D01*
X20467Y12500D02*
X20503Y12124D01*
X20611Y11759D01*
X20503Y12876D02*
X20467Y12500D01*
X27935Y16500D02*
X27935Y19300D01*
X27935Y16500D02*
X23935Y16500D01*
X27935Y18500D02*
X23935Y18500D01*
X27935Y19300D02*
X23935Y19300D01*
X28047Y2984D02*
X28047Y228D01*
X20611Y11759D02*
X20791Y11417D01*
X20611Y13241D02*
X20503Y12876D01*
X29634Y1016D02*
X35736Y1016D01*
X29634Y228D02*
X35736Y228D01*
X29634Y2984D02*
X29634Y228D01*
X29634Y2984D02*
X35736Y2984D01*
X30060Y6000D02*
X26060Y6000D01*
X30685Y6875D02*
X30060Y6000D01*
X20791Y11417D02*
X21043Y11108D01*
X20791Y13583D02*
X20611Y13241D01*
X31091Y9437D02*
X31121Y9598D01*
X31121Y9277D02*
X31091Y9437D01*
X31121Y9598D02*
X31208Y9738D01*
X31208Y9137D02*
X31121Y9277D01*
X31208Y9738D02*
X31355Y9837D01*
X31352Y15000D02*
X31372Y14793D01*
X31355Y9038D02*
X31208Y9137D01*
X31355Y9837D02*
X31560Y9875D01*
X31372Y14793D02*
X31432Y14593D01*
X31372Y15207D02*
X31352Y15000D01*
X31432Y14593D02*
X31531Y14404D01*
X31432Y15407D02*
X31372Y15207D01*
X31531Y14404D02*
X31669Y14234D01*
X31531Y15596D02*
X31432Y15407D01*
X31560Y7250D02*
X30685Y6875D01*
X31560Y9000D02*
X31355Y9038D01*
X31560Y9000D02*
X31560Y7250D01*
X31560Y12250D02*
X24810Y12250D01*
X31560Y12250D02*
X31560Y9875D01*
X31669Y14234D02*
X31839Y14096D01*
X31669Y15766D02*
X31531Y15596D01*
X31746Y14409D02*
X31746Y14803D01*
X31746Y15197D02*
X31746Y15591D01*
X31762Y16766D02*
X31762Y19522D01*
X31839Y14096D02*
X32028Y13997D01*
X31839Y15904D02*
X31669Y15766D01*
X31943Y15394D02*
X31549Y15394D01*
X32028Y13997D02*
X32228Y13937D01*
X32028Y16003D02*
X31839Y15904D01*
X32228Y13937D02*
X32435Y13917D01*
X32228Y16063D02*
X32028Y16003D01*
X32435Y13917D02*
X32642Y13937D01*
X32435Y16083D02*
X32228Y16063D01*
X32642Y13937D02*
X32842Y13997D01*
X32642Y16063D02*
X32435Y16083D01*
X32842Y13997D02*
X33031Y14096D01*
X32842Y16003D02*
X32642Y16063D01*
X33031Y14096D02*
X33201Y14234D01*
X33031Y15904D02*
X32842Y16003D01*
X33201Y14234D02*
X33339Y14404D01*
X33201Y15766D02*
X33031Y15904D01*
X21043Y11108D02*
X21352Y10856D01*
X21043Y13892D02*
X20791Y13583D01*
X33339Y14404D02*
X33438Y14593D01*
X33339Y15596D02*
X33201Y15766D01*
X33438Y14593D02*
X33498Y14793D01*
X33438Y15407D02*
X33339Y15596D01*
X33498Y14793D02*
X33518Y15000D01*
X33498Y15207D02*
X33438Y15407D01*
X33518Y15000D02*
X33498Y15207D01*
X33935Y9750D02*
X33935Y8000D01*
X33935Y10250D02*
X33935Y12000D01*
X33935Y10250D02*
X34099Y10229D01*
X33935Y12000D02*
X38435Y12000D01*
X34099Y9771D02*
X33935Y9750D01*
X34099Y10229D02*
X34216Y10172D01*
X34185Y6000D02*
X34810Y6000D01*
X34185Y7000D02*
X34810Y7000D01*
X34185Y13000D02*
X34810Y13000D01*
X34185Y14000D02*
X34810Y14000D01*
X34185Y16000D02*
X34810Y16000D01*
X34198Y15000D02*
X34973Y15000D01*
X34216Y9828D02*
X34099Y9771D01*
X34216Y10172D02*
X34287Y10092D01*
X34287Y9908D02*
X34216Y9828D01*
X34287Y10092D02*
X34310Y10000D01*
X34287Y9908D01*
X21185Y9000D02*
X24185Y9000D01*
X21185Y10000D02*
X24185Y10000D01*
X21185Y10000D02*
X21185Y9000D01*
X34810Y5500D02*
X34810Y6500D01*
X34810Y7500D01*
X34810Y12500D02*
X37560Y12500D01*
X34810Y13500D02*
X37560Y13500D01*
X34810Y13500D02*
X34810Y12500D01*
X34810Y13500D02*
X37560Y13500D01*
X34810Y14500D02*
X34810Y13500D01*
X34810Y14500D02*
X37560Y14500D01*
X34810Y15500D02*
X34810Y16500D01*
X21201Y11500D02*
X21701Y11500D01*
X34998Y14425D02*
X34998Y15600D01*
X35108Y16766D02*
X31762Y16766D01*
X35108Y16766D02*
X35108Y19522D01*
X35108Y18734D02*
X31762Y18734D01*
X35108Y19522D02*
X31762Y19522D01*
X35298Y14425D02*
X35298Y15600D01*
X35736Y2984D02*
X35736Y228D01*
X21352Y10856D02*
X21694Y10676D01*
X21352Y14144D02*
X21043Y13892D01*
X21451Y11250D02*
X21451Y11750D01*
X37473Y14425D02*
X34998Y14425D01*
X37473Y14450D02*
X37473Y15600D01*
X34998Y15600D01*
X37560Y13500D02*
X37560Y12500D01*
X37560Y14500D02*
X37560Y13500D01*
X37560Y5500D02*
X34810Y5500D01*
X37560Y5500D02*
X37560Y6500D01*
X34810Y6500D01*
X37560Y6500D02*
X34810Y6500D01*
X37560Y6500D02*
X37560Y7500D01*
X34810Y7500D01*
X37560Y15500D02*
X34810Y15500D01*
X37560Y15500D02*
X37560Y16500D01*
X34810Y16500D01*
X38173Y15000D02*
X37473Y15000D01*
X38185Y6000D02*
X37560Y6000D01*
X38185Y7000D02*
X37560Y7000D01*
X38185Y13000D02*
X37560Y13000D01*
X38185Y14000D02*
X37560Y14000D01*
X38185Y16000D02*
X37560Y16000D01*
X38435Y8000D02*
X33935Y8000D01*
X38435Y12000D02*
X38435Y8000D01*
X21685Y15500D02*
X22310Y15500D01*
X21694Y10676D02*
X22059Y10568D01*
X21694Y14324D02*
X21352Y14144D01*
X22059Y10568D02*
X22435Y10531D01*
X22059Y14432D02*
X21694Y14324D01*
X22310Y15000D02*
X22310Y16000D01*
X22435Y10531D02*
X22811Y10568D01*
X22435Y14468D02*
X22059Y14432D01*
X22811Y10568D02*
X23176Y10676D01*
X22811Y14432D02*
X22435Y14468D01*
X23176Y10676D02*
X23518Y10856D01*
X23176Y14324D02*
X22811Y14432D01*
X23185Y7000D02*
X23435Y6750D01*
X23185Y7500D02*
X23185Y7000D01*
X23185Y8000D02*
X23435Y7750D01*
X23185Y8500D02*
X23185Y8000D01*
X23201Y11500D02*
X23701Y11500D01*
X23323Y1016D02*
X28047Y1016D01*
X23323Y228D02*
X28047Y228D01*
X23323Y2984D02*
X28047Y2984D01*
X23323Y2984D02*
X23323Y228D01*
X23435Y7750D02*
X23185Y7500D01*
X23435Y8750D02*
X23185Y8500D01*
X23518Y10856D02*
X23827Y11108D01*
X23518Y14144D02*
X23176Y14324D01*
X23827Y11108D02*
X24079Y11417D01*
X23827Y13892D02*
X23518Y14144D01*
X23935Y6750D02*
X23435Y6750D01*
X23935Y16500D02*
X23935Y19300D01*
X23935Y7750D02*
X24185Y7500D01*
X23935Y7750D02*
X23435Y7750D01*
X23935Y8750D02*
X24185Y8500D01*
X23935Y8750D02*
X23435Y8750D01*
X6159Y31234D02*
X6159Y28085D01*
X6159Y31234D02*
X7341Y31234D01*
X6159Y28085D02*
X7341Y28085D01*
X6159Y31835D02*
X6159Y34984D01*
X6500Y36909D02*
X6500Y35909D01*
X6750Y27409D02*
X6750Y26409D01*
X7341Y31234D02*
X7341Y28085D01*
X7341Y31835D02*
X6159Y31835D01*
X7341Y31835D02*
X7341Y34984D01*
X6159Y34984D01*
X8250Y35909D02*
X28750Y35909D01*
X8250Y27909D02*
X8250Y35909D01*
X9875Y32784D02*
X9875Y31034D01*
X10250Y30409D02*
X10250Y31034D01*
X10250Y33409D02*
X10250Y32784D01*
X10625Y31034D02*
X9875Y31034D01*
X10625Y32784D02*
X9875Y32784D01*
X10625Y32784D02*
X10625Y31034D01*
X11500Y31659D02*
X11500Y29909D01*
X11500Y32159D02*
X11500Y33909D01*
X11500Y32159D02*
X11664Y32138D01*
X11500Y33909D02*
X16000Y33909D01*
X11664Y31681D02*
X11500Y31659D01*
X11664Y32138D02*
X11781Y32081D01*
X11781Y31738D02*
X11664Y31681D01*
X11781Y32081D02*
X11852Y32001D01*
X11852Y31818D02*
X11781Y31738D01*
X11852Y32001D02*
X11875Y31909D01*
X11852Y31818D01*
X1378Y31102D02*
X1378Y27953D01*
X1378Y31102D02*
X2559Y31102D01*
X1378Y31890D02*
X2559Y31890D01*
X1378Y35039D02*
X1378Y31890D01*
X1378Y35039D02*
X2559Y35039D01*
X1378Y27953D02*
X2559Y27953D01*
X16000Y29909D02*
X11500Y29909D01*
X16000Y33909D02*
X16000Y29909D01*
X16500Y30409D02*
X16500Y33409D01*
X16500Y30409D02*
X17500Y30409D01*
X16500Y33409D02*
X17500Y33409D01*
X17500Y30409D02*
X17500Y33409D01*
X18000Y26409D02*
X18625Y26409D01*
X18625Y26034D02*
X18625Y26784D01*
X20375Y26034D02*
X18625Y26034D01*
X20375Y26034D02*
X20375Y26784D01*
X18625Y26784D01*
X21000Y26409D02*
X20375Y26409D01*
X22000Y26409D02*
X22625Y26409D01*
X22625Y26034D02*
X22625Y26784D01*
X24375Y26034D02*
X22625Y26034D01*
X24375Y26034D02*
X24375Y26784D01*
X22625Y26784D01*
X25000Y26409D02*
X24375Y26409D01*
X25500Y29909D02*
X26500Y29909D01*
X25500Y33909D02*
X25500Y29909D01*
X25500Y33909D02*
X26500Y33909D01*
X25500Y26159D02*
X25500Y26659D01*
X2559Y31102D02*
X2559Y27953D01*
X2559Y35039D02*
X2559Y31890D01*
X25750Y25909D02*
X25500Y26159D01*
X25750Y26909D02*
X25500Y26659D01*
X26250Y25909D02*
X25750Y25909D01*
X26250Y26909D02*
X25750Y26909D01*
X26500Y29909D02*
X27500Y29909D01*
X26500Y33909D02*
X26500Y29909D01*
X26500Y33909D02*
X26500Y29909D01*
X26500Y33909D02*
X27500Y33909D01*
X26500Y26159D02*
X26250Y25909D01*
X26500Y26159D02*
X26500Y26659D01*
X26250Y26909D01*
X26750Y25909D02*
X26500Y26159D01*
X26750Y26909D02*
X26500Y26659D01*
X27250Y25909D02*
X26750Y25909D01*
X27250Y26909D02*
X26750Y26909D01*
X27500Y33909D02*
X27500Y29909D01*
X27500Y26159D02*
X27250Y25909D01*
X27500Y26159D02*
X27500Y26659D01*
X27250Y26909D01*
X28750Y30409D02*
X28750Y27909D01*
X28750Y33409D02*
X28750Y35909D01*
X28750Y27909D02*
X8250Y27909D01*
X29500Y30409D02*
X28750Y30409D01*
X29500Y30409D02*
X29500Y33409D01*
X28750Y33409D01*
X30000Y35659D02*
X33000Y35659D01*
X30000Y36659D02*
X30000Y35659D01*
X30000Y36659D02*
X33000Y36659D01*
X30000Y26409D02*
X30000Y27409D01*
X33000Y36659D02*
X33000Y35659D01*
X33000Y26409D02*
X30000Y26409D01*
X33000Y26409D02*
X33000Y27409D01*
X30000Y27409D01*
X34449Y31299D02*
X34449Y28150D01*
X34449Y31299D02*
X35630Y31299D01*
X34449Y31890D02*
X35630Y31890D01*
X34449Y35039D02*
X34449Y31890D01*
X34449Y35039D02*
X35630Y35039D01*
X34449Y28150D02*
X35630Y28150D01*
X3500Y35909D02*
X6500Y35909D01*
X3500Y36909D02*
X6500Y36909D01*
X3500Y36909D02*
X3500Y35909D01*
X35630Y31299D02*
X35630Y28150D01*
X35630Y35039D02*
X35630Y31890D01*
X3750Y26409D02*
X6750Y26409D01*
X3750Y27409D02*
X6750Y27409D01*
X3750Y27409D02*
X3750Y26409D01*
X1598Y21060D02*
X3658Y21060D01*
X1598Y21060D02*
X1598Y23120D01*
X3314Y21666D02*
X3264Y21699D01*
X3208Y21710D01*
X3152Y21699D01*
X3102Y21666D01*
X3069Y21616D01*
X3058Y21560D01*
X3069Y21504D01*
X3102Y21454D01*
X3152Y21421D01*
X3208Y21410D01*
X3264Y21421D01*
X3314Y21454D01*
X3347Y21504D01*
X3358Y21560D01*
X3347Y21616D01*
X3314Y21666D01*
X1598Y23120D02*
X3658Y23120D01*
X3658Y21060D02*
X3658Y23120D01*
X332Y24060D02*
X4832Y24060D01*
X4832Y20060D01*
X332Y21810D02*
X332Y20060D01*
X332Y22310D02*
X332Y24060D01*
X4832Y20060D02*
X332Y20060D01*
X332Y22310D02*
X420Y22304D01*
X496Y22289D01*
X561Y22264D01*
X613Y22232D01*
X654Y22194D01*
X684Y22152D01*
X701Y22107D01*
X707Y22060D01*
X701Y22013D01*
X684Y21968D01*
X654Y21926D01*
X613Y21888D01*
X561Y21856D01*
X496Y21832D01*
X420Y21816D01*
X332Y21810D01*
X6716Y21060D02*
X8776Y21060D01*
X6716Y21060D02*
X6716Y23120D01*
X8432Y21666D02*
X8383Y21699D01*
X8326Y21710D01*
X8270Y21699D01*
X8220Y21666D01*
X8187Y21616D01*
X8176Y21560D01*
X8187Y21504D01*
X8220Y21454D01*
X8270Y21421D01*
X8326Y21410D01*
X8383Y21421D01*
X8432Y21454D01*
X8465Y21504D01*
X8476Y21560D01*
X8465Y21616D01*
X8432Y21666D01*
X6716Y23120D02*
X8776Y23120D01*
X8776Y21060D02*
X8776Y23120D01*
X5450Y24060D02*
X9950Y24060D01*
X9950Y20060D01*
X5450Y21810D02*
X5450Y20060D01*
X5450Y22310D02*
X5450Y24060D01*
X9950Y20060D02*
X5450Y20060D01*
X5450Y22310D02*
X5538Y22304D01*
X5614Y22289D01*
X5679Y22264D01*
X5732Y22232D01*
X5773Y22194D01*
X5802Y22152D01*
X5819Y22107D01*
X5825Y22060D01*
X5819Y22013D01*
X5802Y21968D01*
X5773Y21926D01*
X5732Y21888D01*
X5679Y21856D01*
X5614Y21832D01*
X5538Y21816D01*
X5450Y21810D01*
X11834Y21060D02*
X13894Y21060D01*
X11834Y21060D02*
X11834Y23120D01*
X13550Y21666D02*
X13501Y21699D01*
X13444Y21710D01*
X13388Y21699D01*
X13338Y21666D01*
X13305Y21616D01*
X13294Y21560D01*
X13305Y21504D01*
X13338Y21454D01*
X13388Y21421D01*
X13444Y21410D01*
X13501Y21421D01*
X13550Y21454D01*
X13583Y21504D01*
X13594Y21560D01*
X13583Y21616D01*
X13550Y21666D01*
X11834Y23120D02*
X13894Y23120D01*
X13894Y21060D02*
X13894Y23120D01*
X10568Y24060D02*
X15068Y24060D01*
X15068Y20060D01*
X10568Y21810D02*
X10568Y20060D01*
X10568Y22310D02*
X10568Y24060D01*
X15068Y20060D02*
X10568Y20060D01*
X10568Y22310D02*
X10656Y22304D01*
X10732Y22289D01*
X10797Y22264D01*
X10850Y22232D01*
X10891Y22194D01*
X10920Y22152D01*
X10938Y22107D01*
X10943Y22060D01*
X10938Y22013D01*
X10920Y21968D01*
X10891Y21926D01*
X10850Y21888D01*
X10797Y21856D01*
X10732Y21832D01*
X10656Y21816D01*
X10568Y21810D01*
X16952Y21060D02*
X19012Y21060D01*
X16952Y21060D02*
X16952Y23120D01*
X18668Y21666D02*
X18619Y21699D01*
X18562Y21710D01*
X18506Y21699D01*
X18456Y21666D01*
X18423Y21616D01*
X18412Y21560D01*
X18423Y21504D01*
X18456Y21454D01*
X18506Y21421D01*
X18562Y21410D01*
X18619Y21421D01*
X18668Y21454D01*
X18701Y21504D01*
X18712Y21560D01*
X18701Y21616D01*
X18668Y21666D01*
X16952Y23120D02*
X19012Y23120D01*
X19012Y21060D02*
X19012Y23120D01*
X15687Y24060D02*
X20187Y24060D01*
X20187Y20060D01*
X15687Y21810D02*
X15687Y20060D01*
X15687Y22310D02*
X15687Y24060D01*
X20187Y20060D02*
X15687Y20060D01*
X15687Y22310D02*
X15774Y22304D01*
X15851Y22289D01*
X15915Y22264D01*
X15968Y22232D01*
X16009Y22194D01*
X16038Y22152D01*
X16056Y22107D01*
X16062Y22060D01*
X16056Y22013D01*
X16038Y21968D01*
X16009Y21926D01*
X15968Y21888D01*
X15915Y21856D01*
X15851Y21832D01*
X15774Y21816D01*
X15687Y21810D01*
X22070Y21060D02*
X24130Y21060D01*
X22070Y21060D02*
X22070Y23120D01*
X23787Y21666D02*
X23737Y21699D01*
X23680Y21710D01*
X23624Y21699D01*
X23574Y21666D01*
X23541Y21616D01*
X23530Y21560D01*
X23541Y21504D01*
X23574Y21454D01*
X23624Y21421D01*
X23680Y21410D01*
X23737Y21421D01*
X23787Y21454D01*
X23819Y21504D01*
X23830Y21560D01*
X23819Y21616D01*
X23787Y21666D01*
X22070Y23120D02*
X24130Y23120D01*
X24130Y21060D02*
X24130Y23120D01*
X20805Y24060D02*
X25305Y24060D01*
X25305Y20060D01*
X20805Y21810D02*
X20805Y20060D01*
X20805Y22310D02*
X20805Y24060D01*
X25305Y20060D02*
X20805Y20060D01*
X20805Y22310D02*
X20893Y22304D01*
X20969Y22289D01*
X21033Y22264D01*
X21086Y22232D01*
X21127Y22194D01*
X21156Y22152D01*
X21174Y22107D01*
X21180Y22060D01*
X21174Y22013D01*
X21156Y21968D01*
X21127Y21926D01*
X21086Y21888D01*
X21033Y21856D01*
X20969Y21832D01*
X20893Y21816D01*
X20805Y21810D01*
X27189Y21060D02*
X29249Y21060D01*
X27189Y21060D02*
X27189Y23120D01*
X28905Y21666D02*
X28855Y21699D01*
X28799Y21710D01*
X28742Y21699D01*
X28693Y21666D01*
X28660Y21616D01*
X28649Y21560D01*
X28660Y21504D01*
X28693Y21454D01*
X28742Y21421D01*
X28799Y21410D01*
X28855Y21421D01*
X28905Y21454D01*
X28938Y21504D01*
X28949Y21560D01*
X28938Y21616D01*
X28905Y21666D01*
X27189Y23120D02*
X29249Y23120D01*
X29249Y21060D02*
X29249Y23120D01*
X25923Y24060D02*
X30423Y24060D01*
X30423Y20060D01*
X25923Y21810D02*
X25923Y20060D01*
X25923Y22310D02*
X25923Y24060D01*
X30423Y20060D02*
X25923Y20060D01*
X25923Y22310D02*
X26011Y22304D01*
X26087Y22289D01*
X26151Y22264D01*
X26204Y22232D01*
X26245Y22194D01*
X26274Y22152D01*
X26292Y22107D01*
X26298Y22060D01*
X26292Y22013D01*
X26274Y21968D01*
X26245Y21926D01*
X26204Y21888D01*
X26151Y21856D01*
X26087Y21832D01*
X26011Y21816D01*
X25923Y21810D01*
X32307Y21060D02*
X34367Y21060D01*
X32307Y21060D02*
X32307Y23120D01*
X34023Y21666D02*
X33973Y21699D01*
X33917Y21710D01*
X33860Y21699D01*
X33811Y21666D01*
X33778Y21616D01*
X33767Y21560D01*
X33778Y21504D01*
X33811Y21454D01*
X33860Y21421D01*
X33917Y21410D01*
X33973Y21421D01*
X34023Y21454D01*
X34056Y21504D01*
X34067Y21560D01*
X34056Y21616D01*
X34023Y21666D01*
X32307Y23120D02*
X34367Y23120D01*
X34367Y21060D02*
X34367Y23120D01*
X31041Y24060D02*
X35541Y24060D01*
X35541Y20060D01*
X31041Y21810D02*
X31041Y20060D01*
X31041Y22310D02*
X31041Y24060D01*
X35541Y20060D02*
X31041Y20060D01*
X31041Y22310D02*
X31129Y22304D01*
X31205Y22289D01*
X31269Y22264D01*
X31322Y22232D01*
X31363Y22194D01*
X31392Y22152D01*
X31410Y22107D01*
X31416Y22060D01*
X31410Y22013D01*
X31392Y21968D01*
X31363Y21926D01*
X31322Y21888D01*
X31269Y21856D01*
X31205Y21832D01*
X31129Y21816D01*
X31041Y21810D01*
D13*
G01X9000Y5500D02*
X13000Y5500D01*
X9000Y250D02*
X9000Y5500D01*
X13000Y5500D02*
X13000Y10000D01*
X15750Y10000D01*
X17250Y10000D02*
X19500Y10000D01*
X28685Y5500D02*
X32685Y5500D01*
X28685Y250D02*
X28685Y5500D01*
X32685Y5500D02*
X32685Y10000D01*
X35435Y10000D01*
X36935Y10000D02*
X39185Y10000D01*
D14*
G01X20Y19685D02*
X20Y24409D01*
X5138Y24409D01*
X5138Y19685D01*
X20Y19685D01*
X5138Y19685D02*
X5138Y24409D01*
X10256Y24409D01*
X10256Y19685D01*
X5138Y19685D01*
X10256Y19685D02*
X10256Y24409D01*
X15374Y24409D01*
X15374Y19685D01*
X10256Y19685D01*
X15374Y19685D02*
X15374Y24409D01*
X20492Y24409D01*
X20492Y19685D01*
X15374Y19685D01*
X20492Y19685D02*
X20492Y24409D01*
X25610Y24409D01*
X25610Y19685D01*
X20492Y19685D01*
X25610Y19685D02*
X25610Y24409D01*
X30728Y24409D01*
X30728Y19685D01*
X25610Y19685D01*
X30728Y19685D02*
X30728Y24409D01*
X35846Y24409D01*
X35846Y19685D01*
X30728Y19685D01*
D15*
G01X0Y0D02*
X0Y19685D01*
X19685Y19685D01*
X19685Y0D01*
X0Y0D01*
X19685Y0D02*
X19685Y19685D01*
X39370Y19685D01*
X39370Y0D01*
X19685Y0D01*
X0Y24409D02*
X0Y38386D01*
X36811Y38386D01*
X36811Y24409D01*
X0Y24409D01*
X197Y197D02*
X197Y38583D01*
X39567Y38583D01*
X39567Y197D01*
X197Y197D01*
M02*
