%FSLAX24Y24*%
%MOIN*%
%ADD10C,0.0089*%
%ADD11C,0.0200*%
%ADD12C,0.0400*%
%ADD13C,0.0520*%
%ADD14C,0.0700*%
%ADD15C,0.0709*%
%ADD16C,0.0787*%
%ADD17C,0.1000*%
%ADD18C,0.2362*%
D10*
G01X1165Y21310D02*
X709Y21310D01*
X4564Y22575D02*
X4564Y21042D01*
X684Y21335D02*
X684Y23161D01*
X1270Y22915D02*
X1165Y22810D01*
X1165Y21810D02*
X1930Y21810D01*
X1850Y21310D02*
X4082Y21310D01*
X1165Y22310D02*
X1689Y22310D01*
X1949Y22570D02*
X2722Y22570D01*
X1082Y20560D02*
X1101Y20560D01*
X3304Y22310D02*
X3165Y22171D01*
X4082Y21810D02*
X2818Y21810D01*
X2693Y21685D01*
X4082Y22810D02*
X4329Y22810D01*
X684Y23161D02*
X1082Y23560D01*
X4564Y21042D02*
X4082Y20560D01*
X1689Y22310D02*
X1949Y22570D01*
X1101Y20560D02*
X1850Y21310D01*
X3437Y22915D02*
X1270Y22915D01*
X4082Y23560D02*
X3437Y22915D01*
X4082Y22310D02*
X3304Y22310D01*
X4329Y22810D02*
X4564Y22575D01*
X1930Y21810D02*
X2211Y22091D01*
X709Y21310D02*
X684Y21335D01*
X6283Y21310D02*
X5827Y21310D01*
X9682Y22575D02*
X9682Y21042D01*
X5802Y21335D02*
X5802Y23161D01*
X6388Y22915D02*
X6283Y22810D01*
X6283Y21810D02*
X7049Y21810D01*
X6969Y21310D02*
X9200Y21310D01*
X6283Y22310D02*
X6807Y22310D01*
X7067Y22570D02*
X7840Y22570D01*
X6200Y20560D02*
X6219Y20560D01*
X8423Y22310D02*
X8283Y22171D01*
X9200Y21810D02*
X7936Y21810D01*
X7811Y21685D01*
X9200Y22810D02*
X9448Y22810D01*
X5802Y23161D02*
X6200Y23560D01*
X9682Y21042D02*
X9200Y20560D01*
X6807Y22310D02*
X7067Y22570D01*
X6219Y20560D02*
X6969Y21310D01*
X8555Y22915D02*
X6388Y22915D01*
X9200Y23560D02*
X8555Y22915D01*
X9200Y22310D02*
X8423Y22310D01*
X9448Y22810D02*
X9682Y22575D01*
X7049Y21810D02*
X7329Y22091D01*
X5827Y21310D02*
X5802Y21335D01*
X11401Y21310D02*
X10945Y21310D01*
X14801Y22575D02*
X14801Y21042D01*
X10920Y21335D02*
X10920Y23161D01*
X11507Y22915D02*
X11401Y22810D01*
X11401Y21810D02*
X12167Y21810D01*
X12087Y21310D02*
X14318Y21310D01*
X11401Y22310D02*
X11925Y22310D01*
X12185Y22570D02*
X12958Y22570D01*
X11318Y20560D02*
X11337Y20560D01*
X13541Y22310D02*
X13402Y22171D01*
X14318Y21810D02*
X13054Y21810D01*
X12929Y21685D01*
X14318Y22810D02*
X14566Y22810D01*
X10920Y23161D02*
X11318Y23560D01*
X14801Y21042D02*
X14318Y20560D01*
X11925Y22310D02*
X12185Y22570D01*
X11337Y20560D02*
X12087Y21310D01*
X13673Y22915D02*
X11507Y22915D01*
X14318Y23560D02*
X13673Y22915D01*
X14318Y22310D02*
X13541Y22310D01*
X14566Y22810D02*
X14801Y22575D01*
X12167Y21810D02*
X12448Y22091D01*
X10945Y21310D02*
X10920Y21335D01*
X16519Y21310D02*
X16063Y21310D01*
X19919Y22575D02*
X19919Y21042D01*
X16038Y21335D02*
X16038Y23161D01*
X16625Y22915D02*
X16519Y22810D01*
X16519Y21810D02*
X17285Y21810D01*
X17205Y21310D02*
X19436Y21310D01*
X16519Y22310D02*
X17043Y22310D01*
X17303Y22570D02*
X18076Y22570D01*
X16437Y20560D02*
X16455Y20560D01*
X18659Y22310D02*
X18520Y22171D01*
X19436Y21810D02*
X18172Y21810D01*
X18047Y21685D01*
X19436Y22810D02*
X19684Y22810D01*
X16038Y23161D02*
X16437Y23560D01*
X19919Y21042D02*
X19437Y20560D01*
X17043Y22310D02*
X17303Y22570D01*
X16455Y20560D02*
X17205Y21310D01*
X18791Y22915D02*
X16625Y22915D01*
X19437Y23560D02*
X18791Y22915D01*
X19436Y22310D02*
X18659Y22310D01*
X19684Y22810D02*
X19919Y22575D01*
X17285Y21810D02*
X17566Y22091D01*
X16063Y21310D02*
X16038Y21335D01*
X21637Y21310D02*
X21181Y21310D01*
X25037Y22575D02*
X25037Y21042D01*
X21156Y21335D02*
X21156Y23161D01*
X21743Y22915D02*
X21637Y22810D01*
X21637Y21810D02*
X22403Y21810D01*
X22323Y21310D02*
X24554Y21310D01*
X21637Y22310D02*
X22161Y22310D01*
X22421Y22570D02*
X23194Y22570D01*
X21555Y20560D02*
X21573Y20560D01*
X23777Y22310D02*
X23638Y22171D01*
X24554Y21810D02*
X23290Y21810D01*
X23165Y21685D01*
X24554Y22810D02*
X24802Y22810D01*
X21156Y23161D02*
X21555Y23560D01*
X25037Y21042D02*
X24555Y20560D01*
X22161Y22310D02*
X22421Y22570D01*
X21573Y20560D02*
X22323Y21310D01*
X23909Y22915D02*
X21743Y22915D01*
X24555Y23560D02*
X23909Y22915D01*
X24554Y22310D02*
X23777Y22310D01*
X24802Y22810D02*
X25037Y22575D01*
X22403Y21810D02*
X22684Y22091D01*
X21181Y21310D02*
X21156Y21335D01*
X26755Y21310D02*
X26299Y21310D01*
X30155Y22575D02*
X30155Y21042D01*
X26274Y21335D02*
X26274Y23161D01*
X26861Y22915D02*
X26755Y22810D01*
X26755Y21810D02*
X27521Y21810D01*
X27441Y21310D02*
X29673Y21310D01*
X26755Y22310D02*
X27280Y22310D01*
X27539Y22570D02*
X28312Y22570D01*
X26673Y20560D02*
X26692Y20560D01*
X28895Y22310D02*
X28756Y22171D01*
X29673Y21810D02*
X28408Y21810D01*
X28283Y21685D01*
X29673Y22810D02*
X29920Y22810D01*
X26274Y23161D02*
X26673Y23560D01*
X30155Y21042D02*
X29673Y20560D01*
X27280Y22310D02*
X27539Y22570D01*
X26692Y20560D02*
X27441Y21310D01*
X29028Y22915D02*
X26861Y22915D01*
X29673Y23560D02*
X29028Y22915D01*
X29673Y22310D02*
X28895Y22310D01*
X29920Y22810D02*
X30155Y22575D01*
X27521Y21810D02*
X27802Y22091D01*
X26299Y21310D02*
X26274Y21335D01*
X31873Y21310D02*
X31417Y21310D01*
X35273Y22575D02*
X35273Y21042D01*
X31392Y21335D02*
X31392Y23161D01*
X31979Y22915D02*
X31873Y22810D01*
X31873Y21810D02*
X32639Y21810D01*
X32559Y21310D02*
X34791Y21310D01*
X31873Y22310D02*
X32398Y22310D01*
X32657Y22570D02*
X33430Y22570D01*
X31791Y20560D02*
X31810Y20560D01*
X34013Y22310D02*
X33874Y22171D01*
X34791Y21810D02*
X33526Y21810D01*
X33402Y21685D01*
X34791Y22810D02*
X35038Y22810D01*
X31392Y23161D02*
X31791Y23560D01*
X35273Y21042D02*
X34791Y20560D01*
X32398Y22310D02*
X32657Y22570D01*
X31810Y20560D02*
X32559Y21310D01*
X34146Y22915D02*
X31979Y22915D01*
X34791Y23560D02*
X34146Y22915D01*
X34791Y22310D02*
X34013Y22310D01*
X35038Y22810D02*
X35273Y22575D01*
X32639Y21810D02*
X32920Y22091D01*
X31417Y21310D02*
X31392Y21335D01*
D11*
G01X8217Y2000D02*
X7378Y2000D01*
X12311Y4482D02*
X12311Y2000D01*
X12750Y6533D02*
X8217Y2000D01*
X12750Y10784D02*
X12750Y6533D01*
X12750Y10784D02*
X17193Y10784D01*
X12750Y14606D02*
X12750Y10784D01*
X14329Y6500D02*
X12311Y4482D01*
X14500Y8000D02*
X14500Y7000D01*
X14500Y12000D02*
X14500Y13000D01*
X14662Y6500D02*
X14329Y6500D01*
X15000Y8500D02*
X14500Y8000D01*
X15000Y11500D02*
X14500Y12000D01*
X15067Y2567D02*
X15067Y2000D01*
X16000Y8500D02*
X16000Y7838D01*
X16000Y11500D02*
X16000Y13512D01*
X16000Y7838D02*
X14662Y6500D01*
X16000Y13512D02*
X14512Y15000D01*
X16000Y13512D02*
X18488Y16000D01*
X17193Y10784D02*
X17500Y11091D01*
X17500Y12000D01*
X18500Y13000D01*
X18000Y6311D02*
X13689Y2000D01*
X18000Y8500D02*
X18000Y6311D01*
X18487Y14013D02*
X18487Y15000D01*
X18488Y16000D02*
X18500Y16000D01*
X18500Y6000D02*
X15067Y2567D01*
X18500Y13000D02*
X18500Y14000D01*
X18487Y14013D01*
X4000Y5378D02*
X7378Y2000D01*
X4000Y7250D02*
X4000Y5378D01*
X27902Y2000D02*
X27063Y2000D01*
X31996Y4482D02*
X31996Y2000D01*
X32435Y6533D02*
X27902Y2000D01*
X32435Y10784D02*
X32435Y6533D01*
X32435Y10784D02*
X36878Y10784D01*
X32435Y14606D02*
X32435Y10784D01*
X34014Y6500D02*
X31996Y4482D01*
X34185Y8000D02*
X34185Y7000D01*
X34185Y12000D02*
X34185Y13000D01*
X34347Y6500D02*
X34014Y6500D01*
X34685Y8500D02*
X34185Y8000D01*
X34685Y11500D02*
X34185Y12000D01*
X34752Y2567D02*
X34752Y2000D01*
X35685Y8500D02*
X35685Y7838D01*
X35685Y11500D02*
X35685Y13512D01*
X35685Y7838D02*
X34347Y6500D01*
X35685Y13512D02*
X34198Y15000D01*
X35685Y13512D02*
X38173Y16000D01*
X36878Y10784D02*
X37185Y11091D01*
X37185Y12000D01*
X38185Y13000D01*
X37685Y6311D02*
X33374Y2000D01*
X37685Y8500D02*
X37685Y6311D01*
X38173Y14013D02*
X38173Y15000D01*
X38173Y16000D02*
X38185Y16000D01*
X38185Y6000D02*
X34752Y2567D01*
X38185Y13000D02*
X38185Y14000D01*
X38173Y14013D01*
X23685Y5378D02*
X27063Y2000D01*
X23685Y7250D02*
X23685Y5378D01*
X6250Y27978D02*
X6250Y26909D01*
X6747Y30844D02*
X6747Y32228D01*
X6747Y30844D02*
X4250Y28346D01*
X6747Y32228D02*
X4000Y34975D01*
X6750Y30841D02*
X6747Y30844D01*
X6750Y32228D02*
X6747Y32228D01*
X6750Y33016D02*
X8151Y33016D01*
X6750Y28478D02*
X6250Y27978D01*
X6867Y34707D02*
X6750Y34591D01*
X6867Y34707D02*
X6867Y35543D01*
X6000Y36409D01*
X6944Y30053D02*
X6750Y30053D01*
X7783Y33803D02*
X6750Y33803D01*
X8151Y33016D02*
X9244Y34109D01*
X8388Y34408D02*
X7783Y33803D01*
X9244Y34109D02*
X13551Y34109D01*
X10250Y33359D02*
X6944Y30053D01*
X10250Y33409D02*
X10250Y33359D01*
X10298Y34707D02*
X6867Y34707D01*
X11000Y35409D02*
X10298Y34707D01*
X11000Y35409D02*
X11699Y34710D01*
X16000Y34710D01*
X12000Y29409D02*
X11000Y28409D01*
X12250Y33409D02*
X10250Y33409D01*
X13250Y33409D02*
X10250Y30409D01*
X13551Y34109D02*
X14250Y33409D01*
X14250Y29409D02*
X12000Y29409D01*
X14252Y34408D02*
X8388Y34408D01*
X14625Y29784D02*
X14250Y29409D01*
X14625Y29784D02*
X15250Y30409D01*
X14625Y29784D02*
X16000Y28409D01*
X15250Y30409D02*
X15250Y31159D01*
X17000Y32909D01*
X15250Y33409D02*
X14252Y34408D01*
X16000Y33909D02*
X16000Y34710D01*
X16000Y35409D01*
X17000Y32909D02*
X16000Y33909D01*
X18000Y26409D02*
X16000Y28409D01*
X21000Y35409D02*
X21699Y34710D01*
X21500Y30909D02*
X17000Y30909D01*
X21699Y34710D02*
X25401Y34710D01*
X22000Y28409D02*
X22000Y26409D01*
X24000Y28409D02*
X21500Y30909D01*
X25401Y29009D02*
X25401Y30810D01*
X26000Y31409D01*
X25401Y32009D02*
X25401Y34710D01*
X25401Y34810D01*
X26000Y35409D01*
X26000Y31409D02*
X25401Y32009D01*
X26000Y35409D02*
X27227Y36636D01*
X26000Y28409D02*
X25401Y29009D01*
X27000Y28409D02*
X27000Y26409D01*
X27000Y30409D02*
X30421Y30409D01*
X27000Y35409D02*
X27000Y33409D01*
X27227Y36636D02*
X32023Y36636D01*
X28000Y33409D02*
X27000Y32409D01*
X28000Y35409D02*
X28000Y33409D01*
X30421Y30409D02*
X30421Y36081D01*
X30421Y30409D02*
X32500Y28331D01*
X30421Y36081D02*
X30500Y36159D01*
X32023Y36636D02*
X32500Y36159D01*
X34014Y34646D01*
X32500Y26909D02*
X32500Y28331D01*
X34827Y28331D01*
X34014Y34646D02*
X35039Y34646D01*
X34827Y28331D02*
X35039Y28543D01*
X4000Y34975D02*
X4000Y36409D01*
X4250Y28346D02*
X1969Y28346D01*
X4250Y28346D02*
X4250Y26909D01*
D12*
G01X2211Y22091D03*
X2722Y22570D03*
X3165Y22171D03*
X2693Y21685D03*
X7329Y22091D03*
X7840Y22570D03*
X8283Y22171D03*
X7811Y21685D03*
X12448Y22091D03*
X12958Y22570D03*
X13402Y22171D03*
X12929Y21685D03*
X17566Y22091D03*
X18076Y22570D03*
X18520Y22171D03*
X18047Y21685D03*
X22684Y22091D03*
X23194Y22570D03*
X23638Y22171D03*
X23165Y21685D03*
X27802Y22091D03*
X28312Y22570D03*
X28756Y22171D03*
X28283Y21685D03*
X32920Y22091D03*
X33430Y22570D03*
X33874Y22171D03*
X33402Y21685D03*
D13*
G01X3734Y12260D02*
X3734Y12740D01*
X2000Y9500D03*
X4000Y9500D03*
X14500Y7000D03*
X14500Y6000D03*
X15000Y11740D02*
X15000Y11260D01*
X18000Y8740D02*
X18000Y8260D01*
X18000Y11740D02*
X18000Y11260D01*
X16000Y11740D02*
X16000Y11260D01*
X17000Y11740D02*
X17000Y11260D01*
X16000Y8740D02*
X16000Y8260D01*
X17000Y8740D02*
X17000Y8260D01*
X18500Y14000D03*
X18500Y13000D03*
X2000Y15500D03*
X14500Y16000D03*
X4000Y7250D03*
X12510Y14606D02*
X12990Y14606D01*
X23419Y12260D02*
X23419Y12740D01*
X21685Y9500D03*
X23685Y9500D03*
X34185Y7000D03*
X34185Y6000D03*
X34685Y11740D02*
X34685Y11260D01*
X37685Y8740D02*
X37685Y8260D01*
X37685Y11740D02*
X37685Y11260D01*
X35685Y11740D02*
X35685Y11260D01*
X36685Y11740D02*
X36685Y11260D01*
X35685Y8740D02*
X35685Y8260D01*
X36685Y8740D02*
X36685Y8260D01*
X38185Y14000D03*
X38185Y13000D03*
X21685Y15500D03*
X34185Y16000D03*
X23685Y7250D03*
X32195Y14606D02*
X32675Y14606D01*
X22000Y35169D02*
X22000Y35649D01*
X14000Y35169D02*
X14000Y35649D01*
X20000Y28169D02*
X20000Y28649D01*
X13000Y28169D02*
X13000Y28649D01*
X11000Y28169D02*
X11000Y28649D01*
X27000Y35169D02*
X27000Y35649D01*
X22000Y28169D02*
X22000Y28649D01*
X21000Y28169D02*
X21000Y28649D01*
X23000Y28169D02*
X23000Y28649D01*
X16000Y28169D02*
X16000Y28649D01*
X25000Y35169D02*
X25000Y35649D01*
X18000Y28169D02*
X18000Y28649D01*
X26000Y35169D02*
X26000Y35649D01*
X12000Y28169D02*
X12000Y28649D01*
X23000Y35169D02*
X23000Y35649D01*
X15000Y28169D02*
X15000Y28649D01*
X20000Y35169D02*
X20000Y35649D01*
X16000Y35169D02*
X16000Y35649D01*
X17000Y35169D02*
X17000Y35649D01*
X25000Y28169D02*
X25000Y28649D01*
X21000Y35169D02*
X21000Y35649D01*
X28000Y28169D02*
X28000Y28649D01*
X19000Y28169D02*
X19000Y28649D01*
X12000Y35169D02*
X12000Y35649D01*
X9000Y28169D02*
X9000Y28649D01*
X17000Y28169D02*
X17000Y28649D01*
X24000Y35169D02*
X24000Y35649D01*
X15000Y35169D02*
X15000Y35649D01*
X26000Y28169D02*
X26000Y28649D01*
X14000Y28169D02*
X14000Y28649D01*
X11000Y35169D02*
X11000Y35649D01*
X18000Y35169D02*
X18000Y35649D01*
X19000Y35169D02*
X19000Y35649D01*
X9000Y35169D02*
X9000Y35649D01*
X24000Y28169D02*
X24000Y28649D01*
X13000Y35169D02*
X13000Y35649D01*
X27000Y28169D02*
X27000Y28649D01*
X10000Y28169D02*
X10000Y28649D01*
X10000Y35169D02*
X10000Y35649D01*
X2109Y33858D02*
X1829Y33858D01*
X2109Y33071D02*
X1829Y33071D01*
X2109Y32283D02*
X1829Y32283D01*
X2109Y29921D02*
X1829Y29921D01*
X2109Y29134D02*
X1829Y29134D01*
X2109Y28346D02*
X1829Y28346D01*
X35179Y33858D02*
X34899Y33858D01*
X35179Y33071D02*
X34899Y33071D01*
X35179Y32283D02*
X34899Y32283D01*
X35179Y30118D02*
X34899Y30118D01*
X35179Y29331D02*
X34899Y29331D01*
X35179Y28543D02*
X34899Y28543D01*
X27140Y31409D02*
X26860Y31409D01*
X27140Y32409D02*
X26860Y32409D01*
X27140Y30409D02*
X26860Y30409D01*
X26140Y31409D02*
X25860Y31409D01*
X26140Y32409D02*
X25860Y32409D01*
X26140Y30409D02*
X25860Y30409D01*
X26000Y26409D03*
X22000Y26409D03*
X18000Y26409D03*
X4250Y26909D03*
X6250Y26909D03*
X30500Y36159D03*
X32500Y36159D03*
X15250Y30649D02*
X15250Y30169D01*
X15250Y33649D02*
X15250Y33169D01*
X12250Y33649D02*
X12250Y33169D01*
X13250Y30649D02*
X13250Y30169D01*
X14250Y33649D02*
X14250Y33169D01*
X13250Y33649D02*
X13250Y33169D01*
X14250Y30649D02*
X14250Y30169D01*
X17000Y30909D03*
X17000Y32909D03*
X6610Y33016D02*
X6890Y33016D01*
X6610Y33803D02*
X6890Y33803D01*
X6610Y34591D02*
X6890Y34591D01*
X6890Y30053D02*
X6610Y30053D01*
X6890Y29266D02*
X6610Y29266D01*
X6890Y28478D02*
X6610Y28478D01*
X10250Y30409D03*
X4000Y36409D03*
X6000Y36409D03*
X32500Y26909D03*
X30500Y26909D03*
X4082Y20800D02*
X4082Y20320D01*
X3082Y20800D02*
X3082Y20320D01*
X2082Y20800D02*
X2082Y20320D01*
X2082Y23800D02*
X2082Y23320D01*
X4082Y23800D02*
X4082Y23320D01*
X1082Y23800D02*
X1082Y23320D01*
X3082Y23800D02*
X3082Y23320D01*
X9200Y20800D02*
X9200Y20320D01*
X8200Y20800D02*
X8200Y20320D01*
X7200Y20800D02*
X7200Y20320D01*
X7200Y23800D02*
X7200Y23320D01*
X9200Y23800D02*
X9200Y23320D01*
X6200Y23800D02*
X6200Y23320D01*
X8200Y23800D02*
X8200Y23320D01*
X14318Y20800D02*
X14318Y20320D01*
X13318Y20800D02*
X13318Y20320D01*
X12318Y20800D02*
X12318Y20320D01*
X12318Y23800D02*
X12318Y23320D01*
X14318Y23800D02*
X14318Y23320D01*
X11318Y23800D02*
X11318Y23320D01*
X13318Y23800D02*
X13318Y23320D01*
X19437Y20800D02*
X19437Y20320D01*
X18437Y20800D02*
X18437Y20320D01*
X17437Y20800D02*
X17437Y20320D01*
X17437Y23800D02*
X17437Y23320D01*
X19437Y23800D02*
X19437Y23320D01*
X16437Y23800D02*
X16437Y23320D01*
X18437Y23800D02*
X18437Y23320D01*
X24555Y20800D02*
X24555Y20320D01*
X23555Y20800D02*
X23555Y20320D01*
X22555Y20800D02*
X22555Y20320D01*
X22555Y23800D02*
X22555Y23320D01*
X24555Y23800D02*
X24555Y23320D01*
X21555Y23800D02*
X21555Y23320D01*
X23555Y23800D02*
X23555Y23320D01*
X29673Y20800D02*
X29673Y20320D01*
X28673Y20800D02*
X28673Y20320D01*
X27673Y20800D02*
X27673Y20320D01*
X27673Y23800D02*
X27673Y23320D01*
X29673Y23800D02*
X29673Y23320D01*
X26673Y23800D02*
X26673Y23320D01*
X28673Y23800D02*
X28673Y23320D01*
X34791Y20800D02*
X34791Y20320D01*
X33791Y20800D02*
X33791Y20320D01*
X32791Y20800D02*
X32791Y20320D01*
X32791Y23800D02*
X32791Y23320D01*
X34791Y23800D02*
X34791Y23320D01*
X31791Y23800D02*
X31791Y23320D01*
X33791Y23800D02*
X33791Y23320D01*
D14*
G01X8500Y12975D02*
X8500Y13275D01*
X5500Y12975D02*
X5500Y13275D01*
X9500Y12975D02*
X9500Y13275D01*
X7500Y12975D02*
X7500Y13275D01*
X6500Y12975D02*
X6500Y13275D01*
X10500Y12975D02*
X10500Y13275D01*
X28185Y12975D02*
X28185Y13275D01*
X25185Y12975D02*
X25185Y13275D01*
X29185Y12975D02*
X29185Y13275D01*
X27185Y12975D02*
X27185Y13275D01*
X26185Y12975D02*
X26185Y13275D01*
X30185Y12975D02*
X30185Y13275D01*
X8308Y13317D02*
X8500Y13125D01*
X8308Y13830D02*
X8308Y13317D01*
X9596Y13221D02*
X9500Y13125D01*
X9596Y13866D02*
X9596Y13221D01*
X27993Y13317D02*
X28185Y13125D01*
X27993Y13830D02*
X27993Y13317D01*
X29281Y13221D02*
X29185Y13125D01*
X29281Y13866D02*
X29281Y13221D01*
D15*
G01X14512Y15000D03*
X34198Y15000D03*
D16*
G01X5250Y17500D03*
X6000Y2000D03*
X7378Y2000D03*
X13689Y2000D03*
X12311Y2000D03*
X15067Y2000D03*
X13061Y17750D03*
X24935Y17500D03*
X25685Y2000D03*
X27063Y2000D03*
X33374Y2000D03*
X31996Y2000D03*
X34752Y2000D03*
X32746Y17750D03*
D17*
G01X5088Y14230D02*
X3734Y12876D01*
X5132Y14230D02*
X5088Y14230D01*
X5132Y17382D02*
X5132Y14230D01*
X5250Y17500D02*
X5132Y17382D01*
X7908Y14230D02*
X5132Y14230D01*
X8308Y13830D02*
X7908Y14230D01*
X9596Y13866D02*
X12429Y16699D01*
X13420Y16699D01*
X14439Y17718D01*
X14439Y17750D01*
X1766Y12500D02*
X2000Y12266D01*
X1766Y12500D02*
X2000Y12734D01*
X2000Y12266D02*
X2000Y9500D01*
X2000Y12734D02*
X2000Y15500D01*
X3734Y12876D02*
X3734Y12500D01*
X4000Y8250D02*
X4000Y9500D01*
X4000Y12234D01*
X3734Y12500D01*
X24773Y14230D02*
X23419Y12876D01*
X24817Y14230D02*
X24773Y14230D01*
X24817Y17382D02*
X24817Y14230D01*
X24935Y17500D02*
X24817Y17382D01*
X27593Y14230D02*
X24817Y14230D01*
X27993Y13830D02*
X27593Y14230D01*
X29281Y13866D02*
X32114Y16699D01*
X33105Y16699D01*
X34124Y17718D01*
X34124Y17750D01*
X21451Y12500D02*
X21685Y12266D01*
X21451Y12500D02*
X21685Y12734D01*
X21685Y12266D02*
X21685Y9500D01*
X21685Y12734D02*
X21685Y15500D01*
X23419Y12876D02*
X23419Y12500D01*
X23685Y8250D02*
X23685Y9500D01*
X23685Y12234D01*
X23419Y12500D01*
D18*
G01X2000Y2000D03*
X2000Y17750D03*
X17750Y17750D03*
X17750Y2000D03*
X21685Y2000D03*
X21685Y17750D03*
X37435Y17750D03*
X37435Y2000D03*
X2000Y26409D03*
X2000Y36409D03*
X34750Y26409D03*
X34750Y36409D03*
G36*
X6856Y17106D02*
X7643Y17106D01*
X7643Y17893D01*
X6856Y17893D01*
X6856Y17106D01*
G37*
G36*
X2026Y12000D02*
X2026Y13000D01*
X1506Y13000D01*
X1506Y12000D01*
X2026Y12000D01*
G37*
G36*
X5015Y2393D02*
X4228Y2393D01*
X4228Y1606D01*
X5015Y1606D01*
X5015Y2393D01*
G37*
G36*
X11150Y12625D02*
X11850Y12625D01*
X11850Y13625D01*
X11150Y13625D01*
X11150Y12625D01*
G37*
G36*
X5153Y5957D02*
X11846Y5957D01*
X11846Y8792D01*
X5153Y8792D01*
X5153Y5957D01*
G37*
G36*
X5153Y8728D02*
X11846Y8728D01*
X11846Y12271D01*
X5153Y12271D01*
X5153Y8728D01*
G37*
G36*
X11326Y2393D02*
X10539Y2393D01*
X10539Y1606D01*
X11326Y1606D01*
X11326Y2393D01*
G37*
G36*
X18240Y6740D02*
X18760Y6740D01*
X18760Y7260D01*
X18240Y7260D01*
X18240Y6740D01*
G37*
G36*
X18240Y5740D02*
X18760Y5740D01*
X18760Y6260D01*
X18240Y6260D01*
X18240Y5740D01*
G37*
G36*
X15260Y9000D02*
X14740Y9000D01*
X14740Y8000D01*
X15260Y8000D01*
X15260Y9000D01*
G37*
G36*
X14760Y14260D02*
X14240Y14260D01*
X14240Y13740D01*
X14760Y13740D01*
X14760Y14260D01*
G37*
G36*
X14760Y13260D02*
X14240Y13260D01*
X14240Y12740D01*
X14760Y12740D01*
X14760Y13260D01*
G37*
G36*
X5740Y15240D02*
X6260Y15240D01*
X6260Y15760D01*
X5740Y15760D01*
X5740Y15240D01*
G37*
G36*
X18240Y15740D02*
X18760Y15740D01*
X18760Y16260D01*
X18240Y16260D01*
X18240Y15740D01*
G37*
G36*
X18132Y14645D02*
X18841Y14645D01*
X18841Y15354D01*
X18132Y15354D01*
X18132Y14645D01*
G37*
G36*
X4260Y7990D02*
X4260Y8510D01*
X3740Y8510D01*
X3740Y7990D01*
X4260Y7990D01*
G37*
G36*
X14045Y17356D02*
X14832Y17356D01*
X14832Y18143D01*
X14045Y18143D01*
X14045Y17356D01*
G37*
G36*
X12250Y15654D02*
X12250Y15134D01*
X13250Y15134D01*
X13250Y15654D01*
X12250Y15654D01*
G37*
G36*
X26541Y17106D02*
X27328Y17106D01*
X27328Y17893D01*
X26541Y17893D01*
X26541Y17106D01*
G37*
G36*
X21711Y12000D02*
X21711Y13000D01*
X21191Y13000D01*
X21191Y12000D01*
X21711Y12000D01*
G37*
G36*
X24700Y2393D02*
X23913Y2393D01*
X23913Y1606D01*
X24700Y1606D01*
X24700Y2393D01*
G37*
G36*
X30835Y12625D02*
X31535Y12625D01*
X31535Y13625D01*
X30835Y13625D01*
X30835Y12625D01*
G37*
G36*
X24838Y5957D02*
X31531Y5957D01*
X31531Y8792D01*
X24838Y8792D01*
X24838Y5957D01*
G37*
G36*
X24838Y8728D02*
X31531Y8728D01*
X31531Y12271D01*
X24838Y12271D01*
X24838Y8728D01*
G37*
G36*
X31011Y2393D02*
X30224Y2393D01*
X30224Y1606D01*
X31011Y1606D01*
X31011Y2393D01*
G37*
G36*
X37925Y6740D02*
X38445Y6740D01*
X38445Y7260D01*
X37925Y7260D01*
X37925Y6740D01*
G37*
G36*
X37925Y5740D02*
X38445Y5740D01*
X38445Y6260D01*
X37925Y6260D01*
X37925Y5740D01*
G37*
G36*
X34945Y9000D02*
X34425Y9000D01*
X34425Y8000D01*
X34945Y8000D01*
X34945Y9000D01*
G37*
G36*
X34445Y14260D02*
X33925Y14260D01*
X33925Y13740D01*
X34445Y13740D01*
X34445Y14260D01*
G37*
G36*
X34445Y13260D02*
X33925Y13260D01*
X33925Y12740D01*
X34445Y12740D01*
X34445Y13260D01*
G37*
G36*
X25425Y15240D02*
X25945Y15240D01*
X25945Y15760D01*
X25425Y15760D01*
X25425Y15240D01*
G37*
G36*
X37925Y15740D02*
X38445Y15740D01*
X38445Y16260D01*
X37925Y16260D01*
X37925Y15740D01*
G37*
G36*
X37818Y14645D02*
X38527Y14645D01*
X38527Y15354D01*
X37818Y15354D01*
X37818Y14645D01*
G37*
G36*
X23945Y7990D02*
X23945Y8510D01*
X23425Y8510D01*
X23425Y7990D01*
X23945Y7990D01*
G37*
G36*
X33730Y17356D02*
X34517Y17356D01*
X34517Y18143D01*
X33730Y18143D01*
X33730Y17356D01*
G37*
G36*
X31935Y15654D02*
X31935Y15134D01*
X32935Y15134D01*
X32935Y15654D01*
X31935Y15654D01*
G37*
G36*
X27740Y34909D02*
X28260Y34909D01*
X28260Y35909D01*
X27740Y35909D01*
X27740Y34909D01*
G37*
G36*
X2369Y34386D02*
X2369Y34906D01*
X1569Y34906D01*
X1569Y34386D01*
X2369Y34386D01*
G37*
G36*
X2369Y30449D02*
X2369Y30969D01*
X1569Y30969D01*
X1569Y30449D01*
X2369Y30449D01*
G37*
G36*
X35439Y34386D02*
X35439Y34906D01*
X34639Y34906D01*
X34639Y34386D01*
X35439Y34386D01*
G37*
G36*
X35439Y30646D02*
X35439Y31166D01*
X34639Y31166D01*
X34639Y30646D01*
X35439Y30646D01*
G37*
G36*
X27400Y33149D02*
X27400Y33669D01*
X26600Y33669D01*
X26600Y33149D01*
X27400Y33149D01*
G37*
G36*
X26400Y33149D02*
X26400Y33669D01*
X25600Y33669D01*
X25600Y33149D01*
X26400Y33149D01*
G37*
G36*
X26740Y26149D02*
X27260Y26149D01*
X27260Y26669D01*
X26740Y26669D01*
X26740Y26149D01*
G37*
G36*
X24740Y26149D02*
X25260Y26149D01*
X25260Y26669D01*
X24740Y26669D01*
X24740Y26149D01*
G37*
G36*
X20740Y26149D02*
X21260Y26149D01*
X21260Y26669D01*
X20740Y26669D01*
X20740Y26149D01*
G37*
G36*
X12510Y30909D02*
X11990Y30909D01*
X11990Y29909D01*
X12510Y29909D01*
X12510Y30909D01*
G37*
G36*
X6350Y32488D02*
X6350Y31968D01*
X7150Y31968D01*
X7150Y32488D01*
X6350Y32488D01*
G37*
G36*
X7150Y30581D02*
X7150Y31101D01*
X6350Y31101D01*
X6350Y30581D01*
X7150Y30581D01*
G37*
G36*
X10510Y33149D02*
X10510Y33669D01*
X9990Y33669D01*
X9990Y33149D01*
X10510Y33149D01*
G37*
G36*
X3747Y22438D02*
X3747Y22182D01*
X4416Y22182D01*
X4416Y22438D01*
X3747Y22438D01*
G37*
G36*
X830Y22438D02*
X830Y22182D01*
X1499Y22182D01*
X1499Y22438D01*
X830Y22438D01*
G37*
G36*
X830Y21438D02*
X830Y21182D01*
X1499Y21182D01*
X1499Y21438D01*
X830Y21438D01*
G37*
G36*
X830Y21938D02*
X830Y21682D01*
X1499Y21682D01*
X1499Y21938D01*
X830Y21938D01*
G37*
G36*
X830Y22938D02*
X830Y22682D01*
X1499Y22682D01*
X1499Y22938D01*
X830Y22938D01*
G37*
G36*
X3747Y22938D02*
X3747Y22682D01*
X4416Y22682D01*
X4416Y22938D01*
X3747Y22938D01*
G37*
G36*
X3747Y21938D02*
X3747Y21682D01*
X4416Y21682D01*
X4416Y21938D01*
X3747Y21938D01*
G37*
G36*
X3747Y21438D02*
X3747Y21182D01*
X4416Y21182D01*
X4416Y21438D01*
X3747Y21438D01*
G37*
G36*
X1342Y21060D02*
X822Y21060D01*
X822Y20060D01*
X1342Y20060D01*
X1342Y21060D01*
G37*
G36*
X8865Y22438D02*
X8865Y22182D01*
X9534Y22182D01*
X9534Y22438D01*
X8865Y22438D01*
G37*
G36*
X5948Y22438D02*
X5948Y22182D01*
X6617Y22182D01*
X6617Y22438D01*
X5948Y22438D01*
G37*
G36*
X5948Y21438D02*
X5948Y21182D01*
X6617Y21182D01*
X6617Y21438D01*
X5948Y21438D01*
G37*
G36*
X5948Y21938D02*
X5948Y21682D01*
X6617Y21682D01*
X6617Y21938D01*
X5948Y21938D01*
G37*
G36*
X5948Y22938D02*
X5948Y22682D01*
X6617Y22682D01*
X6617Y22938D01*
X5948Y22938D01*
G37*
G36*
X8865Y22938D02*
X8865Y22682D01*
X9534Y22682D01*
X9534Y22938D01*
X8865Y22938D01*
G37*
G36*
X8865Y21938D02*
X8865Y21682D01*
X9534Y21682D01*
X9534Y21938D01*
X8865Y21938D01*
G37*
G36*
X8865Y21438D02*
X8865Y21182D01*
X9534Y21182D01*
X9534Y21438D01*
X8865Y21438D01*
G37*
G36*
X6460Y21060D02*
X5940Y21060D01*
X5940Y20060D01*
X6460Y20060D01*
X6460Y21060D01*
G37*
G36*
X13983Y22438D02*
X13983Y22182D01*
X14652Y22182D01*
X14652Y22438D01*
X13983Y22438D01*
G37*
G36*
X11066Y22438D02*
X11066Y22182D01*
X11735Y22182D01*
X11735Y22438D01*
X11066Y22438D01*
G37*
G36*
X11066Y21438D02*
X11066Y21182D01*
X11735Y21182D01*
X11735Y21438D01*
X11066Y21438D01*
G37*
G36*
X11066Y21938D02*
X11066Y21682D01*
X11735Y21682D01*
X11735Y21938D01*
X11066Y21938D01*
G37*
G36*
X11066Y22938D02*
X11066Y22682D01*
X11735Y22682D01*
X11735Y22938D01*
X11066Y22938D01*
G37*
G36*
X13983Y22938D02*
X13983Y22682D01*
X14652Y22682D01*
X14652Y22938D01*
X13983Y22938D01*
G37*
G36*
X13983Y21938D02*
X13983Y21682D01*
X14652Y21682D01*
X14652Y21938D01*
X13983Y21938D01*
G37*
G36*
X13983Y21438D02*
X13983Y21182D01*
X14652Y21182D01*
X14652Y21438D01*
X13983Y21438D01*
G37*
G36*
X11578Y21060D02*
X11058Y21060D01*
X11058Y20060D01*
X11578Y20060D01*
X11578Y21060D01*
G37*
G36*
X19101Y22438D02*
X19101Y22182D01*
X19770Y22182D01*
X19770Y22438D01*
X19101Y22438D01*
G37*
G36*
X16184Y22438D02*
X16184Y22182D01*
X16853Y22182D01*
X16853Y22438D01*
X16184Y22438D01*
G37*
G36*
X16184Y21438D02*
X16184Y21182D01*
X16853Y21182D01*
X16853Y21438D01*
X16184Y21438D01*
G37*
G36*
X16184Y21938D02*
X16184Y21682D01*
X16853Y21682D01*
X16853Y21938D01*
X16184Y21938D01*
G37*
G36*
X16184Y22938D02*
X16184Y22682D01*
X16853Y22682D01*
X16853Y22938D01*
X16184Y22938D01*
G37*
G36*
X19101Y22938D02*
X19101Y22682D01*
X19770Y22682D01*
X19770Y22938D01*
X19101Y22938D01*
G37*
G36*
X19101Y21938D02*
X19101Y21682D01*
X19770Y21682D01*
X19770Y21938D01*
X19101Y21938D01*
G37*
G36*
X19101Y21438D02*
X19101Y21182D01*
X19770Y21182D01*
X19770Y21438D01*
X19101Y21438D01*
G37*
G36*
X16697Y21060D02*
X16177Y21060D01*
X16177Y20060D01*
X16697Y20060D01*
X16697Y21060D01*
G37*
G36*
X24219Y22438D02*
X24219Y22182D01*
X24888Y22182D01*
X24888Y22438D01*
X24219Y22438D01*
G37*
G36*
X21302Y22438D02*
X21302Y22182D01*
X21971Y22182D01*
X21971Y22438D01*
X21302Y22438D01*
G37*
G36*
X21302Y21438D02*
X21302Y21182D01*
X21971Y21182D01*
X21971Y21438D01*
X21302Y21438D01*
G37*
G36*
X21302Y21938D02*
X21302Y21682D01*
X21971Y21682D01*
X21971Y21938D01*
X21302Y21938D01*
G37*
G36*
X21302Y22938D02*
X21302Y22682D01*
X21971Y22682D01*
X21971Y22938D01*
X21302Y22938D01*
G37*
G36*
X24219Y22938D02*
X24219Y22682D01*
X24888Y22682D01*
X24888Y22938D01*
X24219Y22938D01*
G37*
G36*
X24219Y21938D02*
X24219Y21682D01*
X24888Y21682D01*
X24888Y21938D01*
X24219Y21938D01*
G37*
G36*
X24219Y21438D02*
X24219Y21182D01*
X24888Y21182D01*
X24888Y21438D01*
X24219Y21438D01*
G37*
G36*
X21815Y21060D02*
X21295Y21060D01*
X21295Y20060D01*
X21815Y20060D01*
X21815Y21060D01*
G37*
G36*
X29338Y22438D02*
X29338Y22182D01*
X30007Y22182D01*
X30007Y22438D01*
X29338Y22438D01*
G37*
G36*
X26420Y22438D02*
X26420Y22182D01*
X27089Y22182D01*
X27089Y22438D01*
X26420Y22438D01*
G37*
G36*
X26420Y21438D02*
X26420Y21182D01*
X27089Y21182D01*
X27089Y21438D01*
X26420Y21438D01*
G37*
G36*
X26420Y21938D02*
X26420Y21682D01*
X27089Y21682D01*
X27089Y21938D01*
X26420Y21938D01*
G37*
G36*
X26420Y22938D02*
X26420Y22682D01*
X27089Y22682D01*
X27089Y22938D01*
X26420Y22938D01*
G37*
G36*
X29338Y22938D02*
X29338Y22682D01*
X30007Y22682D01*
X30007Y22938D01*
X29338Y22938D01*
G37*
G36*
X29338Y21938D02*
X29338Y21682D01*
X30007Y21682D01*
X30007Y21938D01*
X29338Y21938D01*
G37*
G36*
X29338Y21438D02*
X29338Y21182D01*
X30007Y21182D01*
X30007Y21438D01*
X29338Y21438D01*
G37*
G36*
X26933Y21060D02*
X26413Y21060D01*
X26413Y20060D01*
X26933Y20060D01*
X26933Y21060D01*
G37*
G36*
X34456Y22438D02*
X34456Y22182D01*
X35125Y22182D01*
X35125Y22438D01*
X34456Y22438D01*
G37*
G36*
X31538Y22438D02*
X31538Y22182D01*
X32207Y22182D01*
X32207Y22438D01*
X31538Y22438D01*
G37*
G36*
X31538Y21438D02*
X31538Y21182D01*
X32207Y21182D01*
X32207Y21438D01*
X31538Y21438D01*
G37*
G36*
X31538Y21938D02*
X31538Y21682D01*
X32207Y21682D01*
X32207Y21938D01*
X31538Y21938D01*
G37*
G36*
X31538Y22938D02*
X31538Y22682D01*
X32207Y22682D01*
X32207Y22938D01*
X31538Y22938D01*
G37*
G36*
X34456Y22938D02*
X34456Y22682D01*
X35125Y22682D01*
X35125Y22938D01*
X34456Y22938D01*
G37*
G36*
X34456Y21938D02*
X34456Y21682D01*
X35125Y21682D01*
X35125Y21938D01*
X34456Y21938D01*
G37*
G36*
X34456Y21438D02*
X34456Y21182D01*
X35125Y21182D01*
X35125Y21438D01*
X34456Y21438D01*
G37*
G36*
X32051Y21060D02*
X31531Y21060D01*
X31531Y20060D01*
X32051Y20060D01*
X32051Y21060D01*
G37*
M02*
