%FSLAX24Y24*%
%MOIN*%
%ADD10C,0.0053*%
%ADD11C,0.0394*%
D10*
G01X4594Y9841D02*
X4620Y9788D01*
X4594Y9974D02*
X4594Y9841D01*
X4594Y10291D02*
X4779Y10079D01*
X4620Y9788D02*
X4647Y9762D01*
X4620Y10026D02*
X4594Y9974D01*
X4647Y9762D02*
X4700Y9735D01*
X4647Y10053D02*
X4620Y10026D01*
X4700Y9735D02*
X4858Y9735D01*
X4700Y10079D02*
X4647Y10053D01*
X4779Y10079D02*
X4700Y10079D01*
X4858Y9735D02*
X4911Y9762D01*
X4938Y9788D01*
X4938Y10291D02*
X4594Y10291D01*
X5123Y10132D02*
X5149Y10053D01*
X5123Y10185D02*
X5123Y10132D01*
X5149Y10053D02*
X5467Y9735D01*
X5149Y10238D02*
X5123Y10185D01*
X5176Y10265D02*
X5149Y10238D01*
X5229Y10291D02*
X5176Y10265D01*
X5361Y10291D02*
X5229Y10291D01*
X5414Y10265D02*
X5361Y10291D01*
X5440Y10238D02*
X5414Y10265D01*
X5467Y9735D02*
X5123Y9735D01*
X5652Y9947D02*
X5679Y9841D01*
X5652Y10079D02*
X5652Y9947D01*
X5679Y9841D02*
X5705Y9788D01*
X5679Y10185D02*
X5652Y10079D01*
X5705Y9788D02*
X5731Y9762D01*
X5705Y10238D02*
X5679Y10185D01*
X5731Y9762D02*
X5784Y9735D01*
X5731Y10265D02*
X5705Y10238D01*
X5784Y9735D02*
X5837Y9735D01*
X5784Y10291D02*
X5731Y10265D01*
X5837Y9735D02*
X5890Y9762D01*
X5837Y10291D02*
X5784Y10291D01*
X5890Y9762D02*
X5917Y9788D01*
X5890Y10265D02*
X5837Y10291D01*
X5917Y9788D02*
X5943Y9841D01*
X5917Y10238D02*
X5890Y10265D01*
X5943Y9841D02*
X5970Y9947D01*
X5943Y10185D02*
X5917Y10238D01*
X5970Y9947D02*
X5970Y10079D01*
X5943Y10185D01*
X6181Y10132D02*
X6208Y10053D01*
X6181Y10185D02*
X6181Y10132D01*
X6208Y10053D02*
X6525Y9735D01*
X6208Y10238D02*
X6181Y10185D01*
X6234Y10265D02*
X6208Y10238D01*
X6287Y10291D02*
X6234Y10265D01*
X6419Y10291D02*
X6287Y10291D01*
X6472Y10265D02*
X6419Y10291D01*
X6499Y10238D02*
X6472Y10265D01*
X6525Y9735D02*
X6181Y9735D01*
X7134Y10106D02*
X7081Y10106D01*
X7187Y10079D02*
X7134Y10106D01*
X7213Y10053D02*
X7187Y10079D01*
X7239Y9735D02*
X7239Y10106D01*
X7239Y10000D02*
X7213Y10053D01*
X7478Y9974D02*
X7742Y9921D01*
X7478Y10026D02*
X7478Y9974D01*
X7504Y9762D02*
X7557Y9735D01*
X7504Y10079D02*
X7478Y10026D01*
X7557Y9735D02*
X7663Y9735D01*
X7557Y10106D02*
X7504Y10079D01*
X7663Y9735D02*
X7716Y9762D01*
X7663Y10106D02*
X7557Y10106D01*
X7716Y9762D02*
X7742Y9815D01*
X7716Y10079D02*
X7663Y10106D01*
X7742Y9815D02*
X7742Y10026D01*
X7716Y10079D01*
X7954Y10265D02*
X7980Y10291D01*
X7980Y9735D02*
X7980Y10106D01*
X7980Y10238D02*
X7954Y10265D01*
X7980Y10291D02*
X7980Y10238D01*
X7980Y10291D02*
X8007Y10265D01*
X7980Y10238D01*
X8218Y10106D02*
X8165Y10106D01*
X8271Y10079D02*
X8218Y10106D01*
X8298Y10053D02*
X8271Y10079D01*
X8324Y9735D02*
X8324Y10106D01*
X8324Y10000D02*
X8298Y10053D01*
X8668Y9735D02*
X8536Y10106D01*
X8800Y10106D02*
X8668Y9735D01*
X8985Y9974D02*
X9250Y9921D01*
X8985Y10026D02*
X8985Y9974D01*
X9012Y9762D02*
X9065Y9735D01*
X9012Y10079D02*
X8985Y10026D01*
X9065Y9735D02*
X9171Y9735D01*
X9065Y10106D02*
X9012Y10079D01*
X9065Y10317D02*
X9144Y10238D01*
X9171Y9735D02*
X9224Y9762D01*
X9171Y10106D02*
X9065Y10106D01*
X9224Y9762D02*
X9250Y9815D01*
X9224Y10079D02*
X9171Y10106D01*
X9250Y9815D02*
X9250Y10026D01*
X9224Y10079D01*
X9462Y10291D02*
X9409Y10291D01*
X9515Y10265D02*
X9462Y10291D01*
X9541Y9735D02*
X9541Y10212D01*
X9515Y10265D01*
X9620Y10106D02*
X9409Y10106D01*
X10652Y9947D02*
X10229Y9947D01*
X11313Y9841D02*
X11340Y9788D01*
X11313Y10000D02*
X11313Y9841D01*
X11340Y9788D02*
X11366Y9762D01*
X11340Y10053D02*
X11313Y10000D01*
X11366Y9762D02*
X11419Y9735D01*
X11366Y10079D02*
X11340Y10053D01*
X11419Y9735D02*
X11499Y9735D01*
X11419Y10106D02*
X11366Y10079D01*
X11499Y9735D02*
X11552Y9762D01*
X11499Y10106D02*
X11419Y10106D01*
X11552Y9762D02*
X11578Y9788D01*
X11552Y10079D02*
X11499Y10106D01*
X11578Y9788D02*
X11604Y9841D01*
X11578Y10053D02*
X11552Y10079D01*
X11604Y9841D02*
X11604Y10000D01*
X11578Y10053D01*
X11816Y10106D02*
X11763Y10106D01*
X11869Y10079D02*
X11816Y10106D01*
X11895Y10053D02*
X11869Y10079D01*
X11922Y9735D02*
X11922Y10106D01*
X11922Y10000D02*
X11895Y10053D01*
X12187Y9735D02*
X12187Y10026D01*
X12187Y9762D02*
X12239Y9735D01*
X12187Y10026D02*
X12213Y10079D01*
X12266Y10106D01*
X12239Y9735D02*
X12372Y9735D01*
X12239Y9947D02*
X12187Y9974D01*
X12266Y10106D02*
X12372Y10106D01*
X12372Y9735D02*
X12425Y9762D01*
X12372Y9947D02*
X12239Y9947D01*
X12372Y10106D02*
X12425Y10079D01*
X12425Y9762D02*
X12451Y9815D01*
X12425Y9921D02*
X12372Y9947D01*
X12451Y9815D02*
X12451Y9868D01*
X12425Y9921D01*
X12689Y10026D02*
X12689Y9735D01*
X12716Y10079D02*
X12689Y10026D01*
X12769Y10106D02*
X12716Y10079D01*
X12848Y10106D02*
X12769Y10106D01*
X12901Y10079D02*
X12848Y10106D01*
X12927Y10053D02*
X12901Y10079D01*
X12927Y10106D02*
X12927Y9735D01*
X13165Y10265D02*
X13192Y10291D01*
X13192Y9735D02*
X13192Y10106D01*
X13192Y10238D02*
X13165Y10265D01*
X13192Y10291D02*
X13192Y10238D01*
X13192Y10291D02*
X13218Y10265D01*
X13192Y10238D01*
X13403Y9735D02*
X13456Y9762D01*
X13483Y9815D01*
X13483Y10291D01*
X13721Y9841D02*
X13747Y9788D01*
X13721Y10000D02*
X13721Y9841D01*
X13747Y9788D02*
X13774Y9762D01*
X13747Y10053D02*
X13721Y10000D01*
X13774Y9762D02*
X13827Y9735D01*
X13774Y10079D02*
X13747Y10053D01*
X13827Y9735D02*
X13906Y9735D01*
X13827Y10106D02*
X13774Y10079D01*
X13906Y9735D02*
X13959Y9762D01*
X13906Y10106D02*
X13827Y10106D01*
X13959Y9762D02*
X13985Y9788D01*
X13959Y10079D02*
X13906Y10106D01*
X13985Y9788D02*
X14012Y9841D01*
X13985Y10053D02*
X13959Y10079D01*
X14012Y9841D02*
X14012Y10000D01*
X13985Y10053D01*
X14250Y10291D02*
X14250Y9735D01*
X14435Y9894D02*
X14250Y10291D01*
X14620Y9735D02*
X14620Y10291D01*
X14435Y9894D01*
X15282Y9974D02*
X15546Y9921D01*
X15282Y10026D02*
X15282Y9974D01*
X15308Y9762D02*
X15361Y9735D01*
X15308Y10079D02*
X15282Y10026D01*
X15361Y9735D02*
X15467Y9735D01*
X15361Y10106D02*
X15308Y10079D01*
X15467Y9735D02*
X15520Y9762D01*
X15467Y10106D02*
X15361Y10106D01*
X15520Y9762D02*
X15546Y9815D01*
X15520Y10079D02*
X15467Y10106D01*
X15546Y9815D02*
X15546Y10026D01*
X15520Y10079D01*
X15758Y10106D02*
X15705Y10106D01*
X15811Y10079D02*
X15758Y10106D01*
X15837Y10053D02*
X15811Y10079D01*
X15864Y9735D02*
X15864Y10106D01*
X15864Y10000D02*
X15837Y10053D01*
X16102Y10106D02*
X16049Y10106D01*
X16155Y10079D02*
X16102Y10106D01*
X16181Y10053D02*
X16155Y10079D01*
X16208Y9735D02*
X16208Y10106D01*
X16208Y10000D02*
X16181Y10053D01*
X16446Y9974D02*
X16710Y9921D01*
X16446Y10026D02*
X16446Y9974D01*
X16472Y9762D02*
X16525Y9735D01*
X16472Y10079D02*
X16446Y10026D01*
X16525Y9735D02*
X16631Y9735D01*
X16525Y10106D02*
X16472Y10079D01*
X16631Y9735D02*
X16684Y9762D01*
X16631Y10106D02*
X16525Y10106D01*
X16684Y9762D02*
X16710Y9815D01*
X16684Y10079D02*
X16631Y10106D01*
X16710Y9815D02*
X16710Y10026D01*
X16684Y10079D01*
X16922Y10265D02*
X16948Y10291D01*
X16948Y9735D02*
X16948Y10106D01*
X16948Y10238D02*
X16922Y10265D01*
X16948Y10291D02*
X16948Y10238D01*
X16948Y10291D02*
X16975Y10265D01*
X16948Y10238D01*
X17187Y10106D02*
X17213Y10053D01*
X17187Y10185D02*
X17187Y10106D01*
X17213Y10053D02*
X17239Y10026D01*
X17213Y10238D02*
X17187Y10185D01*
X17239Y10026D02*
X17292Y10000D01*
X17239Y10265D02*
X17213Y10238D01*
X17292Y10000D02*
X17504Y10000D01*
X17292Y10291D02*
X17239Y10265D01*
X17504Y9735D02*
X17504Y10291D01*
X17292Y10291D01*
X18165Y10000D02*
X18192Y10132D01*
X18192Y9868D02*
X18165Y10000D01*
X18192Y10132D02*
X18271Y10265D01*
X18271Y9735D02*
X18192Y9868D01*
X18271Y10265D02*
X18403Y10344D01*
X18403Y9656D02*
X18271Y9735D01*
X18403Y10344D02*
X18536Y10370D01*
X18430Y10159D02*
X18483Y10185D01*
X18483Y9815D02*
X18430Y9841D01*
X18483Y10185D02*
X18589Y10185D01*
X18536Y9630D02*
X18403Y9656D01*
X18536Y10370D02*
X18668Y10344D01*
X18589Y9815D02*
X18483Y9815D01*
X18589Y10185D02*
X18642Y10159D01*
X18642Y9841D02*
X18589Y9815D01*
X18642Y10159D02*
X18694Y10106D01*
X18668Y9656D02*
X18536Y9630D01*
X18668Y10344D02*
X18800Y10265D01*
X18694Y9894D02*
X18642Y9841D01*
X18694Y10106D02*
X18721Y10053D01*
X18721Y9947D02*
X18694Y9894D01*
X18721Y10053D02*
X18721Y9947D01*
X18800Y9735D02*
X18668Y9656D01*
X18800Y10265D02*
X18880Y10132D01*
X18880Y9868D02*
X18800Y9735D01*
X18880Y10132D02*
X18906Y10000D01*
X18880Y9868D01*
X24279Y9841D02*
X24305Y9788D01*
X24279Y9974D02*
X24279Y9841D01*
X24279Y10291D02*
X24464Y10079D01*
X24305Y9788D02*
X24332Y9762D01*
X24305Y10026D02*
X24279Y9974D01*
X24332Y9762D02*
X24385Y9735D01*
X24332Y10053D02*
X24305Y10026D01*
X24385Y9735D02*
X24544Y9735D01*
X24385Y10079D02*
X24332Y10053D01*
X24464Y10079D02*
X24385Y10079D01*
X24544Y9735D02*
X24596Y9762D01*
X24623Y9788D01*
X24623Y10291D02*
X24279Y10291D01*
X24808Y10132D02*
X24835Y10053D01*
X24808Y10185D02*
X24808Y10132D01*
X24835Y10053D02*
X25152Y9735D01*
X24835Y10238D02*
X24808Y10185D01*
X24861Y10265D02*
X24835Y10238D01*
X24914Y10291D02*
X24861Y10265D01*
X25046Y10291D02*
X24914Y10291D01*
X25099Y10265D02*
X25046Y10291D01*
X25126Y10238D02*
X25099Y10265D01*
X25152Y9735D02*
X24808Y9735D01*
X25337Y9947D02*
X25364Y9841D01*
X25337Y10079D02*
X25337Y9947D01*
X25364Y9841D02*
X25390Y9788D01*
X25364Y10185D02*
X25337Y10079D01*
X25390Y9788D02*
X25417Y9762D01*
X25390Y10238D02*
X25364Y10185D01*
X25417Y9762D02*
X25469Y9735D01*
X25417Y10265D02*
X25390Y10238D01*
X25469Y9735D02*
X25522Y9735D01*
X25469Y10291D02*
X25417Y10265D01*
X25522Y9735D02*
X25575Y9762D01*
X25522Y10291D02*
X25469Y10291D01*
X25575Y9762D02*
X25602Y9788D01*
X25575Y10265D02*
X25522Y10291D01*
X25602Y9788D02*
X25628Y9841D01*
X25602Y10238D02*
X25575Y10265D01*
X25628Y9841D02*
X25655Y9947D01*
X25628Y10185D02*
X25602Y10238D01*
X25655Y9947D02*
X25655Y10079D01*
X25628Y10185D01*
X25866Y10132D02*
X25893Y10053D01*
X25866Y10185D02*
X25866Y10132D01*
X25893Y10053D02*
X26210Y9735D01*
X25893Y10238D02*
X25866Y10185D01*
X25919Y10265D02*
X25893Y10238D01*
X25972Y10291D02*
X25919Y10265D01*
X26104Y10291D02*
X25972Y10291D01*
X26157Y10265D02*
X26104Y10291D01*
X26184Y10238D02*
X26157Y10265D01*
X26210Y9735D02*
X25866Y9735D01*
X26819Y10106D02*
X26766Y10106D01*
X26872Y10079D02*
X26819Y10106D01*
X26898Y10053D02*
X26872Y10079D01*
X26924Y9735D02*
X26924Y10106D01*
X26924Y10000D02*
X26898Y10053D01*
X27163Y9974D02*
X27427Y9921D01*
X27163Y10026D02*
X27163Y9974D01*
X27189Y9762D02*
X27242Y9735D01*
X27189Y10079D02*
X27163Y10026D01*
X27242Y9735D02*
X27348Y9735D01*
X27242Y10106D02*
X27189Y10079D01*
X27348Y9735D02*
X27401Y9762D01*
X27348Y10106D02*
X27242Y10106D01*
X27401Y9762D02*
X27427Y9815D01*
X27401Y10079D02*
X27348Y10106D01*
X27427Y9815D02*
X27427Y10026D01*
X27401Y10079D01*
X27639Y10265D02*
X27665Y10291D01*
X27665Y9735D02*
X27665Y10106D01*
X27665Y10238D02*
X27639Y10265D01*
X27665Y10291D02*
X27665Y10238D01*
X27665Y10291D02*
X27692Y10265D01*
X27665Y10238D01*
X27903Y10106D02*
X27850Y10106D01*
X27956Y10079D02*
X27903Y10106D01*
X27983Y10053D02*
X27956Y10079D01*
X28009Y9735D02*
X28009Y10106D01*
X28009Y10000D02*
X27983Y10053D01*
X28353Y9735D02*
X28221Y10106D01*
X28485Y10106D02*
X28353Y9735D01*
X28670Y9974D02*
X28935Y9921D01*
X28670Y10026D02*
X28670Y9974D01*
X28697Y9762D02*
X28750Y9735D01*
X28697Y10079D02*
X28670Y10026D01*
X28750Y9735D02*
X28856Y9735D01*
X28750Y10106D02*
X28697Y10079D01*
X28750Y10317D02*
X28829Y10238D01*
X28856Y9735D02*
X28909Y9762D01*
X28856Y10106D02*
X28750Y10106D01*
X28909Y9762D02*
X28935Y9815D01*
X28909Y10079D02*
X28856Y10106D01*
X28935Y9815D02*
X28935Y10026D01*
X28909Y10079D01*
X29147Y10291D02*
X29094Y10291D01*
X29200Y10265D02*
X29147Y10291D01*
X29226Y9735D02*
X29226Y10212D01*
X29200Y10265D01*
X29305Y10106D02*
X29094Y10106D01*
X30337Y9947D02*
X29914Y9947D01*
X30999Y9841D02*
X31025Y9788D01*
X30999Y10000D02*
X30999Y9841D01*
X31025Y9788D02*
X31051Y9762D01*
X31025Y10053D02*
X30999Y10000D01*
X31051Y9762D02*
X31104Y9735D01*
X31051Y10079D02*
X31025Y10053D01*
X31104Y9735D02*
X31184Y9735D01*
X31104Y10106D02*
X31051Y10079D01*
X31184Y9735D02*
X31237Y9762D01*
X31184Y10106D02*
X31104Y10106D01*
X31237Y9762D02*
X31263Y9788D01*
X31237Y10079D02*
X31184Y10106D01*
X31263Y9788D02*
X31290Y9841D01*
X31263Y10053D02*
X31237Y10079D01*
X31290Y9841D02*
X31290Y10000D01*
X31263Y10053D01*
X31501Y10106D02*
X31448Y10106D01*
X31554Y10079D02*
X31501Y10106D01*
X31581Y10053D02*
X31554Y10079D01*
X31607Y9735D02*
X31607Y10106D01*
X31607Y10000D02*
X31581Y10053D01*
X31872Y9735D02*
X31872Y10026D01*
X31872Y9762D02*
X31924Y9735D01*
X31872Y10026D02*
X31898Y10079D01*
X31951Y10106D01*
X31924Y9735D02*
X32057Y9735D01*
X31924Y9947D02*
X31872Y9974D01*
X31951Y10106D02*
X32057Y10106D01*
X32057Y9735D02*
X32110Y9762D01*
X32057Y9947D02*
X31924Y9947D01*
X32057Y10106D02*
X32110Y10079D01*
X32110Y9762D02*
X32136Y9815D01*
X32110Y9921D02*
X32057Y9947D01*
X32136Y9815D02*
X32136Y9868D01*
X32110Y9921D01*
X32374Y10026D02*
X32374Y9735D01*
X32401Y10079D02*
X32374Y10026D01*
X32454Y10106D02*
X32401Y10079D01*
X32533Y10106D02*
X32454Y10106D01*
X32586Y10079D02*
X32533Y10106D01*
X32612Y10053D02*
X32586Y10079D01*
X32612Y10106D02*
X32612Y9735D01*
X32850Y10265D02*
X32877Y10291D01*
X32877Y9735D02*
X32877Y10106D01*
X32877Y10238D02*
X32850Y10265D01*
X32877Y10291D02*
X32877Y10238D01*
X32877Y10291D02*
X32903Y10265D01*
X32877Y10238D01*
X33088Y9735D02*
X33141Y9762D01*
X33168Y9815D01*
X33168Y10291D01*
X33406Y9841D02*
X33432Y9788D01*
X33406Y10000D02*
X33406Y9841D01*
X33432Y9788D02*
X33459Y9762D01*
X33432Y10053D02*
X33406Y10000D01*
X33459Y9762D02*
X33512Y9735D01*
X33459Y10079D02*
X33432Y10053D01*
X33512Y9735D02*
X33591Y9735D01*
X33512Y10106D02*
X33459Y10079D01*
X33591Y9735D02*
X33644Y9762D01*
X33591Y10106D02*
X33512Y10106D01*
X33644Y9762D02*
X33670Y9788D01*
X33644Y10079D02*
X33591Y10106D01*
X33670Y9788D02*
X33697Y9841D01*
X33670Y10053D02*
X33644Y10079D01*
X33697Y9841D02*
X33697Y10000D01*
X33670Y10053D01*
X33935Y10291D02*
X33935Y9735D01*
X34120Y9894D02*
X33935Y10291D01*
X34305Y9735D02*
X34305Y10291D01*
X34120Y9894D01*
X34967Y9974D02*
X35231Y9921D01*
X34967Y10026D02*
X34967Y9974D01*
X34993Y9762D02*
X35046Y9735D01*
X34993Y10079D02*
X34967Y10026D01*
X35046Y9735D02*
X35152Y9735D01*
X35046Y10106D02*
X34993Y10079D01*
X35152Y9735D02*
X35205Y9762D01*
X35152Y10106D02*
X35046Y10106D01*
X35205Y9762D02*
X35231Y9815D01*
X35205Y10079D02*
X35152Y10106D01*
X35231Y9815D02*
X35231Y10026D01*
X35205Y10079D01*
X35443Y10106D02*
X35390Y10106D01*
X35496Y10079D02*
X35443Y10106D01*
X35522Y10053D02*
X35496Y10079D01*
X35549Y9735D02*
X35549Y10106D01*
X35549Y10000D02*
X35522Y10053D01*
X35787Y10106D02*
X35734Y10106D01*
X35840Y10079D02*
X35787Y10106D01*
X35866Y10053D02*
X35840Y10079D01*
X35893Y9735D02*
X35893Y10106D01*
X35893Y10000D02*
X35866Y10053D01*
X36131Y9974D02*
X36395Y9921D01*
X36131Y10026D02*
X36131Y9974D01*
X36157Y9762D02*
X36210Y9735D01*
X36157Y10079D02*
X36131Y10026D01*
X36210Y9735D02*
X36316Y9735D01*
X36210Y10106D02*
X36157Y10079D01*
X36316Y9735D02*
X36369Y9762D01*
X36316Y10106D02*
X36210Y10106D01*
X36369Y9762D02*
X36395Y9815D01*
X36369Y10079D02*
X36316Y10106D01*
X36395Y9815D02*
X36395Y10026D01*
X36369Y10079D01*
X36607Y10265D02*
X36633Y10291D01*
X36633Y9735D02*
X36633Y10106D01*
X36633Y10238D02*
X36607Y10265D01*
X36633Y10291D02*
X36633Y10238D01*
X36633Y10291D02*
X36660Y10265D01*
X36633Y10238D01*
X36872Y10106D02*
X36898Y10053D01*
X36872Y10185D02*
X36872Y10106D01*
X36898Y10053D02*
X36924Y10026D01*
X36898Y10238D02*
X36872Y10185D01*
X36924Y10026D02*
X36977Y10000D01*
X36924Y10265D02*
X36898Y10238D01*
X36977Y10000D02*
X37189Y10000D01*
X36977Y10291D02*
X36924Y10265D01*
X37189Y9735D02*
X37189Y10291D01*
X36977Y10291D01*
X37850Y10000D02*
X37877Y10132D01*
X37877Y9868D02*
X37850Y10000D01*
X37877Y10132D02*
X37956Y10265D01*
X37956Y9735D02*
X37877Y9868D01*
X37956Y10265D02*
X38088Y10344D01*
X38088Y9656D02*
X37956Y9735D01*
X38088Y10344D02*
X38221Y10370D01*
X38115Y10159D02*
X38168Y10185D01*
X38168Y9815D02*
X38115Y9841D01*
X38168Y10185D02*
X38274Y10185D01*
X38221Y9630D02*
X38088Y9656D01*
X38221Y10370D02*
X38353Y10344D01*
X38274Y9815D02*
X38168Y9815D01*
X38274Y10185D02*
X38327Y10159D01*
X38327Y9841D02*
X38274Y9815D01*
X38327Y10159D02*
X38379Y10106D01*
X38353Y9656D02*
X38221Y9630D01*
X38353Y10344D02*
X38485Y10265D01*
X38379Y9894D02*
X38327Y9841D01*
X38379Y10106D02*
X38406Y10053D01*
X38406Y9947D02*
X38379Y9894D01*
X38406Y10053D02*
X38406Y9947D01*
X38485Y9735D02*
X38353Y9656D01*
X38485Y10265D02*
X38565Y10132D01*
X38565Y9868D02*
X38485Y9735D01*
X38565Y10132D02*
X38591Y10000D01*
X38565Y9868D01*
D11*
G01X197Y197D02*
X197Y38583D01*
X39567Y38583D01*
X39567Y197D01*
X197Y197D01*
M02*
