M48
INCH
T1C0.0120
T2C0.0250
T3C0.0280
T4C0.0320
T5C0.0354
T6C0.0394
T7C0.0400
T8C0.0433
T9C0.0512
T10C0.0550
T11C0.0551
T12C0.1102
T13C0.1181
T14C0.1500
%
G05
M72
T1
X2.6641Y1.7288
X0.8758Y0.9552
X1.2734Y0.1734
X1.5356Y1.4228
X0.8427Y1.0176
T2
X1.1000Y1.7500
X1.0000Y1.7500
X1.0000Y1.4500
X1.6000Y1.7500
X1.4000Y1.7500
X1.5000Y1.7500
X1.4000Y1.3500
X1.3500Y1.6000
X1.2000Y1.3500
X1.0000Y1.3500
X1.0000Y1.5500
X1.3000Y1.3500
X1.2000Y1.7500
X1.5000Y1.3500
X1.3000Y1.7500
X1.6000Y1.3500
X1.3500Y1.5000
X1.0000Y1.6500
X1.1000Y1.3500
X0.5375Y3.6333
X0.5000Y3.8458
X0.2000Y3.4458
X0.6000Y3.8458
X0.6000Y3.4458
X0.7000Y3.4458
X0.2000Y3.8458
X0.1000Y3.8458
X0.7000Y3.7458
X0.4000Y3.8458
X0.3500Y3.5958
X0.3500Y3.6958
X0.1000Y3.4458
X0.7000Y3.5458
X0.5000Y3.4458
X0.7000Y3.6458
X0.7000Y3.8458
X0.3000Y3.4458
X0.4000Y3.4458
X0.3000Y3.8458
X1.3249Y3.6333
X1.2874Y3.8458
X0.9874Y3.4458
X1.3874Y3.8458
X1.3874Y3.4458
X1.4874Y3.4458
X0.9874Y3.8458
X0.8874Y3.8458
X1.4874Y3.7458
X1.1874Y3.8458
X1.1374Y3.5958
X1.1374Y3.6958
X0.8874Y3.4458
X1.4874Y3.5458
X1.2874Y3.4458
X1.4874Y3.6458
X1.4874Y3.8458
X1.0874Y3.4458
X1.1874Y3.4458
X1.0874Y3.8458
X2.1123Y3.6333
X2.0748Y3.8458
X1.7748Y3.4458
X2.1748Y3.8458
X2.1748Y3.4458
X2.2748Y3.4458
X1.7748Y3.8458
X1.6748Y3.8458
X2.2748Y3.7458
X1.9748Y3.8458
X1.9248Y3.5958
X1.9248Y3.6958
X1.6748Y3.4458
X2.2748Y3.5458
X2.0748Y3.4458
X2.2748Y3.6458
X2.2748Y3.8458
X1.8748Y3.4458
X1.9748Y3.4458
X1.8748Y3.8458
X2.8997Y3.6333
X2.8622Y3.8458
X2.5622Y3.4458
X2.9622Y3.8458
X2.9622Y3.4458
X3.0622Y3.4458
X2.5622Y3.8458
X2.4622Y3.8458
X3.0622Y3.7458
X2.7622Y3.8458
X2.7122Y3.5958
X2.7122Y3.6958
X2.4622Y3.4458
X3.0622Y3.5458
X2.8622Y3.4458
X3.0622Y3.6458
X3.0622Y3.8458
X2.6622Y3.4458
X2.7622Y3.4458
X2.6622Y3.8458
X3.6871Y3.6333
X3.6496Y3.8458
X3.3496Y3.4458
X3.7496Y3.8458
X3.7496Y3.4458
X3.8496Y3.4458
X3.3496Y3.8458
X3.2496Y3.8458
X3.8496Y3.7458
X3.5496Y3.8458
X3.4996Y3.5958
X3.4996Y3.6958
X3.2496Y3.4458
X3.8496Y3.5458
X3.6496Y3.4458
X3.8496Y3.6458
X3.8496Y3.8458
X3.4496Y3.4458
X3.5496Y3.4458
X3.4496Y3.8458
T3
X1.3250Y0.8250
X0.5250Y0.8250
X1.1250Y0.7250
X1.3250Y0.7250
X0.7250Y0.7250
X0.8250Y0.2250
X1.4250Y0.2250
X0.7250Y0.2250
X0.9250Y0.7250
X0.4250Y0.8250
X0.7250Y0.3250
X1.0250Y0.2250
X0.6250Y0.8250
X0.8250Y0.3250
X1.2250Y0.3250
X0.9250Y0.2250
X0.9250Y0.3250
X1.0250Y0.7250
X1.2250Y0.8250
X1.3250Y0.2250
X1.4250Y0.8250
X0.6250Y0.7250
X1.0250Y0.3250
X0.8250Y0.7250
X0.9250Y0.8250
X0.3250Y0.8250
X1.1250Y0.2250
X0.4250Y0.2250
X1.2250Y0.2250
X1.4250Y0.7250
X1.4250Y0.3250
X1.3250Y0.3250
X0.7250Y0.8250
X0.8250Y0.8250
X0.4250Y0.7250
X1.4250Y0.5250
X1.1250Y0.3250
X0.3250Y0.2250
X0.5250Y0.7250
X0.1250Y0.8250
X1.4250Y0.6250
X0.2250Y0.8250
X1.2250Y0.7250
X0.6250Y0.2250
X1.1250Y0.8250
X0.5250Y0.2250
X0.1250Y0.2250
X1.4250Y0.4250
X0.2250Y0.2250
X0.2250Y0.7250
X1.0250Y0.8250
T4
X0.5500Y3.0250
X0.7500Y3.0250
X2.3500Y1.0750
X2.1500Y1.0750
X3.0500Y1.2250
X3.0500Y1.5250
X0.3000Y1.0250
X0.5000Y1.0250
X2.8500Y1.2750
X2.8500Y1.4750
X1.4500Y2.9750
X1.6500Y2.9750
X3.0500Y2.3250
X3.0500Y2.1250
X1.1000Y2.2000
X1.1000Y2.0000
X2.3000Y2.3250
X2.3000Y2.1250
X3.0500Y1.8250
X3.0500Y1.6250
X2.6250Y2.5500
X2.9250Y2.5500
X2.8000Y2.4250
X2.5000Y2.4250
X2.8000Y1.9750
X3.1000Y1.9750
X1.4500Y2.8500
X1.6500Y2.8500
X1.1000Y2.3250
X1.1000Y2.6250
X0.4500Y2.8500
X0.2500Y2.7500
X0.7500Y2.7500
X1.9500Y3.0750
X1.6500Y3.0750
X0.4250Y1.8750
X0.1250Y1.8750
X0.8000Y2.0250
X0.8000Y1.7250
X2.4500Y1.3750
X2.7500Y1.3750
X2.7500Y1.4750
X2.4500Y1.4750
X1.9500Y1.3250
X1.9500Y1.2250
X1.9500Y1.4250
X1.9500Y1.5250
X1.8000Y1.4750
X1.8000Y1.2750
X1.6000Y1.0250
X1.4000Y1.0250
X2.2000Y1.5750
X2.2000Y1.2750
X1.7500Y1.0750
X2.0500Y1.0750
X1.2000Y1.0750
X0.9000Y1.0750
X0.9000Y1.1750
X1.2000Y1.1750
X1.3000Y1.1250
X1.5000Y1.1250
X2.1000Y2.5750
X2.2000Y2.5750
X2.3000Y2.5750
X2.0000Y2.5750
X1.9000Y2.3750
X2.2000Y2.3750
X1.9561Y2.1250
X2.0939Y2.1250
X2.9000Y0.5750
X2.8000Y0.5750
X2.5000Y0.5750
X2.4000Y0.5750
X2.1000Y0.5750
X2.0000Y0.5750
X1.6000Y0.5500
X1.9000Y0.5500
X1.6000Y0.6500
X1.9000Y0.6500
X1.6000Y0.4500
X1.9000Y0.4500
X3.5500Y0.2000
X3.2500Y0.2000
X3.5500Y0.1000
X3.2500Y0.1000
X3.1250Y0.1500
X3.1250Y0.3500
X3.6500Y1.1250
X3.3500Y1.1250
X3.6500Y1.0250
X3.3500Y1.0250
X3.2000Y0.9250
X3.2000Y1.1250
X2.7500Y1.0250
X3.0500Y1.0250
X2.7500Y1.1250
X3.0500Y1.1250
X2.6500Y1.0250
X2.6500Y1.2250
T5
X3.3500Y1.4000
X3.2500Y1.5500
X3.3500Y1.5000
X3.2500Y1.4500
X3.3500Y2.0250
X3.2500Y2.1750
X3.3500Y2.1250
X3.2500Y2.0750
X3.3500Y2.6500
X3.2500Y2.8000
X3.3500Y2.7500
X3.2500Y2.7000
X2.8500Y2.7750
X2.7000Y2.6750
X2.7500Y2.7750
X2.8000Y2.6750
X0.5750Y2.4250
X0.6750Y2.2750
X0.5750Y2.3250
X0.6750Y2.3750
X0.5750Y1.5250
X0.6750Y1.3750
X0.5750Y1.4250
X0.6750Y1.4750
T6
X1.4375Y3.2375
X0.7375Y3.2375
X0.4375Y3.2375
X1.5375Y3.2375
X1.0375Y3.2375
X1.3375Y3.2375
X1.8375Y3.2375
X1.1375Y3.2375
X0.8375Y3.2375
X1.9375Y3.2375
X0.6375Y3.2375
X1.2375Y3.2375
X0.9375Y3.2375
X1.6375Y3.2375
X1.7375Y3.2375
X0.5375Y3.2375
T7
X2.2000Y0.3500
X2.2000Y0.1500
X1.9000Y0.1500
X1.9000Y0.3500
X2.6000Y0.3500
X2.6000Y0.1500
X2.3000Y0.1500
X2.3000Y0.3500
X3.0000Y0.3500
X3.0000Y0.1500
X2.7000Y0.1500
X2.7000Y0.3500
T8
X2.3012Y2.9250
X1.8987Y2.9250
X1.2500Y2.8262
X1.2500Y2.4237
X1.2500Y2.3262
X1.2500Y1.9237
X3.5000Y0.8854
X3.5984Y0.3146
X3.4016Y0.3146
X3.5984Y0.8854
X3.4016Y0.8854
T9
X2.1561Y3.2250
X2.2939Y3.2250
T10
X1.6750Y2.7250
X1.4750Y2.7250
X1.5750Y2.7250
T11
X3.1000Y0.8250
X1.9000Y0.8250
X2.9000Y0.8250
X2.1000Y0.8250
X2.7000Y0.8250
X2.5000Y0.8250
X2.3000Y0.8250
T12
X3.2441Y0.6098
X3.7559Y0.6098
T13
X3.6000Y1.6750
X3.6000Y1.2750
X3.6000Y2.3000
X3.6000Y1.9000
X3.6000Y2.9250
X3.6000Y2.5250
X2.5750Y3.0250
X2.9750Y3.0250
X0.1375Y3.2375
X0.1375Y1.0625
X3.8125Y1.0625
X3.8125Y3.2375
X0.3250Y2.1500
X0.3250Y2.5500
X0.3250Y1.2500
X0.3250Y1.6500
X3.7500Y0.1750
X3.6000Y3.1750
X0.3000Y3.0500
X0.2250Y0.4750
T14
X1.5750Y2.0250
T0
M30
