%FSLAX24Y24*%
%MOIN*%
%ADD10C,0.0139*%
%ADD11C,0.0394*%
D10*
G01X2564Y37540D02*
X1304Y37540D01*
X2564Y35493D02*
X1304Y35493D01*
X1304Y37540D01*
X2564Y35493D02*
X2564Y37540D01*
X1445Y35313D02*
X1501Y35336D01*
X1557Y35313D01*
X1580Y35257D01*
X1557Y35201D01*
X1501Y35178D01*
X1445Y35201D01*
X1422Y35257D01*
X1445Y35313D01*
X6125Y36958D02*
X6125Y37708D01*
X6125Y36958D02*
X4375Y36958D01*
X6125Y37708D02*
X4375Y37708D01*
X4375Y36958D02*
X4375Y37708D01*
X6125Y35083D02*
X6125Y35833D01*
X6125Y35083D02*
X4375Y35083D01*
X6125Y35833D02*
X4375Y35833D01*
X4375Y35083D02*
X4375Y35833D01*
X10438Y37540D02*
X9178Y37540D01*
X10438Y35493D02*
X9178Y35493D01*
X9178Y37540D01*
X10438Y35493D02*
X10438Y37540D01*
X9319Y35313D02*
X9375Y35336D01*
X9431Y35313D01*
X9454Y35257D01*
X9431Y35201D01*
X9375Y35178D01*
X9319Y35201D01*
X9296Y35257D01*
X9319Y35313D01*
X13999Y36958D02*
X13999Y37708D01*
X13999Y36958D02*
X12249Y36958D01*
X13999Y37708D02*
X12249Y37708D01*
X12249Y36958D02*
X12249Y37708D01*
X13999Y35083D02*
X13999Y35833D01*
X13999Y35083D02*
X12249Y35083D01*
X13999Y35833D02*
X12249Y35833D01*
X12249Y35083D02*
X12249Y35833D01*
X18312Y37540D02*
X17052Y37540D01*
X18312Y35493D02*
X17052Y35493D01*
X17052Y37540D01*
X18312Y35493D02*
X18312Y37540D01*
X17193Y35313D02*
X17249Y35336D01*
X17305Y35313D01*
X17328Y35257D01*
X17305Y35201D01*
X17249Y35178D01*
X17193Y35201D01*
X17170Y35257D01*
X17193Y35313D01*
X21873Y36958D02*
X21873Y37708D01*
X21873Y36958D02*
X20123Y36958D01*
X21873Y37708D02*
X20123Y37708D01*
X20123Y36958D02*
X20123Y37708D01*
X21873Y35083D02*
X21873Y35833D01*
X21873Y35083D02*
X20123Y35083D01*
X21873Y35833D02*
X20123Y35833D01*
X20123Y35083D02*
X20123Y35833D01*
X26186Y37540D02*
X24926Y37540D01*
X26186Y35493D02*
X24926Y35493D01*
X24926Y37540D01*
X26186Y35493D02*
X26186Y37540D01*
X25067Y35313D02*
X25123Y35336D01*
X25179Y35313D01*
X25202Y35257D01*
X25179Y35201D01*
X25123Y35178D01*
X25067Y35201D01*
X25044Y35257D01*
X25067Y35313D01*
X29747Y36958D02*
X29747Y37708D01*
X29747Y36958D02*
X27997Y36958D01*
X29747Y37708D02*
X27997Y37708D01*
X27997Y36958D02*
X27997Y37708D01*
X29747Y35083D02*
X29747Y35833D01*
X29747Y35083D02*
X27997Y35083D01*
X29747Y35833D02*
X27997Y35833D01*
X27997Y35083D02*
X27997Y35833D01*
X34060Y37540D02*
X32800Y37540D01*
X34060Y35493D02*
X32800Y35493D01*
X32800Y37540D01*
X34060Y35493D02*
X34060Y37540D01*
X32941Y35313D02*
X32997Y35336D01*
X33053Y35313D01*
X33076Y35257D01*
X33053Y35201D01*
X32997Y35178D01*
X32941Y35201D01*
X32918Y35257D01*
X32941Y35313D01*
X37621Y36958D02*
X37621Y37708D01*
X37621Y36958D02*
X35871Y36958D01*
X37621Y37708D02*
X35871Y37708D01*
X35871Y36958D02*
X35871Y37708D01*
X37621Y35083D02*
X37621Y35833D01*
X37621Y35083D02*
X35871Y35083D01*
X37621Y35833D02*
X35871Y35833D01*
X35871Y35083D02*
X35871Y35833D01*
D11*
G01X197Y197D02*
X197Y39173D01*
X39173Y39173D01*
X39173Y197D01*
X197Y197D01*
M02*
