%FSLAX24Y24*%
%MOIN*%
%ADD10C,0.0300*%
%ADD11C,0.0500*%
%ADD12C,0.0520*%
%ADD13C,0.0551*%
%ADD14C,0.0591*%
%ADD15C,0.0600*%
%ADD16C,0.0700*%
%ADD17C,0.0709*%
%ADD18C,0.0750*%
%ADD19C,0.0787*%
%ADD20C,0.0945*%
%ADD21C,0.1575*%
%ADD22C,0.2362*%
D10*
G01X26641Y17288D03*
X8758Y9552D03*
X12734Y1734D03*
X15356Y14228D03*
X8427Y10176D03*
D11*
G01X11000Y17500D03*
X10000Y17500D03*
X10000Y14500D03*
X14000Y17500D03*
X15000Y17500D03*
X14000Y13500D03*
X13500Y16000D03*
X12000Y13500D03*
X10000Y13500D03*
X10000Y15500D03*
X13000Y13500D03*
X12000Y17500D03*
X15000Y13500D03*
X13000Y17500D03*
X16000Y13500D03*
X13500Y15000D03*
X10000Y16500D03*
X11000Y13500D03*
X5000Y38458D03*
X2000Y34458D03*
X6000Y38458D03*
X6000Y34458D03*
X7000Y34458D03*
X2000Y38458D03*
X1000Y38458D03*
X7000Y37458D03*
X4000Y38458D03*
X3500Y35958D03*
X3500Y36958D03*
X7000Y35458D03*
X5000Y34458D03*
X7000Y36458D03*
X7000Y38458D03*
X3000Y34458D03*
X4000Y34458D03*
X3000Y38458D03*
X12874Y38458D03*
X9874Y34458D03*
X13874Y38458D03*
X13874Y34458D03*
X14874Y34458D03*
X9874Y38458D03*
X8874Y38458D03*
X14874Y37458D03*
X11874Y38458D03*
X11374Y35958D03*
X11374Y36958D03*
X14874Y35458D03*
X12874Y34458D03*
X14874Y36458D03*
X14874Y38458D03*
X10874Y34458D03*
X11874Y34458D03*
X10874Y38458D03*
X20748Y38458D03*
X17748Y34458D03*
X21748Y38458D03*
X21748Y34458D03*
X22748Y34458D03*
X17748Y38458D03*
X16748Y38458D03*
X22748Y37458D03*
X19748Y38458D03*
X19248Y35958D03*
X19248Y36958D03*
X22748Y35458D03*
X20748Y34458D03*
X22748Y36458D03*
X22748Y38458D03*
X18748Y34458D03*
X19748Y34458D03*
X18748Y38458D03*
X28622Y38458D03*
X25622Y34458D03*
X29622Y38458D03*
X29622Y34458D03*
X30622Y34458D03*
X25622Y38458D03*
X24622Y38458D03*
X30622Y37458D03*
X27622Y38458D03*
X27122Y35958D03*
X27122Y36958D03*
X30622Y35458D03*
X28622Y34458D03*
X30622Y36458D03*
X30622Y38458D03*
X26622Y34458D03*
X27622Y34458D03*
X26622Y38458D03*
X36496Y38458D03*
X33496Y34458D03*
X37496Y38458D03*
X37496Y34458D03*
X38496Y34458D03*
X33496Y38458D03*
X32496Y38458D03*
X38496Y37458D03*
X35496Y38458D03*
X34996Y35958D03*
X34996Y36958D03*
X38496Y35458D03*
X36496Y34458D03*
X38496Y36458D03*
X38496Y38458D03*
X34496Y34458D03*
X35496Y34458D03*
X34496Y38458D03*
D12*
G01X5500Y30250D03*
X7500Y30250D03*
X23500Y10750D03*
X21500Y10750D03*
X30500Y15250D03*
X3000Y10250D03*
X5000Y10250D03*
X28500Y12750D03*
X28500Y14750D03*
X14500Y29750D03*
X16500Y29750D03*
X30500Y23250D03*
X30500Y21250D03*
X11000Y22000D03*
X11000Y20000D03*
X23000Y23250D03*
X23000Y21250D03*
X30500Y18250D03*
X30500Y16250D03*
X29250Y25500D03*
X25000Y24250D03*
X31000Y19750D03*
X14500Y28500D03*
X16500Y28500D03*
X11000Y26250D03*
X16500Y30750D03*
X4490Y18750D02*
X4010Y18750D01*
X8000Y17250D03*
X27500Y13750D03*
X24500Y14750D03*
X19500Y13250D03*
X19500Y12250D03*
X19500Y14250D03*
X19500Y15250D03*
X18000Y14750D03*
X18000Y12750D03*
X16000Y10250D03*
X14000Y10250D03*
X22000Y12750D03*
X20500Y10750D03*
X9000Y10750D03*
X12000Y11750D03*
X13000Y11250D03*
X15000Y11250D03*
X21000Y25990D02*
X21000Y25510D01*
X22000Y25990D02*
X22000Y25510D01*
X23000Y25990D02*
X23000Y25510D01*
X22000Y23750D03*
X20939Y21010D02*
X20939Y21490D01*
X29000Y5750D03*
X25000Y5750D03*
X21000Y5750D03*
X19000Y5500D03*
X19000Y6500D03*
X19000Y4500D03*
X32500Y2000D03*
X32500Y1000D03*
X31250Y1500D03*
X31250Y3500D03*
X33500Y11250D03*
X33500Y10250D03*
X32000Y9250D03*
X32000Y11250D03*
X30500Y10250D03*
X30500Y11250D03*
X26500Y10250D03*
X26500Y12250D03*
D13*
G01X33500Y14000D03*
X32500Y15500D03*
X33500Y15000D03*
X32500Y14500D03*
X33500Y20250D03*
X32500Y21750D03*
X33500Y21250D03*
X32500Y20750D03*
X33500Y26500D03*
X32500Y28000D03*
X33500Y27500D03*
X32500Y27000D03*
X28500Y27750D03*
X27000Y26750D03*
X27500Y27750D03*
X28000Y26750D03*
X5750Y24250D03*
X6750Y22750D03*
X5750Y23250D03*
X6750Y23750D03*
X5750Y15250D03*
X6750Y13750D03*
X5750Y14250D03*
X6750Y14750D03*
D14*
G01X14375Y32580D02*
X14375Y32170D01*
X7375Y32580D02*
X7375Y32170D01*
X15375Y32580D02*
X15375Y32170D01*
X10375Y32580D02*
X10375Y32170D01*
X13375Y32580D02*
X13375Y32170D01*
X18375Y32580D02*
X18375Y32170D01*
X11375Y32580D02*
X11375Y32170D01*
X8375Y32580D02*
X8375Y32170D01*
X19375Y32580D02*
X19375Y32170D01*
X6375Y32580D02*
X6375Y32170D01*
X12375Y32580D02*
X12375Y32170D01*
X9375Y32580D02*
X9375Y32170D01*
X16375Y32580D02*
X16375Y32170D01*
X17375Y32580D02*
X17375Y32170D01*
X5375Y32580D02*
X5375Y32170D01*
D15*
G01X13250Y8250D03*
X5250Y8250D03*
X11250Y7250D03*
X13250Y7250D03*
X7250Y7250D03*
X8250Y2250D03*
X14250Y2250D03*
X7250Y2250D03*
X9250Y7250D03*
X4250Y8250D03*
X7250Y3250D03*
X10250Y2250D03*
X6250Y8250D03*
X8250Y3250D03*
X12250Y3250D03*
X9250Y2250D03*
X9250Y3250D03*
X10250Y7250D03*
X12250Y8250D03*
X13250Y2250D03*
X14250Y8250D03*
X6250Y7250D03*
X10250Y3250D03*
X8250Y7250D03*
X9250Y8250D03*
X3250Y8250D03*
X11250Y2250D03*
X4250Y2250D03*
X12250Y2250D03*
X14250Y7250D03*
X14250Y3250D03*
X13250Y3250D03*
X7250Y8250D03*
X8250Y8250D03*
X4250Y7250D03*
X14250Y5250D03*
X11250Y3250D03*
X3250Y2250D03*
X5250Y7250D03*
X1250Y8250D03*
X14250Y6250D03*
X2250Y8250D03*
X12250Y7250D03*
X6250Y2250D03*
X11250Y8250D03*
X5250Y2250D03*
X14250Y4250D03*
X2250Y2250D03*
X2250Y7250D03*
X10250Y8250D03*
X22000Y3700D02*
X22000Y3300D01*
X22000Y1700D02*
X22000Y1300D01*
X19000Y1700D02*
X19000Y1300D01*
X19000Y3700D02*
X19000Y3300D01*
X26000Y3700D02*
X26000Y3300D01*
X26000Y1700D02*
X26000Y1300D01*
X23000Y1700D02*
X23000Y1300D01*
X23000Y3700D02*
X23000Y3300D01*
X30000Y3700D02*
X30000Y3300D01*
X30000Y1700D02*
X30000Y1300D01*
X27000Y1700D02*
X27000Y1300D01*
X27000Y3700D02*
X27000Y3300D01*
D16*
G01X35000Y9004D02*
X35000Y8704D01*
X35984Y3296D02*
X35984Y2996D01*
X34016Y3296D02*
X34016Y2996D01*
X35984Y9004D02*
X35984Y8704D01*
X34016Y9004D02*
X34016Y8704D01*
D17*
G01X18987Y29250D03*
X12500Y24237D03*
X12500Y19237D03*
D18*
G01X14750Y27125D02*
X14750Y27375D01*
X15750Y27125D02*
X15750Y27375D01*
D19*
G01X22939Y32250D03*
D20*
G01X31000Y8250D03*
X19000Y8250D03*
X29000Y8250D03*
X21000Y8250D03*
X27000Y8250D03*
X25000Y8250D03*
X23000Y8250D03*
D21*
G01X36000Y16750D03*
X36000Y12750D03*
X36000Y23000D03*
X36000Y19000D03*
X36000Y29250D03*
X36000Y25250D03*
X25750Y30250D03*
X29750Y30250D03*
X1375Y32375D03*
X1375Y10625D03*
X38125Y10625D03*
X38125Y32375D03*
X3250Y21500D03*
X3250Y25500D03*
X3250Y12500D03*
X3250Y16500D03*
X32441Y6098D03*
X37559Y6098D03*
D22*
G01X37500Y1750D03*
X36000Y31750D03*
X3000Y30500D03*
X2250Y4750D03*
G36*
X22657Y28895D02*
X23366Y28895D01*
X23366Y29604D01*
X22657Y29604D01*
X22657Y28895D01*
G37*
G36*
X30240Y12510D02*
X30240Y11990D01*
X30760Y11990D01*
X30760Y12510D01*
X30240Y12510D01*
G37*
G36*
X21954Y32643D02*
X21167Y32643D01*
X21167Y31856D01*
X21954Y31856D01*
X21954Y32643D01*
G37*
G36*
X16375Y26750D02*
X17125Y26750D01*
X17125Y27750D01*
X16375Y27750D01*
X16375Y26750D01*
G37*
G36*
X13750Y21000D02*
X17750Y21000D01*
X17750Y25500D01*
X13750Y25500D01*
X13750Y21000D01*
G37*
G36*
X13750Y19050D02*
X17750Y19050D01*
X17750Y21450D01*
X13750Y21450D01*
X13750Y19050D01*
G37*
G36*
X26510Y25760D02*
X25990Y25760D01*
X25990Y25240D01*
X26510Y25240D01*
X26510Y25760D01*
G37*
G36*
X27740Y23990D02*
X28260Y23990D01*
X28260Y24510D01*
X27740Y24510D01*
X27740Y23990D01*
G37*
G36*
X28260Y20010D02*
X27740Y20010D01*
X27740Y19490D01*
X28260Y19490D01*
X28260Y20010D01*
G37*
G36*
X29118Y16492D02*
X28882Y16492D01*
X28882Y15882D01*
X29118Y15882D01*
X29118Y16492D01*
G37*
G36*
X27118Y18618D02*
X26882Y18618D01*
X26882Y18008D01*
X27118Y18008D01*
X27118Y18618D01*
G37*
G36*
X24618Y16492D02*
X24382Y16492D01*
X24382Y15882D01*
X24618Y15882D01*
X24618Y16492D01*
G37*
G36*
X25118Y16492D02*
X24882Y16492D01*
X24882Y15882D01*
X25118Y15882D01*
X25118Y16492D01*
G37*
G36*
X28118Y16492D02*
X27882Y16492D01*
X27882Y15882D01*
X28118Y15882D01*
X28118Y16492D01*
G37*
G36*
X27118Y16492D02*
X26882Y16492D01*
X26882Y15882D01*
X27118Y15882D01*
X27118Y16492D01*
G37*
G36*
X27618Y16492D02*
X27382Y16492D01*
X27382Y15882D01*
X27618Y15882D01*
X27618Y16492D01*
G37*
G36*
X25618Y18618D02*
X25382Y18618D01*
X25382Y18008D01*
X25618Y18008D01*
X25618Y18618D01*
G37*
G36*
X27618Y18618D02*
X27382Y18618D01*
X27382Y18008D01*
X27618Y18008D01*
X27618Y18618D01*
G37*
G36*
X28618Y16492D02*
X28382Y16492D01*
X28382Y15882D01*
X28618Y15882D01*
X28618Y16492D01*
G37*
G36*
X26118Y16492D02*
X25882Y16492D01*
X25882Y15882D01*
X26118Y15882D01*
X26118Y16492D01*
G37*
G36*
X28118Y18618D02*
X27882Y18618D01*
X27882Y18008D01*
X28118Y18008D01*
X28118Y18618D01*
G37*
G36*
X25618Y16492D02*
X25382Y16492D01*
X25382Y15882D01*
X25618Y15882D01*
X25618Y16492D01*
G37*
G36*
X28618Y18618D02*
X28382Y18618D01*
X28382Y18008D01*
X28618Y18008D01*
X28618Y18618D01*
G37*
G36*
X29118Y18618D02*
X28882Y18618D01*
X28882Y18008D01*
X29118Y18008D01*
X29118Y18618D01*
G37*
G36*
X26618Y16492D02*
X26382Y16492D01*
X26382Y15882D01*
X26618Y15882D01*
X26618Y16492D01*
G37*
G36*
X26118Y18618D02*
X25882Y18618D01*
X25882Y18008D01*
X26118Y18008D01*
X26118Y18618D01*
G37*
G36*
X26618Y18618D02*
X26382Y18618D01*
X26382Y18008D01*
X26618Y18008D01*
X26618Y18618D01*
G37*
G36*
X25118Y18618D02*
X24882Y18618D01*
X24882Y18008D01*
X25118Y18008D01*
X25118Y18618D01*
G37*
G36*
X24618Y18618D02*
X24382Y18618D01*
X24382Y18008D01*
X24618Y18008D01*
X24618Y18618D01*
G37*
G36*
X29118Y21242D02*
X28882Y21242D01*
X28882Y20632D01*
X29118Y20632D01*
X29118Y21242D01*
G37*
G36*
X27118Y23368D02*
X26882Y23368D01*
X26882Y22758D01*
X27118Y22758D01*
X27118Y23368D01*
G37*
G36*
X24618Y21242D02*
X24382Y21242D01*
X24382Y20632D01*
X24618Y20632D01*
X24618Y21242D01*
G37*
G36*
X25118Y21242D02*
X24882Y21242D01*
X24882Y20632D01*
X25118Y20632D01*
X25118Y21242D01*
G37*
G36*
X28118Y21242D02*
X27882Y21242D01*
X27882Y20632D01*
X28118Y20632D01*
X28118Y21242D01*
G37*
G36*
X27118Y21242D02*
X26882Y21242D01*
X26882Y20632D01*
X27118Y20632D01*
X27118Y21242D01*
G37*
G36*
X27618Y21242D02*
X27382Y21242D01*
X27382Y20632D01*
X27618Y20632D01*
X27618Y21242D01*
G37*
G36*
X25618Y23368D02*
X25382Y23368D01*
X25382Y22758D01*
X25618Y22758D01*
X25618Y23368D01*
G37*
G36*
X27618Y23368D02*
X27382Y23368D01*
X27382Y22758D01*
X27618Y22758D01*
X27618Y23368D01*
G37*
G36*
X28618Y21242D02*
X28382Y21242D01*
X28382Y20632D01*
X28618Y20632D01*
X28618Y21242D01*
G37*
G36*
X26118Y21242D02*
X25882Y21242D01*
X25882Y20632D01*
X26118Y20632D01*
X26118Y21242D01*
G37*
G36*
X28118Y23368D02*
X27882Y23368D01*
X27882Y22758D01*
X28118Y22758D01*
X28118Y23368D01*
G37*
G36*
X25618Y21242D02*
X25382Y21242D01*
X25382Y20632D01*
X25618Y20632D01*
X25618Y21242D01*
G37*
G36*
X28618Y23368D02*
X28382Y23368D01*
X28382Y22758D01*
X28618Y22758D01*
X28618Y23368D01*
G37*
G36*
X29118Y23368D02*
X28882Y23368D01*
X28882Y22758D01*
X29118Y22758D01*
X29118Y23368D01*
G37*
G36*
X26618Y21242D02*
X26382Y21242D01*
X26382Y20632D01*
X26618Y20632D01*
X26618Y21242D01*
G37*
G36*
X26118Y23368D02*
X25882Y23368D01*
X25882Y22758D01*
X26118Y22758D01*
X26118Y23368D01*
G37*
G36*
X26618Y23368D02*
X26382Y23368D01*
X26382Y22758D01*
X26618Y22758D01*
X26618Y23368D01*
G37*
G36*
X25118Y23368D02*
X24882Y23368D01*
X24882Y22758D01*
X25118Y22758D01*
X25118Y23368D01*
G37*
G36*
X24618Y23368D02*
X24382Y23368D01*
X24382Y22758D01*
X24618Y22758D01*
X24618Y23368D01*
G37*
G36*
X1550Y2550D02*
X950Y2550D01*
X950Y1950D01*
X1550Y1950D01*
X1550Y2550D01*
G37*
G36*
X12854Y27907D02*
X12854Y28616D01*
X12145Y28616D01*
X12145Y27907D01*
X12854Y27907D01*
G37*
G36*
X12854Y22907D02*
X12854Y23616D01*
X12145Y23616D01*
X12145Y22907D01*
X12854Y22907D01*
G37*
G36*
X10740Y23510D02*
X10740Y22990D01*
X11260Y22990D01*
X11260Y23510D01*
X10740Y23510D01*
G37*
G36*
X4670Y32875D02*
X4079Y32875D01*
X4079Y31875D01*
X4670Y31875D01*
X4670Y32875D01*
G37*
G36*
X4240Y28000D02*
X4760Y28000D01*
X4760Y29000D01*
X4240Y29000D01*
X4240Y28000D01*
G37*
G36*
X2240Y27000D02*
X2760Y27000D01*
X2760Y28000D01*
X2240Y28000D01*
X2240Y27000D01*
G37*
G36*
X7240Y27000D02*
X7760Y27000D01*
X7760Y28000D01*
X7240Y28000D01*
X7240Y27000D01*
G37*
G36*
X19240Y30490D02*
X19760Y30490D01*
X19760Y31010D01*
X19240Y31010D01*
X19240Y30490D01*
G37*
G36*
X1750Y18490D02*
X1750Y19010D01*
X750Y19010D01*
X750Y18490D01*
X1750Y18490D01*
G37*
G36*
X8260Y19990D02*
X8260Y20510D01*
X7740Y20510D01*
X7740Y19990D01*
X8260Y19990D01*
G37*
G36*
X15750Y17000D02*
X16250Y17000D01*
X16250Y18000D01*
X15750Y18000D01*
X15750Y17000D01*
G37*
G36*
X23090Y13305D02*
X22740Y13305D01*
X22740Y12995D01*
X23090Y12995D01*
X23090Y13305D01*
G37*
G36*
X23760Y13305D02*
X23410Y13305D01*
X23410Y12995D01*
X23760Y12995D01*
X23760Y13305D01*
G37*
G36*
X23760Y12505D02*
X23410Y12505D01*
X23410Y12195D01*
X23760Y12195D01*
X23760Y12505D01*
G37*
G36*
X23090Y12905D02*
X22740Y12905D01*
X22740Y12595D01*
X23090Y12595D01*
X23090Y12905D01*
G37*
G36*
X23090Y12505D02*
X22740Y12505D01*
X22740Y12195D01*
X23090Y12195D01*
X23090Y12505D01*
G37*
G36*
X24760Y14010D02*
X24240Y14010D01*
X24240Y13490D01*
X24760Y13490D01*
X24760Y14010D01*
G37*
G36*
X27240Y14490D02*
X27760Y14490D01*
X27760Y15010D01*
X27240Y15010D01*
X27240Y14490D01*
G37*
G36*
X22260Y15490D02*
X22260Y16010D01*
X21740Y16010D01*
X21740Y15490D01*
X22260Y15490D01*
G37*
G36*
X17760Y11010D02*
X17240Y11010D01*
X17240Y10490D01*
X17760Y10490D01*
X17760Y11010D01*
G37*
G36*
X11740Y10490D02*
X12260Y10490D01*
X12260Y11010D01*
X11740Y11010D01*
X11740Y10490D01*
G37*
G36*
X9260Y12010D02*
X8740Y12010D01*
X8740Y11490D01*
X9260Y11490D01*
X9260Y12010D01*
G37*
G36*
X20260Y26250D02*
X19740Y26250D01*
X19740Y25250D01*
X20260Y25250D01*
X20260Y26250D01*
G37*
G36*
X19260Y24010D02*
X18740Y24010D01*
X18740Y23490D01*
X19260Y23490D01*
X19260Y24010D01*
G37*
G36*
X19301Y20750D02*
X19821Y20750D01*
X19821Y21750D01*
X19301Y21750D01*
X19301Y20750D01*
G37*
G36*
X28260Y6010D02*
X27740Y6010D01*
X27740Y5490D01*
X28260Y5490D01*
X28260Y6010D01*
G37*
G36*
X24260Y6010D02*
X23740Y6010D01*
X23740Y5490D01*
X24260Y5490D01*
X24260Y6010D01*
G37*
G36*
X20260Y6010D02*
X19740Y6010D01*
X19740Y5490D01*
X20260Y5490D01*
X20260Y6010D01*
G37*
G36*
X16260Y5760D02*
X15740Y5760D01*
X15740Y5240D01*
X16260Y5240D01*
X16260Y5760D01*
G37*
G36*
X16260Y6760D02*
X15740Y6760D01*
X15740Y6240D01*
X16260Y6240D01*
X16260Y6760D01*
G37*
G36*
X16260Y4760D02*
X15740Y4760D01*
X15740Y4240D01*
X16260Y4240D01*
X16260Y4760D01*
G37*
G36*
X35240Y1740D02*
X35760Y1740D01*
X35760Y2260D01*
X35240Y2260D01*
X35240Y1740D01*
G37*
G36*
X35240Y740D02*
X35760Y740D01*
X35760Y1260D01*
X35240Y1260D01*
X35240Y740D01*
G37*
G36*
X36240Y10990D02*
X36760Y10990D01*
X36760Y11510D01*
X36240Y11510D01*
X36240Y10990D01*
G37*
G36*
X36240Y9990D02*
X36760Y9990D01*
X36760Y10510D01*
X36240Y10510D01*
X36240Y9990D01*
G37*
G36*
X27760Y10510D02*
X27240Y10510D01*
X27240Y9990D01*
X27760Y9990D01*
X27760Y10510D01*
G37*
G36*
X27760Y11510D02*
X27240Y11510D01*
X27240Y10990D01*
X27760Y10990D01*
X27760Y11510D01*
G37*
G36*
X4834Y37258D02*
X4834Y36864D01*
X4932Y36864D01*
X4932Y37258D01*
X4834Y37258D01*
G37*
G36*
X5424Y37258D02*
X5424Y36864D01*
X5522Y36864D01*
X5522Y37258D01*
X5424Y37258D01*
G37*
G36*
X6015Y35801D02*
X6015Y35407D01*
X6113Y35407D01*
X6113Y35801D01*
X6015Y35801D01*
G37*
G36*
X4253Y36677D02*
X4253Y36579D01*
X4647Y36579D01*
X4647Y36677D01*
X4253Y36677D01*
G37*
G36*
X6103Y36086D02*
X6103Y35988D01*
X6497Y35988D01*
X6497Y36086D01*
X6103Y36086D01*
G37*
G36*
X5228Y37258D02*
X5228Y36864D01*
X5326Y36864D01*
X5326Y37258D01*
X5228Y37258D01*
G37*
G36*
X5818Y35801D02*
X5818Y35407D01*
X5916Y35407D01*
X5916Y35801D01*
X5818Y35801D01*
G37*
G36*
X6103Y36677D02*
X6103Y36579D01*
X6497Y36579D01*
X6497Y36677D01*
X6103Y36677D01*
G37*
G36*
X5031Y35801D02*
X5031Y35407D01*
X5129Y35407D01*
X5129Y35801D01*
X5031Y35801D01*
G37*
G36*
X4834Y35801D02*
X4834Y35407D01*
X4932Y35407D01*
X4932Y35801D01*
X4834Y35801D01*
G37*
G36*
X5228Y35801D02*
X5228Y35407D01*
X5326Y35407D01*
X5326Y35801D01*
X5228Y35801D01*
G37*
G36*
X5621Y35801D02*
X5621Y35407D01*
X5719Y35407D01*
X5719Y35801D01*
X5621Y35801D01*
G37*
G36*
X4637Y37258D02*
X4637Y36864D01*
X4735Y36864D01*
X4735Y37258D01*
X4637Y37258D01*
G37*
G36*
X5424Y35801D02*
X5424Y35407D01*
X5522Y35407D01*
X5522Y35801D01*
X5424Y35801D01*
G37*
G36*
X5621Y37258D02*
X5621Y36864D01*
X5719Y36864D01*
X5719Y37258D01*
X5621Y37258D01*
G37*
G36*
X5818Y37258D02*
X5818Y36864D01*
X5916Y36864D01*
X5916Y37258D01*
X5818Y37258D01*
G37*
G36*
X4745Y36766D02*
X4745Y35900D01*
X6005Y35900D01*
X6005Y36766D01*
X4745Y36766D01*
G37*
G36*
X4637Y35801D02*
X4637Y35407D01*
X4735Y35407D01*
X4735Y35801D01*
X4637Y35801D01*
G37*
G36*
X6015Y37258D02*
X6015Y36864D01*
X6113Y36864D01*
X6113Y37258D01*
X6015Y37258D01*
G37*
G36*
X4253Y36086D02*
X4253Y35988D01*
X4647Y35988D01*
X4647Y36086D01*
X4253Y36086D01*
G37*
G36*
X5031Y37258D02*
X5031Y36864D01*
X5129Y36864D01*
X5129Y37258D01*
X5031Y37258D01*
G37*
G36*
X1250Y34958D02*
X750Y34958D01*
X750Y33958D01*
X1250Y33958D01*
X1250Y34958D01*
G37*
G36*
X1635Y37208D02*
X1115Y37208D01*
X1115Y36708D01*
X1635Y36708D01*
X1635Y37208D01*
G37*
G36*
X2635Y37208D02*
X2115Y37208D01*
X2115Y36708D01*
X2635Y36708D01*
X2635Y37208D01*
G37*
G36*
X1635Y35958D02*
X1115Y35958D01*
X1115Y35458D01*
X1635Y35458D01*
X1635Y35958D01*
G37*
G36*
X2635Y35958D02*
X2115Y35958D01*
X2115Y35458D01*
X2635Y35458D01*
X2635Y35958D01*
G37*
G36*
X12708Y37258D02*
X12708Y36864D01*
X12806Y36864D01*
X12806Y37258D01*
X12708Y37258D01*
G37*
G36*
X13298Y37258D02*
X13298Y36864D01*
X13396Y36864D01*
X13396Y37258D01*
X13298Y37258D01*
G37*
G36*
X13889Y35801D02*
X13889Y35407D01*
X13987Y35407D01*
X13987Y35801D01*
X13889Y35801D01*
G37*
G36*
X12127Y36677D02*
X12127Y36579D01*
X12521Y36579D01*
X12521Y36677D01*
X12127Y36677D01*
G37*
G36*
X13977Y36086D02*
X13977Y35988D01*
X14371Y35988D01*
X14371Y36086D01*
X13977Y36086D01*
G37*
G36*
X13102Y37258D02*
X13102Y36864D01*
X13200Y36864D01*
X13200Y37258D01*
X13102Y37258D01*
G37*
G36*
X13692Y35801D02*
X13692Y35407D01*
X13790Y35407D01*
X13790Y35801D01*
X13692Y35801D01*
G37*
G36*
X13977Y36677D02*
X13977Y36579D01*
X14371Y36579D01*
X14371Y36677D01*
X13977Y36677D01*
G37*
G36*
X12905Y35801D02*
X12905Y35407D01*
X13003Y35407D01*
X13003Y35801D01*
X12905Y35801D01*
G37*
G36*
X12708Y35801D02*
X12708Y35407D01*
X12806Y35407D01*
X12806Y35801D01*
X12708Y35801D01*
G37*
G36*
X13102Y35801D02*
X13102Y35407D01*
X13200Y35407D01*
X13200Y35801D01*
X13102Y35801D01*
G37*
G36*
X13495Y35801D02*
X13495Y35407D01*
X13593Y35407D01*
X13593Y35801D01*
X13495Y35801D01*
G37*
G36*
X12511Y37258D02*
X12511Y36864D01*
X12609Y36864D01*
X12609Y37258D01*
X12511Y37258D01*
G37*
G36*
X13298Y35801D02*
X13298Y35407D01*
X13396Y35407D01*
X13396Y35801D01*
X13298Y35801D01*
G37*
G36*
X13495Y37258D02*
X13495Y36864D01*
X13593Y36864D01*
X13593Y37258D01*
X13495Y37258D01*
G37*
G36*
X13692Y37258D02*
X13692Y36864D01*
X13790Y36864D01*
X13790Y37258D01*
X13692Y37258D01*
G37*
G36*
X12619Y36766D02*
X12619Y35900D01*
X13879Y35900D01*
X13879Y36766D01*
X12619Y36766D01*
G37*
G36*
X12511Y35801D02*
X12511Y35407D01*
X12609Y35407D01*
X12609Y35801D01*
X12511Y35801D01*
G37*
G36*
X13889Y37258D02*
X13889Y36864D01*
X13987Y36864D01*
X13987Y37258D01*
X13889Y37258D01*
G37*
G36*
X12127Y36086D02*
X12127Y35988D01*
X12521Y35988D01*
X12521Y36086D01*
X12127Y36086D01*
G37*
G36*
X12905Y37258D02*
X12905Y36864D01*
X13003Y36864D01*
X13003Y37258D01*
X12905Y37258D01*
G37*
G36*
X9124Y34958D02*
X8624Y34958D01*
X8624Y33958D01*
X9124Y33958D01*
X9124Y34958D01*
G37*
G36*
X9509Y37208D02*
X8989Y37208D01*
X8989Y36708D01*
X9509Y36708D01*
X9509Y37208D01*
G37*
G36*
X10509Y37208D02*
X9989Y37208D01*
X9989Y36708D01*
X10509Y36708D01*
X10509Y37208D01*
G37*
G36*
X9509Y35958D02*
X8989Y35958D01*
X8989Y35458D01*
X9509Y35458D01*
X9509Y35958D01*
G37*
G36*
X10509Y35958D02*
X9989Y35958D01*
X9989Y35458D01*
X10509Y35458D01*
X10509Y35958D01*
G37*
G36*
X20582Y37258D02*
X20582Y36864D01*
X20680Y36864D01*
X20680Y37258D01*
X20582Y37258D01*
G37*
G36*
X21172Y37258D02*
X21172Y36864D01*
X21270Y36864D01*
X21270Y37258D01*
X21172Y37258D01*
G37*
G36*
X21763Y35801D02*
X21763Y35407D01*
X21861Y35407D01*
X21861Y35801D01*
X21763Y35801D01*
G37*
G36*
X20001Y36677D02*
X20001Y36579D01*
X20395Y36579D01*
X20395Y36677D01*
X20001Y36677D01*
G37*
G36*
X21851Y36086D02*
X21851Y35988D01*
X22245Y35988D01*
X22245Y36086D01*
X21851Y36086D01*
G37*
G36*
X20976Y37258D02*
X20976Y36864D01*
X21074Y36864D01*
X21074Y37258D01*
X20976Y37258D01*
G37*
G36*
X21566Y35801D02*
X21566Y35407D01*
X21664Y35407D01*
X21664Y35801D01*
X21566Y35801D01*
G37*
G36*
X21851Y36677D02*
X21851Y36579D01*
X22245Y36579D01*
X22245Y36677D01*
X21851Y36677D01*
G37*
G36*
X20779Y35801D02*
X20779Y35407D01*
X20877Y35407D01*
X20877Y35801D01*
X20779Y35801D01*
G37*
G36*
X20582Y35801D02*
X20582Y35407D01*
X20680Y35407D01*
X20680Y35801D01*
X20582Y35801D01*
G37*
G36*
X20976Y35801D02*
X20976Y35407D01*
X21074Y35407D01*
X21074Y35801D01*
X20976Y35801D01*
G37*
G36*
X21369Y35801D02*
X21369Y35407D01*
X21467Y35407D01*
X21467Y35801D01*
X21369Y35801D01*
G37*
G36*
X20385Y37258D02*
X20385Y36864D01*
X20483Y36864D01*
X20483Y37258D01*
X20385Y37258D01*
G37*
G36*
X21172Y35801D02*
X21172Y35407D01*
X21270Y35407D01*
X21270Y35801D01*
X21172Y35801D01*
G37*
G36*
X21369Y37258D02*
X21369Y36864D01*
X21467Y36864D01*
X21467Y37258D01*
X21369Y37258D01*
G37*
G36*
X21566Y37258D02*
X21566Y36864D01*
X21664Y36864D01*
X21664Y37258D01*
X21566Y37258D01*
G37*
G36*
X20493Y36766D02*
X20493Y35900D01*
X21753Y35900D01*
X21753Y36766D01*
X20493Y36766D01*
G37*
G36*
X20385Y35801D02*
X20385Y35407D01*
X20483Y35407D01*
X20483Y35801D01*
X20385Y35801D01*
G37*
G36*
X21763Y37258D02*
X21763Y36864D01*
X21861Y36864D01*
X21861Y37258D01*
X21763Y37258D01*
G37*
G36*
X20001Y36086D02*
X20001Y35988D01*
X20395Y35988D01*
X20395Y36086D01*
X20001Y36086D01*
G37*
G36*
X20779Y37258D02*
X20779Y36864D01*
X20877Y36864D01*
X20877Y37258D01*
X20779Y37258D01*
G37*
G36*
X16998Y34958D02*
X16498Y34958D01*
X16498Y33958D01*
X16998Y33958D01*
X16998Y34958D01*
G37*
G36*
X17383Y37208D02*
X16863Y37208D01*
X16863Y36708D01*
X17383Y36708D01*
X17383Y37208D01*
G37*
G36*
X18383Y37208D02*
X17863Y37208D01*
X17863Y36708D01*
X18383Y36708D01*
X18383Y37208D01*
G37*
G36*
X17383Y35958D02*
X16863Y35958D01*
X16863Y35458D01*
X17383Y35458D01*
X17383Y35958D01*
G37*
G36*
X18383Y35958D02*
X17863Y35958D01*
X17863Y35458D01*
X18383Y35458D01*
X18383Y35958D01*
G37*
G36*
X28456Y37258D02*
X28456Y36864D01*
X28554Y36864D01*
X28554Y37258D01*
X28456Y37258D01*
G37*
G36*
X29046Y37258D02*
X29046Y36864D01*
X29144Y36864D01*
X29144Y37258D01*
X29046Y37258D01*
G37*
G36*
X29637Y35801D02*
X29637Y35407D01*
X29735Y35407D01*
X29735Y35801D01*
X29637Y35801D01*
G37*
G36*
X27875Y36677D02*
X27875Y36579D01*
X28269Y36579D01*
X28269Y36677D01*
X27875Y36677D01*
G37*
G36*
X29725Y36086D02*
X29725Y35988D01*
X30119Y35988D01*
X30119Y36086D01*
X29725Y36086D01*
G37*
G36*
X28850Y37258D02*
X28850Y36864D01*
X28948Y36864D01*
X28948Y37258D01*
X28850Y37258D01*
G37*
G36*
X29440Y35801D02*
X29440Y35407D01*
X29538Y35407D01*
X29538Y35801D01*
X29440Y35801D01*
G37*
G36*
X29725Y36677D02*
X29725Y36579D01*
X30119Y36579D01*
X30119Y36677D01*
X29725Y36677D01*
G37*
G36*
X28653Y35801D02*
X28653Y35407D01*
X28751Y35407D01*
X28751Y35801D01*
X28653Y35801D01*
G37*
G36*
X28456Y35801D02*
X28456Y35407D01*
X28554Y35407D01*
X28554Y35801D01*
X28456Y35801D01*
G37*
G36*
X28850Y35801D02*
X28850Y35407D01*
X28948Y35407D01*
X28948Y35801D01*
X28850Y35801D01*
G37*
G36*
X29243Y35801D02*
X29243Y35407D01*
X29341Y35407D01*
X29341Y35801D01*
X29243Y35801D01*
G37*
G36*
X28259Y37258D02*
X28259Y36864D01*
X28357Y36864D01*
X28357Y37258D01*
X28259Y37258D01*
G37*
G36*
X29046Y35801D02*
X29046Y35407D01*
X29144Y35407D01*
X29144Y35801D01*
X29046Y35801D01*
G37*
G36*
X29243Y37258D02*
X29243Y36864D01*
X29341Y36864D01*
X29341Y37258D01*
X29243Y37258D01*
G37*
G36*
X29440Y37258D02*
X29440Y36864D01*
X29538Y36864D01*
X29538Y37258D01*
X29440Y37258D01*
G37*
G36*
X28367Y36766D02*
X28367Y35900D01*
X29627Y35900D01*
X29627Y36766D01*
X28367Y36766D01*
G37*
G36*
X28259Y35801D02*
X28259Y35407D01*
X28357Y35407D01*
X28357Y35801D01*
X28259Y35801D01*
G37*
G36*
X29637Y37258D02*
X29637Y36864D01*
X29735Y36864D01*
X29735Y37258D01*
X29637Y37258D01*
G37*
G36*
X27875Y36086D02*
X27875Y35988D01*
X28269Y35988D01*
X28269Y36086D01*
X27875Y36086D01*
G37*
G36*
X28653Y37258D02*
X28653Y36864D01*
X28751Y36864D01*
X28751Y37258D01*
X28653Y37258D01*
G37*
G36*
X24872Y34958D02*
X24372Y34958D01*
X24372Y33958D01*
X24872Y33958D01*
X24872Y34958D01*
G37*
G36*
X25257Y37208D02*
X24737Y37208D01*
X24737Y36708D01*
X25257Y36708D01*
X25257Y37208D01*
G37*
G36*
X26257Y37208D02*
X25737Y37208D01*
X25737Y36708D01*
X26257Y36708D01*
X26257Y37208D01*
G37*
G36*
X25257Y35958D02*
X24737Y35958D01*
X24737Y35458D01*
X25257Y35458D01*
X25257Y35958D01*
G37*
G36*
X26257Y35958D02*
X25737Y35958D01*
X25737Y35458D01*
X26257Y35458D01*
X26257Y35958D01*
G37*
G36*
X36330Y37258D02*
X36330Y36864D01*
X36428Y36864D01*
X36428Y37258D01*
X36330Y37258D01*
G37*
G36*
X36920Y37258D02*
X36920Y36864D01*
X37018Y36864D01*
X37018Y37258D01*
X36920Y37258D01*
G37*
G36*
X37511Y35801D02*
X37511Y35407D01*
X37609Y35407D01*
X37609Y35801D01*
X37511Y35801D01*
G37*
G36*
X35749Y36677D02*
X35749Y36579D01*
X36143Y36579D01*
X36143Y36677D01*
X35749Y36677D01*
G37*
G36*
X37599Y36086D02*
X37599Y35988D01*
X37993Y35988D01*
X37993Y36086D01*
X37599Y36086D01*
G37*
G36*
X36724Y37258D02*
X36724Y36864D01*
X36822Y36864D01*
X36822Y37258D01*
X36724Y37258D01*
G37*
G36*
X37314Y35801D02*
X37314Y35407D01*
X37412Y35407D01*
X37412Y35801D01*
X37314Y35801D01*
G37*
G36*
X37599Y36677D02*
X37599Y36579D01*
X37993Y36579D01*
X37993Y36677D01*
X37599Y36677D01*
G37*
G36*
X36527Y35801D02*
X36527Y35407D01*
X36625Y35407D01*
X36625Y35801D01*
X36527Y35801D01*
G37*
G36*
X36330Y35801D02*
X36330Y35407D01*
X36428Y35407D01*
X36428Y35801D01*
X36330Y35801D01*
G37*
G36*
X36724Y35801D02*
X36724Y35407D01*
X36822Y35407D01*
X36822Y35801D01*
X36724Y35801D01*
G37*
G36*
X37117Y35801D02*
X37117Y35407D01*
X37215Y35407D01*
X37215Y35801D01*
X37117Y35801D01*
G37*
G36*
X36133Y37258D02*
X36133Y36864D01*
X36231Y36864D01*
X36231Y37258D01*
X36133Y37258D01*
G37*
G36*
X36920Y35801D02*
X36920Y35407D01*
X37018Y35407D01*
X37018Y35801D01*
X36920Y35801D01*
G37*
G36*
X37117Y37258D02*
X37117Y36864D01*
X37215Y36864D01*
X37215Y37258D01*
X37117Y37258D01*
G37*
G36*
X37314Y37258D02*
X37314Y36864D01*
X37412Y36864D01*
X37412Y37258D01*
X37314Y37258D01*
G37*
G36*
X36241Y36766D02*
X36241Y35900D01*
X37501Y35900D01*
X37501Y36766D01*
X36241Y36766D01*
G37*
G36*
X36133Y35801D02*
X36133Y35407D01*
X36231Y35407D01*
X36231Y35801D01*
X36133Y35801D01*
G37*
G36*
X37511Y37258D02*
X37511Y36864D01*
X37609Y36864D01*
X37609Y37258D01*
X37511Y37258D01*
G37*
G36*
X35749Y36086D02*
X35749Y35988D01*
X36143Y35988D01*
X36143Y36086D01*
X35749Y36086D01*
G37*
G36*
X36527Y37258D02*
X36527Y36864D01*
X36625Y36864D01*
X36625Y37258D01*
X36527Y37258D01*
G37*
G36*
X32746Y34958D02*
X32246Y34958D01*
X32246Y33958D01*
X32746Y33958D01*
X32746Y34958D01*
G37*
G36*
X33131Y37208D02*
X32611Y37208D01*
X32611Y36708D01*
X33131Y36708D01*
X33131Y37208D01*
G37*
G36*
X34131Y37208D02*
X33611Y37208D01*
X33611Y36708D01*
X34131Y36708D01*
X34131Y37208D01*
G37*
G36*
X33131Y35958D02*
X32611Y35958D01*
X32611Y35458D01*
X33131Y35458D01*
X33131Y35958D01*
G37*
G36*
X34131Y35958D02*
X33611Y35958D01*
X33611Y35458D01*
X34131Y35458D01*
X34131Y35958D01*
G37*
M02*
