%FSLAX24Y24*%
%MOIN*%
%ADD10C,0.0400*%
%ADD11C,0.0520*%
D10*
G01X12495Y22865D03*
X12485Y20422D03*
X12495Y31485D03*
X12485Y29042D03*
X5625Y2725D03*
X3182Y2735D03*
X25695Y31485D03*
X25685Y29042D03*
X19095Y22865D03*
X19085Y20422D03*
X25695Y22865D03*
X25685Y20422D03*
X19095Y31485D03*
X19085Y29042D03*
X32295Y31485D03*
X32285Y29042D03*
X32295Y22865D03*
X32285Y20422D03*
X6633Y29822D03*
X6782Y33372D03*
X1840Y29668D03*
X1990Y33220D03*
X13878Y6633D03*
X10328Y6782D03*
X14032Y1840D03*
X10480Y1990D03*
X20998Y6633D03*
X17448Y6782D03*
X21152Y1840D03*
X17600Y1990D03*
X35238Y6633D03*
X31688Y6782D03*
X35392Y1840D03*
X31840Y1990D03*
X28118Y6633D03*
X24568Y6782D03*
X28272Y1840D03*
X24720Y1990D03*
X13878Y15253D03*
X10328Y15402D03*
X14032Y10460D03*
X10480Y10610D03*
X20998Y15253D03*
X17448Y15402D03*
X21152Y10460D03*
X17600Y10610D03*
X28118Y15253D03*
X24568Y15402D03*
X28272Y10460D03*
X24720Y10610D03*
X6633Y22702D03*
X6782Y26252D03*
X1840Y22548D03*
X1990Y26100D03*
X6633Y15582D03*
X6782Y19132D03*
X1840Y15428D03*
X1990Y18980D03*
X6633Y8462D03*
X6782Y12012D03*
X1840Y8308D03*
X1990Y11860D03*
X35238Y15253D03*
X31688Y15402D03*
X35392Y10460D03*
X31840Y10610D03*
D11*
G01X11043Y18115D02*
X11523Y18115D01*
X14043Y20115D02*
X14523Y20115D01*
X14043Y19115D02*
X14523Y19115D01*
X11043Y19115D02*
X11523Y19115D01*
X11043Y25115D02*
X11523Y25115D01*
X11043Y24115D02*
X11523Y24115D01*
X14043Y22115D02*
X14523Y22115D01*
X14043Y24115D02*
X14523Y24115D01*
X14043Y21115D02*
X14523Y21115D01*
X14043Y25115D02*
X14523Y25115D01*
X14043Y23115D02*
X14523Y23115D01*
X11043Y21115D02*
X11523Y21115D01*
X11043Y20115D02*
X11523Y20115D01*
X11043Y23115D02*
X11523Y23115D01*
X11043Y22115D02*
X11523Y22115D01*
X11043Y26735D02*
X11523Y26735D01*
X14043Y28735D02*
X14523Y28735D01*
X14043Y27735D02*
X14523Y27735D01*
X11043Y27735D02*
X11523Y27735D01*
X11043Y33735D02*
X11523Y33735D01*
X11043Y32735D02*
X11523Y32735D01*
X14043Y30735D02*
X14523Y30735D01*
X14043Y32735D02*
X14523Y32735D01*
X14043Y29735D02*
X14523Y29735D01*
X14043Y33735D02*
X14523Y33735D01*
X14043Y31735D02*
X14523Y31735D01*
X11043Y29735D02*
X11523Y29735D01*
X11043Y28735D02*
X11523Y28735D01*
X11043Y31735D02*
X11523Y31735D01*
X11043Y30735D02*
X11523Y30735D01*
X875Y4177D02*
X875Y3697D01*
X2875Y1177D02*
X2875Y697D01*
X1875Y1177D02*
X1875Y697D01*
X1875Y4177D02*
X1875Y3697D01*
X7875Y4177D02*
X7875Y3697D01*
X6875Y4177D02*
X6875Y3697D01*
X4875Y1177D02*
X4875Y697D01*
X6875Y1177D02*
X6875Y697D01*
X3875Y1177D02*
X3875Y697D01*
X7875Y1177D02*
X7875Y697D01*
X5875Y1177D02*
X5875Y697D01*
X3875Y4177D02*
X3875Y3697D01*
X2875Y4177D02*
X2875Y3697D01*
X5875Y4177D02*
X5875Y3697D01*
X4875Y4177D02*
X4875Y3697D01*
X24243Y26735D02*
X24723Y26735D01*
X27243Y28735D02*
X27723Y28735D01*
X27243Y27735D02*
X27723Y27735D01*
X24243Y27735D02*
X24723Y27735D01*
X24243Y33735D02*
X24723Y33735D01*
X24243Y32735D02*
X24723Y32735D01*
X27243Y30735D02*
X27723Y30735D01*
X27243Y32735D02*
X27723Y32735D01*
X27243Y29735D02*
X27723Y29735D01*
X27243Y33735D02*
X27723Y33735D01*
X27243Y31735D02*
X27723Y31735D01*
X24243Y29735D02*
X24723Y29735D01*
X24243Y28735D02*
X24723Y28735D01*
X24243Y31735D02*
X24723Y31735D01*
X24243Y30735D02*
X24723Y30735D01*
X17643Y18115D02*
X18123Y18115D01*
X20643Y20115D02*
X21123Y20115D01*
X20643Y19115D02*
X21123Y19115D01*
X17643Y19115D02*
X18123Y19115D01*
X17643Y25115D02*
X18123Y25115D01*
X17643Y24115D02*
X18123Y24115D01*
X20643Y22115D02*
X21123Y22115D01*
X20643Y24115D02*
X21123Y24115D01*
X20643Y21115D02*
X21123Y21115D01*
X20643Y25115D02*
X21123Y25115D01*
X20643Y23115D02*
X21123Y23115D01*
X17643Y21115D02*
X18123Y21115D01*
X17643Y20115D02*
X18123Y20115D01*
X17643Y23115D02*
X18123Y23115D01*
X17643Y22115D02*
X18123Y22115D01*
X24243Y18115D02*
X24723Y18115D01*
X27243Y20115D02*
X27723Y20115D01*
X27243Y19115D02*
X27723Y19115D01*
X24243Y19115D02*
X24723Y19115D01*
X24243Y25115D02*
X24723Y25115D01*
X24243Y24115D02*
X24723Y24115D01*
X27243Y22115D02*
X27723Y22115D01*
X27243Y24115D02*
X27723Y24115D01*
X27243Y21115D02*
X27723Y21115D01*
X27243Y25115D02*
X27723Y25115D01*
X27243Y23115D02*
X27723Y23115D01*
X24243Y21115D02*
X24723Y21115D01*
X24243Y20115D02*
X24723Y20115D01*
X24243Y23115D02*
X24723Y23115D01*
X24243Y22115D02*
X24723Y22115D01*
X17643Y26735D02*
X18123Y26735D01*
X20643Y28735D02*
X21123Y28735D01*
X20643Y27735D02*
X21123Y27735D01*
X17643Y27735D02*
X18123Y27735D01*
X17643Y33735D02*
X18123Y33735D01*
X17643Y32735D02*
X18123Y32735D01*
X20643Y30735D02*
X21123Y30735D01*
X20643Y32735D02*
X21123Y32735D01*
X20643Y29735D02*
X21123Y29735D01*
X20643Y33735D02*
X21123Y33735D01*
X20643Y31735D02*
X21123Y31735D01*
X17643Y29735D02*
X18123Y29735D01*
X17643Y28735D02*
X18123Y28735D01*
X17643Y31735D02*
X18123Y31735D01*
X17643Y30735D02*
X18123Y30735D01*
X30843Y26735D02*
X31323Y26735D01*
X33843Y28735D02*
X34323Y28735D01*
X33843Y27735D02*
X34323Y27735D01*
X30843Y27735D02*
X31323Y27735D01*
X30843Y33735D02*
X31323Y33735D01*
X30843Y32735D02*
X31323Y32735D01*
X33843Y30735D02*
X34323Y30735D01*
X33843Y32735D02*
X34323Y32735D01*
X33843Y29735D02*
X34323Y29735D01*
X33843Y33735D02*
X34323Y33735D01*
X33843Y31735D02*
X34323Y31735D01*
X30843Y29735D02*
X31323Y29735D01*
X30843Y28735D02*
X31323Y28735D01*
X30843Y31735D02*
X31323Y31735D01*
X30843Y30735D02*
X31323Y30735D01*
X30843Y18115D02*
X31323Y18115D01*
X33843Y20115D02*
X34323Y20115D01*
X33843Y19115D02*
X34323Y19115D01*
X30843Y19115D02*
X31323Y19115D01*
X30843Y25115D02*
X31323Y25115D01*
X30843Y24115D02*
X31323Y24115D01*
X33843Y22115D02*
X34323Y22115D01*
X33843Y24115D02*
X34323Y24115D01*
X33843Y21115D02*
X34323Y21115D01*
X33843Y25115D02*
X34323Y25115D01*
X33843Y23115D02*
X34323Y23115D01*
X30843Y21115D02*
X31323Y21115D01*
X30843Y20115D02*
X31323Y20115D01*
X30843Y23115D02*
X31323Y23115D01*
X30843Y22115D02*
X31323Y22115D01*
X6812Y34273D03*
X1812Y34273D03*
X3812Y34273D03*
X4812Y34273D03*
X812Y34273D03*
X3812Y28773D03*
X1812Y28773D03*
X2812Y34273D03*
X7812Y34273D03*
X4812Y28773D03*
X5812Y34273D03*
X7812Y28773D03*
X2812Y28773D03*
X6812Y28773D03*
X5812Y28773D03*
X9427Y6812D03*
X9427Y1812D03*
X9427Y3812D03*
X9427Y4812D03*
X9427Y812D03*
X14927Y3812D03*
X14927Y1812D03*
X9427Y2812D03*
X9427Y7812D03*
X14927Y4812D03*
X9427Y5812D03*
X14927Y7812D03*
X14927Y2812D03*
X14927Y6812D03*
X14927Y5812D03*
X16547Y6812D03*
X16547Y1812D03*
X16547Y3812D03*
X16547Y4812D03*
X16547Y812D03*
X22047Y3812D03*
X22047Y1812D03*
X16547Y2812D03*
X16547Y7812D03*
X22047Y4812D03*
X16547Y5812D03*
X22047Y7812D03*
X22047Y2812D03*
X22047Y6812D03*
X22047Y5812D03*
X30787Y6812D03*
X30787Y1812D03*
X30787Y3812D03*
X30787Y4812D03*
X30787Y812D03*
X36287Y3812D03*
X36287Y1812D03*
X30787Y2812D03*
X30787Y7812D03*
X36287Y4812D03*
X30787Y5812D03*
X36287Y7812D03*
X36287Y2812D03*
X36287Y6812D03*
X36287Y5812D03*
X23667Y6812D03*
X23667Y1812D03*
X23667Y3812D03*
X23667Y4812D03*
X23667Y812D03*
X29167Y3812D03*
X29167Y1812D03*
X23667Y2812D03*
X23667Y7812D03*
X29167Y4812D03*
X23667Y5812D03*
X29167Y7812D03*
X29167Y2812D03*
X29167Y6812D03*
X29167Y5812D03*
X9427Y15432D03*
X9427Y10432D03*
X9427Y12432D03*
X9427Y13432D03*
X9427Y9432D03*
X14927Y12432D03*
X14927Y10432D03*
X9427Y11432D03*
X9427Y16432D03*
X14927Y13432D03*
X9427Y14432D03*
X14927Y16432D03*
X14927Y11432D03*
X14927Y15432D03*
X14927Y14432D03*
X16547Y15432D03*
X16547Y10432D03*
X16547Y12432D03*
X16547Y13432D03*
X16547Y9432D03*
X22047Y12432D03*
X22047Y10432D03*
X16547Y11432D03*
X16547Y16432D03*
X22047Y13432D03*
X16547Y14432D03*
X22047Y16432D03*
X22047Y11432D03*
X22047Y15432D03*
X22047Y14432D03*
X23667Y15432D03*
X23667Y10432D03*
X23667Y12432D03*
X23667Y13432D03*
X23667Y9432D03*
X29167Y12432D03*
X29167Y10432D03*
X23667Y11432D03*
X23667Y16432D03*
X29167Y13432D03*
X23667Y14432D03*
X29167Y16432D03*
X29167Y11432D03*
X29167Y15432D03*
X29167Y14432D03*
X6812Y27153D03*
X1812Y27153D03*
X3812Y27153D03*
X4812Y27153D03*
X812Y27153D03*
X3812Y21653D03*
X1812Y21653D03*
X2812Y27153D03*
X7812Y27153D03*
X4812Y21653D03*
X5812Y27153D03*
X7812Y21653D03*
X2812Y21653D03*
X6812Y21653D03*
X5812Y21653D03*
X6812Y20033D03*
X1812Y20033D03*
X3812Y20033D03*
X4812Y20033D03*
X812Y20033D03*
X3812Y14533D03*
X1812Y14533D03*
X2812Y20033D03*
X7812Y20033D03*
X4812Y14533D03*
X5812Y20033D03*
X7812Y14533D03*
X2812Y14533D03*
X6812Y14533D03*
X5812Y14533D03*
X6812Y12913D03*
X1812Y12913D03*
X3812Y12913D03*
X4812Y12913D03*
X812Y12913D03*
X3812Y7413D03*
X1812Y7413D03*
X2812Y12913D03*
X7812Y12913D03*
X4812Y7413D03*
X5812Y12913D03*
X7812Y7413D03*
X2812Y7413D03*
X6812Y7413D03*
X5812Y7413D03*
X30787Y15432D03*
X30787Y10432D03*
X30787Y12432D03*
X30787Y13432D03*
X30787Y9432D03*
X36287Y12432D03*
X36287Y10432D03*
X30787Y11432D03*
X30787Y16432D03*
X36287Y13432D03*
X30787Y14432D03*
X36287Y16432D03*
X36287Y11432D03*
X36287Y15432D03*
X36287Y14432D03*
G36*
X13783Y18375D02*
X13783Y17855D01*
X14783Y17855D01*
X14783Y18375D01*
X13783Y18375D01*
G37*
G36*
X12807Y23492D02*
X12807Y23236D01*
X13516Y23237D01*
X13516Y23493D01*
X12807Y23492D01*
G37*
G36*
X12808Y19992D02*
X12808Y19736D01*
X13517Y19737D01*
X13517Y19993D01*
X12808Y19992D01*
G37*
G36*
X9047Y22492D02*
X9047Y22236D01*
X9756Y22237D01*
X9756Y22493D01*
X9047Y22492D01*
G37*
G36*
X12807Y21992D02*
X12807Y21736D01*
X13516Y21737D01*
X13516Y21993D01*
X12807Y21992D01*
G37*
G36*
X12807Y22492D02*
X12807Y22236D01*
X13516Y22237D01*
X13516Y22493D01*
X12807Y22492D01*
G37*
G36*
X12807Y21492D02*
X12807Y21236D01*
X13516Y21237D01*
X13516Y21493D01*
X12807Y21492D01*
G37*
G36*
X9048Y21992D02*
X9048Y21736D01*
X9757Y21737D01*
X9757Y21993D01*
X9048Y21992D01*
G37*
G36*
X9048Y21492D02*
X9048Y21236D01*
X9757Y21237D01*
X9757Y21493D01*
X9048Y21492D01*
G37*
G36*
X9047Y22992D02*
X9047Y22736D01*
X9756Y22737D01*
X9756Y22993D01*
X9047Y22992D01*
G37*
G36*
X9048Y19992D02*
X9048Y19736D01*
X9757Y19737D01*
X9757Y19993D01*
X9048Y19992D01*
G37*
G36*
X12807Y20992D02*
X12807Y20736D01*
X13516Y20737D01*
X13516Y20993D01*
X12807Y20992D01*
G37*
G36*
X9048Y20492D02*
X9048Y20236D01*
X9757Y20237D01*
X9757Y20493D01*
X9048Y20492D01*
G37*
G36*
X9048Y20992D02*
X9048Y20736D01*
X9757Y20737D01*
X9757Y20993D01*
X9048Y20992D01*
G37*
G36*
X9047Y23492D02*
X9047Y23236D01*
X9756Y23237D01*
X9756Y23493D01*
X9047Y23492D01*
G37*
G36*
X12807Y22992D02*
X12807Y22736D01*
X13516Y22737D01*
X13516Y22993D01*
X12807Y22992D01*
G37*
G36*
X12807Y20492D02*
X12807Y20236D01*
X13516Y20237D01*
X13516Y20493D01*
X12807Y20492D01*
G37*
G36*
X13783Y26995D02*
X13783Y26475D01*
X14783Y26475D01*
X14783Y26995D01*
X13783Y26995D01*
G37*
G36*
X12807Y32112D02*
X12807Y31856D01*
X13516Y31857D01*
X13516Y32113D01*
X12807Y32112D01*
G37*
G36*
X12808Y28612D02*
X12808Y28356D01*
X13517Y28357D01*
X13517Y28613D01*
X12808Y28612D01*
G37*
G36*
X9047Y31112D02*
X9047Y30856D01*
X9756Y30857D01*
X9756Y31113D01*
X9047Y31112D01*
G37*
G36*
X12807Y30612D02*
X12807Y30356D01*
X13516Y30357D01*
X13516Y30613D01*
X12807Y30612D01*
G37*
G36*
X12807Y31112D02*
X12807Y30856D01*
X13516Y30857D01*
X13516Y31113D01*
X12807Y31112D01*
G37*
G36*
X12807Y30112D02*
X12807Y29856D01*
X13516Y29857D01*
X13516Y30113D01*
X12807Y30112D01*
G37*
G36*
X9048Y30612D02*
X9048Y30356D01*
X9757Y30357D01*
X9757Y30613D01*
X9048Y30612D01*
G37*
G36*
X9048Y30112D02*
X9048Y29856D01*
X9757Y29857D01*
X9757Y30113D01*
X9048Y30112D01*
G37*
G36*
X9047Y31612D02*
X9047Y31356D01*
X9756Y31357D01*
X9756Y31613D01*
X9047Y31612D01*
G37*
G36*
X9048Y28612D02*
X9048Y28356D01*
X9757Y28357D01*
X9757Y28613D01*
X9048Y28612D01*
G37*
G36*
X12807Y29612D02*
X12807Y29356D01*
X13516Y29357D01*
X13516Y29613D01*
X12807Y29612D01*
G37*
G36*
X9048Y29112D02*
X9048Y28856D01*
X9757Y28857D01*
X9757Y29113D01*
X9048Y29112D01*
G37*
G36*
X9048Y29612D02*
X9048Y29356D01*
X9757Y29357D01*
X9757Y29613D01*
X9048Y29612D01*
G37*
G36*
X9047Y32112D02*
X9047Y31856D01*
X9756Y31857D01*
X9756Y32113D01*
X9047Y32112D01*
G37*
G36*
X12807Y31612D02*
X12807Y31356D01*
X13516Y31357D01*
X13516Y31613D01*
X12807Y31612D01*
G37*
G36*
X12807Y29112D02*
X12807Y28856D01*
X13516Y28857D01*
X13516Y29113D01*
X12807Y29112D01*
G37*
G36*
X1135Y1437D02*
X615Y1437D01*
X615Y437D01*
X1135Y437D01*
X1135Y1437D01*
G37*
G36*
X6252Y2412D02*
X5996Y2412D01*
X5997Y1703D01*
X6253Y1703D01*
X6252Y2412D01*
G37*
G36*
X2752Y2411D02*
X2496Y2411D01*
X2497Y1702D01*
X2753Y1702D01*
X2752Y2411D01*
G37*
G36*
X5252Y6172D02*
X4996Y6172D01*
X4997Y5463D01*
X5253Y5463D01*
X5252Y6172D01*
G37*
G36*
X4752Y2412D02*
X4496Y2412D01*
X4497Y1703D01*
X4753Y1703D01*
X4752Y2412D01*
G37*
G36*
X5252Y2412D02*
X4996Y2412D01*
X4997Y1703D01*
X5253Y1703D01*
X5252Y2412D01*
G37*
G36*
X4252Y2412D02*
X3996Y2412D01*
X3997Y1703D01*
X4253Y1703D01*
X4252Y2412D01*
G37*
G36*
X4752Y6171D02*
X4496Y6171D01*
X4497Y5462D01*
X4753Y5462D01*
X4752Y6171D01*
G37*
G36*
X4252Y6171D02*
X3996Y6171D01*
X3997Y5462D01*
X4253Y5462D01*
X4252Y6171D01*
G37*
G36*
X5752Y6172D02*
X5496Y6172D01*
X5497Y5463D01*
X5753Y5463D01*
X5752Y6172D01*
G37*
G36*
X2752Y6171D02*
X2496Y6171D01*
X2497Y5462D01*
X2753Y5462D01*
X2752Y6171D01*
G37*
G36*
X3752Y2412D02*
X3496Y2412D01*
X3497Y1703D01*
X3753Y1703D01*
X3752Y2412D01*
G37*
G36*
X3252Y6171D02*
X2996Y6171D01*
X2997Y5462D01*
X3253Y5462D01*
X3252Y6171D01*
G37*
G36*
X3752Y6171D02*
X3496Y6171D01*
X3497Y5462D01*
X3753Y5462D01*
X3752Y6171D01*
G37*
G36*
X6252Y6172D02*
X5996Y6172D01*
X5997Y5463D01*
X6253Y5463D01*
X6252Y6172D01*
G37*
G36*
X5752Y2412D02*
X5496Y2412D01*
X5497Y1703D01*
X5753Y1703D01*
X5752Y2412D01*
G37*
G36*
X3252Y2412D02*
X2996Y2412D01*
X2997Y1703D01*
X3253Y1703D01*
X3252Y2412D01*
G37*
G36*
X26983Y26995D02*
X26983Y26475D01*
X27983Y26475D01*
X27983Y26995D01*
X26983Y26995D01*
G37*
G36*
X26007Y32112D02*
X26007Y31856D01*
X26716Y31857D01*
X26716Y32113D01*
X26007Y32112D01*
G37*
G36*
X26008Y28612D02*
X26008Y28356D01*
X26717Y28357D01*
X26717Y28613D01*
X26008Y28612D01*
G37*
G36*
X22247Y31112D02*
X22247Y30856D01*
X22956Y30857D01*
X22956Y31113D01*
X22247Y31112D01*
G37*
G36*
X26007Y30612D02*
X26007Y30356D01*
X26716Y30357D01*
X26716Y30613D01*
X26007Y30612D01*
G37*
G36*
X26007Y31112D02*
X26007Y30856D01*
X26716Y30857D01*
X26716Y31113D01*
X26007Y31112D01*
G37*
G36*
X26007Y30112D02*
X26007Y29856D01*
X26716Y29857D01*
X26716Y30113D01*
X26007Y30112D01*
G37*
G36*
X22248Y30612D02*
X22248Y30356D01*
X22957Y30357D01*
X22957Y30613D01*
X22248Y30612D01*
G37*
G36*
X22248Y30112D02*
X22248Y29856D01*
X22957Y29857D01*
X22957Y30113D01*
X22248Y30112D01*
G37*
G36*
X22247Y31612D02*
X22247Y31356D01*
X22956Y31357D01*
X22956Y31613D01*
X22247Y31612D01*
G37*
G36*
X22248Y28612D02*
X22248Y28356D01*
X22957Y28357D01*
X22957Y28613D01*
X22248Y28612D01*
G37*
G36*
X26007Y29612D02*
X26007Y29356D01*
X26716Y29357D01*
X26716Y29613D01*
X26007Y29612D01*
G37*
G36*
X22248Y29112D02*
X22248Y28856D01*
X22957Y28857D01*
X22957Y29113D01*
X22248Y29112D01*
G37*
G36*
X22248Y29612D02*
X22248Y29356D01*
X22957Y29357D01*
X22957Y29613D01*
X22248Y29612D01*
G37*
G36*
X22247Y32112D02*
X22247Y31856D01*
X22956Y31857D01*
X22956Y32113D01*
X22247Y32112D01*
G37*
G36*
X26007Y31612D02*
X26007Y31356D01*
X26716Y31357D01*
X26716Y31613D01*
X26007Y31612D01*
G37*
G36*
X26007Y29112D02*
X26007Y28856D01*
X26716Y28857D01*
X26716Y29113D01*
X26007Y29112D01*
G37*
G36*
X20383Y18375D02*
X20383Y17855D01*
X21383Y17855D01*
X21383Y18375D01*
X20383Y18375D01*
G37*
G36*
X19407Y23492D02*
X19407Y23236D01*
X20116Y23237D01*
X20116Y23493D01*
X19407Y23492D01*
G37*
G36*
X19408Y19992D02*
X19408Y19736D01*
X20117Y19737D01*
X20117Y19993D01*
X19408Y19992D01*
G37*
G36*
X15647Y22492D02*
X15647Y22236D01*
X16356Y22237D01*
X16356Y22493D01*
X15647Y22492D01*
G37*
G36*
X19407Y21992D02*
X19407Y21736D01*
X20116Y21737D01*
X20116Y21993D01*
X19407Y21992D01*
G37*
G36*
X19407Y22492D02*
X19407Y22236D01*
X20116Y22237D01*
X20116Y22493D01*
X19407Y22492D01*
G37*
G36*
X19407Y21492D02*
X19407Y21236D01*
X20116Y21237D01*
X20116Y21493D01*
X19407Y21492D01*
G37*
G36*
X15648Y21992D02*
X15648Y21736D01*
X16357Y21737D01*
X16357Y21993D01*
X15648Y21992D01*
G37*
G36*
X15648Y21492D02*
X15648Y21236D01*
X16357Y21237D01*
X16357Y21493D01*
X15648Y21492D01*
G37*
G36*
X15647Y22992D02*
X15647Y22736D01*
X16356Y22737D01*
X16356Y22993D01*
X15647Y22992D01*
G37*
G36*
X15648Y19992D02*
X15648Y19736D01*
X16357Y19737D01*
X16357Y19993D01*
X15648Y19992D01*
G37*
G36*
X19407Y20992D02*
X19407Y20736D01*
X20116Y20737D01*
X20116Y20993D01*
X19407Y20992D01*
G37*
G36*
X15648Y20492D02*
X15648Y20236D01*
X16357Y20237D01*
X16357Y20493D01*
X15648Y20492D01*
G37*
G36*
X15648Y20992D02*
X15648Y20736D01*
X16357Y20737D01*
X16357Y20993D01*
X15648Y20992D01*
G37*
G36*
X15647Y23492D02*
X15647Y23236D01*
X16356Y23237D01*
X16356Y23493D01*
X15647Y23492D01*
G37*
G36*
X19407Y22992D02*
X19407Y22736D01*
X20116Y22737D01*
X20116Y22993D01*
X19407Y22992D01*
G37*
G36*
X19407Y20492D02*
X19407Y20236D01*
X20116Y20237D01*
X20116Y20493D01*
X19407Y20492D01*
G37*
G36*
X26983Y18375D02*
X26983Y17855D01*
X27983Y17855D01*
X27983Y18375D01*
X26983Y18375D01*
G37*
G36*
X26007Y23492D02*
X26007Y23236D01*
X26716Y23237D01*
X26716Y23493D01*
X26007Y23492D01*
G37*
G36*
X26008Y19992D02*
X26008Y19736D01*
X26717Y19737D01*
X26717Y19993D01*
X26008Y19992D01*
G37*
G36*
X22247Y22492D02*
X22247Y22236D01*
X22956Y22237D01*
X22956Y22493D01*
X22247Y22492D01*
G37*
G36*
X26007Y21992D02*
X26007Y21736D01*
X26716Y21737D01*
X26716Y21993D01*
X26007Y21992D01*
G37*
G36*
X26007Y22492D02*
X26007Y22236D01*
X26716Y22237D01*
X26716Y22493D01*
X26007Y22492D01*
G37*
G36*
X26007Y21492D02*
X26007Y21236D01*
X26716Y21237D01*
X26716Y21493D01*
X26007Y21492D01*
G37*
G36*
X22248Y21992D02*
X22248Y21736D01*
X22957Y21737D01*
X22957Y21993D01*
X22248Y21992D01*
G37*
G36*
X22248Y21492D02*
X22248Y21236D01*
X22957Y21237D01*
X22957Y21493D01*
X22248Y21492D01*
G37*
G36*
X22247Y22992D02*
X22247Y22736D01*
X22956Y22737D01*
X22956Y22993D01*
X22247Y22992D01*
G37*
G36*
X22248Y19992D02*
X22248Y19736D01*
X22957Y19737D01*
X22957Y19993D01*
X22248Y19992D01*
G37*
G36*
X26007Y20992D02*
X26007Y20736D01*
X26716Y20737D01*
X26716Y20993D01*
X26007Y20992D01*
G37*
G36*
X22248Y20492D02*
X22248Y20236D01*
X22957Y20237D01*
X22957Y20493D01*
X22248Y20492D01*
G37*
G36*
X22248Y20992D02*
X22248Y20736D01*
X22957Y20737D01*
X22957Y20993D01*
X22248Y20992D01*
G37*
G36*
X22247Y23492D02*
X22247Y23236D01*
X22956Y23237D01*
X22956Y23493D01*
X22247Y23492D01*
G37*
G36*
X26007Y22992D02*
X26007Y22736D01*
X26716Y22737D01*
X26716Y22993D01*
X26007Y22992D01*
G37*
G36*
X26007Y20492D02*
X26007Y20236D01*
X26716Y20237D01*
X26716Y20493D01*
X26007Y20492D01*
G37*
G36*
X20383Y26995D02*
X20383Y26475D01*
X21383Y26475D01*
X21383Y26995D01*
X20383Y26995D01*
G37*
G36*
X19407Y32112D02*
X19407Y31856D01*
X20116Y31857D01*
X20116Y32113D01*
X19407Y32112D01*
G37*
G36*
X19408Y28612D02*
X19408Y28356D01*
X20117Y28357D01*
X20117Y28613D01*
X19408Y28612D01*
G37*
G36*
X15647Y31112D02*
X15647Y30856D01*
X16356Y30857D01*
X16356Y31113D01*
X15647Y31112D01*
G37*
G36*
X19407Y30612D02*
X19407Y30356D01*
X20116Y30357D01*
X20116Y30613D01*
X19407Y30612D01*
G37*
G36*
X19407Y31112D02*
X19407Y30856D01*
X20116Y30857D01*
X20116Y31113D01*
X19407Y31112D01*
G37*
G36*
X19407Y30112D02*
X19407Y29856D01*
X20116Y29857D01*
X20116Y30113D01*
X19407Y30112D01*
G37*
G36*
X15648Y30612D02*
X15648Y30356D01*
X16357Y30357D01*
X16357Y30613D01*
X15648Y30612D01*
G37*
G36*
X15648Y30112D02*
X15648Y29856D01*
X16357Y29857D01*
X16357Y30113D01*
X15648Y30112D01*
G37*
G36*
X15647Y31612D02*
X15647Y31356D01*
X16356Y31357D01*
X16356Y31613D01*
X15647Y31612D01*
G37*
G36*
X15648Y28612D02*
X15648Y28356D01*
X16357Y28357D01*
X16357Y28613D01*
X15648Y28612D01*
G37*
G36*
X19407Y29612D02*
X19407Y29356D01*
X20116Y29357D01*
X20116Y29613D01*
X19407Y29612D01*
G37*
G36*
X15648Y29112D02*
X15648Y28856D01*
X16357Y28857D01*
X16357Y29113D01*
X15648Y29112D01*
G37*
G36*
X15648Y29612D02*
X15648Y29356D01*
X16357Y29357D01*
X16357Y29613D01*
X15648Y29612D01*
G37*
G36*
X15647Y32112D02*
X15647Y31856D01*
X16356Y31857D01*
X16356Y32113D01*
X15647Y32112D01*
G37*
G36*
X19407Y31612D02*
X19407Y31356D01*
X20116Y31357D01*
X20116Y31613D01*
X19407Y31612D01*
G37*
G36*
X19407Y29112D02*
X19407Y28856D01*
X20116Y28857D01*
X20116Y29113D01*
X19407Y29112D01*
G37*
G36*
X33583Y26995D02*
X33583Y26475D01*
X34583Y26475D01*
X34583Y26995D01*
X33583Y26995D01*
G37*
G36*
X32607Y32112D02*
X32607Y31856D01*
X33316Y31857D01*
X33316Y32113D01*
X32607Y32112D01*
G37*
G36*
X32608Y28612D02*
X32608Y28356D01*
X33317Y28357D01*
X33317Y28613D01*
X32608Y28612D01*
G37*
G36*
X28847Y31112D02*
X28847Y30856D01*
X29556Y30857D01*
X29556Y31113D01*
X28847Y31112D01*
G37*
G36*
X32607Y30612D02*
X32607Y30356D01*
X33316Y30357D01*
X33316Y30613D01*
X32607Y30612D01*
G37*
G36*
X32607Y31112D02*
X32607Y30856D01*
X33316Y30857D01*
X33316Y31113D01*
X32607Y31112D01*
G37*
G36*
X32607Y30112D02*
X32607Y29856D01*
X33316Y29857D01*
X33316Y30113D01*
X32607Y30112D01*
G37*
G36*
X28848Y30612D02*
X28848Y30356D01*
X29557Y30357D01*
X29557Y30613D01*
X28848Y30612D01*
G37*
G36*
X28848Y30112D02*
X28848Y29856D01*
X29557Y29857D01*
X29557Y30113D01*
X28848Y30112D01*
G37*
G36*
X28847Y31612D02*
X28847Y31356D01*
X29556Y31357D01*
X29556Y31613D01*
X28847Y31612D01*
G37*
G36*
X28848Y28612D02*
X28848Y28356D01*
X29557Y28357D01*
X29557Y28613D01*
X28848Y28612D01*
G37*
G36*
X32607Y29612D02*
X32607Y29356D01*
X33316Y29357D01*
X33316Y29613D01*
X32607Y29612D01*
G37*
G36*
X28848Y29112D02*
X28848Y28856D01*
X29557Y28857D01*
X29557Y29113D01*
X28848Y29112D01*
G37*
G36*
X28848Y29612D02*
X28848Y29356D01*
X29557Y29357D01*
X29557Y29613D01*
X28848Y29612D01*
G37*
G36*
X28847Y32112D02*
X28847Y31856D01*
X29556Y31857D01*
X29556Y32113D01*
X28847Y32112D01*
G37*
G36*
X32607Y31612D02*
X32607Y31356D01*
X33316Y31357D01*
X33316Y31613D01*
X32607Y31612D01*
G37*
G36*
X32607Y29112D02*
X32607Y28856D01*
X33316Y28857D01*
X33316Y29113D01*
X32607Y29112D01*
G37*
G36*
X33583Y18375D02*
X33583Y17855D01*
X34583Y17855D01*
X34583Y18375D01*
X33583Y18375D01*
G37*
G36*
X32607Y23492D02*
X32607Y23236D01*
X33316Y23237D01*
X33316Y23493D01*
X32607Y23492D01*
G37*
G36*
X32608Y19992D02*
X32608Y19736D01*
X33317Y19737D01*
X33317Y19993D01*
X32608Y19992D01*
G37*
G36*
X28847Y22492D02*
X28847Y22236D01*
X29556Y22237D01*
X29556Y22493D01*
X28847Y22492D01*
G37*
G36*
X32607Y21992D02*
X32607Y21736D01*
X33316Y21737D01*
X33316Y21993D01*
X32607Y21992D01*
G37*
G36*
X32607Y22492D02*
X32607Y22236D01*
X33316Y22237D01*
X33316Y22493D01*
X32607Y22492D01*
G37*
G36*
X32607Y21492D02*
X32607Y21236D01*
X33316Y21237D01*
X33316Y21493D01*
X32607Y21492D01*
G37*
G36*
X28848Y21992D02*
X28848Y21736D01*
X29557Y21737D01*
X29557Y21993D01*
X28848Y21992D01*
G37*
G36*
X28848Y21492D02*
X28848Y21236D01*
X29557Y21237D01*
X29557Y21493D01*
X28848Y21492D01*
G37*
G36*
X28847Y22992D02*
X28847Y22736D01*
X29556Y22737D01*
X29556Y22993D01*
X28847Y22992D01*
G37*
G36*
X28848Y19992D02*
X28848Y19736D01*
X29557Y19737D01*
X29557Y19993D01*
X28848Y19992D01*
G37*
G36*
X32607Y20992D02*
X32607Y20736D01*
X33316Y20737D01*
X33316Y20993D01*
X32607Y20992D01*
G37*
G36*
X28848Y20492D02*
X28848Y20236D01*
X29557Y20237D01*
X29557Y20493D01*
X28848Y20492D01*
G37*
G36*
X28848Y20992D02*
X28848Y20736D01*
X29557Y20737D01*
X29557Y20993D01*
X28848Y20992D01*
G37*
G36*
X28847Y23492D02*
X28847Y23236D01*
X29556Y23237D01*
X29556Y23493D01*
X28847Y23492D01*
G37*
G36*
X32607Y22992D02*
X32607Y22736D01*
X33316Y22737D01*
X33316Y22993D01*
X32607Y22992D01*
G37*
G36*
X32607Y20492D02*
X32607Y20236D01*
X33316Y20237D01*
X33316Y20493D01*
X32607Y20492D01*
G37*
G36*
X1072Y29033D02*
X552Y29033D01*
X552Y28513D01*
X1072Y28513D01*
X1072Y29033D01*
G37*
G36*
X5690Y29997D02*
X5434Y29997D01*
X5435Y29288D01*
X5691Y29288D01*
X5690Y29997D01*
G37*
G36*
X3690Y29997D02*
X3434Y29997D01*
X3435Y29288D01*
X3691Y29288D01*
X3690Y29997D01*
G37*
G36*
X6189Y33757D02*
X5933Y33757D01*
X5934Y33048D01*
X6190Y33048D01*
X6189Y33757D01*
G37*
G36*
X4189Y33756D02*
X3933Y33756D01*
X3934Y33047D01*
X4190Y33047D01*
X4189Y33756D01*
G37*
G36*
X3189Y33756D02*
X2933Y33756D01*
X2934Y33047D01*
X3190Y33047D01*
X3189Y33756D01*
G37*
G36*
X3689Y33756D02*
X3433Y33756D01*
X3434Y33047D01*
X3690Y33047D01*
X3689Y33756D01*
G37*
G36*
X5190Y29997D02*
X4934Y29997D01*
X4935Y29288D01*
X5191Y29288D01*
X5190Y29997D01*
G37*
G36*
X5689Y33757D02*
X5433Y33757D01*
X5434Y33048D01*
X5690Y33048D01*
X5689Y33757D01*
G37*
G36*
X6190Y29997D02*
X5934Y29997D01*
X5935Y29288D01*
X6191Y29288D01*
X6190Y29997D01*
G37*
G36*
X5189Y33757D02*
X4933Y33757D01*
X4934Y33048D01*
X5190Y33048D01*
X5189Y33757D01*
G37*
G36*
X4689Y33756D02*
X4433Y33756D01*
X4434Y33047D01*
X4690Y33047D01*
X4689Y33756D01*
G37*
G36*
X4190Y29997D02*
X3934Y29997D01*
X3935Y29288D01*
X4191Y29288D01*
X4190Y29997D01*
G37*
G36*
X3190Y29996D02*
X2934Y29996D01*
X2935Y29287D01*
X3191Y29287D01*
X3190Y29996D01*
G37*
G36*
X4690Y29997D02*
X4434Y29997D01*
X4435Y29288D01*
X4691Y29288D01*
X4690Y29997D01*
G37*
G36*
X2689Y33756D02*
X2433Y33756D01*
X2434Y33047D01*
X2690Y33047D01*
X2689Y33756D01*
G37*
G36*
X2690Y29996D02*
X2434Y29996D01*
X2435Y29287D01*
X2691Y29287D01*
X2690Y29996D01*
G37*
G36*
X14667Y1072D02*
X14667Y552D01*
X15187Y552D01*
X15187Y1072D01*
X14667Y1072D01*
G37*
G36*
X13702Y5690D02*
X13702Y5434D01*
X14411Y5435D01*
X14411Y5691D01*
X13702Y5690D01*
G37*
G36*
X13702Y3690D02*
X13702Y3434D01*
X14411Y3435D01*
X14411Y3691D01*
X13702Y3690D01*
G37*
G36*
X9942Y6189D02*
X9942Y5933D01*
X10651Y5934D01*
X10651Y6190D01*
X9942Y6189D01*
G37*
G36*
X9943Y4189D02*
X9943Y3933D01*
X10652Y3934D01*
X10652Y4190D01*
X9943Y4189D01*
G37*
G36*
X9943Y3189D02*
X9943Y2933D01*
X10652Y2934D01*
X10652Y3190D01*
X9943Y3189D01*
G37*
G36*
X9943Y3689D02*
X9943Y3433D01*
X10652Y3434D01*
X10652Y3690D01*
X9943Y3689D01*
G37*
G36*
X13702Y5190D02*
X13702Y4934D01*
X14411Y4935D01*
X14411Y5191D01*
X13702Y5190D01*
G37*
G36*
X9942Y5689D02*
X9942Y5433D01*
X10651Y5434D01*
X10651Y5690D01*
X9942Y5689D01*
G37*
G36*
X13702Y6190D02*
X13702Y5934D01*
X14411Y5935D01*
X14411Y6191D01*
X13702Y6190D01*
G37*
G36*
X9942Y5189D02*
X9942Y4933D01*
X10651Y4934D01*
X10651Y5190D01*
X9942Y5189D01*
G37*
G36*
X9943Y4689D02*
X9943Y4433D01*
X10652Y4434D01*
X10652Y4690D01*
X9943Y4689D01*
G37*
G36*
X13702Y4190D02*
X13702Y3934D01*
X14411Y3935D01*
X14411Y4191D01*
X13702Y4190D01*
G37*
G36*
X13703Y3190D02*
X13703Y2934D01*
X14412Y2935D01*
X14412Y3191D01*
X13703Y3190D01*
G37*
G36*
X13702Y4690D02*
X13702Y4434D01*
X14411Y4435D01*
X14411Y4691D01*
X13702Y4690D01*
G37*
G36*
X9943Y2689D02*
X9943Y2433D01*
X10652Y2434D01*
X10652Y2690D01*
X9943Y2689D01*
G37*
G36*
X13703Y2690D02*
X13703Y2434D01*
X14412Y2435D01*
X14412Y2691D01*
X13703Y2690D01*
G37*
G36*
X21787Y1072D02*
X21787Y552D01*
X22307Y552D01*
X22307Y1072D01*
X21787Y1072D01*
G37*
G36*
X20822Y5690D02*
X20822Y5434D01*
X21531Y5435D01*
X21531Y5691D01*
X20822Y5690D01*
G37*
G36*
X20822Y3690D02*
X20822Y3434D01*
X21531Y3435D01*
X21531Y3691D01*
X20822Y3690D01*
G37*
G36*
X17062Y6189D02*
X17062Y5933D01*
X17771Y5934D01*
X17771Y6190D01*
X17062Y6189D01*
G37*
G36*
X17063Y4189D02*
X17063Y3933D01*
X17772Y3934D01*
X17772Y4190D01*
X17063Y4189D01*
G37*
G36*
X17063Y3189D02*
X17063Y2933D01*
X17772Y2934D01*
X17772Y3190D01*
X17063Y3189D01*
G37*
G36*
X17063Y3689D02*
X17063Y3433D01*
X17772Y3434D01*
X17772Y3690D01*
X17063Y3689D01*
G37*
G36*
X20822Y5190D02*
X20822Y4934D01*
X21531Y4935D01*
X21531Y5191D01*
X20822Y5190D01*
G37*
G36*
X17062Y5689D02*
X17062Y5433D01*
X17771Y5434D01*
X17771Y5690D01*
X17062Y5689D01*
G37*
G36*
X20822Y6190D02*
X20822Y5934D01*
X21531Y5935D01*
X21531Y6191D01*
X20822Y6190D01*
G37*
G36*
X17062Y5189D02*
X17062Y4933D01*
X17771Y4934D01*
X17771Y5190D01*
X17062Y5189D01*
G37*
G36*
X17063Y4689D02*
X17063Y4433D01*
X17772Y4434D01*
X17772Y4690D01*
X17063Y4689D01*
G37*
G36*
X20822Y4190D02*
X20822Y3934D01*
X21531Y3935D01*
X21531Y4191D01*
X20822Y4190D01*
G37*
G36*
X20823Y3190D02*
X20823Y2934D01*
X21532Y2935D01*
X21532Y3191D01*
X20823Y3190D01*
G37*
G36*
X20822Y4690D02*
X20822Y4434D01*
X21531Y4435D01*
X21531Y4691D01*
X20822Y4690D01*
G37*
G36*
X17063Y2689D02*
X17063Y2433D01*
X17772Y2434D01*
X17772Y2690D01*
X17063Y2689D01*
G37*
G36*
X20823Y2690D02*
X20823Y2434D01*
X21532Y2435D01*
X21532Y2691D01*
X20823Y2690D01*
G37*
G36*
X36027Y1072D02*
X36027Y552D01*
X36547Y552D01*
X36547Y1072D01*
X36027Y1072D01*
G37*
G36*
X35062Y5690D02*
X35062Y5434D01*
X35771Y5435D01*
X35771Y5691D01*
X35062Y5690D01*
G37*
G36*
X35062Y3690D02*
X35062Y3434D01*
X35771Y3435D01*
X35771Y3691D01*
X35062Y3690D01*
G37*
G36*
X31302Y6189D02*
X31302Y5933D01*
X32011Y5934D01*
X32011Y6190D01*
X31302Y6189D01*
G37*
G36*
X31303Y4189D02*
X31303Y3933D01*
X32012Y3934D01*
X32012Y4190D01*
X31303Y4189D01*
G37*
G36*
X31303Y3189D02*
X31303Y2933D01*
X32012Y2934D01*
X32012Y3190D01*
X31303Y3189D01*
G37*
G36*
X31303Y3689D02*
X31303Y3433D01*
X32012Y3434D01*
X32012Y3690D01*
X31303Y3689D01*
G37*
G36*
X35062Y5190D02*
X35062Y4934D01*
X35771Y4935D01*
X35771Y5191D01*
X35062Y5190D01*
G37*
G36*
X31302Y5689D02*
X31302Y5433D01*
X32011Y5434D01*
X32011Y5690D01*
X31302Y5689D01*
G37*
G36*
X35062Y6190D02*
X35062Y5934D01*
X35771Y5935D01*
X35771Y6191D01*
X35062Y6190D01*
G37*
G36*
X31302Y5189D02*
X31302Y4933D01*
X32011Y4934D01*
X32011Y5190D01*
X31302Y5189D01*
G37*
G36*
X31303Y4689D02*
X31303Y4433D01*
X32012Y4434D01*
X32012Y4690D01*
X31303Y4689D01*
G37*
G36*
X35062Y4190D02*
X35062Y3934D01*
X35771Y3935D01*
X35771Y4191D01*
X35062Y4190D01*
G37*
G36*
X35063Y3190D02*
X35063Y2934D01*
X35772Y2935D01*
X35772Y3191D01*
X35063Y3190D01*
G37*
G36*
X35062Y4690D02*
X35062Y4434D01*
X35771Y4435D01*
X35771Y4691D01*
X35062Y4690D01*
G37*
G36*
X31303Y2689D02*
X31303Y2433D01*
X32012Y2434D01*
X32012Y2690D01*
X31303Y2689D01*
G37*
G36*
X35063Y2690D02*
X35063Y2434D01*
X35772Y2435D01*
X35772Y2691D01*
X35063Y2690D01*
G37*
G36*
X28907Y1072D02*
X28907Y552D01*
X29427Y552D01*
X29427Y1072D01*
X28907Y1072D01*
G37*
G36*
X27942Y5690D02*
X27942Y5434D01*
X28651Y5435D01*
X28651Y5691D01*
X27942Y5690D01*
G37*
G36*
X27942Y3690D02*
X27942Y3434D01*
X28651Y3435D01*
X28651Y3691D01*
X27942Y3690D01*
G37*
G36*
X24182Y6189D02*
X24182Y5933D01*
X24891Y5934D01*
X24891Y6190D01*
X24182Y6189D01*
G37*
G36*
X24183Y4189D02*
X24183Y3933D01*
X24892Y3934D01*
X24892Y4190D01*
X24183Y4189D01*
G37*
G36*
X24183Y3189D02*
X24183Y2933D01*
X24892Y2934D01*
X24892Y3190D01*
X24183Y3189D01*
G37*
G36*
X24183Y3689D02*
X24183Y3433D01*
X24892Y3434D01*
X24892Y3690D01*
X24183Y3689D01*
G37*
G36*
X27942Y5190D02*
X27942Y4934D01*
X28651Y4935D01*
X28651Y5191D01*
X27942Y5190D01*
G37*
G36*
X24182Y5689D02*
X24182Y5433D01*
X24891Y5434D01*
X24891Y5690D01*
X24182Y5689D01*
G37*
G36*
X27942Y6190D02*
X27942Y5934D01*
X28651Y5935D01*
X28651Y6191D01*
X27942Y6190D01*
G37*
G36*
X24182Y5189D02*
X24182Y4933D01*
X24891Y4934D01*
X24891Y5190D01*
X24182Y5189D01*
G37*
G36*
X24183Y4689D02*
X24183Y4433D01*
X24892Y4434D01*
X24892Y4690D01*
X24183Y4689D01*
G37*
G36*
X27942Y4190D02*
X27942Y3934D01*
X28651Y3935D01*
X28651Y4191D01*
X27942Y4190D01*
G37*
G36*
X27943Y3190D02*
X27943Y2934D01*
X28652Y2935D01*
X28652Y3191D01*
X27943Y3190D01*
G37*
G36*
X27942Y4690D02*
X27942Y4434D01*
X28651Y4435D01*
X28651Y4691D01*
X27942Y4690D01*
G37*
G36*
X24183Y2689D02*
X24183Y2433D01*
X24892Y2434D01*
X24892Y2690D01*
X24183Y2689D01*
G37*
G36*
X27943Y2690D02*
X27943Y2434D01*
X28652Y2435D01*
X28652Y2691D01*
X27943Y2690D01*
G37*
G36*
X14667Y9692D02*
X14667Y9172D01*
X15187Y9172D01*
X15187Y9692D01*
X14667Y9692D01*
G37*
G36*
X13702Y14310D02*
X13702Y14054D01*
X14411Y14055D01*
X14411Y14311D01*
X13702Y14310D01*
G37*
G36*
X13702Y12310D02*
X13702Y12054D01*
X14411Y12055D01*
X14411Y12311D01*
X13702Y12310D01*
G37*
G36*
X9942Y14809D02*
X9942Y14553D01*
X10651Y14554D01*
X10651Y14810D01*
X9942Y14809D01*
G37*
G36*
X9943Y12809D02*
X9943Y12553D01*
X10652Y12554D01*
X10652Y12810D01*
X9943Y12809D01*
G37*
G36*
X9943Y11809D02*
X9943Y11553D01*
X10652Y11554D01*
X10652Y11810D01*
X9943Y11809D01*
G37*
G36*
X9943Y12309D02*
X9943Y12053D01*
X10652Y12054D01*
X10652Y12310D01*
X9943Y12309D01*
G37*
G36*
X13702Y13810D02*
X13702Y13554D01*
X14411Y13555D01*
X14411Y13811D01*
X13702Y13810D01*
G37*
G36*
X9942Y14309D02*
X9942Y14053D01*
X10651Y14054D01*
X10651Y14310D01*
X9942Y14309D01*
G37*
G36*
X13702Y14810D02*
X13702Y14554D01*
X14411Y14555D01*
X14411Y14811D01*
X13702Y14810D01*
G37*
G36*
X9942Y13809D02*
X9942Y13553D01*
X10651Y13554D01*
X10651Y13810D01*
X9942Y13809D01*
G37*
G36*
X9943Y13309D02*
X9943Y13053D01*
X10652Y13054D01*
X10652Y13310D01*
X9943Y13309D01*
G37*
G36*
X13702Y12810D02*
X13702Y12554D01*
X14411Y12555D01*
X14411Y12811D01*
X13702Y12810D01*
G37*
G36*
X13703Y11810D02*
X13703Y11554D01*
X14412Y11555D01*
X14412Y11811D01*
X13703Y11810D01*
G37*
G36*
X13702Y13310D02*
X13702Y13054D01*
X14411Y13055D01*
X14411Y13311D01*
X13702Y13310D01*
G37*
G36*
X9943Y11309D02*
X9943Y11053D01*
X10652Y11054D01*
X10652Y11310D01*
X9943Y11309D01*
G37*
G36*
X13703Y11310D02*
X13703Y11054D01*
X14412Y11055D01*
X14412Y11311D01*
X13703Y11310D01*
G37*
G36*
X21787Y9692D02*
X21787Y9172D01*
X22307Y9172D01*
X22307Y9692D01*
X21787Y9692D01*
G37*
G36*
X20822Y14310D02*
X20822Y14054D01*
X21531Y14055D01*
X21531Y14311D01*
X20822Y14310D01*
G37*
G36*
X20822Y12310D02*
X20822Y12054D01*
X21531Y12055D01*
X21531Y12311D01*
X20822Y12310D01*
G37*
G36*
X17062Y14809D02*
X17062Y14553D01*
X17771Y14554D01*
X17771Y14810D01*
X17062Y14809D01*
G37*
G36*
X17063Y12809D02*
X17063Y12553D01*
X17772Y12554D01*
X17772Y12810D01*
X17063Y12809D01*
G37*
G36*
X17063Y11809D02*
X17063Y11553D01*
X17772Y11554D01*
X17772Y11810D01*
X17063Y11809D01*
G37*
G36*
X17063Y12309D02*
X17063Y12053D01*
X17772Y12054D01*
X17772Y12310D01*
X17063Y12309D01*
G37*
G36*
X20822Y13810D02*
X20822Y13554D01*
X21531Y13555D01*
X21531Y13811D01*
X20822Y13810D01*
G37*
G36*
X17062Y14309D02*
X17062Y14053D01*
X17771Y14054D01*
X17771Y14310D01*
X17062Y14309D01*
G37*
G36*
X20822Y14810D02*
X20822Y14554D01*
X21531Y14555D01*
X21531Y14811D01*
X20822Y14810D01*
G37*
G36*
X17062Y13809D02*
X17062Y13553D01*
X17771Y13554D01*
X17771Y13810D01*
X17062Y13809D01*
G37*
G36*
X17063Y13309D02*
X17063Y13053D01*
X17772Y13054D01*
X17772Y13310D01*
X17063Y13309D01*
G37*
G36*
X20822Y12810D02*
X20822Y12554D01*
X21531Y12555D01*
X21531Y12811D01*
X20822Y12810D01*
G37*
G36*
X20823Y11810D02*
X20823Y11554D01*
X21532Y11555D01*
X21532Y11811D01*
X20823Y11810D01*
G37*
G36*
X20822Y13310D02*
X20822Y13054D01*
X21531Y13055D01*
X21531Y13311D01*
X20822Y13310D01*
G37*
G36*
X17063Y11309D02*
X17063Y11053D01*
X17772Y11054D01*
X17772Y11310D01*
X17063Y11309D01*
G37*
G36*
X20823Y11310D02*
X20823Y11054D01*
X21532Y11055D01*
X21532Y11311D01*
X20823Y11310D01*
G37*
G36*
X28907Y9692D02*
X28907Y9172D01*
X29427Y9172D01*
X29427Y9692D01*
X28907Y9692D01*
G37*
G36*
X27942Y14310D02*
X27942Y14054D01*
X28651Y14055D01*
X28651Y14311D01*
X27942Y14310D01*
G37*
G36*
X27942Y12310D02*
X27942Y12054D01*
X28651Y12055D01*
X28651Y12311D01*
X27942Y12310D01*
G37*
G36*
X24182Y14809D02*
X24182Y14553D01*
X24891Y14554D01*
X24891Y14810D01*
X24182Y14809D01*
G37*
G36*
X24183Y12809D02*
X24183Y12553D01*
X24892Y12554D01*
X24892Y12810D01*
X24183Y12809D01*
G37*
G36*
X24183Y11809D02*
X24183Y11553D01*
X24892Y11554D01*
X24892Y11810D01*
X24183Y11809D01*
G37*
G36*
X24183Y12309D02*
X24183Y12053D01*
X24892Y12054D01*
X24892Y12310D01*
X24183Y12309D01*
G37*
G36*
X27942Y13810D02*
X27942Y13554D01*
X28651Y13555D01*
X28651Y13811D01*
X27942Y13810D01*
G37*
G36*
X24182Y14309D02*
X24182Y14053D01*
X24891Y14054D01*
X24891Y14310D01*
X24182Y14309D01*
G37*
G36*
X27942Y14810D02*
X27942Y14554D01*
X28651Y14555D01*
X28651Y14811D01*
X27942Y14810D01*
G37*
G36*
X24182Y13809D02*
X24182Y13553D01*
X24891Y13554D01*
X24891Y13810D01*
X24182Y13809D01*
G37*
G36*
X24183Y13309D02*
X24183Y13053D01*
X24892Y13054D01*
X24892Y13310D01*
X24183Y13309D01*
G37*
G36*
X27942Y12810D02*
X27942Y12554D01*
X28651Y12555D01*
X28651Y12811D01*
X27942Y12810D01*
G37*
G36*
X27943Y11810D02*
X27943Y11554D01*
X28652Y11555D01*
X28652Y11811D01*
X27943Y11810D01*
G37*
G36*
X27942Y13310D02*
X27942Y13054D01*
X28651Y13055D01*
X28651Y13311D01*
X27942Y13310D01*
G37*
G36*
X24183Y11309D02*
X24183Y11053D01*
X24892Y11054D01*
X24892Y11310D01*
X24183Y11309D01*
G37*
G36*
X27943Y11310D02*
X27943Y11054D01*
X28652Y11055D01*
X28652Y11311D01*
X27943Y11310D01*
G37*
G36*
X1072Y21913D02*
X552Y21913D01*
X552Y21393D01*
X1072Y21393D01*
X1072Y21913D01*
G37*
G36*
X5690Y22877D02*
X5434Y22877D01*
X5435Y22168D01*
X5691Y22168D01*
X5690Y22877D01*
G37*
G36*
X3690Y22877D02*
X3434Y22877D01*
X3435Y22168D01*
X3691Y22168D01*
X3690Y22877D01*
G37*
G36*
X6189Y26637D02*
X5933Y26637D01*
X5934Y25928D01*
X6190Y25928D01*
X6189Y26637D01*
G37*
G36*
X4189Y26636D02*
X3933Y26636D01*
X3934Y25927D01*
X4190Y25927D01*
X4189Y26636D01*
G37*
G36*
X3189Y26636D02*
X2933Y26636D01*
X2934Y25927D01*
X3190Y25927D01*
X3189Y26636D01*
G37*
G36*
X3689Y26636D02*
X3433Y26636D01*
X3434Y25927D01*
X3690Y25927D01*
X3689Y26636D01*
G37*
G36*
X5190Y22877D02*
X4934Y22877D01*
X4935Y22168D01*
X5191Y22168D01*
X5190Y22877D01*
G37*
G36*
X5689Y26637D02*
X5433Y26637D01*
X5434Y25928D01*
X5690Y25928D01*
X5689Y26637D01*
G37*
G36*
X6190Y22877D02*
X5934Y22877D01*
X5935Y22168D01*
X6191Y22168D01*
X6190Y22877D01*
G37*
G36*
X5189Y26637D02*
X4933Y26637D01*
X4934Y25928D01*
X5190Y25928D01*
X5189Y26637D01*
G37*
G36*
X4689Y26636D02*
X4433Y26636D01*
X4434Y25927D01*
X4690Y25927D01*
X4689Y26636D01*
G37*
G36*
X4190Y22877D02*
X3934Y22877D01*
X3935Y22168D01*
X4191Y22168D01*
X4190Y22877D01*
G37*
G36*
X3190Y22876D02*
X2934Y22876D01*
X2935Y22167D01*
X3191Y22167D01*
X3190Y22876D01*
G37*
G36*
X4690Y22877D02*
X4434Y22877D01*
X4435Y22168D01*
X4691Y22168D01*
X4690Y22877D01*
G37*
G36*
X2689Y26636D02*
X2433Y26636D01*
X2434Y25927D01*
X2690Y25927D01*
X2689Y26636D01*
G37*
G36*
X2690Y22876D02*
X2434Y22876D01*
X2435Y22167D01*
X2691Y22167D01*
X2690Y22876D01*
G37*
G36*
X1072Y14793D02*
X552Y14793D01*
X552Y14273D01*
X1072Y14273D01*
X1072Y14793D01*
G37*
G36*
X5690Y15757D02*
X5434Y15757D01*
X5435Y15048D01*
X5691Y15048D01*
X5690Y15757D01*
G37*
G36*
X3690Y15757D02*
X3434Y15757D01*
X3435Y15048D01*
X3691Y15048D01*
X3690Y15757D01*
G37*
G36*
X6189Y19517D02*
X5933Y19517D01*
X5934Y18808D01*
X6190Y18808D01*
X6189Y19517D01*
G37*
G36*
X4189Y19516D02*
X3933Y19516D01*
X3934Y18807D01*
X4190Y18807D01*
X4189Y19516D01*
G37*
G36*
X3189Y19516D02*
X2933Y19516D01*
X2934Y18807D01*
X3190Y18807D01*
X3189Y19516D01*
G37*
G36*
X3689Y19516D02*
X3433Y19516D01*
X3434Y18807D01*
X3690Y18807D01*
X3689Y19516D01*
G37*
G36*
X5190Y15757D02*
X4934Y15757D01*
X4935Y15048D01*
X5191Y15048D01*
X5190Y15757D01*
G37*
G36*
X5689Y19517D02*
X5433Y19517D01*
X5434Y18808D01*
X5690Y18808D01*
X5689Y19517D01*
G37*
G36*
X6190Y15757D02*
X5934Y15757D01*
X5935Y15048D01*
X6191Y15048D01*
X6190Y15757D01*
G37*
G36*
X5189Y19517D02*
X4933Y19517D01*
X4934Y18808D01*
X5190Y18808D01*
X5189Y19517D01*
G37*
G36*
X4689Y19516D02*
X4433Y19516D01*
X4434Y18807D01*
X4690Y18807D01*
X4689Y19516D01*
G37*
G36*
X4190Y15757D02*
X3934Y15757D01*
X3935Y15048D01*
X4191Y15048D01*
X4190Y15757D01*
G37*
G36*
X3190Y15756D02*
X2934Y15756D01*
X2935Y15047D01*
X3191Y15047D01*
X3190Y15756D01*
G37*
G36*
X4690Y15757D02*
X4434Y15757D01*
X4435Y15048D01*
X4691Y15048D01*
X4690Y15757D01*
G37*
G36*
X2689Y19516D02*
X2433Y19516D01*
X2434Y18807D01*
X2690Y18807D01*
X2689Y19516D01*
G37*
G36*
X2690Y15756D02*
X2434Y15756D01*
X2435Y15047D01*
X2691Y15047D01*
X2690Y15756D01*
G37*
G36*
X1072Y7673D02*
X552Y7673D01*
X552Y7153D01*
X1072Y7153D01*
X1072Y7673D01*
G37*
G36*
X5690Y8637D02*
X5434Y8637D01*
X5435Y7928D01*
X5691Y7928D01*
X5690Y8637D01*
G37*
G36*
X3690Y8637D02*
X3434Y8637D01*
X3435Y7928D01*
X3691Y7928D01*
X3690Y8637D01*
G37*
G36*
X6189Y12397D02*
X5933Y12397D01*
X5934Y11688D01*
X6190Y11688D01*
X6189Y12397D01*
G37*
G36*
X4189Y12396D02*
X3933Y12396D01*
X3934Y11687D01*
X4190Y11687D01*
X4189Y12396D01*
G37*
G36*
X3189Y12396D02*
X2933Y12396D01*
X2934Y11687D01*
X3190Y11687D01*
X3189Y12396D01*
G37*
G36*
X3689Y12396D02*
X3433Y12396D01*
X3434Y11687D01*
X3690Y11687D01*
X3689Y12396D01*
G37*
G36*
X5190Y8637D02*
X4934Y8637D01*
X4935Y7928D01*
X5191Y7928D01*
X5190Y8637D01*
G37*
G36*
X5689Y12397D02*
X5433Y12397D01*
X5434Y11688D01*
X5690Y11688D01*
X5689Y12397D01*
G37*
G36*
X6190Y8637D02*
X5934Y8637D01*
X5935Y7928D01*
X6191Y7928D01*
X6190Y8637D01*
G37*
G36*
X5189Y12397D02*
X4933Y12397D01*
X4934Y11688D01*
X5190Y11688D01*
X5189Y12397D01*
G37*
G36*
X4689Y12396D02*
X4433Y12396D01*
X4434Y11687D01*
X4690Y11687D01*
X4689Y12396D01*
G37*
G36*
X4190Y8637D02*
X3934Y8637D01*
X3935Y7928D01*
X4191Y7928D01*
X4190Y8637D01*
G37*
G36*
X3190Y8636D02*
X2934Y8636D01*
X2935Y7927D01*
X3191Y7927D01*
X3190Y8636D01*
G37*
G36*
X4690Y8637D02*
X4434Y8637D01*
X4435Y7928D01*
X4691Y7928D01*
X4690Y8637D01*
G37*
G36*
X2689Y12396D02*
X2433Y12396D01*
X2434Y11687D01*
X2690Y11687D01*
X2689Y12396D01*
G37*
G36*
X2690Y8636D02*
X2434Y8636D01*
X2435Y7927D01*
X2691Y7927D01*
X2690Y8636D01*
G37*
G36*
X36027Y9692D02*
X36027Y9172D01*
X36547Y9172D01*
X36547Y9692D01*
X36027Y9692D01*
G37*
G36*
X35062Y14310D02*
X35062Y14054D01*
X35771Y14055D01*
X35771Y14311D01*
X35062Y14310D01*
G37*
G36*
X35062Y12310D02*
X35062Y12054D01*
X35771Y12055D01*
X35771Y12311D01*
X35062Y12310D01*
G37*
G36*
X31302Y14809D02*
X31302Y14553D01*
X32011Y14554D01*
X32011Y14810D01*
X31302Y14809D01*
G37*
G36*
X31303Y12809D02*
X31303Y12553D01*
X32012Y12554D01*
X32012Y12810D01*
X31303Y12809D01*
G37*
G36*
X31303Y11809D02*
X31303Y11553D01*
X32012Y11554D01*
X32012Y11810D01*
X31303Y11809D01*
G37*
G36*
X31303Y12309D02*
X31303Y12053D01*
X32012Y12054D01*
X32012Y12310D01*
X31303Y12309D01*
G37*
G36*
X35062Y13810D02*
X35062Y13554D01*
X35771Y13555D01*
X35771Y13811D01*
X35062Y13810D01*
G37*
G36*
X31302Y14309D02*
X31302Y14053D01*
X32011Y14054D01*
X32011Y14310D01*
X31302Y14309D01*
G37*
G36*
X35062Y14810D02*
X35062Y14554D01*
X35771Y14555D01*
X35771Y14811D01*
X35062Y14810D01*
G37*
G36*
X31302Y13809D02*
X31302Y13553D01*
X32011Y13554D01*
X32011Y13810D01*
X31302Y13809D01*
G37*
G36*
X31303Y13309D02*
X31303Y13053D01*
X32012Y13054D01*
X32012Y13310D01*
X31303Y13309D01*
G37*
G36*
X35062Y12810D02*
X35062Y12554D01*
X35771Y12555D01*
X35771Y12811D01*
X35062Y12810D01*
G37*
G36*
X35063Y11810D02*
X35063Y11554D01*
X35772Y11555D01*
X35772Y11811D01*
X35063Y11810D01*
G37*
G36*
X35062Y13310D02*
X35062Y13054D01*
X35771Y13055D01*
X35771Y13311D01*
X35062Y13310D01*
G37*
G36*
X31303Y11309D02*
X31303Y11053D01*
X32012Y11054D01*
X32012Y11310D01*
X31303Y11309D01*
G37*
G36*
X35063Y11310D02*
X35063Y11054D01*
X35772Y11055D01*
X35772Y11311D01*
X35063Y11310D01*
G37*
M02*
