M48
INCH
T1C0.0200
T2C0.0320
%
G05
M72
T1
X1.2495Y2.2865
X1.2485Y2.0422
X1.2495Y3.1485
X1.2485Y2.9042
X0.5625Y0.2725
X0.3182Y0.2735
X2.5695Y3.1485
X2.5685Y2.9042
X1.9095Y2.2865
X1.9085Y2.0422
X2.5695Y2.2865
X2.5685Y2.0422
X1.9095Y3.1485
X1.9085Y2.9042
X3.2295Y3.1485
X3.2285Y2.9042
X3.2295Y2.2865
X3.2285Y2.0422
X0.6633Y2.9822
X0.6782Y3.3372
X0.1840Y2.9668
X0.1990Y3.3220
X1.3878Y0.6633
X1.0328Y0.6782
X1.4032Y0.1840
X1.0480Y0.1990
X2.0998Y0.6633
X1.7448Y0.6782
X2.1152Y0.1840
X1.7600Y0.1990
X3.5238Y0.6633
X3.1688Y0.6782
X3.5392Y0.1840
X3.1840Y0.1990
X2.8118Y0.6633
X2.4568Y0.6782
X2.8272Y0.1840
X2.4720Y0.1990
X1.3878Y1.5253
X1.0328Y1.5402
X1.4032Y1.0460
X1.0480Y1.0610
X2.0998Y1.5253
X1.7448Y1.5402
X2.1152Y1.0460
X1.7600Y1.0610
X2.8118Y1.5253
X2.4568Y1.5402
X2.8272Y1.0460
X2.4720Y1.0610
X0.6633Y2.2702
X0.6782Y2.6252
X0.1840Y2.2548
X0.1990Y2.6100
X0.6633Y1.5582
X0.6782Y1.9132
X0.1840Y1.5428
X0.1990Y1.8980
X0.6633Y0.8462
X0.6782Y1.2012
X0.1840Y0.8308
X0.1990Y1.1860
X3.5238Y1.5253
X3.1688Y1.5402
X3.5392Y1.0460
X3.1840Y1.0610
T2
X1.4283Y2.2115
X1.1283Y2.2115
X1.4283Y2.3115
X1.1283Y2.3115
X1.4283Y2.4115
X1.1283Y2.4115
X1.4283Y2.5115
X1.1283Y2.5115
X1.4283Y1.8115
X1.1283Y1.8115
X1.4283Y1.9115
X1.1283Y1.9115
X1.4283Y2.0115
X1.1283Y2.0115
X1.4283Y2.1115
X1.1283Y2.1115
X1.4283Y3.0735
X1.1283Y3.0735
X1.4283Y3.1735
X1.1283Y3.1735
X1.4283Y3.2735
X1.1283Y3.2735
X1.4283Y3.3735
X1.1283Y3.3735
X1.4283Y2.6735
X1.1283Y2.6735
X1.4283Y2.7735
X1.1283Y2.7735
X1.4283Y2.8735
X1.1283Y2.8735
X1.4283Y2.9735
X1.1283Y2.9735
X0.4875Y0.0937
X0.4875Y0.3937
X0.5875Y0.0937
X0.5875Y0.3937
X0.6875Y0.0937
X0.6875Y0.3937
X0.7875Y0.0937
X0.7875Y0.3937
X0.0875Y0.0937
X0.0875Y0.3937
X0.1875Y0.0937
X0.1875Y0.3937
X0.2875Y0.0937
X0.2875Y0.3937
X0.3875Y0.0937
X0.3875Y0.3937
X2.7483Y3.0735
X2.4483Y3.0735
X2.7483Y3.1735
X2.4483Y3.1735
X2.7483Y3.2735
X2.4483Y3.2735
X2.7483Y3.3735
X2.4483Y3.3735
X2.7483Y2.6735
X2.4483Y2.6735
X2.7483Y2.7735
X2.4483Y2.7735
X2.7483Y2.8735
X2.4483Y2.8735
X2.7483Y2.9735
X2.4483Y2.9735
X2.0883Y2.2115
X1.7883Y2.2115
X2.0883Y2.3115
X1.7883Y2.3115
X2.0883Y2.4115
X1.7883Y2.4115
X2.0883Y2.5115
X1.7883Y2.5115
X2.0883Y1.8115
X1.7883Y1.8115
X2.0883Y1.9115
X1.7883Y1.9115
X2.0883Y2.0115
X1.7883Y2.0115
X2.0883Y2.1115
X1.7883Y2.1115
X2.7483Y2.2115
X2.4483Y2.2115
X2.7483Y2.3115
X2.4483Y2.3115
X2.7483Y2.4115
X2.4483Y2.4115
X2.7483Y2.5115
X2.4483Y2.5115
X2.7483Y1.8115
X2.4483Y1.8115
X2.7483Y1.9115
X2.4483Y1.9115
X2.7483Y2.0115
X2.4483Y2.0115
X2.7483Y2.1115
X2.4483Y2.1115
X2.0883Y3.0735
X1.7883Y3.0735
X2.0883Y3.1735
X1.7883Y3.1735
X2.0883Y3.2735
X1.7883Y3.2735
X2.0883Y3.3735
X1.7883Y3.3735
X2.0883Y2.6735
X1.7883Y2.6735
X2.0883Y2.7735
X1.7883Y2.7735
X2.0883Y2.8735
X1.7883Y2.8735
X2.0883Y2.9735
X1.7883Y2.9735
X3.4083Y3.0735
X3.1083Y3.0735
X3.4083Y3.1735
X3.1083Y3.1735
X3.4083Y3.2735
X3.1083Y3.2735
X3.4083Y3.3735
X3.1083Y3.3735
X3.4083Y2.6735
X3.1083Y2.6735
X3.4083Y2.7735
X3.1083Y2.7735
X3.4083Y2.8735
X3.1083Y2.8735
X3.4083Y2.9735
X3.1083Y2.9735
X3.4083Y2.2115
X3.1083Y2.2115
X3.4083Y2.3115
X3.1083Y2.3115
X3.4083Y2.4115
X3.1083Y2.4115
X3.4083Y2.5115
X3.1083Y2.5115
X3.4083Y1.8115
X3.1083Y1.8115
X3.4083Y1.9115
X3.1083Y1.9115
X3.4083Y2.0115
X3.1083Y2.0115
X3.4083Y2.1115
X3.1083Y2.1115
X0.4812Y3.4273
X0.4812Y2.8773
X0.5812Y3.4273
X0.5812Y2.8773
X0.6812Y3.4273
X0.6812Y2.8773
X0.7812Y3.4273
X0.7812Y2.8773
X0.0812Y3.4273
X0.0812Y2.8773
X0.1812Y3.4273
X0.1812Y2.8773
X0.2812Y3.4273
X0.2812Y2.8773
X0.3812Y3.4273
X0.3812Y2.8773
X0.9427Y0.4812
X1.4927Y0.4812
X0.9427Y0.5812
X1.4927Y0.5812
X0.9427Y0.6812
X1.4927Y0.6812
X0.9427Y0.7812
X1.4927Y0.7812
X0.9427Y0.0812
X1.4927Y0.0812
X0.9427Y0.1812
X1.4927Y0.1812
X0.9427Y0.2812
X1.4927Y0.2812
X0.9427Y0.3812
X1.4927Y0.3812
X1.6547Y0.4812
X2.2047Y0.4812
X1.6547Y0.5812
X2.2047Y0.5812
X1.6547Y0.6812
X2.2047Y0.6812
X1.6547Y0.7812
X2.2047Y0.7812
X1.6547Y0.0812
X2.2047Y0.0812
X1.6547Y0.1812
X2.2047Y0.1812
X1.6547Y0.2812
X2.2047Y0.2812
X1.6547Y0.3812
X2.2047Y0.3812
X3.0787Y0.4812
X3.6287Y0.4812
X3.0787Y0.5812
X3.6287Y0.5812
X3.0787Y0.6812
X3.6287Y0.6812
X3.0787Y0.7812
X3.6287Y0.7812
X3.0787Y0.0812
X3.6287Y0.0812
X3.0787Y0.1812
X3.6287Y0.1812
X3.0787Y0.2812
X3.6287Y0.2812
X3.0787Y0.3812
X3.6287Y0.3812
X2.3667Y0.4812
X2.9167Y0.4812
X2.3667Y0.5812
X2.9167Y0.5812
X2.3667Y0.6812
X2.9167Y0.6812
X2.3667Y0.7812
X2.9167Y0.7812
X2.3667Y0.0812
X2.9167Y0.0812
X2.3667Y0.1812
X2.9167Y0.1812
X2.3667Y0.2812
X2.9167Y0.2812
X2.3667Y0.3812
X2.9167Y0.3812
X0.9427Y1.3432
X1.4927Y1.3432
X0.9427Y1.4432
X1.4927Y1.4432
X0.9427Y1.5432
X1.4927Y1.5432
X0.9427Y1.6432
X1.4927Y1.6432
X0.9427Y0.9432
X1.4927Y0.9432
X0.9427Y1.0432
X1.4927Y1.0432
X0.9427Y1.1432
X1.4927Y1.1432
X0.9427Y1.2432
X1.4927Y1.2432
X1.6547Y1.3432
X2.2047Y1.3432
X1.6547Y1.4432
X2.2047Y1.4432
X1.6547Y1.5432
X2.2047Y1.5432
X1.6547Y1.6432
X2.2047Y1.6432
X1.6547Y0.9432
X2.2047Y0.9432
X1.6547Y1.0432
X2.2047Y1.0432
X1.6547Y1.1432
X2.2047Y1.1432
X1.6547Y1.2432
X2.2047Y1.2432
X2.3667Y1.3432
X2.9167Y1.3432
X2.3667Y1.4432
X2.9167Y1.4432
X2.3667Y1.5432
X2.9167Y1.5432
X2.3667Y1.6432
X2.9167Y1.6432
X2.3667Y0.9432
X2.9167Y0.9432
X2.3667Y1.0432
X2.9167Y1.0432
X2.3667Y1.1432
X2.9167Y1.1432
X2.3667Y1.2432
X2.9167Y1.2432
X0.4812Y2.7153
X0.4812Y2.1653
X0.5812Y2.7153
X0.5812Y2.1653
X0.6812Y2.7153
X0.6812Y2.1653
X0.7812Y2.7153
X0.7812Y2.1653
X0.0812Y2.7153
X0.0812Y2.1653
X0.1812Y2.7153
X0.1812Y2.1653
X0.2812Y2.7153
X0.2812Y2.1653
X0.3812Y2.7153
X0.3812Y2.1653
X0.4812Y2.0033
X0.4812Y1.4533
X0.5812Y2.0033
X0.5812Y1.4533
X0.6812Y2.0033
X0.6812Y1.4533
X0.7812Y2.0033
X0.7812Y1.4533
X0.0812Y2.0033
X0.0812Y1.4533
X0.1812Y2.0033
X0.1812Y1.4533
X0.2812Y2.0033
X0.2812Y1.4533
X0.3812Y2.0033
X0.3812Y1.4533
X0.4812Y1.2913
X0.4812Y0.7413
X0.5812Y1.2913
X0.5812Y0.7413
X0.6812Y1.2913
X0.6812Y0.7413
X0.7812Y1.2913
X0.7812Y0.7413
X0.0812Y1.2913
X0.0812Y0.7413
X0.1812Y1.2913
X0.1812Y0.7413
X0.2812Y1.2913
X0.2812Y0.7413
X0.3812Y1.2913
X0.3812Y0.7413
X3.0787Y1.3432
X3.6287Y1.3432
X3.0787Y1.4432
X3.6287Y1.4432
X3.0787Y1.5432
X3.6287Y1.5432
X3.0787Y1.6432
X3.6287Y1.6432
X3.0787Y0.9432
X3.6287Y0.9432
X3.0787Y1.0432
X3.6287Y1.0432
X3.0787Y1.1432
X3.6287Y1.1432
X3.0787Y1.2432
X3.6287Y1.2432
T0
M30
