M48
INCH
T1C0.0197
T2C0.0320
%
G05
M72
T1
X0.4380Y0.1770
X0.3831Y0.3032
X0.3329Y0.2440
X0.3869Y0.1868
X0.4180Y0.2564
X0.3342Y0.3129
X1.2254Y0.1770
X1.1706Y0.3032
X1.1203Y0.2440
X1.1743Y0.1868
X1.2054Y0.2564
X1.1216Y0.3129
X2.0128Y0.1770
X1.9580Y0.3032
X1.9077Y0.2440
X1.9617Y0.1868
X1.9928Y0.2564
X1.9090Y0.3129
X2.8002Y0.1770
X2.7454Y0.3032
X2.6951Y0.2440
X2.7491Y0.1868
X2.7802Y0.2564
X2.6964Y0.3129
X3.5876Y0.1770
X3.5328Y0.3032
X3.4825Y0.2440
X3.5365Y0.1868
X3.5676Y0.2564
X3.4838Y0.3129
X0.4380Y0.6573
X0.3831Y0.7835
X0.3329Y0.7243
X0.3869Y0.6671
X0.4180Y0.7367
X0.3342Y0.7932
X1.2254Y0.6573
X1.1706Y0.7835
X1.1203Y0.7243
X1.1743Y0.6671
X1.2054Y0.7367
X1.1216Y0.7932
X2.0128Y0.6573
X1.9580Y0.7835
X1.9077Y0.7243
X1.9617Y0.6671
X1.9928Y0.7367
X1.9090Y0.7932
X2.8002Y0.6573
X2.7454Y0.7835
X2.6951Y0.7243
X2.7491Y0.6671
X2.7802Y0.7367
X2.6964Y0.7932
X3.5876Y0.6573
X3.5328Y0.7835
X3.4825Y0.7243
X3.5365Y0.6671
X3.5676Y0.7367
X3.4838Y0.7932
X0.4380Y1.1376
X0.3831Y1.2638
X0.3329Y1.2046
X0.3869Y1.1474
X0.4180Y1.2170
X0.3342Y1.2735
X1.2254Y1.1376
X1.1706Y1.2638
X1.1203Y1.2046
X1.1743Y1.1474
X1.2054Y1.2170
X1.1216Y1.2735
X2.0128Y1.1376
X1.9580Y1.2638
X1.9077Y1.2046
X1.9617Y1.1474
X1.9928Y1.2170
X1.9090Y1.2735
X2.8002Y1.1376
X2.7454Y1.2638
X2.6951Y1.2046
X2.7491Y1.1474
X2.7802Y1.2170
X2.6964Y1.2735
X3.5876Y1.1376
X3.5328Y1.2638
X3.4825Y1.2046
X3.5365Y1.1474
X3.5676Y1.2170
X3.4838Y1.2735
X0.4380Y1.6179
X0.3831Y1.7441
X0.3329Y1.6849
X0.3869Y1.6277
X0.4180Y1.6973
X0.3342Y1.7538
X1.2254Y1.6179
X1.1706Y1.7441
X1.1203Y1.6849
X1.1743Y1.6277
X1.2054Y1.6973
X1.1216Y1.7538
X2.0128Y1.6179
X1.9580Y1.7441
X1.9077Y1.6849
X1.9617Y1.6277
X1.9928Y1.6973
X1.9090Y1.7538
X2.8002Y1.6179
X2.7454Y1.7441
X2.6951Y1.6849
X2.7491Y1.6277
X2.7802Y1.6973
X2.6964Y1.7538
X3.5876Y1.6179
X3.5328Y1.7441
X3.4825Y1.6849
X3.5365Y1.6277
X3.5676Y1.6973
X3.4838Y1.7538
X0.4380Y2.0982
X0.3831Y2.2244
X0.3329Y2.1652
X0.3869Y2.1080
X0.4180Y2.1777
X0.3342Y2.2342
X1.2254Y2.0982
X1.1706Y2.2244
X1.1203Y2.1652
X1.1743Y2.1080
X1.2054Y2.1777
X1.1216Y2.2342
X2.0128Y2.0982
X1.9580Y2.2244
X1.9077Y2.1652
X1.9617Y2.1080
X1.9928Y2.1777
X1.9090Y2.2342
X2.8002Y2.0982
X2.7454Y2.2244
X2.6951Y2.1652
X2.7491Y2.1080
X2.7802Y2.1777
X2.6964Y2.2342
X3.5876Y2.0982
X3.5328Y2.2244
X3.4825Y2.1652
X3.5365Y2.1080
X3.5676Y2.1777
X3.4838Y2.2342
X0.4380Y2.5785
X0.3831Y2.7047
X0.3329Y2.6455
X0.3869Y2.5883
X0.4180Y2.6580
X0.3342Y2.7145
X1.2254Y2.5785
X1.1706Y2.7047
X1.1203Y2.6455
X1.1743Y2.5883
X1.2054Y2.6580
X1.1216Y2.7145
X2.0128Y2.5785
X1.9580Y2.7047
X1.9077Y2.6455
X1.9617Y2.5883
X1.9928Y2.6580
X1.9090Y2.7145
X2.8002Y2.5785
X2.7454Y2.7047
X2.6951Y2.6455
X2.7491Y2.5883
X2.7802Y2.6580
X2.6964Y2.7145
X3.5876Y2.5785
X3.5328Y2.7047
X3.4825Y2.6455
X3.5365Y2.5883
X3.5676Y2.6580
X3.4838Y2.7145
X0.4380Y3.0589
X0.3831Y3.1851
X0.3329Y3.1259
X0.3869Y3.0687
X0.4180Y3.1383
X0.3342Y3.1948
X1.2254Y3.0589
X1.1706Y3.1851
X1.1203Y3.1259
X1.1743Y3.0687
X1.2054Y3.1383
X1.1216Y3.1948
X2.0128Y3.0589
X1.9580Y3.1851
X1.9077Y3.1259
X1.9617Y3.0687
X1.9928Y3.1383
X1.9090Y3.1948
X2.8002Y3.0589
X2.7454Y3.1851
X2.6951Y3.1259
X2.7491Y3.0687
X2.7802Y3.1383
X2.6964Y3.1948
X3.5876Y3.0589
X3.5328Y3.1851
X3.4825Y3.1259
X3.5365Y3.0687
X3.5676Y3.1383
X3.4838Y3.1948
X0.4380Y3.5392
X0.3831Y3.6654
X0.3329Y3.6062
X0.3869Y3.5490
X0.4180Y3.6186
X0.3342Y3.6751
X1.2254Y3.5392
X1.1706Y3.6654
X1.1203Y3.6062
X1.1743Y3.5490
X1.2054Y3.6186
X1.1216Y3.6751
X2.0128Y3.5392
X1.9580Y3.6654
X1.9077Y3.6062
X1.9617Y3.5490
X1.9928Y3.6186
X1.9090Y3.6751
X2.8002Y3.5392
X2.7454Y3.6654
X2.6951Y3.6062
X2.7491Y3.5490
X2.7802Y3.6186
X2.6964Y3.6751
X3.5876Y3.5392
X3.5328Y3.6654
X3.4825Y3.6062
X3.5365Y3.5490
X3.5676Y3.6186
X3.4838Y3.6751
T2
X0.5843Y0.3929
X0.1843Y0.3929
X0.6843Y0.0929
X0.2843Y0.0929
X0.6843Y0.3929
X0.2843Y0.3929
X0.1843Y0.0929
X0.4843Y0.3929
X0.4843Y0.0929
X0.0843Y0.0929
X0.5843Y0.0929
X0.3843Y0.3929
X0.0843Y0.3929
X0.3843Y0.0929
X1.3717Y0.3929
X0.9717Y0.3929
X1.4717Y0.0929
X1.0717Y0.0929
X1.4717Y0.3929
X1.0717Y0.3929
X0.9717Y0.0929
X1.2717Y0.3929
X1.2717Y0.0929
X0.8717Y0.0929
X1.3717Y0.0929
X1.1717Y0.3929
X0.8717Y0.3929
X1.1717Y0.0929
X2.1591Y0.3929
X1.7591Y0.3929
X2.2591Y0.0929
X1.8591Y0.0929
X2.2591Y0.3929
X1.8591Y0.3929
X1.7591Y0.0929
X2.0591Y0.3929
X2.0591Y0.0929
X1.6591Y0.0929
X2.1591Y0.0929
X1.9591Y0.3929
X1.6591Y0.3929
X1.9591Y0.0929
X2.9465Y0.3929
X2.5465Y0.3929
X3.0465Y0.0929
X2.6465Y0.0929
X3.0465Y0.3929
X2.6465Y0.3929
X2.5465Y0.0929
X2.8465Y0.3929
X2.8465Y0.0929
X2.4465Y0.0929
X2.9465Y0.0929
X2.7465Y0.3929
X2.4465Y0.3929
X2.7465Y0.0929
X3.7339Y0.3929
X3.3339Y0.3929
X3.8339Y0.0929
X3.4339Y0.0929
X3.8339Y0.3929
X3.4339Y0.3929
X3.3339Y0.0929
X3.6339Y0.3929
X3.6339Y0.0929
X3.2339Y0.0929
X3.7339Y0.0929
X3.5339Y0.3929
X3.2339Y0.3929
X3.5339Y0.0929
X0.5843Y0.8732
X0.1843Y0.8732
X0.6843Y0.5732
X0.2843Y0.5732
X0.6843Y0.8732
X0.2843Y0.8732
X0.1843Y0.5732
X0.4843Y0.8732
X0.4843Y0.5732
X0.0843Y0.5732
X0.5843Y0.5732
X0.3843Y0.8732
X0.0843Y0.8732
X0.3843Y0.5732
X1.3717Y0.8732
X0.9717Y0.8732
X1.4717Y0.5732
X1.0717Y0.5732
X1.4717Y0.8732
X1.0717Y0.8732
X0.9717Y0.5732
X1.2717Y0.8732
X1.2717Y0.5732
X0.8717Y0.5732
X1.3717Y0.5732
X1.1717Y0.8732
X0.8717Y0.8732
X1.1717Y0.5732
X2.1591Y0.8732
X1.7591Y0.8732
X2.2591Y0.5732
X1.8591Y0.5732
X2.2591Y0.8732
X1.8591Y0.8732
X1.7591Y0.5732
X2.0591Y0.8732
X2.0591Y0.5732
X1.6591Y0.5732
X2.1591Y0.5732
X1.9591Y0.8732
X1.6591Y0.8732
X1.9591Y0.5732
X2.9465Y0.8732
X2.5465Y0.8732
X3.0465Y0.5732
X2.6465Y0.5732
X3.0465Y0.8732
X2.6465Y0.8732
X2.5465Y0.5732
X2.8465Y0.8732
X2.8465Y0.5732
X2.4465Y0.5732
X2.9465Y0.5732
X2.7465Y0.8732
X2.4465Y0.8732
X2.7465Y0.5732
X3.7339Y0.8732
X3.3339Y0.8732
X3.8339Y0.5732
X3.4339Y0.5732
X3.8339Y0.8732
X3.4339Y0.8732
X3.3339Y0.5732
X3.6339Y0.8732
X3.6339Y0.5732
X3.2339Y0.5732
X3.7339Y0.5732
X3.5339Y0.8732
X3.2339Y0.8732
X3.5339Y0.5732
X0.5843Y1.3535
X0.1843Y1.3535
X0.6843Y1.0535
X0.2843Y1.0535
X0.6843Y1.3535
X0.2843Y1.3535
X0.1843Y1.0535
X0.4843Y1.3535
X0.4843Y1.0535
X0.0843Y1.0535
X0.5843Y1.0535
X0.3843Y1.3535
X0.0843Y1.3535
X0.3843Y1.0535
X1.3717Y1.3535
X0.9717Y1.3535
X1.4717Y1.0535
X1.0717Y1.0535
X1.4717Y1.3535
X1.0717Y1.3535
X0.9717Y1.0535
X1.2717Y1.3535
X1.2717Y1.0535
X0.8717Y1.0535
X1.3717Y1.0535
X1.1717Y1.3535
X0.8717Y1.3535
X1.1717Y1.0535
X2.1591Y1.3535
X1.7591Y1.3535
X2.2591Y1.0535
X1.8591Y1.0535
X2.2591Y1.3535
X1.8591Y1.3535
X1.7591Y1.0535
X2.0591Y1.3535
X2.0591Y1.0535
X1.6591Y1.0535
X2.1591Y1.0535
X1.9591Y1.3535
X1.6591Y1.3535
X1.9591Y1.0535
X2.9465Y1.3535
X2.5465Y1.3535
X3.0465Y1.0535
X2.6465Y1.0535
X3.0465Y1.3535
X2.6465Y1.3535
X2.5465Y1.0535
X2.8465Y1.3535
X2.8465Y1.0535
X2.4465Y1.0535
X2.9465Y1.0535
X2.7465Y1.3535
X2.4465Y1.3535
X2.7465Y1.0535
X3.7339Y1.3535
X3.3339Y1.3535
X3.8339Y1.0535
X3.4339Y1.0535
X3.8339Y1.3535
X3.4339Y1.3535
X3.3339Y1.0535
X3.6339Y1.3535
X3.6339Y1.0535
X3.2339Y1.0535
X3.7339Y1.0535
X3.5339Y1.3535
X3.2339Y1.3535
X3.5339Y1.0535
X0.5843Y1.8339
X0.1843Y1.8339
X0.6843Y1.5339
X0.2843Y1.5339
X0.6843Y1.8339
X0.2843Y1.8339
X0.1843Y1.5339
X0.4843Y1.8339
X0.4843Y1.5339
X0.0843Y1.5339
X0.5843Y1.5339
X0.3843Y1.8339
X0.0843Y1.8339
X0.3843Y1.5339
X1.3717Y1.8339
X0.9717Y1.8339
X1.4717Y1.5339
X1.0717Y1.5339
X1.4717Y1.8339
X1.0717Y1.8339
X0.9717Y1.5339
X1.2717Y1.8339
X1.2717Y1.5339
X0.8717Y1.5339
X1.3717Y1.5339
X1.1717Y1.8339
X0.8717Y1.8339
X1.1717Y1.5339
X2.1591Y1.8339
X1.7591Y1.8339
X2.2591Y1.5339
X1.8591Y1.5339
X2.2591Y1.8339
X1.8591Y1.8339
X1.7591Y1.5339
X2.0591Y1.8339
X2.0591Y1.5339
X1.6591Y1.5339
X2.1591Y1.5339
X1.9591Y1.8339
X1.6591Y1.8339
X1.9591Y1.5339
X2.9465Y1.8339
X2.5465Y1.8339
X3.0465Y1.5339
X2.6465Y1.5339
X3.0465Y1.8339
X2.6465Y1.8339
X2.5465Y1.5339
X2.8465Y1.8339
X2.8465Y1.5339
X2.4465Y1.5339
X2.9465Y1.5339
X2.7465Y1.8339
X2.4465Y1.8339
X2.7465Y1.5339
X3.7339Y1.8339
X3.3339Y1.8339
X3.8339Y1.5339
X3.4339Y1.5339
X3.8339Y1.8339
X3.4339Y1.8339
X3.3339Y1.5339
X3.6339Y1.8339
X3.6339Y1.5339
X3.2339Y1.5339
X3.7339Y1.5339
X3.5339Y1.8339
X3.2339Y1.8339
X3.5339Y1.5339
X0.5843Y2.3142
X0.1843Y2.3142
X0.6843Y2.0142
X0.2843Y2.0142
X0.6843Y2.3142
X0.2843Y2.3142
X0.1843Y2.0142
X0.4843Y2.3142
X0.4843Y2.0142
X0.0843Y2.0142
X0.5843Y2.0142
X0.3843Y2.3142
X0.0843Y2.3142
X0.3843Y2.0142
X1.3717Y2.3142
X0.9717Y2.3142
X1.4717Y2.0142
X1.0717Y2.0142
X1.4717Y2.3142
X1.0717Y2.3142
X0.9717Y2.0142
X1.2717Y2.3142
X1.2717Y2.0142
X0.8717Y2.0142
X1.3717Y2.0142
X1.1717Y2.3142
X0.8717Y2.3142
X1.1717Y2.0142
X2.1591Y2.3142
X1.7591Y2.3142
X2.2591Y2.0142
X1.8591Y2.0142
X2.2591Y2.3142
X1.8591Y2.3142
X1.7591Y2.0142
X2.0591Y2.3142
X2.0591Y2.0142
X1.6591Y2.0142
X2.1591Y2.0142
X1.9591Y2.3142
X1.6591Y2.3142
X1.9591Y2.0142
X2.9465Y2.3142
X2.5465Y2.3142
X3.0465Y2.0142
X2.6465Y2.0142
X3.0465Y2.3142
X2.6465Y2.3142
X2.5465Y2.0142
X2.8465Y2.3142
X2.8465Y2.0142
X2.4465Y2.0142
X2.9465Y2.0142
X2.7465Y2.3142
X2.4465Y2.3142
X2.7465Y2.0142
X3.7339Y2.3142
X3.3339Y2.3142
X3.8339Y2.0142
X3.4339Y2.0142
X3.8339Y2.3142
X3.4339Y2.3142
X3.3339Y2.0142
X3.6339Y2.3142
X3.6339Y2.0142
X3.2339Y2.0142
X3.7339Y2.0142
X3.5339Y2.3142
X3.2339Y2.3142
X3.5339Y2.0142
X0.5843Y2.7945
X0.1843Y2.7945
X0.6843Y2.4945
X0.2843Y2.4945
X0.6843Y2.7945
X0.2843Y2.7945
X0.1843Y2.4945
X0.4843Y2.7945
X0.4843Y2.4945
X0.0843Y2.4945
X0.5843Y2.4945
X0.3843Y2.7945
X0.0843Y2.7945
X0.3843Y2.4945
X1.3717Y2.7945
X0.9717Y2.7945
X1.4717Y2.4945
X1.0717Y2.4945
X1.4717Y2.7945
X1.0717Y2.7945
X0.9717Y2.4945
X1.2717Y2.7945
X1.2717Y2.4945
X0.8717Y2.4945
X1.3717Y2.4945
X1.1717Y2.7945
X0.8717Y2.7945
X1.1717Y2.4945
X2.1591Y2.7945
X1.7591Y2.7945
X2.2591Y2.4945
X1.8591Y2.4945
X2.2591Y2.7945
X1.8591Y2.7945
X1.7591Y2.4945
X2.0591Y2.7945
X2.0591Y2.4945
X1.6591Y2.4945
X2.1591Y2.4945
X1.9591Y2.7945
X1.6591Y2.7945
X1.9591Y2.4945
X2.9465Y2.7945
X2.5465Y2.7945
X3.0465Y2.4945
X2.6465Y2.4945
X3.0465Y2.7945
X2.6465Y2.7945
X2.5465Y2.4945
X2.8465Y2.7945
X2.8465Y2.4945
X2.4465Y2.4945
X2.9465Y2.4945
X2.7465Y2.7945
X2.4465Y2.7945
X2.7465Y2.4945
X3.7339Y2.7945
X3.3339Y2.7945
X3.8339Y2.4945
X3.4339Y2.4945
X3.8339Y2.7945
X3.4339Y2.7945
X3.3339Y2.4945
X3.6339Y2.7945
X3.6339Y2.4945
X3.2339Y2.4945
X3.7339Y2.4945
X3.5339Y2.7945
X3.2339Y2.7945
X3.5339Y2.4945
X0.5843Y3.2748
X0.1843Y3.2748
X0.6843Y2.9748
X0.2843Y2.9748
X0.6843Y3.2748
X0.2843Y3.2748
X0.1843Y2.9748
X0.4843Y3.2748
X0.4843Y2.9748
X0.0843Y2.9748
X0.5843Y2.9748
X0.3843Y3.2748
X0.0843Y3.2748
X0.3843Y2.9748
X1.3717Y3.2748
X0.9717Y3.2748
X1.4717Y2.9748
X1.0717Y2.9748
X1.4717Y3.2748
X1.0717Y3.2748
X0.9717Y2.9748
X1.2717Y3.2748
X1.2717Y2.9748
X0.8717Y2.9748
X1.3717Y2.9748
X1.1717Y3.2748
X0.8717Y3.2748
X1.1717Y2.9748
X2.1591Y3.2748
X1.7591Y3.2748
X2.2591Y2.9748
X1.8591Y2.9748
X2.2591Y3.2748
X1.8591Y3.2748
X1.7591Y2.9748
X2.0591Y3.2748
X2.0591Y2.9748
X1.6591Y2.9748
X2.1591Y2.9748
X1.9591Y3.2748
X1.6591Y3.2748
X1.9591Y2.9748
X2.9465Y3.2748
X2.5465Y3.2748
X3.0465Y2.9748
X2.6465Y2.9748
X3.0465Y3.2748
X2.6465Y3.2748
X2.5465Y2.9748
X2.8465Y3.2748
X2.8465Y2.9748
X2.4465Y2.9748
X2.9465Y2.9748
X2.7465Y3.2748
X2.4465Y3.2748
X2.7465Y2.9748
X3.7339Y3.2748
X3.3339Y3.2748
X3.8339Y2.9748
X3.4339Y2.9748
X3.8339Y3.2748
X3.4339Y3.2748
X3.3339Y2.9748
X3.6339Y3.2748
X3.6339Y2.9748
X3.2339Y2.9748
X3.7339Y2.9748
X3.5339Y3.2748
X3.2339Y3.2748
X3.5339Y2.9748
X0.5843Y3.7551
X0.1843Y3.7551
X0.6843Y3.4551
X0.2843Y3.4551
X0.6843Y3.7551
X0.2843Y3.7551
X0.1843Y3.4551
X0.4843Y3.7551
X0.4843Y3.4551
X0.0843Y3.4551
X0.5843Y3.4551
X0.3843Y3.7551
X0.0843Y3.7551
X0.3843Y3.4551
X1.3717Y3.7551
X0.9717Y3.7551
X1.4717Y3.4551
X1.0717Y3.4551
X1.4717Y3.7551
X1.0717Y3.7551
X0.9717Y3.4551
X1.2717Y3.7551
X1.2717Y3.4551
X0.8717Y3.4551
X1.3717Y3.4551
X1.1717Y3.7551
X0.8717Y3.7551
X1.1717Y3.4551
X2.1591Y3.7551
X1.7591Y3.7551
X2.2591Y3.4551
X1.8591Y3.4551
X2.2591Y3.7551
X1.8591Y3.7551
X1.7591Y3.4551
X2.0591Y3.7551
X2.0591Y3.4551
X1.6591Y3.4551
X2.1591Y3.4551
X1.9591Y3.7551
X1.6591Y3.7551
X1.9591Y3.4551
X2.9465Y3.7551
X2.5465Y3.7551
X3.0465Y3.4551
X2.6465Y3.4551
X3.0465Y3.7551
X2.6465Y3.7551
X2.5465Y3.4551
X2.8465Y3.7551
X2.8465Y3.4551
X2.4465Y3.4551
X2.9465Y3.4551
X2.7465Y3.7551
X2.4465Y3.7551
X2.7465Y3.4551
X3.7339Y3.7551
X3.3339Y3.7551
X3.8339Y3.4551
X3.4339Y3.4551
X3.8339Y3.7551
X3.4339Y3.7551
X3.3339Y3.4551
X3.6339Y3.7551
X3.6339Y3.4551
X3.2339Y3.4551
X3.7339Y3.4551
X3.5339Y3.7551
X3.2339Y3.7551
X3.5339Y3.4551
T0
M30
