%FSLAX24Y24*%
%MOIN*%
%ADD10C,0.0060*%
%ADD11C,0.0394*%
%ADD12C,0.0520*%
D10*
G01X1843Y929D02*
X2494Y1581D01*
X3988Y1581D01*
X4177Y1770D01*
X4380Y1770D01*
X6843Y3929D02*
X6080Y3167D01*
X3966Y3167D01*
X3831Y3032D01*
X3843Y3929D02*
X3668Y3929D01*
X3020Y3281D01*
X3020Y3010D01*
X3329Y2701D01*
X3329Y2440D01*
X843Y929D02*
X1781Y1868D01*
X3869Y1868D01*
X3843Y929D02*
X4077Y929D01*
X5074Y1926D01*
X5376Y1926D01*
X5429Y1978D01*
X5429Y2880D01*
X5400Y2909D01*
X4498Y2909D01*
X4180Y2591D01*
X4180Y2564D01*
X5843Y3929D02*
X5232Y3319D01*
X3532Y3319D01*
X3342Y3129D01*
X9717Y929D02*
X10368Y1581D01*
X11862Y1581D01*
X12051Y1770D01*
X12254Y1770D01*
X14717Y3929D02*
X13954Y3167D01*
X11840Y3167D01*
X11706Y3032D01*
X11717Y3929D02*
X11542Y3929D01*
X10894Y3281D01*
X10894Y3010D01*
X11203Y2701D01*
X11203Y2440D01*
X8717Y929D02*
X9655Y1868D01*
X11743Y1868D01*
X11717Y929D02*
X11951Y929D01*
X12948Y1926D01*
X13250Y1926D01*
X13303Y1978D01*
X13303Y2880D01*
X13274Y2909D01*
X12372Y2909D01*
X12054Y2591D01*
X12054Y2564D01*
X13717Y3929D02*
X13106Y3319D01*
X11406Y3319D01*
X11216Y3129D01*
X17591Y929D02*
X18242Y1581D01*
X19736Y1581D01*
X19925Y1770D01*
X20128Y1770D01*
X22591Y3929D02*
X21828Y3167D01*
X19714Y3167D01*
X19580Y3032D01*
X19591Y3929D02*
X19416Y3929D01*
X18768Y3281D01*
X18768Y3010D01*
X19077Y2701D01*
X19077Y2440D01*
X16591Y929D02*
X17529Y1868D01*
X19617Y1868D01*
X19591Y929D02*
X19825Y929D01*
X20822Y1926D01*
X21124Y1926D01*
X21177Y1978D01*
X21177Y2880D01*
X21148Y2909D01*
X20246Y2909D01*
X19928Y2591D01*
X19928Y2564D01*
X21591Y3929D02*
X20980Y3319D01*
X19280Y3319D01*
X19090Y3129D01*
X25465Y929D02*
X26116Y1581D01*
X27610Y1581D01*
X27799Y1770D01*
X28002Y1770D01*
X30465Y3929D02*
X29702Y3167D01*
X27588Y3167D01*
X27454Y3032D01*
X27465Y3929D02*
X27290Y3929D01*
X26642Y3281D01*
X26642Y3010D01*
X26951Y2701D01*
X26951Y2440D01*
X24465Y929D02*
X25403Y1868D01*
X27491Y1868D01*
X27465Y929D02*
X27699Y929D01*
X28696Y1926D01*
X28998Y1926D01*
X29051Y1978D01*
X29051Y2880D01*
X29022Y2909D01*
X28120Y2909D01*
X27802Y2591D01*
X27802Y2564D01*
X29465Y3929D02*
X28854Y3319D01*
X27154Y3319D01*
X26964Y3129D01*
X33339Y929D02*
X33990Y1581D01*
X35484Y1581D01*
X35673Y1770D01*
X35876Y1770D01*
X38339Y3929D02*
X37576Y3167D01*
X35462Y3167D01*
X35328Y3032D01*
X35339Y3929D02*
X35164Y3929D01*
X34516Y3281D01*
X34516Y3010D01*
X34825Y2701D01*
X34825Y2440D01*
X32339Y929D02*
X33277Y1868D01*
X35365Y1868D01*
X35339Y929D02*
X35573Y929D01*
X36570Y1926D01*
X36872Y1926D01*
X36925Y1978D01*
X36925Y2880D01*
X36896Y2909D01*
X35994Y2909D01*
X35676Y2591D01*
X35676Y2564D01*
X37339Y3929D02*
X36728Y3319D01*
X35028Y3319D01*
X34838Y3129D01*
X1843Y5732D02*
X2494Y6384D01*
X3988Y6384D01*
X4177Y6573D01*
X4380Y6573D01*
X6843Y8732D02*
X6080Y7970D01*
X3966Y7970D01*
X3831Y7835D01*
X3843Y8732D02*
X3668Y8732D01*
X3020Y8084D01*
X3020Y7813D01*
X3329Y7504D01*
X3329Y7243D01*
X843Y5732D02*
X1781Y6671D01*
X3869Y6671D01*
X3843Y5732D02*
X4077Y5732D01*
X5074Y6729D01*
X5376Y6729D01*
X5429Y6782D01*
X5429Y7683D01*
X5400Y7712D01*
X4498Y7712D01*
X4180Y7394D01*
X4180Y7367D01*
X5843Y8732D02*
X5232Y8122D01*
X3532Y8122D01*
X3342Y7932D01*
X9717Y5732D02*
X10368Y6384D01*
X11862Y6384D01*
X12051Y6573D01*
X12254Y6573D01*
X14717Y8732D02*
X13954Y7970D01*
X11840Y7970D01*
X11706Y7835D01*
X11717Y8732D02*
X11542Y8732D01*
X10894Y8084D01*
X10894Y7813D01*
X11203Y7504D01*
X11203Y7243D01*
X8717Y5732D02*
X9655Y6671D01*
X11743Y6671D01*
X11717Y5732D02*
X11951Y5732D01*
X12948Y6729D01*
X13250Y6729D01*
X13303Y6782D01*
X13303Y7683D01*
X13274Y7712D01*
X12372Y7712D01*
X12054Y7394D01*
X12054Y7367D01*
X13717Y8732D02*
X13106Y8122D01*
X11406Y8122D01*
X11216Y7932D01*
X17591Y5732D02*
X18242Y6384D01*
X19736Y6384D01*
X19925Y6573D01*
X20128Y6573D01*
X22591Y8732D02*
X21828Y7970D01*
X19714Y7970D01*
X19580Y7835D01*
X19591Y8732D02*
X19416Y8732D01*
X18768Y8084D01*
X18768Y7813D01*
X19077Y7504D01*
X19077Y7243D01*
X16591Y5732D02*
X17529Y6671D01*
X19617Y6671D01*
X19591Y5732D02*
X19825Y5732D01*
X20822Y6729D01*
X21124Y6729D01*
X21177Y6782D01*
X21177Y7683D01*
X21148Y7712D01*
X20246Y7712D01*
X19928Y7394D01*
X19928Y7367D01*
X21591Y8732D02*
X20980Y8122D01*
X19280Y8122D01*
X19090Y7932D01*
X25465Y5732D02*
X26116Y6384D01*
X27610Y6384D01*
X27799Y6573D01*
X28002Y6573D01*
X30465Y8732D02*
X29702Y7970D01*
X27588Y7970D01*
X27454Y7835D01*
X27465Y8732D02*
X27290Y8732D01*
X26642Y8084D01*
X26642Y7813D01*
X26951Y7504D01*
X26951Y7243D01*
X24465Y5732D02*
X25403Y6671D01*
X27491Y6671D01*
X27465Y5732D02*
X27699Y5732D01*
X28696Y6729D01*
X28998Y6729D01*
X29051Y6782D01*
X29051Y7683D01*
X29022Y7712D01*
X28120Y7712D01*
X27802Y7394D01*
X27802Y7367D01*
X29465Y8732D02*
X28854Y8122D01*
X27154Y8122D01*
X26964Y7932D01*
X33339Y5732D02*
X33990Y6384D01*
X35484Y6384D01*
X35673Y6573D01*
X35876Y6573D01*
X38339Y8732D02*
X37576Y7970D01*
X35462Y7970D01*
X35328Y7835D01*
X35339Y8732D02*
X35164Y8732D01*
X34516Y8084D01*
X34516Y7813D01*
X34825Y7504D01*
X34825Y7243D01*
X32339Y5732D02*
X33277Y6671D01*
X35365Y6671D01*
X35339Y5732D02*
X35573Y5732D01*
X36570Y6729D01*
X36872Y6729D01*
X36925Y6782D01*
X36925Y7683D01*
X36896Y7712D01*
X35994Y7712D01*
X35676Y7394D01*
X35676Y7367D01*
X37339Y8732D02*
X36728Y8122D01*
X35028Y8122D01*
X34838Y7932D01*
X1843Y10535D02*
X2494Y11187D01*
X3988Y11187D01*
X4177Y11376D01*
X4380Y11376D01*
X6843Y13535D02*
X6080Y12773D01*
X3966Y12773D01*
X3831Y12638D01*
X3843Y13535D02*
X3668Y13535D01*
X3020Y12887D01*
X3020Y12616D01*
X3329Y12307D01*
X3329Y12046D01*
X843Y10535D02*
X1781Y11474D01*
X3869Y11474D01*
X3843Y10535D02*
X4077Y10535D01*
X5074Y11532D01*
X5376Y11532D01*
X5429Y11585D01*
X5429Y12486D01*
X5400Y12515D01*
X4498Y12515D01*
X4180Y12197D01*
X4180Y12170D01*
X5843Y13535D02*
X5232Y12925D01*
X3532Y12925D01*
X3342Y12735D01*
X9717Y10535D02*
X10368Y11187D01*
X11862Y11187D01*
X12051Y11376D01*
X12254Y11376D01*
X14717Y13535D02*
X13954Y12773D01*
X11840Y12773D01*
X11706Y12638D01*
X11717Y13535D02*
X11542Y13535D01*
X10894Y12887D01*
X10894Y12616D01*
X11203Y12307D01*
X11203Y12046D01*
X8717Y10535D02*
X9655Y11474D01*
X11743Y11474D01*
X11717Y10535D02*
X11951Y10535D01*
X12948Y11532D01*
X13250Y11532D01*
X13303Y11585D01*
X13303Y12486D01*
X13274Y12515D01*
X12372Y12515D01*
X12054Y12197D01*
X12054Y12170D01*
X13717Y13535D02*
X13106Y12925D01*
X11406Y12925D01*
X11216Y12735D01*
X17591Y10535D02*
X18242Y11187D01*
X19736Y11187D01*
X19925Y11376D01*
X20128Y11376D01*
X22591Y13535D02*
X21828Y12773D01*
X19714Y12773D01*
X19580Y12638D01*
X19591Y13535D02*
X19416Y13535D01*
X18768Y12887D01*
X18768Y12616D01*
X19077Y12307D01*
X19077Y12046D01*
X16591Y10535D02*
X17529Y11474D01*
X19617Y11474D01*
X19591Y10535D02*
X19825Y10535D01*
X20822Y11532D01*
X21124Y11532D01*
X21177Y11585D01*
X21177Y12486D01*
X21148Y12515D01*
X20246Y12515D01*
X19928Y12197D01*
X19928Y12170D01*
X21591Y13535D02*
X20980Y12925D01*
X19280Y12925D01*
X19090Y12735D01*
X25465Y10535D02*
X26116Y11187D01*
X27610Y11187D01*
X27799Y11376D01*
X28002Y11376D01*
X30465Y13535D02*
X29702Y12773D01*
X27588Y12773D01*
X27454Y12638D01*
X27465Y13535D02*
X27290Y13535D01*
X26642Y12887D01*
X26642Y12616D01*
X26951Y12307D01*
X26951Y12046D01*
X24465Y10535D02*
X25403Y11474D01*
X27491Y11474D01*
X27465Y10535D02*
X27699Y10535D01*
X28696Y11532D01*
X28998Y11532D01*
X29051Y11585D01*
X29051Y12486D01*
X29022Y12515D01*
X28120Y12515D01*
X27802Y12197D01*
X27802Y12170D01*
X29465Y13535D02*
X28854Y12925D01*
X27154Y12925D01*
X26964Y12735D01*
X33339Y10535D02*
X33990Y11187D01*
X35484Y11187D01*
X35673Y11376D01*
X35876Y11376D01*
X38339Y13535D02*
X37576Y12773D01*
X35462Y12773D01*
X35328Y12638D01*
X35339Y13535D02*
X35164Y13535D01*
X34516Y12887D01*
X34516Y12616D01*
X34825Y12307D01*
X34825Y12046D01*
X32339Y10535D02*
X33277Y11474D01*
X35365Y11474D01*
X35339Y10535D02*
X35573Y10535D01*
X36570Y11532D01*
X36872Y11532D01*
X36925Y11585D01*
X36925Y12486D01*
X36896Y12515D01*
X35994Y12515D01*
X35676Y12197D01*
X35676Y12170D01*
X37339Y13535D02*
X36728Y12925D01*
X35028Y12925D01*
X34838Y12735D01*
X1843Y15339D02*
X2494Y15990D01*
X3988Y15990D01*
X4177Y16179D01*
X4380Y16179D01*
X6843Y18339D02*
X6080Y17576D01*
X3966Y17576D01*
X3831Y17441D01*
X3843Y18339D02*
X3668Y18339D01*
X3020Y17690D01*
X3020Y17419D01*
X3329Y17110D01*
X3329Y16849D01*
X843Y15339D02*
X1781Y16277D01*
X3869Y16277D01*
X3843Y15339D02*
X4077Y15339D01*
X5074Y16335D01*
X5376Y16335D01*
X5429Y16388D01*
X5429Y17290D01*
X5400Y17318D01*
X4498Y17318D01*
X4180Y17001D01*
X4180Y16973D01*
X5843Y18339D02*
X5232Y17728D01*
X3532Y17728D01*
X3342Y17538D01*
X9717Y15339D02*
X10368Y15990D01*
X11862Y15990D01*
X12051Y16179D01*
X12254Y16179D01*
X14717Y18339D02*
X13954Y17576D01*
X11840Y17576D01*
X11706Y17441D01*
X11717Y18339D02*
X11542Y18339D01*
X10894Y17690D01*
X10894Y17419D01*
X11203Y17110D01*
X11203Y16849D01*
X8717Y15339D02*
X9655Y16277D01*
X11743Y16277D01*
X11717Y15339D02*
X11951Y15339D01*
X12948Y16335D01*
X13250Y16335D01*
X13303Y16388D01*
X13303Y17290D01*
X13274Y17318D01*
X12372Y17318D01*
X12054Y17001D01*
X12054Y16973D01*
X13717Y18339D02*
X13106Y17728D01*
X11406Y17728D01*
X11216Y17538D01*
X17591Y15339D02*
X18242Y15990D01*
X19736Y15990D01*
X19925Y16179D01*
X20128Y16179D01*
X22591Y18339D02*
X21828Y17576D01*
X19714Y17576D01*
X19580Y17441D01*
X19591Y18339D02*
X19416Y18339D01*
X18768Y17690D01*
X18768Y17419D01*
X19077Y17110D01*
X19077Y16849D01*
X16591Y15339D02*
X17529Y16277D01*
X19617Y16277D01*
X19591Y15339D02*
X19825Y15339D01*
X20822Y16335D01*
X21124Y16335D01*
X21177Y16388D01*
X21177Y17290D01*
X21148Y17318D01*
X20246Y17318D01*
X19928Y17001D01*
X19928Y16973D01*
X21591Y18339D02*
X20980Y17728D01*
X19280Y17728D01*
X19090Y17538D01*
X25465Y15339D02*
X26116Y15990D01*
X27610Y15990D01*
X27799Y16179D01*
X28002Y16179D01*
X30465Y18339D02*
X29702Y17576D01*
X27588Y17576D01*
X27454Y17441D01*
X27465Y18339D02*
X27290Y18339D01*
X26642Y17690D01*
X26642Y17419D01*
X26951Y17110D01*
X26951Y16849D01*
X24465Y15339D02*
X25403Y16277D01*
X27491Y16277D01*
X27465Y15339D02*
X27699Y15339D01*
X28696Y16335D01*
X28998Y16335D01*
X29051Y16388D01*
X29051Y17290D01*
X29022Y17318D01*
X28120Y17318D01*
X27802Y17001D01*
X27802Y16973D01*
X29465Y18339D02*
X28854Y17728D01*
X27154Y17728D01*
X26964Y17538D01*
X33339Y15339D02*
X33990Y15990D01*
X35484Y15990D01*
X35673Y16179D01*
X35876Y16179D01*
X38339Y18339D02*
X37576Y17576D01*
X35462Y17576D01*
X35328Y17441D01*
X35339Y18339D02*
X35164Y18339D01*
X34516Y17690D01*
X34516Y17419D01*
X34825Y17110D01*
X34825Y16849D01*
X32339Y15339D02*
X33277Y16277D01*
X35365Y16277D01*
X35339Y15339D02*
X35573Y15339D01*
X36570Y16335D01*
X36872Y16335D01*
X36925Y16388D01*
X36925Y17290D01*
X36896Y17318D01*
X35994Y17318D01*
X35676Y17001D01*
X35676Y16973D01*
X37339Y18339D02*
X36728Y17728D01*
X35028Y17728D01*
X34838Y17538D01*
X1843Y20142D02*
X2494Y20793D01*
X3988Y20793D01*
X4177Y20982D01*
X4380Y20982D01*
X6843Y23142D02*
X6080Y22379D01*
X3966Y22379D01*
X3831Y22244D01*
X3843Y23142D02*
X3668Y23142D01*
X3020Y22494D01*
X3020Y22222D01*
X3329Y21913D01*
X3329Y21652D01*
X843Y20142D02*
X1781Y21080D01*
X3869Y21080D01*
X3843Y20142D02*
X4077Y20142D01*
X5074Y21138D01*
X5376Y21138D01*
X5429Y21191D01*
X5429Y22093D01*
X5400Y22122D01*
X4498Y22122D01*
X4180Y21804D01*
X4180Y21777D01*
X5843Y23142D02*
X5232Y22531D01*
X3532Y22531D01*
X3342Y22342D01*
X9717Y20142D02*
X10368Y20793D01*
X11862Y20793D01*
X12051Y20982D01*
X12254Y20982D01*
X14717Y23142D02*
X13954Y22379D01*
X11840Y22379D01*
X11706Y22244D01*
X11717Y23142D02*
X11542Y23142D01*
X10894Y22494D01*
X10894Y22222D01*
X11203Y21913D01*
X11203Y21652D01*
X8717Y20142D02*
X9655Y21080D01*
X11743Y21080D01*
X11717Y20142D02*
X11951Y20142D01*
X12948Y21138D01*
X13250Y21138D01*
X13303Y21191D01*
X13303Y22093D01*
X13274Y22122D01*
X12372Y22122D01*
X12054Y21804D01*
X12054Y21777D01*
X13717Y23142D02*
X13106Y22531D01*
X11406Y22531D01*
X11216Y22342D01*
X17591Y20142D02*
X18242Y20793D01*
X19736Y20793D01*
X19925Y20982D01*
X20128Y20982D01*
X22591Y23142D02*
X21828Y22379D01*
X19714Y22379D01*
X19580Y22244D01*
X19591Y23142D02*
X19416Y23142D01*
X18768Y22494D01*
X18768Y22222D01*
X19077Y21913D01*
X19077Y21652D01*
X16591Y20142D02*
X17529Y21080D01*
X19617Y21080D01*
X19591Y20142D02*
X19825Y20142D01*
X20822Y21138D01*
X21124Y21138D01*
X21177Y21191D01*
X21177Y22093D01*
X21148Y22122D01*
X20246Y22122D01*
X19928Y21804D01*
X19928Y21777D01*
X21591Y23142D02*
X20980Y22531D01*
X19280Y22531D01*
X19090Y22342D01*
X25465Y20142D02*
X26116Y20793D01*
X27610Y20793D01*
X27799Y20982D01*
X28002Y20982D01*
X30465Y23142D02*
X29702Y22379D01*
X27588Y22379D01*
X27454Y22244D01*
X27465Y23142D02*
X27290Y23142D01*
X26642Y22494D01*
X26642Y22222D01*
X26951Y21913D01*
X26951Y21652D01*
X24465Y20142D02*
X25403Y21080D01*
X27491Y21080D01*
X27465Y20142D02*
X27699Y20142D01*
X28696Y21138D01*
X28998Y21138D01*
X29051Y21191D01*
X29051Y22093D01*
X29022Y22122D01*
X28120Y22122D01*
X27802Y21804D01*
X27802Y21777D01*
X29465Y23142D02*
X28854Y22531D01*
X27154Y22531D01*
X26964Y22342D01*
X33339Y20142D02*
X33990Y20793D01*
X35484Y20793D01*
X35673Y20982D01*
X35876Y20982D01*
X38339Y23142D02*
X37576Y22379D01*
X35462Y22379D01*
X35328Y22244D01*
X35339Y23142D02*
X35164Y23142D01*
X34516Y22494D01*
X34516Y22222D01*
X34825Y21913D01*
X34825Y21652D01*
X32339Y20142D02*
X33277Y21080D01*
X35365Y21080D01*
X35339Y20142D02*
X35573Y20142D01*
X36570Y21138D01*
X36872Y21138D01*
X36925Y21191D01*
X36925Y22093D01*
X36896Y22122D01*
X35994Y22122D01*
X35676Y21804D01*
X35676Y21777D01*
X37339Y23142D02*
X36728Y22531D01*
X35028Y22531D01*
X34838Y22342D01*
X1843Y24945D02*
X2494Y25597D01*
X3988Y25597D01*
X4177Y25785D01*
X4380Y25785D01*
X6843Y27945D02*
X6080Y27182D01*
X3966Y27182D01*
X3831Y27047D01*
X3843Y27945D02*
X3668Y27945D01*
X3020Y27297D01*
X3020Y27025D01*
X3329Y26716D01*
X3329Y26455D01*
X843Y24945D02*
X1781Y25883D01*
X3869Y25883D01*
X3843Y24945D02*
X4077Y24945D01*
X5074Y25941D01*
X5376Y25941D01*
X5429Y25994D01*
X5429Y26896D01*
X5400Y26925D01*
X4498Y26925D01*
X4180Y26607D01*
X4180Y26580D01*
X5843Y27945D02*
X5232Y27334D01*
X3532Y27334D01*
X3342Y27145D01*
X9717Y24945D02*
X10368Y25597D01*
X11862Y25597D01*
X12051Y25785D01*
X12254Y25785D01*
X14717Y27945D02*
X13954Y27182D01*
X11840Y27182D01*
X11706Y27047D01*
X11717Y27945D02*
X11542Y27945D01*
X10894Y27297D01*
X10894Y27025D01*
X11203Y26716D01*
X11203Y26455D01*
X8717Y24945D02*
X9655Y25883D01*
X11743Y25883D01*
X11717Y24945D02*
X11951Y24945D01*
X12948Y25941D01*
X13250Y25941D01*
X13303Y25994D01*
X13303Y26896D01*
X13274Y26925D01*
X12372Y26925D01*
X12054Y26607D01*
X12054Y26580D01*
X13717Y27945D02*
X13106Y27334D01*
X11406Y27334D01*
X11216Y27145D01*
X17591Y24945D02*
X18242Y25597D01*
X19736Y25597D01*
X19925Y25785D01*
X20128Y25785D01*
X22591Y27945D02*
X21828Y27182D01*
X19714Y27182D01*
X19580Y27047D01*
X19591Y27945D02*
X19416Y27945D01*
X18768Y27297D01*
X18768Y27025D01*
X19077Y26716D01*
X19077Y26455D01*
X16591Y24945D02*
X17529Y25883D01*
X19617Y25883D01*
X19591Y24945D02*
X19825Y24945D01*
X20822Y25941D01*
X21124Y25941D01*
X21177Y25994D01*
X21177Y26896D01*
X21148Y26925D01*
X20246Y26925D01*
X19928Y26607D01*
X19928Y26580D01*
X21591Y27945D02*
X20980Y27334D01*
X19280Y27334D01*
X19090Y27145D01*
X25465Y24945D02*
X26116Y25597D01*
X27610Y25597D01*
X27799Y25785D01*
X28002Y25785D01*
X30465Y27945D02*
X29702Y27182D01*
X27588Y27182D01*
X27454Y27047D01*
X27465Y27945D02*
X27290Y27945D01*
X26642Y27297D01*
X26642Y27025D01*
X26951Y26716D01*
X26951Y26455D01*
X24465Y24945D02*
X25403Y25883D01*
X27491Y25883D01*
X27465Y24945D02*
X27699Y24945D01*
X28696Y25941D01*
X28998Y25941D01*
X29051Y25994D01*
X29051Y26896D01*
X29022Y26925D01*
X28120Y26925D01*
X27802Y26607D01*
X27802Y26580D01*
X29465Y27945D02*
X28854Y27334D01*
X27154Y27334D01*
X26964Y27145D01*
X33339Y24945D02*
X33990Y25597D01*
X35484Y25597D01*
X35673Y25785D01*
X35876Y25785D01*
X38339Y27945D02*
X37576Y27182D01*
X35462Y27182D01*
X35328Y27047D01*
X35339Y27945D02*
X35164Y27945D01*
X34516Y27297D01*
X34516Y27025D01*
X34825Y26716D01*
X34825Y26455D01*
X32339Y24945D02*
X33277Y25883D01*
X35365Y25883D01*
X35339Y24945D02*
X35573Y24945D01*
X36570Y25941D01*
X36872Y25941D01*
X36925Y25994D01*
X36925Y26896D01*
X36896Y26925D01*
X35994Y26925D01*
X35676Y26607D01*
X35676Y26580D01*
X37339Y27945D02*
X36728Y27334D01*
X35028Y27334D01*
X34838Y27145D01*
X1843Y29748D02*
X2494Y30400D01*
X3988Y30400D01*
X4177Y30589D01*
X4380Y30589D01*
X6843Y32748D02*
X6080Y31985D01*
X3966Y31985D01*
X3831Y31851D01*
X3843Y32748D02*
X3668Y32748D01*
X3020Y32100D01*
X3020Y31829D01*
X3329Y31520D01*
X3329Y31259D01*
X843Y29748D02*
X1781Y30687D01*
X3869Y30687D01*
X3843Y29748D02*
X4077Y29748D01*
X5074Y30745D01*
X5376Y30745D01*
X5429Y30797D01*
X5429Y31699D01*
X5400Y31728D01*
X4498Y31728D01*
X4180Y31410D01*
X4180Y31383D01*
X5843Y32748D02*
X5232Y32137D01*
X3532Y32137D01*
X3342Y31948D01*
X9717Y29748D02*
X10368Y30400D01*
X11862Y30400D01*
X12051Y30589D01*
X12254Y30589D01*
X14717Y32748D02*
X13954Y31985D01*
X11840Y31985D01*
X11706Y31851D01*
X11717Y32748D02*
X11542Y32748D01*
X10894Y32100D01*
X10894Y31829D01*
X11203Y31520D01*
X11203Y31259D01*
X8717Y29748D02*
X9655Y30687D01*
X11743Y30687D01*
X11717Y29748D02*
X11951Y29748D01*
X12948Y30745D01*
X13250Y30745D01*
X13303Y30797D01*
X13303Y31699D01*
X13274Y31728D01*
X12372Y31728D01*
X12054Y31410D01*
X12054Y31383D01*
X13717Y32748D02*
X13106Y32137D01*
X11406Y32137D01*
X11216Y31948D01*
X17591Y29748D02*
X18242Y30400D01*
X19736Y30400D01*
X19925Y30589D01*
X20128Y30589D01*
X22591Y32748D02*
X21828Y31985D01*
X19714Y31985D01*
X19580Y31851D01*
X19591Y32748D02*
X19416Y32748D01*
X18768Y32100D01*
X18768Y31829D01*
X19077Y31520D01*
X19077Y31259D01*
X16591Y29748D02*
X17529Y30687D01*
X19617Y30687D01*
X19591Y29748D02*
X19825Y29748D01*
X20822Y30745D01*
X21124Y30745D01*
X21177Y30797D01*
X21177Y31699D01*
X21148Y31728D01*
X20246Y31728D01*
X19928Y31410D01*
X19928Y31383D01*
X21591Y32748D02*
X20980Y32137D01*
X19280Y32137D01*
X19090Y31948D01*
X25465Y29748D02*
X26116Y30400D01*
X27610Y30400D01*
X27799Y30589D01*
X28002Y30589D01*
X30465Y32748D02*
X29702Y31985D01*
X27588Y31985D01*
X27454Y31851D01*
X27465Y32748D02*
X27290Y32748D01*
X26642Y32100D01*
X26642Y31829D01*
X26951Y31520D01*
X26951Y31259D01*
X24465Y29748D02*
X25403Y30687D01*
X27491Y30687D01*
X27465Y29748D02*
X27699Y29748D01*
X28696Y30745D01*
X28998Y30745D01*
X29051Y30797D01*
X29051Y31699D01*
X29022Y31728D01*
X28120Y31728D01*
X27802Y31410D01*
X27802Y31383D01*
X29465Y32748D02*
X28854Y32137D01*
X27154Y32137D01*
X26964Y31948D01*
X33339Y29748D02*
X33990Y30400D01*
X35484Y30400D01*
X35673Y30589D01*
X35876Y30589D01*
X38339Y32748D02*
X37576Y31985D01*
X35462Y31985D01*
X35328Y31851D01*
X35339Y32748D02*
X35164Y32748D01*
X34516Y32100D01*
X34516Y31829D01*
X34825Y31520D01*
X34825Y31259D01*
X32339Y29748D02*
X33277Y30687D01*
X35365Y30687D01*
X35339Y29748D02*
X35573Y29748D01*
X36570Y30745D01*
X36872Y30745D01*
X36925Y30797D01*
X36925Y31699D01*
X36896Y31728D01*
X35994Y31728D01*
X35676Y31410D01*
X35676Y31383D01*
X37339Y32748D02*
X36728Y32137D01*
X35028Y32137D01*
X34838Y31948D01*
X1843Y34551D02*
X2494Y35203D01*
X3988Y35203D01*
X4177Y35392D01*
X4380Y35392D01*
X6843Y37551D02*
X6080Y36789D01*
X3966Y36789D01*
X3831Y36654D01*
X3843Y37551D02*
X3668Y37551D01*
X3020Y36903D01*
X3020Y36632D01*
X3329Y36323D01*
X3329Y36062D01*
X843Y34551D02*
X1781Y35490D01*
X3869Y35490D01*
X3843Y34551D02*
X4077Y34551D01*
X5074Y35548D01*
X5376Y35548D01*
X5429Y35601D01*
X5429Y36502D01*
X5400Y36531D01*
X4498Y36531D01*
X4180Y36213D01*
X4180Y36186D01*
X5843Y37551D02*
X5232Y36941D01*
X3532Y36941D01*
X3342Y36751D01*
X9717Y34551D02*
X10368Y35203D01*
X11862Y35203D01*
X12051Y35392D01*
X12254Y35392D01*
X14717Y37551D02*
X13954Y36789D01*
X11840Y36789D01*
X11706Y36654D01*
X11717Y37551D02*
X11542Y37551D01*
X10894Y36903D01*
X10894Y36632D01*
X11203Y36323D01*
X11203Y36062D01*
X8717Y34551D02*
X9655Y35490D01*
X11743Y35490D01*
X11717Y34551D02*
X11951Y34551D01*
X12948Y35548D01*
X13250Y35548D01*
X13303Y35601D01*
X13303Y36502D01*
X13274Y36531D01*
X12372Y36531D01*
X12054Y36213D01*
X12054Y36186D01*
X13717Y37551D02*
X13106Y36941D01*
X11406Y36941D01*
X11216Y36751D01*
X17591Y34551D02*
X18242Y35203D01*
X19736Y35203D01*
X19925Y35392D01*
X20128Y35392D01*
X22591Y37551D02*
X21828Y36789D01*
X19714Y36789D01*
X19580Y36654D01*
X19591Y37551D02*
X19416Y37551D01*
X18768Y36903D01*
X18768Y36632D01*
X19077Y36323D01*
X19077Y36062D01*
X16591Y34551D02*
X17529Y35490D01*
X19617Y35490D01*
X19591Y34551D02*
X19825Y34551D01*
X20822Y35548D01*
X21124Y35548D01*
X21177Y35601D01*
X21177Y36502D01*
X21148Y36531D01*
X20246Y36531D01*
X19928Y36213D01*
X19928Y36186D01*
X21591Y37551D02*
X20980Y36941D01*
X19280Y36941D01*
X19090Y36751D01*
X25465Y34551D02*
X26116Y35203D01*
X27610Y35203D01*
X27799Y35392D01*
X28002Y35392D01*
X30465Y37551D02*
X29702Y36789D01*
X27588Y36789D01*
X27454Y36654D01*
X27465Y37551D02*
X27290Y37551D01*
X26642Y36903D01*
X26642Y36632D01*
X26951Y36323D01*
X26951Y36062D01*
X24465Y34551D02*
X25403Y35490D01*
X27491Y35490D01*
X27465Y34551D02*
X27699Y34551D01*
X28696Y35548D01*
X28998Y35548D01*
X29051Y35601D01*
X29051Y36502D01*
X29022Y36531D01*
X28120Y36531D01*
X27802Y36213D01*
X27802Y36186D01*
X29465Y37551D02*
X28854Y36941D01*
X27154Y36941D01*
X26964Y36751D01*
X33339Y34551D02*
X33990Y35203D01*
X35484Y35203D01*
X35673Y35392D01*
X35876Y35392D01*
X38339Y37551D02*
X37576Y36789D01*
X35462Y36789D01*
X35328Y36654D01*
X35339Y37551D02*
X35164Y37551D01*
X34516Y36903D01*
X34516Y36632D01*
X34825Y36323D01*
X34825Y36062D01*
X32339Y34551D02*
X33277Y35490D01*
X35365Y35490D01*
X35339Y34551D02*
X35573Y34551D01*
X36570Y35548D01*
X36872Y35548D01*
X36925Y35601D01*
X36925Y36502D01*
X36896Y36531D01*
X35994Y36531D01*
X35676Y36213D01*
X35676Y36186D01*
X37339Y37551D02*
X36728Y36941D01*
X35028Y36941D01*
X34838Y36751D01*
D11*
G01X4380Y1770D03*
X3831Y3032D03*
X3329Y2440D03*
X3869Y1868D03*
X4180Y2564D03*
X3342Y3129D03*
X12254Y1770D03*
X11706Y3032D03*
X11203Y2440D03*
X11743Y1868D03*
X12054Y2564D03*
X11216Y3129D03*
X20128Y1770D03*
X19580Y3032D03*
X19077Y2440D03*
X19617Y1868D03*
X19928Y2564D03*
X19090Y3129D03*
X28002Y1770D03*
X27454Y3032D03*
X26951Y2440D03*
X27491Y1868D03*
X27802Y2564D03*
X26964Y3129D03*
X35876Y1770D03*
X35328Y3032D03*
X34825Y2440D03*
X35365Y1868D03*
X35676Y2564D03*
X34838Y3129D03*
X4380Y6573D03*
X3831Y7835D03*
X3329Y7243D03*
X3869Y6671D03*
X4180Y7367D03*
X3342Y7932D03*
X12254Y6573D03*
X11706Y7835D03*
X11203Y7243D03*
X11743Y6671D03*
X12054Y7367D03*
X11216Y7932D03*
X20128Y6573D03*
X19580Y7835D03*
X19077Y7243D03*
X19617Y6671D03*
X19928Y7367D03*
X19090Y7932D03*
X28002Y6573D03*
X27454Y7835D03*
X26951Y7243D03*
X27491Y6671D03*
X27802Y7367D03*
X26964Y7932D03*
X35876Y6573D03*
X35328Y7835D03*
X34825Y7243D03*
X35365Y6671D03*
X35676Y7367D03*
X34838Y7932D03*
X4380Y11376D03*
X3831Y12638D03*
X3329Y12046D03*
X3869Y11474D03*
X4180Y12170D03*
X3342Y12735D03*
X12254Y11376D03*
X11706Y12638D03*
X11203Y12046D03*
X11743Y11474D03*
X12054Y12170D03*
X11216Y12735D03*
X20128Y11376D03*
X19580Y12638D03*
X19077Y12046D03*
X19617Y11474D03*
X19928Y12170D03*
X19090Y12735D03*
X28002Y11376D03*
X27454Y12638D03*
X26951Y12046D03*
X27491Y11474D03*
X27802Y12170D03*
X26964Y12735D03*
X35876Y11376D03*
X35328Y12638D03*
X34825Y12046D03*
X35365Y11474D03*
X35676Y12170D03*
X34838Y12735D03*
X4380Y16179D03*
X3831Y17441D03*
X3329Y16849D03*
X3869Y16277D03*
X4180Y16973D03*
X3342Y17538D03*
X12254Y16179D03*
X11706Y17441D03*
X11203Y16849D03*
X11743Y16277D03*
X12054Y16973D03*
X11216Y17538D03*
X20128Y16179D03*
X19580Y17441D03*
X19077Y16849D03*
X19617Y16277D03*
X19928Y16973D03*
X19090Y17538D03*
X28002Y16179D03*
X27454Y17441D03*
X26951Y16849D03*
X27491Y16277D03*
X27802Y16973D03*
X26964Y17538D03*
X35876Y16179D03*
X35328Y17441D03*
X34825Y16849D03*
X35365Y16277D03*
X35676Y16973D03*
X34838Y17538D03*
X4380Y20982D03*
X3831Y22244D03*
X3329Y21652D03*
X3869Y21080D03*
X4180Y21777D03*
X3342Y22342D03*
X12254Y20982D03*
X11706Y22244D03*
X11203Y21652D03*
X11743Y21080D03*
X12054Y21777D03*
X11216Y22342D03*
X20128Y20982D03*
X19580Y22244D03*
X19077Y21652D03*
X19617Y21080D03*
X19928Y21777D03*
X19090Y22342D03*
X28002Y20982D03*
X27454Y22244D03*
X26951Y21652D03*
X27491Y21080D03*
X27802Y21777D03*
X26964Y22342D03*
X35876Y20982D03*
X35328Y22244D03*
X34825Y21652D03*
X35365Y21080D03*
X35676Y21777D03*
X34838Y22342D03*
X4380Y25785D03*
X3831Y27047D03*
X3329Y26455D03*
X3869Y25883D03*
X4180Y26580D03*
X3342Y27145D03*
X12254Y25785D03*
X11706Y27047D03*
X11203Y26455D03*
X11743Y25883D03*
X12054Y26580D03*
X11216Y27145D03*
X20128Y25785D03*
X19580Y27047D03*
X19077Y26455D03*
X19617Y25883D03*
X19928Y26580D03*
X19090Y27145D03*
X28002Y25785D03*
X27454Y27047D03*
X26951Y26455D03*
X27491Y25883D03*
X27802Y26580D03*
X26964Y27145D03*
X35876Y25785D03*
X35328Y27047D03*
X34825Y26455D03*
X35365Y25883D03*
X35676Y26580D03*
X34838Y27145D03*
X4380Y30589D03*
X3831Y31851D03*
X3329Y31259D03*
X3869Y30687D03*
X4180Y31383D03*
X3342Y31948D03*
X12254Y30589D03*
X11706Y31851D03*
X11203Y31259D03*
X11743Y30687D03*
X12054Y31383D03*
X11216Y31948D03*
X20128Y30589D03*
X19580Y31851D03*
X19077Y31259D03*
X19617Y30687D03*
X19928Y31383D03*
X19090Y31948D03*
X28002Y30589D03*
X27454Y31851D03*
X26951Y31259D03*
X27491Y30687D03*
X27802Y31383D03*
X26964Y31948D03*
X35876Y30589D03*
X35328Y31851D03*
X34825Y31259D03*
X35365Y30687D03*
X35676Y31383D03*
X34838Y31948D03*
X4380Y35392D03*
X3831Y36654D03*
X3329Y36062D03*
X3869Y35490D03*
X4180Y36186D03*
X3342Y36751D03*
X12254Y35392D03*
X11706Y36654D03*
X11203Y36062D03*
X11743Y35490D03*
X12054Y36186D03*
X11216Y36751D03*
X20128Y35392D03*
X19580Y36654D03*
X19077Y36062D03*
X19617Y35490D03*
X19928Y36186D03*
X19090Y36751D03*
X28002Y35392D03*
X27454Y36654D03*
X26951Y36062D03*
X27491Y35490D03*
X27802Y36186D03*
X26964Y36751D03*
X35876Y35392D03*
X35328Y36654D03*
X34825Y36062D03*
X35365Y35490D03*
X35676Y36186D03*
X34838Y36751D03*
D12*
G01X5843Y4169D02*
X5843Y3689D01*
X1843Y4169D02*
X1843Y3689D01*
X6843Y1169D02*
X6843Y689D01*
X2843Y1169D02*
X2843Y689D01*
X6843Y4169D02*
X6843Y3689D01*
X2843Y4169D02*
X2843Y3689D01*
X1843Y1169D02*
X1843Y689D01*
X4843Y4169D02*
X4843Y3689D01*
X4843Y1169D02*
X4843Y689D01*
X5843Y1169D02*
X5843Y689D01*
X3843Y4169D02*
X3843Y3689D01*
X843Y4169D02*
X843Y3689D01*
X3843Y1169D02*
X3843Y689D01*
X13717Y4169D02*
X13717Y3689D01*
X9717Y4169D02*
X9717Y3689D01*
X14717Y1169D02*
X14717Y689D01*
X10717Y1169D02*
X10717Y689D01*
X14717Y4169D02*
X14717Y3689D01*
X10717Y4169D02*
X10717Y3689D01*
X9717Y1169D02*
X9717Y689D01*
X12717Y4169D02*
X12717Y3689D01*
X12717Y1169D02*
X12717Y689D01*
X13717Y1169D02*
X13717Y689D01*
X11717Y4169D02*
X11717Y3689D01*
X8717Y4169D02*
X8717Y3689D01*
X11717Y1169D02*
X11717Y689D01*
X21591Y4169D02*
X21591Y3689D01*
X17591Y4169D02*
X17591Y3689D01*
X22591Y1169D02*
X22591Y689D01*
X18591Y1169D02*
X18591Y689D01*
X22591Y4169D02*
X22591Y3689D01*
X18591Y4169D02*
X18591Y3689D01*
X17591Y1169D02*
X17591Y689D01*
X20591Y4169D02*
X20591Y3689D01*
X20591Y1169D02*
X20591Y689D01*
X21591Y1169D02*
X21591Y689D01*
X19591Y4169D02*
X19591Y3689D01*
X16591Y4169D02*
X16591Y3689D01*
X19591Y1169D02*
X19591Y689D01*
X29465Y4169D02*
X29465Y3689D01*
X25465Y4169D02*
X25465Y3689D01*
X30465Y1169D02*
X30465Y689D01*
X26465Y1169D02*
X26465Y689D01*
X30465Y4169D02*
X30465Y3689D01*
X26465Y4169D02*
X26465Y3689D01*
X25465Y1169D02*
X25465Y689D01*
X28465Y4169D02*
X28465Y3689D01*
X28465Y1169D02*
X28465Y689D01*
X29465Y1169D02*
X29465Y689D01*
X27465Y4169D02*
X27465Y3689D01*
X24465Y4169D02*
X24465Y3689D01*
X27465Y1169D02*
X27465Y689D01*
X37339Y4169D02*
X37339Y3689D01*
X33339Y4169D02*
X33339Y3689D01*
X38339Y1169D02*
X38339Y689D01*
X34339Y1169D02*
X34339Y689D01*
X38339Y4169D02*
X38339Y3689D01*
X34339Y4169D02*
X34339Y3689D01*
X33339Y1169D02*
X33339Y689D01*
X36339Y4169D02*
X36339Y3689D01*
X36339Y1169D02*
X36339Y689D01*
X37339Y1169D02*
X37339Y689D01*
X35339Y4169D02*
X35339Y3689D01*
X32339Y4169D02*
X32339Y3689D01*
X35339Y1169D02*
X35339Y689D01*
X5843Y8972D02*
X5843Y8492D01*
X1843Y8972D02*
X1843Y8492D01*
X6843Y5972D02*
X6843Y5492D01*
X2843Y5972D02*
X2843Y5492D01*
X6843Y8972D02*
X6843Y8492D01*
X2843Y8972D02*
X2843Y8492D01*
X1843Y5972D02*
X1843Y5492D01*
X4843Y8972D02*
X4843Y8492D01*
X4843Y5972D02*
X4843Y5492D01*
X5843Y5972D02*
X5843Y5492D01*
X3843Y8972D02*
X3843Y8492D01*
X843Y8972D02*
X843Y8492D01*
X3843Y5972D02*
X3843Y5492D01*
X13717Y8972D02*
X13717Y8492D01*
X9717Y8972D02*
X9717Y8492D01*
X14717Y5972D02*
X14717Y5492D01*
X10717Y5972D02*
X10717Y5492D01*
X14717Y8972D02*
X14717Y8492D01*
X10717Y8972D02*
X10717Y8492D01*
X9717Y5972D02*
X9717Y5492D01*
X12717Y8972D02*
X12717Y8492D01*
X12717Y5972D02*
X12717Y5492D01*
X13717Y5972D02*
X13717Y5492D01*
X11717Y8972D02*
X11717Y8492D01*
X8717Y8972D02*
X8717Y8492D01*
X11717Y5972D02*
X11717Y5492D01*
X21591Y8972D02*
X21591Y8492D01*
X17591Y8972D02*
X17591Y8492D01*
X22591Y5972D02*
X22591Y5492D01*
X18591Y5972D02*
X18591Y5492D01*
X22591Y8972D02*
X22591Y8492D01*
X18591Y8972D02*
X18591Y8492D01*
X17591Y5972D02*
X17591Y5492D01*
X20591Y8972D02*
X20591Y8492D01*
X20591Y5972D02*
X20591Y5492D01*
X21591Y5972D02*
X21591Y5492D01*
X19591Y8972D02*
X19591Y8492D01*
X16591Y8972D02*
X16591Y8492D01*
X19591Y5972D02*
X19591Y5492D01*
X29465Y8972D02*
X29465Y8492D01*
X25465Y8972D02*
X25465Y8492D01*
X30465Y5972D02*
X30465Y5492D01*
X26465Y5972D02*
X26465Y5492D01*
X30465Y8972D02*
X30465Y8492D01*
X26465Y8972D02*
X26465Y8492D01*
X25465Y5972D02*
X25465Y5492D01*
X28465Y8972D02*
X28465Y8492D01*
X28465Y5972D02*
X28465Y5492D01*
X29465Y5972D02*
X29465Y5492D01*
X27465Y8972D02*
X27465Y8492D01*
X24465Y8972D02*
X24465Y8492D01*
X27465Y5972D02*
X27465Y5492D01*
X37339Y8972D02*
X37339Y8492D01*
X33339Y8972D02*
X33339Y8492D01*
X38339Y5972D02*
X38339Y5492D01*
X34339Y5972D02*
X34339Y5492D01*
X38339Y8972D02*
X38339Y8492D01*
X34339Y8972D02*
X34339Y8492D01*
X33339Y5972D02*
X33339Y5492D01*
X36339Y8972D02*
X36339Y8492D01*
X36339Y5972D02*
X36339Y5492D01*
X37339Y5972D02*
X37339Y5492D01*
X35339Y8972D02*
X35339Y8492D01*
X32339Y8972D02*
X32339Y8492D01*
X35339Y5972D02*
X35339Y5492D01*
X5843Y13775D02*
X5843Y13295D01*
X1843Y13775D02*
X1843Y13295D01*
X6843Y10775D02*
X6843Y10295D01*
X2843Y10775D02*
X2843Y10295D01*
X6843Y13775D02*
X6843Y13295D01*
X2843Y13775D02*
X2843Y13295D01*
X1843Y10775D02*
X1843Y10295D01*
X4843Y13775D02*
X4843Y13295D01*
X4843Y10775D02*
X4843Y10295D01*
X5843Y10775D02*
X5843Y10295D01*
X3843Y13775D02*
X3843Y13295D01*
X843Y13775D02*
X843Y13295D01*
X3843Y10775D02*
X3843Y10295D01*
X13717Y13775D02*
X13717Y13295D01*
X9717Y13775D02*
X9717Y13295D01*
X14717Y10775D02*
X14717Y10295D01*
X10717Y10775D02*
X10717Y10295D01*
X14717Y13775D02*
X14717Y13295D01*
X10717Y13775D02*
X10717Y13295D01*
X9717Y10775D02*
X9717Y10295D01*
X12717Y13775D02*
X12717Y13295D01*
X12717Y10775D02*
X12717Y10295D01*
X13717Y10775D02*
X13717Y10295D01*
X11717Y13775D02*
X11717Y13295D01*
X8717Y13775D02*
X8717Y13295D01*
X11717Y10775D02*
X11717Y10295D01*
X21591Y13775D02*
X21591Y13295D01*
X17591Y13775D02*
X17591Y13295D01*
X22591Y10775D02*
X22591Y10295D01*
X18591Y10775D02*
X18591Y10295D01*
X22591Y13775D02*
X22591Y13295D01*
X18591Y13775D02*
X18591Y13295D01*
X17591Y10775D02*
X17591Y10295D01*
X20591Y13775D02*
X20591Y13295D01*
X20591Y10775D02*
X20591Y10295D01*
X21591Y10775D02*
X21591Y10295D01*
X19591Y13775D02*
X19591Y13295D01*
X16591Y13775D02*
X16591Y13295D01*
X19591Y10775D02*
X19591Y10295D01*
X29465Y13775D02*
X29465Y13295D01*
X25465Y13775D02*
X25465Y13295D01*
X30465Y10775D02*
X30465Y10295D01*
X26465Y10775D02*
X26465Y10295D01*
X30465Y13775D02*
X30465Y13295D01*
X26465Y13775D02*
X26465Y13295D01*
X25465Y10775D02*
X25465Y10295D01*
X28465Y13775D02*
X28465Y13295D01*
X28465Y10775D02*
X28465Y10295D01*
X29465Y10775D02*
X29465Y10295D01*
X27465Y13775D02*
X27465Y13295D01*
X24465Y13775D02*
X24465Y13295D01*
X27465Y10775D02*
X27465Y10295D01*
X37339Y13775D02*
X37339Y13295D01*
X33339Y13775D02*
X33339Y13295D01*
X38339Y10775D02*
X38339Y10295D01*
X34339Y10775D02*
X34339Y10295D01*
X38339Y13775D02*
X38339Y13295D01*
X34339Y13775D02*
X34339Y13295D01*
X33339Y10775D02*
X33339Y10295D01*
X36339Y13775D02*
X36339Y13295D01*
X36339Y10775D02*
X36339Y10295D01*
X37339Y10775D02*
X37339Y10295D01*
X35339Y13775D02*
X35339Y13295D01*
X32339Y13775D02*
X32339Y13295D01*
X35339Y10775D02*
X35339Y10295D01*
X5843Y18579D02*
X5843Y18099D01*
X1843Y18579D02*
X1843Y18099D01*
X6843Y15579D02*
X6843Y15099D01*
X2843Y15579D02*
X2843Y15099D01*
X6843Y18579D02*
X6843Y18099D01*
X2843Y18579D02*
X2843Y18099D01*
X1843Y15579D02*
X1843Y15099D01*
X4843Y18579D02*
X4843Y18099D01*
X4843Y15579D02*
X4843Y15099D01*
X5843Y15579D02*
X5843Y15099D01*
X3843Y18579D02*
X3843Y18099D01*
X843Y18579D02*
X843Y18099D01*
X3843Y15579D02*
X3843Y15099D01*
X13717Y18579D02*
X13717Y18099D01*
X9717Y18579D02*
X9717Y18099D01*
X14717Y15579D02*
X14717Y15099D01*
X10717Y15579D02*
X10717Y15099D01*
X14717Y18579D02*
X14717Y18099D01*
X10717Y18579D02*
X10717Y18099D01*
X9717Y15579D02*
X9717Y15099D01*
X12717Y18579D02*
X12717Y18099D01*
X12717Y15579D02*
X12717Y15099D01*
X13717Y15579D02*
X13717Y15099D01*
X11717Y18579D02*
X11717Y18099D01*
X8717Y18579D02*
X8717Y18099D01*
X11717Y15579D02*
X11717Y15099D01*
X21591Y18579D02*
X21591Y18099D01*
X17591Y18579D02*
X17591Y18099D01*
X22591Y15579D02*
X22591Y15099D01*
X18591Y15579D02*
X18591Y15099D01*
X22591Y18579D02*
X22591Y18099D01*
X18591Y18579D02*
X18591Y18099D01*
X17591Y15579D02*
X17591Y15099D01*
X20591Y18579D02*
X20591Y18099D01*
X20591Y15579D02*
X20591Y15099D01*
X21591Y15579D02*
X21591Y15099D01*
X19591Y18579D02*
X19591Y18099D01*
X16591Y18579D02*
X16591Y18099D01*
X19591Y15579D02*
X19591Y15099D01*
X29465Y18579D02*
X29465Y18099D01*
X25465Y18579D02*
X25465Y18099D01*
X30465Y15579D02*
X30465Y15099D01*
X26465Y15579D02*
X26465Y15099D01*
X30465Y18579D02*
X30465Y18099D01*
X26465Y18579D02*
X26465Y18099D01*
X25465Y15579D02*
X25465Y15099D01*
X28465Y18579D02*
X28465Y18099D01*
X28465Y15579D02*
X28465Y15099D01*
X29465Y15579D02*
X29465Y15099D01*
X27465Y18579D02*
X27465Y18099D01*
X24465Y18579D02*
X24465Y18099D01*
X27465Y15579D02*
X27465Y15099D01*
X37339Y18579D02*
X37339Y18099D01*
X33339Y18579D02*
X33339Y18099D01*
X38339Y15579D02*
X38339Y15099D01*
X34339Y15579D02*
X34339Y15099D01*
X38339Y18579D02*
X38339Y18099D01*
X34339Y18579D02*
X34339Y18099D01*
X33339Y15579D02*
X33339Y15099D01*
X36339Y18579D02*
X36339Y18099D01*
X36339Y15579D02*
X36339Y15099D01*
X37339Y15579D02*
X37339Y15099D01*
X35339Y18579D02*
X35339Y18099D01*
X32339Y18579D02*
X32339Y18099D01*
X35339Y15579D02*
X35339Y15099D01*
X5843Y23382D02*
X5843Y22902D01*
X1843Y23382D02*
X1843Y22902D01*
X6843Y20382D02*
X6843Y19902D01*
X2843Y20382D02*
X2843Y19902D01*
X6843Y23382D02*
X6843Y22902D01*
X2843Y23382D02*
X2843Y22902D01*
X1843Y20382D02*
X1843Y19902D01*
X4843Y23382D02*
X4843Y22902D01*
X4843Y20382D02*
X4843Y19902D01*
X5843Y20382D02*
X5843Y19902D01*
X3843Y23382D02*
X3843Y22902D01*
X843Y23382D02*
X843Y22902D01*
X3843Y20382D02*
X3843Y19902D01*
X13717Y23382D02*
X13717Y22902D01*
X9717Y23382D02*
X9717Y22902D01*
X14717Y20382D02*
X14717Y19902D01*
X10717Y20382D02*
X10717Y19902D01*
X14717Y23382D02*
X14717Y22902D01*
X10717Y23382D02*
X10717Y22902D01*
X9717Y20382D02*
X9717Y19902D01*
X12717Y23382D02*
X12717Y22902D01*
X12717Y20382D02*
X12717Y19902D01*
X13717Y20382D02*
X13717Y19902D01*
X11717Y23382D02*
X11717Y22902D01*
X8717Y23382D02*
X8717Y22902D01*
X11717Y20382D02*
X11717Y19902D01*
X21591Y23382D02*
X21591Y22902D01*
X17591Y23382D02*
X17591Y22902D01*
X22591Y20382D02*
X22591Y19902D01*
X18591Y20382D02*
X18591Y19902D01*
X22591Y23382D02*
X22591Y22902D01*
X18591Y23382D02*
X18591Y22902D01*
X17591Y20382D02*
X17591Y19902D01*
X20591Y23382D02*
X20591Y22902D01*
X20591Y20382D02*
X20591Y19902D01*
X21591Y20382D02*
X21591Y19902D01*
X19591Y23382D02*
X19591Y22902D01*
X16591Y23382D02*
X16591Y22902D01*
X19591Y20382D02*
X19591Y19902D01*
X29465Y23382D02*
X29465Y22902D01*
X25465Y23382D02*
X25465Y22902D01*
X30465Y20382D02*
X30465Y19902D01*
X26465Y20382D02*
X26465Y19902D01*
X30465Y23382D02*
X30465Y22902D01*
X26465Y23382D02*
X26465Y22902D01*
X25465Y20382D02*
X25465Y19902D01*
X28465Y23382D02*
X28465Y22902D01*
X28465Y20382D02*
X28465Y19902D01*
X29465Y20382D02*
X29465Y19902D01*
X27465Y23382D02*
X27465Y22902D01*
X24465Y23382D02*
X24465Y22902D01*
X27465Y20382D02*
X27465Y19902D01*
X37339Y23382D02*
X37339Y22902D01*
X33339Y23382D02*
X33339Y22902D01*
X38339Y20382D02*
X38339Y19902D01*
X34339Y20382D02*
X34339Y19902D01*
X38339Y23382D02*
X38339Y22902D01*
X34339Y23382D02*
X34339Y22902D01*
X33339Y20382D02*
X33339Y19902D01*
X36339Y23382D02*
X36339Y22902D01*
X36339Y20382D02*
X36339Y19902D01*
X37339Y20382D02*
X37339Y19902D01*
X35339Y23382D02*
X35339Y22902D01*
X32339Y23382D02*
X32339Y22902D01*
X35339Y20382D02*
X35339Y19902D01*
X5843Y28185D02*
X5843Y27705D01*
X1843Y28185D02*
X1843Y27705D01*
X6843Y25185D02*
X6843Y24705D01*
X2843Y25185D02*
X2843Y24705D01*
X6843Y28185D02*
X6843Y27705D01*
X2843Y28185D02*
X2843Y27705D01*
X1843Y25185D02*
X1843Y24705D01*
X4843Y28185D02*
X4843Y27705D01*
X4843Y25185D02*
X4843Y24705D01*
X5843Y25185D02*
X5843Y24705D01*
X3843Y28185D02*
X3843Y27705D01*
X843Y28185D02*
X843Y27705D01*
X3843Y25185D02*
X3843Y24705D01*
X13717Y28185D02*
X13717Y27705D01*
X9717Y28185D02*
X9717Y27705D01*
X14717Y25185D02*
X14717Y24705D01*
X10717Y25185D02*
X10717Y24705D01*
X14717Y28185D02*
X14717Y27705D01*
X10717Y28185D02*
X10717Y27705D01*
X9717Y25185D02*
X9717Y24705D01*
X12717Y28185D02*
X12717Y27705D01*
X12717Y25185D02*
X12717Y24705D01*
X13717Y25185D02*
X13717Y24705D01*
X11717Y28185D02*
X11717Y27705D01*
X8717Y28185D02*
X8717Y27705D01*
X11717Y25185D02*
X11717Y24705D01*
X21591Y28185D02*
X21591Y27705D01*
X17591Y28185D02*
X17591Y27705D01*
X22591Y25185D02*
X22591Y24705D01*
X18591Y25185D02*
X18591Y24705D01*
X22591Y28185D02*
X22591Y27705D01*
X18591Y28185D02*
X18591Y27705D01*
X17591Y25185D02*
X17591Y24705D01*
X20591Y28185D02*
X20591Y27705D01*
X20591Y25185D02*
X20591Y24705D01*
X21591Y25185D02*
X21591Y24705D01*
X19591Y28185D02*
X19591Y27705D01*
X16591Y28185D02*
X16591Y27705D01*
X19591Y25185D02*
X19591Y24705D01*
X29465Y28185D02*
X29465Y27705D01*
X25465Y28185D02*
X25465Y27705D01*
X30465Y25185D02*
X30465Y24705D01*
X26465Y25185D02*
X26465Y24705D01*
X30465Y28185D02*
X30465Y27705D01*
X26465Y28185D02*
X26465Y27705D01*
X25465Y25185D02*
X25465Y24705D01*
X28465Y28185D02*
X28465Y27705D01*
X28465Y25185D02*
X28465Y24705D01*
X29465Y25185D02*
X29465Y24705D01*
X27465Y28185D02*
X27465Y27705D01*
X24465Y28185D02*
X24465Y27705D01*
X27465Y25185D02*
X27465Y24705D01*
X37339Y28185D02*
X37339Y27705D01*
X33339Y28185D02*
X33339Y27705D01*
X38339Y25185D02*
X38339Y24705D01*
X34339Y25185D02*
X34339Y24705D01*
X38339Y28185D02*
X38339Y27705D01*
X34339Y28185D02*
X34339Y27705D01*
X33339Y25185D02*
X33339Y24705D01*
X36339Y28185D02*
X36339Y27705D01*
X36339Y25185D02*
X36339Y24705D01*
X37339Y25185D02*
X37339Y24705D01*
X35339Y28185D02*
X35339Y27705D01*
X32339Y28185D02*
X32339Y27705D01*
X35339Y25185D02*
X35339Y24705D01*
X5843Y32988D02*
X5843Y32508D01*
X1843Y32988D02*
X1843Y32508D01*
X6843Y29988D02*
X6843Y29508D01*
X2843Y29988D02*
X2843Y29508D01*
X6843Y32988D02*
X6843Y32508D01*
X2843Y32988D02*
X2843Y32508D01*
X1843Y29988D02*
X1843Y29508D01*
X4843Y32988D02*
X4843Y32508D01*
X4843Y29988D02*
X4843Y29508D01*
X5843Y29988D02*
X5843Y29508D01*
X3843Y32988D02*
X3843Y32508D01*
X843Y32988D02*
X843Y32508D01*
X3843Y29988D02*
X3843Y29508D01*
X13717Y32988D02*
X13717Y32508D01*
X9717Y32988D02*
X9717Y32508D01*
X14717Y29988D02*
X14717Y29508D01*
X10717Y29988D02*
X10717Y29508D01*
X14717Y32988D02*
X14717Y32508D01*
X10717Y32988D02*
X10717Y32508D01*
X9717Y29988D02*
X9717Y29508D01*
X12717Y32988D02*
X12717Y32508D01*
X12717Y29988D02*
X12717Y29508D01*
X13717Y29988D02*
X13717Y29508D01*
X11717Y32988D02*
X11717Y32508D01*
X8717Y32988D02*
X8717Y32508D01*
X11717Y29988D02*
X11717Y29508D01*
X21591Y32988D02*
X21591Y32508D01*
X17591Y32988D02*
X17591Y32508D01*
X22591Y29988D02*
X22591Y29508D01*
X18591Y29988D02*
X18591Y29508D01*
X22591Y32988D02*
X22591Y32508D01*
X18591Y32988D02*
X18591Y32508D01*
X17591Y29988D02*
X17591Y29508D01*
X20591Y32988D02*
X20591Y32508D01*
X20591Y29988D02*
X20591Y29508D01*
X21591Y29988D02*
X21591Y29508D01*
X19591Y32988D02*
X19591Y32508D01*
X16591Y32988D02*
X16591Y32508D01*
X19591Y29988D02*
X19591Y29508D01*
X29465Y32988D02*
X29465Y32508D01*
X25465Y32988D02*
X25465Y32508D01*
X30465Y29988D02*
X30465Y29508D01*
X26465Y29988D02*
X26465Y29508D01*
X30465Y32988D02*
X30465Y32508D01*
X26465Y32988D02*
X26465Y32508D01*
X25465Y29988D02*
X25465Y29508D01*
X28465Y32988D02*
X28465Y32508D01*
X28465Y29988D02*
X28465Y29508D01*
X29465Y29988D02*
X29465Y29508D01*
X27465Y32988D02*
X27465Y32508D01*
X24465Y32988D02*
X24465Y32508D01*
X27465Y29988D02*
X27465Y29508D01*
X37339Y32988D02*
X37339Y32508D01*
X33339Y32988D02*
X33339Y32508D01*
X38339Y29988D02*
X38339Y29508D01*
X34339Y29988D02*
X34339Y29508D01*
X38339Y32988D02*
X38339Y32508D01*
X34339Y32988D02*
X34339Y32508D01*
X33339Y29988D02*
X33339Y29508D01*
X36339Y32988D02*
X36339Y32508D01*
X36339Y29988D02*
X36339Y29508D01*
X37339Y29988D02*
X37339Y29508D01*
X35339Y32988D02*
X35339Y32508D01*
X32339Y32988D02*
X32339Y32508D01*
X35339Y29988D02*
X35339Y29508D01*
X5843Y37791D02*
X5843Y37311D01*
X1843Y37791D02*
X1843Y37311D01*
X6843Y34791D02*
X6843Y34311D01*
X2843Y34791D02*
X2843Y34311D01*
X6843Y37791D02*
X6843Y37311D01*
X2843Y37791D02*
X2843Y37311D01*
X1843Y34791D02*
X1843Y34311D01*
X4843Y37791D02*
X4843Y37311D01*
X4843Y34791D02*
X4843Y34311D01*
X5843Y34791D02*
X5843Y34311D01*
X3843Y37791D02*
X3843Y37311D01*
X843Y37791D02*
X843Y37311D01*
X3843Y34791D02*
X3843Y34311D01*
X13717Y37791D02*
X13717Y37311D01*
X9717Y37791D02*
X9717Y37311D01*
X14717Y34791D02*
X14717Y34311D01*
X10717Y34791D02*
X10717Y34311D01*
X14717Y37791D02*
X14717Y37311D01*
X10717Y37791D02*
X10717Y37311D01*
X9717Y34791D02*
X9717Y34311D01*
X12717Y37791D02*
X12717Y37311D01*
X12717Y34791D02*
X12717Y34311D01*
X13717Y34791D02*
X13717Y34311D01*
X11717Y37791D02*
X11717Y37311D01*
X8717Y37791D02*
X8717Y37311D01*
X11717Y34791D02*
X11717Y34311D01*
X21591Y37791D02*
X21591Y37311D01*
X17591Y37791D02*
X17591Y37311D01*
X22591Y34791D02*
X22591Y34311D01*
X18591Y34791D02*
X18591Y34311D01*
X22591Y37791D02*
X22591Y37311D01*
X18591Y37791D02*
X18591Y37311D01*
X17591Y34791D02*
X17591Y34311D01*
X20591Y37791D02*
X20591Y37311D01*
X20591Y34791D02*
X20591Y34311D01*
X21591Y34791D02*
X21591Y34311D01*
X19591Y37791D02*
X19591Y37311D01*
X16591Y37791D02*
X16591Y37311D01*
X19591Y34791D02*
X19591Y34311D01*
X29465Y37791D02*
X29465Y37311D01*
X25465Y37791D02*
X25465Y37311D01*
X30465Y34791D02*
X30465Y34311D01*
X26465Y34791D02*
X26465Y34311D01*
X30465Y37791D02*
X30465Y37311D01*
X26465Y37791D02*
X26465Y37311D01*
X25465Y34791D02*
X25465Y34311D01*
X28465Y37791D02*
X28465Y37311D01*
X28465Y34791D02*
X28465Y34311D01*
X29465Y34791D02*
X29465Y34311D01*
X27465Y37791D02*
X27465Y37311D01*
X24465Y37791D02*
X24465Y37311D01*
X27465Y34791D02*
X27465Y34311D01*
X37339Y37791D02*
X37339Y37311D01*
X33339Y37791D02*
X33339Y37311D01*
X38339Y34791D02*
X38339Y34311D01*
X34339Y34791D02*
X34339Y34311D01*
X38339Y37791D02*
X38339Y37311D01*
X34339Y37791D02*
X34339Y37311D01*
X33339Y34791D02*
X33339Y34311D01*
X36339Y37791D02*
X36339Y37311D01*
X36339Y34791D02*
X36339Y34311D01*
X37339Y34791D02*
X37339Y34311D01*
X35339Y37791D02*
X35339Y37311D01*
X32339Y37791D02*
X32339Y37311D01*
X35339Y34791D02*
X35339Y34311D01*
G36*
X1103Y1429D02*
X583Y1429D01*
X583Y429D01*
X1103Y429D01*
X1103Y1429D01*
G37*
G36*
X8977Y1429D02*
X8457Y1429D01*
X8457Y429D01*
X8977Y429D01*
X8977Y1429D01*
G37*
G36*
X16851Y1429D02*
X16331Y1429D01*
X16331Y429D01*
X16851Y429D01*
X16851Y1429D01*
G37*
G36*
X24725Y1429D02*
X24205Y1429D01*
X24205Y429D01*
X24725Y429D01*
X24725Y1429D01*
G37*
G36*
X32599Y1429D02*
X32079Y1429D01*
X32079Y429D01*
X32599Y429D01*
X32599Y1429D01*
G37*
G36*
X1103Y6232D02*
X583Y6232D01*
X583Y5232D01*
X1103Y5232D01*
X1103Y6232D01*
G37*
G36*
X8977Y6232D02*
X8457Y6232D01*
X8457Y5232D01*
X8977Y5232D01*
X8977Y6232D01*
G37*
G36*
X16851Y6232D02*
X16331Y6232D01*
X16331Y5232D01*
X16851Y5232D01*
X16851Y6232D01*
G37*
G36*
X24725Y6232D02*
X24205Y6232D01*
X24205Y5232D01*
X24725Y5232D01*
X24725Y6232D01*
G37*
G36*
X32599Y6232D02*
X32079Y6232D01*
X32079Y5232D01*
X32599Y5232D01*
X32599Y6232D01*
G37*
G36*
X1103Y11035D02*
X583Y11035D01*
X583Y10035D01*
X1103Y10035D01*
X1103Y11035D01*
G37*
G36*
X8977Y11035D02*
X8457Y11035D01*
X8457Y10035D01*
X8977Y10035D01*
X8977Y11035D01*
G37*
G36*
X16851Y11035D02*
X16331Y11035D01*
X16331Y10035D01*
X16851Y10035D01*
X16851Y11035D01*
G37*
G36*
X24725Y11035D02*
X24205Y11035D01*
X24205Y10035D01*
X24725Y10035D01*
X24725Y11035D01*
G37*
G36*
X32599Y11035D02*
X32079Y11035D01*
X32079Y10035D01*
X32599Y10035D01*
X32599Y11035D01*
G37*
G36*
X1103Y15839D02*
X583Y15839D01*
X583Y14839D01*
X1103Y14839D01*
X1103Y15839D01*
G37*
G36*
X8977Y15839D02*
X8457Y15839D01*
X8457Y14839D01*
X8977Y14839D01*
X8977Y15839D01*
G37*
G36*
X16851Y15839D02*
X16331Y15839D01*
X16331Y14839D01*
X16851Y14839D01*
X16851Y15839D01*
G37*
G36*
X24725Y15839D02*
X24205Y15839D01*
X24205Y14839D01*
X24725Y14839D01*
X24725Y15839D01*
G37*
G36*
X32599Y15839D02*
X32079Y15839D01*
X32079Y14839D01*
X32599Y14839D01*
X32599Y15839D01*
G37*
G36*
X1103Y20642D02*
X583Y20642D01*
X583Y19642D01*
X1103Y19642D01*
X1103Y20642D01*
G37*
G36*
X8977Y20642D02*
X8457Y20642D01*
X8457Y19642D01*
X8977Y19642D01*
X8977Y20642D01*
G37*
G36*
X16851Y20642D02*
X16331Y20642D01*
X16331Y19642D01*
X16851Y19642D01*
X16851Y20642D01*
G37*
G36*
X24725Y20642D02*
X24205Y20642D01*
X24205Y19642D01*
X24725Y19642D01*
X24725Y20642D01*
G37*
G36*
X32599Y20642D02*
X32079Y20642D01*
X32079Y19642D01*
X32599Y19642D01*
X32599Y20642D01*
G37*
G36*
X1103Y25445D02*
X583Y25445D01*
X583Y24445D01*
X1103Y24445D01*
X1103Y25445D01*
G37*
G36*
X8977Y25445D02*
X8457Y25445D01*
X8457Y24445D01*
X8977Y24445D01*
X8977Y25445D01*
G37*
G36*
X16851Y25445D02*
X16331Y25445D01*
X16331Y24445D01*
X16851Y24445D01*
X16851Y25445D01*
G37*
G36*
X24725Y25445D02*
X24205Y25445D01*
X24205Y24445D01*
X24725Y24445D01*
X24725Y25445D01*
G37*
G36*
X32599Y25445D02*
X32079Y25445D01*
X32079Y24445D01*
X32599Y24445D01*
X32599Y25445D01*
G37*
G36*
X1103Y30248D02*
X583Y30248D01*
X583Y29248D01*
X1103Y29248D01*
X1103Y30248D01*
G37*
G36*
X8977Y30248D02*
X8457Y30248D01*
X8457Y29248D01*
X8977Y29248D01*
X8977Y30248D01*
G37*
G36*
X16851Y30248D02*
X16331Y30248D01*
X16331Y29248D01*
X16851Y29248D01*
X16851Y30248D01*
G37*
G36*
X24725Y30248D02*
X24205Y30248D01*
X24205Y29248D01*
X24725Y29248D01*
X24725Y30248D01*
G37*
G36*
X32599Y30248D02*
X32079Y30248D01*
X32079Y29248D01*
X32599Y29248D01*
X32599Y30248D01*
G37*
G36*
X1103Y35051D02*
X583Y35051D01*
X583Y34051D01*
X1103Y34051D01*
X1103Y35051D01*
G37*
G36*
X8977Y35051D02*
X8457Y35051D01*
X8457Y34051D01*
X8977Y34051D01*
X8977Y35051D01*
G37*
G36*
X16851Y35051D02*
X16331Y35051D01*
X16331Y34051D01*
X16851Y34051D01*
X16851Y35051D01*
G37*
G36*
X24725Y35051D02*
X24205Y35051D01*
X24205Y34051D01*
X24725Y34051D01*
X24725Y35051D01*
G37*
G36*
X32599Y35051D02*
X32079Y35051D01*
X32079Y34051D01*
X32599Y34051D01*
X32599Y35051D01*
G37*
M02*
