%FSLAX24Y24*%
%MOIN*%
%ADD10C,0.0394*%
%ADD11C,0.0520*%
D10*
G01X4380Y1770D03*
X3831Y3032D03*
X3329Y2440D03*
X3869Y1868D03*
X4180Y2564D03*
X3342Y3129D03*
X12254Y1770D03*
X11706Y3032D03*
X11203Y2440D03*
X11743Y1868D03*
X12054Y2564D03*
X11216Y3129D03*
X20128Y1770D03*
X19580Y3032D03*
X19077Y2440D03*
X19617Y1868D03*
X19928Y2564D03*
X19090Y3129D03*
X28002Y1770D03*
X27454Y3032D03*
X26951Y2440D03*
X27491Y1868D03*
X27802Y2564D03*
X26964Y3129D03*
X35876Y1770D03*
X35328Y3032D03*
X34825Y2440D03*
X35365Y1868D03*
X35676Y2564D03*
X34838Y3129D03*
X4380Y6573D03*
X3831Y7835D03*
X3329Y7243D03*
X3869Y6671D03*
X4180Y7367D03*
X3342Y7932D03*
X12254Y6573D03*
X11706Y7835D03*
X11203Y7243D03*
X11743Y6671D03*
X12054Y7367D03*
X11216Y7932D03*
X20128Y6573D03*
X19580Y7835D03*
X19077Y7243D03*
X19617Y6671D03*
X19928Y7367D03*
X19090Y7932D03*
X28002Y6573D03*
X27454Y7835D03*
X26951Y7243D03*
X27491Y6671D03*
X27802Y7367D03*
X26964Y7932D03*
X35876Y6573D03*
X35328Y7835D03*
X34825Y7243D03*
X35365Y6671D03*
X35676Y7367D03*
X34838Y7932D03*
X4380Y11376D03*
X3831Y12638D03*
X3329Y12046D03*
X3869Y11474D03*
X4180Y12170D03*
X3342Y12735D03*
X12254Y11376D03*
X11706Y12638D03*
X11203Y12046D03*
X11743Y11474D03*
X12054Y12170D03*
X11216Y12735D03*
X20128Y11376D03*
X19580Y12638D03*
X19077Y12046D03*
X19617Y11474D03*
X19928Y12170D03*
X19090Y12735D03*
X28002Y11376D03*
X27454Y12638D03*
X26951Y12046D03*
X27491Y11474D03*
X27802Y12170D03*
X26964Y12735D03*
X35876Y11376D03*
X35328Y12638D03*
X34825Y12046D03*
X35365Y11474D03*
X35676Y12170D03*
X34838Y12735D03*
X4380Y16179D03*
X3831Y17441D03*
X3329Y16849D03*
X3869Y16277D03*
X4180Y16973D03*
X3342Y17538D03*
X12254Y16179D03*
X11706Y17441D03*
X11203Y16849D03*
X11743Y16277D03*
X12054Y16973D03*
X11216Y17538D03*
X20128Y16179D03*
X19580Y17441D03*
X19077Y16849D03*
X19617Y16277D03*
X19928Y16973D03*
X19090Y17538D03*
X28002Y16179D03*
X27454Y17441D03*
X26951Y16849D03*
X27491Y16277D03*
X27802Y16973D03*
X26964Y17538D03*
X35876Y16179D03*
X35328Y17441D03*
X34825Y16849D03*
X35365Y16277D03*
X35676Y16973D03*
X34838Y17538D03*
X4380Y20982D03*
X3831Y22244D03*
X3329Y21652D03*
X3869Y21080D03*
X4180Y21777D03*
X3342Y22342D03*
X12254Y20982D03*
X11706Y22244D03*
X11203Y21652D03*
X11743Y21080D03*
X12054Y21777D03*
X11216Y22342D03*
X20128Y20982D03*
X19580Y22244D03*
X19077Y21652D03*
X19617Y21080D03*
X19928Y21777D03*
X19090Y22342D03*
X28002Y20982D03*
X27454Y22244D03*
X26951Y21652D03*
X27491Y21080D03*
X27802Y21777D03*
X26964Y22342D03*
X35876Y20982D03*
X35328Y22244D03*
X34825Y21652D03*
X35365Y21080D03*
X35676Y21777D03*
X34838Y22342D03*
X4380Y25785D03*
X3831Y27047D03*
X3329Y26455D03*
X3869Y25883D03*
X4180Y26580D03*
X3342Y27145D03*
X12254Y25785D03*
X11706Y27047D03*
X11203Y26455D03*
X11743Y25883D03*
X12054Y26580D03*
X11216Y27145D03*
X20128Y25785D03*
X19580Y27047D03*
X19077Y26455D03*
X19617Y25883D03*
X19928Y26580D03*
X19090Y27145D03*
X28002Y25785D03*
X27454Y27047D03*
X26951Y26455D03*
X27491Y25883D03*
X27802Y26580D03*
X26964Y27145D03*
X35876Y25785D03*
X35328Y27047D03*
X34825Y26455D03*
X35365Y25883D03*
X35676Y26580D03*
X34838Y27145D03*
X4380Y30589D03*
X3831Y31851D03*
X3329Y31259D03*
X3869Y30687D03*
X4180Y31383D03*
X3342Y31948D03*
X12254Y30589D03*
X11706Y31851D03*
X11203Y31259D03*
X11743Y30687D03*
X12054Y31383D03*
X11216Y31948D03*
X20128Y30589D03*
X19580Y31851D03*
X19077Y31259D03*
X19617Y30687D03*
X19928Y31383D03*
X19090Y31948D03*
X28002Y30589D03*
X27454Y31851D03*
X26951Y31259D03*
X27491Y30687D03*
X27802Y31383D03*
X26964Y31948D03*
X35876Y30589D03*
X35328Y31851D03*
X34825Y31259D03*
X35365Y30687D03*
X35676Y31383D03*
X34838Y31948D03*
X4380Y35392D03*
X3831Y36654D03*
X3329Y36062D03*
X3869Y35490D03*
X4180Y36186D03*
X3342Y36751D03*
X12254Y35392D03*
X11706Y36654D03*
X11203Y36062D03*
X11743Y35490D03*
X12054Y36186D03*
X11216Y36751D03*
X20128Y35392D03*
X19580Y36654D03*
X19077Y36062D03*
X19617Y35490D03*
X19928Y36186D03*
X19090Y36751D03*
X28002Y35392D03*
X27454Y36654D03*
X26951Y36062D03*
X27491Y35490D03*
X27802Y36186D03*
X26964Y36751D03*
X35876Y35392D03*
X35328Y36654D03*
X34825Y36062D03*
X35365Y35490D03*
X35676Y36186D03*
X34838Y36751D03*
D11*
G01X5843Y4169D02*
X5843Y3689D01*
X1843Y4169D02*
X1843Y3689D01*
X6843Y1169D02*
X6843Y689D01*
X2843Y1169D02*
X2843Y689D01*
X6843Y4169D02*
X6843Y3689D01*
X2843Y4169D02*
X2843Y3689D01*
X1843Y1169D02*
X1843Y689D01*
X4843Y4169D02*
X4843Y3689D01*
X4843Y1169D02*
X4843Y689D01*
X5843Y1169D02*
X5843Y689D01*
X3843Y4169D02*
X3843Y3689D01*
X843Y4169D02*
X843Y3689D01*
X3843Y1169D02*
X3843Y689D01*
X13717Y4169D02*
X13717Y3689D01*
X9717Y4169D02*
X9717Y3689D01*
X14717Y1169D02*
X14717Y689D01*
X10717Y1169D02*
X10717Y689D01*
X14717Y4169D02*
X14717Y3689D01*
X10717Y4169D02*
X10717Y3689D01*
X9717Y1169D02*
X9717Y689D01*
X12717Y4169D02*
X12717Y3689D01*
X12717Y1169D02*
X12717Y689D01*
X13717Y1169D02*
X13717Y689D01*
X11717Y4169D02*
X11717Y3689D01*
X8717Y4169D02*
X8717Y3689D01*
X11717Y1169D02*
X11717Y689D01*
X21591Y4169D02*
X21591Y3689D01*
X17591Y4169D02*
X17591Y3689D01*
X22591Y1169D02*
X22591Y689D01*
X18591Y1169D02*
X18591Y689D01*
X22591Y4169D02*
X22591Y3689D01*
X18591Y4169D02*
X18591Y3689D01*
X17591Y1169D02*
X17591Y689D01*
X20591Y4169D02*
X20591Y3689D01*
X20591Y1169D02*
X20591Y689D01*
X21591Y1169D02*
X21591Y689D01*
X19591Y4169D02*
X19591Y3689D01*
X16591Y4169D02*
X16591Y3689D01*
X19591Y1169D02*
X19591Y689D01*
X29465Y4169D02*
X29465Y3689D01*
X25465Y4169D02*
X25465Y3689D01*
X30465Y1169D02*
X30465Y689D01*
X26465Y1169D02*
X26465Y689D01*
X30465Y4169D02*
X30465Y3689D01*
X26465Y4169D02*
X26465Y3689D01*
X25465Y1169D02*
X25465Y689D01*
X28465Y4169D02*
X28465Y3689D01*
X28465Y1169D02*
X28465Y689D01*
X29465Y1169D02*
X29465Y689D01*
X27465Y4169D02*
X27465Y3689D01*
X24465Y4169D02*
X24465Y3689D01*
X27465Y1169D02*
X27465Y689D01*
X37339Y4169D02*
X37339Y3689D01*
X33339Y4169D02*
X33339Y3689D01*
X38339Y1169D02*
X38339Y689D01*
X34339Y1169D02*
X34339Y689D01*
X38339Y4169D02*
X38339Y3689D01*
X34339Y4169D02*
X34339Y3689D01*
X33339Y1169D02*
X33339Y689D01*
X36339Y4169D02*
X36339Y3689D01*
X36339Y1169D02*
X36339Y689D01*
X37339Y1169D02*
X37339Y689D01*
X35339Y4169D02*
X35339Y3689D01*
X32339Y4169D02*
X32339Y3689D01*
X35339Y1169D02*
X35339Y689D01*
X5843Y8972D02*
X5843Y8492D01*
X1843Y8972D02*
X1843Y8492D01*
X6843Y5972D02*
X6843Y5492D01*
X2843Y5972D02*
X2843Y5492D01*
X6843Y8972D02*
X6843Y8492D01*
X2843Y8972D02*
X2843Y8492D01*
X1843Y5972D02*
X1843Y5492D01*
X4843Y8972D02*
X4843Y8492D01*
X4843Y5972D02*
X4843Y5492D01*
X5843Y5972D02*
X5843Y5492D01*
X3843Y8972D02*
X3843Y8492D01*
X843Y8972D02*
X843Y8492D01*
X3843Y5972D02*
X3843Y5492D01*
X13717Y8972D02*
X13717Y8492D01*
X9717Y8972D02*
X9717Y8492D01*
X14717Y5972D02*
X14717Y5492D01*
X10717Y5972D02*
X10717Y5492D01*
X14717Y8972D02*
X14717Y8492D01*
X10717Y8972D02*
X10717Y8492D01*
X9717Y5972D02*
X9717Y5492D01*
X12717Y8972D02*
X12717Y8492D01*
X12717Y5972D02*
X12717Y5492D01*
X13717Y5972D02*
X13717Y5492D01*
X11717Y8972D02*
X11717Y8492D01*
X8717Y8972D02*
X8717Y8492D01*
X11717Y5972D02*
X11717Y5492D01*
X21591Y8972D02*
X21591Y8492D01*
X17591Y8972D02*
X17591Y8492D01*
X22591Y5972D02*
X22591Y5492D01*
X18591Y5972D02*
X18591Y5492D01*
X22591Y8972D02*
X22591Y8492D01*
X18591Y8972D02*
X18591Y8492D01*
X17591Y5972D02*
X17591Y5492D01*
X20591Y8972D02*
X20591Y8492D01*
X20591Y5972D02*
X20591Y5492D01*
X21591Y5972D02*
X21591Y5492D01*
X19591Y8972D02*
X19591Y8492D01*
X16591Y8972D02*
X16591Y8492D01*
X19591Y5972D02*
X19591Y5492D01*
X29465Y8972D02*
X29465Y8492D01*
X25465Y8972D02*
X25465Y8492D01*
X30465Y5972D02*
X30465Y5492D01*
X26465Y5972D02*
X26465Y5492D01*
X30465Y8972D02*
X30465Y8492D01*
X26465Y8972D02*
X26465Y8492D01*
X25465Y5972D02*
X25465Y5492D01*
X28465Y8972D02*
X28465Y8492D01*
X28465Y5972D02*
X28465Y5492D01*
X29465Y5972D02*
X29465Y5492D01*
X27465Y8972D02*
X27465Y8492D01*
X24465Y8972D02*
X24465Y8492D01*
X27465Y5972D02*
X27465Y5492D01*
X37339Y8972D02*
X37339Y8492D01*
X33339Y8972D02*
X33339Y8492D01*
X38339Y5972D02*
X38339Y5492D01*
X34339Y5972D02*
X34339Y5492D01*
X38339Y8972D02*
X38339Y8492D01*
X34339Y8972D02*
X34339Y8492D01*
X33339Y5972D02*
X33339Y5492D01*
X36339Y8972D02*
X36339Y8492D01*
X36339Y5972D02*
X36339Y5492D01*
X37339Y5972D02*
X37339Y5492D01*
X35339Y8972D02*
X35339Y8492D01*
X32339Y8972D02*
X32339Y8492D01*
X35339Y5972D02*
X35339Y5492D01*
X5843Y13775D02*
X5843Y13295D01*
X1843Y13775D02*
X1843Y13295D01*
X6843Y10775D02*
X6843Y10295D01*
X2843Y10775D02*
X2843Y10295D01*
X6843Y13775D02*
X6843Y13295D01*
X2843Y13775D02*
X2843Y13295D01*
X1843Y10775D02*
X1843Y10295D01*
X4843Y13775D02*
X4843Y13295D01*
X4843Y10775D02*
X4843Y10295D01*
X5843Y10775D02*
X5843Y10295D01*
X3843Y13775D02*
X3843Y13295D01*
X843Y13775D02*
X843Y13295D01*
X3843Y10775D02*
X3843Y10295D01*
X13717Y13775D02*
X13717Y13295D01*
X9717Y13775D02*
X9717Y13295D01*
X14717Y10775D02*
X14717Y10295D01*
X10717Y10775D02*
X10717Y10295D01*
X14717Y13775D02*
X14717Y13295D01*
X10717Y13775D02*
X10717Y13295D01*
X9717Y10775D02*
X9717Y10295D01*
X12717Y13775D02*
X12717Y13295D01*
X12717Y10775D02*
X12717Y10295D01*
X13717Y10775D02*
X13717Y10295D01*
X11717Y13775D02*
X11717Y13295D01*
X8717Y13775D02*
X8717Y13295D01*
X11717Y10775D02*
X11717Y10295D01*
X21591Y13775D02*
X21591Y13295D01*
X17591Y13775D02*
X17591Y13295D01*
X22591Y10775D02*
X22591Y10295D01*
X18591Y10775D02*
X18591Y10295D01*
X22591Y13775D02*
X22591Y13295D01*
X18591Y13775D02*
X18591Y13295D01*
X17591Y10775D02*
X17591Y10295D01*
X20591Y13775D02*
X20591Y13295D01*
X20591Y10775D02*
X20591Y10295D01*
X21591Y10775D02*
X21591Y10295D01*
X19591Y13775D02*
X19591Y13295D01*
X16591Y13775D02*
X16591Y13295D01*
X19591Y10775D02*
X19591Y10295D01*
X29465Y13775D02*
X29465Y13295D01*
X25465Y13775D02*
X25465Y13295D01*
X30465Y10775D02*
X30465Y10295D01*
X26465Y10775D02*
X26465Y10295D01*
X30465Y13775D02*
X30465Y13295D01*
X26465Y13775D02*
X26465Y13295D01*
X25465Y10775D02*
X25465Y10295D01*
X28465Y13775D02*
X28465Y13295D01*
X28465Y10775D02*
X28465Y10295D01*
X29465Y10775D02*
X29465Y10295D01*
X27465Y13775D02*
X27465Y13295D01*
X24465Y13775D02*
X24465Y13295D01*
X27465Y10775D02*
X27465Y10295D01*
X37339Y13775D02*
X37339Y13295D01*
X33339Y13775D02*
X33339Y13295D01*
X38339Y10775D02*
X38339Y10295D01*
X34339Y10775D02*
X34339Y10295D01*
X38339Y13775D02*
X38339Y13295D01*
X34339Y13775D02*
X34339Y13295D01*
X33339Y10775D02*
X33339Y10295D01*
X36339Y13775D02*
X36339Y13295D01*
X36339Y10775D02*
X36339Y10295D01*
X37339Y10775D02*
X37339Y10295D01*
X35339Y13775D02*
X35339Y13295D01*
X32339Y13775D02*
X32339Y13295D01*
X35339Y10775D02*
X35339Y10295D01*
X5843Y18579D02*
X5843Y18099D01*
X1843Y18579D02*
X1843Y18099D01*
X6843Y15579D02*
X6843Y15099D01*
X2843Y15579D02*
X2843Y15099D01*
X6843Y18579D02*
X6843Y18099D01*
X2843Y18579D02*
X2843Y18099D01*
X1843Y15579D02*
X1843Y15099D01*
X4843Y18579D02*
X4843Y18099D01*
X4843Y15579D02*
X4843Y15099D01*
X5843Y15579D02*
X5843Y15099D01*
X3843Y18579D02*
X3843Y18099D01*
X843Y18579D02*
X843Y18099D01*
X3843Y15579D02*
X3843Y15099D01*
X13717Y18579D02*
X13717Y18099D01*
X9717Y18579D02*
X9717Y18099D01*
X14717Y15579D02*
X14717Y15099D01*
X10717Y15579D02*
X10717Y15099D01*
X14717Y18579D02*
X14717Y18099D01*
X10717Y18579D02*
X10717Y18099D01*
X9717Y15579D02*
X9717Y15099D01*
X12717Y18579D02*
X12717Y18099D01*
X12717Y15579D02*
X12717Y15099D01*
X13717Y15579D02*
X13717Y15099D01*
X11717Y18579D02*
X11717Y18099D01*
X8717Y18579D02*
X8717Y18099D01*
X11717Y15579D02*
X11717Y15099D01*
X21591Y18579D02*
X21591Y18099D01*
X17591Y18579D02*
X17591Y18099D01*
X22591Y15579D02*
X22591Y15099D01*
X18591Y15579D02*
X18591Y15099D01*
X22591Y18579D02*
X22591Y18099D01*
X18591Y18579D02*
X18591Y18099D01*
X17591Y15579D02*
X17591Y15099D01*
X20591Y18579D02*
X20591Y18099D01*
X20591Y15579D02*
X20591Y15099D01*
X21591Y15579D02*
X21591Y15099D01*
X19591Y18579D02*
X19591Y18099D01*
X16591Y18579D02*
X16591Y18099D01*
X19591Y15579D02*
X19591Y15099D01*
X29465Y18579D02*
X29465Y18099D01*
X25465Y18579D02*
X25465Y18099D01*
X30465Y15579D02*
X30465Y15099D01*
X26465Y15579D02*
X26465Y15099D01*
X30465Y18579D02*
X30465Y18099D01*
X26465Y18579D02*
X26465Y18099D01*
X25465Y15579D02*
X25465Y15099D01*
X28465Y18579D02*
X28465Y18099D01*
X28465Y15579D02*
X28465Y15099D01*
X29465Y15579D02*
X29465Y15099D01*
X27465Y18579D02*
X27465Y18099D01*
X24465Y18579D02*
X24465Y18099D01*
X27465Y15579D02*
X27465Y15099D01*
X37339Y18579D02*
X37339Y18099D01*
X33339Y18579D02*
X33339Y18099D01*
X38339Y15579D02*
X38339Y15099D01*
X34339Y15579D02*
X34339Y15099D01*
X38339Y18579D02*
X38339Y18099D01*
X34339Y18579D02*
X34339Y18099D01*
X33339Y15579D02*
X33339Y15099D01*
X36339Y18579D02*
X36339Y18099D01*
X36339Y15579D02*
X36339Y15099D01*
X37339Y15579D02*
X37339Y15099D01*
X35339Y18579D02*
X35339Y18099D01*
X32339Y18579D02*
X32339Y18099D01*
X35339Y15579D02*
X35339Y15099D01*
X5843Y23382D02*
X5843Y22902D01*
X1843Y23382D02*
X1843Y22902D01*
X6843Y20382D02*
X6843Y19902D01*
X2843Y20382D02*
X2843Y19902D01*
X6843Y23382D02*
X6843Y22902D01*
X2843Y23382D02*
X2843Y22902D01*
X1843Y20382D02*
X1843Y19902D01*
X4843Y23382D02*
X4843Y22902D01*
X4843Y20382D02*
X4843Y19902D01*
X5843Y20382D02*
X5843Y19902D01*
X3843Y23382D02*
X3843Y22902D01*
X843Y23382D02*
X843Y22902D01*
X3843Y20382D02*
X3843Y19902D01*
X13717Y23382D02*
X13717Y22902D01*
X9717Y23382D02*
X9717Y22902D01*
X14717Y20382D02*
X14717Y19902D01*
X10717Y20382D02*
X10717Y19902D01*
X14717Y23382D02*
X14717Y22902D01*
X10717Y23382D02*
X10717Y22902D01*
X9717Y20382D02*
X9717Y19902D01*
X12717Y23382D02*
X12717Y22902D01*
X12717Y20382D02*
X12717Y19902D01*
X13717Y20382D02*
X13717Y19902D01*
X11717Y23382D02*
X11717Y22902D01*
X8717Y23382D02*
X8717Y22902D01*
X11717Y20382D02*
X11717Y19902D01*
X21591Y23382D02*
X21591Y22902D01*
X17591Y23382D02*
X17591Y22902D01*
X22591Y20382D02*
X22591Y19902D01*
X18591Y20382D02*
X18591Y19902D01*
X22591Y23382D02*
X22591Y22902D01*
X18591Y23382D02*
X18591Y22902D01*
X17591Y20382D02*
X17591Y19902D01*
X20591Y23382D02*
X20591Y22902D01*
X20591Y20382D02*
X20591Y19902D01*
X21591Y20382D02*
X21591Y19902D01*
X19591Y23382D02*
X19591Y22902D01*
X16591Y23382D02*
X16591Y22902D01*
X19591Y20382D02*
X19591Y19902D01*
X29465Y23382D02*
X29465Y22902D01*
X25465Y23382D02*
X25465Y22902D01*
X30465Y20382D02*
X30465Y19902D01*
X26465Y20382D02*
X26465Y19902D01*
X30465Y23382D02*
X30465Y22902D01*
X26465Y23382D02*
X26465Y22902D01*
X25465Y20382D02*
X25465Y19902D01*
X28465Y23382D02*
X28465Y22902D01*
X28465Y20382D02*
X28465Y19902D01*
X29465Y20382D02*
X29465Y19902D01*
X27465Y23382D02*
X27465Y22902D01*
X24465Y23382D02*
X24465Y22902D01*
X27465Y20382D02*
X27465Y19902D01*
X37339Y23382D02*
X37339Y22902D01*
X33339Y23382D02*
X33339Y22902D01*
X38339Y20382D02*
X38339Y19902D01*
X34339Y20382D02*
X34339Y19902D01*
X38339Y23382D02*
X38339Y22902D01*
X34339Y23382D02*
X34339Y22902D01*
X33339Y20382D02*
X33339Y19902D01*
X36339Y23382D02*
X36339Y22902D01*
X36339Y20382D02*
X36339Y19902D01*
X37339Y20382D02*
X37339Y19902D01*
X35339Y23382D02*
X35339Y22902D01*
X32339Y23382D02*
X32339Y22902D01*
X35339Y20382D02*
X35339Y19902D01*
X5843Y28185D02*
X5843Y27705D01*
X1843Y28185D02*
X1843Y27705D01*
X6843Y25185D02*
X6843Y24705D01*
X2843Y25185D02*
X2843Y24705D01*
X6843Y28185D02*
X6843Y27705D01*
X2843Y28185D02*
X2843Y27705D01*
X1843Y25185D02*
X1843Y24705D01*
X4843Y28185D02*
X4843Y27705D01*
X4843Y25185D02*
X4843Y24705D01*
X5843Y25185D02*
X5843Y24705D01*
X3843Y28185D02*
X3843Y27705D01*
X843Y28185D02*
X843Y27705D01*
X3843Y25185D02*
X3843Y24705D01*
X13717Y28185D02*
X13717Y27705D01*
X9717Y28185D02*
X9717Y27705D01*
X14717Y25185D02*
X14717Y24705D01*
X10717Y25185D02*
X10717Y24705D01*
X14717Y28185D02*
X14717Y27705D01*
X10717Y28185D02*
X10717Y27705D01*
X9717Y25185D02*
X9717Y24705D01*
X12717Y28185D02*
X12717Y27705D01*
X12717Y25185D02*
X12717Y24705D01*
X13717Y25185D02*
X13717Y24705D01*
X11717Y28185D02*
X11717Y27705D01*
X8717Y28185D02*
X8717Y27705D01*
X11717Y25185D02*
X11717Y24705D01*
X21591Y28185D02*
X21591Y27705D01*
X17591Y28185D02*
X17591Y27705D01*
X22591Y25185D02*
X22591Y24705D01*
X18591Y25185D02*
X18591Y24705D01*
X22591Y28185D02*
X22591Y27705D01*
X18591Y28185D02*
X18591Y27705D01*
X17591Y25185D02*
X17591Y24705D01*
X20591Y28185D02*
X20591Y27705D01*
X20591Y25185D02*
X20591Y24705D01*
X21591Y25185D02*
X21591Y24705D01*
X19591Y28185D02*
X19591Y27705D01*
X16591Y28185D02*
X16591Y27705D01*
X19591Y25185D02*
X19591Y24705D01*
X29465Y28185D02*
X29465Y27705D01*
X25465Y28185D02*
X25465Y27705D01*
X30465Y25185D02*
X30465Y24705D01*
X26465Y25185D02*
X26465Y24705D01*
X30465Y28185D02*
X30465Y27705D01*
X26465Y28185D02*
X26465Y27705D01*
X25465Y25185D02*
X25465Y24705D01*
X28465Y28185D02*
X28465Y27705D01*
X28465Y25185D02*
X28465Y24705D01*
X29465Y25185D02*
X29465Y24705D01*
X27465Y28185D02*
X27465Y27705D01*
X24465Y28185D02*
X24465Y27705D01*
X27465Y25185D02*
X27465Y24705D01*
X37339Y28185D02*
X37339Y27705D01*
X33339Y28185D02*
X33339Y27705D01*
X38339Y25185D02*
X38339Y24705D01*
X34339Y25185D02*
X34339Y24705D01*
X38339Y28185D02*
X38339Y27705D01*
X34339Y28185D02*
X34339Y27705D01*
X33339Y25185D02*
X33339Y24705D01*
X36339Y28185D02*
X36339Y27705D01*
X36339Y25185D02*
X36339Y24705D01*
X37339Y25185D02*
X37339Y24705D01*
X35339Y28185D02*
X35339Y27705D01*
X32339Y28185D02*
X32339Y27705D01*
X35339Y25185D02*
X35339Y24705D01*
X5843Y32988D02*
X5843Y32508D01*
X1843Y32988D02*
X1843Y32508D01*
X6843Y29988D02*
X6843Y29508D01*
X2843Y29988D02*
X2843Y29508D01*
X6843Y32988D02*
X6843Y32508D01*
X2843Y32988D02*
X2843Y32508D01*
X1843Y29988D02*
X1843Y29508D01*
X4843Y32988D02*
X4843Y32508D01*
X4843Y29988D02*
X4843Y29508D01*
X5843Y29988D02*
X5843Y29508D01*
X3843Y32988D02*
X3843Y32508D01*
X843Y32988D02*
X843Y32508D01*
X3843Y29988D02*
X3843Y29508D01*
X13717Y32988D02*
X13717Y32508D01*
X9717Y32988D02*
X9717Y32508D01*
X14717Y29988D02*
X14717Y29508D01*
X10717Y29988D02*
X10717Y29508D01*
X14717Y32988D02*
X14717Y32508D01*
X10717Y32988D02*
X10717Y32508D01*
X9717Y29988D02*
X9717Y29508D01*
X12717Y32988D02*
X12717Y32508D01*
X12717Y29988D02*
X12717Y29508D01*
X13717Y29988D02*
X13717Y29508D01*
X11717Y32988D02*
X11717Y32508D01*
X8717Y32988D02*
X8717Y32508D01*
X11717Y29988D02*
X11717Y29508D01*
X21591Y32988D02*
X21591Y32508D01*
X17591Y32988D02*
X17591Y32508D01*
X22591Y29988D02*
X22591Y29508D01*
X18591Y29988D02*
X18591Y29508D01*
X22591Y32988D02*
X22591Y32508D01*
X18591Y32988D02*
X18591Y32508D01*
X17591Y29988D02*
X17591Y29508D01*
X20591Y32988D02*
X20591Y32508D01*
X20591Y29988D02*
X20591Y29508D01*
X21591Y29988D02*
X21591Y29508D01*
X19591Y32988D02*
X19591Y32508D01*
X16591Y32988D02*
X16591Y32508D01*
X19591Y29988D02*
X19591Y29508D01*
X29465Y32988D02*
X29465Y32508D01*
X25465Y32988D02*
X25465Y32508D01*
X30465Y29988D02*
X30465Y29508D01*
X26465Y29988D02*
X26465Y29508D01*
X30465Y32988D02*
X30465Y32508D01*
X26465Y32988D02*
X26465Y32508D01*
X25465Y29988D02*
X25465Y29508D01*
X28465Y32988D02*
X28465Y32508D01*
X28465Y29988D02*
X28465Y29508D01*
X29465Y29988D02*
X29465Y29508D01*
X27465Y32988D02*
X27465Y32508D01*
X24465Y32988D02*
X24465Y32508D01*
X27465Y29988D02*
X27465Y29508D01*
X37339Y32988D02*
X37339Y32508D01*
X33339Y32988D02*
X33339Y32508D01*
X38339Y29988D02*
X38339Y29508D01*
X34339Y29988D02*
X34339Y29508D01*
X38339Y32988D02*
X38339Y32508D01*
X34339Y32988D02*
X34339Y32508D01*
X33339Y29988D02*
X33339Y29508D01*
X36339Y32988D02*
X36339Y32508D01*
X36339Y29988D02*
X36339Y29508D01*
X37339Y29988D02*
X37339Y29508D01*
X35339Y32988D02*
X35339Y32508D01*
X32339Y32988D02*
X32339Y32508D01*
X35339Y29988D02*
X35339Y29508D01*
X5843Y37791D02*
X5843Y37311D01*
X1843Y37791D02*
X1843Y37311D01*
X6843Y34791D02*
X6843Y34311D01*
X2843Y34791D02*
X2843Y34311D01*
X6843Y37791D02*
X6843Y37311D01*
X2843Y37791D02*
X2843Y37311D01*
X1843Y34791D02*
X1843Y34311D01*
X4843Y37791D02*
X4843Y37311D01*
X4843Y34791D02*
X4843Y34311D01*
X5843Y34791D02*
X5843Y34311D01*
X3843Y37791D02*
X3843Y37311D01*
X843Y37791D02*
X843Y37311D01*
X3843Y34791D02*
X3843Y34311D01*
X13717Y37791D02*
X13717Y37311D01*
X9717Y37791D02*
X9717Y37311D01*
X14717Y34791D02*
X14717Y34311D01*
X10717Y34791D02*
X10717Y34311D01*
X14717Y37791D02*
X14717Y37311D01*
X10717Y37791D02*
X10717Y37311D01*
X9717Y34791D02*
X9717Y34311D01*
X12717Y37791D02*
X12717Y37311D01*
X12717Y34791D02*
X12717Y34311D01*
X13717Y34791D02*
X13717Y34311D01*
X11717Y37791D02*
X11717Y37311D01*
X8717Y37791D02*
X8717Y37311D01*
X11717Y34791D02*
X11717Y34311D01*
X21591Y37791D02*
X21591Y37311D01*
X17591Y37791D02*
X17591Y37311D01*
X22591Y34791D02*
X22591Y34311D01*
X18591Y34791D02*
X18591Y34311D01*
X22591Y37791D02*
X22591Y37311D01*
X18591Y37791D02*
X18591Y37311D01*
X17591Y34791D02*
X17591Y34311D01*
X20591Y37791D02*
X20591Y37311D01*
X20591Y34791D02*
X20591Y34311D01*
X21591Y34791D02*
X21591Y34311D01*
X19591Y37791D02*
X19591Y37311D01*
X16591Y37791D02*
X16591Y37311D01*
X19591Y34791D02*
X19591Y34311D01*
X29465Y37791D02*
X29465Y37311D01*
X25465Y37791D02*
X25465Y37311D01*
X30465Y34791D02*
X30465Y34311D01*
X26465Y34791D02*
X26465Y34311D01*
X30465Y37791D02*
X30465Y37311D01*
X26465Y37791D02*
X26465Y37311D01*
X25465Y34791D02*
X25465Y34311D01*
X28465Y37791D02*
X28465Y37311D01*
X28465Y34791D02*
X28465Y34311D01*
X29465Y34791D02*
X29465Y34311D01*
X27465Y37791D02*
X27465Y37311D01*
X24465Y37791D02*
X24465Y37311D01*
X27465Y34791D02*
X27465Y34311D01*
X37339Y37791D02*
X37339Y37311D01*
X33339Y37791D02*
X33339Y37311D01*
X38339Y34791D02*
X38339Y34311D01*
X34339Y34791D02*
X34339Y34311D01*
X38339Y37791D02*
X38339Y37311D01*
X34339Y37791D02*
X34339Y37311D01*
X33339Y34791D02*
X33339Y34311D01*
X36339Y37791D02*
X36339Y37311D01*
X36339Y34791D02*
X36339Y34311D01*
X37339Y34791D02*
X37339Y34311D01*
X35339Y37791D02*
X35339Y37311D01*
X32339Y37791D02*
X32339Y37311D01*
X35339Y34791D02*
X35339Y34311D01*
G36*
X1103Y1429D02*
X583Y1429D01*
X583Y429D01*
X1103Y429D01*
X1103Y1429D01*
G37*
G36*
X2332Y1970D02*
X2332Y1793D01*
X2903Y1793D01*
X2903Y1970D01*
X2332Y1970D01*
G37*
G36*
X2332Y3249D02*
X2332Y3072D01*
X2903Y3072D01*
X2903Y3249D01*
X2332Y3249D01*
G37*
G36*
X4655Y2994D02*
X4655Y2817D01*
X5226Y2817D01*
X5226Y2994D01*
X4655Y2994D01*
G37*
G36*
X2332Y2738D02*
X2332Y2561D01*
X2903Y2561D01*
X2903Y2738D01*
X2332Y2738D01*
G37*
G36*
X2332Y2482D02*
X2332Y2305D01*
X2903Y2305D01*
X2903Y2482D01*
X2332Y2482D01*
G37*
G36*
X2332Y2226D02*
X2332Y2049D01*
X2903Y2049D01*
X2903Y2226D01*
X2332Y2226D01*
G37*
G36*
X4655Y2482D02*
X4655Y2305D01*
X5226Y2305D01*
X5226Y2482D01*
X4655Y2482D01*
G37*
G36*
X2332Y1714D02*
X2332Y1537D01*
X2903Y1537D01*
X2903Y1714D01*
X2332Y1714D01*
G37*
G36*
X4655Y2738D02*
X4655Y2561D01*
X5226Y2561D01*
X5226Y2738D01*
X4655Y2738D01*
G37*
G36*
X4655Y2226D02*
X4655Y2049D01*
X5226Y2049D01*
X5226Y2226D01*
X4655Y2226D01*
G37*
G36*
X4655Y1970D02*
X4655Y1793D01*
X5226Y1793D01*
X5226Y1970D01*
X4655Y1970D01*
G37*
G36*
X4655Y1714D02*
X4655Y1537D01*
X5226Y1537D01*
X5226Y1714D01*
X4655Y1714D01*
G37*
G36*
X4655Y3249D02*
X4655Y3072D01*
X5226Y3072D01*
X5226Y3249D01*
X4655Y3249D01*
G37*
G36*
X2332Y2994D02*
X2332Y2817D01*
X2903Y2817D01*
X2903Y2994D01*
X2332Y2994D01*
G37*
G36*
X8977Y1429D02*
X8457Y1429D01*
X8457Y429D01*
X8977Y429D01*
X8977Y1429D01*
G37*
G36*
X10206Y1970D02*
X10206Y1793D01*
X10777Y1793D01*
X10777Y1970D01*
X10206Y1970D01*
G37*
G36*
X10206Y3249D02*
X10206Y3072D01*
X10777Y3072D01*
X10777Y3249D01*
X10206Y3249D01*
G37*
G36*
X12529Y2994D02*
X12529Y2817D01*
X13100Y2817D01*
X13100Y2994D01*
X12529Y2994D01*
G37*
G36*
X10206Y2738D02*
X10206Y2561D01*
X10777Y2561D01*
X10777Y2738D01*
X10206Y2738D01*
G37*
G36*
X10206Y2482D02*
X10206Y2305D01*
X10777Y2305D01*
X10777Y2482D01*
X10206Y2482D01*
G37*
G36*
X10206Y2226D02*
X10206Y2049D01*
X10777Y2049D01*
X10777Y2226D01*
X10206Y2226D01*
G37*
G36*
X12529Y2482D02*
X12529Y2305D01*
X13100Y2305D01*
X13100Y2482D01*
X12529Y2482D01*
G37*
G36*
X10206Y1714D02*
X10206Y1537D01*
X10777Y1537D01*
X10777Y1714D01*
X10206Y1714D01*
G37*
G36*
X12529Y2738D02*
X12529Y2561D01*
X13100Y2561D01*
X13100Y2738D01*
X12529Y2738D01*
G37*
G36*
X12529Y2226D02*
X12529Y2049D01*
X13100Y2049D01*
X13100Y2226D01*
X12529Y2226D01*
G37*
G36*
X12529Y1970D02*
X12529Y1793D01*
X13100Y1793D01*
X13100Y1970D01*
X12529Y1970D01*
G37*
G36*
X12529Y1714D02*
X12529Y1537D01*
X13100Y1537D01*
X13100Y1714D01*
X12529Y1714D01*
G37*
G36*
X12529Y3249D02*
X12529Y3072D01*
X13100Y3072D01*
X13100Y3249D01*
X12529Y3249D01*
G37*
G36*
X10206Y2994D02*
X10206Y2817D01*
X10777Y2817D01*
X10777Y2994D01*
X10206Y2994D01*
G37*
G36*
X16851Y1429D02*
X16331Y1429D01*
X16331Y429D01*
X16851Y429D01*
X16851Y1429D01*
G37*
G36*
X18080Y1970D02*
X18080Y1793D01*
X18651Y1793D01*
X18651Y1970D01*
X18080Y1970D01*
G37*
G36*
X18080Y3249D02*
X18080Y3072D01*
X18651Y3072D01*
X18651Y3249D01*
X18080Y3249D01*
G37*
G36*
X20403Y2994D02*
X20403Y2817D01*
X20974Y2817D01*
X20974Y2994D01*
X20403Y2994D01*
G37*
G36*
X18080Y2738D02*
X18080Y2561D01*
X18651Y2561D01*
X18651Y2738D01*
X18080Y2738D01*
G37*
G36*
X18080Y2482D02*
X18080Y2305D01*
X18651Y2305D01*
X18651Y2482D01*
X18080Y2482D01*
G37*
G36*
X18080Y2226D02*
X18080Y2049D01*
X18651Y2049D01*
X18651Y2226D01*
X18080Y2226D01*
G37*
G36*
X20403Y2482D02*
X20403Y2305D01*
X20974Y2305D01*
X20974Y2482D01*
X20403Y2482D01*
G37*
G36*
X18080Y1714D02*
X18080Y1537D01*
X18651Y1537D01*
X18651Y1714D01*
X18080Y1714D01*
G37*
G36*
X20403Y2738D02*
X20403Y2561D01*
X20974Y2561D01*
X20974Y2738D01*
X20403Y2738D01*
G37*
G36*
X20403Y2226D02*
X20403Y2049D01*
X20974Y2049D01*
X20974Y2226D01*
X20403Y2226D01*
G37*
G36*
X20403Y1970D02*
X20403Y1793D01*
X20974Y1793D01*
X20974Y1970D01*
X20403Y1970D01*
G37*
G36*
X20403Y1714D02*
X20403Y1537D01*
X20974Y1537D01*
X20974Y1714D01*
X20403Y1714D01*
G37*
G36*
X20403Y3249D02*
X20403Y3072D01*
X20974Y3072D01*
X20974Y3249D01*
X20403Y3249D01*
G37*
G36*
X18080Y2994D02*
X18080Y2817D01*
X18651Y2817D01*
X18651Y2994D01*
X18080Y2994D01*
G37*
G36*
X24725Y1429D02*
X24205Y1429D01*
X24205Y429D01*
X24725Y429D01*
X24725Y1429D01*
G37*
G36*
X25954Y1970D02*
X25954Y1793D01*
X26525Y1793D01*
X26525Y1970D01*
X25954Y1970D01*
G37*
G36*
X25954Y3249D02*
X25954Y3072D01*
X26525Y3072D01*
X26525Y3249D01*
X25954Y3249D01*
G37*
G36*
X28277Y2994D02*
X28277Y2817D01*
X28848Y2817D01*
X28848Y2994D01*
X28277Y2994D01*
G37*
G36*
X25954Y2738D02*
X25954Y2561D01*
X26525Y2561D01*
X26525Y2738D01*
X25954Y2738D01*
G37*
G36*
X25954Y2482D02*
X25954Y2305D01*
X26525Y2305D01*
X26525Y2482D01*
X25954Y2482D01*
G37*
G36*
X25954Y2226D02*
X25954Y2049D01*
X26525Y2049D01*
X26525Y2226D01*
X25954Y2226D01*
G37*
G36*
X28277Y2482D02*
X28277Y2305D01*
X28848Y2305D01*
X28848Y2482D01*
X28277Y2482D01*
G37*
G36*
X25954Y1714D02*
X25954Y1537D01*
X26525Y1537D01*
X26525Y1714D01*
X25954Y1714D01*
G37*
G36*
X28277Y2738D02*
X28277Y2561D01*
X28848Y2561D01*
X28848Y2738D01*
X28277Y2738D01*
G37*
G36*
X28277Y2226D02*
X28277Y2049D01*
X28848Y2049D01*
X28848Y2226D01*
X28277Y2226D01*
G37*
G36*
X28277Y1970D02*
X28277Y1793D01*
X28848Y1793D01*
X28848Y1970D01*
X28277Y1970D01*
G37*
G36*
X28277Y1714D02*
X28277Y1537D01*
X28848Y1537D01*
X28848Y1714D01*
X28277Y1714D01*
G37*
G36*
X28277Y3249D02*
X28277Y3072D01*
X28848Y3072D01*
X28848Y3249D01*
X28277Y3249D01*
G37*
G36*
X25954Y2994D02*
X25954Y2817D01*
X26525Y2817D01*
X26525Y2994D01*
X25954Y2994D01*
G37*
G36*
X32599Y1429D02*
X32079Y1429D01*
X32079Y429D01*
X32599Y429D01*
X32599Y1429D01*
G37*
G36*
X33828Y1970D02*
X33828Y1793D01*
X34399Y1793D01*
X34399Y1970D01*
X33828Y1970D01*
G37*
G36*
X33828Y3249D02*
X33828Y3072D01*
X34399Y3072D01*
X34399Y3249D01*
X33828Y3249D01*
G37*
G36*
X36151Y2994D02*
X36151Y2817D01*
X36722Y2817D01*
X36722Y2994D01*
X36151Y2994D01*
G37*
G36*
X33828Y2738D02*
X33828Y2561D01*
X34399Y2561D01*
X34399Y2738D01*
X33828Y2738D01*
G37*
G36*
X33828Y2482D02*
X33828Y2305D01*
X34399Y2305D01*
X34399Y2482D01*
X33828Y2482D01*
G37*
G36*
X33828Y2226D02*
X33828Y2049D01*
X34399Y2049D01*
X34399Y2226D01*
X33828Y2226D01*
G37*
G36*
X36151Y2482D02*
X36151Y2305D01*
X36722Y2305D01*
X36722Y2482D01*
X36151Y2482D01*
G37*
G36*
X33828Y1714D02*
X33828Y1537D01*
X34399Y1537D01*
X34399Y1714D01*
X33828Y1714D01*
G37*
G36*
X36151Y2738D02*
X36151Y2561D01*
X36722Y2561D01*
X36722Y2738D01*
X36151Y2738D01*
G37*
G36*
X36151Y2226D02*
X36151Y2049D01*
X36722Y2049D01*
X36722Y2226D01*
X36151Y2226D01*
G37*
G36*
X36151Y1970D02*
X36151Y1793D01*
X36722Y1793D01*
X36722Y1970D01*
X36151Y1970D01*
G37*
G36*
X36151Y1714D02*
X36151Y1537D01*
X36722Y1537D01*
X36722Y1714D01*
X36151Y1714D01*
G37*
G36*
X36151Y3249D02*
X36151Y3072D01*
X36722Y3072D01*
X36722Y3249D01*
X36151Y3249D01*
G37*
G36*
X33828Y2994D02*
X33828Y2817D01*
X34399Y2817D01*
X34399Y2994D01*
X33828Y2994D01*
G37*
G36*
X1103Y6232D02*
X583Y6232D01*
X583Y5232D01*
X1103Y5232D01*
X1103Y6232D01*
G37*
G36*
X2332Y6773D02*
X2332Y6596D01*
X2903Y6596D01*
X2903Y6773D01*
X2332Y6773D01*
G37*
G36*
X2332Y8053D02*
X2332Y7876D01*
X2903Y7876D01*
X2903Y8053D01*
X2332Y8053D01*
G37*
G36*
X4655Y7797D02*
X4655Y7620D01*
X5226Y7620D01*
X5226Y7797D01*
X4655Y7797D01*
G37*
G36*
X2332Y7541D02*
X2332Y7364D01*
X2903Y7364D01*
X2903Y7541D01*
X2332Y7541D01*
G37*
G36*
X2332Y7285D02*
X2332Y7108D01*
X2903Y7108D01*
X2903Y7285D01*
X2332Y7285D01*
G37*
G36*
X2332Y7029D02*
X2332Y6852D01*
X2903Y6852D01*
X2903Y7029D01*
X2332Y7029D01*
G37*
G36*
X4655Y7285D02*
X4655Y7108D01*
X5226Y7108D01*
X5226Y7285D01*
X4655Y7285D01*
G37*
G36*
X2332Y6517D02*
X2332Y6340D01*
X2903Y6340D01*
X2903Y6517D01*
X2332Y6517D01*
G37*
G36*
X4655Y7541D02*
X4655Y7364D01*
X5226Y7364D01*
X5226Y7541D01*
X4655Y7541D01*
G37*
G36*
X4655Y7029D02*
X4655Y6852D01*
X5226Y6852D01*
X5226Y7029D01*
X4655Y7029D01*
G37*
G36*
X4655Y6773D02*
X4655Y6596D01*
X5226Y6596D01*
X5226Y6773D01*
X4655Y6773D01*
G37*
G36*
X4655Y6517D02*
X4655Y6340D01*
X5226Y6340D01*
X5226Y6517D01*
X4655Y6517D01*
G37*
G36*
X4655Y8053D02*
X4655Y7876D01*
X5226Y7876D01*
X5226Y8053D01*
X4655Y8053D01*
G37*
G36*
X2332Y7797D02*
X2332Y7620D01*
X2903Y7620D01*
X2903Y7797D01*
X2332Y7797D01*
G37*
G36*
X8977Y6232D02*
X8457Y6232D01*
X8457Y5232D01*
X8977Y5232D01*
X8977Y6232D01*
G37*
G36*
X10206Y6773D02*
X10206Y6596D01*
X10777Y6596D01*
X10777Y6773D01*
X10206Y6773D01*
G37*
G36*
X10206Y8053D02*
X10206Y7876D01*
X10777Y7876D01*
X10777Y8053D01*
X10206Y8053D01*
G37*
G36*
X12529Y7797D02*
X12529Y7620D01*
X13100Y7620D01*
X13100Y7797D01*
X12529Y7797D01*
G37*
G36*
X10206Y7541D02*
X10206Y7364D01*
X10777Y7364D01*
X10777Y7541D01*
X10206Y7541D01*
G37*
G36*
X10206Y7285D02*
X10206Y7108D01*
X10777Y7108D01*
X10777Y7285D01*
X10206Y7285D01*
G37*
G36*
X10206Y7029D02*
X10206Y6852D01*
X10777Y6852D01*
X10777Y7029D01*
X10206Y7029D01*
G37*
G36*
X12529Y7285D02*
X12529Y7108D01*
X13100Y7108D01*
X13100Y7285D01*
X12529Y7285D01*
G37*
G36*
X10206Y6517D02*
X10206Y6340D01*
X10777Y6340D01*
X10777Y6517D01*
X10206Y6517D01*
G37*
G36*
X12529Y7541D02*
X12529Y7364D01*
X13100Y7364D01*
X13100Y7541D01*
X12529Y7541D01*
G37*
G36*
X12529Y7029D02*
X12529Y6852D01*
X13100Y6852D01*
X13100Y7029D01*
X12529Y7029D01*
G37*
G36*
X12529Y6773D02*
X12529Y6596D01*
X13100Y6596D01*
X13100Y6773D01*
X12529Y6773D01*
G37*
G36*
X12529Y6517D02*
X12529Y6340D01*
X13100Y6340D01*
X13100Y6517D01*
X12529Y6517D01*
G37*
G36*
X12529Y8053D02*
X12529Y7876D01*
X13100Y7876D01*
X13100Y8053D01*
X12529Y8053D01*
G37*
G36*
X10206Y7797D02*
X10206Y7620D01*
X10777Y7620D01*
X10777Y7797D01*
X10206Y7797D01*
G37*
G36*
X16851Y6232D02*
X16331Y6232D01*
X16331Y5232D01*
X16851Y5232D01*
X16851Y6232D01*
G37*
G36*
X18080Y6773D02*
X18080Y6596D01*
X18651Y6596D01*
X18651Y6773D01*
X18080Y6773D01*
G37*
G36*
X18080Y8053D02*
X18080Y7876D01*
X18651Y7876D01*
X18651Y8053D01*
X18080Y8053D01*
G37*
G36*
X20403Y7797D02*
X20403Y7620D01*
X20974Y7620D01*
X20974Y7797D01*
X20403Y7797D01*
G37*
G36*
X18080Y7541D02*
X18080Y7364D01*
X18651Y7364D01*
X18651Y7541D01*
X18080Y7541D01*
G37*
G36*
X18080Y7285D02*
X18080Y7108D01*
X18651Y7108D01*
X18651Y7285D01*
X18080Y7285D01*
G37*
G36*
X18080Y7029D02*
X18080Y6852D01*
X18651Y6852D01*
X18651Y7029D01*
X18080Y7029D01*
G37*
G36*
X20403Y7285D02*
X20403Y7108D01*
X20974Y7108D01*
X20974Y7285D01*
X20403Y7285D01*
G37*
G36*
X18080Y6517D02*
X18080Y6340D01*
X18651Y6340D01*
X18651Y6517D01*
X18080Y6517D01*
G37*
G36*
X20403Y7541D02*
X20403Y7364D01*
X20974Y7364D01*
X20974Y7541D01*
X20403Y7541D01*
G37*
G36*
X20403Y7029D02*
X20403Y6852D01*
X20974Y6852D01*
X20974Y7029D01*
X20403Y7029D01*
G37*
G36*
X20403Y6773D02*
X20403Y6596D01*
X20974Y6596D01*
X20974Y6773D01*
X20403Y6773D01*
G37*
G36*
X20403Y6517D02*
X20403Y6340D01*
X20974Y6340D01*
X20974Y6517D01*
X20403Y6517D01*
G37*
G36*
X20403Y8053D02*
X20403Y7876D01*
X20974Y7876D01*
X20974Y8053D01*
X20403Y8053D01*
G37*
G36*
X18080Y7797D02*
X18080Y7620D01*
X18651Y7620D01*
X18651Y7797D01*
X18080Y7797D01*
G37*
G36*
X24725Y6232D02*
X24205Y6232D01*
X24205Y5232D01*
X24725Y5232D01*
X24725Y6232D01*
G37*
G36*
X25954Y6773D02*
X25954Y6596D01*
X26525Y6596D01*
X26525Y6773D01*
X25954Y6773D01*
G37*
G36*
X25954Y8053D02*
X25954Y7876D01*
X26525Y7876D01*
X26525Y8053D01*
X25954Y8053D01*
G37*
G36*
X28277Y7797D02*
X28277Y7620D01*
X28848Y7620D01*
X28848Y7797D01*
X28277Y7797D01*
G37*
G36*
X25954Y7541D02*
X25954Y7364D01*
X26525Y7364D01*
X26525Y7541D01*
X25954Y7541D01*
G37*
G36*
X25954Y7285D02*
X25954Y7108D01*
X26525Y7108D01*
X26525Y7285D01*
X25954Y7285D01*
G37*
G36*
X25954Y7029D02*
X25954Y6852D01*
X26525Y6852D01*
X26525Y7029D01*
X25954Y7029D01*
G37*
G36*
X28277Y7285D02*
X28277Y7108D01*
X28848Y7108D01*
X28848Y7285D01*
X28277Y7285D01*
G37*
G36*
X25954Y6517D02*
X25954Y6340D01*
X26525Y6340D01*
X26525Y6517D01*
X25954Y6517D01*
G37*
G36*
X28277Y7541D02*
X28277Y7364D01*
X28848Y7364D01*
X28848Y7541D01*
X28277Y7541D01*
G37*
G36*
X28277Y7029D02*
X28277Y6852D01*
X28848Y6852D01*
X28848Y7029D01*
X28277Y7029D01*
G37*
G36*
X28277Y6773D02*
X28277Y6596D01*
X28848Y6596D01*
X28848Y6773D01*
X28277Y6773D01*
G37*
G36*
X28277Y6517D02*
X28277Y6340D01*
X28848Y6340D01*
X28848Y6517D01*
X28277Y6517D01*
G37*
G36*
X28277Y8053D02*
X28277Y7876D01*
X28848Y7876D01*
X28848Y8053D01*
X28277Y8053D01*
G37*
G36*
X25954Y7797D02*
X25954Y7620D01*
X26525Y7620D01*
X26525Y7797D01*
X25954Y7797D01*
G37*
G36*
X32599Y6232D02*
X32079Y6232D01*
X32079Y5232D01*
X32599Y5232D01*
X32599Y6232D01*
G37*
G36*
X33828Y6773D02*
X33828Y6596D01*
X34399Y6596D01*
X34399Y6773D01*
X33828Y6773D01*
G37*
G36*
X33828Y8053D02*
X33828Y7876D01*
X34399Y7876D01*
X34399Y8053D01*
X33828Y8053D01*
G37*
G36*
X36151Y7797D02*
X36151Y7620D01*
X36722Y7620D01*
X36722Y7797D01*
X36151Y7797D01*
G37*
G36*
X33828Y7541D02*
X33828Y7364D01*
X34399Y7364D01*
X34399Y7541D01*
X33828Y7541D01*
G37*
G36*
X33828Y7285D02*
X33828Y7108D01*
X34399Y7108D01*
X34399Y7285D01*
X33828Y7285D01*
G37*
G36*
X33828Y7029D02*
X33828Y6852D01*
X34399Y6852D01*
X34399Y7029D01*
X33828Y7029D01*
G37*
G36*
X36151Y7285D02*
X36151Y7108D01*
X36722Y7108D01*
X36722Y7285D01*
X36151Y7285D01*
G37*
G36*
X33828Y6517D02*
X33828Y6340D01*
X34399Y6340D01*
X34399Y6517D01*
X33828Y6517D01*
G37*
G36*
X36151Y7541D02*
X36151Y7364D01*
X36722Y7364D01*
X36722Y7541D01*
X36151Y7541D01*
G37*
G36*
X36151Y7029D02*
X36151Y6852D01*
X36722Y6852D01*
X36722Y7029D01*
X36151Y7029D01*
G37*
G36*
X36151Y6773D02*
X36151Y6596D01*
X36722Y6596D01*
X36722Y6773D01*
X36151Y6773D01*
G37*
G36*
X36151Y6517D02*
X36151Y6340D01*
X36722Y6340D01*
X36722Y6517D01*
X36151Y6517D01*
G37*
G36*
X36151Y8053D02*
X36151Y7876D01*
X36722Y7876D01*
X36722Y8053D01*
X36151Y8053D01*
G37*
G36*
X33828Y7797D02*
X33828Y7620D01*
X34399Y7620D01*
X34399Y7797D01*
X33828Y7797D01*
G37*
G36*
X1103Y11035D02*
X583Y11035D01*
X583Y10035D01*
X1103Y10035D01*
X1103Y11035D01*
G37*
G36*
X2332Y11576D02*
X2332Y11399D01*
X2903Y11399D01*
X2903Y11576D01*
X2332Y11576D01*
G37*
G36*
X2332Y12856D02*
X2332Y12679D01*
X2903Y12679D01*
X2903Y12856D01*
X2332Y12856D01*
G37*
G36*
X4655Y12600D02*
X4655Y12423D01*
X5226Y12423D01*
X5226Y12600D01*
X4655Y12600D01*
G37*
G36*
X2332Y12344D02*
X2332Y12167D01*
X2903Y12167D01*
X2903Y12344D01*
X2332Y12344D01*
G37*
G36*
X2332Y12088D02*
X2332Y11911D01*
X2903Y11911D01*
X2903Y12088D01*
X2332Y12088D01*
G37*
G36*
X2332Y11832D02*
X2332Y11655D01*
X2903Y11655D01*
X2903Y11832D01*
X2332Y11832D01*
G37*
G36*
X4655Y12088D02*
X4655Y11911D01*
X5226Y11911D01*
X5226Y12088D01*
X4655Y12088D01*
G37*
G36*
X2332Y11320D02*
X2332Y11143D01*
X2903Y11143D01*
X2903Y11320D01*
X2332Y11320D01*
G37*
G36*
X4655Y12344D02*
X4655Y12167D01*
X5226Y12167D01*
X5226Y12344D01*
X4655Y12344D01*
G37*
G36*
X4655Y11832D02*
X4655Y11655D01*
X5226Y11655D01*
X5226Y11832D01*
X4655Y11832D01*
G37*
G36*
X4655Y11576D02*
X4655Y11399D01*
X5226Y11399D01*
X5226Y11576D01*
X4655Y11576D01*
G37*
G36*
X4655Y11320D02*
X4655Y11143D01*
X5226Y11143D01*
X5226Y11320D01*
X4655Y11320D01*
G37*
G36*
X4655Y12856D02*
X4655Y12679D01*
X5226Y12679D01*
X5226Y12856D01*
X4655Y12856D01*
G37*
G36*
X2332Y12600D02*
X2332Y12423D01*
X2903Y12423D01*
X2903Y12600D01*
X2332Y12600D01*
G37*
G36*
X8977Y11035D02*
X8457Y11035D01*
X8457Y10035D01*
X8977Y10035D01*
X8977Y11035D01*
G37*
G36*
X10206Y11576D02*
X10206Y11399D01*
X10777Y11399D01*
X10777Y11576D01*
X10206Y11576D01*
G37*
G36*
X10206Y12856D02*
X10206Y12679D01*
X10777Y12679D01*
X10777Y12856D01*
X10206Y12856D01*
G37*
G36*
X12529Y12600D02*
X12529Y12423D01*
X13100Y12423D01*
X13100Y12600D01*
X12529Y12600D01*
G37*
G36*
X10206Y12344D02*
X10206Y12167D01*
X10777Y12167D01*
X10777Y12344D01*
X10206Y12344D01*
G37*
G36*
X10206Y12088D02*
X10206Y11911D01*
X10777Y11911D01*
X10777Y12088D01*
X10206Y12088D01*
G37*
G36*
X10206Y11832D02*
X10206Y11655D01*
X10777Y11655D01*
X10777Y11832D01*
X10206Y11832D01*
G37*
G36*
X12529Y12088D02*
X12529Y11911D01*
X13100Y11911D01*
X13100Y12088D01*
X12529Y12088D01*
G37*
G36*
X10206Y11320D02*
X10206Y11143D01*
X10777Y11143D01*
X10777Y11320D01*
X10206Y11320D01*
G37*
G36*
X12529Y12344D02*
X12529Y12167D01*
X13100Y12167D01*
X13100Y12344D01*
X12529Y12344D01*
G37*
G36*
X12529Y11832D02*
X12529Y11655D01*
X13100Y11655D01*
X13100Y11832D01*
X12529Y11832D01*
G37*
G36*
X12529Y11576D02*
X12529Y11399D01*
X13100Y11399D01*
X13100Y11576D01*
X12529Y11576D01*
G37*
G36*
X12529Y11320D02*
X12529Y11143D01*
X13100Y11143D01*
X13100Y11320D01*
X12529Y11320D01*
G37*
G36*
X12529Y12856D02*
X12529Y12679D01*
X13100Y12679D01*
X13100Y12856D01*
X12529Y12856D01*
G37*
G36*
X10206Y12600D02*
X10206Y12423D01*
X10777Y12423D01*
X10777Y12600D01*
X10206Y12600D01*
G37*
G36*
X16851Y11035D02*
X16331Y11035D01*
X16331Y10035D01*
X16851Y10035D01*
X16851Y11035D01*
G37*
G36*
X18080Y11576D02*
X18080Y11399D01*
X18651Y11399D01*
X18651Y11576D01*
X18080Y11576D01*
G37*
G36*
X18080Y12856D02*
X18080Y12679D01*
X18651Y12679D01*
X18651Y12856D01*
X18080Y12856D01*
G37*
G36*
X20403Y12600D02*
X20403Y12423D01*
X20974Y12423D01*
X20974Y12600D01*
X20403Y12600D01*
G37*
G36*
X18080Y12344D02*
X18080Y12167D01*
X18651Y12167D01*
X18651Y12344D01*
X18080Y12344D01*
G37*
G36*
X18080Y12088D02*
X18080Y11911D01*
X18651Y11911D01*
X18651Y12088D01*
X18080Y12088D01*
G37*
G36*
X18080Y11832D02*
X18080Y11655D01*
X18651Y11655D01*
X18651Y11832D01*
X18080Y11832D01*
G37*
G36*
X20403Y12088D02*
X20403Y11911D01*
X20974Y11911D01*
X20974Y12088D01*
X20403Y12088D01*
G37*
G36*
X18080Y11320D02*
X18080Y11143D01*
X18651Y11143D01*
X18651Y11320D01*
X18080Y11320D01*
G37*
G36*
X20403Y12344D02*
X20403Y12167D01*
X20974Y12167D01*
X20974Y12344D01*
X20403Y12344D01*
G37*
G36*
X20403Y11832D02*
X20403Y11655D01*
X20974Y11655D01*
X20974Y11832D01*
X20403Y11832D01*
G37*
G36*
X20403Y11576D02*
X20403Y11399D01*
X20974Y11399D01*
X20974Y11576D01*
X20403Y11576D01*
G37*
G36*
X20403Y11320D02*
X20403Y11143D01*
X20974Y11143D01*
X20974Y11320D01*
X20403Y11320D01*
G37*
G36*
X20403Y12856D02*
X20403Y12679D01*
X20974Y12679D01*
X20974Y12856D01*
X20403Y12856D01*
G37*
G36*
X18080Y12600D02*
X18080Y12423D01*
X18651Y12423D01*
X18651Y12600D01*
X18080Y12600D01*
G37*
G36*
X24725Y11035D02*
X24205Y11035D01*
X24205Y10035D01*
X24725Y10035D01*
X24725Y11035D01*
G37*
G36*
X25954Y11576D02*
X25954Y11399D01*
X26525Y11399D01*
X26525Y11576D01*
X25954Y11576D01*
G37*
G36*
X25954Y12856D02*
X25954Y12679D01*
X26525Y12679D01*
X26525Y12856D01*
X25954Y12856D01*
G37*
G36*
X28277Y12600D02*
X28277Y12423D01*
X28848Y12423D01*
X28848Y12600D01*
X28277Y12600D01*
G37*
G36*
X25954Y12344D02*
X25954Y12167D01*
X26525Y12167D01*
X26525Y12344D01*
X25954Y12344D01*
G37*
G36*
X25954Y12088D02*
X25954Y11911D01*
X26525Y11911D01*
X26525Y12088D01*
X25954Y12088D01*
G37*
G36*
X25954Y11832D02*
X25954Y11655D01*
X26525Y11655D01*
X26525Y11832D01*
X25954Y11832D01*
G37*
G36*
X28277Y12088D02*
X28277Y11911D01*
X28848Y11911D01*
X28848Y12088D01*
X28277Y12088D01*
G37*
G36*
X25954Y11320D02*
X25954Y11143D01*
X26525Y11143D01*
X26525Y11320D01*
X25954Y11320D01*
G37*
G36*
X28277Y12344D02*
X28277Y12167D01*
X28848Y12167D01*
X28848Y12344D01*
X28277Y12344D01*
G37*
G36*
X28277Y11832D02*
X28277Y11655D01*
X28848Y11655D01*
X28848Y11832D01*
X28277Y11832D01*
G37*
G36*
X28277Y11576D02*
X28277Y11399D01*
X28848Y11399D01*
X28848Y11576D01*
X28277Y11576D01*
G37*
G36*
X28277Y11320D02*
X28277Y11143D01*
X28848Y11143D01*
X28848Y11320D01*
X28277Y11320D01*
G37*
G36*
X28277Y12856D02*
X28277Y12679D01*
X28848Y12679D01*
X28848Y12856D01*
X28277Y12856D01*
G37*
G36*
X25954Y12600D02*
X25954Y12423D01*
X26525Y12423D01*
X26525Y12600D01*
X25954Y12600D01*
G37*
G36*
X32599Y11035D02*
X32079Y11035D01*
X32079Y10035D01*
X32599Y10035D01*
X32599Y11035D01*
G37*
G36*
X33828Y11576D02*
X33828Y11399D01*
X34399Y11399D01*
X34399Y11576D01*
X33828Y11576D01*
G37*
G36*
X33828Y12856D02*
X33828Y12679D01*
X34399Y12679D01*
X34399Y12856D01*
X33828Y12856D01*
G37*
G36*
X36151Y12600D02*
X36151Y12423D01*
X36722Y12423D01*
X36722Y12600D01*
X36151Y12600D01*
G37*
G36*
X33828Y12344D02*
X33828Y12167D01*
X34399Y12167D01*
X34399Y12344D01*
X33828Y12344D01*
G37*
G36*
X33828Y12088D02*
X33828Y11911D01*
X34399Y11911D01*
X34399Y12088D01*
X33828Y12088D01*
G37*
G36*
X33828Y11832D02*
X33828Y11655D01*
X34399Y11655D01*
X34399Y11832D01*
X33828Y11832D01*
G37*
G36*
X36151Y12088D02*
X36151Y11911D01*
X36722Y11911D01*
X36722Y12088D01*
X36151Y12088D01*
G37*
G36*
X33828Y11320D02*
X33828Y11143D01*
X34399Y11143D01*
X34399Y11320D01*
X33828Y11320D01*
G37*
G36*
X36151Y12344D02*
X36151Y12167D01*
X36722Y12167D01*
X36722Y12344D01*
X36151Y12344D01*
G37*
G36*
X36151Y11832D02*
X36151Y11655D01*
X36722Y11655D01*
X36722Y11832D01*
X36151Y11832D01*
G37*
G36*
X36151Y11576D02*
X36151Y11399D01*
X36722Y11399D01*
X36722Y11576D01*
X36151Y11576D01*
G37*
G36*
X36151Y11320D02*
X36151Y11143D01*
X36722Y11143D01*
X36722Y11320D01*
X36151Y11320D01*
G37*
G36*
X36151Y12856D02*
X36151Y12679D01*
X36722Y12679D01*
X36722Y12856D01*
X36151Y12856D01*
G37*
G36*
X33828Y12600D02*
X33828Y12423D01*
X34399Y12423D01*
X34399Y12600D01*
X33828Y12600D01*
G37*
G36*
X1103Y15839D02*
X583Y15839D01*
X583Y14839D01*
X1103Y14839D01*
X1103Y15839D01*
G37*
G36*
X2332Y16379D02*
X2332Y16202D01*
X2903Y16202D01*
X2903Y16379D01*
X2332Y16379D01*
G37*
G36*
X2332Y17659D02*
X2332Y17482D01*
X2903Y17482D01*
X2903Y17659D01*
X2332Y17659D01*
G37*
G36*
X4655Y17403D02*
X4655Y17226D01*
X5226Y17226D01*
X5226Y17403D01*
X4655Y17403D01*
G37*
G36*
X2332Y17147D02*
X2332Y16970D01*
X2903Y16970D01*
X2903Y17147D01*
X2332Y17147D01*
G37*
G36*
X2332Y16891D02*
X2332Y16714D01*
X2903Y16714D01*
X2903Y16891D01*
X2332Y16891D01*
G37*
G36*
X2332Y16635D02*
X2332Y16458D01*
X2903Y16458D01*
X2903Y16635D01*
X2332Y16635D01*
G37*
G36*
X4655Y16891D02*
X4655Y16714D01*
X5226Y16714D01*
X5226Y16891D01*
X4655Y16891D01*
G37*
G36*
X2332Y16123D02*
X2332Y15946D01*
X2903Y15946D01*
X2903Y16123D01*
X2332Y16123D01*
G37*
G36*
X4655Y17147D02*
X4655Y16970D01*
X5226Y16970D01*
X5226Y17147D01*
X4655Y17147D01*
G37*
G36*
X4655Y16635D02*
X4655Y16458D01*
X5226Y16458D01*
X5226Y16635D01*
X4655Y16635D01*
G37*
G36*
X4655Y16379D02*
X4655Y16202D01*
X5226Y16202D01*
X5226Y16379D01*
X4655Y16379D01*
G37*
G36*
X4655Y16123D02*
X4655Y15946D01*
X5226Y15946D01*
X5226Y16123D01*
X4655Y16123D01*
G37*
G36*
X4655Y17659D02*
X4655Y17482D01*
X5226Y17482D01*
X5226Y17659D01*
X4655Y17659D01*
G37*
G36*
X2332Y17403D02*
X2332Y17226D01*
X2903Y17226D01*
X2903Y17403D01*
X2332Y17403D01*
G37*
G36*
X8977Y15839D02*
X8457Y15839D01*
X8457Y14839D01*
X8977Y14839D01*
X8977Y15839D01*
G37*
G36*
X10206Y16379D02*
X10206Y16202D01*
X10777Y16202D01*
X10777Y16379D01*
X10206Y16379D01*
G37*
G36*
X10206Y17659D02*
X10206Y17482D01*
X10777Y17482D01*
X10777Y17659D01*
X10206Y17659D01*
G37*
G36*
X12529Y17403D02*
X12529Y17226D01*
X13100Y17226D01*
X13100Y17403D01*
X12529Y17403D01*
G37*
G36*
X10206Y17147D02*
X10206Y16970D01*
X10777Y16970D01*
X10777Y17147D01*
X10206Y17147D01*
G37*
G36*
X10206Y16891D02*
X10206Y16714D01*
X10777Y16714D01*
X10777Y16891D01*
X10206Y16891D01*
G37*
G36*
X10206Y16635D02*
X10206Y16458D01*
X10777Y16458D01*
X10777Y16635D01*
X10206Y16635D01*
G37*
G36*
X12529Y16891D02*
X12529Y16714D01*
X13100Y16714D01*
X13100Y16891D01*
X12529Y16891D01*
G37*
G36*
X10206Y16123D02*
X10206Y15946D01*
X10777Y15946D01*
X10777Y16123D01*
X10206Y16123D01*
G37*
G36*
X12529Y17147D02*
X12529Y16970D01*
X13100Y16970D01*
X13100Y17147D01*
X12529Y17147D01*
G37*
G36*
X12529Y16635D02*
X12529Y16458D01*
X13100Y16458D01*
X13100Y16635D01*
X12529Y16635D01*
G37*
G36*
X12529Y16379D02*
X12529Y16202D01*
X13100Y16202D01*
X13100Y16379D01*
X12529Y16379D01*
G37*
G36*
X12529Y16123D02*
X12529Y15946D01*
X13100Y15946D01*
X13100Y16123D01*
X12529Y16123D01*
G37*
G36*
X12529Y17659D02*
X12529Y17482D01*
X13100Y17482D01*
X13100Y17659D01*
X12529Y17659D01*
G37*
G36*
X10206Y17403D02*
X10206Y17226D01*
X10777Y17226D01*
X10777Y17403D01*
X10206Y17403D01*
G37*
G36*
X16851Y15839D02*
X16331Y15839D01*
X16331Y14839D01*
X16851Y14839D01*
X16851Y15839D01*
G37*
G36*
X18080Y16379D02*
X18080Y16202D01*
X18651Y16202D01*
X18651Y16379D01*
X18080Y16379D01*
G37*
G36*
X18080Y17659D02*
X18080Y17482D01*
X18651Y17482D01*
X18651Y17659D01*
X18080Y17659D01*
G37*
G36*
X20403Y17403D02*
X20403Y17226D01*
X20974Y17226D01*
X20974Y17403D01*
X20403Y17403D01*
G37*
G36*
X18080Y17147D02*
X18080Y16970D01*
X18651Y16970D01*
X18651Y17147D01*
X18080Y17147D01*
G37*
G36*
X18080Y16891D02*
X18080Y16714D01*
X18651Y16714D01*
X18651Y16891D01*
X18080Y16891D01*
G37*
G36*
X18080Y16635D02*
X18080Y16458D01*
X18651Y16458D01*
X18651Y16635D01*
X18080Y16635D01*
G37*
G36*
X20403Y16891D02*
X20403Y16714D01*
X20974Y16714D01*
X20974Y16891D01*
X20403Y16891D01*
G37*
G36*
X18080Y16123D02*
X18080Y15946D01*
X18651Y15946D01*
X18651Y16123D01*
X18080Y16123D01*
G37*
G36*
X20403Y17147D02*
X20403Y16970D01*
X20974Y16970D01*
X20974Y17147D01*
X20403Y17147D01*
G37*
G36*
X20403Y16635D02*
X20403Y16458D01*
X20974Y16458D01*
X20974Y16635D01*
X20403Y16635D01*
G37*
G36*
X20403Y16379D02*
X20403Y16202D01*
X20974Y16202D01*
X20974Y16379D01*
X20403Y16379D01*
G37*
G36*
X20403Y16123D02*
X20403Y15946D01*
X20974Y15946D01*
X20974Y16123D01*
X20403Y16123D01*
G37*
G36*
X20403Y17659D02*
X20403Y17482D01*
X20974Y17482D01*
X20974Y17659D01*
X20403Y17659D01*
G37*
G36*
X18080Y17403D02*
X18080Y17226D01*
X18651Y17226D01*
X18651Y17403D01*
X18080Y17403D01*
G37*
G36*
X24725Y15839D02*
X24205Y15839D01*
X24205Y14839D01*
X24725Y14839D01*
X24725Y15839D01*
G37*
G36*
X25954Y16379D02*
X25954Y16202D01*
X26525Y16202D01*
X26525Y16379D01*
X25954Y16379D01*
G37*
G36*
X25954Y17659D02*
X25954Y17482D01*
X26525Y17482D01*
X26525Y17659D01*
X25954Y17659D01*
G37*
G36*
X28277Y17403D02*
X28277Y17226D01*
X28848Y17226D01*
X28848Y17403D01*
X28277Y17403D01*
G37*
G36*
X25954Y17147D02*
X25954Y16970D01*
X26525Y16970D01*
X26525Y17147D01*
X25954Y17147D01*
G37*
G36*
X25954Y16891D02*
X25954Y16714D01*
X26525Y16714D01*
X26525Y16891D01*
X25954Y16891D01*
G37*
G36*
X25954Y16635D02*
X25954Y16458D01*
X26525Y16458D01*
X26525Y16635D01*
X25954Y16635D01*
G37*
G36*
X28277Y16891D02*
X28277Y16714D01*
X28848Y16714D01*
X28848Y16891D01*
X28277Y16891D01*
G37*
G36*
X25954Y16123D02*
X25954Y15946D01*
X26525Y15946D01*
X26525Y16123D01*
X25954Y16123D01*
G37*
G36*
X28277Y17147D02*
X28277Y16970D01*
X28848Y16970D01*
X28848Y17147D01*
X28277Y17147D01*
G37*
G36*
X28277Y16635D02*
X28277Y16458D01*
X28848Y16458D01*
X28848Y16635D01*
X28277Y16635D01*
G37*
G36*
X28277Y16379D02*
X28277Y16202D01*
X28848Y16202D01*
X28848Y16379D01*
X28277Y16379D01*
G37*
G36*
X28277Y16123D02*
X28277Y15946D01*
X28848Y15946D01*
X28848Y16123D01*
X28277Y16123D01*
G37*
G36*
X28277Y17659D02*
X28277Y17482D01*
X28848Y17482D01*
X28848Y17659D01*
X28277Y17659D01*
G37*
G36*
X25954Y17403D02*
X25954Y17226D01*
X26525Y17226D01*
X26525Y17403D01*
X25954Y17403D01*
G37*
G36*
X32599Y15839D02*
X32079Y15839D01*
X32079Y14839D01*
X32599Y14839D01*
X32599Y15839D01*
G37*
G36*
X33828Y16379D02*
X33828Y16202D01*
X34399Y16202D01*
X34399Y16379D01*
X33828Y16379D01*
G37*
G36*
X33828Y17659D02*
X33828Y17482D01*
X34399Y17482D01*
X34399Y17659D01*
X33828Y17659D01*
G37*
G36*
X36151Y17403D02*
X36151Y17226D01*
X36722Y17226D01*
X36722Y17403D01*
X36151Y17403D01*
G37*
G36*
X33828Y17147D02*
X33828Y16970D01*
X34399Y16970D01*
X34399Y17147D01*
X33828Y17147D01*
G37*
G36*
X33828Y16891D02*
X33828Y16714D01*
X34399Y16714D01*
X34399Y16891D01*
X33828Y16891D01*
G37*
G36*
X33828Y16635D02*
X33828Y16458D01*
X34399Y16458D01*
X34399Y16635D01*
X33828Y16635D01*
G37*
G36*
X36151Y16891D02*
X36151Y16714D01*
X36722Y16714D01*
X36722Y16891D01*
X36151Y16891D01*
G37*
G36*
X33828Y16123D02*
X33828Y15946D01*
X34399Y15946D01*
X34399Y16123D01*
X33828Y16123D01*
G37*
G36*
X36151Y17147D02*
X36151Y16970D01*
X36722Y16970D01*
X36722Y17147D01*
X36151Y17147D01*
G37*
G36*
X36151Y16635D02*
X36151Y16458D01*
X36722Y16458D01*
X36722Y16635D01*
X36151Y16635D01*
G37*
G36*
X36151Y16379D02*
X36151Y16202D01*
X36722Y16202D01*
X36722Y16379D01*
X36151Y16379D01*
G37*
G36*
X36151Y16123D02*
X36151Y15946D01*
X36722Y15946D01*
X36722Y16123D01*
X36151Y16123D01*
G37*
G36*
X36151Y17659D02*
X36151Y17482D01*
X36722Y17482D01*
X36722Y17659D01*
X36151Y17659D01*
G37*
G36*
X33828Y17403D02*
X33828Y17226D01*
X34399Y17226D01*
X34399Y17403D01*
X33828Y17403D01*
G37*
G36*
X1103Y20642D02*
X583Y20642D01*
X583Y19642D01*
X1103Y19642D01*
X1103Y20642D01*
G37*
G36*
X2332Y21182D02*
X2332Y21005D01*
X2903Y21005D01*
X2903Y21182D01*
X2332Y21182D01*
G37*
G36*
X2332Y22462D02*
X2332Y22285D01*
X2903Y22285D01*
X2903Y22462D01*
X2332Y22462D01*
G37*
G36*
X4655Y22206D02*
X4655Y22029D01*
X5226Y22029D01*
X5226Y22206D01*
X4655Y22206D01*
G37*
G36*
X2332Y21950D02*
X2332Y21773D01*
X2903Y21773D01*
X2903Y21950D01*
X2332Y21950D01*
G37*
G36*
X2332Y21694D02*
X2332Y21517D01*
X2903Y21517D01*
X2903Y21694D01*
X2332Y21694D01*
G37*
G36*
X2332Y21438D02*
X2332Y21261D01*
X2903Y21261D01*
X2903Y21438D01*
X2332Y21438D01*
G37*
G36*
X4655Y21694D02*
X4655Y21517D01*
X5226Y21517D01*
X5226Y21694D01*
X4655Y21694D01*
G37*
G36*
X2332Y20927D02*
X2332Y20750D01*
X2903Y20750D01*
X2903Y20927D01*
X2332Y20927D01*
G37*
G36*
X4655Y21950D02*
X4655Y21773D01*
X5226Y21773D01*
X5226Y21950D01*
X4655Y21950D01*
G37*
G36*
X4655Y21438D02*
X4655Y21261D01*
X5226Y21261D01*
X5226Y21438D01*
X4655Y21438D01*
G37*
G36*
X4655Y21182D02*
X4655Y21005D01*
X5226Y21005D01*
X5226Y21182D01*
X4655Y21182D01*
G37*
G36*
X4655Y20927D02*
X4655Y20750D01*
X5226Y20750D01*
X5226Y20927D01*
X4655Y20927D01*
G37*
G36*
X4655Y22462D02*
X4655Y22285D01*
X5226Y22285D01*
X5226Y22462D01*
X4655Y22462D01*
G37*
G36*
X2332Y22206D02*
X2332Y22029D01*
X2903Y22029D01*
X2903Y22206D01*
X2332Y22206D01*
G37*
G36*
X8977Y20642D02*
X8457Y20642D01*
X8457Y19642D01*
X8977Y19642D01*
X8977Y20642D01*
G37*
G36*
X10206Y21182D02*
X10206Y21005D01*
X10777Y21005D01*
X10777Y21182D01*
X10206Y21182D01*
G37*
G36*
X10206Y22462D02*
X10206Y22285D01*
X10777Y22285D01*
X10777Y22462D01*
X10206Y22462D01*
G37*
G36*
X12529Y22206D02*
X12529Y22029D01*
X13100Y22029D01*
X13100Y22206D01*
X12529Y22206D01*
G37*
G36*
X10206Y21950D02*
X10206Y21773D01*
X10777Y21773D01*
X10777Y21950D01*
X10206Y21950D01*
G37*
G36*
X10206Y21694D02*
X10206Y21517D01*
X10777Y21517D01*
X10777Y21694D01*
X10206Y21694D01*
G37*
G36*
X10206Y21438D02*
X10206Y21261D01*
X10777Y21261D01*
X10777Y21438D01*
X10206Y21438D01*
G37*
G36*
X12529Y21694D02*
X12529Y21517D01*
X13100Y21517D01*
X13100Y21694D01*
X12529Y21694D01*
G37*
G36*
X10206Y20927D02*
X10206Y20750D01*
X10777Y20750D01*
X10777Y20927D01*
X10206Y20927D01*
G37*
G36*
X12529Y21950D02*
X12529Y21773D01*
X13100Y21773D01*
X13100Y21950D01*
X12529Y21950D01*
G37*
G36*
X12529Y21438D02*
X12529Y21261D01*
X13100Y21261D01*
X13100Y21438D01*
X12529Y21438D01*
G37*
G36*
X12529Y21182D02*
X12529Y21005D01*
X13100Y21005D01*
X13100Y21182D01*
X12529Y21182D01*
G37*
G36*
X12529Y20927D02*
X12529Y20750D01*
X13100Y20750D01*
X13100Y20927D01*
X12529Y20927D01*
G37*
G36*
X12529Y22462D02*
X12529Y22285D01*
X13100Y22285D01*
X13100Y22462D01*
X12529Y22462D01*
G37*
G36*
X10206Y22206D02*
X10206Y22029D01*
X10777Y22029D01*
X10777Y22206D01*
X10206Y22206D01*
G37*
G36*
X16851Y20642D02*
X16331Y20642D01*
X16331Y19642D01*
X16851Y19642D01*
X16851Y20642D01*
G37*
G36*
X18080Y21182D02*
X18080Y21005D01*
X18651Y21005D01*
X18651Y21182D01*
X18080Y21182D01*
G37*
G36*
X18080Y22462D02*
X18080Y22285D01*
X18651Y22285D01*
X18651Y22462D01*
X18080Y22462D01*
G37*
G36*
X20403Y22206D02*
X20403Y22029D01*
X20974Y22029D01*
X20974Y22206D01*
X20403Y22206D01*
G37*
G36*
X18080Y21950D02*
X18080Y21773D01*
X18651Y21773D01*
X18651Y21950D01*
X18080Y21950D01*
G37*
G36*
X18080Y21694D02*
X18080Y21517D01*
X18651Y21517D01*
X18651Y21694D01*
X18080Y21694D01*
G37*
G36*
X18080Y21438D02*
X18080Y21261D01*
X18651Y21261D01*
X18651Y21438D01*
X18080Y21438D01*
G37*
G36*
X20403Y21694D02*
X20403Y21517D01*
X20974Y21517D01*
X20974Y21694D01*
X20403Y21694D01*
G37*
G36*
X18080Y20927D02*
X18080Y20750D01*
X18651Y20750D01*
X18651Y20927D01*
X18080Y20927D01*
G37*
G36*
X20403Y21950D02*
X20403Y21773D01*
X20974Y21773D01*
X20974Y21950D01*
X20403Y21950D01*
G37*
G36*
X20403Y21438D02*
X20403Y21261D01*
X20974Y21261D01*
X20974Y21438D01*
X20403Y21438D01*
G37*
G36*
X20403Y21182D02*
X20403Y21005D01*
X20974Y21005D01*
X20974Y21182D01*
X20403Y21182D01*
G37*
G36*
X20403Y20927D02*
X20403Y20750D01*
X20974Y20750D01*
X20974Y20927D01*
X20403Y20927D01*
G37*
G36*
X20403Y22462D02*
X20403Y22285D01*
X20974Y22285D01*
X20974Y22462D01*
X20403Y22462D01*
G37*
G36*
X18080Y22206D02*
X18080Y22029D01*
X18651Y22029D01*
X18651Y22206D01*
X18080Y22206D01*
G37*
G36*
X24725Y20642D02*
X24205Y20642D01*
X24205Y19642D01*
X24725Y19642D01*
X24725Y20642D01*
G37*
G36*
X25954Y21182D02*
X25954Y21005D01*
X26525Y21005D01*
X26525Y21182D01*
X25954Y21182D01*
G37*
G36*
X25954Y22462D02*
X25954Y22285D01*
X26525Y22285D01*
X26525Y22462D01*
X25954Y22462D01*
G37*
G36*
X28277Y22206D02*
X28277Y22029D01*
X28848Y22029D01*
X28848Y22206D01*
X28277Y22206D01*
G37*
G36*
X25954Y21950D02*
X25954Y21773D01*
X26525Y21773D01*
X26525Y21950D01*
X25954Y21950D01*
G37*
G36*
X25954Y21694D02*
X25954Y21517D01*
X26525Y21517D01*
X26525Y21694D01*
X25954Y21694D01*
G37*
G36*
X25954Y21438D02*
X25954Y21261D01*
X26525Y21261D01*
X26525Y21438D01*
X25954Y21438D01*
G37*
G36*
X28277Y21694D02*
X28277Y21517D01*
X28848Y21517D01*
X28848Y21694D01*
X28277Y21694D01*
G37*
G36*
X25954Y20927D02*
X25954Y20750D01*
X26525Y20750D01*
X26525Y20927D01*
X25954Y20927D01*
G37*
G36*
X28277Y21950D02*
X28277Y21773D01*
X28848Y21773D01*
X28848Y21950D01*
X28277Y21950D01*
G37*
G36*
X28277Y21438D02*
X28277Y21261D01*
X28848Y21261D01*
X28848Y21438D01*
X28277Y21438D01*
G37*
G36*
X28277Y21182D02*
X28277Y21005D01*
X28848Y21005D01*
X28848Y21182D01*
X28277Y21182D01*
G37*
G36*
X28277Y20927D02*
X28277Y20750D01*
X28848Y20750D01*
X28848Y20927D01*
X28277Y20927D01*
G37*
G36*
X28277Y22462D02*
X28277Y22285D01*
X28848Y22285D01*
X28848Y22462D01*
X28277Y22462D01*
G37*
G36*
X25954Y22206D02*
X25954Y22029D01*
X26525Y22029D01*
X26525Y22206D01*
X25954Y22206D01*
G37*
G36*
X32599Y20642D02*
X32079Y20642D01*
X32079Y19642D01*
X32599Y19642D01*
X32599Y20642D01*
G37*
G36*
X33828Y21182D02*
X33828Y21005D01*
X34399Y21005D01*
X34399Y21182D01*
X33828Y21182D01*
G37*
G36*
X33828Y22462D02*
X33828Y22285D01*
X34399Y22285D01*
X34399Y22462D01*
X33828Y22462D01*
G37*
G36*
X36151Y22206D02*
X36151Y22029D01*
X36722Y22029D01*
X36722Y22206D01*
X36151Y22206D01*
G37*
G36*
X33828Y21950D02*
X33828Y21773D01*
X34399Y21773D01*
X34399Y21950D01*
X33828Y21950D01*
G37*
G36*
X33828Y21694D02*
X33828Y21517D01*
X34399Y21517D01*
X34399Y21694D01*
X33828Y21694D01*
G37*
G36*
X33828Y21438D02*
X33828Y21261D01*
X34399Y21261D01*
X34399Y21438D01*
X33828Y21438D01*
G37*
G36*
X36151Y21694D02*
X36151Y21517D01*
X36722Y21517D01*
X36722Y21694D01*
X36151Y21694D01*
G37*
G36*
X33828Y20927D02*
X33828Y20750D01*
X34399Y20750D01*
X34399Y20927D01*
X33828Y20927D01*
G37*
G36*
X36151Y21950D02*
X36151Y21773D01*
X36722Y21773D01*
X36722Y21950D01*
X36151Y21950D01*
G37*
G36*
X36151Y21438D02*
X36151Y21261D01*
X36722Y21261D01*
X36722Y21438D01*
X36151Y21438D01*
G37*
G36*
X36151Y21182D02*
X36151Y21005D01*
X36722Y21005D01*
X36722Y21182D01*
X36151Y21182D01*
G37*
G36*
X36151Y20927D02*
X36151Y20750D01*
X36722Y20750D01*
X36722Y20927D01*
X36151Y20927D01*
G37*
G36*
X36151Y22462D02*
X36151Y22285D01*
X36722Y22285D01*
X36722Y22462D01*
X36151Y22462D01*
G37*
G36*
X33828Y22206D02*
X33828Y22029D01*
X34399Y22029D01*
X34399Y22206D01*
X33828Y22206D01*
G37*
G36*
X1103Y25445D02*
X583Y25445D01*
X583Y24445D01*
X1103Y24445D01*
X1103Y25445D01*
G37*
G36*
X2332Y25986D02*
X2332Y25809D01*
X2903Y25809D01*
X2903Y25986D01*
X2332Y25986D01*
G37*
G36*
X2332Y27265D02*
X2332Y27088D01*
X2903Y27088D01*
X2903Y27265D01*
X2332Y27265D01*
G37*
G36*
X4655Y27009D02*
X4655Y26832D01*
X5226Y26832D01*
X5226Y27009D01*
X4655Y27009D01*
G37*
G36*
X2332Y26753D02*
X2332Y26576D01*
X2903Y26576D01*
X2903Y26753D01*
X2332Y26753D01*
G37*
G36*
X2332Y26497D02*
X2332Y26320D01*
X2903Y26320D01*
X2903Y26497D01*
X2332Y26497D01*
G37*
G36*
X2332Y26242D02*
X2332Y26065D01*
X2903Y26065D01*
X2903Y26242D01*
X2332Y26242D01*
G37*
G36*
X4655Y26497D02*
X4655Y26320D01*
X5226Y26320D01*
X5226Y26497D01*
X4655Y26497D01*
G37*
G36*
X2332Y25730D02*
X2332Y25553D01*
X2903Y25553D01*
X2903Y25730D01*
X2332Y25730D01*
G37*
G36*
X4655Y26753D02*
X4655Y26576D01*
X5226Y26576D01*
X5226Y26753D01*
X4655Y26753D01*
G37*
G36*
X4655Y26242D02*
X4655Y26065D01*
X5226Y26065D01*
X5226Y26242D01*
X4655Y26242D01*
G37*
G36*
X4655Y25986D02*
X4655Y25809D01*
X5226Y25809D01*
X5226Y25986D01*
X4655Y25986D01*
G37*
G36*
X4655Y25730D02*
X4655Y25553D01*
X5226Y25553D01*
X5226Y25730D01*
X4655Y25730D01*
G37*
G36*
X4655Y27265D02*
X4655Y27088D01*
X5226Y27088D01*
X5226Y27265D01*
X4655Y27265D01*
G37*
G36*
X2332Y27009D02*
X2332Y26832D01*
X2903Y26832D01*
X2903Y27009D01*
X2332Y27009D01*
G37*
G36*
X8977Y25445D02*
X8457Y25445D01*
X8457Y24445D01*
X8977Y24445D01*
X8977Y25445D01*
G37*
G36*
X10206Y25986D02*
X10206Y25809D01*
X10777Y25809D01*
X10777Y25986D01*
X10206Y25986D01*
G37*
G36*
X10206Y27265D02*
X10206Y27088D01*
X10777Y27088D01*
X10777Y27265D01*
X10206Y27265D01*
G37*
G36*
X12529Y27009D02*
X12529Y26832D01*
X13100Y26832D01*
X13100Y27009D01*
X12529Y27009D01*
G37*
G36*
X10206Y26753D02*
X10206Y26576D01*
X10777Y26576D01*
X10777Y26753D01*
X10206Y26753D01*
G37*
G36*
X10206Y26497D02*
X10206Y26320D01*
X10777Y26320D01*
X10777Y26497D01*
X10206Y26497D01*
G37*
G36*
X10206Y26242D02*
X10206Y26065D01*
X10777Y26065D01*
X10777Y26242D01*
X10206Y26242D01*
G37*
G36*
X12529Y26497D02*
X12529Y26320D01*
X13100Y26320D01*
X13100Y26497D01*
X12529Y26497D01*
G37*
G36*
X10206Y25730D02*
X10206Y25553D01*
X10777Y25553D01*
X10777Y25730D01*
X10206Y25730D01*
G37*
G36*
X12529Y26753D02*
X12529Y26576D01*
X13100Y26576D01*
X13100Y26753D01*
X12529Y26753D01*
G37*
G36*
X12529Y26242D02*
X12529Y26065D01*
X13100Y26065D01*
X13100Y26242D01*
X12529Y26242D01*
G37*
G36*
X12529Y25986D02*
X12529Y25809D01*
X13100Y25809D01*
X13100Y25986D01*
X12529Y25986D01*
G37*
G36*
X12529Y25730D02*
X12529Y25553D01*
X13100Y25553D01*
X13100Y25730D01*
X12529Y25730D01*
G37*
G36*
X12529Y27265D02*
X12529Y27088D01*
X13100Y27088D01*
X13100Y27265D01*
X12529Y27265D01*
G37*
G36*
X10206Y27009D02*
X10206Y26832D01*
X10777Y26832D01*
X10777Y27009D01*
X10206Y27009D01*
G37*
G36*
X16851Y25445D02*
X16331Y25445D01*
X16331Y24445D01*
X16851Y24445D01*
X16851Y25445D01*
G37*
G36*
X18080Y25986D02*
X18080Y25809D01*
X18651Y25809D01*
X18651Y25986D01*
X18080Y25986D01*
G37*
G36*
X18080Y27265D02*
X18080Y27088D01*
X18651Y27088D01*
X18651Y27265D01*
X18080Y27265D01*
G37*
G36*
X20403Y27009D02*
X20403Y26832D01*
X20974Y26832D01*
X20974Y27009D01*
X20403Y27009D01*
G37*
G36*
X18080Y26753D02*
X18080Y26576D01*
X18651Y26576D01*
X18651Y26753D01*
X18080Y26753D01*
G37*
G36*
X18080Y26497D02*
X18080Y26320D01*
X18651Y26320D01*
X18651Y26497D01*
X18080Y26497D01*
G37*
G36*
X18080Y26242D02*
X18080Y26065D01*
X18651Y26065D01*
X18651Y26242D01*
X18080Y26242D01*
G37*
G36*
X20403Y26497D02*
X20403Y26320D01*
X20974Y26320D01*
X20974Y26497D01*
X20403Y26497D01*
G37*
G36*
X18080Y25730D02*
X18080Y25553D01*
X18651Y25553D01*
X18651Y25730D01*
X18080Y25730D01*
G37*
G36*
X20403Y26753D02*
X20403Y26576D01*
X20974Y26576D01*
X20974Y26753D01*
X20403Y26753D01*
G37*
G36*
X20403Y26242D02*
X20403Y26065D01*
X20974Y26065D01*
X20974Y26242D01*
X20403Y26242D01*
G37*
G36*
X20403Y25986D02*
X20403Y25809D01*
X20974Y25809D01*
X20974Y25986D01*
X20403Y25986D01*
G37*
G36*
X20403Y25730D02*
X20403Y25553D01*
X20974Y25553D01*
X20974Y25730D01*
X20403Y25730D01*
G37*
G36*
X20403Y27265D02*
X20403Y27088D01*
X20974Y27088D01*
X20974Y27265D01*
X20403Y27265D01*
G37*
G36*
X18080Y27009D02*
X18080Y26832D01*
X18651Y26832D01*
X18651Y27009D01*
X18080Y27009D01*
G37*
G36*
X24725Y25445D02*
X24205Y25445D01*
X24205Y24445D01*
X24725Y24445D01*
X24725Y25445D01*
G37*
G36*
X25954Y25986D02*
X25954Y25809D01*
X26525Y25809D01*
X26525Y25986D01*
X25954Y25986D01*
G37*
G36*
X25954Y27265D02*
X25954Y27088D01*
X26525Y27088D01*
X26525Y27265D01*
X25954Y27265D01*
G37*
G36*
X28277Y27009D02*
X28277Y26832D01*
X28848Y26832D01*
X28848Y27009D01*
X28277Y27009D01*
G37*
G36*
X25954Y26753D02*
X25954Y26576D01*
X26525Y26576D01*
X26525Y26753D01*
X25954Y26753D01*
G37*
G36*
X25954Y26497D02*
X25954Y26320D01*
X26525Y26320D01*
X26525Y26497D01*
X25954Y26497D01*
G37*
G36*
X25954Y26242D02*
X25954Y26065D01*
X26525Y26065D01*
X26525Y26242D01*
X25954Y26242D01*
G37*
G36*
X28277Y26497D02*
X28277Y26320D01*
X28848Y26320D01*
X28848Y26497D01*
X28277Y26497D01*
G37*
G36*
X25954Y25730D02*
X25954Y25553D01*
X26525Y25553D01*
X26525Y25730D01*
X25954Y25730D01*
G37*
G36*
X28277Y26753D02*
X28277Y26576D01*
X28848Y26576D01*
X28848Y26753D01*
X28277Y26753D01*
G37*
G36*
X28277Y26242D02*
X28277Y26065D01*
X28848Y26065D01*
X28848Y26242D01*
X28277Y26242D01*
G37*
G36*
X28277Y25986D02*
X28277Y25809D01*
X28848Y25809D01*
X28848Y25986D01*
X28277Y25986D01*
G37*
G36*
X28277Y25730D02*
X28277Y25553D01*
X28848Y25553D01*
X28848Y25730D01*
X28277Y25730D01*
G37*
G36*
X28277Y27265D02*
X28277Y27088D01*
X28848Y27088D01*
X28848Y27265D01*
X28277Y27265D01*
G37*
G36*
X25954Y27009D02*
X25954Y26832D01*
X26525Y26832D01*
X26525Y27009D01*
X25954Y27009D01*
G37*
G36*
X32599Y25445D02*
X32079Y25445D01*
X32079Y24445D01*
X32599Y24445D01*
X32599Y25445D01*
G37*
G36*
X33828Y25986D02*
X33828Y25809D01*
X34399Y25809D01*
X34399Y25986D01*
X33828Y25986D01*
G37*
G36*
X33828Y27265D02*
X33828Y27088D01*
X34399Y27088D01*
X34399Y27265D01*
X33828Y27265D01*
G37*
G36*
X36151Y27009D02*
X36151Y26832D01*
X36722Y26832D01*
X36722Y27009D01*
X36151Y27009D01*
G37*
G36*
X33828Y26753D02*
X33828Y26576D01*
X34399Y26576D01*
X34399Y26753D01*
X33828Y26753D01*
G37*
G36*
X33828Y26497D02*
X33828Y26320D01*
X34399Y26320D01*
X34399Y26497D01*
X33828Y26497D01*
G37*
G36*
X33828Y26242D02*
X33828Y26065D01*
X34399Y26065D01*
X34399Y26242D01*
X33828Y26242D01*
G37*
G36*
X36151Y26497D02*
X36151Y26320D01*
X36722Y26320D01*
X36722Y26497D01*
X36151Y26497D01*
G37*
G36*
X33828Y25730D02*
X33828Y25553D01*
X34399Y25553D01*
X34399Y25730D01*
X33828Y25730D01*
G37*
G36*
X36151Y26753D02*
X36151Y26576D01*
X36722Y26576D01*
X36722Y26753D01*
X36151Y26753D01*
G37*
G36*
X36151Y26242D02*
X36151Y26065D01*
X36722Y26065D01*
X36722Y26242D01*
X36151Y26242D01*
G37*
G36*
X36151Y25986D02*
X36151Y25809D01*
X36722Y25809D01*
X36722Y25986D01*
X36151Y25986D01*
G37*
G36*
X36151Y25730D02*
X36151Y25553D01*
X36722Y25553D01*
X36722Y25730D01*
X36151Y25730D01*
G37*
G36*
X36151Y27265D02*
X36151Y27088D01*
X36722Y27088D01*
X36722Y27265D01*
X36151Y27265D01*
G37*
G36*
X33828Y27009D02*
X33828Y26832D01*
X34399Y26832D01*
X34399Y27009D01*
X33828Y27009D01*
G37*
G36*
X1103Y30248D02*
X583Y30248D01*
X583Y29248D01*
X1103Y29248D01*
X1103Y30248D01*
G37*
G36*
X2332Y30789D02*
X2332Y30612D01*
X2903Y30612D01*
X2903Y30789D01*
X2332Y30789D01*
G37*
G36*
X2332Y32068D02*
X2332Y31891D01*
X2903Y31891D01*
X2903Y32068D01*
X2332Y32068D01*
G37*
G36*
X4655Y31812D02*
X4655Y31635D01*
X5226Y31635D01*
X5226Y31812D01*
X4655Y31812D01*
G37*
G36*
X2332Y31557D02*
X2332Y31380D01*
X2903Y31380D01*
X2903Y31557D01*
X2332Y31557D01*
G37*
G36*
X2332Y31301D02*
X2332Y31124D01*
X2903Y31124D01*
X2903Y31301D01*
X2332Y31301D01*
G37*
G36*
X2332Y31045D02*
X2332Y30868D01*
X2903Y30868D01*
X2903Y31045D01*
X2332Y31045D01*
G37*
G36*
X4655Y31301D02*
X4655Y31124D01*
X5226Y31124D01*
X5226Y31301D01*
X4655Y31301D01*
G37*
G36*
X2332Y30533D02*
X2332Y30356D01*
X2903Y30356D01*
X2903Y30533D01*
X2332Y30533D01*
G37*
G36*
X4655Y31557D02*
X4655Y31380D01*
X5226Y31380D01*
X5226Y31557D01*
X4655Y31557D01*
G37*
G36*
X4655Y31045D02*
X4655Y30868D01*
X5226Y30868D01*
X5226Y31045D01*
X4655Y31045D01*
G37*
G36*
X4655Y30789D02*
X4655Y30612D01*
X5226Y30612D01*
X5226Y30789D01*
X4655Y30789D01*
G37*
G36*
X4655Y30533D02*
X4655Y30356D01*
X5226Y30356D01*
X5226Y30533D01*
X4655Y30533D01*
G37*
G36*
X4655Y32068D02*
X4655Y31891D01*
X5226Y31891D01*
X5226Y32068D01*
X4655Y32068D01*
G37*
G36*
X2332Y31812D02*
X2332Y31635D01*
X2903Y31635D01*
X2903Y31812D01*
X2332Y31812D01*
G37*
G36*
X8977Y30248D02*
X8457Y30248D01*
X8457Y29248D01*
X8977Y29248D01*
X8977Y30248D01*
G37*
G36*
X10206Y30789D02*
X10206Y30612D01*
X10777Y30612D01*
X10777Y30789D01*
X10206Y30789D01*
G37*
G36*
X10206Y32068D02*
X10206Y31891D01*
X10777Y31891D01*
X10777Y32068D01*
X10206Y32068D01*
G37*
G36*
X12529Y31812D02*
X12529Y31635D01*
X13100Y31635D01*
X13100Y31812D01*
X12529Y31812D01*
G37*
G36*
X10206Y31557D02*
X10206Y31380D01*
X10777Y31380D01*
X10777Y31557D01*
X10206Y31557D01*
G37*
G36*
X10206Y31301D02*
X10206Y31124D01*
X10777Y31124D01*
X10777Y31301D01*
X10206Y31301D01*
G37*
G36*
X10206Y31045D02*
X10206Y30868D01*
X10777Y30868D01*
X10777Y31045D01*
X10206Y31045D01*
G37*
G36*
X12529Y31301D02*
X12529Y31124D01*
X13100Y31124D01*
X13100Y31301D01*
X12529Y31301D01*
G37*
G36*
X10206Y30533D02*
X10206Y30356D01*
X10777Y30356D01*
X10777Y30533D01*
X10206Y30533D01*
G37*
G36*
X12529Y31557D02*
X12529Y31380D01*
X13100Y31380D01*
X13100Y31557D01*
X12529Y31557D01*
G37*
G36*
X12529Y31045D02*
X12529Y30868D01*
X13100Y30868D01*
X13100Y31045D01*
X12529Y31045D01*
G37*
G36*
X12529Y30789D02*
X12529Y30612D01*
X13100Y30612D01*
X13100Y30789D01*
X12529Y30789D01*
G37*
G36*
X12529Y30533D02*
X12529Y30356D01*
X13100Y30356D01*
X13100Y30533D01*
X12529Y30533D01*
G37*
G36*
X12529Y32068D02*
X12529Y31891D01*
X13100Y31891D01*
X13100Y32068D01*
X12529Y32068D01*
G37*
G36*
X10206Y31812D02*
X10206Y31635D01*
X10777Y31635D01*
X10777Y31812D01*
X10206Y31812D01*
G37*
G36*
X16851Y30248D02*
X16331Y30248D01*
X16331Y29248D01*
X16851Y29248D01*
X16851Y30248D01*
G37*
G36*
X18080Y30789D02*
X18080Y30612D01*
X18651Y30612D01*
X18651Y30789D01*
X18080Y30789D01*
G37*
G36*
X18080Y32068D02*
X18080Y31891D01*
X18651Y31891D01*
X18651Y32068D01*
X18080Y32068D01*
G37*
G36*
X20403Y31812D02*
X20403Y31635D01*
X20974Y31635D01*
X20974Y31812D01*
X20403Y31812D01*
G37*
G36*
X18080Y31557D02*
X18080Y31380D01*
X18651Y31380D01*
X18651Y31557D01*
X18080Y31557D01*
G37*
G36*
X18080Y31301D02*
X18080Y31124D01*
X18651Y31124D01*
X18651Y31301D01*
X18080Y31301D01*
G37*
G36*
X18080Y31045D02*
X18080Y30868D01*
X18651Y30868D01*
X18651Y31045D01*
X18080Y31045D01*
G37*
G36*
X20403Y31301D02*
X20403Y31124D01*
X20974Y31124D01*
X20974Y31301D01*
X20403Y31301D01*
G37*
G36*
X18080Y30533D02*
X18080Y30356D01*
X18651Y30356D01*
X18651Y30533D01*
X18080Y30533D01*
G37*
G36*
X20403Y31557D02*
X20403Y31380D01*
X20974Y31380D01*
X20974Y31557D01*
X20403Y31557D01*
G37*
G36*
X20403Y31045D02*
X20403Y30868D01*
X20974Y30868D01*
X20974Y31045D01*
X20403Y31045D01*
G37*
G36*
X20403Y30789D02*
X20403Y30612D01*
X20974Y30612D01*
X20974Y30789D01*
X20403Y30789D01*
G37*
G36*
X20403Y30533D02*
X20403Y30356D01*
X20974Y30356D01*
X20974Y30533D01*
X20403Y30533D01*
G37*
G36*
X20403Y32068D02*
X20403Y31891D01*
X20974Y31891D01*
X20974Y32068D01*
X20403Y32068D01*
G37*
G36*
X18080Y31812D02*
X18080Y31635D01*
X18651Y31635D01*
X18651Y31812D01*
X18080Y31812D01*
G37*
G36*
X24725Y30248D02*
X24205Y30248D01*
X24205Y29248D01*
X24725Y29248D01*
X24725Y30248D01*
G37*
G36*
X25954Y30789D02*
X25954Y30612D01*
X26525Y30612D01*
X26525Y30789D01*
X25954Y30789D01*
G37*
G36*
X25954Y32068D02*
X25954Y31891D01*
X26525Y31891D01*
X26525Y32068D01*
X25954Y32068D01*
G37*
G36*
X28277Y31812D02*
X28277Y31635D01*
X28848Y31635D01*
X28848Y31812D01*
X28277Y31812D01*
G37*
G36*
X25954Y31557D02*
X25954Y31380D01*
X26525Y31380D01*
X26525Y31557D01*
X25954Y31557D01*
G37*
G36*
X25954Y31301D02*
X25954Y31124D01*
X26525Y31124D01*
X26525Y31301D01*
X25954Y31301D01*
G37*
G36*
X25954Y31045D02*
X25954Y30868D01*
X26525Y30868D01*
X26525Y31045D01*
X25954Y31045D01*
G37*
G36*
X28277Y31301D02*
X28277Y31124D01*
X28848Y31124D01*
X28848Y31301D01*
X28277Y31301D01*
G37*
G36*
X25954Y30533D02*
X25954Y30356D01*
X26525Y30356D01*
X26525Y30533D01*
X25954Y30533D01*
G37*
G36*
X28277Y31557D02*
X28277Y31380D01*
X28848Y31380D01*
X28848Y31557D01*
X28277Y31557D01*
G37*
G36*
X28277Y31045D02*
X28277Y30868D01*
X28848Y30868D01*
X28848Y31045D01*
X28277Y31045D01*
G37*
G36*
X28277Y30789D02*
X28277Y30612D01*
X28848Y30612D01*
X28848Y30789D01*
X28277Y30789D01*
G37*
G36*
X28277Y30533D02*
X28277Y30356D01*
X28848Y30356D01*
X28848Y30533D01*
X28277Y30533D01*
G37*
G36*
X28277Y32068D02*
X28277Y31891D01*
X28848Y31891D01*
X28848Y32068D01*
X28277Y32068D01*
G37*
G36*
X25954Y31812D02*
X25954Y31635D01*
X26525Y31635D01*
X26525Y31812D01*
X25954Y31812D01*
G37*
G36*
X32599Y30248D02*
X32079Y30248D01*
X32079Y29248D01*
X32599Y29248D01*
X32599Y30248D01*
G37*
G36*
X33828Y30789D02*
X33828Y30612D01*
X34399Y30612D01*
X34399Y30789D01*
X33828Y30789D01*
G37*
G36*
X33828Y32068D02*
X33828Y31891D01*
X34399Y31891D01*
X34399Y32068D01*
X33828Y32068D01*
G37*
G36*
X36151Y31812D02*
X36151Y31635D01*
X36722Y31635D01*
X36722Y31812D01*
X36151Y31812D01*
G37*
G36*
X33828Y31557D02*
X33828Y31380D01*
X34399Y31380D01*
X34399Y31557D01*
X33828Y31557D01*
G37*
G36*
X33828Y31301D02*
X33828Y31124D01*
X34399Y31124D01*
X34399Y31301D01*
X33828Y31301D01*
G37*
G36*
X33828Y31045D02*
X33828Y30868D01*
X34399Y30868D01*
X34399Y31045D01*
X33828Y31045D01*
G37*
G36*
X36151Y31301D02*
X36151Y31124D01*
X36722Y31124D01*
X36722Y31301D01*
X36151Y31301D01*
G37*
G36*
X33828Y30533D02*
X33828Y30356D01*
X34399Y30356D01*
X34399Y30533D01*
X33828Y30533D01*
G37*
G36*
X36151Y31557D02*
X36151Y31380D01*
X36722Y31380D01*
X36722Y31557D01*
X36151Y31557D01*
G37*
G36*
X36151Y31045D02*
X36151Y30868D01*
X36722Y30868D01*
X36722Y31045D01*
X36151Y31045D01*
G37*
G36*
X36151Y30789D02*
X36151Y30612D01*
X36722Y30612D01*
X36722Y30789D01*
X36151Y30789D01*
G37*
G36*
X36151Y30533D02*
X36151Y30356D01*
X36722Y30356D01*
X36722Y30533D01*
X36151Y30533D01*
G37*
G36*
X36151Y32068D02*
X36151Y31891D01*
X36722Y31891D01*
X36722Y32068D01*
X36151Y32068D01*
G37*
G36*
X33828Y31812D02*
X33828Y31635D01*
X34399Y31635D01*
X34399Y31812D01*
X33828Y31812D01*
G37*
G36*
X1103Y35051D02*
X583Y35051D01*
X583Y34051D01*
X1103Y34051D01*
X1103Y35051D01*
G37*
G36*
X2332Y35592D02*
X2332Y35415D01*
X2903Y35415D01*
X2903Y35592D01*
X2332Y35592D01*
G37*
G36*
X2332Y36871D02*
X2332Y36694D01*
X2903Y36694D01*
X2903Y36871D01*
X2332Y36871D01*
G37*
G36*
X4655Y36616D02*
X4655Y36439D01*
X5226Y36439D01*
X5226Y36616D01*
X4655Y36616D01*
G37*
G36*
X2332Y36360D02*
X2332Y36183D01*
X2903Y36183D01*
X2903Y36360D01*
X2332Y36360D01*
G37*
G36*
X2332Y36104D02*
X2332Y35927D01*
X2903Y35927D01*
X2903Y36104D01*
X2332Y36104D01*
G37*
G36*
X2332Y35848D02*
X2332Y35671D01*
X2903Y35671D01*
X2903Y35848D01*
X2332Y35848D01*
G37*
G36*
X4655Y36104D02*
X4655Y35927D01*
X5226Y35927D01*
X5226Y36104D01*
X4655Y36104D01*
G37*
G36*
X2332Y35336D02*
X2332Y35159D01*
X2903Y35159D01*
X2903Y35336D01*
X2332Y35336D01*
G37*
G36*
X4655Y36360D02*
X4655Y36183D01*
X5226Y36183D01*
X5226Y36360D01*
X4655Y36360D01*
G37*
G36*
X4655Y35848D02*
X4655Y35671D01*
X5226Y35671D01*
X5226Y35848D01*
X4655Y35848D01*
G37*
G36*
X4655Y35592D02*
X4655Y35415D01*
X5226Y35415D01*
X5226Y35592D01*
X4655Y35592D01*
G37*
G36*
X4655Y35336D02*
X4655Y35159D01*
X5226Y35159D01*
X5226Y35336D01*
X4655Y35336D01*
G37*
G36*
X4655Y36871D02*
X4655Y36694D01*
X5226Y36694D01*
X5226Y36871D01*
X4655Y36871D01*
G37*
G36*
X2332Y36616D02*
X2332Y36439D01*
X2903Y36439D01*
X2903Y36616D01*
X2332Y36616D01*
G37*
G36*
X8977Y35051D02*
X8457Y35051D01*
X8457Y34051D01*
X8977Y34051D01*
X8977Y35051D01*
G37*
G36*
X10206Y35592D02*
X10206Y35415D01*
X10777Y35415D01*
X10777Y35592D01*
X10206Y35592D01*
G37*
G36*
X10206Y36871D02*
X10206Y36694D01*
X10777Y36694D01*
X10777Y36871D01*
X10206Y36871D01*
G37*
G36*
X12529Y36616D02*
X12529Y36439D01*
X13100Y36439D01*
X13100Y36616D01*
X12529Y36616D01*
G37*
G36*
X10206Y36360D02*
X10206Y36183D01*
X10777Y36183D01*
X10777Y36360D01*
X10206Y36360D01*
G37*
G36*
X10206Y36104D02*
X10206Y35927D01*
X10777Y35927D01*
X10777Y36104D01*
X10206Y36104D01*
G37*
G36*
X10206Y35848D02*
X10206Y35671D01*
X10777Y35671D01*
X10777Y35848D01*
X10206Y35848D01*
G37*
G36*
X12529Y36104D02*
X12529Y35927D01*
X13100Y35927D01*
X13100Y36104D01*
X12529Y36104D01*
G37*
G36*
X10206Y35336D02*
X10206Y35159D01*
X10777Y35159D01*
X10777Y35336D01*
X10206Y35336D01*
G37*
G36*
X12529Y36360D02*
X12529Y36183D01*
X13100Y36183D01*
X13100Y36360D01*
X12529Y36360D01*
G37*
G36*
X12529Y35848D02*
X12529Y35671D01*
X13100Y35671D01*
X13100Y35848D01*
X12529Y35848D01*
G37*
G36*
X12529Y35592D02*
X12529Y35415D01*
X13100Y35415D01*
X13100Y35592D01*
X12529Y35592D01*
G37*
G36*
X12529Y35336D02*
X12529Y35159D01*
X13100Y35159D01*
X13100Y35336D01*
X12529Y35336D01*
G37*
G36*
X12529Y36871D02*
X12529Y36694D01*
X13100Y36694D01*
X13100Y36871D01*
X12529Y36871D01*
G37*
G36*
X10206Y36616D02*
X10206Y36439D01*
X10777Y36439D01*
X10777Y36616D01*
X10206Y36616D01*
G37*
G36*
X16851Y35051D02*
X16331Y35051D01*
X16331Y34051D01*
X16851Y34051D01*
X16851Y35051D01*
G37*
G36*
X18080Y35592D02*
X18080Y35415D01*
X18651Y35415D01*
X18651Y35592D01*
X18080Y35592D01*
G37*
G36*
X18080Y36871D02*
X18080Y36694D01*
X18651Y36694D01*
X18651Y36871D01*
X18080Y36871D01*
G37*
G36*
X20403Y36616D02*
X20403Y36439D01*
X20974Y36439D01*
X20974Y36616D01*
X20403Y36616D01*
G37*
G36*
X18080Y36360D02*
X18080Y36183D01*
X18651Y36183D01*
X18651Y36360D01*
X18080Y36360D01*
G37*
G36*
X18080Y36104D02*
X18080Y35927D01*
X18651Y35927D01*
X18651Y36104D01*
X18080Y36104D01*
G37*
G36*
X18080Y35848D02*
X18080Y35671D01*
X18651Y35671D01*
X18651Y35848D01*
X18080Y35848D01*
G37*
G36*
X20403Y36104D02*
X20403Y35927D01*
X20974Y35927D01*
X20974Y36104D01*
X20403Y36104D01*
G37*
G36*
X18080Y35336D02*
X18080Y35159D01*
X18651Y35159D01*
X18651Y35336D01*
X18080Y35336D01*
G37*
G36*
X20403Y36360D02*
X20403Y36183D01*
X20974Y36183D01*
X20974Y36360D01*
X20403Y36360D01*
G37*
G36*
X20403Y35848D02*
X20403Y35671D01*
X20974Y35671D01*
X20974Y35848D01*
X20403Y35848D01*
G37*
G36*
X20403Y35592D02*
X20403Y35415D01*
X20974Y35415D01*
X20974Y35592D01*
X20403Y35592D01*
G37*
G36*
X20403Y35336D02*
X20403Y35159D01*
X20974Y35159D01*
X20974Y35336D01*
X20403Y35336D01*
G37*
G36*
X20403Y36871D02*
X20403Y36694D01*
X20974Y36694D01*
X20974Y36871D01*
X20403Y36871D01*
G37*
G36*
X18080Y36616D02*
X18080Y36439D01*
X18651Y36439D01*
X18651Y36616D01*
X18080Y36616D01*
G37*
G36*
X24725Y35051D02*
X24205Y35051D01*
X24205Y34051D01*
X24725Y34051D01*
X24725Y35051D01*
G37*
G36*
X25954Y35592D02*
X25954Y35415D01*
X26525Y35415D01*
X26525Y35592D01*
X25954Y35592D01*
G37*
G36*
X25954Y36871D02*
X25954Y36694D01*
X26525Y36694D01*
X26525Y36871D01*
X25954Y36871D01*
G37*
G36*
X28277Y36616D02*
X28277Y36439D01*
X28848Y36439D01*
X28848Y36616D01*
X28277Y36616D01*
G37*
G36*
X25954Y36360D02*
X25954Y36183D01*
X26525Y36183D01*
X26525Y36360D01*
X25954Y36360D01*
G37*
G36*
X25954Y36104D02*
X25954Y35927D01*
X26525Y35927D01*
X26525Y36104D01*
X25954Y36104D01*
G37*
G36*
X25954Y35848D02*
X25954Y35671D01*
X26525Y35671D01*
X26525Y35848D01*
X25954Y35848D01*
G37*
G36*
X28277Y36104D02*
X28277Y35927D01*
X28848Y35927D01*
X28848Y36104D01*
X28277Y36104D01*
G37*
G36*
X25954Y35336D02*
X25954Y35159D01*
X26525Y35159D01*
X26525Y35336D01*
X25954Y35336D01*
G37*
G36*
X28277Y36360D02*
X28277Y36183D01*
X28848Y36183D01*
X28848Y36360D01*
X28277Y36360D01*
G37*
G36*
X28277Y35848D02*
X28277Y35671D01*
X28848Y35671D01*
X28848Y35848D01*
X28277Y35848D01*
G37*
G36*
X28277Y35592D02*
X28277Y35415D01*
X28848Y35415D01*
X28848Y35592D01*
X28277Y35592D01*
G37*
G36*
X28277Y35336D02*
X28277Y35159D01*
X28848Y35159D01*
X28848Y35336D01*
X28277Y35336D01*
G37*
G36*
X28277Y36871D02*
X28277Y36694D01*
X28848Y36694D01*
X28848Y36871D01*
X28277Y36871D01*
G37*
G36*
X25954Y36616D02*
X25954Y36439D01*
X26525Y36439D01*
X26525Y36616D01*
X25954Y36616D01*
G37*
G36*
X32599Y35051D02*
X32079Y35051D01*
X32079Y34051D01*
X32599Y34051D01*
X32599Y35051D01*
G37*
G36*
X33828Y35592D02*
X33828Y35415D01*
X34399Y35415D01*
X34399Y35592D01*
X33828Y35592D01*
G37*
G36*
X33828Y36871D02*
X33828Y36694D01*
X34399Y36694D01*
X34399Y36871D01*
X33828Y36871D01*
G37*
G36*
X36151Y36616D02*
X36151Y36439D01*
X36722Y36439D01*
X36722Y36616D01*
X36151Y36616D01*
G37*
G36*
X33828Y36360D02*
X33828Y36183D01*
X34399Y36183D01*
X34399Y36360D01*
X33828Y36360D01*
G37*
G36*
X33828Y36104D02*
X33828Y35927D01*
X34399Y35927D01*
X34399Y36104D01*
X33828Y36104D01*
G37*
G36*
X33828Y35848D02*
X33828Y35671D01*
X34399Y35671D01*
X34399Y35848D01*
X33828Y35848D01*
G37*
G36*
X36151Y36104D02*
X36151Y35927D01*
X36722Y35927D01*
X36722Y36104D01*
X36151Y36104D01*
G37*
G36*
X33828Y35336D02*
X33828Y35159D01*
X34399Y35159D01*
X34399Y35336D01*
X33828Y35336D01*
G37*
G36*
X36151Y36360D02*
X36151Y36183D01*
X36722Y36183D01*
X36722Y36360D01*
X36151Y36360D01*
G37*
G36*
X36151Y35848D02*
X36151Y35671D01*
X36722Y35671D01*
X36722Y35848D01*
X36151Y35848D01*
G37*
G36*
X36151Y35592D02*
X36151Y35415D01*
X36722Y35415D01*
X36722Y35592D01*
X36151Y35592D01*
G37*
G36*
X36151Y35336D02*
X36151Y35159D01*
X36722Y35159D01*
X36722Y35336D01*
X36151Y35336D01*
G37*
G36*
X36151Y36871D02*
X36151Y36694D01*
X36722Y36694D01*
X36722Y36871D01*
X36151Y36871D01*
G37*
G36*
X33828Y36616D02*
X33828Y36439D01*
X34399Y36439D01*
X34399Y36616D01*
X33828Y36616D01*
G37*
M02*
