%FSLAX24Y24*%
%MOIN*%
%ADD10C,0.0394*%
%ADD11C,0.0520*%
D10*
G01X4380Y1770D03*
X3831Y3032D03*
X3329Y2440D03*
X3869Y1868D03*
X4180Y2564D03*
X3342Y3129D03*
X12254Y1770D03*
X11706Y3032D03*
X11203Y2440D03*
X11743Y1868D03*
X12054Y2564D03*
X11216Y3129D03*
X20128Y1770D03*
X19580Y3032D03*
X19077Y2440D03*
X19617Y1868D03*
X19928Y2564D03*
X19090Y3129D03*
X28002Y1770D03*
X27454Y3032D03*
X26951Y2440D03*
X27491Y1868D03*
X27802Y2564D03*
X26964Y3129D03*
X35876Y1770D03*
X35328Y3032D03*
X34825Y2440D03*
X35365Y1868D03*
X35676Y2564D03*
X34838Y3129D03*
X4380Y6573D03*
X3831Y7835D03*
X3329Y7243D03*
X3869Y6671D03*
X4180Y7367D03*
X3342Y7932D03*
X12254Y6573D03*
X11706Y7835D03*
X11203Y7243D03*
X11743Y6671D03*
X12054Y7367D03*
X11216Y7932D03*
X20128Y6573D03*
X19580Y7835D03*
X19077Y7243D03*
X19617Y6671D03*
X19928Y7367D03*
X19090Y7932D03*
X28002Y6573D03*
X27454Y7835D03*
X26951Y7243D03*
X27491Y6671D03*
X27802Y7367D03*
X26964Y7932D03*
X35876Y6573D03*
X35328Y7835D03*
X34825Y7243D03*
X35365Y6671D03*
X35676Y7367D03*
X34838Y7932D03*
X4380Y11376D03*
X3831Y12638D03*
X3329Y12046D03*
X3869Y11474D03*
X4180Y12170D03*
X3342Y12735D03*
X12254Y11376D03*
X11706Y12638D03*
X11203Y12046D03*
X11743Y11474D03*
X12054Y12170D03*
X11216Y12735D03*
X20128Y11376D03*
X19580Y12638D03*
X19077Y12046D03*
X19617Y11474D03*
X19928Y12170D03*
X19090Y12735D03*
X28002Y11376D03*
X27454Y12638D03*
X26951Y12046D03*
X27491Y11474D03*
X27802Y12170D03*
X26964Y12735D03*
X35876Y11376D03*
X35328Y12638D03*
X34825Y12046D03*
X35365Y11474D03*
X35676Y12170D03*
X34838Y12735D03*
X4380Y16179D03*
X3831Y17441D03*
X3329Y16849D03*
X3869Y16277D03*
X4180Y16973D03*
X3342Y17538D03*
X12254Y16179D03*
X11706Y17441D03*
X11203Y16849D03*
X11743Y16277D03*
X12054Y16973D03*
X11216Y17538D03*
X20128Y16179D03*
X19580Y17441D03*
X19077Y16849D03*
X19617Y16277D03*
X19928Y16973D03*
X19090Y17538D03*
X28002Y16179D03*
X27454Y17441D03*
X26951Y16849D03*
X27491Y16277D03*
X27802Y16973D03*
X26964Y17538D03*
X35876Y16179D03*
X35328Y17441D03*
X34825Y16849D03*
X35365Y16277D03*
X35676Y16973D03*
X34838Y17538D03*
X4380Y20982D03*
X3831Y22244D03*
X3329Y21652D03*
X3869Y21080D03*
X4180Y21777D03*
X3342Y22342D03*
X12254Y20982D03*
X11706Y22244D03*
X11203Y21652D03*
X11743Y21080D03*
X12054Y21777D03*
X11216Y22342D03*
X20128Y20982D03*
X19580Y22244D03*
X19077Y21652D03*
X19617Y21080D03*
X19928Y21777D03*
X19090Y22342D03*
X28002Y20982D03*
X27454Y22244D03*
X26951Y21652D03*
X27491Y21080D03*
X27802Y21777D03*
X26964Y22342D03*
X35876Y20982D03*
X35328Y22244D03*
X34825Y21652D03*
X35365Y21080D03*
X35676Y21777D03*
X34838Y22342D03*
X4380Y25785D03*
X3831Y27047D03*
X3329Y26455D03*
X3869Y25883D03*
X4180Y26580D03*
X3342Y27145D03*
X12254Y25785D03*
X11706Y27047D03*
X11203Y26455D03*
X11743Y25883D03*
X12054Y26580D03*
X11216Y27145D03*
X20128Y25785D03*
X19580Y27047D03*
X19077Y26455D03*
X19617Y25883D03*
X19928Y26580D03*
X19090Y27145D03*
X28002Y25785D03*
X27454Y27047D03*
X26951Y26455D03*
X27491Y25883D03*
X27802Y26580D03*
X26964Y27145D03*
X35876Y25785D03*
X35328Y27047D03*
X34825Y26455D03*
X35365Y25883D03*
X35676Y26580D03*
X34838Y27145D03*
X4380Y30589D03*
X3831Y31851D03*
X3329Y31259D03*
X3869Y30687D03*
X4180Y31383D03*
X3342Y31948D03*
X12254Y30589D03*
X11706Y31851D03*
X11203Y31259D03*
X11743Y30687D03*
X12054Y31383D03*
X11216Y31948D03*
X20128Y30589D03*
X19580Y31851D03*
X19077Y31259D03*
X19617Y30687D03*
X19928Y31383D03*
X19090Y31948D03*
X28002Y30589D03*
X27454Y31851D03*
X26951Y31259D03*
X27491Y30687D03*
X27802Y31383D03*
X26964Y31948D03*
X35876Y30589D03*
X35328Y31851D03*
X34825Y31259D03*
X35365Y30687D03*
X35676Y31383D03*
X34838Y31948D03*
X4380Y35392D03*
X3831Y36654D03*
X3329Y36062D03*
X3869Y35490D03*
X4180Y36186D03*
X3342Y36751D03*
X12254Y35392D03*
X11706Y36654D03*
X11203Y36062D03*
X11743Y35490D03*
X12054Y36186D03*
X11216Y36751D03*
X20128Y35392D03*
X19580Y36654D03*
X19077Y36062D03*
X19617Y35490D03*
X19928Y36186D03*
X19090Y36751D03*
X28002Y35392D03*
X27454Y36654D03*
X26951Y36062D03*
X27491Y35490D03*
X27802Y36186D03*
X26964Y36751D03*
X35876Y35392D03*
X35328Y36654D03*
X34825Y36062D03*
X35365Y35490D03*
X35676Y36186D03*
X34838Y36751D03*
D11*
G01X5843Y4169D02*
X5843Y3689D01*
X1843Y4169D02*
X1843Y3689D01*
X6843Y1169D02*
X6843Y689D01*
X2843Y1169D02*
X2843Y689D01*
X6843Y4169D02*
X6843Y3689D01*
X2843Y4169D02*
X2843Y3689D01*
X1843Y1169D02*
X1843Y689D01*
X4843Y4169D02*
X4843Y3689D01*
X4843Y1169D02*
X4843Y689D01*
X5843Y1169D02*
X5843Y689D01*
X3843Y4169D02*
X3843Y3689D01*
X843Y4169D02*
X843Y3689D01*
X3843Y1169D02*
X3843Y689D01*
X13717Y4169D02*
X13717Y3689D01*
X9717Y4169D02*
X9717Y3689D01*
X14717Y1169D02*
X14717Y689D01*
X10717Y1169D02*
X10717Y689D01*
X14717Y4169D02*
X14717Y3689D01*
X10717Y4169D02*
X10717Y3689D01*
X9717Y1169D02*
X9717Y689D01*
X12717Y4169D02*
X12717Y3689D01*
X12717Y1169D02*
X12717Y689D01*
X13717Y1169D02*
X13717Y689D01*
X11717Y4169D02*
X11717Y3689D01*
X8717Y4169D02*
X8717Y3689D01*
X11717Y1169D02*
X11717Y689D01*
X21591Y4169D02*
X21591Y3689D01*
X17591Y4169D02*
X17591Y3689D01*
X22591Y1169D02*
X22591Y689D01*
X18591Y1169D02*
X18591Y689D01*
X22591Y4169D02*
X22591Y3689D01*
X18591Y4169D02*
X18591Y3689D01*
X17591Y1169D02*
X17591Y689D01*
X20591Y4169D02*
X20591Y3689D01*
X20591Y1169D02*
X20591Y689D01*
X21591Y1169D02*
X21591Y689D01*
X19591Y4169D02*
X19591Y3689D01*
X16591Y4169D02*
X16591Y3689D01*
X19591Y1169D02*
X19591Y689D01*
X29465Y4169D02*
X29465Y3689D01*
X25465Y4169D02*
X25465Y3689D01*
X30465Y1169D02*
X30465Y689D01*
X26465Y1169D02*
X26465Y689D01*
X30465Y4169D02*
X30465Y3689D01*
X26465Y4169D02*
X26465Y3689D01*
X25465Y1169D02*
X25465Y689D01*
X28465Y4169D02*
X28465Y3689D01*
X28465Y1169D02*
X28465Y689D01*
X29465Y1169D02*
X29465Y689D01*
X27465Y4169D02*
X27465Y3689D01*
X24465Y4169D02*
X24465Y3689D01*
X27465Y1169D02*
X27465Y689D01*
X37339Y4169D02*
X37339Y3689D01*
X33339Y4169D02*
X33339Y3689D01*
X38339Y1169D02*
X38339Y689D01*
X34339Y1169D02*
X34339Y689D01*
X38339Y4169D02*
X38339Y3689D01*
X34339Y4169D02*
X34339Y3689D01*
X33339Y1169D02*
X33339Y689D01*
X36339Y4169D02*
X36339Y3689D01*
X36339Y1169D02*
X36339Y689D01*
X37339Y1169D02*
X37339Y689D01*
X35339Y4169D02*
X35339Y3689D01*
X32339Y4169D02*
X32339Y3689D01*
X35339Y1169D02*
X35339Y689D01*
X5843Y8972D02*
X5843Y8492D01*
X1843Y8972D02*
X1843Y8492D01*
X6843Y5972D02*
X6843Y5492D01*
X2843Y5972D02*
X2843Y5492D01*
X6843Y8972D02*
X6843Y8492D01*
X2843Y8972D02*
X2843Y8492D01*
X1843Y5972D02*
X1843Y5492D01*
X4843Y8972D02*
X4843Y8492D01*
X4843Y5972D02*
X4843Y5492D01*
X5843Y5972D02*
X5843Y5492D01*
X3843Y8972D02*
X3843Y8492D01*
X843Y8972D02*
X843Y8492D01*
X3843Y5972D02*
X3843Y5492D01*
X13717Y8972D02*
X13717Y8492D01*
X9717Y8972D02*
X9717Y8492D01*
X14717Y5972D02*
X14717Y5492D01*
X10717Y5972D02*
X10717Y5492D01*
X14717Y8972D02*
X14717Y8492D01*
X10717Y8972D02*
X10717Y8492D01*
X9717Y5972D02*
X9717Y5492D01*
X12717Y8972D02*
X12717Y8492D01*
X12717Y5972D02*
X12717Y5492D01*
X13717Y5972D02*
X13717Y5492D01*
X11717Y8972D02*
X11717Y8492D01*
X8717Y8972D02*
X8717Y8492D01*
X11717Y5972D02*
X11717Y5492D01*
X21591Y8972D02*
X21591Y8492D01*
X17591Y8972D02*
X17591Y8492D01*
X22591Y5972D02*
X22591Y5492D01*
X18591Y5972D02*
X18591Y5492D01*
X22591Y8972D02*
X22591Y8492D01*
X18591Y8972D02*
X18591Y8492D01*
X17591Y5972D02*
X17591Y5492D01*
X20591Y8972D02*
X20591Y8492D01*
X20591Y5972D02*
X20591Y5492D01*
X21591Y5972D02*
X21591Y5492D01*
X19591Y8972D02*
X19591Y8492D01*
X16591Y8972D02*
X16591Y8492D01*
X19591Y5972D02*
X19591Y5492D01*
X29465Y8972D02*
X29465Y8492D01*
X25465Y8972D02*
X25465Y8492D01*
X30465Y5972D02*
X30465Y5492D01*
X26465Y5972D02*
X26465Y5492D01*
X30465Y8972D02*
X30465Y8492D01*
X26465Y8972D02*
X26465Y8492D01*
X25465Y5972D02*
X25465Y5492D01*
X28465Y8972D02*
X28465Y8492D01*
X28465Y5972D02*
X28465Y5492D01*
X29465Y5972D02*
X29465Y5492D01*
X27465Y8972D02*
X27465Y8492D01*
X24465Y8972D02*
X24465Y8492D01*
X27465Y5972D02*
X27465Y5492D01*
X37339Y8972D02*
X37339Y8492D01*
X33339Y8972D02*
X33339Y8492D01*
X38339Y5972D02*
X38339Y5492D01*
X34339Y5972D02*
X34339Y5492D01*
X38339Y8972D02*
X38339Y8492D01*
X34339Y8972D02*
X34339Y8492D01*
X33339Y5972D02*
X33339Y5492D01*
X36339Y8972D02*
X36339Y8492D01*
X36339Y5972D02*
X36339Y5492D01*
X37339Y5972D02*
X37339Y5492D01*
X35339Y8972D02*
X35339Y8492D01*
X32339Y8972D02*
X32339Y8492D01*
X35339Y5972D02*
X35339Y5492D01*
X5843Y13775D02*
X5843Y13295D01*
X1843Y13775D02*
X1843Y13295D01*
X6843Y10775D02*
X6843Y10295D01*
X2843Y10775D02*
X2843Y10295D01*
X6843Y13775D02*
X6843Y13295D01*
X2843Y13775D02*
X2843Y13295D01*
X1843Y10775D02*
X1843Y10295D01*
X4843Y13775D02*
X4843Y13295D01*
X4843Y10775D02*
X4843Y10295D01*
X5843Y10775D02*
X5843Y10295D01*
X3843Y13775D02*
X3843Y13295D01*
X843Y13775D02*
X843Y13295D01*
X3843Y10775D02*
X3843Y10295D01*
X13717Y13775D02*
X13717Y13295D01*
X9717Y13775D02*
X9717Y13295D01*
X14717Y10775D02*
X14717Y10295D01*
X10717Y10775D02*
X10717Y10295D01*
X14717Y13775D02*
X14717Y13295D01*
X10717Y13775D02*
X10717Y13295D01*
X9717Y10775D02*
X9717Y10295D01*
X12717Y13775D02*
X12717Y13295D01*
X12717Y10775D02*
X12717Y10295D01*
X13717Y10775D02*
X13717Y10295D01*
X11717Y13775D02*
X11717Y13295D01*
X8717Y13775D02*
X8717Y13295D01*
X11717Y10775D02*
X11717Y10295D01*
X21591Y13775D02*
X21591Y13295D01*
X17591Y13775D02*
X17591Y13295D01*
X22591Y10775D02*
X22591Y10295D01*
X18591Y10775D02*
X18591Y10295D01*
X22591Y13775D02*
X22591Y13295D01*
X18591Y13775D02*
X18591Y13295D01*
X17591Y10775D02*
X17591Y10295D01*
X20591Y13775D02*
X20591Y13295D01*
X20591Y10775D02*
X20591Y10295D01*
X21591Y10775D02*
X21591Y10295D01*
X19591Y13775D02*
X19591Y13295D01*
X16591Y13775D02*
X16591Y13295D01*
X19591Y10775D02*
X19591Y10295D01*
X29465Y13775D02*
X29465Y13295D01*
X25465Y13775D02*
X25465Y13295D01*
X30465Y10775D02*
X30465Y10295D01*
X26465Y10775D02*
X26465Y10295D01*
X30465Y13775D02*
X30465Y13295D01*
X26465Y13775D02*
X26465Y13295D01*
X25465Y10775D02*
X25465Y10295D01*
X28465Y13775D02*
X28465Y13295D01*
X28465Y10775D02*
X28465Y10295D01*
X29465Y10775D02*
X29465Y10295D01*
X27465Y13775D02*
X27465Y13295D01*
X24465Y13775D02*
X24465Y13295D01*
X27465Y10775D02*
X27465Y10295D01*
X37339Y13775D02*
X37339Y13295D01*
X33339Y13775D02*
X33339Y13295D01*
X38339Y10775D02*
X38339Y10295D01*
X34339Y10775D02*
X34339Y10295D01*
X38339Y13775D02*
X38339Y13295D01*
X34339Y13775D02*
X34339Y13295D01*
X33339Y10775D02*
X33339Y10295D01*
X36339Y13775D02*
X36339Y13295D01*
X36339Y10775D02*
X36339Y10295D01*
X37339Y10775D02*
X37339Y10295D01*
X35339Y13775D02*
X35339Y13295D01*
X32339Y13775D02*
X32339Y13295D01*
X35339Y10775D02*
X35339Y10295D01*
X5843Y18579D02*
X5843Y18099D01*
X1843Y18579D02*
X1843Y18099D01*
X6843Y15579D02*
X6843Y15099D01*
X2843Y15579D02*
X2843Y15099D01*
X6843Y18579D02*
X6843Y18099D01*
X2843Y18579D02*
X2843Y18099D01*
X1843Y15579D02*
X1843Y15099D01*
X4843Y18579D02*
X4843Y18099D01*
X4843Y15579D02*
X4843Y15099D01*
X5843Y15579D02*
X5843Y15099D01*
X3843Y18579D02*
X3843Y18099D01*
X843Y18579D02*
X843Y18099D01*
X3843Y15579D02*
X3843Y15099D01*
X13717Y18579D02*
X13717Y18099D01*
X9717Y18579D02*
X9717Y18099D01*
X14717Y15579D02*
X14717Y15099D01*
X10717Y15579D02*
X10717Y15099D01*
X14717Y18579D02*
X14717Y18099D01*
X10717Y18579D02*
X10717Y18099D01*
X9717Y15579D02*
X9717Y15099D01*
X12717Y18579D02*
X12717Y18099D01*
X12717Y15579D02*
X12717Y15099D01*
X13717Y15579D02*
X13717Y15099D01*
X11717Y18579D02*
X11717Y18099D01*
X8717Y18579D02*
X8717Y18099D01*
X11717Y15579D02*
X11717Y15099D01*
X21591Y18579D02*
X21591Y18099D01*
X17591Y18579D02*
X17591Y18099D01*
X22591Y15579D02*
X22591Y15099D01*
X18591Y15579D02*
X18591Y15099D01*
X22591Y18579D02*
X22591Y18099D01*
X18591Y18579D02*
X18591Y18099D01*
X17591Y15579D02*
X17591Y15099D01*
X20591Y18579D02*
X20591Y18099D01*
X20591Y15579D02*
X20591Y15099D01*
X21591Y15579D02*
X21591Y15099D01*
X19591Y18579D02*
X19591Y18099D01*
X16591Y18579D02*
X16591Y18099D01*
X19591Y15579D02*
X19591Y15099D01*
X29465Y18579D02*
X29465Y18099D01*
X25465Y18579D02*
X25465Y18099D01*
X30465Y15579D02*
X30465Y15099D01*
X26465Y15579D02*
X26465Y15099D01*
X30465Y18579D02*
X30465Y18099D01*
X26465Y18579D02*
X26465Y18099D01*
X25465Y15579D02*
X25465Y15099D01*
X28465Y18579D02*
X28465Y18099D01*
X28465Y15579D02*
X28465Y15099D01*
X29465Y15579D02*
X29465Y15099D01*
X27465Y18579D02*
X27465Y18099D01*
X24465Y18579D02*
X24465Y18099D01*
X27465Y15579D02*
X27465Y15099D01*
X37339Y18579D02*
X37339Y18099D01*
X33339Y18579D02*
X33339Y18099D01*
X38339Y15579D02*
X38339Y15099D01*
X34339Y15579D02*
X34339Y15099D01*
X38339Y18579D02*
X38339Y18099D01*
X34339Y18579D02*
X34339Y18099D01*
X33339Y15579D02*
X33339Y15099D01*
X36339Y18579D02*
X36339Y18099D01*
X36339Y15579D02*
X36339Y15099D01*
X37339Y15579D02*
X37339Y15099D01*
X35339Y18579D02*
X35339Y18099D01*
X32339Y18579D02*
X32339Y18099D01*
X35339Y15579D02*
X35339Y15099D01*
X5843Y23382D02*
X5843Y22902D01*
X1843Y23382D02*
X1843Y22902D01*
X6843Y20382D02*
X6843Y19902D01*
X2843Y20382D02*
X2843Y19902D01*
X6843Y23382D02*
X6843Y22902D01*
X2843Y23382D02*
X2843Y22902D01*
X1843Y20382D02*
X1843Y19902D01*
X4843Y23382D02*
X4843Y22902D01*
X4843Y20382D02*
X4843Y19902D01*
X5843Y20382D02*
X5843Y19902D01*
X3843Y23382D02*
X3843Y22902D01*
X843Y23382D02*
X843Y22902D01*
X3843Y20382D02*
X3843Y19902D01*
X13717Y23382D02*
X13717Y22902D01*
X9717Y23382D02*
X9717Y22902D01*
X14717Y20382D02*
X14717Y19902D01*
X10717Y20382D02*
X10717Y19902D01*
X14717Y23382D02*
X14717Y22902D01*
X10717Y23382D02*
X10717Y22902D01*
X9717Y20382D02*
X9717Y19902D01*
X12717Y23382D02*
X12717Y22902D01*
X12717Y20382D02*
X12717Y19902D01*
X13717Y20382D02*
X13717Y19902D01*
X11717Y23382D02*
X11717Y22902D01*
X8717Y23382D02*
X8717Y22902D01*
X11717Y20382D02*
X11717Y19902D01*
X21591Y23382D02*
X21591Y22902D01*
X17591Y23382D02*
X17591Y22902D01*
X22591Y20382D02*
X22591Y19902D01*
X18591Y20382D02*
X18591Y19902D01*
X22591Y23382D02*
X22591Y22902D01*
X18591Y23382D02*
X18591Y22902D01*
X17591Y20382D02*
X17591Y19902D01*
X20591Y23382D02*
X20591Y22902D01*
X20591Y20382D02*
X20591Y19902D01*
X21591Y20382D02*
X21591Y19902D01*
X19591Y23382D02*
X19591Y22902D01*
X16591Y23382D02*
X16591Y22902D01*
X19591Y20382D02*
X19591Y19902D01*
X29465Y23382D02*
X29465Y22902D01*
X25465Y23382D02*
X25465Y22902D01*
X30465Y20382D02*
X30465Y19902D01*
X26465Y20382D02*
X26465Y19902D01*
X30465Y23382D02*
X30465Y22902D01*
X26465Y23382D02*
X26465Y22902D01*
X25465Y20382D02*
X25465Y19902D01*
X28465Y23382D02*
X28465Y22902D01*
X28465Y20382D02*
X28465Y19902D01*
X29465Y20382D02*
X29465Y19902D01*
X27465Y23382D02*
X27465Y22902D01*
X24465Y23382D02*
X24465Y22902D01*
X27465Y20382D02*
X27465Y19902D01*
X37339Y23382D02*
X37339Y22902D01*
X33339Y23382D02*
X33339Y22902D01*
X38339Y20382D02*
X38339Y19902D01*
X34339Y20382D02*
X34339Y19902D01*
X38339Y23382D02*
X38339Y22902D01*
X34339Y23382D02*
X34339Y22902D01*
X33339Y20382D02*
X33339Y19902D01*
X36339Y23382D02*
X36339Y22902D01*
X36339Y20382D02*
X36339Y19902D01*
X37339Y20382D02*
X37339Y19902D01*
X35339Y23382D02*
X35339Y22902D01*
X32339Y23382D02*
X32339Y22902D01*
X35339Y20382D02*
X35339Y19902D01*
X5843Y28185D02*
X5843Y27705D01*
X1843Y28185D02*
X1843Y27705D01*
X6843Y25185D02*
X6843Y24705D01*
X2843Y25185D02*
X2843Y24705D01*
X6843Y28185D02*
X6843Y27705D01*
X2843Y28185D02*
X2843Y27705D01*
X1843Y25185D02*
X1843Y24705D01*
X4843Y28185D02*
X4843Y27705D01*
X4843Y25185D02*
X4843Y24705D01*
X5843Y25185D02*
X5843Y24705D01*
X3843Y28185D02*
X3843Y27705D01*
X843Y28185D02*
X843Y27705D01*
X3843Y25185D02*
X3843Y24705D01*
X13717Y28185D02*
X13717Y27705D01*
X9717Y28185D02*
X9717Y27705D01*
X14717Y25185D02*
X14717Y24705D01*
X10717Y25185D02*
X10717Y24705D01*
X14717Y28185D02*
X14717Y27705D01*
X10717Y28185D02*
X10717Y27705D01*
X9717Y25185D02*
X9717Y24705D01*
X12717Y28185D02*
X12717Y27705D01*
X12717Y25185D02*
X12717Y24705D01*
X13717Y25185D02*
X13717Y24705D01*
X11717Y28185D02*
X11717Y27705D01*
X8717Y28185D02*
X8717Y27705D01*
X11717Y25185D02*
X11717Y24705D01*
X21591Y28185D02*
X21591Y27705D01*
X17591Y28185D02*
X17591Y27705D01*
X22591Y25185D02*
X22591Y24705D01*
X18591Y25185D02*
X18591Y24705D01*
X22591Y28185D02*
X22591Y27705D01*
X18591Y28185D02*
X18591Y27705D01*
X17591Y25185D02*
X17591Y24705D01*
X20591Y28185D02*
X20591Y27705D01*
X20591Y25185D02*
X20591Y24705D01*
X21591Y25185D02*
X21591Y24705D01*
X19591Y28185D02*
X19591Y27705D01*
X16591Y28185D02*
X16591Y27705D01*
X19591Y25185D02*
X19591Y24705D01*
X29465Y28185D02*
X29465Y27705D01*
X25465Y28185D02*
X25465Y27705D01*
X30465Y25185D02*
X30465Y24705D01*
X26465Y25185D02*
X26465Y24705D01*
X30465Y28185D02*
X30465Y27705D01*
X26465Y28185D02*
X26465Y27705D01*
X25465Y25185D02*
X25465Y24705D01*
X28465Y28185D02*
X28465Y27705D01*
X28465Y25185D02*
X28465Y24705D01*
X29465Y25185D02*
X29465Y24705D01*
X27465Y28185D02*
X27465Y27705D01*
X24465Y28185D02*
X24465Y27705D01*
X27465Y25185D02*
X27465Y24705D01*
X37339Y28185D02*
X37339Y27705D01*
X33339Y28185D02*
X33339Y27705D01*
X38339Y25185D02*
X38339Y24705D01*
X34339Y25185D02*
X34339Y24705D01*
X38339Y28185D02*
X38339Y27705D01*
X34339Y28185D02*
X34339Y27705D01*
X33339Y25185D02*
X33339Y24705D01*
X36339Y28185D02*
X36339Y27705D01*
X36339Y25185D02*
X36339Y24705D01*
X37339Y25185D02*
X37339Y24705D01*
X35339Y28185D02*
X35339Y27705D01*
X32339Y28185D02*
X32339Y27705D01*
X35339Y25185D02*
X35339Y24705D01*
X5843Y32988D02*
X5843Y32508D01*
X1843Y32988D02*
X1843Y32508D01*
X6843Y29988D02*
X6843Y29508D01*
X2843Y29988D02*
X2843Y29508D01*
X6843Y32988D02*
X6843Y32508D01*
X2843Y32988D02*
X2843Y32508D01*
X1843Y29988D02*
X1843Y29508D01*
X4843Y32988D02*
X4843Y32508D01*
X4843Y29988D02*
X4843Y29508D01*
X5843Y29988D02*
X5843Y29508D01*
X3843Y32988D02*
X3843Y32508D01*
X843Y32988D02*
X843Y32508D01*
X3843Y29988D02*
X3843Y29508D01*
X13717Y32988D02*
X13717Y32508D01*
X9717Y32988D02*
X9717Y32508D01*
X14717Y29988D02*
X14717Y29508D01*
X10717Y29988D02*
X10717Y29508D01*
X14717Y32988D02*
X14717Y32508D01*
X10717Y32988D02*
X10717Y32508D01*
X9717Y29988D02*
X9717Y29508D01*
X12717Y32988D02*
X12717Y32508D01*
X12717Y29988D02*
X12717Y29508D01*
X13717Y29988D02*
X13717Y29508D01*
X11717Y32988D02*
X11717Y32508D01*
X8717Y32988D02*
X8717Y32508D01*
X11717Y29988D02*
X11717Y29508D01*
X21591Y32988D02*
X21591Y32508D01*
X17591Y32988D02*
X17591Y32508D01*
X22591Y29988D02*
X22591Y29508D01*
X18591Y29988D02*
X18591Y29508D01*
X22591Y32988D02*
X22591Y32508D01*
X18591Y32988D02*
X18591Y32508D01*
X17591Y29988D02*
X17591Y29508D01*
X20591Y32988D02*
X20591Y32508D01*
X20591Y29988D02*
X20591Y29508D01*
X21591Y29988D02*
X21591Y29508D01*
X19591Y32988D02*
X19591Y32508D01*
X16591Y32988D02*
X16591Y32508D01*
X19591Y29988D02*
X19591Y29508D01*
X29465Y32988D02*
X29465Y32508D01*
X25465Y32988D02*
X25465Y32508D01*
X30465Y29988D02*
X30465Y29508D01*
X26465Y29988D02*
X26465Y29508D01*
X30465Y32988D02*
X30465Y32508D01*
X26465Y32988D02*
X26465Y32508D01*
X25465Y29988D02*
X25465Y29508D01*
X28465Y32988D02*
X28465Y32508D01*
X28465Y29988D02*
X28465Y29508D01*
X29465Y29988D02*
X29465Y29508D01*
X27465Y32988D02*
X27465Y32508D01*
X24465Y32988D02*
X24465Y32508D01*
X27465Y29988D02*
X27465Y29508D01*
X37339Y32988D02*
X37339Y32508D01*
X33339Y32988D02*
X33339Y32508D01*
X38339Y29988D02*
X38339Y29508D01*
X34339Y29988D02*
X34339Y29508D01*
X38339Y32988D02*
X38339Y32508D01*
X34339Y32988D02*
X34339Y32508D01*
X33339Y29988D02*
X33339Y29508D01*
X36339Y32988D02*
X36339Y32508D01*
X36339Y29988D02*
X36339Y29508D01*
X37339Y29988D02*
X37339Y29508D01*
X35339Y32988D02*
X35339Y32508D01*
X32339Y32988D02*
X32339Y32508D01*
X35339Y29988D02*
X35339Y29508D01*
X5843Y37791D02*
X5843Y37311D01*
X1843Y37791D02*
X1843Y37311D01*
X6843Y34791D02*
X6843Y34311D01*
X2843Y34791D02*
X2843Y34311D01*
X6843Y37791D02*
X6843Y37311D01*
X2843Y37791D02*
X2843Y37311D01*
X1843Y34791D02*
X1843Y34311D01*
X4843Y37791D02*
X4843Y37311D01*
X4843Y34791D02*
X4843Y34311D01*
X5843Y34791D02*
X5843Y34311D01*
X3843Y37791D02*
X3843Y37311D01*
X843Y37791D02*
X843Y37311D01*
X3843Y34791D02*
X3843Y34311D01*
X13717Y37791D02*
X13717Y37311D01*
X9717Y37791D02*
X9717Y37311D01*
X14717Y34791D02*
X14717Y34311D01*
X10717Y34791D02*
X10717Y34311D01*
X14717Y37791D02*
X14717Y37311D01*
X10717Y37791D02*
X10717Y37311D01*
X9717Y34791D02*
X9717Y34311D01*
X12717Y37791D02*
X12717Y37311D01*
X12717Y34791D02*
X12717Y34311D01*
X13717Y34791D02*
X13717Y34311D01*
X11717Y37791D02*
X11717Y37311D01*
X8717Y37791D02*
X8717Y37311D01*
X11717Y34791D02*
X11717Y34311D01*
X21591Y37791D02*
X21591Y37311D01*
X17591Y37791D02*
X17591Y37311D01*
X22591Y34791D02*
X22591Y34311D01*
X18591Y34791D02*
X18591Y34311D01*
X22591Y37791D02*
X22591Y37311D01*
X18591Y37791D02*
X18591Y37311D01*
X17591Y34791D02*
X17591Y34311D01*
X20591Y37791D02*
X20591Y37311D01*
X20591Y34791D02*
X20591Y34311D01*
X21591Y34791D02*
X21591Y34311D01*
X19591Y37791D02*
X19591Y37311D01*
X16591Y37791D02*
X16591Y37311D01*
X19591Y34791D02*
X19591Y34311D01*
X29465Y37791D02*
X29465Y37311D01*
X25465Y37791D02*
X25465Y37311D01*
X30465Y34791D02*
X30465Y34311D01*
X26465Y34791D02*
X26465Y34311D01*
X30465Y37791D02*
X30465Y37311D01*
X26465Y37791D02*
X26465Y37311D01*
X25465Y34791D02*
X25465Y34311D01*
X28465Y37791D02*
X28465Y37311D01*
X28465Y34791D02*
X28465Y34311D01*
X29465Y34791D02*
X29465Y34311D01*
X27465Y37791D02*
X27465Y37311D01*
X24465Y37791D02*
X24465Y37311D01*
X27465Y34791D02*
X27465Y34311D01*
X37339Y37791D02*
X37339Y37311D01*
X33339Y37791D02*
X33339Y37311D01*
X38339Y34791D02*
X38339Y34311D01*
X34339Y34791D02*
X34339Y34311D01*
X38339Y37791D02*
X38339Y37311D01*
X34339Y37791D02*
X34339Y37311D01*
X33339Y34791D02*
X33339Y34311D01*
X36339Y37791D02*
X36339Y37311D01*
X36339Y34791D02*
X36339Y34311D01*
X37339Y34791D02*
X37339Y34311D01*
X35339Y37791D02*
X35339Y37311D01*
X32339Y37791D02*
X32339Y37311D01*
X35339Y34791D02*
X35339Y34311D01*
G36*
X1103Y1429D02*
X583Y1429D01*
X583Y429D01*
X1103Y429D01*
X1103Y1429D01*
G37*
G36*
X8977Y1429D02*
X8457Y1429D01*
X8457Y429D01*
X8977Y429D01*
X8977Y1429D01*
G37*
G36*
X16851Y1429D02*
X16331Y1429D01*
X16331Y429D01*
X16851Y429D01*
X16851Y1429D01*
G37*
G36*
X24725Y1429D02*
X24205Y1429D01*
X24205Y429D01*
X24725Y429D01*
X24725Y1429D01*
G37*
G36*
X32599Y1429D02*
X32079Y1429D01*
X32079Y429D01*
X32599Y429D01*
X32599Y1429D01*
G37*
G36*
X1103Y6232D02*
X583Y6232D01*
X583Y5232D01*
X1103Y5232D01*
X1103Y6232D01*
G37*
G36*
X8977Y6232D02*
X8457Y6232D01*
X8457Y5232D01*
X8977Y5232D01*
X8977Y6232D01*
G37*
G36*
X16851Y6232D02*
X16331Y6232D01*
X16331Y5232D01*
X16851Y5232D01*
X16851Y6232D01*
G37*
G36*
X24725Y6232D02*
X24205Y6232D01*
X24205Y5232D01*
X24725Y5232D01*
X24725Y6232D01*
G37*
G36*
X32599Y6232D02*
X32079Y6232D01*
X32079Y5232D01*
X32599Y5232D01*
X32599Y6232D01*
G37*
G36*
X1103Y11035D02*
X583Y11035D01*
X583Y10035D01*
X1103Y10035D01*
X1103Y11035D01*
G37*
G36*
X8977Y11035D02*
X8457Y11035D01*
X8457Y10035D01*
X8977Y10035D01*
X8977Y11035D01*
G37*
G36*
X16851Y11035D02*
X16331Y11035D01*
X16331Y10035D01*
X16851Y10035D01*
X16851Y11035D01*
G37*
G36*
X24725Y11035D02*
X24205Y11035D01*
X24205Y10035D01*
X24725Y10035D01*
X24725Y11035D01*
G37*
G36*
X32599Y11035D02*
X32079Y11035D01*
X32079Y10035D01*
X32599Y10035D01*
X32599Y11035D01*
G37*
G36*
X1103Y15839D02*
X583Y15839D01*
X583Y14839D01*
X1103Y14839D01*
X1103Y15839D01*
G37*
G36*
X8977Y15839D02*
X8457Y15839D01*
X8457Y14839D01*
X8977Y14839D01*
X8977Y15839D01*
G37*
G36*
X16851Y15839D02*
X16331Y15839D01*
X16331Y14839D01*
X16851Y14839D01*
X16851Y15839D01*
G37*
G36*
X24725Y15839D02*
X24205Y15839D01*
X24205Y14839D01*
X24725Y14839D01*
X24725Y15839D01*
G37*
G36*
X32599Y15839D02*
X32079Y15839D01*
X32079Y14839D01*
X32599Y14839D01*
X32599Y15839D01*
G37*
G36*
X1103Y20642D02*
X583Y20642D01*
X583Y19642D01*
X1103Y19642D01*
X1103Y20642D01*
G37*
G36*
X8977Y20642D02*
X8457Y20642D01*
X8457Y19642D01*
X8977Y19642D01*
X8977Y20642D01*
G37*
G36*
X16851Y20642D02*
X16331Y20642D01*
X16331Y19642D01*
X16851Y19642D01*
X16851Y20642D01*
G37*
G36*
X24725Y20642D02*
X24205Y20642D01*
X24205Y19642D01*
X24725Y19642D01*
X24725Y20642D01*
G37*
G36*
X32599Y20642D02*
X32079Y20642D01*
X32079Y19642D01*
X32599Y19642D01*
X32599Y20642D01*
G37*
G36*
X1103Y25445D02*
X583Y25445D01*
X583Y24445D01*
X1103Y24445D01*
X1103Y25445D01*
G37*
G36*
X8977Y25445D02*
X8457Y25445D01*
X8457Y24445D01*
X8977Y24445D01*
X8977Y25445D01*
G37*
G36*
X16851Y25445D02*
X16331Y25445D01*
X16331Y24445D01*
X16851Y24445D01*
X16851Y25445D01*
G37*
G36*
X24725Y25445D02*
X24205Y25445D01*
X24205Y24445D01*
X24725Y24445D01*
X24725Y25445D01*
G37*
G36*
X32599Y25445D02*
X32079Y25445D01*
X32079Y24445D01*
X32599Y24445D01*
X32599Y25445D01*
G37*
G36*
X1103Y30248D02*
X583Y30248D01*
X583Y29248D01*
X1103Y29248D01*
X1103Y30248D01*
G37*
G36*
X8977Y30248D02*
X8457Y30248D01*
X8457Y29248D01*
X8977Y29248D01*
X8977Y30248D01*
G37*
G36*
X16851Y30248D02*
X16331Y30248D01*
X16331Y29248D01*
X16851Y29248D01*
X16851Y30248D01*
G37*
G36*
X24725Y30248D02*
X24205Y30248D01*
X24205Y29248D01*
X24725Y29248D01*
X24725Y30248D01*
G37*
G36*
X32599Y30248D02*
X32079Y30248D01*
X32079Y29248D01*
X32599Y29248D01*
X32599Y30248D01*
G37*
G36*
X1103Y35051D02*
X583Y35051D01*
X583Y34051D01*
X1103Y34051D01*
X1103Y35051D01*
G37*
G36*
X8977Y35051D02*
X8457Y35051D01*
X8457Y34051D01*
X8977Y34051D01*
X8977Y35051D01*
G37*
G36*
X16851Y35051D02*
X16331Y35051D01*
X16331Y34051D01*
X16851Y34051D01*
X16851Y35051D01*
G37*
G36*
X24725Y35051D02*
X24205Y35051D01*
X24205Y34051D01*
X24725Y34051D01*
X24725Y35051D01*
G37*
G36*
X32599Y35051D02*
X32079Y35051D01*
X32079Y34051D01*
X32599Y34051D01*
X32599Y35051D01*
G37*
M02*
