G70*
%FSAX24Y24*%
%ADD10R,0.0394X0.0394*%
%ADD11C,0.0150*%
%ADD12C,0.2362*%
%ADD13R,0.0520X0.0520*%
%ADD14C,0.0520*%
%ADD15C,0.0400*%
%ADD16C,0.0399*%
%ADD17C,0.0750*%
%ADD18R,0.2400X0.4000*%
%ADD19R,0.1000X0.0750*%
%ADD20C,0.0709*%
%ADD21R,0.0709X0.0709*%
%ADD22C,0.3150*%
%ADD23C,0.1575*%
%ADD24C,0.0591*%
%ADD25R,0.0591X0.1000*%
%ADD26C,0.0700*%
%ADD27R,0.1000X0.0600*%
%ADD28C,0.0600*%
%ADD29R,0.0600X0.0600*%
%ADD30R,0.1000X0.1100*%
%ADD31R,0.0750X0.1000*%
%ADD32R,0.4000X0.2400*%
%ADD33R,0.0520X0.1000*%
%ADD34C,0.0500*%
D10*
X000190Y000190D02*
X039170Y000190D01*
X039170Y039170D01*
X000190Y039170D01*
X000190Y000190D01*
D11*
X004000Y011000D02*
X004000Y010500D01*
X033200Y006370D02*
X033200Y004040D01*
X008750Y033000D02*
X008250Y033500D01*
X026680Y016430D02*
X027500Y017250D01*
X029060Y018560D02*
X029250Y018750D01*
X013430Y012750D02*
X018250Y007930D01*
X014000Y021130D02*
X013130Y022000D01*
X006000Y013000D02*
X004000Y011000D01*
X007500Y016000D02*
X006000Y016000D01*
X008250Y033500D02*
X008250Y034500D01*
X007500Y032750D02*
X008250Y033500D01*
X008460Y019970D02*
X002520Y014030D01*
X011310Y014360D02*
X011660Y014710D01*
X019460Y019210D02*
X023780Y019210D01*
X025000Y013240D02*
X025000Y009990D01*
X013000Y020500D02*
X012000Y020500D01*
X009430Y016310D02*
X009430Y015560D01*
X021000Y017870D02*
X021000Y017250D01*
X011550Y014960D02*
X013790Y014960D01*
X027820Y004770D02*
X026030Y002980D01*
X024590Y025090D02*
X025500Y026000D01*
X013710Y018060D02*
X011180Y018060D01*
X016000Y015750D02*
X016960Y014780D01*
X011660Y014710D02*
X014160Y014710D01*
X008500Y010000D02*
X008500Y010770D01*
X018250Y034140D02*
X018250Y034500D01*
X014000Y020500D02*
X014000Y021130D01*
X004000Y004500D02*
X004000Y005500D01*
X029060Y018560D02*
X035480Y012140D01*
X012000Y020500D02*
X012000Y018500D01*
X033200Y004040D02*
X034250Y003000D01*
X012000Y012750D02*
X013430Y012750D01*
X003610Y020500D02*
X002210Y021900D01*
X022000Y002250D02*
X021520Y002720D01*
X018000Y022340D02*
X013710Y018060D01*
X023920Y005070D02*
X023920Y004820D01*
X019000Y026500D02*
X020500Y026500D01*
X007750Y022000D02*
X007750Y024240D01*
X018320Y019480D02*
X026310Y019480D01*
X012530Y007000D02*
X017250Y007000D01*
X022350Y003240D02*
X008250Y003240D01*
X009430Y015560D02*
X010000Y015000D01*
X021000Y017870D02*
X028870Y017870D01*
X004110Y035490D02*
X012740Y035490D01*
X014450Y008020D02*
X012820Y008020D01*
X026310Y019480D02*
X028000Y021170D01*
X010940Y014340D02*
X011550Y014960D01*
X002560Y023900D02*
X002560Y033940D01*
X021500Y007930D02*
X021500Y007000D01*
X026500Y020500D02*
X026070Y020070D01*
X021320Y005720D02*
X021320Y004770D01*
X012740Y035490D02*
X014500Y037250D01*
X012190Y007020D02*
X007520Y007020D01*
X014500Y008060D02*
X014450Y008020D01*
X024680Y018310D02*
X028810Y018310D01*
X003500Y011500D02*
X003500Y006000D01*
X017440Y005050D02*
X017440Y004890D01*
X010340Y014500D02*
X009000Y014500D01*
X008250Y034500D02*
X008250Y035130D01*
X011510Y015310D02*
X010650Y014450D01*
X007510Y002980D02*
X006000Y004500D01*
X007750Y024240D02*
X003000Y029000D01*
X012490Y007310D02*
X012190Y007020D01*
X028870Y017870D02*
X032000Y014750D01*
X008000Y010500D02*
X008000Y010790D01*
X024250Y018750D02*
X024680Y018310D01*
X003500Y006000D02*
X002000Y004500D01*
X035480Y010950D02*
X035480Y006230D01*
X014000Y033000D02*
X008750Y033000D01*
X024750Y008000D02*
X024750Y007000D01*
X008250Y035130D02*
X008200Y035170D01*
X012000Y015750D02*
X011590Y015750D01*
X026030Y002980D02*
X007510Y002980D01*
X010650Y014450D02*
X010650Y014030D01*
X003960Y022500D02*
X002560Y023900D01*
X011310Y013590D02*
X011310Y014360D01*
X014500Y008700D02*
X014500Y008060D01*
X020000Y012750D02*
X024750Y008000D01*
X007000Y015000D02*
X006000Y014000D01*
X013010Y016500D02*
X010500Y016500D01*
X022590Y007000D02*
X021320Y005720D01*
X019000Y022500D02*
X021500Y022500D01*
X002520Y011020D02*
X002000Y010500D01*
X015950Y009680D02*
X015240Y008970D01*
X011590Y015750D02*
X010340Y014500D01*
X018010Y021500D02*
X013010Y016500D01*
X004250Y034650D02*
X004250Y034500D01*
X016010Y031900D02*
X018250Y034140D01*
X009000Y014500D02*
X005000Y010500D01*
X008500Y013000D02*
X006000Y010500D01*
X033000Y021000D02*
X034500Y021000D01*
X009480Y004010D02*
X009000Y004500D01*
X035480Y006230D02*
X036460Y005250D01*
X019220Y002720D02*
X018750Y002250D01*
X007500Y020500D02*
X004500Y023500D01*
X025720Y002720D02*
X025250Y002250D01*
X013790Y014960D02*
X018320Y019480D01*
X012000Y014250D02*
X015180Y014250D01*
X010030Y004500D02*
X012530Y007000D01*
X007750Y022000D02*
X008460Y021280D01*
X015880Y016430D02*
X026680Y016430D01*
X025250Y002250D02*
X024770Y002720D01*
X023750Y007000D02*
X022590Y007000D01*
X019000Y018750D02*
X019460Y019210D01*
X015240Y008970D02*
X014770Y008970D01*
X025000Y009990D02*
X028000Y007000D01*
X019000Y025500D02*
X019400Y025090D01*
X008460Y021280D02*
X008460Y019970D01*
X023780Y019210D02*
X024250Y018750D01*
X006340Y031900D02*
X016010Y031900D01*
X036000Y013500D02*
X036460Y013030D01*
X009000Y013000D02*
X008500Y013000D01*
X011180Y018060D02*
X009430Y016310D01*
X014160Y014710D02*
X015880Y016430D01*
X007520Y007020D02*
X005000Y004500D01*
X028810Y018310D02*
X029060Y018560D01*
X019400Y025090D02*
X024590Y025090D01*
X004500Y023500D02*
X004250Y023500D01*
X004250Y022500D02*
X003960Y022500D01*
X034250Y002000D02*
X032000Y002000D01*
X020500Y007000D02*
X019380Y007000D01*
X036460Y013030D02*
X036460Y010950D01*
X015180Y014250D02*
X021500Y007930D01*
X010000Y004500D02*
X010030Y004500D01*
X025850Y007000D02*
X023920Y005070D01*
X020500Y026500D02*
X023000Y029000D01*
X002210Y021900D02*
X002210Y033960D01*
X018000Y024000D02*
X018000Y022340D01*
X024790Y014780D02*
X033200Y006370D01*
X018250Y007930D02*
X018250Y007000D01*
X014770Y008970D02*
X014500Y008700D01*
X024770Y002720D02*
X022470Y002720D01*
X005250Y034500D02*
X005250Y033000D01*
X010500Y016500D02*
X010000Y016000D01*
X028000Y021170D02*
X028000Y022000D01*
X005500Y032750D02*
X006340Y031900D01*
X020000Y014250D02*
X016000Y014250D01*
X008830Y003660D02*
X008000Y004500D01*
X002520Y014030D02*
X002520Y011020D01*
X012820Y008020D02*
X012490Y007690D01*
X022470Y002720D02*
X022000Y002250D01*
X013510Y015310D02*
X011510Y015310D01*
X016960Y014780D02*
X024790Y014780D01*
X012490Y007690D02*
X012490Y007310D01*
X008000Y010790D02*
X010940Y013730D01*
X012000Y020500D02*
X011500Y020500D01*
X029180Y007000D02*
X027820Y005640D01*
X028020Y002720D02*
X025720Y002720D01*
X004250Y020500D02*
X003610Y020500D01*
X008200Y035170D02*
X004770Y035170D01*
X005250Y033000D02*
X005500Y032750D01*
X007110Y010500D02*
X007000Y010500D01*
X018270Y020070D02*
X013510Y015310D01*
X030250Y007000D02*
X029180Y007000D01*
X023920Y004820D02*
X022350Y003240D01*
X021500Y012750D02*
X024000Y012750D01*
X017440Y004890D02*
X016560Y004010D01*
X010650Y014030D02*
X007110Y010500D01*
X008250Y003240D02*
X007000Y004500D01*
X013130Y022000D02*
X010750Y022000D01*
X002560Y033940D02*
X004110Y035490D01*
X019000Y021500D02*
X018010Y021500D01*
X010940Y013730D02*
X010940Y014340D01*
X021000Y018750D02*
X021000Y017870D01*
X021320Y004770D02*
X020210Y003660D01*
X009000Y014500D02*
X007500Y016000D01*
X024000Y014250D02*
X025000Y013240D01*
X016560Y004010D02*
X009480Y004010D01*
X004770Y035170D02*
X004250Y034650D01*
X026070Y020070D02*
X018270Y020070D01*
X027820Y005640D02*
X027820Y004770D01*
X027000Y007000D02*
X025850Y007000D01*
X032000Y002000D02*
X031750Y002250D01*
X032000Y022000D02*
X033000Y021000D01*
X008500Y010770D02*
X011310Y013590D01*
X028500Y002250D02*
X028020Y002720D01*
X019380Y007000D02*
X017440Y005050D01*
X006000Y014000D02*
X003500Y011500D01*
X020210Y003660D02*
X008830Y003660D01*
X035480Y012140D02*
X035480Y010950D01*
X004000Y005500D02*
X008500Y010000D01*
X002210Y033960D02*
X005500Y037250D01*
X021520Y002720D02*
X019220Y002720D01*
X020000Y014250D02*
X021500Y012750D01*
X017000Y029000D02*
X008000Y029000D01*
D12*
X037250Y037250D03*
X001990Y037250D03*
X037250Y002250D03*
X001990Y002250D03*
D13*
X017000Y017240D03*
X006000Y013990D03*
X028000Y022000D03*
X018000Y024000D03*
X021500Y022500D03*
X031500Y017250D03*
X026500Y020500D03*
X032000Y012240D03*
X034250Y003000D03*
X020000Y012740D03*
X006000Y015990D03*
X017740Y010000D03*
X007500Y020500D03*
X020000Y030500D03*
X017240Y007000D03*
X024000Y014250D03*
X022250Y017240D03*
X021000Y010000D03*
X012000Y015750D03*
X012000Y018500D03*
X032000Y014740D03*
X030000Y012750D03*
X012000Y014250D03*
X027500Y010000D03*
X024250Y010000D03*
X017000Y029000D03*
X023750Y007000D03*
X027000Y007000D03*
X018000Y033000D03*
X020500Y007000D03*
X030750Y010000D03*
X030250Y007000D03*
X036000Y013500D03*
X012000Y012740D03*
D14*
X021000Y017240D03*
X010000Y013990D03*
X027500Y027500D03*
X027500Y025500D03*
X032000Y022000D03*
X022000Y024000D03*
X025500Y022500D03*
X027500Y017250D03*
X030500Y020500D03*
X036000Y012240D03*
X034250Y002000D03*
X024000Y012740D03*
X007000Y015000D03*
X010000Y015000D03*
X010000Y015990D03*
X007500Y032750D03*
X005500Y032750D03*
X018990Y018750D03*
X021000Y018750D03*
X011500Y020500D03*
X024000Y030500D03*
X018250Y007000D03*
X020000Y014250D03*
X009000Y013000D03*
X006000Y013000D03*
X026250Y017240D03*
X025260Y026000D02*
X025740Y026000D01*
X025260Y026990D02*
X025740Y026990D01*
X024250Y018750D03*
X026250Y018750D03*
X016000Y015750D03*
X028250Y015510D02*
X028250Y015990D01*
X021250Y015510D02*
X021250Y015990D01*
X025250Y015510D02*
X025250Y015990D01*
X027250Y015510D02*
X027250Y015990D01*
X026250Y015510D02*
X026250Y015990D01*
X024250Y015510D02*
X024250Y015990D01*
X022250Y015510D02*
X022250Y015990D01*
X023250Y015510D02*
X023250Y015990D01*
X020250Y015510D02*
X020250Y015990D01*
X028500Y030240D03*
X028500Y032250D03*
X016000Y018500D03*
X036000Y014740D03*
X026000Y012750D03*
X016000Y014250D03*
X029250Y018750D03*
X031250Y018750D03*
X018000Y029000D03*
X024750Y007000D03*
X028000Y007000D03*
X027500Y030240D03*
X027500Y032250D03*
X013990Y033000D03*
X021500Y007000D03*
X031250Y007000D03*
X032000Y013500D03*
X016000Y012740D03*
D15*
X015950Y009680D03*
D16*
X027240Y032250D02*
X025000Y034500D01*
X029000Y031250D02*
X029750Y031250D01*
X027930Y031680D02*
X028500Y032250D01*
X027770Y026570D02*
X028690Y027500D01*
X027500Y030250D02*
X028500Y030250D01*
X029750Y026500D02*
X031000Y026500D01*
X021180Y031680D02*
X027930Y031680D01*
X027500Y025500D02*
X029750Y025500D01*
X025920Y026570D02*
X027770Y026570D01*
X034780Y023000D02*
X034500Y023000D01*
X033250Y022000D02*
X034500Y022000D01*
X026900Y029650D02*
X027500Y030250D01*
X026900Y028090D02*
X027500Y027500D01*
X028500Y030750D02*
X029000Y031250D01*
X031000Y026500D02*
X034500Y023000D01*
X026900Y029650D02*
X026900Y028090D01*
X025500Y027000D02*
X025920Y026570D01*
X015000Y023500D02*
X015000Y020500D01*
X035300Y022480D02*
X034780Y023000D01*
X028500Y030250D02*
X028500Y030750D01*
X018650Y029650D02*
X026900Y029650D01*
X028690Y027500D02*
X029750Y027500D01*
X020000Y030500D02*
X021180Y031680D01*
X027500Y032250D02*
X027240Y032250D01*
X029750Y025500D02*
X033250Y022000D01*
X019000Y027500D02*
X015000Y023500D01*
X035300Y018800D02*
X035300Y022480D01*
X034500Y018000D02*
X035300Y018800D01*
X018000Y029000D02*
X018650Y029650D01*
D17*
X029620Y031240D02*
X029870Y031240D01*
X029620Y030240D02*
X029870Y030240D01*
X029620Y026490D02*
X029870Y026490D01*
X029620Y025500D02*
X029870Y025500D01*
X015000Y020370D02*
X015000Y020620D01*
X014000Y020370D02*
X014000Y020620D01*
D18*
X036750Y031240D03*
X036750Y026490D03*
D19*
X029750Y032250D03*
X029750Y027500D03*
D20*
X027990Y034740D03*
X023000Y029000D03*
X025000Y034500D03*
X007750Y022000D03*
D21*
X031000Y034740D03*
X020000Y029000D03*
X022000Y034500D03*
X010750Y022000D03*
D22*
X010000Y037250D03*
X014500Y037250D03*
X028500Y037250D03*
X033250Y037250D03*
X005500Y037250D03*
X023500Y037250D03*
D23*
X001250Y012750D03*
X038000Y034490D03*
X001250Y034490D03*
X038000Y012750D03*
X032920Y008200D03*
X038040Y008200D03*
D24*
X009250Y034290D02*
X009250Y034700D01*
X019250Y034290D02*
X019250Y034700D01*
X013250Y034290D02*
X013250Y034700D01*
X014250Y034290D02*
X014250Y034700D01*
X006250Y034290D02*
X006250Y034700D01*
X010250Y034290D02*
X010250Y034700D01*
X011250Y034290D02*
X011250Y034700D01*
X018250Y034290D02*
X018250Y034700D01*
X007250Y034290D02*
X007250Y034700D01*
X005250Y034290D02*
X005250Y034700D01*
X017240Y034290D02*
X017240Y034700D01*
X015250Y034290D02*
X015250Y034700D01*
X016250Y034290D02*
X016250Y034700D01*
X008250Y034290D02*
X008250Y034700D01*
X012250Y034290D02*
X012250Y034700D01*
D25*
X004250Y034490D03*
D26*
X035480Y010800D02*
X035480Y011100D01*
X036460Y010800D02*
X036460Y011100D01*
X036460Y005100D02*
X036460Y005390D01*
X034500Y010800D02*
X034500Y011100D01*
X034500Y005100D02*
X034500Y005390D01*
D27*
X034500Y023000D03*
X004250Y023500D03*
X034500Y018000D03*
D28*
X034300Y021000D02*
X034700Y021000D01*
X034300Y022000D02*
X034700Y022000D01*
X023450Y005250D02*
X023050Y005250D01*
X025450Y002250D02*
X025050Y002250D01*
X025450Y005250D02*
X025050Y005250D01*
X023450Y002250D02*
X023050Y002250D01*
X014000Y010500D03*
X008000Y010500D03*
X008000Y004500D03*
X009000Y008500D03*
X015000Y004500D03*
X013000Y010500D03*
X007000Y010500D03*
X010000Y010500D03*
X003000Y009500D03*
X011000Y010500D03*
X002000Y010500D03*
X009000Y010500D03*
X015000Y007500D03*
X013000Y007500D03*
X011000Y004500D03*
X005000Y009500D03*
X007000Y009500D03*
X011000Y007500D03*
X005000Y010500D03*
X012000Y007500D03*
X015000Y006500D03*
X012000Y004500D03*
X012000Y008500D03*
X015000Y008500D03*
X009000Y004500D03*
X015000Y010500D03*
X006000Y010500D03*
X011000Y008500D03*
X006000Y009500D03*
X007000Y004500D03*
X013000Y008500D03*
X010000Y008500D03*
X003000Y004500D03*
X004000Y004500D03*
X008000Y008500D03*
X015000Y005500D03*
X004000Y010500D03*
X015000Y009500D03*
X003000Y010500D03*
X006000Y004500D03*
X008000Y007500D03*
X012000Y010500D03*
X013000Y004500D03*
X005000Y004500D03*
X010000Y007500D03*
X010000Y004500D03*
X014000Y004500D03*
X014000Y008500D03*
X009000Y007500D03*
X014000Y007500D03*
X016940Y005250D02*
X016550Y005250D01*
X018950Y002250D02*
X018550Y002250D01*
X018950Y005250D02*
X018550Y005250D01*
X016940Y002250D02*
X016550Y002250D01*
X029950Y005250D02*
X029550Y005250D01*
X031950Y002250D02*
X031550Y002250D01*
X031950Y005250D02*
X031550Y005250D01*
X029950Y002250D02*
X029550Y002250D01*
X004450Y018500D02*
X004040Y018500D01*
X004450Y022500D02*
X004050Y022500D01*
X004450Y019490D02*
X004040Y019490D01*
X004450Y021490D02*
X004050Y021490D01*
X004450Y020500D02*
X004050Y020500D01*
X020200Y005250D02*
X019800Y005250D01*
X022200Y002250D02*
X021800Y002250D01*
X022200Y005250D02*
X021800Y005250D01*
X020200Y002250D02*
X019800Y002250D01*
X026690Y005250D02*
X026290Y005250D01*
X028700Y002250D02*
X028300Y002250D01*
X028700Y005250D02*
X028300Y005250D01*
X026690Y002250D02*
X026290Y002250D01*
X034300Y015990D02*
X034700Y015990D01*
X034300Y016990D02*
X034700Y016990D01*
D29*
X002000Y004500D03*
D30*
X022500Y026000D03*
X022500Y026990D03*
D31*
X013000Y020500D03*
D32*
X014000Y027500D03*
D33*
X019250Y015750D03*
X005000Y030000D03*
X008000Y029000D03*
X003000Y029000D03*
D34*
X019000Y020500D03*
X019000Y021490D03*
X019000Y022500D03*
X019000Y025500D03*
X019000Y026490D03*
X019000Y027500D03*
M02*
