G70*
%FSAX24Y24*%
%ADD10R,0.0394X0.0394*%
%ADD11C,0.2362*%
%ADD12R,0.0520X0.0520*%
%ADD13C,0.0520*%
%ADD14C,0.0400*%
%ADD15C,0.0750*%
%ADD16R,0.2400X0.4000*%
%ADD17R,0.1000X0.0750*%
%ADD18C,0.0709*%
%ADD19R,0.0709X0.0709*%
%ADD20C,0.3150*%
%ADD21C,0.1575*%
%ADD22C,0.0591*%
%ADD23R,0.0591X0.1000*%
%ADD24C,0.0700*%
%ADD25R,0.1000X0.0600*%
%ADD26C,0.0600*%
%ADD27R,0.0600X0.0600*%
%ADD28R,0.1000X0.1100*%
%ADD29R,0.0750X0.1000*%
%ADD30R,0.4000X0.2400*%
%ADD31R,0.0520X0.1000*%
%ADD32C,0.0500*%
D10*
X000190Y000190D02*
X039170Y000190D01*
X039170Y039170D01*
X000190Y039170D01*
X000190Y000190D01*
D11*
X037250Y037250D03*
X001990Y037250D03*
X037250Y002250D03*
X001990Y002250D03*
D12*
X017000Y017240D03*
X006000Y013990D03*
X028000Y022000D03*
X018000Y024000D03*
X021500Y022500D03*
X031500Y017250D03*
X026500Y020500D03*
X032000Y012240D03*
X034250Y003000D03*
X020000Y012740D03*
X006000Y015990D03*
X017740Y010000D03*
X007500Y020500D03*
X020000Y030500D03*
X017240Y007000D03*
X024000Y014250D03*
X022250Y017240D03*
X021000Y010000D03*
X012000Y015750D03*
X012000Y018500D03*
X032000Y014740D03*
X030000Y012750D03*
X012000Y014250D03*
X027500Y010000D03*
X024250Y010000D03*
X017000Y029000D03*
X023750Y007000D03*
X027000Y007000D03*
X018000Y033000D03*
X020500Y007000D03*
X030750Y010000D03*
X030250Y007000D03*
X036000Y013500D03*
X012000Y012740D03*
D13*
X021000Y017240D03*
X010000Y013990D03*
X027500Y027500D03*
X027500Y025500D03*
X032000Y022000D03*
X022000Y024000D03*
X025500Y022500D03*
X027500Y017250D03*
X030500Y020500D03*
X036000Y012240D03*
X034250Y002000D03*
X024000Y012740D03*
X007000Y015000D03*
X010000Y015000D03*
X010000Y015990D03*
X007500Y032750D03*
X005500Y032750D03*
X018990Y018750D03*
X021000Y018750D03*
X011500Y020500D03*
X024000Y030500D03*
X018250Y007000D03*
X020000Y014250D03*
X009000Y013000D03*
X006000Y013000D03*
X026250Y017240D03*
X025260Y026000D02*
X025740Y026000D01*
X025260Y026990D02*
X025740Y026990D01*
X024250Y018750D03*
X026250Y018750D03*
X016000Y015750D03*
X028250Y015510D02*
X028250Y015990D01*
X021250Y015510D02*
X021250Y015990D01*
X025250Y015510D02*
X025250Y015990D01*
X027250Y015510D02*
X027250Y015990D01*
X026250Y015510D02*
X026250Y015990D01*
X024250Y015510D02*
X024250Y015990D01*
X022250Y015510D02*
X022250Y015990D01*
X023250Y015510D02*
X023250Y015990D01*
X020250Y015510D02*
X020250Y015990D01*
X028500Y030240D03*
X028500Y032250D03*
X016000Y018500D03*
X036000Y014740D03*
X026000Y012750D03*
X016000Y014250D03*
X029250Y018750D03*
X031250Y018750D03*
X018000Y029000D03*
X024750Y007000D03*
X028000Y007000D03*
X027500Y030240D03*
X027500Y032250D03*
X013990Y033000D03*
X021500Y007000D03*
X031250Y007000D03*
X032000Y013500D03*
X016000Y012740D03*
D14*
X015950Y009680D03*
D15*
X029620Y031240D02*
X029870Y031240D01*
X029620Y030240D02*
X029870Y030240D01*
X029620Y026490D02*
X029870Y026490D01*
X029620Y025500D02*
X029870Y025500D01*
X015000Y020370D02*
X015000Y020620D01*
X014000Y020370D02*
X014000Y020620D01*
D16*
X036750Y031240D03*
X036750Y026490D03*
D17*
X029750Y032250D03*
X029750Y027500D03*
D18*
X027990Y034740D03*
X023000Y029000D03*
X025000Y034500D03*
X007750Y022000D03*
D19*
X031000Y034740D03*
X020000Y029000D03*
X022000Y034500D03*
X010750Y022000D03*
D20*
X010000Y037250D03*
X014500Y037250D03*
X028500Y037250D03*
X033250Y037250D03*
X005500Y037250D03*
X023500Y037250D03*
D21*
X001250Y012750D03*
X038000Y034490D03*
X001250Y034490D03*
X038000Y012750D03*
X032920Y008200D03*
X038040Y008200D03*
D22*
X009250Y034290D02*
X009250Y034700D01*
X019250Y034290D02*
X019250Y034700D01*
X013250Y034290D02*
X013250Y034700D01*
X014250Y034290D02*
X014250Y034700D01*
X006250Y034290D02*
X006250Y034700D01*
X010250Y034290D02*
X010250Y034700D01*
X011250Y034290D02*
X011250Y034700D01*
X018250Y034290D02*
X018250Y034700D01*
X007250Y034290D02*
X007250Y034700D01*
X005250Y034290D02*
X005250Y034700D01*
X017240Y034290D02*
X017240Y034700D01*
X015250Y034290D02*
X015250Y034700D01*
X016250Y034290D02*
X016250Y034700D01*
X008250Y034290D02*
X008250Y034700D01*
X012250Y034290D02*
X012250Y034700D01*
D23*
X004250Y034490D03*
D24*
X035480Y010800D02*
X035480Y011100D01*
X036460Y010800D02*
X036460Y011100D01*
X036460Y005100D02*
X036460Y005390D01*
X034500Y010800D02*
X034500Y011100D01*
X034500Y005100D02*
X034500Y005390D01*
D25*
X034500Y023000D03*
X004250Y023500D03*
X034500Y018000D03*
D26*
X034300Y021000D02*
X034700Y021000D01*
X034300Y022000D02*
X034700Y022000D01*
X023450Y005250D02*
X023050Y005250D01*
X025450Y002250D02*
X025050Y002250D01*
X025450Y005250D02*
X025050Y005250D01*
X023450Y002250D02*
X023050Y002250D01*
X014000Y010500D03*
X008000Y010500D03*
X008000Y004500D03*
X009000Y008500D03*
X015000Y004500D03*
X013000Y010500D03*
X007000Y010500D03*
X010000Y010500D03*
X003000Y009500D03*
X011000Y010500D03*
X002000Y010500D03*
X009000Y010500D03*
X015000Y007500D03*
X013000Y007500D03*
X011000Y004500D03*
X005000Y009500D03*
X007000Y009500D03*
X011000Y007500D03*
X005000Y010500D03*
X012000Y007500D03*
X015000Y006500D03*
X012000Y004500D03*
X012000Y008500D03*
X015000Y008500D03*
X009000Y004500D03*
X015000Y010500D03*
X006000Y010500D03*
X011000Y008500D03*
X006000Y009500D03*
X007000Y004500D03*
X013000Y008500D03*
X010000Y008500D03*
X003000Y004500D03*
X004000Y004500D03*
X008000Y008500D03*
X015000Y005500D03*
X004000Y010500D03*
X015000Y009500D03*
X003000Y010500D03*
X006000Y004500D03*
X008000Y007500D03*
X012000Y010500D03*
X013000Y004500D03*
X005000Y004500D03*
X010000Y007500D03*
X010000Y004500D03*
X014000Y004500D03*
X014000Y008500D03*
X009000Y007500D03*
X014000Y007500D03*
X016940Y005250D02*
X016550Y005250D01*
X018950Y002250D02*
X018550Y002250D01*
X018950Y005250D02*
X018550Y005250D01*
X016940Y002250D02*
X016550Y002250D01*
X029950Y005250D02*
X029550Y005250D01*
X031950Y002250D02*
X031550Y002250D01*
X031950Y005250D02*
X031550Y005250D01*
X029950Y002250D02*
X029550Y002250D01*
X004450Y018500D02*
X004040Y018500D01*
X004450Y022500D02*
X004050Y022500D01*
X004450Y019490D02*
X004040Y019490D01*
X004450Y021490D02*
X004050Y021490D01*
X004450Y020500D02*
X004050Y020500D01*
X020200Y005250D02*
X019800Y005250D01*
X022200Y002250D02*
X021800Y002250D01*
X022200Y005250D02*
X021800Y005250D01*
X020200Y002250D02*
X019800Y002250D01*
X026690Y005250D02*
X026290Y005250D01*
X028700Y002250D02*
X028300Y002250D01*
X028700Y005250D02*
X028300Y005250D01*
X026690Y002250D02*
X026290Y002250D01*
X034300Y015990D02*
X034700Y015990D01*
X034300Y016990D02*
X034700Y016990D01*
D27*
X002000Y004500D03*
D28*
X022500Y026000D03*
X022500Y026990D03*
D29*
X013000Y020500D03*
D30*
X014000Y027500D03*
D31*
X019250Y015750D03*
X005000Y030000D03*
X008000Y029000D03*
X003000Y029000D03*
D32*
X019000Y020500D03*
X019000Y021490D03*
X019000Y022500D03*
X019000Y025500D03*
X019000Y026490D03*
X019000Y027500D03*
M02*
