G70*
%FSAX24Y24*%
%ADD10R,0.0394X0.0394*%
%ADD11C,0.0150*%
%ADD12C,0.0399*%
%ADD13C,0.2362*%
%ADD14R,0.0520X0.0520*%
%ADD15C,0.0520*%
%ADD16C,0.0400*%
%ADD17C,0.0750*%
%ADD18R,0.2400X0.4000*%
%ADD19R,0.4500X0.4000*%
%ADD20R,0.1000X0.0750*%
%ADD21C,0.0709*%
%ADD22R,0.0709X0.0709*%
%ADD23C,0.3150*%
%ADD24C,0.1575*%
%ADD25C,0.0591*%
%ADD26R,0.0591X0.1000*%
%ADD27C,0.0700*%
%ADD28R,0.1000X0.0600*%
%ADD29C,0.0600*%
%ADD30R,0.0600X0.0600*%
%ADD31R,0.1000X0.1100*%
%ADD32R,0.0750X0.1000*%
%ADD33R,0.4000X0.4500*%
%ADD34R,0.4000X0.2400*%
%ADD35R,0.0520X0.1000*%
%ADD36C,0.0500*%
D10*
X000190Y000190D02*
X039170Y000190D01*
X039170Y039170D01*
X000190Y039170D01*
X000190Y000190D01*
D11*
X013240Y008020D02*
X012820Y008020D01*
X028640Y016430D02*
X028680Y016390D01*
X011930Y019850D02*
X011930Y021250D01*
X013820Y035170D02*
X013770Y035130D01*
X003570Y025060D02*
X003570Y023060D01*
X024250Y015580D02*
X023310Y014640D01*
X027490Y007140D02*
X027490Y001680D01*
X015520Y008700D02*
X015520Y005020D01*
X022250Y017250D02*
X021450Y016450D01*
X020250Y015750D02*
X020250Y015490D01*
X007500Y020500D02*
X007000Y020000D01*
X014890Y011010D02*
X014560Y011010D01*
X003570Y017190D02*
X003570Y019200D01*
X010000Y015000D02*
X010000Y014000D01*
X017390Y028600D02*
X017390Y018750D01*
X034380Y016000D02*
X034500Y016000D01*
X018560Y012290D02*
X015950Y009680D01*
X019000Y025500D02*
X020000Y026500D01*
X017420Y015420D02*
X017420Y013180D01*
X029120Y007010D02*
X029120Y011010D01*
X020490Y008400D02*
X017820Y005730D01*
X008000Y004500D02*
X005500Y007000D01*
X030000Y012750D02*
X031240Y011500D01*
X008500Y006000D02*
X008500Y012620D01*
X011500Y018930D02*
X011500Y010060D01*
X013500Y008270D02*
X013240Y008020D01*
X004920Y022940D02*
X004920Y021540D01*
X011930Y021250D02*
X011560Y021620D01*
X024120Y027870D02*
X023000Y029000D01*
X018560Y016160D02*
X018560Y012290D01*
X017000Y029000D02*
X017390Y028600D01*
X019970Y017970D02*
X017420Y015420D01*
X027060Y016430D02*
X028640Y016430D01*
X028250Y011880D02*
X028250Y015750D01*
X004500Y015420D02*
X003060Y016860D01*
X022250Y008390D02*
X020930Y007080D01*
X031500Y018500D02*
X031500Y017250D01*
X013000Y010500D02*
X013000Y019370D01*
X019250Y012430D02*
X015520Y008700D01*
X004120Y020500D02*
X004250Y020500D01*
X026560Y006360D02*
X027170Y005750D01*
X021000Y007500D02*
X020500Y007000D01*
X009470Y010020D02*
X009000Y010500D01*
X029120Y011010D02*
X028250Y011880D01*
X036460Y004210D02*
X034250Y002000D01*
X003310Y019680D02*
X004120Y020500D01*
X010000Y004500D02*
X008500Y006000D01*
X007500Y029500D02*
X007500Y032750D01*
X017420Y013180D02*
X015490Y011250D01*
X013500Y009010D02*
X013500Y008270D01*
X004920Y021540D02*
X004880Y021500D01*
X006250Y031250D02*
X006250Y034500D01*
X036990Y007740D02*
X034500Y005250D01*
X004520Y004060D02*
X004560Y004010D01*
X031500Y017250D02*
X031500Y014000D01*
X008870Y037250D02*
X006720Y035100D01*
X003500Y015550D02*
X003500Y006050D01*
X014400Y001090D02*
X011000Y004500D01*
X024120Y023870D02*
X024120Y027870D01*
X036530Y012250D02*
X036990Y011780D01*
X020930Y007080D02*
X020930Y003180D01*
X026250Y017250D02*
X027060Y016430D01*
X014000Y015560D02*
X014000Y010500D01*
X011560Y031390D02*
X014250Y034070D01*
X005000Y030000D02*
X006250Y031250D01*
X003060Y016860D02*
X003060Y021470D01*
X010520Y011020D02*
X010000Y010500D01*
X008000Y029000D02*
X007500Y029500D01*
X023310Y014640D02*
X023310Y006600D01*
X026910Y001090D02*
X014400Y001090D01*
X016460Y014710D02*
X016000Y014250D01*
X021250Y011370D02*
X020490Y010620D01*
X012820Y008020D02*
X012500Y007700D01*
X003570Y023060D02*
X003610Y023020D01*
X004250Y023500D02*
X008000Y027240D01*
X027170Y005750D02*
X027170Y002920D01*
X036000Y012250D02*
X036530Y012250D01*
X003310Y016990D02*
X003310Y019680D01*
X009000Y013000D02*
X010000Y014000D01*
X020250Y015490D02*
X019560Y014800D01*
X019560Y009770D01*
X015490Y009040D02*
X015430Y008970D01*
X011000Y018090D02*
X011000Y010500D01*
X007250Y034500D02*
X007250Y034110D01*
X015490Y011250D02*
X015490Y009040D01*
X016130Y001360D02*
X013000Y004500D01*
X006510Y004010D02*
X007000Y004500D01*
X004560Y004010D02*
X006510Y004010D01*
X010000Y037250D02*
X008870Y037250D01*
X016460Y018020D02*
X014000Y015560D01*
X014250Y034070D02*
X014250Y034500D01*
X025500Y022500D02*
X024120Y023870D01*
X017390Y018750D02*
X017390Y018490D01*
X031240Y011500D02*
X031250Y007000D01*
X009250Y019840D02*
X011000Y018090D01*
X019250Y034250D02*
X019250Y034500D01*
X010520Y017280D02*
X010520Y011020D01*
X013770Y033950D02*
X011310Y031490D01*
X025250Y015750D02*
X025250Y015800D01*
X017250Y009500D02*
X017750Y010000D01*
X015430Y008970D02*
X014540Y008970D01*
X016460Y017560D02*
X016460Y014710D01*
X008500Y012620D02*
X004250Y016870D01*
X003060Y021470D02*
X004080Y022500D01*
X021320Y005840D02*
X021320Y002500D01*
X004840Y023020D02*
X004920Y022940D01*
X006500Y007000D02*
X006500Y014260D01*
X023310Y006600D02*
X023920Y005990D01*
X021250Y015750D02*
X021250Y011370D01*
X023920Y002920D02*
X023250Y002250D01*
X016000Y012750D02*
X016000Y014250D01*
X025250Y015800D02*
X023080Y017970D01*
X017250Y007000D02*
X017250Y009500D01*
X012440Y021410D02*
X011820Y022040D01*
X026560Y015430D02*
X026560Y006360D01*
X004080Y022500D02*
X004250Y022500D01*
X003500Y006050D02*
X004520Y005030D01*
X021320Y002500D02*
X020180Y001360D01*
X017200Y035170D02*
X013820Y035170D01*
X012430Y019350D02*
X011930Y019850D01*
X015520Y005020D02*
X015000Y004500D01*
X021000Y010000D02*
X021000Y007500D01*
X017390Y018750D02*
X019000Y018750D01*
X031750Y002250D02*
X031270Y001770D01*
X006720Y028210D02*
X003570Y025060D01*
X017000Y013110D02*
X014890Y011010D01*
X028680Y015560D02*
X032000Y012250D01*
X036000Y014750D02*
X034500Y013250D01*
X033820Y017170D02*
X033820Y016560D01*
X021450Y016450D02*
X018850Y016450D01*
X036460Y005250D02*
X036460Y004210D01*
X011310Y031490D02*
X011310Y021370D01*
X028060Y007710D02*
X027490Y007140D01*
X017570Y003070D02*
X016750Y002250D01*
X023750Y009500D02*
X023750Y007000D01*
X031500Y014000D02*
X032000Y013500D01*
X006500Y014260D02*
X003570Y017190D01*
X017420Y001770D02*
X016090Y001770D01*
X004250Y016870D02*
X004250Y018500D01*
X008430Y032920D02*
X008430Y019360D01*
X003000Y029000D02*
X003000Y030250D01*
X033820Y016560D02*
X034380Y016000D01*
X023920Y005990D02*
X023920Y002920D01*
X017820Y005730D02*
X017820Y002160D01*
X031270Y001770D02*
X028970Y001770D01*
X030420Y005710D02*
X029120Y007010D01*
X023060Y015560D02*
X023060Y007580D01*
X011560Y021620D02*
X011560Y031390D01*
X026250Y015750D02*
X026560Y015430D01*
X018850Y016450D02*
X018560Y016160D01*
X005500Y007000D02*
X005500Y014800D01*
X016090Y001770D02*
X014000Y003860D01*
X024000Y012750D02*
X026000Y012750D01*
X012440Y019920D02*
X012440Y021410D01*
X011060Y021110D02*
X011060Y019360D01*
X003890Y003600D02*
X003000Y004500D01*
X020180Y001360D02*
X016130Y001360D01*
X017000Y017250D02*
X017000Y013110D01*
X023250Y015750D02*
X023060Y015560D01*
X027250Y015750D02*
X027250Y011120D01*
X014500Y008930D02*
X014500Y007000D01*
X008000Y027240D02*
X008000Y029000D01*
X017570Y006250D02*
X017570Y003070D01*
X017810Y006490D02*
X017570Y006250D01*
X034500Y013250D02*
X034500Y010950D01*
X015250Y033040D02*
X015250Y034500D01*
X015820Y018500D02*
X016000Y018500D01*
X019560Y009770D02*
X017810Y008020D01*
X006000Y004500D02*
X004500Y006000D01*
X007250Y034110D02*
X008430Y032920D01*
X009840Y003600D02*
X003890Y003600D01*
X011450Y010020D02*
X009470Y010020D01*
X011310Y021370D02*
X011060Y021110D01*
X024250Y010000D02*
X023750Y009500D01*
X014000Y020500D02*
X014000Y020320D01*
X017820Y002160D02*
X017420Y001770D01*
X018000Y033000D02*
X019250Y034250D01*
X013770Y035130D02*
X013770Y033950D01*
X012500Y007010D02*
X010500Y005010D01*
X014500Y007000D02*
X012000Y004500D01*
X004880Y021500D02*
X004250Y021500D01*
X003610Y023020D02*
X002810Y022210D01*
X017390Y018490D02*
X016460Y017560D01*
X004520Y005030D02*
X004520Y004060D01*
X030420Y002920D02*
X030420Y005710D01*
X002810Y016240D02*
X003500Y015550D01*
X016250Y034500D02*
X016460Y034280D01*
X036990Y011780D02*
X036990Y007740D01*
X005500Y014800D02*
X003310Y016990D01*
X003610Y023020D02*
X004840Y023020D01*
X030750Y010000D02*
X030750Y007500D01*
X013000Y019370D02*
X012440Y019920D01*
X011060Y019360D02*
X011500Y018930D01*
X002810Y022210D02*
X002810Y016240D01*
X011820Y022040D02*
X011820Y029610D01*
X010500Y004260D02*
X009840Y003600D01*
X017250Y035130D02*
X017200Y035170D01*
X014560Y011010D02*
X014520Y010970D01*
X011820Y029610D02*
X015250Y033040D01*
X014000Y020320D02*
X015820Y018500D01*
X017810Y008020D02*
X017810Y006490D01*
X004500Y006000D02*
X004500Y015420D01*
X012500Y007700D02*
X012500Y007010D01*
X003860Y019500D02*
X004250Y019500D01*
X030750Y007500D02*
X030250Y007000D01*
X012430Y010930D02*
X012430Y019350D01*
X027170Y002920D02*
X026500Y002250D01*
X027500Y010000D02*
X027500Y007500D01*
X031250Y018750D02*
X031500Y018500D01*
X010500Y005010D02*
X010500Y004260D01*
X022250Y015750D02*
X022250Y008390D01*
X028680Y016390D02*
X028680Y015560D01*
X028060Y010300D02*
X028060Y007710D01*
X030500Y020500D02*
X033820Y017170D01*
X029750Y002250D02*
X030420Y002920D01*
X016460Y034280D02*
X016460Y018020D01*
X009250Y034500D02*
X009250Y019840D01*
X008430Y019360D02*
X010520Y017280D01*
X007000Y020000D02*
X007000Y015000D01*
X014520Y010030D02*
X013500Y009010D01*
X003570Y019200D02*
X003860Y019500D01*
X003000Y030250D02*
X005500Y032750D01*
X014000Y003860D02*
X014000Y004500D01*
X028970Y001770D02*
X028500Y002250D01*
X023060Y007580D02*
X021320Y005840D01*
X024000Y030500D02*
X023000Y029500D01*
X006720Y035100D02*
X006720Y028210D01*
X017250Y034500D02*
X017250Y035130D01*
X014540Y008970D02*
X014500Y008930D01*
X019250Y015750D02*
X019250Y012430D01*
X020000Y026500D02*
X020000Y029000D01*
X014520Y010970D02*
X014520Y010030D01*
X024250Y015750D02*
X024250Y015580D01*
X009000Y004500D02*
X006500Y007000D01*
X020930Y003180D02*
X020000Y002250D01*
X027500Y007500D02*
X027000Y007000D01*
X026250Y018750D02*
X026250Y017250D01*
X023000Y029500D02*
X023000Y029000D01*
X027250Y011120D02*
X028060Y010300D01*
X012000Y010500D02*
X012430Y010930D01*
X027490Y001680D02*
X026910Y001090D01*
X020490Y010620D02*
X020490Y008400D01*
X023080Y017970D02*
X019970Y017970D01*
X011500Y010060D02*
X011450Y010020D01*
D12*
X019000Y027500D02*
X019000Y029500D01*
X028000Y034750D02*
X027020Y034750D01*
X028500Y026500D02*
X029750Y026500D01*
X028500Y032250D02*
X028500Y031130D01*
X035300Y017110D02*
X035300Y021480D01*
X027500Y027500D02*
X028500Y026500D01*
X021650Y026340D02*
X022000Y026000D01*
X028000Y036750D02*
X028500Y037250D01*
X034780Y022000D02*
X034500Y022000D01*
X022000Y034500D02*
X022000Y035750D01*
X028000Y034750D02*
X028000Y036750D01*
X035300Y021480D02*
X034780Y022000D01*
X031000Y031810D02*
X031000Y034750D01*
X029380Y030250D02*
X029750Y030250D01*
X028130Y032880D02*
X029110Y032880D01*
X034500Y017000D02*
X035180Y017000D01*
X022000Y026000D02*
X022500Y026000D01*
X027500Y032250D02*
X028130Y032880D01*
X027020Y034750D02*
X021650Y029370D01*
X021650Y026340D01*
X022000Y024000D02*
X022000Y026000D01*
X031000Y034750D02*
X033250Y037000D01*
X019000Y020500D02*
X018400Y021090D01*
X018000Y025240D02*
X018000Y029000D01*
X022000Y035750D02*
X023500Y037250D01*
X033250Y037000D02*
X033250Y037250D01*
X018560Y024670D02*
X018000Y025240D01*
X029750Y027500D02*
X029750Y030250D01*
X030430Y031250D02*
X031000Y031810D01*
X018400Y021090D02*
X018400Y022690D01*
X028500Y031130D02*
X029380Y030250D01*
X018560Y022840D02*
X018560Y024670D01*
X029110Y032880D02*
X029750Y032250D01*
X019000Y029500D02*
X020000Y030500D01*
X035180Y017000D02*
X035300Y017110D01*
X029750Y031250D02*
X030430Y031250D01*
X018400Y022690D02*
X018560Y022840D01*
D13*
X037250Y037250D03*
X001990Y037250D03*
X037250Y002250D03*
X001990Y002250D03*
D14*
X017000Y017240D03*
X006000Y013990D03*
X028000Y022000D03*
X018000Y024000D03*
X021500Y022500D03*
X031500Y017250D03*
X026500Y020500D03*
X032000Y012240D03*
X034250Y003000D03*
X020000Y012740D03*
X006000Y015990D03*
X017740Y010000D03*
X007500Y020500D03*
X020000Y030500D03*
X017240Y007000D03*
X024000Y014250D03*
X022250Y017240D03*
X021000Y010000D03*
X012000Y015750D03*
X012000Y018500D03*
X032000Y014740D03*
X030000Y012750D03*
X012000Y014250D03*
X027500Y010000D03*
X024250Y010000D03*
X017000Y029000D03*
X023750Y007000D03*
X027000Y007000D03*
X018000Y033000D03*
X020500Y007000D03*
X030750Y010000D03*
X030250Y007000D03*
X036000Y013500D03*
X012000Y012740D03*
D15*
X021000Y017240D03*
X010000Y013990D03*
X027500Y027500D03*
X027500Y025500D03*
X032000Y022000D03*
X022000Y024000D03*
X025500Y022500D03*
X027500Y017250D03*
X030500Y020500D03*
X036000Y012240D03*
X034250Y002000D03*
X024000Y012740D03*
X007000Y015000D03*
X010000Y015000D03*
X010000Y015990D03*
X007500Y032750D03*
X005500Y032750D03*
X018990Y018750D03*
X021000Y018750D03*
X011500Y020500D03*
X024000Y030500D03*
X018250Y007000D03*
X020000Y014250D03*
X009000Y013000D03*
X006000Y013000D03*
X026250Y017240D03*
X025260Y026000D02*
X025740Y026000D01*
X025260Y026990D02*
X025740Y026990D01*
X024250Y018750D03*
X026250Y018750D03*
X016000Y015750D03*
X028250Y015510D02*
X028250Y015990D01*
X021250Y015510D02*
X021250Y015990D01*
X025250Y015510D02*
X025250Y015990D01*
X027250Y015510D02*
X027250Y015990D01*
X026250Y015510D02*
X026250Y015990D01*
X024250Y015510D02*
X024250Y015990D01*
X022250Y015510D02*
X022250Y015990D01*
X023250Y015510D02*
X023250Y015990D01*
X020250Y015510D02*
X020250Y015990D01*
X028500Y030240D03*
X028500Y032250D03*
X016000Y018500D03*
X036000Y014740D03*
X026000Y012750D03*
X016000Y014250D03*
X029250Y018750D03*
X031250Y018750D03*
X018000Y029000D03*
X024750Y007000D03*
X028000Y007000D03*
X027500Y030240D03*
X027500Y032250D03*
X013990Y033000D03*
X021500Y007000D03*
X031250Y007000D03*
X032000Y013500D03*
X016000Y012740D03*
D16*
X015950Y009680D03*
D17*
X029620Y031240D02*
X029870Y031240D01*
X029620Y030240D02*
X029870Y030240D01*
X029620Y026490D02*
X029870Y026490D01*
X029620Y025500D02*
X029870Y025500D01*
X015000Y020370D02*
X015000Y020620D01*
X014000Y020370D02*
X014000Y020620D01*
D18*
X036750Y031240D03*
X036750Y026490D03*
D19*
X033750Y031240D03*
X033750Y026490D03*
D20*
X029750Y032250D03*
X029750Y027500D03*
D21*
X027990Y034740D03*
X023000Y029000D03*
X025000Y034500D03*
X007750Y022000D03*
D22*
X031000Y034740D03*
X020000Y029000D03*
X022000Y034500D03*
X010750Y022000D03*
D23*
X010000Y037250D03*
X014500Y037250D03*
X028500Y037250D03*
X033250Y037250D03*
X005500Y037250D03*
X023500Y037250D03*
D24*
X001250Y012750D03*
X038000Y034490D03*
X001250Y034490D03*
X038000Y012750D03*
X032920Y008200D03*
X038040Y008200D03*
D25*
X009250Y034290D02*
X009250Y034700D01*
X019250Y034290D02*
X019250Y034700D01*
X013250Y034290D02*
X013250Y034700D01*
X014250Y034290D02*
X014250Y034700D01*
X006250Y034290D02*
X006250Y034700D01*
X010250Y034290D02*
X010250Y034700D01*
X011250Y034290D02*
X011250Y034700D01*
X018250Y034290D02*
X018250Y034700D01*
X007250Y034290D02*
X007250Y034700D01*
X005250Y034290D02*
X005250Y034700D01*
X017240Y034290D02*
X017240Y034700D01*
X015250Y034290D02*
X015250Y034700D01*
X016250Y034290D02*
X016250Y034700D01*
X008250Y034290D02*
X008250Y034700D01*
X012250Y034290D02*
X012250Y034700D01*
D26*
X004250Y034490D03*
D27*
X035480Y010800D02*
X035480Y011100D01*
X036460Y010800D02*
X036460Y011100D01*
X036460Y005100D02*
X036460Y005390D01*
X034500Y010800D02*
X034500Y011100D01*
X034500Y005100D02*
X034500Y005390D01*
D28*
X034500Y023000D03*
X004250Y023500D03*
X034500Y018000D03*
D29*
X034300Y021000D02*
X034700Y021000D01*
X034300Y022000D02*
X034700Y022000D01*
X023450Y005250D02*
X023050Y005250D01*
X025450Y002250D02*
X025050Y002250D01*
X025450Y005250D02*
X025050Y005250D01*
X023450Y002250D02*
X023050Y002250D01*
X014000Y010500D03*
X008000Y010500D03*
X008000Y004500D03*
X009000Y008500D03*
X015000Y004500D03*
X013000Y010500D03*
X007000Y010500D03*
X010000Y010500D03*
X003000Y009500D03*
X011000Y010500D03*
X002000Y010500D03*
X009000Y010500D03*
X015000Y007500D03*
X013000Y007500D03*
X011000Y004500D03*
X005000Y009500D03*
X007000Y009500D03*
X011000Y007500D03*
X005000Y010500D03*
X012000Y007500D03*
X015000Y006500D03*
X012000Y004500D03*
X012000Y008500D03*
X015000Y008500D03*
X009000Y004500D03*
X015000Y010500D03*
X006000Y010500D03*
X011000Y008500D03*
X006000Y009500D03*
X007000Y004500D03*
X013000Y008500D03*
X010000Y008500D03*
X003000Y004500D03*
X004000Y004500D03*
X008000Y008500D03*
X015000Y005500D03*
X004000Y010500D03*
X015000Y009500D03*
X003000Y010500D03*
X006000Y004500D03*
X008000Y007500D03*
X012000Y010500D03*
X013000Y004500D03*
X005000Y004500D03*
X010000Y007500D03*
X010000Y004500D03*
X014000Y004500D03*
X014000Y008500D03*
X009000Y007500D03*
X014000Y007500D03*
X016940Y005250D02*
X016550Y005250D01*
X018950Y002250D02*
X018550Y002250D01*
X018950Y005250D02*
X018550Y005250D01*
X016940Y002250D02*
X016550Y002250D01*
X029950Y005250D02*
X029550Y005250D01*
X031950Y002250D02*
X031550Y002250D01*
X031950Y005250D02*
X031550Y005250D01*
X029950Y002250D02*
X029550Y002250D01*
X004450Y018500D02*
X004040Y018500D01*
X004450Y022500D02*
X004050Y022500D01*
X004450Y019490D02*
X004040Y019490D01*
X004450Y021490D02*
X004050Y021490D01*
X004450Y020500D02*
X004050Y020500D01*
X020200Y005250D02*
X019800Y005250D01*
X022200Y002250D02*
X021800Y002250D01*
X022200Y005250D02*
X021800Y005250D01*
X020200Y002250D02*
X019800Y002250D01*
X026690Y005250D02*
X026290Y005250D01*
X028700Y002250D02*
X028300Y002250D01*
X028700Y005250D02*
X028300Y005250D01*
X026690Y002250D02*
X026290Y002250D01*
X034300Y015990D02*
X034700Y015990D01*
X034300Y016990D02*
X034700Y016990D01*
D30*
X002000Y004500D03*
D31*
X022500Y026000D03*
X022500Y026990D03*
D32*
X013000Y020500D03*
D33*
X014000Y024500D03*
D34*
X014000Y027500D03*
D35*
X019250Y015750D03*
X005000Y030000D03*
X008000Y029000D03*
X003000Y029000D03*
D36*
X019000Y020500D03*
X019000Y021490D03*
X019000Y022500D03*
X019000Y025500D03*
X019000Y026490D03*
X019000Y027500D03*
M02*
