M48
INCH
T1C0.118
T2C0.032
T3C0.055
T4C0.150
T5C0.043
T6C0.157
T7C0.039
T8C0.110
T9C0.036
T10C0.040
T11C0.028
T12C0.025
T13C0.020
%
G05
M72
T1
X0.125Y1.275
X0.125Y3.450
X0.200Y0.225
X0.200Y3.725
X3.725Y0.225
X3.725Y3.725
X3.800Y1.275
X3.800Y3.450
T2
X0.300Y2.900
X0.500Y3.000
X0.550Y3.275
X0.600Y1.300
X0.600Y1.400
X0.600Y1.600
X0.700Y1.500
X0.750Y2.050
X0.750Y3.275
X0.800Y2.900
X0.900Y1.300
X1.000Y1.400
X1.000Y1.500
X1.000Y1.600
X1.150Y2.050
X1.200Y1.275
X1.200Y1.425
X1.200Y1.575
X1.200Y1.850
X1.400Y3.300
X1.600Y1.275
X1.600Y1.425
X1.600Y1.575
X1.600Y1.850
X1.700Y1.725
X1.700Y2.900
X1.725Y0.700
X1.775Y1.000
X1.800Y2.400
X1.800Y2.900
X1.800Y3.300
X1.825Y0.700
X1.900Y1.875
X1.925Y1.575
X2.000Y1.275
X2.000Y1.425
X2.000Y3.050
X2.025Y1.575
X2.050Y0.700
X2.100Y1.000
X2.100Y1.725
X2.100Y1.875
X2.125Y1.575
X2.150Y0.700
X2.150Y2.250
X2.200Y2.400
X2.225Y1.575
X2.225Y1.725
X2.250Y2.600
X2.250Y2.700
X2.325Y1.575
X2.375Y0.700
X2.400Y1.275
X2.400Y1.425
X2.400Y3.050
X2.425Y1.000
X2.425Y1.575
X2.425Y1.875
X2.475Y0.700
X2.525Y1.575
X2.550Y2.250
X2.550Y2.600
X2.550Y2.700
X2.600Y1.275
X2.625Y1.575
X2.625Y1.725
X2.625Y1.875
X2.650Y2.050
X2.700Y0.700
X2.725Y1.575
X2.750Y1.000
X2.750Y1.725
X2.750Y2.550
X2.750Y2.750
X2.750Y3.025
X2.750Y3.225
X2.800Y0.700
X2.800Y2.200
X2.825Y1.575
X2.850Y3.025
X2.850Y3.225
X2.925Y1.875
X3.000Y1.275
X3.025Y0.700
X3.050Y2.050
X3.075Y1.000
X3.125Y0.700
X3.125Y1.875
X3.150Y1.725
X3.200Y1.225
X3.200Y1.350
X3.200Y1.475
X3.200Y2.200
X3.425Y0.200
X3.425Y0.300
X3.600Y1.225
X3.600Y1.350
X3.600Y1.475
T3
X1.300Y2.050
X1.400Y2.050
X1.500Y2.050
X2.975Y2.550
X2.975Y2.650
X2.975Y2.750
X2.975Y3.025
X2.975Y3.125
X2.975Y3.225
T4
X1.400Y2.750
X3.675Y2.650
X3.675Y3.125
T5
X0.775Y2.200
X1.075Y2.200
X2.000Y2.900
X2.200Y3.450
X2.300Y2.900
X2.500Y3.450
X2.800Y3.475
X3.100Y3.475
X3.450Y0.525
X3.450Y1.096
X3.548Y1.096
X3.647Y0.525
X3.647Y1.096
T6
X0.550Y3.725
X1.000Y3.725
X1.450Y3.725
X2.350Y3.725
X2.850Y3.725
X3.325Y3.725
T7
X0.425Y3.450
X0.525Y3.450
X0.625Y3.450
X0.725Y3.450
X0.825Y3.450
X0.925Y3.450
X1.025Y3.450
X1.125Y3.450
X1.225Y3.450
X1.325Y3.450
X1.425Y3.450
X1.525Y3.450
X1.625Y3.450
X1.725Y3.450
X1.825Y3.450
X1.925Y3.450
T8
X3.293Y0.820
X3.804Y0.820
T9
X0.425Y1.850
X0.425Y1.950
X0.425Y2.050
X0.425Y2.150
X0.425Y2.250
X0.425Y2.350
X3.450Y1.600
X3.450Y1.700
X3.450Y1.800
X3.450Y2.100
X3.450Y2.200
X3.450Y2.300
T10
X1.675Y0.225
X1.675Y0.525
X1.875Y0.225
X1.875Y0.525
X2.000Y0.225
X2.000Y0.525
X2.200Y0.225
X2.200Y0.525
X2.325Y0.225
X2.325Y0.525
X2.525Y0.225
X2.525Y0.525
X2.650Y0.225
X2.650Y0.525
X2.850Y0.225
X2.850Y0.525
X2.975Y0.225
X2.975Y0.525
X3.175Y0.225
X3.175Y0.525
T11
X0.200Y0.450
X0.200Y1.050
X0.300Y0.450
X0.300Y0.950
X0.300Y1.050
X0.400Y0.450
X0.400Y1.050
X0.500Y0.450
X0.500Y0.950
X0.500Y1.050
X0.600Y0.450
X0.600Y0.950
X0.600Y1.050
X0.700Y0.450
X0.700Y0.950
X0.700Y1.050
X0.800Y0.450
X0.800Y0.750
X0.800Y0.850
X0.800Y1.050
X0.900Y0.450
X0.900Y0.750
X0.900Y0.850
X0.900Y1.050
X1.000Y0.450
X1.000Y0.750
X1.000Y0.850
X1.000Y1.050
X1.100Y0.450
X1.100Y0.750
X1.100Y0.850
X1.100Y1.050
X1.200Y0.450
X1.200Y0.750
X1.200Y0.850
X1.200Y1.050
X1.300Y0.450
X1.300Y0.750
X1.300Y0.850
X1.300Y1.050
X1.400Y0.450
X1.400Y0.750
X1.400Y0.850
X1.400Y1.050
X1.500Y0.450
X1.500Y0.550
X1.500Y0.650
X1.500Y0.750
X1.500Y0.850
X1.500Y0.950
X1.500Y1.050
T12
X1.900Y2.050
X1.900Y2.150
X1.900Y2.250
X1.900Y2.550
X1.900Y2.650
X1.900Y2.750
T13
X1.595Y0.968
T0
M30
