M48
INCH
T1C0.0100
T2C0.0250
T3C0.0280
T4C0.0320
T5C0.0394
T6C0.0400
T7C0.0433
T8C0.0550
T9C0.1102
T10C0.1181
T11C0.1500
T12C0.1575
%
G05
M72
T1
X1.8920Y1.3380
X1.5724Y2.9192
X1.6224Y2.8452
X1.3569Y1.9852
X2.8828Y0.9450
X2.4813Y1.0545
X2.4537Y1.0820
X1.9220Y1.3050
X1.2821Y1.5407
X2.8285Y0.9788
X2.2604Y1.2513
X2.4178Y2.2226
X0.9857Y2.2270
X1.2311Y1.2722
T2
X1.5250Y2.2500
X1.4750Y2.2000
X1.5250Y2.1500
X0.4750Y1.2500
X0.3750Y1.2500
X0.2750Y1.2500
T3
X0.8750Y0.2250
X0.4750Y0.8250
X1.7750Y0.2250
X0.4750Y0.2250
X1.6750Y0.8250
X1.7750Y0.8250
X0.9750Y0.2250
X1.4750Y0.8250
X1.6750Y0.2250
X0.9750Y0.8250
X1.0750Y0.2250
X0.3750Y0.8250
X0.7750Y0.8250
X1.2750Y0.2250
X0.8750Y0.8250
X1.2750Y0.8250
X1.4750Y0.2250
X0.6750Y0.8250
X1.5750Y0.2250
X0.3750Y0.2250
X0.6750Y0.2250
X1.5750Y0.8250
X0.5750Y0.8250
X1.0750Y0.8250
X0.5750Y0.2250
X1.3750Y0.8250
X0.7750Y0.2250
X1.3750Y0.2250
X1.1750Y0.8250
X1.1750Y0.2250
T4
X1.3250Y2.0250
X1.5250Y2.0250
X0.5750Y1.2000
X0.9750Y1.2000
X3.1750Y0.8500
X3.2750Y0.8500
X3.9500Y2.5750
X3.9500Y2.9750
X3.3500Y3.1250
X3.5500Y3.1250
X2.4750Y0.8500
X2.5750Y0.8500
X2.6250Y1.0500
X2.2250Y1.0500
X0.2250Y2.7500
X0.7250Y2.7500
X0.4250Y2.8500
X1.2250Y1.0500
X1.6250Y1.0500
X1.3750Y1.2000
X1.1750Y1.2000
X2.9500Y3.0250
X2.5500Y3.0250
X3.4500Y2.3250
X3.0500Y2.3250
X4.1750Y3.7000
X4.5750Y3.7000
X0.1750Y1.6500
X0.1750Y1.4500
X0.2750Y1.9000
X0.2750Y2.1000
X2.1250Y1.0500
X1.7250Y1.0500
X1.9250Y1.2000
X1.5250Y1.2000
X0.4250Y0.6000
X0.6250Y0.6000
X3.4750Y1.3000
X3.0750Y1.3000
X2.1750Y0.1750
X2.1750Y0.2750
X2.4750Y3.1500
X2.0750Y3.1500
X0.1750Y1.9000
X0.1750Y2.1000
X2.1750Y0.4500
X2.1750Y0.8500
X2.8250Y0.8500
X2.9250Y0.8500
X3.8750Y0.8500
X3.9750Y0.8500
X0.3500Y3.0250
X0.1500Y3.0250
X1.6250Y0.6500
X1.9250Y0.6500
X4.1750Y3.8000
X4.5750Y3.8000
X1.6750Y2.5500
X1.2750Y2.5500
X3.0750Y1.4000
X3.4750Y1.4000
X0.2750Y0.4000
X0.6750Y0.4000
X3.6500Y3.2500
X3.2500Y3.2500
X1.1250Y1.0500
X0.7250Y1.0500
X3.5250Y0.8500
X3.6250Y0.8500
X3.0500Y2.2000
X3.4500Y2.2000
X0.4000Y1.0500
X0.6000Y1.0500
X3.2250Y1.0500
X3.6250Y1.0500
X2.0250Y1.2000
X2.4250Y1.2000
X2.5250Y1.2000
X2.9250Y1.2000
X1.9250Y0.5500
X1.6250Y0.5500
X3.1250Y1.0500
X2.7250Y1.0500
X2.3250Y1.4000
X1.8250Y1.4000
X2.2250Y1.4000
X2.1250Y1.4000
X2.5250Y1.4000
X2.7250Y1.4000
X2.6250Y1.4000
X2.4250Y1.4000
X2.0250Y1.4000
X1.9250Y1.4000
X1.7250Y2.2750
X1.7250Y2.3750
X1.7250Y2.0750
X1.7250Y2.1750
X0.9250Y2.5250
X0.9250Y2.3250
X3.3750Y2.6500
X3.4750Y2.9500
X3.4750Y2.6500
X3.5750Y2.6500
X3.7750Y2.9500
X3.6750Y2.6500
X3.6750Y2.9500
X3.1750Y2.9500
X3.7750Y2.6500
X3.5750Y2.9500
X3.2750Y2.6500
X3.2750Y2.9500
X3.1750Y2.6500
X3.3750Y2.9500
X3.4500Y2.4500
X3.0500Y2.4500
X3.0250Y3.1500
X2.6250Y3.1500
X3.4500Y2.0750
X3.0500Y2.0750
X3.0750Y1.8500
X3.0750Y1.6500
X1.9000Y1.8750
X1.8000Y1.5750
X2.3000Y1.8750
X1.7000Y1.5750
X1.6000Y1.5750
X1.9000Y1.5750
X1.8000Y1.8750
X2.0000Y1.5750
X2.5000Y1.5750
X1.7000Y1.8750
X2.4000Y1.8750
X1.4000Y1.8750
X2.2000Y1.8750
X2.6000Y1.8750
X2.4000Y1.5750
X2.1000Y1.5750
X2.7000Y1.5750
X2.1000Y1.8750
X1.5000Y1.5750
X2.3000Y1.5750
X2.5000Y1.8750
X2.2000Y1.5750
X2.7000Y1.8750
X2.6000Y1.5750
X1.5000Y1.8750
X1.4000Y1.5750
X2.0000Y1.8750
X1.6000Y1.8750
X3.5750Y1.3000
X3.9750Y1.3000
X4.4750Y2.0500
X4.0750Y2.0500
X4.4750Y2.1500
X4.0750Y2.1500
X3.5500Y2.2000
X3.9500Y2.2000
X0.8250Y3.7000
X0.9250Y3.7000
X1.5250Y3.7000
X1.6250Y3.7000
X2.2250Y3.7000
X2.3250Y3.7000
X2.9250Y3.7000
X3.0250Y3.7000
X2.4750Y3.2500
X2.0750Y3.2500
X0.9750Y3.0250
X0.5750Y3.0250
X2.3750Y3.0000
X1.9750Y3.0000
X3.0250Y3.2500
X2.6250Y3.2500
X1.1250Y2.7250
X1.8250Y3.0250
X1.8250Y2.7250
X1.5250Y3.0250
X1.7250Y2.7250
X1.6250Y3.0250
X1.5250Y2.7250
X1.2250Y3.0250
X1.6250Y2.7250
X1.3250Y2.7250
X1.1250Y3.0250
X1.4250Y3.0250
X1.3250Y3.0250
X1.4250Y2.7250
X1.7250Y3.0250
X1.2250Y2.7250
X3.4750Y1.5750
X3.5750Y1.8750
X3.5750Y1.5750
X3.6750Y1.5750
X3.8750Y1.8750
X3.7750Y1.5750
X3.7750Y1.8750
X3.2750Y1.8750
X3.8750Y1.5750
X3.6750Y1.8750
X3.3750Y1.5750
X3.3750Y1.8750
X3.2750Y1.5750
X3.4750Y1.8750
X2.2250Y2.8250
X2.5250Y2.5250
X2.7250Y2.5250
X2.4250Y2.8250
X2.1250Y2.5250
X2.6250Y2.5250
X2.5250Y2.8250
X2.3250Y2.8250
X2.4250Y2.5250
X2.3250Y2.5250
X2.6250Y2.8250
X2.7250Y2.8250
X2.1250Y2.8250
X2.2250Y2.5250
X1.0750Y0.6250
X0.7750Y0.6250
X1.1750Y0.6500
X1.4750Y0.6500
X1.1750Y0.5250
X1.4750Y0.5250
X1.4750Y0.4000
X1.1750Y0.4000
X3.5500Y2.4500
X3.9500Y2.4500
X3.5750Y1.2000
X3.9750Y1.2000
X4.0750Y2.3500
X4.4750Y2.3500
X4.0750Y2.2500
X4.4750Y2.2500
X2.3500Y2.3500
X2.6500Y2.0500
X2.8500Y2.0500
X2.5500Y2.3500
X2.2500Y2.0500
X2.7500Y2.0500
X2.6500Y2.3500
X2.4500Y2.3500
X2.5500Y2.0500
X2.4500Y2.0500
X2.7500Y2.3500
X2.8500Y2.3500
X2.2500Y2.3500
X2.3500Y2.0500
X1.0750Y0.5000
X0.7750Y0.5000
X0.7750Y0.4000
X1.0750Y0.4000
X3.5500Y2.0750
X3.9500Y2.0750
X3.4750Y1.2000
X3.0750Y1.2000
X3.5500Y2.3250
X3.9500Y2.3250
X3.5750Y1.4000
X3.9750Y1.4000
X2.9000Y2.7500
X2.9000Y2.5500
X2.0500Y2.3000
X2.0500Y2.1000
X2.8750Y1.8000
X2.8750Y1.6000
X1.5000Y2.4000
X1.3000Y2.4000
T5
X1.9250Y3.2250
X1.0250Y3.2250
X1.7250Y3.2250
X0.6250Y3.2250
X0.9250Y3.2250
X0.7250Y3.2250
X1.5250Y3.2250
X0.5250Y3.2250
X0.8250Y3.2250
X0.4250Y3.2250
X1.8250Y3.2250
X1.2250Y3.2250
X1.1250Y3.2250
X1.4250Y3.2250
X1.3250Y3.2250
X1.6250Y3.2250
X0.3817Y2.2535G85X0.4683Y2.2535
X0.3069Y2.4071G85X0.3069Y2.4858
X0.5431Y2.4071G85X0.5431Y2.4858
T6
X3.1250Y0.3500
X3.3250Y0.3500
X3.3250Y0.6500
X3.1250Y0.6500
X3.4750Y0.3500
X3.6750Y0.3500
X3.6750Y0.6500
X3.4750Y0.6500
X3.8250Y0.3500
X4.0250Y0.3500
X4.0250Y0.6500
X3.8250Y0.6500
X2.4250Y0.3500
X2.6250Y0.3500
X2.6250Y0.6500
X2.4250Y0.6500
X2.7750Y0.3500
X2.9750Y0.3500
X2.9750Y0.6500
X2.7750Y0.6500
T7
X4.5234Y0.7209
X4.4250Y0.1500
X4.6219Y0.7209
X4.4250Y0.7209
X4.6219Y0.1500
X0.7250Y2.3000
X0.7250Y2.6000
T8
X0.4000Y2.0000
X0.4000Y2.1000
X0.4000Y1.9000
X0.3500Y1.5500
X0.3500Y1.6500
X0.3500Y1.4500
T9
X4.7793Y0.4453
X4.2675Y0.4453
T10
X4.9250Y3.7500
X0.1750Y0.2000
X0.1250Y3.2250
X3.8000Y3.2250
X0.1250Y1.0500
X3.8000Y1.0500
X4.9250Y0.2000
X0.1750Y3.7500
T11
X1.1000Y2.0000
X1.0500Y1.5500
T12
X4.8250Y1.5500
X4.3250Y1.5500
X4.8250Y3.2500
X4.3250Y3.2500
X4.8250Y2.2000
X0.6250Y3.5500
X1.3250Y3.5500
X2.0250Y3.5500
X2.7250Y3.5500
X3.5750Y3.5500
X4.3250Y2.7500
X4.8250Y2.7500
X4.3250Y1.0500
X4.8250Y1.0500
T0
M30
