%FSLAX24Y24*%
%MOIN*%
%ADD10C,0.0040*%
%ADD11C,0.0053*%
%ADD12C,0.0069*%
%ADD13C,0.0212*%
%ADD14C,0.0250*%
%ADD15C,0.0394*%
D10*
G01X9192Y37041D02*
X9192Y37458D01*
X9430Y37041D02*
X9251Y37279D01*
X9430Y37458D02*
X9192Y37220D01*
X9628Y37041D02*
X9708Y37041D01*
X9708Y37041D02*
X9748Y37061D01*
X9748Y37061D02*
X9767Y37081D01*
X9767Y37081D02*
X9807Y37140D01*
X9807Y37140D02*
X9827Y37220D01*
X9827Y37220D02*
X9827Y37378D01*
X9827Y37378D02*
X9807Y37418D01*
X9807Y37418D02*
X9787Y37438D01*
X9787Y37438D02*
X9748Y37458D01*
X9748Y37458D02*
X9668Y37458D01*
X9668Y37458D02*
X9628Y37438D01*
X9628Y37438D02*
X9609Y37418D01*
X9609Y37418D02*
X9589Y37378D01*
X9589Y37378D02*
X9589Y37279D01*
X9589Y37279D02*
X9609Y37240D01*
X9609Y37240D02*
X9628Y37220D01*
X9628Y37220D02*
X9668Y37200D01*
X9668Y37200D02*
X9748Y37200D01*
X9748Y37200D02*
X9787Y37220D01*
X9787Y37220D02*
X9807Y37240D01*
X9807Y37240D02*
X9827Y37279D01*
X11192Y35791D02*
X11192Y36208D01*
X11192Y36208D02*
X11291Y36208D01*
X11291Y36208D02*
X11351Y36188D01*
X11351Y36188D02*
X11390Y36148D01*
X11390Y36148D02*
X11410Y36109D01*
X11410Y36109D02*
X11430Y36029D01*
X11430Y36029D02*
X11430Y35970D01*
X11430Y35970D02*
X11410Y35890D01*
X11410Y35890D02*
X11390Y35851D01*
X11390Y35851D02*
X11351Y35811D01*
X11351Y35811D02*
X11291Y35791D01*
X11291Y35791D02*
X11192Y35791D01*
X11589Y36168D02*
X11609Y36188D01*
X11609Y36188D02*
X11648Y36208D01*
X11648Y36208D02*
X11748Y36208D01*
X11748Y36208D02*
X11787Y36188D01*
X11787Y36188D02*
X11807Y36168D01*
X11807Y36168D02*
X11827Y36128D01*
X11827Y36128D02*
X11827Y36089D01*
X11827Y36089D02*
X11807Y36029D01*
X11807Y36029D02*
X11569Y35791D01*
X11569Y35791D02*
X11827Y35791D01*
X19843Y37791D02*
X19843Y38208D01*
X20279Y37831D02*
X20259Y37811D01*
X20259Y37811D02*
X20200Y37791D01*
X20200Y37791D02*
X20160Y37791D01*
X20160Y37791D02*
X20101Y37811D01*
X20101Y37811D02*
X20061Y37851D01*
X20061Y37851D02*
X20041Y37890D01*
X20041Y37890D02*
X20021Y37970D01*
X20021Y37970D02*
X20021Y38029D01*
X20021Y38029D02*
X20041Y38109D01*
X20041Y38109D02*
X20061Y38148D01*
X20061Y38148D02*
X20101Y38188D01*
X20101Y38188D02*
X20160Y38208D01*
X20160Y38208D02*
X20200Y38208D01*
X20200Y38208D02*
X20259Y38188D01*
X20259Y38188D02*
X20279Y38168D01*
X20676Y37791D02*
X20438Y37791D01*
X20557Y37791D02*
X20557Y38208D01*
X20557Y38208D02*
X20517Y38148D01*
X20517Y38148D02*
X20478Y38109D01*
X20478Y38109D02*
X20438Y38089D01*
X23430Y35821D02*
X23410Y35801D01*
X23410Y35801D02*
X23351Y35781D01*
X23351Y35781D02*
X23311Y35781D01*
X23311Y35781D02*
X23251Y35801D01*
X23251Y35801D02*
X23212Y35841D01*
X23212Y35841D02*
X23192Y35880D01*
X23192Y35880D02*
X23172Y35960D01*
X23172Y35960D02*
X23172Y36019D01*
X23172Y36019D02*
X23192Y36099D01*
X23192Y36099D02*
X23212Y36138D01*
X23212Y36138D02*
X23251Y36178D01*
X23251Y36178D02*
X23311Y36198D01*
X23311Y36198D02*
X23351Y36198D01*
X23351Y36198D02*
X23410Y36178D01*
X23410Y36178D02*
X23430Y36158D01*
X23787Y36059D02*
X23787Y35781D01*
X23688Y36218D02*
X23589Y35920D01*
X23589Y35920D02*
X23847Y35920D01*
X22418Y35930D02*
X22438Y35910D01*
X22438Y35910D02*
X22458Y35851D01*
X22458Y35851D02*
X22458Y35811D01*
X22458Y35811D02*
X22438Y35751D01*
X22438Y35751D02*
X22398Y35712D01*
X22398Y35712D02*
X22359Y35692D01*
X22359Y35692D02*
X22279Y35672D01*
X22279Y35672D02*
X22220Y35672D01*
X22220Y35672D02*
X22140Y35692D01*
X22140Y35692D02*
X22101Y35712D01*
X22101Y35712D02*
X22061Y35751D01*
X22061Y35751D02*
X22041Y35811D01*
X22041Y35811D02*
X22041Y35851D01*
X22041Y35851D02*
X22061Y35910D01*
X22061Y35910D02*
X22081Y35930D01*
X22041Y36069D02*
X22041Y36327D01*
X22041Y36327D02*
X22200Y36188D01*
X22200Y36188D02*
X22200Y36248D01*
X22200Y36248D02*
X22220Y36287D01*
X22220Y36287D02*
X22240Y36307D01*
X22240Y36307D02*
X22279Y36327D01*
X22279Y36327D02*
X22378Y36327D01*
X22378Y36327D02*
X22418Y36307D01*
X22418Y36307D02*
X22438Y36287D01*
X22438Y36287D02*
X22458Y36248D01*
X22458Y36248D02*
X22458Y36128D01*
X22458Y36128D02*
X22438Y36089D01*
X22438Y36089D02*
X22418Y36069D01*
X22180Y33291D02*
X22041Y33490D01*
X21942Y33291D02*
X21942Y33708D01*
X21942Y33708D02*
X22101Y33708D01*
X22101Y33708D02*
X22140Y33688D01*
X22140Y33688D02*
X22160Y33668D01*
X22160Y33668D02*
X22180Y33628D01*
X22180Y33628D02*
X22180Y33569D01*
X22180Y33569D02*
X22160Y33529D01*
X22160Y33529D02*
X22140Y33509D01*
X22140Y33509D02*
X22101Y33490D01*
X22101Y33490D02*
X21942Y33490D01*
X22577Y33291D02*
X22339Y33291D01*
X22458Y33291D02*
X22458Y33708D01*
X22458Y33708D02*
X22418Y33648D01*
X22418Y33648D02*
X22378Y33609D01*
X22378Y33609D02*
X22339Y33589D01*
X31093Y37031D02*
X31093Y37448D01*
X31529Y37071D02*
X31509Y37051D01*
X31509Y37051D02*
X31450Y37031D01*
X31450Y37031D02*
X31410Y37031D01*
X31410Y37031D02*
X31351Y37051D01*
X31351Y37051D02*
X31311Y37091D01*
X31311Y37091D02*
X31291Y37130D01*
X31291Y37130D02*
X31271Y37210D01*
X31271Y37210D02*
X31271Y37269D01*
X31271Y37269D02*
X31291Y37349D01*
X31291Y37349D02*
X31311Y37388D01*
X31311Y37388D02*
X31351Y37428D01*
X31351Y37428D02*
X31410Y37448D01*
X31410Y37448D02*
X31450Y37448D01*
X31450Y37448D02*
X31509Y37428D01*
X31509Y37428D02*
X31529Y37408D01*
X31886Y37309D02*
X31886Y37031D01*
X31787Y37468D02*
X31688Y37170D01*
X31688Y37170D02*
X31946Y37170D01*
X26680Y34291D02*
X26482Y34291D01*
X26482Y34291D02*
X26482Y34708D01*
X27037Y34291D02*
X26799Y34291D01*
X26918Y34291D02*
X26918Y34708D01*
X26918Y34708D02*
X26878Y34648D01*
X26878Y34648D02*
X26839Y34609D01*
X26839Y34609D02*
X26799Y34589D01*
X24930Y35581D02*
X24910Y35561D01*
X24910Y35561D02*
X24851Y35541D01*
X24851Y35541D02*
X24811Y35541D01*
X24811Y35541D02*
X24751Y35561D01*
X24751Y35561D02*
X24712Y35601D01*
X24712Y35601D02*
X24692Y35640D01*
X24692Y35640D02*
X24672Y35720D01*
X24672Y35720D02*
X24672Y35779D01*
X24672Y35779D02*
X24692Y35859D01*
X24692Y35859D02*
X24712Y35898D01*
X24712Y35898D02*
X24751Y35938D01*
X24751Y35938D02*
X24811Y35958D01*
X24811Y35958D02*
X24851Y35958D01*
X24851Y35958D02*
X24910Y35938D01*
X24910Y35938D02*
X24930Y35918D01*
X25307Y35958D02*
X25109Y35958D01*
X25109Y35958D02*
X25089Y35759D01*
X25089Y35759D02*
X25109Y35779D01*
X25109Y35779D02*
X25148Y35799D01*
X25148Y35799D02*
X25248Y35799D01*
X25248Y35799D02*
X25287Y35779D01*
X25287Y35779D02*
X25307Y35759D01*
X25307Y35759D02*
X25327Y35720D01*
X25327Y35720D02*
X25327Y35621D01*
X25327Y35621D02*
X25307Y35581D01*
X25307Y35581D02*
X25287Y35561D01*
X25287Y35561D02*
X25248Y35541D01*
X25248Y35541D02*
X25148Y35541D01*
X25148Y35541D02*
X25109Y35561D01*
X25109Y35561D02*
X25089Y35581D01*
X1442Y32541D02*
X1442Y32958D01*
X1680Y32541D02*
X1501Y32779D01*
X1680Y32958D02*
X1442Y32720D01*
X1839Y32918D02*
X1859Y32938D01*
X1859Y32938D02*
X1898Y32958D01*
X1898Y32958D02*
X1998Y32958D01*
X1998Y32958D02*
X2037Y32938D01*
X2037Y32938D02*
X2057Y32918D01*
X2057Y32918D02*
X2077Y32878D01*
X2077Y32878D02*
X2077Y32839D01*
X2077Y32839D02*
X2057Y32779D01*
X2057Y32779D02*
X1819Y32541D01*
X1819Y32541D02*
X2077Y32541D01*
X36744Y32541D02*
X36744Y32958D01*
X36982Y32541D02*
X36803Y32779D01*
X36982Y32958D02*
X36744Y32720D01*
X37140Y32918D02*
X37160Y32938D01*
X37160Y32938D02*
X37200Y32958D01*
X37200Y32958D02*
X37299Y32958D01*
X37299Y32958D02*
X37339Y32938D01*
X37339Y32938D02*
X37359Y32918D01*
X37359Y32918D02*
X37378Y32878D01*
X37378Y32878D02*
X37378Y32839D01*
X37378Y32839D02*
X37359Y32779D01*
X37359Y32779D02*
X37121Y32541D01*
X37121Y32541D02*
X37378Y32541D01*
X37755Y32958D02*
X37557Y32958D01*
X37557Y32958D02*
X37537Y32759D01*
X37537Y32759D02*
X37557Y32779D01*
X37557Y32779D02*
X37597Y32799D01*
X37597Y32799D02*
X37696Y32799D01*
X37696Y32799D02*
X37736Y32779D01*
X37736Y32779D02*
X37755Y32759D01*
X37755Y32759D02*
X37775Y32720D01*
X37775Y32720D02*
X37775Y32621D01*
X37775Y32621D02*
X37755Y32581D01*
X37755Y32581D02*
X37736Y32561D01*
X37736Y32561D02*
X37696Y32541D01*
X37696Y32541D02*
X37597Y32541D01*
X37597Y32541D02*
X37557Y32561D01*
X37557Y32561D02*
X37537Y32581D01*
X1192Y18541D02*
X1192Y18958D01*
X1430Y18541D02*
X1251Y18779D01*
X1430Y18958D02*
X1192Y18720D01*
X1827Y18541D02*
X1589Y18541D01*
X1708Y18541D02*
X1708Y18958D01*
X1708Y18958D02*
X1668Y18898D01*
X1668Y18898D02*
X1628Y18859D01*
X1628Y18859D02*
X1589Y18839D01*
X1442Y6291D02*
X1442Y6708D01*
X1680Y6291D02*
X1501Y6529D01*
X1680Y6708D02*
X1442Y6470D01*
X1819Y6708D02*
X2077Y6708D01*
X2077Y6708D02*
X1938Y6549D01*
X1938Y6549D02*
X1998Y6549D01*
X1998Y6549D02*
X2037Y6529D01*
X2037Y6529D02*
X2057Y6509D01*
X2057Y6509D02*
X2077Y6470D01*
X2077Y6470D02*
X2077Y6371D01*
X2077Y6371D02*
X2057Y6331D01*
X2057Y6331D02*
X2037Y6311D01*
X2037Y6311D02*
X1998Y6291D01*
X1998Y6291D02*
X1878Y6291D01*
X1878Y6291D02*
X1839Y6311D01*
X1839Y6311D02*
X1819Y6331D01*
X6442Y2791D02*
X6442Y3208D01*
X6680Y2791D02*
X6501Y3029D01*
X6680Y3208D02*
X6442Y2970D01*
X6918Y3029D02*
X6878Y3049D01*
X6878Y3049D02*
X6859Y3069D01*
X6859Y3069D02*
X6839Y3109D01*
X6839Y3109D02*
X6839Y3128D01*
X6839Y3128D02*
X6859Y3168D01*
X6859Y3168D02*
X6878Y3188D01*
X6878Y3188D02*
X6918Y3208D01*
X6918Y3208D02*
X6998Y3208D01*
X6998Y3208D02*
X7037Y3188D01*
X7037Y3188D02*
X7057Y3168D01*
X7057Y3168D02*
X7077Y3128D01*
X7077Y3128D02*
X7077Y3109D01*
X7077Y3109D02*
X7057Y3069D01*
X7057Y3069D02*
X7037Y3049D01*
X7037Y3049D02*
X6998Y3029D01*
X6998Y3029D02*
X6918Y3029D01*
X6918Y3029D02*
X6878Y3009D01*
X6878Y3009D02*
X6859Y2990D01*
X6859Y2990D02*
X6839Y2950D01*
X6839Y2950D02*
X6839Y2871D01*
X6839Y2871D02*
X6859Y2831D01*
X6859Y2831D02*
X6878Y2811D01*
X6878Y2811D02*
X6918Y2791D01*
X6918Y2791D02*
X6998Y2791D01*
X6998Y2791D02*
X7037Y2811D01*
X7037Y2811D02*
X7057Y2831D01*
X7057Y2831D02*
X7077Y2871D01*
X7077Y2871D02*
X7077Y2950D01*
X7077Y2950D02*
X7057Y2990D01*
X7057Y2990D02*
X7037Y3009D01*
X7037Y3009D02*
X6998Y3029D01*
X16343Y24791D02*
X16343Y25208D01*
X16779Y24831D02*
X16759Y24811D01*
X16759Y24811D02*
X16700Y24791D01*
X16700Y24791D02*
X16660Y24791D01*
X16660Y24791D02*
X16601Y24811D01*
X16601Y24811D02*
X16561Y24851D01*
X16561Y24851D02*
X16541Y24890D01*
X16541Y24890D02*
X16521Y24970D01*
X16521Y24970D02*
X16521Y25029D01*
X16521Y25029D02*
X16541Y25109D01*
X16541Y25109D02*
X16561Y25148D01*
X16561Y25148D02*
X16601Y25188D01*
X16601Y25188D02*
X16660Y25208D01*
X16660Y25208D02*
X16700Y25208D01*
X16700Y25208D02*
X16759Y25188D01*
X16759Y25188D02*
X16779Y25168D01*
X16918Y25208D02*
X17176Y25208D01*
X17176Y25208D02*
X17037Y25049D01*
X17037Y25049D02*
X17097Y25049D01*
X17097Y25049D02*
X17136Y25029D01*
X17136Y25029D02*
X17156Y25009D01*
X17156Y25009D02*
X17176Y24970D01*
X17176Y24970D02*
X17176Y24871D01*
X17176Y24871D02*
X17156Y24831D01*
X17156Y24831D02*
X17136Y24811D01*
X17136Y24811D02*
X17097Y24791D01*
X17097Y24791D02*
X16978Y24791D01*
X16978Y24791D02*
X16938Y24811D01*
X16938Y24811D02*
X16918Y24831D01*
X16593Y8541D02*
X16593Y8958D01*
X17029Y8581D02*
X17009Y8561D01*
X17009Y8561D02*
X16950Y8541D01*
X16950Y8541D02*
X16910Y8541D01*
X16910Y8541D02*
X16851Y8561D01*
X16851Y8561D02*
X16811Y8601D01*
X16811Y8601D02*
X16791Y8640D01*
X16791Y8640D02*
X16771Y8720D01*
X16771Y8720D02*
X16771Y8779D01*
X16771Y8779D02*
X16791Y8859D01*
X16791Y8859D02*
X16811Y8898D01*
X16811Y8898D02*
X16851Y8938D01*
X16851Y8938D02*
X16910Y8958D01*
X16910Y8958D02*
X16950Y8958D01*
X16950Y8958D02*
X17009Y8938D01*
X17009Y8938D02*
X17029Y8918D01*
X17188Y8918D02*
X17208Y8938D01*
X17208Y8938D02*
X17248Y8958D01*
X17248Y8958D02*
X17347Y8958D01*
X17347Y8958D02*
X17386Y8938D01*
X17386Y8938D02*
X17406Y8918D01*
X17406Y8918D02*
X17426Y8878D01*
X17426Y8878D02*
X17426Y8839D01*
X17426Y8839D02*
X17406Y8779D01*
X17406Y8779D02*
X17168Y8541D01*
X17168Y8541D02*
X17426Y8541D01*
X15242Y27581D02*
X15222Y27561D01*
X15222Y27561D02*
X15162Y27541D01*
X15162Y27541D02*
X15123Y27541D01*
X15123Y27541D02*
X15063Y27561D01*
X15063Y27561D02*
X15023Y27601D01*
X15023Y27601D02*
X15003Y27640D01*
X15003Y27640D02*
X14984Y27720D01*
X14984Y27720D02*
X14984Y27779D01*
X14984Y27779D02*
X15003Y27859D01*
X15003Y27859D02*
X15023Y27898D01*
X15023Y27898D02*
X15063Y27938D01*
X15063Y27938D02*
X15123Y27958D01*
X15123Y27958D02*
X15162Y27958D01*
X15162Y27958D02*
X15222Y27938D01*
X15222Y27938D02*
X15242Y27918D01*
X15599Y27541D02*
X15599Y27759D01*
X15599Y27759D02*
X15579Y27799D01*
X15579Y27799D02*
X15539Y27819D01*
X15539Y27819D02*
X15460Y27819D01*
X15460Y27819D02*
X15420Y27799D01*
X15599Y27561D02*
X15559Y27541D01*
X15559Y27541D02*
X15460Y27541D01*
X15460Y27541D02*
X15420Y27561D01*
X15420Y27561D02*
X15400Y27601D01*
X15400Y27601D02*
X15400Y27640D01*
X15400Y27640D02*
X15420Y27680D01*
X15420Y27680D02*
X15460Y27700D01*
X15460Y27700D02*
X15559Y27700D01*
X15559Y27700D02*
X15599Y27720D01*
X16015Y27541D02*
X15777Y27541D01*
X15896Y27541D02*
X15896Y27958D01*
X15896Y27958D02*
X15857Y27898D01*
X15857Y27898D02*
X15817Y27859D01*
X15817Y27859D02*
X15777Y27839D01*
X26242Y25831D02*
X26222Y25811D01*
X26222Y25811D02*
X26162Y25791D01*
X26162Y25791D02*
X26123Y25791D01*
X26123Y25791D02*
X26063Y25811D01*
X26063Y25811D02*
X26023Y25851D01*
X26023Y25851D02*
X26003Y25890D01*
X26003Y25890D02*
X25984Y25970D01*
X25984Y25970D02*
X25984Y26029D01*
X25984Y26029D02*
X26003Y26109D01*
X26003Y26109D02*
X26023Y26148D01*
X26023Y26148D02*
X26063Y26188D01*
X26063Y26188D02*
X26123Y26208D01*
X26123Y26208D02*
X26162Y26208D01*
X26162Y26208D02*
X26222Y26188D01*
X26222Y26188D02*
X26242Y26168D01*
X26599Y25791D02*
X26599Y26009D01*
X26599Y26009D02*
X26579Y26049D01*
X26579Y26049D02*
X26539Y26069D01*
X26539Y26069D02*
X26460Y26069D01*
X26460Y26069D02*
X26420Y26049D01*
X26599Y25811D02*
X26559Y25791D01*
X26559Y25791D02*
X26460Y25791D01*
X26460Y25791D02*
X26420Y25811D01*
X26420Y25811D02*
X26400Y25851D01*
X26400Y25851D02*
X26400Y25890D01*
X26400Y25890D02*
X26420Y25930D01*
X26420Y25930D02*
X26460Y25950D01*
X26460Y25950D02*
X26559Y25950D01*
X26559Y25950D02*
X26599Y25970D01*
X26777Y26168D02*
X26797Y26188D01*
X26797Y26188D02*
X26837Y26208D01*
X26837Y26208D02*
X26936Y26208D01*
X26936Y26208D02*
X26976Y26188D01*
X26976Y26188D02*
X26996Y26168D01*
X26996Y26168D02*
X27015Y26128D01*
X27015Y26128D02*
X27015Y26089D01*
X27015Y26089D02*
X26996Y26029D01*
X26996Y26029D02*
X26757Y25791D01*
X26757Y25791D02*
X27015Y25791D01*
X12242Y25291D02*
X12103Y25490D01*
X12003Y25291D02*
X12003Y25708D01*
X12003Y25708D02*
X12162Y25708D01*
X12162Y25708D02*
X12202Y25688D01*
X12202Y25688D02*
X12222Y25668D01*
X12222Y25668D02*
X12242Y25628D01*
X12242Y25628D02*
X12242Y25569D01*
X12242Y25569D02*
X12222Y25529D01*
X12222Y25529D02*
X12202Y25509D01*
X12202Y25509D02*
X12162Y25490D01*
X12162Y25490D02*
X12003Y25490D01*
X12599Y25291D02*
X12599Y25509D01*
X12599Y25509D02*
X12579Y25549D01*
X12579Y25549D02*
X12539Y25569D01*
X12539Y25569D02*
X12460Y25569D01*
X12460Y25569D02*
X12420Y25549D01*
X12599Y25311D02*
X12559Y25291D01*
X12559Y25291D02*
X12460Y25291D01*
X12460Y25291D02*
X12420Y25311D01*
X12420Y25311D02*
X12400Y25351D01*
X12400Y25351D02*
X12400Y25390D01*
X12400Y25390D02*
X12420Y25430D01*
X12420Y25430D02*
X12460Y25450D01*
X12460Y25450D02*
X12559Y25450D01*
X12559Y25450D02*
X12599Y25470D01*
X13015Y25291D02*
X12777Y25291D01*
X12896Y25291D02*
X12896Y25708D01*
X12896Y25708D02*
X12857Y25648D01*
X12857Y25648D02*
X12817Y25609D01*
X12817Y25609D02*
X12777Y25589D01*
X25492Y27541D02*
X25353Y27740D01*
X25253Y27541D02*
X25253Y27958D01*
X25253Y27958D02*
X25412Y27958D01*
X25412Y27958D02*
X25452Y27938D01*
X25452Y27938D02*
X25472Y27918D01*
X25472Y27918D02*
X25492Y27878D01*
X25492Y27878D02*
X25492Y27819D01*
X25492Y27819D02*
X25472Y27779D01*
X25472Y27779D02*
X25452Y27759D01*
X25452Y27759D02*
X25412Y27740D01*
X25412Y27740D02*
X25253Y27740D01*
X25849Y27541D02*
X25849Y27759D01*
X25849Y27759D02*
X25829Y27799D01*
X25829Y27799D02*
X25789Y27819D01*
X25789Y27819D02*
X25710Y27819D01*
X25710Y27819D02*
X25670Y27799D01*
X25849Y27561D02*
X25809Y27541D01*
X25809Y27541D02*
X25710Y27541D01*
X25710Y27541D02*
X25670Y27561D01*
X25670Y27561D02*
X25650Y27601D01*
X25650Y27601D02*
X25650Y27640D01*
X25650Y27640D02*
X25670Y27680D01*
X25670Y27680D02*
X25710Y27700D01*
X25710Y27700D02*
X25809Y27700D01*
X25809Y27700D02*
X25849Y27720D01*
X26246Y27958D02*
X26047Y27958D01*
X26047Y27958D02*
X26027Y27759D01*
X26027Y27759D02*
X26047Y27779D01*
X26047Y27779D02*
X26087Y27799D01*
X26087Y27799D02*
X26186Y27799D01*
X26186Y27799D02*
X26226Y27779D01*
X26226Y27779D02*
X26246Y27759D01*
X26246Y27759D02*
X26265Y27720D01*
X26265Y27720D02*
X26265Y27621D01*
X26265Y27621D02*
X26246Y27581D01*
X26246Y27581D02*
X26226Y27561D01*
X26226Y27561D02*
X26186Y27541D01*
X26186Y27541D02*
X26087Y27541D01*
X26087Y27541D02*
X26047Y27561D01*
X26047Y27561D02*
X26027Y27581D01*
X12242Y26291D02*
X12103Y26490D01*
X12003Y26291D02*
X12003Y26708D01*
X12003Y26708D02*
X12162Y26708D01*
X12162Y26708D02*
X12202Y26688D01*
X12202Y26688D02*
X12222Y26668D01*
X12222Y26668D02*
X12242Y26628D01*
X12242Y26628D02*
X12242Y26569D01*
X12242Y26569D02*
X12222Y26529D01*
X12222Y26529D02*
X12202Y26509D01*
X12202Y26509D02*
X12162Y26490D01*
X12162Y26490D02*
X12003Y26490D01*
X12599Y26291D02*
X12599Y26509D01*
X12599Y26509D02*
X12579Y26549D01*
X12579Y26549D02*
X12539Y26569D01*
X12539Y26569D02*
X12460Y26569D01*
X12460Y26569D02*
X12420Y26549D01*
X12599Y26311D02*
X12559Y26291D01*
X12559Y26291D02*
X12460Y26291D01*
X12460Y26291D02*
X12420Y26311D01*
X12420Y26311D02*
X12400Y26351D01*
X12400Y26351D02*
X12400Y26390D01*
X12400Y26390D02*
X12420Y26430D01*
X12420Y26430D02*
X12460Y26450D01*
X12460Y26450D02*
X12559Y26450D01*
X12559Y26450D02*
X12599Y26470D01*
X12777Y26668D02*
X12797Y26688D01*
X12797Y26688D02*
X12837Y26708D01*
X12837Y26708D02*
X12936Y26708D01*
X12936Y26708D02*
X12976Y26688D01*
X12976Y26688D02*
X12996Y26668D01*
X12996Y26668D02*
X13015Y26628D01*
X13015Y26628D02*
X13015Y26589D01*
X13015Y26589D02*
X12996Y26529D01*
X12996Y26529D02*
X12757Y26291D01*
X12757Y26291D02*
X13015Y26291D01*
X20492Y27531D02*
X20353Y27730D01*
X20253Y27531D02*
X20253Y27948D01*
X20253Y27948D02*
X20412Y27948D01*
X20412Y27948D02*
X20452Y27928D01*
X20452Y27928D02*
X20472Y27908D01*
X20472Y27908D02*
X20492Y27869D01*
X20492Y27869D02*
X20492Y27809D01*
X20492Y27809D02*
X20472Y27769D01*
X20472Y27769D02*
X20452Y27750D01*
X20452Y27750D02*
X20412Y27730D01*
X20412Y27730D02*
X20253Y27730D01*
X20849Y27531D02*
X20849Y27750D01*
X20849Y27750D02*
X20829Y27789D01*
X20829Y27789D02*
X20789Y27809D01*
X20789Y27809D02*
X20710Y27809D01*
X20710Y27809D02*
X20670Y27789D01*
X20849Y27551D02*
X20809Y27531D01*
X20809Y27531D02*
X20710Y27531D01*
X20710Y27531D02*
X20670Y27551D01*
X20670Y27551D02*
X20650Y27591D01*
X20650Y27591D02*
X20650Y27630D01*
X20650Y27630D02*
X20670Y27670D01*
X20670Y27670D02*
X20710Y27690D01*
X20710Y27690D02*
X20809Y27690D01*
X20809Y27690D02*
X20849Y27710D01*
X21226Y27809D02*
X21226Y27531D01*
X21126Y27968D02*
X21027Y27670D01*
X21027Y27670D02*
X21285Y27670D01*
X36744Y18531D02*
X36744Y18948D01*
X36982Y18531D02*
X36803Y18769D01*
X36982Y18948D02*
X36744Y18710D01*
X37140Y18908D02*
X37160Y18928D01*
X37160Y18928D02*
X37200Y18948D01*
X37200Y18948D02*
X37299Y18948D01*
X37299Y18948D02*
X37339Y18928D01*
X37339Y18928D02*
X37359Y18908D01*
X37359Y18908D02*
X37378Y18869D01*
X37378Y18869D02*
X37378Y18829D01*
X37378Y18829D02*
X37359Y18769D01*
X37359Y18769D02*
X37121Y18531D01*
X37121Y18531D02*
X37378Y18531D01*
X37736Y18809D02*
X37736Y18531D01*
X37636Y18968D02*
X37537Y18670D01*
X37537Y18670D02*
X37795Y18670D01*
X36744Y6291D02*
X36744Y6708D01*
X36982Y6291D02*
X36803Y6529D01*
X36982Y6708D02*
X36744Y6470D01*
X37140Y6668D02*
X37160Y6688D01*
X37160Y6688D02*
X37200Y6708D01*
X37200Y6708D02*
X37299Y6708D01*
X37299Y6708D02*
X37339Y6688D01*
X37339Y6688D02*
X37359Y6668D01*
X37359Y6668D02*
X37378Y6628D01*
X37378Y6628D02*
X37378Y6589D01*
X37378Y6589D02*
X37359Y6529D01*
X37359Y6529D02*
X37121Y6291D01*
X37121Y6291D02*
X37378Y6291D01*
X37517Y6708D02*
X37775Y6708D01*
X37775Y6708D02*
X37636Y6549D01*
X37636Y6549D02*
X37696Y6549D01*
X37696Y6549D02*
X37736Y6529D01*
X37736Y6529D02*
X37755Y6509D01*
X37755Y6509D02*
X37775Y6470D01*
X37775Y6470D02*
X37775Y6371D01*
X37775Y6371D02*
X37755Y6331D01*
X37755Y6331D02*
X37736Y6311D01*
X37736Y6311D02*
X37696Y6291D01*
X37696Y6291D02*
X37577Y6291D01*
X37577Y6291D02*
X37537Y6311D01*
X37537Y6311D02*
X37517Y6331D01*
X30994Y2791D02*
X30994Y3208D01*
X31232Y2791D02*
X31053Y3029D01*
X31232Y3208D02*
X30994Y2970D01*
X31628Y2791D02*
X31390Y2791D01*
X31509Y2791D02*
X31509Y3208D01*
X31509Y3208D02*
X31470Y3148D01*
X31470Y3148D02*
X31430Y3109D01*
X31430Y3109D02*
X31390Y3089D01*
X31867Y3029D02*
X31827Y3049D01*
X31827Y3049D02*
X31807Y3069D01*
X31807Y3069D02*
X31787Y3109D01*
X31787Y3109D02*
X31787Y3128D01*
X31787Y3128D02*
X31807Y3168D01*
X31807Y3168D02*
X31827Y3188D01*
X31827Y3188D02*
X31867Y3208D01*
X31867Y3208D02*
X31946Y3208D01*
X31946Y3208D02*
X31986Y3188D01*
X31986Y3188D02*
X32005Y3168D01*
X32005Y3168D02*
X32025Y3128D01*
X32025Y3128D02*
X32025Y3109D01*
X32025Y3109D02*
X32005Y3069D01*
X32005Y3069D02*
X31986Y3049D01*
X31986Y3049D02*
X31946Y3029D01*
X31946Y3029D02*
X31867Y3029D01*
X31867Y3029D02*
X31827Y3009D01*
X31827Y3009D02*
X31807Y2990D01*
X31807Y2990D02*
X31787Y2950D01*
X31787Y2950D02*
X31787Y2871D01*
X31787Y2871D02*
X31807Y2831D01*
X31807Y2831D02*
X31827Y2811D01*
X31827Y2811D02*
X31867Y2791D01*
X31867Y2791D02*
X31946Y2791D01*
X31946Y2791D02*
X31986Y2811D01*
X31986Y2811D02*
X32005Y2831D01*
X32005Y2831D02*
X32025Y2871D01*
X32025Y2871D02*
X32025Y2950D01*
X32025Y2950D02*
X32005Y2990D01*
X32005Y2990D02*
X31986Y3009D01*
X31986Y3009D02*
X31946Y3029D01*
X12242Y24291D02*
X12103Y24490D01*
X12003Y24291D02*
X12003Y24708D01*
X12003Y24708D02*
X12162Y24708D01*
X12162Y24708D02*
X12202Y24688D01*
X12202Y24688D02*
X12222Y24668D01*
X12222Y24668D02*
X12242Y24628D01*
X12242Y24628D02*
X12242Y24569D01*
X12242Y24569D02*
X12222Y24529D01*
X12222Y24529D02*
X12202Y24509D01*
X12202Y24509D02*
X12162Y24490D01*
X12162Y24490D02*
X12003Y24490D01*
X12420Y24291D02*
X12420Y24708D01*
X12420Y24549D02*
X12460Y24569D01*
X12460Y24569D02*
X12539Y24569D01*
X12539Y24569D02*
X12579Y24549D01*
X12579Y24549D02*
X12599Y24529D01*
X12599Y24529D02*
X12619Y24490D01*
X12619Y24490D02*
X12619Y24371D01*
X12619Y24371D02*
X12599Y24331D01*
X12599Y24331D02*
X12579Y24311D01*
X12579Y24311D02*
X12539Y24291D01*
X12539Y24291D02*
X12460Y24291D01*
X12460Y24291D02*
X12420Y24311D01*
X12757Y24708D02*
X13015Y24708D01*
X13015Y24708D02*
X12876Y24549D01*
X12876Y24549D02*
X12936Y24549D01*
X12936Y24549D02*
X12976Y24529D01*
X12976Y24529D02*
X12996Y24509D01*
X12996Y24509D02*
X13015Y24470D01*
X13015Y24470D02*
X13015Y24371D01*
X13015Y24371D02*
X12996Y24331D01*
X12996Y24331D02*
X12976Y24311D01*
X12976Y24311D02*
X12936Y24291D01*
X12936Y24291D02*
X12817Y24291D01*
X12817Y24291D02*
X12777Y24311D01*
X12777Y24311D02*
X12757Y24331D01*
X25492Y22041D02*
X25353Y22240D01*
X25253Y22041D02*
X25253Y22458D01*
X25253Y22458D02*
X25412Y22458D01*
X25412Y22458D02*
X25452Y22438D01*
X25452Y22438D02*
X25472Y22418D01*
X25472Y22418D02*
X25492Y22378D01*
X25492Y22378D02*
X25492Y22319D01*
X25492Y22319D02*
X25472Y22279D01*
X25472Y22279D02*
X25452Y22259D01*
X25452Y22259D02*
X25412Y22240D01*
X25412Y22240D02*
X25253Y22240D01*
X25670Y22041D02*
X25670Y22458D01*
X25670Y22299D02*
X25710Y22319D01*
X25710Y22319D02*
X25789Y22319D01*
X25789Y22319D02*
X25829Y22299D01*
X25829Y22299D02*
X25849Y22279D01*
X25849Y22279D02*
X25869Y22240D01*
X25869Y22240D02*
X25869Y22121D01*
X25869Y22121D02*
X25849Y22081D01*
X25849Y22081D02*
X25829Y22061D01*
X25829Y22061D02*
X25789Y22041D01*
X25789Y22041D02*
X25710Y22041D01*
X25710Y22041D02*
X25670Y22061D01*
X26246Y22458D02*
X26047Y22458D01*
X26047Y22458D02*
X26027Y22259D01*
X26027Y22259D02*
X26047Y22279D01*
X26047Y22279D02*
X26087Y22299D01*
X26087Y22299D02*
X26186Y22299D01*
X26186Y22299D02*
X26226Y22279D01*
X26226Y22279D02*
X26246Y22259D01*
X26246Y22259D02*
X26265Y22220D01*
X26265Y22220D02*
X26265Y22121D01*
X26265Y22121D02*
X26246Y22081D01*
X26246Y22081D02*
X26226Y22061D01*
X26226Y22061D02*
X26186Y22041D01*
X26186Y22041D02*
X26087Y22041D01*
X26087Y22041D02*
X26047Y22061D01*
X26047Y22061D02*
X26027Y22081D01*
X12242Y23291D02*
X12103Y23490D01*
X12003Y23291D02*
X12003Y23708D01*
X12003Y23708D02*
X12162Y23708D01*
X12162Y23708D02*
X12202Y23688D01*
X12202Y23688D02*
X12222Y23668D01*
X12222Y23668D02*
X12242Y23628D01*
X12242Y23628D02*
X12242Y23569D01*
X12242Y23569D02*
X12222Y23529D01*
X12222Y23529D02*
X12202Y23509D01*
X12202Y23509D02*
X12162Y23490D01*
X12162Y23490D02*
X12003Y23490D01*
X12420Y23291D02*
X12420Y23708D01*
X12420Y23549D02*
X12460Y23569D01*
X12460Y23569D02*
X12539Y23569D01*
X12539Y23569D02*
X12579Y23549D01*
X12579Y23549D02*
X12599Y23529D01*
X12599Y23529D02*
X12619Y23490D01*
X12619Y23490D02*
X12619Y23371D01*
X12619Y23371D02*
X12599Y23331D01*
X12599Y23331D02*
X12579Y23311D01*
X12579Y23311D02*
X12539Y23291D01*
X12539Y23291D02*
X12460Y23291D01*
X12460Y23291D02*
X12420Y23311D01*
X12777Y23668D02*
X12797Y23688D01*
X12797Y23688D02*
X12837Y23708D01*
X12837Y23708D02*
X12936Y23708D01*
X12936Y23708D02*
X12976Y23688D01*
X12976Y23688D02*
X12996Y23668D01*
X12996Y23668D02*
X13015Y23628D01*
X13015Y23628D02*
X13015Y23589D01*
X13015Y23589D02*
X12996Y23529D01*
X12996Y23529D02*
X12757Y23291D01*
X12757Y23291D02*
X13015Y23291D01*
X20492Y22031D02*
X20353Y22230D01*
X20253Y22031D02*
X20253Y22448D01*
X20253Y22448D02*
X20412Y22448D01*
X20412Y22448D02*
X20452Y22428D01*
X20452Y22428D02*
X20472Y22408D01*
X20472Y22408D02*
X20492Y22369D01*
X20492Y22369D02*
X20492Y22309D01*
X20492Y22309D02*
X20472Y22269D01*
X20472Y22269D02*
X20452Y22250D01*
X20452Y22250D02*
X20412Y22230D01*
X20412Y22230D02*
X20253Y22230D01*
X20670Y22031D02*
X20670Y22448D01*
X20670Y22289D02*
X20710Y22309D01*
X20710Y22309D02*
X20789Y22309D01*
X20789Y22309D02*
X20829Y22289D01*
X20829Y22289D02*
X20849Y22269D01*
X20849Y22269D02*
X20869Y22230D01*
X20869Y22230D02*
X20869Y22111D01*
X20869Y22111D02*
X20849Y22071D01*
X20849Y22071D02*
X20829Y22051D01*
X20829Y22051D02*
X20789Y22031D01*
X20789Y22031D02*
X20710Y22031D01*
X20710Y22031D02*
X20670Y22051D01*
X21226Y22309D02*
X21226Y22031D01*
X21126Y22468D02*
X21027Y22170D01*
X21027Y22170D02*
X21285Y22170D01*
X15242Y22081D02*
X15222Y22061D01*
X15222Y22061D02*
X15162Y22041D01*
X15162Y22041D02*
X15123Y22041D01*
X15123Y22041D02*
X15063Y22061D01*
X15063Y22061D02*
X15023Y22101D01*
X15023Y22101D02*
X15003Y22140D01*
X15003Y22140D02*
X14984Y22220D01*
X14984Y22220D02*
X14984Y22279D01*
X14984Y22279D02*
X15003Y22359D01*
X15003Y22359D02*
X15023Y22398D01*
X15023Y22398D02*
X15063Y22438D01*
X15063Y22438D02*
X15123Y22458D01*
X15123Y22458D02*
X15162Y22458D01*
X15162Y22458D02*
X15222Y22438D01*
X15222Y22438D02*
X15242Y22418D01*
X15420Y22041D02*
X15420Y22458D01*
X15420Y22299D02*
X15460Y22319D01*
X15460Y22319D02*
X15539Y22319D01*
X15539Y22319D02*
X15579Y22299D01*
X15579Y22299D02*
X15599Y22279D01*
X15599Y22279D02*
X15619Y22240D01*
X15619Y22240D02*
X15619Y22121D01*
X15619Y22121D02*
X15599Y22081D01*
X15599Y22081D02*
X15579Y22061D01*
X15579Y22061D02*
X15539Y22041D01*
X15539Y22041D02*
X15460Y22041D01*
X15460Y22041D02*
X15420Y22061D01*
X16015Y22041D02*
X15777Y22041D01*
X15896Y22041D02*
X15896Y22458D01*
X15896Y22458D02*
X15857Y22398D01*
X15857Y22398D02*
X15817Y22359D01*
X15817Y22359D02*
X15777Y22339D01*
X26242Y23831D02*
X26222Y23811D01*
X26222Y23811D02*
X26162Y23791D01*
X26162Y23791D02*
X26123Y23791D01*
X26123Y23791D02*
X26063Y23811D01*
X26063Y23811D02*
X26023Y23851D01*
X26023Y23851D02*
X26003Y23890D01*
X26003Y23890D02*
X25984Y23970D01*
X25984Y23970D02*
X25984Y24029D01*
X25984Y24029D02*
X26003Y24109D01*
X26003Y24109D02*
X26023Y24148D01*
X26023Y24148D02*
X26063Y24188D01*
X26063Y24188D02*
X26123Y24208D01*
X26123Y24208D02*
X26162Y24208D01*
X26162Y24208D02*
X26222Y24188D01*
X26222Y24188D02*
X26242Y24168D01*
X26420Y23791D02*
X26420Y24208D01*
X26420Y24049D02*
X26460Y24069D01*
X26460Y24069D02*
X26539Y24069D01*
X26539Y24069D02*
X26579Y24049D01*
X26579Y24049D02*
X26599Y24029D01*
X26599Y24029D02*
X26619Y23990D01*
X26619Y23990D02*
X26619Y23871D01*
X26619Y23871D02*
X26599Y23831D01*
X26599Y23831D02*
X26579Y23811D01*
X26579Y23811D02*
X26539Y23791D01*
X26539Y23791D02*
X26460Y23791D01*
X26460Y23791D02*
X26420Y23811D01*
X26777Y24168D02*
X26797Y24188D01*
X26797Y24188D02*
X26837Y24208D01*
X26837Y24208D02*
X26936Y24208D01*
X26936Y24208D02*
X26976Y24188D01*
X26976Y24188D02*
X26996Y24168D01*
X26996Y24168D02*
X27015Y24128D01*
X27015Y24128D02*
X27015Y24089D01*
X27015Y24089D02*
X26996Y24029D01*
X26996Y24029D02*
X26757Y23791D01*
X26757Y23791D02*
X27015Y23791D01*
X19180Y24831D02*
X19160Y24811D01*
X19160Y24811D02*
X19101Y24791D01*
X19101Y24791D02*
X19061Y24791D01*
X19061Y24791D02*
X19001Y24811D01*
X19001Y24811D02*
X18962Y24851D01*
X18962Y24851D02*
X18942Y24890D01*
X18942Y24890D02*
X18922Y24970D01*
X18922Y24970D02*
X18922Y25029D01*
X18922Y25029D02*
X18942Y25109D01*
X18942Y25109D02*
X18962Y25148D01*
X18962Y25148D02*
X19001Y25188D01*
X19001Y25188D02*
X19061Y25208D01*
X19061Y25208D02*
X19101Y25208D01*
X19101Y25208D02*
X19160Y25188D01*
X19160Y25188D02*
X19180Y25168D01*
X19339Y25168D02*
X19359Y25188D01*
X19359Y25188D02*
X19398Y25208D01*
X19398Y25208D02*
X19498Y25208D01*
X19498Y25208D02*
X19537Y25188D01*
X19537Y25188D02*
X19557Y25168D01*
X19557Y25168D02*
X19577Y25128D01*
X19577Y25128D02*
X19577Y25089D01*
X19577Y25089D02*
X19557Y25029D01*
X19557Y25029D02*
X19319Y24791D01*
X19319Y24791D02*
X19577Y24791D01*
X19180Y8581D02*
X19160Y8561D01*
X19160Y8561D02*
X19101Y8541D01*
X19101Y8541D02*
X19061Y8541D01*
X19061Y8541D02*
X19001Y8561D01*
X19001Y8561D02*
X18962Y8601D01*
X18962Y8601D02*
X18942Y8640D01*
X18942Y8640D02*
X18922Y8720D01*
X18922Y8720D02*
X18922Y8779D01*
X18922Y8779D02*
X18942Y8859D01*
X18942Y8859D02*
X18962Y8898D01*
X18962Y8898D02*
X19001Y8938D01*
X19001Y8938D02*
X19061Y8958D01*
X19061Y8958D02*
X19101Y8958D01*
X19101Y8958D02*
X19160Y8938D01*
X19160Y8938D02*
X19180Y8918D01*
X19577Y8541D02*
X19339Y8541D01*
X19458Y8541D02*
X19458Y8958D01*
X19458Y8958D02*
X19418Y8898D01*
X19418Y8898D02*
X19378Y8859D01*
X19378Y8859D02*
X19339Y8839D01*
X12251Y9041D02*
X12113Y9240D01*
X12013Y9041D02*
X12013Y9458D01*
X12013Y9458D02*
X12172Y9458D01*
X12172Y9458D02*
X12212Y9438D01*
X12212Y9438D02*
X12232Y9418D01*
X12232Y9418D02*
X12251Y9378D01*
X12251Y9378D02*
X12251Y9319D01*
X12251Y9319D02*
X12232Y9279D01*
X12232Y9279D02*
X12212Y9259D01*
X12212Y9259D02*
X12172Y9240D01*
X12172Y9240D02*
X12013Y9240D01*
X12609Y9061D02*
X12569Y9041D01*
X12569Y9041D02*
X12490Y9041D01*
X12490Y9041D02*
X12450Y9061D01*
X12450Y9061D02*
X12430Y9081D01*
X12430Y9081D02*
X12410Y9121D01*
X12410Y9121D02*
X12410Y9240D01*
X12410Y9240D02*
X12430Y9279D01*
X12430Y9279D02*
X12450Y9299D01*
X12450Y9299D02*
X12490Y9319D01*
X12490Y9319D02*
X12569Y9319D01*
X12569Y9319D02*
X12609Y9299D01*
X13005Y9041D02*
X12767Y9041D01*
X12886Y9041D02*
X12886Y9458D01*
X12886Y9458D02*
X12847Y9398D01*
X12847Y9398D02*
X12807Y9359D01*
X12807Y9359D02*
X12767Y9339D01*
X25251Y11291D02*
X25113Y11490D01*
X25013Y11291D02*
X25013Y11708D01*
X25013Y11708D02*
X25172Y11708D01*
X25172Y11708D02*
X25212Y11688D01*
X25212Y11688D02*
X25232Y11668D01*
X25232Y11668D02*
X25251Y11628D01*
X25251Y11628D02*
X25251Y11569D01*
X25251Y11569D02*
X25232Y11529D01*
X25232Y11529D02*
X25212Y11509D01*
X25212Y11509D02*
X25172Y11490D01*
X25172Y11490D02*
X25013Y11490D01*
X25609Y11311D02*
X25569Y11291D01*
X25569Y11291D02*
X25490Y11291D01*
X25490Y11291D02*
X25450Y11311D01*
X25450Y11311D02*
X25430Y11331D01*
X25430Y11331D02*
X25410Y11371D01*
X25410Y11371D02*
X25410Y11490D01*
X25410Y11490D02*
X25430Y11529D01*
X25430Y11529D02*
X25450Y11549D01*
X25450Y11549D02*
X25490Y11569D01*
X25490Y11569D02*
X25569Y11569D01*
X25569Y11569D02*
X25609Y11549D01*
X25986Y11708D02*
X25787Y11708D01*
X25787Y11708D02*
X25767Y11509D01*
X25767Y11509D02*
X25787Y11529D01*
X25787Y11529D02*
X25827Y11549D01*
X25827Y11549D02*
X25926Y11549D01*
X25926Y11549D02*
X25966Y11529D01*
X25966Y11529D02*
X25986Y11509D01*
X25986Y11509D02*
X26005Y11470D01*
X26005Y11470D02*
X26005Y11371D01*
X26005Y11371D02*
X25986Y11331D01*
X25986Y11331D02*
X25966Y11311D01*
X25966Y11311D02*
X25926Y11291D01*
X25926Y11291D02*
X25827Y11291D01*
X25827Y11291D02*
X25787Y11311D01*
X25787Y11311D02*
X25767Y11331D01*
X12251Y10041D02*
X12113Y10240D01*
X12013Y10041D02*
X12013Y10458D01*
X12013Y10458D02*
X12172Y10458D01*
X12172Y10458D02*
X12212Y10438D01*
X12212Y10438D02*
X12232Y10418D01*
X12232Y10418D02*
X12251Y10378D01*
X12251Y10378D02*
X12251Y10319D01*
X12251Y10319D02*
X12232Y10279D01*
X12232Y10279D02*
X12212Y10259D01*
X12212Y10259D02*
X12172Y10240D01*
X12172Y10240D02*
X12013Y10240D01*
X12609Y10061D02*
X12569Y10041D01*
X12569Y10041D02*
X12490Y10041D01*
X12490Y10041D02*
X12450Y10061D01*
X12450Y10061D02*
X12430Y10081D01*
X12430Y10081D02*
X12410Y10121D01*
X12410Y10121D02*
X12410Y10240D01*
X12410Y10240D02*
X12430Y10279D01*
X12430Y10279D02*
X12450Y10299D01*
X12450Y10299D02*
X12490Y10319D01*
X12490Y10319D02*
X12569Y10319D01*
X12569Y10319D02*
X12609Y10299D01*
X12767Y10418D02*
X12787Y10438D01*
X12787Y10438D02*
X12827Y10458D01*
X12827Y10458D02*
X12926Y10458D01*
X12926Y10458D02*
X12966Y10438D01*
X12966Y10438D02*
X12986Y10418D01*
X12986Y10418D02*
X13005Y10378D01*
X13005Y10378D02*
X13005Y10339D01*
X13005Y10339D02*
X12986Y10279D01*
X12986Y10279D02*
X12748Y10041D01*
X12748Y10041D02*
X13005Y10041D01*
X20501Y11281D02*
X20363Y11480D01*
X20263Y11281D02*
X20263Y11698D01*
X20263Y11698D02*
X20422Y11698D01*
X20422Y11698D02*
X20462Y11678D01*
X20462Y11678D02*
X20482Y11658D01*
X20482Y11658D02*
X20501Y11619D01*
X20501Y11619D02*
X20501Y11559D01*
X20501Y11559D02*
X20482Y11519D01*
X20482Y11519D02*
X20462Y11500D01*
X20462Y11500D02*
X20422Y11480D01*
X20422Y11480D02*
X20263Y11480D01*
X20859Y11301D02*
X20819Y11281D01*
X20819Y11281D02*
X20740Y11281D01*
X20740Y11281D02*
X20700Y11301D01*
X20700Y11301D02*
X20680Y11321D01*
X20680Y11321D02*
X20660Y11361D01*
X20660Y11361D02*
X20660Y11480D01*
X20660Y11480D02*
X20680Y11519D01*
X20680Y11519D02*
X20700Y11539D01*
X20700Y11539D02*
X20740Y11559D01*
X20740Y11559D02*
X20819Y11559D01*
X20819Y11559D02*
X20859Y11539D01*
X21216Y11559D02*
X21216Y11281D01*
X21117Y11718D02*
X21017Y11420D01*
X21017Y11420D02*
X21275Y11420D01*
X15251Y11331D02*
X15232Y11311D01*
X15232Y11311D02*
X15172Y11291D01*
X15172Y11291D02*
X15132Y11291D01*
X15132Y11291D02*
X15073Y11311D01*
X15073Y11311D02*
X15033Y11351D01*
X15033Y11351D02*
X15013Y11390D01*
X15013Y11390D02*
X14994Y11470D01*
X14994Y11470D02*
X14994Y11529D01*
X14994Y11529D02*
X15013Y11609D01*
X15013Y11609D02*
X15033Y11648D01*
X15033Y11648D02*
X15073Y11688D01*
X15073Y11688D02*
X15132Y11708D01*
X15132Y11708D02*
X15172Y11708D01*
X15172Y11708D02*
X15232Y11688D01*
X15232Y11688D02*
X15251Y11668D01*
X15609Y11311D02*
X15569Y11291D01*
X15569Y11291D02*
X15490Y11291D01*
X15490Y11291D02*
X15450Y11311D01*
X15450Y11311D02*
X15430Y11331D01*
X15430Y11331D02*
X15410Y11371D01*
X15410Y11371D02*
X15410Y11490D01*
X15410Y11490D02*
X15430Y11529D01*
X15430Y11529D02*
X15450Y11549D01*
X15450Y11549D02*
X15490Y11569D01*
X15490Y11569D02*
X15569Y11569D01*
X15569Y11569D02*
X15609Y11549D01*
X16005Y11291D02*
X15767Y11291D01*
X15886Y11291D02*
X15886Y11708D01*
X15886Y11708D02*
X15847Y11648D01*
X15847Y11648D02*
X15807Y11609D01*
X15807Y11609D02*
X15767Y11589D01*
X26001Y9581D02*
X25982Y9561D01*
X25982Y9561D02*
X25922Y9541D01*
X25922Y9541D02*
X25882Y9541D01*
X25882Y9541D02*
X25823Y9561D01*
X25823Y9561D02*
X25783Y9601D01*
X25783Y9601D02*
X25763Y9640D01*
X25763Y9640D02*
X25744Y9720D01*
X25744Y9720D02*
X25744Y9779D01*
X25744Y9779D02*
X25763Y9859D01*
X25763Y9859D02*
X25783Y9898D01*
X25783Y9898D02*
X25823Y9938D01*
X25823Y9938D02*
X25882Y9958D01*
X25882Y9958D02*
X25922Y9958D01*
X25922Y9958D02*
X25982Y9938D01*
X25982Y9938D02*
X26001Y9918D01*
X26359Y9561D02*
X26319Y9541D01*
X26319Y9541D02*
X26240Y9541D01*
X26240Y9541D02*
X26200Y9561D01*
X26200Y9561D02*
X26180Y9581D01*
X26180Y9581D02*
X26160Y9621D01*
X26160Y9621D02*
X26160Y9740D01*
X26160Y9740D02*
X26180Y9779D01*
X26180Y9779D02*
X26200Y9799D01*
X26200Y9799D02*
X26240Y9819D01*
X26240Y9819D02*
X26319Y9819D01*
X26319Y9819D02*
X26359Y9799D01*
X26517Y9918D02*
X26537Y9938D01*
X26537Y9938D02*
X26577Y9958D01*
X26577Y9958D02*
X26676Y9958D01*
X26676Y9958D02*
X26716Y9938D01*
X26716Y9938D02*
X26736Y9918D01*
X26736Y9918D02*
X26755Y9878D01*
X26755Y9878D02*
X26755Y9839D01*
X26755Y9839D02*
X26736Y9779D01*
X26736Y9779D02*
X26498Y9541D01*
X26498Y9541D02*
X26755Y9541D01*
X12242Y8041D02*
X12103Y8240D01*
X12003Y8041D02*
X12003Y8458D01*
X12003Y8458D02*
X12162Y8458D01*
X12162Y8458D02*
X12202Y8438D01*
X12202Y8438D02*
X12222Y8418D01*
X12222Y8418D02*
X12242Y8378D01*
X12242Y8378D02*
X12242Y8319D01*
X12242Y8319D02*
X12222Y8279D01*
X12222Y8279D02*
X12202Y8259D01*
X12202Y8259D02*
X12162Y8240D01*
X12162Y8240D02*
X12003Y8240D01*
X12599Y8041D02*
X12599Y8458D01*
X12599Y8061D02*
X12559Y8041D01*
X12559Y8041D02*
X12480Y8041D01*
X12480Y8041D02*
X12440Y8061D01*
X12440Y8061D02*
X12420Y8081D01*
X12420Y8081D02*
X12400Y8121D01*
X12400Y8121D02*
X12400Y8240D01*
X12400Y8240D02*
X12420Y8279D01*
X12420Y8279D02*
X12440Y8299D01*
X12440Y8299D02*
X12480Y8319D01*
X12480Y8319D02*
X12559Y8319D01*
X12559Y8319D02*
X12599Y8299D01*
X12757Y8458D02*
X13015Y8458D01*
X13015Y8458D02*
X12876Y8299D01*
X12876Y8299D02*
X12936Y8299D01*
X12936Y8299D02*
X12976Y8279D01*
X12976Y8279D02*
X12996Y8259D01*
X12996Y8259D02*
X13015Y8220D01*
X13015Y8220D02*
X13015Y8121D01*
X13015Y8121D02*
X12996Y8081D01*
X12996Y8081D02*
X12976Y8061D01*
X12976Y8061D02*
X12936Y8041D01*
X12936Y8041D02*
X12817Y8041D01*
X12817Y8041D02*
X12777Y8061D01*
X12777Y8061D02*
X12757Y8081D01*
X12242Y7041D02*
X12103Y7240D01*
X12003Y7041D02*
X12003Y7458D01*
X12003Y7458D02*
X12162Y7458D01*
X12162Y7458D02*
X12202Y7438D01*
X12202Y7438D02*
X12222Y7418D01*
X12222Y7418D02*
X12242Y7378D01*
X12242Y7378D02*
X12242Y7319D01*
X12242Y7319D02*
X12222Y7279D01*
X12222Y7279D02*
X12202Y7259D01*
X12202Y7259D02*
X12162Y7240D01*
X12162Y7240D02*
X12003Y7240D01*
X12599Y7041D02*
X12599Y7458D01*
X12599Y7061D02*
X12559Y7041D01*
X12559Y7041D02*
X12480Y7041D01*
X12480Y7041D02*
X12440Y7061D01*
X12440Y7061D02*
X12420Y7081D01*
X12420Y7081D02*
X12400Y7121D01*
X12400Y7121D02*
X12400Y7240D01*
X12400Y7240D02*
X12420Y7279D01*
X12420Y7279D02*
X12440Y7299D01*
X12440Y7299D02*
X12480Y7319D01*
X12480Y7319D02*
X12559Y7319D01*
X12559Y7319D02*
X12599Y7299D01*
X12777Y7418D02*
X12797Y7438D01*
X12797Y7438D02*
X12837Y7458D01*
X12837Y7458D02*
X12936Y7458D01*
X12936Y7458D02*
X12976Y7438D01*
X12976Y7438D02*
X12996Y7418D01*
X12996Y7418D02*
X13015Y7378D01*
X13015Y7378D02*
X13015Y7339D01*
X13015Y7339D02*
X12996Y7279D01*
X12996Y7279D02*
X12757Y7041D01*
X12757Y7041D02*
X13015Y7041D01*
X25242Y5791D02*
X25103Y5990D01*
X25003Y5791D02*
X25003Y6208D01*
X25003Y6208D02*
X25162Y6208D01*
X25162Y6208D02*
X25202Y6188D01*
X25202Y6188D02*
X25222Y6168D01*
X25222Y6168D02*
X25242Y6128D01*
X25242Y6128D02*
X25242Y6069D01*
X25242Y6069D02*
X25222Y6029D01*
X25222Y6029D02*
X25202Y6009D01*
X25202Y6009D02*
X25162Y5990D01*
X25162Y5990D02*
X25003Y5990D01*
X25599Y5791D02*
X25599Y6208D01*
X25599Y5811D02*
X25559Y5791D01*
X25559Y5791D02*
X25480Y5791D01*
X25480Y5791D02*
X25440Y5811D01*
X25440Y5811D02*
X25420Y5831D01*
X25420Y5831D02*
X25400Y5871D01*
X25400Y5871D02*
X25400Y5990D01*
X25400Y5990D02*
X25420Y6029D01*
X25420Y6029D02*
X25440Y6049D01*
X25440Y6049D02*
X25480Y6069D01*
X25480Y6069D02*
X25559Y6069D01*
X25559Y6069D02*
X25599Y6049D01*
X25996Y6208D02*
X25797Y6208D01*
X25797Y6208D02*
X25777Y6009D01*
X25777Y6009D02*
X25797Y6029D01*
X25797Y6029D02*
X25837Y6049D01*
X25837Y6049D02*
X25936Y6049D01*
X25936Y6049D02*
X25976Y6029D01*
X25976Y6029D02*
X25996Y6009D01*
X25996Y6009D02*
X26015Y5970D01*
X26015Y5970D02*
X26015Y5871D01*
X26015Y5871D02*
X25996Y5831D01*
X25996Y5831D02*
X25976Y5811D01*
X25976Y5811D02*
X25936Y5791D01*
X25936Y5791D02*
X25837Y5791D01*
X25837Y5791D02*
X25797Y5811D01*
X25797Y5811D02*
X25777Y5831D01*
X20492Y5781D02*
X20353Y5980D01*
X20253Y5781D02*
X20253Y6198D01*
X20253Y6198D02*
X20412Y6198D01*
X20412Y6198D02*
X20452Y6178D01*
X20452Y6178D02*
X20472Y6158D01*
X20472Y6158D02*
X20492Y6119D01*
X20492Y6119D02*
X20492Y6059D01*
X20492Y6059D02*
X20472Y6019D01*
X20472Y6019D02*
X20452Y6000D01*
X20452Y6000D02*
X20412Y5980D01*
X20412Y5980D02*
X20253Y5980D01*
X20849Y5781D02*
X20849Y6198D01*
X20849Y5801D02*
X20809Y5781D01*
X20809Y5781D02*
X20730Y5781D01*
X20730Y5781D02*
X20690Y5801D01*
X20690Y5801D02*
X20670Y5821D01*
X20670Y5821D02*
X20650Y5861D01*
X20650Y5861D02*
X20650Y5980D01*
X20650Y5980D02*
X20670Y6019D01*
X20670Y6019D02*
X20690Y6039D01*
X20690Y6039D02*
X20730Y6059D01*
X20730Y6059D02*
X20809Y6059D01*
X20809Y6059D02*
X20849Y6039D01*
X21226Y6059D02*
X21226Y5781D01*
X21126Y6218D02*
X21027Y5920D01*
X21027Y5920D02*
X21285Y5920D01*
X25992Y7581D02*
X25972Y7561D01*
X25972Y7561D02*
X25912Y7541D01*
X25912Y7541D02*
X25873Y7541D01*
X25873Y7541D02*
X25813Y7561D01*
X25813Y7561D02*
X25773Y7601D01*
X25773Y7601D02*
X25753Y7640D01*
X25753Y7640D02*
X25734Y7720D01*
X25734Y7720D02*
X25734Y7779D01*
X25734Y7779D02*
X25753Y7859D01*
X25753Y7859D02*
X25773Y7898D01*
X25773Y7898D02*
X25813Y7938D01*
X25813Y7938D02*
X25873Y7958D01*
X25873Y7958D02*
X25912Y7958D01*
X25912Y7958D02*
X25972Y7938D01*
X25972Y7938D02*
X25992Y7918D01*
X26349Y7541D02*
X26349Y7958D01*
X26349Y7561D02*
X26309Y7541D01*
X26309Y7541D02*
X26230Y7541D01*
X26230Y7541D02*
X26190Y7561D01*
X26190Y7561D02*
X26170Y7581D01*
X26170Y7581D02*
X26150Y7621D01*
X26150Y7621D02*
X26150Y7740D01*
X26150Y7740D02*
X26170Y7779D01*
X26170Y7779D02*
X26190Y7799D01*
X26190Y7799D02*
X26230Y7819D01*
X26230Y7819D02*
X26309Y7819D01*
X26309Y7819D02*
X26349Y7799D01*
X26527Y7918D02*
X26547Y7938D01*
X26547Y7938D02*
X26587Y7958D01*
X26587Y7958D02*
X26686Y7958D01*
X26686Y7958D02*
X26726Y7938D01*
X26726Y7938D02*
X26746Y7918D01*
X26746Y7918D02*
X26765Y7878D01*
X26765Y7878D02*
X26765Y7839D01*
X26765Y7839D02*
X26746Y7779D01*
X26746Y7779D02*
X26507Y7541D01*
X26507Y7541D02*
X26765Y7541D01*
X15242Y5831D02*
X15222Y5811D01*
X15222Y5811D02*
X15162Y5791D01*
X15162Y5791D02*
X15123Y5791D01*
X15123Y5791D02*
X15063Y5811D01*
X15063Y5811D02*
X15023Y5851D01*
X15023Y5851D02*
X15003Y5890D01*
X15003Y5890D02*
X14984Y5970D01*
X14984Y5970D02*
X14984Y6029D01*
X14984Y6029D02*
X15003Y6109D01*
X15003Y6109D02*
X15023Y6148D01*
X15023Y6148D02*
X15063Y6188D01*
X15063Y6188D02*
X15123Y6208D01*
X15123Y6208D02*
X15162Y6208D01*
X15162Y6208D02*
X15222Y6188D01*
X15222Y6188D02*
X15242Y6168D01*
X15599Y5791D02*
X15599Y6208D01*
X15599Y5811D02*
X15559Y5791D01*
X15559Y5791D02*
X15480Y5791D01*
X15480Y5791D02*
X15440Y5811D01*
X15440Y5811D02*
X15420Y5831D01*
X15420Y5831D02*
X15400Y5871D01*
X15400Y5871D02*
X15400Y5990D01*
X15400Y5990D02*
X15420Y6029D01*
X15420Y6029D02*
X15440Y6049D01*
X15440Y6049D02*
X15480Y6069D01*
X15480Y6069D02*
X15559Y6069D01*
X15559Y6069D02*
X15599Y6049D01*
X16015Y5791D02*
X15777Y5791D01*
X15896Y5791D02*
X15896Y6208D01*
X15896Y6208D02*
X15857Y6148D01*
X15857Y6148D02*
X15817Y6109D01*
X15817Y6109D02*
X15777Y6089D01*
X12242Y27541D02*
X12103Y27740D01*
X12003Y27541D02*
X12003Y27958D01*
X12003Y27958D02*
X12162Y27958D01*
X12162Y27958D02*
X12202Y27938D01*
X12202Y27938D02*
X12222Y27918D01*
X12222Y27918D02*
X12242Y27878D01*
X12242Y27878D02*
X12242Y27819D01*
X12242Y27819D02*
X12222Y27779D01*
X12222Y27779D02*
X12202Y27759D01*
X12202Y27759D02*
X12162Y27740D01*
X12162Y27740D02*
X12003Y27740D01*
X12599Y27541D02*
X12599Y27759D01*
X12599Y27759D02*
X12579Y27799D01*
X12579Y27799D02*
X12539Y27819D01*
X12539Y27819D02*
X12460Y27819D01*
X12460Y27819D02*
X12420Y27799D01*
X12599Y27561D02*
X12559Y27541D01*
X12559Y27541D02*
X12460Y27541D01*
X12460Y27541D02*
X12420Y27561D01*
X12420Y27561D02*
X12400Y27601D01*
X12400Y27601D02*
X12400Y27640D01*
X12400Y27640D02*
X12420Y27680D01*
X12420Y27680D02*
X12460Y27700D01*
X12460Y27700D02*
X12559Y27700D01*
X12559Y27700D02*
X12599Y27720D01*
X12757Y27958D02*
X13015Y27958D01*
X13015Y27958D02*
X12876Y27799D01*
X12876Y27799D02*
X12936Y27799D01*
X12936Y27799D02*
X12976Y27779D01*
X12976Y27779D02*
X12996Y27759D01*
X12996Y27759D02*
X13015Y27720D01*
X13015Y27720D02*
X13015Y27621D01*
X13015Y27621D02*
X12996Y27581D01*
X12996Y27581D02*
X12976Y27561D01*
X12976Y27561D02*
X12936Y27541D01*
X12936Y27541D02*
X12817Y27541D01*
X12817Y27541D02*
X12777Y27561D01*
X12777Y27561D02*
X12757Y27581D01*
X12242Y22041D02*
X12103Y22240D01*
X12003Y22041D02*
X12003Y22458D01*
X12003Y22458D02*
X12162Y22458D01*
X12162Y22458D02*
X12202Y22438D01*
X12202Y22438D02*
X12222Y22418D01*
X12222Y22418D02*
X12242Y22378D01*
X12242Y22378D02*
X12242Y22319D01*
X12242Y22319D02*
X12222Y22279D01*
X12222Y22279D02*
X12202Y22259D01*
X12202Y22259D02*
X12162Y22240D01*
X12162Y22240D02*
X12003Y22240D01*
X12420Y22041D02*
X12420Y22458D01*
X12420Y22299D02*
X12460Y22319D01*
X12460Y22319D02*
X12539Y22319D01*
X12539Y22319D02*
X12579Y22299D01*
X12579Y22299D02*
X12599Y22279D01*
X12599Y22279D02*
X12619Y22240D01*
X12619Y22240D02*
X12619Y22121D01*
X12619Y22121D02*
X12599Y22081D01*
X12599Y22081D02*
X12579Y22061D01*
X12579Y22061D02*
X12539Y22041D01*
X12539Y22041D02*
X12460Y22041D01*
X12460Y22041D02*
X12420Y22061D01*
X13015Y22041D02*
X12777Y22041D01*
X12896Y22041D02*
X12896Y22458D01*
X12896Y22458D02*
X12857Y22398D01*
X12857Y22398D02*
X12817Y22359D01*
X12817Y22359D02*
X12777Y22339D01*
X12251Y11291D02*
X12113Y11490D01*
X12013Y11291D02*
X12013Y11708D01*
X12013Y11708D02*
X12172Y11708D01*
X12172Y11708D02*
X12212Y11688D01*
X12212Y11688D02*
X12232Y11668D01*
X12232Y11668D02*
X12251Y11628D01*
X12251Y11628D02*
X12251Y11569D01*
X12251Y11569D02*
X12232Y11529D01*
X12232Y11529D02*
X12212Y11509D01*
X12212Y11509D02*
X12172Y11490D01*
X12172Y11490D02*
X12013Y11490D01*
X12609Y11311D02*
X12569Y11291D01*
X12569Y11291D02*
X12490Y11291D01*
X12490Y11291D02*
X12450Y11311D01*
X12450Y11311D02*
X12430Y11331D01*
X12430Y11331D02*
X12410Y11371D01*
X12410Y11371D02*
X12410Y11490D01*
X12410Y11490D02*
X12430Y11529D01*
X12430Y11529D02*
X12450Y11549D01*
X12450Y11549D02*
X12490Y11569D01*
X12490Y11569D02*
X12569Y11569D01*
X12569Y11569D02*
X12609Y11549D01*
X12748Y11708D02*
X13005Y11708D01*
X13005Y11708D02*
X12867Y11549D01*
X12867Y11549D02*
X12926Y11549D01*
X12926Y11549D02*
X12966Y11529D01*
X12966Y11529D02*
X12986Y11509D01*
X12986Y11509D02*
X13005Y11470D01*
X13005Y11470D02*
X13005Y11371D01*
X13005Y11371D02*
X12986Y11331D01*
X12986Y11331D02*
X12966Y11311D01*
X12966Y11311D02*
X12926Y11291D01*
X12926Y11291D02*
X12807Y11291D01*
X12807Y11291D02*
X12767Y11311D01*
X12767Y11311D02*
X12748Y11331D01*
X12242Y5791D02*
X12103Y5990D01*
X12003Y5791D02*
X12003Y6208D01*
X12003Y6208D02*
X12162Y6208D01*
X12162Y6208D02*
X12202Y6188D01*
X12202Y6188D02*
X12222Y6168D01*
X12222Y6168D02*
X12242Y6128D01*
X12242Y6128D02*
X12242Y6069D01*
X12242Y6069D02*
X12222Y6029D01*
X12222Y6029D02*
X12202Y6009D01*
X12202Y6009D02*
X12162Y5990D01*
X12162Y5990D02*
X12003Y5990D01*
X12599Y5791D02*
X12599Y6208D01*
X12599Y5811D02*
X12559Y5791D01*
X12559Y5791D02*
X12480Y5791D01*
X12480Y5791D02*
X12440Y5811D01*
X12440Y5811D02*
X12420Y5831D01*
X12420Y5831D02*
X12400Y5871D01*
X12400Y5871D02*
X12400Y5990D01*
X12400Y5990D02*
X12420Y6029D01*
X12420Y6029D02*
X12440Y6049D01*
X12440Y6049D02*
X12480Y6069D01*
X12480Y6069D02*
X12559Y6069D01*
X12559Y6069D02*
X12599Y6049D01*
X13015Y5791D02*
X12777Y5791D01*
X12896Y5791D02*
X12896Y6208D01*
X12896Y6208D02*
X12857Y6148D01*
X12857Y6148D02*
X12817Y6109D01*
X12817Y6109D02*
X12777Y6089D01*
X31180Y34331D02*
X31160Y34311D01*
X31160Y34311D02*
X31101Y34291D01*
X31101Y34291D02*
X31061Y34291D01*
X31061Y34291D02*
X31001Y34311D01*
X31001Y34311D02*
X30962Y34351D01*
X30962Y34351D02*
X30942Y34390D01*
X30942Y34390D02*
X30922Y34470D01*
X30922Y34470D02*
X30922Y34529D01*
X30922Y34529D02*
X30942Y34609D01*
X30942Y34609D02*
X30962Y34648D01*
X30962Y34648D02*
X31001Y34688D01*
X31001Y34688D02*
X31061Y34708D01*
X31061Y34708D02*
X31101Y34708D01*
X31101Y34708D02*
X31160Y34688D01*
X31160Y34688D02*
X31180Y34668D01*
X31537Y34708D02*
X31458Y34708D01*
X31458Y34708D02*
X31418Y34688D01*
X31418Y34688D02*
X31398Y34668D01*
X31398Y34668D02*
X31359Y34609D01*
X31359Y34609D02*
X31339Y34529D01*
X31339Y34529D02*
X31339Y34371D01*
X31339Y34371D02*
X31359Y34331D01*
X31359Y34331D02*
X31378Y34311D01*
X31378Y34311D02*
X31418Y34291D01*
X31418Y34291D02*
X31498Y34291D01*
X31498Y34291D02*
X31537Y34311D01*
X31537Y34311D02*
X31557Y34331D01*
X31557Y34331D02*
X31577Y34371D01*
X31577Y34371D02*
X31577Y34470D01*
X31577Y34470D02*
X31557Y34509D01*
X31557Y34509D02*
X31537Y34529D01*
X31537Y34529D02*
X31498Y34549D01*
X31498Y34549D02*
X31418Y34549D01*
X31418Y34549D02*
X31378Y34529D01*
X31378Y34529D02*
X31359Y34509D01*
X31359Y34509D02*
X31339Y34470D01*
X7067Y30438D02*
X7027Y30458D01*
X7027Y30458D02*
X6968Y30458D01*
X6968Y30458D02*
X6908Y30438D01*
X6908Y30438D02*
X6869Y30398D01*
X6869Y30398D02*
X6849Y30359D01*
X6849Y30359D02*
X6829Y30279D01*
X6829Y30279D02*
X6829Y30220D01*
X6829Y30220D02*
X6849Y30140D01*
X6849Y30140D02*
X6869Y30101D01*
X6869Y30101D02*
X6908Y30061D01*
X6908Y30061D02*
X6968Y30041D01*
X6968Y30041D02*
X7007Y30041D01*
X7007Y30041D02*
X7067Y30061D01*
X7067Y30061D02*
X7087Y30081D01*
X7087Y30081D02*
X7087Y30220D01*
X7087Y30220D02*
X7007Y30220D01*
X7265Y30041D02*
X7265Y30458D01*
X7265Y30458D02*
X7503Y30041D01*
X7503Y30041D02*
X7503Y30458D01*
X7702Y30041D02*
X7702Y30458D01*
X7702Y30458D02*
X7801Y30458D01*
X7801Y30458D02*
X7861Y30438D01*
X7861Y30438D02*
X7900Y30398D01*
X7900Y30398D02*
X7920Y30359D01*
X7920Y30359D02*
X7940Y30279D01*
X7940Y30279D02*
X7940Y30220D01*
X7940Y30220D02*
X7920Y30140D01*
X7920Y30140D02*
X7900Y30101D01*
X7900Y30101D02*
X7861Y30061D01*
X7861Y30061D02*
X7801Y30041D01*
X7801Y30041D02*
X7702Y30041D01*
X6849Y31250D02*
X6988Y31250D01*
X7047Y31031D02*
X6849Y31031D01*
X6849Y31031D02*
X6849Y31448D01*
X6849Y31448D02*
X7047Y31448D01*
X7226Y31309D02*
X7226Y31031D01*
X7226Y31269D02*
X7246Y31289D01*
X7246Y31289D02*
X7285Y31309D01*
X7285Y31309D02*
X7345Y31309D01*
X7345Y31309D02*
X7384Y31289D01*
X7384Y31289D02*
X7404Y31250D01*
X7404Y31250D02*
X7404Y31031D01*
X7543Y31309D02*
X7702Y31309D01*
X7603Y31448D02*
X7603Y31091D01*
X7603Y31091D02*
X7623Y31051D01*
X7623Y31051D02*
X7662Y31031D01*
X7662Y31031D02*
X7702Y31031D01*
X7841Y31031D02*
X7841Y31309D01*
X7841Y31230D02*
X7861Y31269D01*
X7861Y31269D02*
X7880Y31289D01*
X7880Y31289D02*
X7920Y31309D01*
X7920Y31309D02*
X7960Y31309D01*
X8257Y31051D02*
X8218Y31031D01*
X8218Y31031D02*
X8138Y31031D01*
X8138Y31031D02*
X8099Y31051D01*
X8099Y31051D02*
X8079Y31091D01*
X8079Y31091D02*
X8079Y31250D01*
X8079Y31250D02*
X8099Y31289D01*
X8099Y31289D02*
X8138Y31309D01*
X8138Y31309D02*
X8218Y31309D01*
X8218Y31309D02*
X8257Y31289D01*
X8257Y31289D02*
X8277Y31250D01*
X8277Y31250D02*
X8277Y31210D01*
X8277Y31210D02*
X8079Y31170D01*
X8218Y31468D02*
X8158Y31408D01*
X8615Y31051D02*
X8575Y31031D01*
X8575Y31031D02*
X8496Y31031D01*
X8496Y31031D02*
X8456Y31051D01*
X8456Y31051D02*
X8436Y31091D01*
X8436Y31091D02*
X8436Y31250D01*
X8436Y31250D02*
X8456Y31289D01*
X8456Y31289D02*
X8496Y31309D01*
X8496Y31309D02*
X8575Y31309D01*
X8575Y31309D02*
X8615Y31289D01*
X8615Y31289D02*
X8634Y31250D01*
X8634Y31250D02*
X8634Y31210D01*
X8634Y31210D02*
X8436Y31170D01*
X9111Y31150D02*
X9309Y31150D01*
X9071Y31031D02*
X9210Y31448D01*
X9210Y31448D02*
X9349Y31031D01*
X30547Y31438D02*
X30507Y31458D01*
X30507Y31458D02*
X30448Y31458D01*
X30448Y31458D02*
X30388Y31438D01*
X30388Y31438D02*
X30349Y31398D01*
X30349Y31398D02*
X30329Y31359D01*
X30329Y31359D02*
X30309Y31279D01*
X30309Y31279D02*
X30309Y31220D01*
X30309Y31220D02*
X30329Y31140D01*
X30329Y31140D02*
X30349Y31101D01*
X30349Y31101D02*
X30388Y31061D01*
X30388Y31061D02*
X30448Y31041D01*
X30448Y31041D02*
X30488Y31041D01*
X30488Y31041D02*
X30547Y31061D01*
X30547Y31061D02*
X30567Y31081D01*
X30567Y31081D02*
X30567Y31220D01*
X30567Y31220D02*
X30488Y31220D01*
X30746Y31041D02*
X30746Y31458D01*
X30746Y31458D02*
X30984Y31041D01*
X30984Y31041D02*
X30984Y31458D01*
X31182Y31041D02*
X31182Y31458D01*
X31182Y31458D02*
X31281Y31458D01*
X31281Y31458D02*
X31341Y31438D01*
X31341Y31438D02*
X31380Y31398D01*
X31380Y31398D02*
X31400Y31359D01*
X31400Y31359D02*
X31420Y31279D01*
X31420Y31279D02*
X31420Y31220D01*
X31420Y31220D02*
X31400Y31140D01*
X31400Y31140D02*
X31380Y31101D01*
X31380Y31101D02*
X31341Y31061D01*
X31341Y31061D02*
X31281Y31041D01*
X31281Y31041D02*
X31182Y31041D01*
X29079Y30061D02*
X29138Y30041D01*
X29138Y30041D02*
X29238Y30041D01*
X29238Y30041D02*
X29277Y30061D01*
X29277Y30061D02*
X29297Y30081D01*
X29297Y30081D02*
X29317Y30121D01*
X29317Y30121D02*
X29317Y30160D01*
X29317Y30160D02*
X29297Y30200D01*
X29297Y30200D02*
X29277Y30220D01*
X29277Y30220D02*
X29238Y30240D01*
X29238Y30240D02*
X29158Y30259D01*
X29158Y30259D02*
X29119Y30279D01*
X29119Y30279D02*
X29099Y30299D01*
X29099Y30299D02*
X29079Y30339D01*
X29079Y30339D02*
X29079Y30378D01*
X29079Y30378D02*
X29099Y30418D01*
X29099Y30418D02*
X29119Y30438D01*
X29119Y30438D02*
X29158Y30458D01*
X29158Y30458D02*
X29257Y30458D01*
X29257Y30458D02*
X29317Y30438D01*
X29555Y30041D02*
X29515Y30061D01*
X29515Y30061D02*
X29496Y30081D01*
X29496Y30081D02*
X29476Y30121D01*
X29476Y30121D02*
X29476Y30240D01*
X29476Y30240D02*
X29496Y30279D01*
X29496Y30279D02*
X29515Y30299D01*
X29515Y30299D02*
X29555Y30319D01*
X29555Y30319D02*
X29615Y30319D01*
X29615Y30319D02*
X29654Y30299D01*
X29654Y30299D02*
X29674Y30279D01*
X29674Y30279D02*
X29694Y30240D01*
X29694Y30240D02*
X29694Y30121D01*
X29694Y30121D02*
X29674Y30081D01*
X29674Y30081D02*
X29654Y30061D01*
X29654Y30061D02*
X29615Y30041D01*
X29615Y30041D02*
X29555Y30041D01*
X29873Y30041D02*
X29873Y30319D01*
X29873Y30240D02*
X29892Y30279D01*
X29892Y30279D02*
X29912Y30299D01*
X29912Y30299D02*
X29952Y30319D01*
X29952Y30319D02*
X29992Y30319D01*
X30071Y30319D02*
X30230Y30319D01*
X30130Y30458D02*
X30130Y30101D01*
X30130Y30101D02*
X30150Y30061D01*
X30150Y30061D02*
X30190Y30041D01*
X30190Y30041D02*
X30230Y30041D01*
X30369Y30041D02*
X30369Y30319D01*
X30369Y30458D02*
X30349Y30438D01*
X30349Y30438D02*
X30369Y30418D01*
X30369Y30418D02*
X30388Y30438D01*
X30388Y30438D02*
X30369Y30458D01*
X30369Y30458D02*
X30369Y30418D01*
X30726Y30061D02*
X30686Y30041D01*
X30686Y30041D02*
X30607Y30041D01*
X30607Y30041D02*
X30567Y30061D01*
X30567Y30061D02*
X30547Y30101D01*
X30547Y30101D02*
X30547Y30259D01*
X30547Y30259D02*
X30567Y30299D01*
X30567Y30299D02*
X30607Y30319D01*
X30607Y30319D02*
X30686Y30319D01*
X30686Y30319D02*
X30726Y30299D01*
X30726Y30299D02*
X30746Y30259D01*
X30746Y30259D02*
X30746Y30220D01*
X30746Y30220D02*
X30547Y30180D01*
X31222Y30160D02*
X31420Y30160D01*
X31182Y30041D02*
X31321Y30458D01*
X31321Y30458D02*
X31460Y30041D01*
X7067Y18688D02*
X7027Y18708D01*
X7027Y18708D02*
X6968Y18708D01*
X6968Y18708D02*
X6908Y18688D01*
X6908Y18688D02*
X6869Y18648D01*
X6869Y18648D02*
X6849Y18609D01*
X6849Y18609D02*
X6829Y18529D01*
X6829Y18529D02*
X6829Y18470D01*
X6829Y18470D02*
X6849Y18390D01*
X6849Y18390D02*
X6869Y18351D01*
X6869Y18351D02*
X6908Y18311D01*
X6908Y18311D02*
X6968Y18291D01*
X6968Y18291D02*
X7007Y18291D01*
X7007Y18291D02*
X7067Y18311D01*
X7067Y18311D02*
X7087Y18331D01*
X7087Y18331D02*
X7087Y18470D01*
X7087Y18470D02*
X7007Y18470D01*
X7265Y18291D02*
X7265Y18708D01*
X7265Y18708D02*
X7503Y18291D01*
X7503Y18291D02*
X7503Y18708D01*
X7702Y18291D02*
X7702Y18708D01*
X7702Y18708D02*
X7801Y18708D01*
X7801Y18708D02*
X7861Y18688D01*
X7861Y18688D02*
X7900Y18648D01*
X7900Y18648D02*
X7920Y18609D01*
X7920Y18609D02*
X7940Y18529D01*
X7940Y18529D02*
X7940Y18470D01*
X7940Y18470D02*
X7920Y18390D01*
X7920Y18390D02*
X7900Y18351D01*
X7900Y18351D02*
X7861Y18311D01*
X7861Y18311D02*
X7801Y18291D01*
X7801Y18291D02*
X7702Y18291D01*
X6849Y19500D02*
X6988Y19500D01*
X7047Y19281D02*
X6849Y19281D01*
X6849Y19281D02*
X6849Y19698D01*
X6849Y19698D02*
X7047Y19698D01*
X7226Y19559D02*
X7226Y19281D01*
X7226Y19519D02*
X7246Y19539D01*
X7246Y19539D02*
X7285Y19559D01*
X7285Y19559D02*
X7345Y19559D01*
X7345Y19559D02*
X7384Y19539D01*
X7384Y19539D02*
X7404Y19500D01*
X7404Y19500D02*
X7404Y19281D01*
X7543Y19559D02*
X7702Y19559D01*
X7603Y19698D02*
X7603Y19341D01*
X7603Y19341D02*
X7623Y19301D01*
X7623Y19301D02*
X7662Y19281D01*
X7662Y19281D02*
X7702Y19281D01*
X7841Y19281D02*
X7841Y19559D01*
X7841Y19480D02*
X7861Y19519D01*
X7861Y19519D02*
X7880Y19539D01*
X7880Y19539D02*
X7920Y19559D01*
X7920Y19559D02*
X7960Y19559D01*
X8257Y19301D02*
X8218Y19281D01*
X8218Y19281D02*
X8138Y19281D01*
X8138Y19281D02*
X8099Y19301D01*
X8099Y19301D02*
X8079Y19341D01*
X8079Y19341D02*
X8079Y19500D01*
X8079Y19500D02*
X8099Y19539D01*
X8099Y19539D02*
X8138Y19559D01*
X8138Y19559D02*
X8218Y19559D01*
X8218Y19559D02*
X8257Y19539D01*
X8257Y19539D02*
X8277Y19500D01*
X8277Y19500D02*
X8277Y19460D01*
X8277Y19460D02*
X8079Y19420D01*
X8218Y19718D02*
X8158Y19658D01*
X8615Y19301D02*
X8575Y19281D01*
X8575Y19281D02*
X8496Y19281D01*
X8496Y19281D02*
X8456Y19301D01*
X8456Y19301D02*
X8436Y19341D01*
X8436Y19341D02*
X8436Y19500D01*
X8436Y19500D02*
X8456Y19539D01*
X8456Y19539D02*
X8496Y19559D01*
X8496Y19559D02*
X8575Y19559D01*
X8575Y19559D02*
X8615Y19539D01*
X8615Y19539D02*
X8634Y19500D01*
X8634Y19500D02*
X8634Y19460D01*
X8634Y19460D02*
X8436Y19420D01*
X9269Y19500D02*
X9329Y19480D01*
X9329Y19480D02*
X9349Y19460D01*
X9349Y19460D02*
X9369Y19420D01*
X9369Y19420D02*
X9369Y19361D01*
X9369Y19361D02*
X9349Y19321D01*
X9349Y19321D02*
X9329Y19301D01*
X9329Y19301D02*
X9289Y19281D01*
X9289Y19281D02*
X9130Y19281D01*
X9130Y19281D02*
X9130Y19698D01*
X9130Y19698D02*
X9269Y19698D01*
X9269Y19698D02*
X9309Y19678D01*
X9309Y19678D02*
X9329Y19658D01*
X9329Y19658D02*
X9349Y19619D01*
X9349Y19619D02*
X9349Y19579D01*
X9349Y19579D02*
X9329Y19539D01*
X9329Y19539D02*
X9309Y19519D01*
X9309Y19519D02*
X9269Y19500D01*
X9269Y19500D02*
X9130Y19500D01*
X30797Y19688D02*
X30757Y19708D01*
X30757Y19708D02*
X30698Y19708D01*
X30698Y19708D02*
X30638Y19688D01*
X30638Y19688D02*
X30599Y19648D01*
X30599Y19648D02*
X30579Y19609D01*
X30579Y19609D02*
X30559Y19529D01*
X30559Y19529D02*
X30559Y19470D01*
X30559Y19470D02*
X30579Y19390D01*
X30579Y19390D02*
X30599Y19351D01*
X30599Y19351D02*
X30638Y19311D01*
X30638Y19311D02*
X30698Y19291D01*
X30698Y19291D02*
X30738Y19291D01*
X30738Y19291D02*
X30797Y19311D01*
X30797Y19311D02*
X30817Y19331D01*
X30817Y19331D02*
X30817Y19470D01*
X30817Y19470D02*
X30738Y19470D01*
X30996Y19291D02*
X30996Y19708D01*
X30996Y19708D02*
X31234Y19291D01*
X31234Y19291D02*
X31234Y19708D01*
X31432Y19291D02*
X31432Y19708D01*
X31432Y19708D02*
X31531Y19708D01*
X31531Y19708D02*
X31591Y19688D01*
X31591Y19688D02*
X31630Y19648D01*
X31630Y19648D02*
X31650Y19609D01*
X31650Y19609D02*
X31670Y19529D01*
X31670Y19529D02*
X31670Y19470D01*
X31670Y19470D02*
X31650Y19390D01*
X31650Y19390D02*
X31630Y19351D01*
X31630Y19351D02*
X31591Y19311D01*
X31591Y19311D02*
X31531Y19291D01*
X31531Y19291D02*
X31432Y19291D01*
X29269Y18311D02*
X29329Y18291D01*
X29329Y18291D02*
X29428Y18291D01*
X29428Y18291D02*
X29468Y18311D01*
X29468Y18311D02*
X29488Y18331D01*
X29488Y18331D02*
X29507Y18371D01*
X29507Y18371D02*
X29507Y18410D01*
X29507Y18410D02*
X29488Y18450D01*
X29488Y18450D02*
X29468Y18470D01*
X29468Y18470D02*
X29428Y18490D01*
X29428Y18490D02*
X29349Y18509D01*
X29349Y18509D02*
X29309Y18529D01*
X29309Y18529D02*
X29289Y18549D01*
X29289Y18549D02*
X29269Y18589D01*
X29269Y18589D02*
X29269Y18628D01*
X29269Y18628D02*
X29289Y18668D01*
X29289Y18668D02*
X29309Y18688D01*
X29309Y18688D02*
X29349Y18708D01*
X29349Y18708D02*
X29448Y18708D01*
X29448Y18708D02*
X29507Y18688D01*
X29746Y18291D02*
X29706Y18311D01*
X29706Y18311D02*
X29686Y18331D01*
X29686Y18331D02*
X29666Y18371D01*
X29666Y18371D02*
X29666Y18490D01*
X29666Y18490D02*
X29686Y18529D01*
X29686Y18529D02*
X29706Y18549D01*
X29706Y18549D02*
X29746Y18569D01*
X29746Y18569D02*
X29805Y18569D01*
X29805Y18569D02*
X29845Y18549D01*
X29845Y18549D02*
X29865Y18529D01*
X29865Y18529D02*
X29884Y18490D01*
X29884Y18490D02*
X29884Y18371D01*
X29884Y18371D02*
X29865Y18331D01*
X29865Y18331D02*
X29845Y18311D01*
X29845Y18311D02*
X29805Y18291D01*
X29805Y18291D02*
X29746Y18291D01*
X30063Y18291D02*
X30063Y18569D01*
X30063Y18490D02*
X30083Y18529D01*
X30083Y18529D02*
X30103Y18549D01*
X30103Y18549D02*
X30142Y18569D01*
X30142Y18569D02*
X30182Y18569D01*
X30261Y18569D02*
X30420Y18569D01*
X30321Y18708D02*
X30321Y18351D01*
X30321Y18351D02*
X30341Y18311D01*
X30341Y18311D02*
X30380Y18291D01*
X30380Y18291D02*
X30420Y18291D01*
X30559Y18291D02*
X30559Y18569D01*
X30559Y18708D02*
X30539Y18688D01*
X30539Y18688D02*
X30559Y18668D01*
X30559Y18668D02*
X30579Y18688D01*
X30579Y18688D02*
X30559Y18708D01*
X30559Y18708D02*
X30559Y18668D01*
X30916Y18311D02*
X30876Y18291D01*
X30876Y18291D02*
X30797Y18291D01*
X30797Y18291D02*
X30757Y18311D01*
X30757Y18311D02*
X30738Y18351D01*
X30738Y18351D02*
X30738Y18509D01*
X30738Y18509D02*
X30757Y18549D01*
X30757Y18549D02*
X30797Y18569D01*
X30797Y18569D02*
X30876Y18569D01*
X30876Y18569D02*
X30916Y18549D01*
X30916Y18549D02*
X30936Y18509D01*
X30936Y18509D02*
X30936Y18470D01*
X30936Y18470D02*
X30738Y18430D01*
X31571Y18509D02*
X31630Y18490D01*
X31630Y18490D02*
X31650Y18470D01*
X31650Y18470D02*
X31670Y18430D01*
X31670Y18430D02*
X31670Y18371D01*
X31670Y18371D02*
X31650Y18331D01*
X31650Y18331D02*
X31630Y18311D01*
X31630Y18311D02*
X31591Y18291D01*
X31591Y18291D02*
X31432Y18291D01*
X31432Y18291D02*
X31432Y18708D01*
X31432Y18708D02*
X31571Y18708D01*
X31571Y18708D02*
X31611Y18688D01*
X31611Y18688D02*
X31630Y18668D01*
X31630Y18668D02*
X31650Y18628D01*
X31650Y18628D02*
X31650Y18589D01*
X31650Y18589D02*
X31630Y18549D01*
X31630Y18549D02*
X31611Y18529D01*
X31611Y18529D02*
X31571Y18509D01*
X31571Y18509D02*
X31432Y18509D01*
X7067Y14188D02*
X7027Y14208D01*
X7027Y14208D02*
X6968Y14208D01*
X6968Y14208D02*
X6908Y14188D01*
X6908Y14188D02*
X6869Y14148D01*
X6869Y14148D02*
X6849Y14109D01*
X6849Y14109D02*
X6829Y14029D01*
X6829Y14029D02*
X6829Y13970D01*
X6829Y13970D02*
X6849Y13890D01*
X6849Y13890D02*
X6869Y13851D01*
X6869Y13851D02*
X6908Y13811D01*
X6908Y13811D02*
X6968Y13791D01*
X6968Y13791D02*
X7007Y13791D01*
X7007Y13791D02*
X7067Y13811D01*
X7067Y13811D02*
X7087Y13831D01*
X7087Y13831D02*
X7087Y13970D01*
X7087Y13970D02*
X7007Y13970D01*
X7265Y13791D02*
X7265Y14208D01*
X7265Y14208D02*
X7503Y13791D01*
X7503Y13791D02*
X7503Y14208D01*
X7702Y13791D02*
X7702Y14208D01*
X7702Y14208D02*
X7801Y14208D01*
X7801Y14208D02*
X7861Y14188D01*
X7861Y14188D02*
X7900Y14148D01*
X7900Y14148D02*
X7920Y14109D01*
X7920Y14109D02*
X7940Y14029D01*
X7940Y14029D02*
X7940Y13970D01*
X7940Y13970D02*
X7920Y13890D01*
X7920Y13890D02*
X7900Y13851D01*
X7900Y13851D02*
X7861Y13811D01*
X7861Y13811D02*
X7801Y13791D01*
X7801Y13791D02*
X7702Y13791D01*
X6849Y15000D02*
X6988Y15000D01*
X7047Y14781D02*
X6849Y14781D01*
X6849Y14781D02*
X6849Y15198D01*
X6849Y15198D02*
X7047Y15198D01*
X7226Y15059D02*
X7226Y14781D01*
X7226Y15019D02*
X7246Y15039D01*
X7246Y15039D02*
X7285Y15059D01*
X7285Y15059D02*
X7345Y15059D01*
X7345Y15059D02*
X7384Y15039D01*
X7384Y15039D02*
X7404Y15000D01*
X7404Y15000D02*
X7404Y14781D01*
X7543Y15059D02*
X7702Y15059D01*
X7603Y15198D02*
X7603Y14841D01*
X7603Y14841D02*
X7623Y14801D01*
X7623Y14801D02*
X7662Y14781D01*
X7662Y14781D02*
X7702Y14781D01*
X7841Y14781D02*
X7841Y15059D01*
X7841Y14980D02*
X7861Y15019D01*
X7861Y15019D02*
X7880Y15039D01*
X7880Y15039D02*
X7920Y15059D01*
X7920Y15059D02*
X7960Y15059D01*
X8257Y14801D02*
X8218Y14781D01*
X8218Y14781D02*
X8138Y14781D01*
X8138Y14781D02*
X8099Y14801D01*
X8099Y14801D02*
X8079Y14841D01*
X8079Y14841D02*
X8079Y15000D01*
X8079Y15000D02*
X8099Y15039D01*
X8099Y15039D02*
X8138Y15059D01*
X8138Y15059D02*
X8218Y15059D01*
X8218Y15059D02*
X8257Y15039D01*
X8257Y15039D02*
X8277Y15000D01*
X8277Y15000D02*
X8277Y14960D01*
X8277Y14960D02*
X8079Y14920D01*
X8218Y15218D02*
X8158Y15158D01*
X8615Y14801D02*
X8575Y14781D01*
X8575Y14781D02*
X8496Y14781D01*
X8496Y14781D02*
X8456Y14801D01*
X8456Y14801D02*
X8436Y14841D01*
X8436Y14841D02*
X8436Y15000D01*
X8436Y15000D02*
X8456Y15039D01*
X8456Y15039D02*
X8496Y15059D01*
X8496Y15059D02*
X8575Y15059D01*
X8575Y15059D02*
X8615Y15039D01*
X8615Y15039D02*
X8634Y15000D01*
X8634Y15000D02*
X8634Y14960D01*
X8634Y14960D02*
X8436Y14920D01*
X9369Y14821D02*
X9349Y14801D01*
X9349Y14801D02*
X9289Y14781D01*
X9289Y14781D02*
X9250Y14781D01*
X9250Y14781D02*
X9190Y14801D01*
X9190Y14801D02*
X9150Y14841D01*
X9150Y14841D02*
X9130Y14880D01*
X9130Y14880D02*
X9111Y14960D01*
X9111Y14960D02*
X9111Y15019D01*
X9111Y15019D02*
X9130Y15099D01*
X9130Y15099D02*
X9150Y15138D01*
X9150Y15138D02*
X9190Y15178D01*
X9190Y15178D02*
X9250Y15198D01*
X9250Y15198D02*
X9289Y15198D01*
X9289Y15198D02*
X9349Y15178D01*
X9349Y15178D02*
X9369Y15158D01*
X7067Y6688D02*
X7027Y6708D01*
X7027Y6708D02*
X6968Y6708D01*
X6968Y6708D02*
X6908Y6688D01*
X6908Y6688D02*
X6869Y6648D01*
X6869Y6648D02*
X6849Y6609D01*
X6849Y6609D02*
X6829Y6529D01*
X6829Y6529D02*
X6829Y6470D01*
X6829Y6470D02*
X6849Y6390D01*
X6849Y6390D02*
X6869Y6351D01*
X6869Y6351D02*
X6908Y6311D01*
X6908Y6311D02*
X6968Y6291D01*
X6968Y6291D02*
X7007Y6291D01*
X7007Y6291D02*
X7067Y6311D01*
X7067Y6311D02*
X7087Y6331D01*
X7087Y6331D02*
X7087Y6470D01*
X7087Y6470D02*
X7007Y6470D01*
X7265Y6291D02*
X7265Y6708D01*
X7265Y6708D02*
X7503Y6291D01*
X7503Y6291D02*
X7503Y6708D01*
X7702Y6291D02*
X7702Y6708D01*
X7702Y6708D02*
X7801Y6708D01*
X7801Y6708D02*
X7861Y6688D01*
X7861Y6688D02*
X7900Y6648D01*
X7900Y6648D02*
X7920Y6609D01*
X7920Y6609D02*
X7940Y6529D01*
X7940Y6529D02*
X7940Y6470D01*
X7940Y6470D02*
X7920Y6390D01*
X7920Y6390D02*
X7900Y6351D01*
X7900Y6351D02*
X7861Y6311D01*
X7861Y6311D02*
X7801Y6291D01*
X7801Y6291D02*
X7702Y6291D01*
X6849Y7500D02*
X6988Y7500D01*
X7047Y7281D02*
X6849Y7281D01*
X6849Y7281D02*
X6849Y7698D01*
X6849Y7698D02*
X7047Y7698D01*
X7226Y7559D02*
X7226Y7281D01*
X7226Y7519D02*
X7246Y7539D01*
X7246Y7539D02*
X7285Y7559D01*
X7285Y7559D02*
X7345Y7559D01*
X7345Y7559D02*
X7384Y7539D01*
X7384Y7539D02*
X7404Y7500D01*
X7404Y7500D02*
X7404Y7281D01*
X7543Y7559D02*
X7702Y7559D01*
X7603Y7698D02*
X7603Y7341D01*
X7603Y7341D02*
X7623Y7301D01*
X7623Y7301D02*
X7662Y7281D01*
X7662Y7281D02*
X7702Y7281D01*
X7841Y7281D02*
X7841Y7559D01*
X7841Y7480D02*
X7861Y7519D01*
X7861Y7519D02*
X7880Y7539D01*
X7880Y7539D02*
X7920Y7559D01*
X7920Y7559D02*
X7960Y7559D01*
X8257Y7301D02*
X8218Y7281D01*
X8218Y7281D02*
X8138Y7281D01*
X8138Y7281D02*
X8099Y7301D01*
X8099Y7301D02*
X8079Y7341D01*
X8079Y7341D02*
X8079Y7500D01*
X8079Y7500D02*
X8099Y7539D01*
X8099Y7539D02*
X8138Y7559D01*
X8138Y7559D02*
X8218Y7559D01*
X8218Y7559D02*
X8257Y7539D01*
X8257Y7539D02*
X8277Y7500D01*
X8277Y7500D02*
X8277Y7460D01*
X8277Y7460D02*
X8079Y7420D01*
X8218Y7718D02*
X8158Y7658D01*
X8615Y7301D02*
X8575Y7281D01*
X8575Y7281D02*
X8496Y7281D01*
X8496Y7281D02*
X8456Y7301D01*
X8456Y7301D02*
X8436Y7341D01*
X8436Y7341D02*
X8436Y7500D01*
X8436Y7500D02*
X8456Y7539D01*
X8456Y7539D02*
X8496Y7559D01*
X8496Y7559D02*
X8575Y7559D01*
X8575Y7559D02*
X8615Y7539D01*
X8615Y7539D02*
X8634Y7500D01*
X8634Y7500D02*
X8634Y7460D01*
X8634Y7460D02*
X8436Y7420D01*
X9130Y7281D02*
X9130Y7698D01*
X9130Y7698D02*
X9230Y7698D01*
X9230Y7698D02*
X9289Y7678D01*
X9289Y7678D02*
X9329Y7638D01*
X9329Y7638D02*
X9349Y7599D01*
X9349Y7599D02*
X9369Y7519D01*
X9369Y7519D02*
X9369Y7460D01*
X9369Y7460D02*
X9349Y7380D01*
X9349Y7380D02*
X9329Y7341D01*
X9329Y7341D02*
X9289Y7301D01*
X9289Y7301D02*
X9230Y7281D01*
X9230Y7281D02*
X9130Y7281D01*
X30797Y15188D02*
X30757Y15208D01*
X30757Y15208D02*
X30698Y15208D01*
X30698Y15208D02*
X30638Y15188D01*
X30638Y15188D02*
X30599Y15148D01*
X30599Y15148D02*
X30579Y15109D01*
X30579Y15109D02*
X30559Y15029D01*
X30559Y15029D02*
X30559Y14970D01*
X30559Y14970D02*
X30579Y14890D01*
X30579Y14890D02*
X30599Y14851D01*
X30599Y14851D02*
X30638Y14811D01*
X30638Y14811D02*
X30698Y14791D01*
X30698Y14791D02*
X30738Y14791D01*
X30738Y14791D02*
X30797Y14811D01*
X30797Y14811D02*
X30817Y14831D01*
X30817Y14831D02*
X30817Y14970D01*
X30817Y14970D02*
X30738Y14970D01*
X30996Y14791D02*
X30996Y15208D01*
X30996Y15208D02*
X31234Y14791D01*
X31234Y14791D02*
X31234Y15208D01*
X31432Y14791D02*
X31432Y15208D01*
X31432Y15208D02*
X31531Y15208D01*
X31531Y15208D02*
X31591Y15188D01*
X31591Y15188D02*
X31630Y15148D01*
X31630Y15148D02*
X31650Y15109D01*
X31650Y15109D02*
X31670Y15029D01*
X31670Y15029D02*
X31670Y14970D01*
X31670Y14970D02*
X31650Y14890D01*
X31650Y14890D02*
X31630Y14851D01*
X31630Y14851D02*
X31591Y14811D01*
X31591Y14811D02*
X31531Y14791D01*
X31531Y14791D02*
X31432Y14791D01*
X29269Y13811D02*
X29329Y13791D01*
X29329Y13791D02*
X29428Y13791D01*
X29428Y13791D02*
X29468Y13811D01*
X29468Y13811D02*
X29488Y13831D01*
X29488Y13831D02*
X29507Y13871D01*
X29507Y13871D02*
X29507Y13910D01*
X29507Y13910D02*
X29488Y13950D01*
X29488Y13950D02*
X29468Y13970D01*
X29468Y13970D02*
X29428Y13990D01*
X29428Y13990D02*
X29349Y14009D01*
X29349Y14009D02*
X29309Y14029D01*
X29309Y14029D02*
X29289Y14049D01*
X29289Y14049D02*
X29269Y14089D01*
X29269Y14089D02*
X29269Y14128D01*
X29269Y14128D02*
X29289Y14168D01*
X29289Y14168D02*
X29309Y14188D01*
X29309Y14188D02*
X29349Y14208D01*
X29349Y14208D02*
X29448Y14208D01*
X29448Y14208D02*
X29507Y14188D01*
X29746Y13791D02*
X29706Y13811D01*
X29706Y13811D02*
X29686Y13831D01*
X29686Y13831D02*
X29666Y13871D01*
X29666Y13871D02*
X29666Y13990D01*
X29666Y13990D02*
X29686Y14029D01*
X29686Y14029D02*
X29706Y14049D01*
X29706Y14049D02*
X29746Y14069D01*
X29746Y14069D02*
X29805Y14069D01*
X29805Y14069D02*
X29845Y14049D01*
X29845Y14049D02*
X29865Y14029D01*
X29865Y14029D02*
X29884Y13990D01*
X29884Y13990D02*
X29884Y13871D01*
X29884Y13871D02*
X29865Y13831D01*
X29865Y13831D02*
X29845Y13811D01*
X29845Y13811D02*
X29805Y13791D01*
X29805Y13791D02*
X29746Y13791D01*
X30063Y13791D02*
X30063Y14069D01*
X30063Y13990D02*
X30083Y14029D01*
X30083Y14029D02*
X30103Y14049D01*
X30103Y14049D02*
X30142Y14069D01*
X30142Y14069D02*
X30182Y14069D01*
X30261Y14069D02*
X30420Y14069D01*
X30321Y14208D02*
X30321Y13851D01*
X30321Y13851D02*
X30341Y13811D01*
X30341Y13811D02*
X30380Y13791D01*
X30380Y13791D02*
X30420Y13791D01*
X30559Y13791D02*
X30559Y14069D01*
X30559Y14208D02*
X30539Y14188D01*
X30539Y14188D02*
X30559Y14168D01*
X30559Y14168D02*
X30579Y14188D01*
X30579Y14188D02*
X30559Y14208D01*
X30559Y14208D02*
X30559Y14168D01*
X30916Y13811D02*
X30876Y13791D01*
X30876Y13791D02*
X30797Y13791D01*
X30797Y13791D02*
X30757Y13811D01*
X30757Y13811D02*
X30738Y13851D01*
X30738Y13851D02*
X30738Y14009D01*
X30738Y14009D02*
X30757Y14049D01*
X30757Y14049D02*
X30797Y14069D01*
X30797Y14069D02*
X30876Y14069D01*
X30876Y14069D02*
X30916Y14049D01*
X30916Y14049D02*
X30936Y14009D01*
X30936Y14009D02*
X30936Y13970D01*
X30936Y13970D02*
X30738Y13930D01*
X31670Y13831D02*
X31650Y13811D01*
X31650Y13811D02*
X31591Y13791D01*
X31591Y13791D02*
X31551Y13791D01*
X31551Y13791D02*
X31492Y13811D01*
X31492Y13811D02*
X31452Y13851D01*
X31452Y13851D02*
X31432Y13890D01*
X31432Y13890D02*
X31412Y13970D01*
X31412Y13970D02*
X31412Y14029D01*
X31412Y14029D02*
X31432Y14109D01*
X31432Y14109D02*
X31452Y14148D01*
X31452Y14148D02*
X31492Y14188D01*
X31492Y14188D02*
X31551Y14208D01*
X31551Y14208D02*
X31591Y14208D01*
X31591Y14208D02*
X31650Y14188D01*
X31650Y14188D02*
X31670Y14168D01*
X30797Y7688D02*
X30757Y7708D01*
X30757Y7708D02*
X30698Y7708D01*
X30698Y7708D02*
X30638Y7688D01*
X30638Y7688D02*
X30599Y7648D01*
X30599Y7648D02*
X30579Y7609D01*
X30579Y7609D02*
X30559Y7529D01*
X30559Y7529D02*
X30559Y7470D01*
X30559Y7470D02*
X30579Y7390D01*
X30579Y7390D02*
X30599Y7351D01*
X30599Y7351D02*
X30638Y7311D01*
X30638Y7311D02*
X30698Y7291D01*
X30698Y7291D02*
X30738Y7291D01*
X30738Y7291D02*
X30797Y7311D01*
X30797Y7311D02*
X30817Y7331D01*
X30817Y7331D02*
X30817Y7470D01*
X30817Y7470D02*
X30738Y7470D01*
X30996Y7291D02*
X30996Y7708D01*
X30996Y7708D02*
X31234Y7291D01*
X31234Y7291D02*
X31234Y7708D01*
X31432Y7291D02*
X31432Y7708D01*
X31432Y7708D02*
X31531Y7708D01*
X31531Y7708D02*
X31591Y7688D01*
X31591Y7688D02*
X31630Y7648D01*
X31630Y7648D02*
X31650Y7609D01*
X31650Y7609D02*
X31670Y7529D01*
X31670Y7529D02*
X31670Y7470D01*
X31670Y7470D02*
X31650Y7390D01*
X31650Y7390D02*
X31630Y7351D01*
X31630Y7351D02*
X31591Y7311D01*
X31591Y7311D02*
X31531Y7291D01*
X31531Y7291D02*
X31432Y7291D01*
X29269Y6311D02*
X29329Y6291D01*
X29329Y6291D02*
X29428Y6291D01*
X29428Y6291D02*
X29468Y6311D01*
X29468Y6311D02*
X29488Y6331D01*
X29488Y6331D02*
X29507Y6371D01*
X29507Y6371D02*
X29507Y6410D01*
X29507Y6410D02*
X29488Y6450D01*
X29488Y6450D02*
X29468Y6470D01*
X29468Y6470D02*
X29428Y6490D01*
X29428Y6490D02*
X29349Y6509D01*
X29349Y6509D02*
X29309Y6529D01*
X29309Y6529D02*
X29289Y6549D01*
X29289Y6549D02*
X29269Y6589D01*
X29269Y6589D02*
X29269Y6628D01*
X29269Y6628D02*
X29289Y6668D01*
X29289Y6668D02*
X29309Y6688D01*
X29309Y6688D02*
X29349Y6708D01*
X29349Y6708D02*
X29448Y6708D01*
X29448Y6708D02*
X29507Y6688D01*
X29746Y6291D02*
X29706Y6311D01*
X29706Y6311D02*
X29686Y6331D01*
X29686Y6331D02*
X29666Y6371D01*
X29666Y6371D02*
X29666Y6490D01*
X29666Y6490D02*
X29686Y6529D01*
X29686Y6529D02*
X29706Y6549D01*
X29706Y6549D02*
X29746Y6569D01*
X29746Y6569D02*
X29805Y6569D01*
X29805Y6569D02*
X29845Y6549D01*
X29845Y6549D02*
X29865Y6529D01*
X29865Y6529D02*
X29884Y6490D01*
X29884Y6490D02*
X29884Y6371D01*
X29884Y6371D02*
X29865Y6331D01*
X29865Y6331D02*
X29845Y6311D01*
X29845Y6311D02*
X29805Y6291D01*
X29805Y6291D02*
X29746Y6291D01*
X30063Y6291D02*
X30063Y6569D01*
X30063Y6490D02*
X30083Y6529D01*
X30083Y6529D02*
X30103Y6549D01*
X30103Y6549D02*
X30142Y6569D01*
X30142Y6569D02*
X30182Y6569D01*
X30261Y6569D02*
X30420Y6569D01*
X30321Y6708D02*
X30321Y6351D01*
X30321Y6351D02*
X30341Y6311D01*
X30341Y6311D02*
X30380Y6291D01*
X30380Y6291D02*
X30420Y6291D01*
X30559Y6291D02*
X30559Y6569D01*
X30559Y6708D02*
X30539Y6688D01*
X30539Y6688D02*
X30559Y6668D01*
X30559Y6668D02*
X30579Y6688D01*
X30579Y6688D02*
X30559Y6708D01*
X30559Y6708D02*
X30559Y6668D01*
X30916Y6311D02*
X30876Y6291D01*
X30876Y6291D02*
X30797Y6291D01*
X30797Y6291D02*
X30757Y6311D01*
X30757Y6311D02*
X30738Y6351D01*
X30738Y6351D02*
X30738Y6509D01*
X30738Y6509D02*
X30757Y6549D01*
X30757Y6549D02*
X30797Y6569D01*
X30797Y6569D02*
X30876Y6569D01*
X30876Y6569D02*
X30916Y6549D01*
X30916Y6549D02*
X30936Y6509D01*
X30936Y6509D02*
X30936Y6470D01*
X30936Y6470D02*
X30738Y6430D01*
X31432Y6291D02*
X31432Y6708D01*
X31432Y6708D02*
X31531Y6708D01*
X31531Y6708D02*
X31591Y6688D01*
X31591Y6688D02*
X31630Y6648D01*
X31630Y6648D02*
X31650Y6609D01*
X31650Y6609D02*
X31670Y6529D01*
X31670Y6529D02*
X31670Y6470D01*
X31670Y6470D02*
X31650Y6390D01*
X31650Y6390D02*
X31630Y6351D01*
X31630Y6351D02*
X31591Y6311D01*
X31591Y6311D02*
X31531Y6291D01*
X31531Y6291D02*
X31432Y6291D01*
X4426Y36083D02*
X4426Y36500D01*
X4426Y36500D02*
X4585Y36500D01*
X4585Y36500D02*
X4625Y36480D01*
X4625Y36480D02*
X4644Y36460D01*
X4644Y36460D02*
X4664Y36420D01*
X4664Y36420D02*
X4664Y36361D01*
X4664Y36361D02*
X4644Y36321D01*
X4644Y36321D02*
X4625Y36301D01*
X4625Y36301D02*
X4585Y36281D01*
X4585Y36281D02*
X4426Y36281D01*
X4902Y36083D02*
X4863Y36103D01*
X4863Y36103D02*
X4843Y36123D01*
X4843Y36123D02*
X4823Y36162D01*
X4823Y36162D02*
X4823Y36281D01*
X4823Y36281D02*
X4843Y36321D01*
X4843Y36321D02*
X4863Y36341D01*
X4863Y36341D02*
X4902Y36361D01*
X4902Y36361D02*
X4962Y36361D01*
X4962Y36361D02*
X5001Y36341D01*
X5001Y36341D02*
X5021Y36321D01*
X5021Y36321D02*
X5041Y36281D01*
X5041Y36281D02*
X5041Y36162D01*
X5041Y36162D02*
X5021Y36123D01*
X5021Y36123D02*
X5001Y36103D01*
X5001Y36103D02*
X4962Y36083D01*
X4962Y36083D02*
X4902Y36083D01*
X5180Y36361D02*
X5259Y36083D01*
X5259Y36083D02*
X5339Y36281D01*
X5339Y36281D02*
X5418Y36083D01*
X5418Y36083D02*
X5498Y36361D01*
X5815Y36103D02*
X5775Y36083D01*
X5775Y36083D02*
X5696Y36083D01*
X5696Y36083D02*
X5656Y36103D01*
X5656Y36103D02*
X5636Y36142D01*
X5636Y36142D02*
X5636Y36301D01*
X5636Y36301D02*
X5656Y36341D01*
X5656Y36341D02*
X5696Y36361D01*
X5696Y36361D02*
X5775Y36361D01*
X5775Y36361D02*
X5815Y36341D01*
X5815Y36341D02*
X5835Y36301D01*
X5835Y36301D02*
X5835Y36261D01*
X5835Y36261D02*
X5636Y36222D01*
X6013Y36083D02*
X6013Y36361D01*
X6013Y36281D02*
X6033Y36321D01*
X6033Y36321D02*
X6053Y36341D01*
X6053Y36341D02*
X6093Y36361D01*
X6093Y36361D02*
X6132Y36361D01*
D11*
G01X15681Y29222D02*
X15496Y29486D01*
X15363Y29222D02*
X15363Y29777D01*
X15363Y29777D02*
X15575Y29777D01*
X15575Y29777D02*
X15628Y29751D01*
X15628Y29751D02*
X15654Y29724D01*
X15654Y29724D02*
X15681Y29671D01*
X15681Y29671D02*
X15681Y29592D01*
X15681Y29592D02*
X15654Y29539D01*
X15654Y29539D02*
X15628Y29513D01*
X15628Y29513D02*
X15575Y29486D01*
X15575Y29486D02*
X15363Y29486D01*
X16157Y29222D02*
X16157Y29513D01*
X16157Y29513D02*
X16130Y29566D01*
X16130Y29566D02*
X16078Y29592D01*
X16078Y29592D02*
X15972Y29592D01*
X15972Y29592D02*
X15919Y29566D01*
X16157Y29248D02*
X16104Y29222D01*
X16104Y29222D02*
X15972Y29222D01*
X15972Y29222D02*
X15919Y29248D01*
X15919Y29248D02*
X15892Y29301D01*
X15892Y29301D02*
X15892Y29354D01*
X15892Y29354D02*
X15919Y29407D01*
X15919Y29407D02*
X15972Y29433D01*
X15972Y29433D02*
X16104Y29433D01*
X16104Y29433D02*
X16157Y29460D01*
X16712Y29222D02*
X16395Y29222D01*
X16554Y29222D02*
X16554Y29777D01*
X16554Y29777D02*
X16501Y29698D01*
X16501Y29698D02*
X16448Y29645D01*
X16448Y29645D02*
X16395Y29619D01*
X16898Y29222D02*
X17189Y29592D01*
X16898Y29592D02*
X17189Y29222D01*
X21194Y29064D02*
X21009Y29329D01*
X20876Y29064D02*
X20876Y29620D01*
X20876Y29620D02*
X21088Y29620D01*
X21088Y29620D02*
X21141Y29593D01*
X21141Y29593D02*
X21167Y29567D01*
X21167Y29567D02*
X21194Y29514D01*
X21194Y29514D02*
X21194Y29435D01*
X21194Y29435D02*
X21167Y29382D01*
X21167Y29382D02*
X21141Y29355D01*
X21141Y29355D02*
X21088Y29329D01*
X21088Y29329D02*
X20876Y29329D01*
X21670Y29064D02*
X21670Y29355D01*
X21670Y29355D02*
X21644Y29408D01*
X21644Y29408D02*
X21591Y29435D01*
X21591Y29435D02*
X21485Y29435D01*
X21485Y29435D02*
X21432Y29408D01*
X21670Y29091D02*
X21617Y29064D01*
X21617Y29064D02*
X21485Y29064D01*
X21485Y29064D02*
X21432Y29091D01*
X21432Y29091D02*
X21406Y29144D01*
X21406Y29144D02*
X21406Y29197D01*
X21406Y29197D02*
X21432Y29250D01*
X21432Y29250D02*
X21485Y29276D01*
X21485Y29276D02*
X21617Y29276D01*
X21617Y29276D02*
X21670Y29302D01*
X22226Y29064D02*
X21908Y29064D01*
X22067Y29064D02*
X22067Y29620D01*
X22067Y29620D02*
X22014Y29541D01*
X22014Y29541D02*
X21961Y29488D01*
X21961Y29488D02*
X21908Y29461D01*
X22411Y29435D02*
X22543Y29064D01*
X22675Y29435D02*
X22543Y29064D01*
X22543Y29064D02*
X22490Y28932D01*
X22490Y28932D02*
X22464Y28906D01*
X22464Y28906D02*
X22411Y28879D01*
X15431Y17472D02*
X15246Y17736D01*
X15113Y17472D02*
X15113Y18027D01*
X15113Y18027D02*
X15325Y18027D01*
X15325Y18027D02*
X15378Y18001D01*
X15378Y18001D02*
X15404Y17974D01*
X15404Y17974D02*
X15431Y17921D01*
X15431Y17921D02*
X15431Y17842D01*
X15431Y17842D02*
X15404Y17789D01*
X15404Y17789D02*
X15378Y17763D01*
X15378Y17763D02*
X15325Y17736D01*
X15325Y17736D02*
X15113Y17736D01*
X15669Y17472D02*
X15669Y18027D01*
X15669Y17816D02*
X15722Y17842D01*
X15722Y17842D02*
X15828Y17842D01*
X15828Y17842D02*
X15880Y17816D01*
X15880Y17816D02*
X15907Y17789D01*
X15907Y17789D02*
X15933Y17736D01*
X15933Y17736D02*
X15933Y17578D01*
X15933Y17578D02*
X15907Y17525D01*
X15907Y17525D02*
X15880Y17498D01*
X15880Y17498D02*
X15828Y17472D01*
X15828Y17472D02*
X15722Y17472D01*
X15722Y17472D02*
X15669Y17498D01*
X16462Y17472D02*
X16145Y17472D01*
X16304Y17472D02*
X16304Y18027D01*
X16304Y18027D02*
X16251Y17948D01*
X16251Y17948D02*
X16198Y17895D01*
X16198Y17895D02*
X16145Y17869D01*
X16648Y17472D02*
X16939Y17842D01*
X16648Y17842D02*
X16939Y17472D01*
X21194Y17564D02*
X21009Y17829D01*
X20876Y17564D02*
X20876Y18120D01*
X20876Y18120D02*
X21088Y18120D01*
X21088Y18120D02*
X21141Y18093D01*
X21141Y18093D02*
X21167Y18067D01*
X21167Y18067D02*
X21194Y18014D01*
X21194Y18014D02*
X21194Y17935D01*
X21194Y17935D02*
X21167Y17882D01*
X21167Y17882D02*
X21141Y17855D01*
X21141Y17855D02*
X21088Y17829D01*
X21088Y17829D02*
X20876Y17829D01*
X21432Y17564D02*
X21432Y18120D01*
X21432Y17908D02*
X21485Y17935D01*
X21485Y17935D02*
X21591Y17935D01*
X21591Y17935D02*
X21644Y17908D01*
X21644Y17908D02*
X21670Y17882D01*
X21670Y17882D02*
X21697Y17829D01*
X21697Y17829D02*
X21697Y17670D01*
X21697Y17670D02*
X21670Y17617D01*
X21670Y17617D02*
X21644Y17591D01*
X21644Y17591D02*
X21591Y17564D01*
X21591Y17564D02*
X21485Y17564D01*
X21485Y17564D02*
X21432Y17591D01*
X22226Y17564D02*
X21908Y17564D01*
X22067Y17564D02*
X22067Y18120D01*
X22067Y18120D02*
X22014Y18041D01*
X22014Y18041D02*
X21961Y17988D01*
X21961Y17988D02*
X21908Y17961D01*
X22411Y17935D02*
X22543Y17564D01*
X22675Y17935D02*
X22543Y17564D01*
X22543Y17564D02*
X22490Y17432D01*
X22490Y17432D02*
X22464Y17406D01*
X22464Y17406D02*
X22411Y17379D01*
X21457Y12814D02*
X21272Y13079D01*
X21140Y12814D02*
X21140Y13370D01*
X21140Y13370D02*
X21351Y13370D01*
X21351Y13370D02*
X21404Y13343D01*
X21404Y13343D02*
X21431Y13317D01*
X21431Y13317D02*
X21457Y13264D01*
X21457Y13264D02*
X21457Y13185D01*
X21457Y13185D02*
X21431Y13132D01*
X21431Y13132D02*
X21404Y13105D01*
X21404Y13105D02*
X21351Y13079D01*
X21351Y13079D02*
X21140Y13079D01*
X21933Y12841D02*
X21880Y12814D01*
X21880Y12814D02*
X21775Y12814D01*
X21775Y12814D02*
X21722Y12841D01*
X21722Y12841D02*
X21695Y12867D01*
X21695Y12867D02*
X21669Y12920D01*
X21669Y12920D02*
X21669Y13079D01*
X21669Y13079D02*
X21695Y13132D01*
X21695Y13132D02*
X21722Y13158D01*
X21722Y13158D02*
X21775Y13185D01*
X21775Y13185D02*
X21880Y13185D01*
X21880Y13185D02*
X21933Y13158D01*
X22462Y12814D02*
X22145Y12814D01*
X22304Y12814D02*
X22304Y13370D01*
X22304Y13370D02*
X22251Y13291D01*
X22251Y13291D02*
X22198Y13238D01*
X22198Y13238D02*
X22145Y13211D01*
X22648Y13185D02*
X22780Y12814D01*
X22912Y13185D02*
X22780Y12814D01*
X22780Y12814D02*
X22727Y12682D01*
X22727Y12682D02*
X22701Y12656D01*
X22701Y12656D02*
X22648Y12629D01*
X21444Y1064D02*
X21259Y1329D01*
X21126Y1064D02*
X21126Y1620D01*
X21126Y1620D02*
X21338Y1620D01*
X21338Y1620D02*
X21391Y1593D01*
X21391Y1593D02*
X21417Y1567D01*
X21417Y1567D02*
X21444Y1514D01*
X21444Y1514D02*
X21444Y1435D01*
X21444Y1435D02*
X21417Y1382D01*
X21417Y1382D02*
X21391Y1355D01*
X21391Y1355D02*
X21338Y1329D01*
X21338Y1329D02*
X21126Y1329D01*
X21920Y1064D02*
X21920Y1620D01*
X21920Y1091D02*
X21867Y1064D01*
X21867Y1064D02*
X21761Y1064D01*
X21761Y1064D02*
X21708Y1091D01*
X21708Y1091D02*
X21682Y1117D01*
X21682Y1117D02*
X21656Y1170D01*
X21656Y1170D02*
X21656Y1329D01*
X21656Y1329D02*
X21682Y1382D01*
X21682Y1382D02*
X21708Y1408D01*
X21708Y1408D02*
X21761Y1435D01*
X21761Y1435D02*
X21867Y1435D01*
X21867Y1435D02*
X21920Y1408D01*
X22476Y1064D02*
X22158Y1064D01*
X22317Y1064D02*
X22317Y1620D01*
X22317Y1620D02*
X22264Y1541D01*
X22264Y1541D02*
X22211Y1488D01*
X22211Y1488D02*
X22158Y1461D01*
X22661Y1435D02*
X22793Y1064D01*
X22925Y1435D02*
X22793Y1064D01*
X22793Y1064D02*
X22740Y932D01*
X22740Y932D02*
X22714Y906D01*
X22714Y906D02*
X22661Y879D01*
X15431Y972D02*
X15246Y1236D01*
X15113Y972D02*
X15113Y1527D01*
X15113Y1527D02*
X15325Y1527D01*
X15325Y1527D02*
X15378Y1501D01*
X15378Y1501D02*
X15404Y1474D01*
X15404Y1474D02*
X15431Y1421D01*
X15431Y1421D02*
X15431Y1342D01*
X15431Y1342D02*
X15404Y1289D01*
X15404Y1289D02*
X15378Y1263D01*
X15378Y1263D02*
X15325Y1236D01*
X15325Y1236D02*
X15113Y1236D01*
X15907Y972D02*
X15907Y1527D01*
X15907Y998D02*
X15854Y972D01*
X15854Y972D02*
X15748Y972D01*
X15748Y972D02*
X15695Y998D01*
X15695Y998D02*
X15669Y1025D01*
X15669Y1025D02*
X15642Y1078D01*
X15642Y1078D02*
X15642Y1236D01*
X15642Y1236D02*
X15669Y1289D01*
X15669Y1289D02*
X15695Y1316D01*
X15695Y1316D02*
X15748Y1342D01*
X15748Y1342D02*
X15854Y1342D01*
X15854Y1342D02*
X15907Y1316D01*
X16462Y972D02*
X16145Y972D01*
X16304Y972D02*
X16304Y1527D01*
X16304Y1527D02*
X16251Y1448D01*
X16251Y1448D02*
X16198Y1395D01*
X16198Y1395D02*
X16145Y1369D01*
X16648Y972D02*
X16939Y1342D01*
X16648Y1342D02*
X16939Y972D01*
X15694Y12722D02*
X15509Y12986D01*
X15376Y12722D02*
X15376Y13277D01*
X15376Y13277D02*
X15588Y13277D01*
X15588Y13277D02*
X15641Y13251D01*
X15641Y13251D02*
X15667Y13224D01*
X15667Y13224D02*
X15694Y13171D01*
X15694Y13171D02*
X15694Y13092D01*
X15694Y13092D02*
X15667Y13039D01*
X15667Y13039D02*
X15641Y13013D01*
X15641Y13013D02*
X15588Y12986D01*
X15588Y12986D02*
X15376Y12986D01*
X16170Y12748D02*
X16117Y12722D01*
X16117Y12722D02*
X16011Y12722D01*
X16011Y12722D02*
X15958Y12748D01*
X15958Y12748D02*
X15932Y12775D01*
X15932Y12775D02*
X15906Y12828D01*
X15906Y12828D02*
X15906Y12986D01*
X15906Y12986D02*
X15932Y13039D01*
X15932Y13039D02*
X15958Y13066D01*
X15958Y13066D02*
X16011Y13092D01*
X16011Y13092D02*
X16117Y13092D01*
X16117Y13092D02*
X16170Y13066D01*
X16699Y12722D02*
X16382Y12722D01*
X16541Y12722D02*
X16541Y13277D01*
X16541Y13277D02*
X16488Y13198D01*
X16488Y13198D02*
X16435Y13145D01*
X16435Y13145D02*
X16382Y13119D01*
X16884Y12722D02*
X17175Y13092D01*
X16884Y13092D02*
X17175Y12722D01*
X1132Y29208D02*
X1317Y29208D01*
X1396Y28917D02*
X1132Y28917D01*
X1132Y28917D02*
X1132Y29473D01*
X1132Y29473D02*
X1396Y29473D01*
X1634Y29288D02*
X1634Y28917D01*
X1634Y29235D02*
X1661Y29261D01*
X1661Y29261D02*
X1714Y29288D01*
X1714Y29288D02*
X1793Y29288D01*
X1793Y29288D02*
X1846Y29261D01*
X1846Y29261D02*
X1873Y29208D01*
X1873Y29208D02*
X1873Y28917D01*
X2058Y29288D02*
X2269Y29288D01*
X2137Y29473D02*
X2137Y28997D01*
X2137Y28997D02*
X2164Y28944D01*
X2164Y28944D02*
X2216Y28917D01*
X2216Y28917D02*
X2269Y28917D01*
X2455Y28917D02*
X2455Y29288D01*
X2455Y29182D02*
X2481Y29235D01*
X2481Y29235D02*
X2507Y29261D01*
X2507Y29261D02*
X2560Y29288D01*
X2560Y29288D02*
X2613Y29288D01*
X3010Y28944D02*
X2957Y28917D01*
X2957Y28917D02*
X2851Y28917D01*
X2851Y28917D02*
X2798Y28944D01*
X2798Y28944D02*
X2772Y28997D01*
X2772Y28997D02*
X2772Y29208D01*
X2772Y29208D02*
X2798Y29261D01*
X2798Y29261D02*
X2851Y29288D01*
X2851Y29288D02*
X2957Y29288D01*
X2957Y29288D02*
X3010Y29261D01*
X3010Y29261D02*
X3037Y29208D01*
X3037Y29208D02*
X3037Y29156D01*
X3037Y29156D02*
X2772Y29103D01*
X2957Y29500D02*
X2878Y29420D01*
X3486Y28944D02*
X3433Y28917D01*
X3433Y28917D02*
X3328Y28917D01*
X3328Y28917D02*
X3275Y28944D01*
X3275Y28944D02*
X3248Y28997D01*
X3248Y28997D02*
X3248Y29208D01*
X3248Y29208D02*
X3275Y29261D01*
X3275Y29261D02*
X3328Y29288D01*
X3328Y29288D02*
X3433Y29288D01*
X3433Y29288D02*
X3486Y29261D01*
X3486Y29261D02*
X3513Y29208D01*
X3513Y29208D02*
X3513Y29156D01*
X3513Y29156D02*
X3248Y29103D01*
X4148Y29076D02*
X4412Y29076D01*
X4095Y28917D02*
X4280Y29473D01*
X4280Y29473D02*
X4465Y28917D01*
X882Y14958D02*
X1067Y14958D01*
X1146Y14667D02*
X882Y14667D01*
X882Y14667D02*
X882Y15223D01*
X882Y15223D02*
X1146Y15223D01*
X1384Y15038D02*
X1384Y14667D01*
X1384Y14985D02*
X1411Y15011D01*
X1411Y15011D02*
X1464Y15038D01*
X1464Y15038D02*
X1543Y15038D01*
X1543Y15038D02*
X1596Y15011D01*
X1596Y15011D02*
X1623Y14958D01*
X1623Y14958D02*
X1623Y14667D01*
X1808Y15038D02*
X2019Y15038D01*
X1887Y15223D02*
X1887Y14747D01*
X1887Y14747D02*
X1914Y14694D01*
X1914Y14694D02*
X1966Y14667D01*
X1966Y14667D02*
X2019Y14667D01*
X2205Y14667D02*
X2205Y15038D01*
X2205Y14932D02*
X2231Y14985D01*
X2231Y14985D02*
X2257Y15011D01*
X2257Y15011D02*
X2310Y15038D01*
X2310Y15038D02*
X2363Y15038D01*
X2760Y14694D02*
X2707Y14667D01*
X2707Y14667D02*
X2601Y14667D01*
X2601Y14667D02*
X2548Y14694D01*
X2548Y14694D02*
X2522Y14747D01*
X2522Y14747D02*
X2522Y14958D01*
X2522Y14958D02*
X2548Y15011D01*
X2548Y15011D02*
X2601Y15038D01*
X2601Y15038D02*
X2707Y15038D01*
X2707Y15038D02*
X2760Y15011D01*
X2760Y15011D02*
X2787Y14958D01*
X2787Y14958D02*
X2787Y14906D01*
X2787Y14906D02*
X2522Y14853D01*
X2707Y15250D02*
X2628Y15170D01*
X3236Y14694D02*
X3183Y14667D01*
X3183Y14667D02*
X3078Y14667D01*
X3078Y14667D02*
X3025Y14694D01*
X3025Y14694D02*
X2998Y14747D01*
X2998Y14747D02*
X2998Y14958D01*
X2998Y14958D02*
X3025Y15011D01*
X3025Y15011D02*
X3078Y15038D01*
X3078Y15038D02*
X3183Y15038D01*
X3183Y15038D02*
X3236Y15011D01*
X3236Y15011D02*
X3263Y14958D01*
X3263Y14958D02*
X3263Y14906D01*
X3263Y14906D02*
X2998Y14853D01*
X4109Y14958D02*
X4189Y14932D01*
X4189Y14932D02*
X4215Y14906D01*
X4215Y14906D02*
X4242Y14853D01*
X4242Y14853D02*
X4242Y14773D01*
X4242Y14773D02*
X4215Y14720D01*
X4215Y14720D02*
X4189Y14694D01*
X4189Y14694D02*
X4136Y14667D01*
X4136Y14667D02*
X3924Y14667D01*
X3924Y14667D02*
X3924Y15223D01*
X3924Y15223D02*
X4109Y15223D01*
X4109Y15223D02*
X4162Y15197D01*
X4162Y15197D02*
X4189Y15170D01*
X4189Y15170D02*
X4215Y15117D01*
X4215Y15117D02*
X4215Y15064D01*
X4215Y15064D02*
X4189Y15011D01*
X4189Y15011D02*
X4162Y14985D01*
X4162Y14985D02*
X4109Y14958D01*
X4109Y14958D02*
X3924Y14958D01*
X882Y10291D02*
X1067Y10291D01*
X1146Y10000D02*
X882Y10000D01*
X882Y10000D02*
X882Y10555D01*
X882Y10555D02*
X1146Y10555D01*
X1384Y10370D02*
X1384Y10000D01*
X1384Y10317D02*
X1411Y10343D01*
X1411Y10343D02*
X1464Y10370D01*
X1464Y10370D02*
X1543Y10370D01*
X1543Y10370D02*
X1596Y10343D01*
X1596Y10343D02*
X1623Y10291D01*
X1623Y10291D02*
X1623Y10000D01*
X1808Y10370D02*
X2019Y10370D01*
X1887Y10555D02*
X1887Y10079D01*
X1887Y10079D02*
X1914Y10026D01*
X1914Y10026D02*
X1966Y10000D01*
X1966Y10000D02*
X2019Y10000D01*
X2205Y10000D02*
X2205Y10370D01*
X2205Y10264D02*
X2231Y10317D01*
X2231Y10317D02*
X2257Y10343D01*
X2257Y10343D02*
X2310Y10370D01*
X2310Y10370D02*
X2363Y10370D01*
X2760Y10026D02*
X2707Y10000D01*
X2707Y10000D02*
X2601Y10000D01*
X2601Y10000D02*
X2548Y10026D01*
X2548Y10026D02*
X2522Y10079D01*
X2522Y10079D02*
X2522Y10291D01*
X2522Y10291D02*
X2548Y10343D01*
X2548Y10343D02*
X2601Y10370D01*
X2601Y10370D02*
X2707Y10370D01*
X2707Y10370D02*
X2760Y10343D01*
X2760Y10343D02*
X2787Y10291D01*
X2787Y10291D02*
X2787Y10238D01*
X2787Y10238D02*
X2522Y10185D01*
X2707Y10582D02*
X2628Y10502D01*
X3236Y10026D02*
X3183Y10000D01*
X3183Y10000D02*
X3078Y10000D01*
X3078Y10000D02*
X3025Y10026D01*
X3025Y10026D02*
X2998Y10079D01*
X2998Y10079D02*
X2998Y10291D01*
X2998Y10291D02*
X3025Y10343D01*
X3025Y10343D02*
X3078Y10370D01*
X3078Y10370D02*
X3183Y10370D01*
X3183Y10370D02*
X3236Y10343D01*
X3236Y10343D02*
X3263Y10291D01*
X3263Y10291D02*
X3263Y10238D01*
X3263Y10238D02*
X2998Y10185D01*
X4242Y10052D02*
X4215Y10026D01*
X4215Y10026D02*
X4136Y10000D01*
X4136Y10000D02*
X4083Y10000D01*
X4083Y10000D02*
X4003Y10026D01*
X4003Y10026D02*
X3951Y10079D01*
X3951Y10079D02*
X3924Y10132D01*
X3924Y10132D02*
X3898Y10238D01*
X3898Y10238D02*
X3898Y10317D01*
X3898Y10317D02*
X3924Y10423D01*
X3924Y10423D02*
X3951Y10476D01*
X3951Y10476D02*
X4003Y10529D01*
X4003Y10529D02*
X4083Y10555D01*
X4083Y10555D02*
X4136Y10555D01*
X4136Y10555D02*
X4215Y10529D01*
X4215Y10529D02*
X4242Y10502D01*
X35272Y28720D02*
X35351Y28694D01*
X35351Y28694D02*
X35484Y28694D01*
X35484Y28694D02*
X35537Y28720D01*
X35537Y28720D02*
X35563Y28747D01*
X35563Y28747D02*
X35589Y28800D01*
X35589Y28800D02*
X35589Y28853D01*
X35589Y28853D02*
X35563Y28906D01*
X35563Y28906D02*
X35537Y28932D01*
X35537Y28932D02*
X35484Y28958D01*
X35484Y28958D02*
X35378Y28985D01*
X35378Y28985D02*
X35325Y29011D01*
X35325Y29011D02*
X35298Y29038D01*
X35298Y29038D02*
X35272Y29091D01*
X35272Y29091D02*
X35272Y29144D01*
X35272Y29144D02*
X35298Y29197D01*
X35298Y29197D02*
X35325Y29223D01*
X35325Y29223D02*
X35378Y29250D01*
X35378Y29250D02*
X35510Y29250D01*
X35510Y29250D02*
X35589Y29223D01*
X35907Y28694D02*
X35854Y28720D01*
X35854Y28720D02*
X35828Y28747D01*
X35828Y28747D02*
X35801Y28800D01*
X35801Y28800D02*
X35801Y28958D01*
X35801Y28958D02*
X35828Y29011D01*
X35828Y29011D02*
X35854Y29038D01*
X35854Y29038D02*
X35907Y29064D01*
X35907Y29064D02*
X35986Y29064D01*
X35986Y29064D02*
X36039Y29038D01*
X36039Y29038D02*
X36066Y29011D01*
X36066Y29011D02*
X36092Y28958D01*
X36092Y28958D02*
X36092Y28800D01*
X36092Y28800D02*
X36066Y28747D01*
X36066Y28747D02*
X36039Y28720D01*
X36039Y28720D02*
X35986Y28694D01*
X35986Y28694D02*
X35907Y28694D01*
X36330Y28694D02*
X36330Y29064D01*
X36330Y28958D02*
X36357Y29011D01*
X36357Y29011D02*
X36383Y29038D01*
X36383Y29038D02*
X36436Y29064D01*
X36436Y29064D02*
X36489Y29064D01*
X36595Y29064D02*
X36806Y29064D01*
X36674Y29250D02*
X36674Y28773D01*
X36674Y28773D02*
X36701Y28720D01*
X36701Y28720D02*
X36753Y28694D01*
X36753Y28694D02*
X36806Y28694D01*
X36992Y28694D02*
X36992Y29064D01*
X36992Y29250D02*
X36965Y29223D01*
X36965Y29223D02*
X36992Y29197D01*
X36992Y29197D02*
X37018Y29223D01*
X37018Y29223D02*
X36992Y29250D01*
X36992Y29250D02*
X36992Y29197D01*
X37468Y28720D02*
X37415Y28694D01*
X37415Y28694D02*
X37309Y28694D01*
X37309Y28694D02*
X37256Y28720D01*
X37256Y28720D02*
X37230Y28773D01*
X37230Y28773D02*
X37230Y28985D01*
X37230Y28985D02*
X37256Y29038D01*
X37256Y29038D02*
X37309Y29064D01*
X37309Y29064D02*
X37415Y29064D01*
X37415Y29064D02*
X37468Y29038D01*
X37468Y29038D02*
X37494Y28985D01*
X37494Y28985D02*
X37494Y28932D01*
X37494Y28932D02*
X37230Y28879D01*
X38129Y28853D02*
X38394Y28853D01*
X38076Y28694D02*
X38261Y29250D01*
X38261Y29250D02*
X38447Y28694D01*
X35193Y14720D02*
X35272Y14694D01*
X35272Y14694D02*
X35404Y14694D01*
X35404Y14694D02*
X35457Y14720D01*
X35457Y14720D02*
X35484Y14747D01*
X35484Y14747D02*
X35510Y14800D01*
X35510Y14800D02*
X35510Y14853D01*
X35510Y14853D02*
X35484Y14906D01*
X35484Y14906D02*
X35457Y14932D01*
X35457Y14932D02*
X35404Y14958D01*
X35404Y14958D02*
X35298Y14985D01*
X35298Y14985D02*
X35246Y15011D01*
X35246Y15011D02*
X35219Y15038D01*
X35219Y15038D02*
X35193Y15091D01*
X35193Y15091D02*
X35193Y15144D01*
X35193Y15144D02*
X35219Y15197D01*
X35219Y15197D02*
X35246Y15223D01*
X35246Y15223D02*
X35298Y15250D01*
X35298Y15250D02*
X35431Y15250D01*
X35431Y15250D02*
X35510Y15223D01*
X35828Y14694D02*
X35775Y14720D01*
X35775Y14720D02*
X35748Y14747D01*
X35748Y14747D02*
X35722Y14800D01*
X35722Y14800D02*
X35722Y14958D01*
X35722Y14958D02*
X35748Y15011D01*
X35748Y15011D02*
X35775Y15038D01*
X35775Y15038D02*
X35828Y15064D01*
X35828Y15064D02*
X35907Y15064D01*
X35907Y15064D02*
X35960Y15038D01*
X35960Y15038D02*
X35986Y15011D01*
X35986Y15011D02*
X36013Y14958D01*
X36013Y14958D02*
X36013Y14800D01*
X36013Y14800D02*
X35986Y14747D01*
X35986Y14747D02*
X35960Y14720D01*
X35960Y14720D02*
X35907Y14694D01*
X35907Y14694D02*
X35828Y14694D01*
X36251Y14694D02*
X36251Y15064D01*
X36251Y14958D02*
X36277Y15011D01*
X36277Y15011D02*
X36304Y15038D01*
X36304Y15038D02*
X36357Y15064D01*
X36357Y15064D02*
X36410Y15064D01*
X36515Y15064D02*
X36727Y15064D01*
X36595Y15250D02*
X36595Y14773D01*
X36595Y14773D02*
X36621Y14720D01*
X36621Y14720D02*
X36674Y14694D01*
X36674Y14694D02*
X36727Y14694D01*
X36912Y14694D02*
X36912Y15064D01*
X36912Y15250D02*
X36886Y15223D01*
X36886Y15223D02*
X36912Y15197D01*
X36912Y15197D02*
X36939Y15223D01*
X36939Y15223D02*
X36912Y15250D01*
X36912Y15250D02*
X36912Y15197D01*
X37388Y14720D02*
X37335Y14694D01*
X37335Y14694D02*
X37230Y14694D01*
X37230Y14694D02*
X37177Y14720D01*
X37177Y14720D02*
X37150Y14773D01*
X37150Y14773D02*
X37150Y14985D01*
X37150Y14985D02*
X37177Y15038D01*
X37177Y15038D02*
X37230Y15064D01*
X37230Y15064D02*
X37335Y15064D01*
X37335Y15064D02*
X37388Y15038D01*
X37388Y15038D02*
X37415Y14985D01*
X37415Y14985D02*
X37415Y14932D01*
X37415Y14932D02*
X37150Y14879D01*
X38261Y14985D02*
X38341Y14958D01*
X38341Y14958D02*
X38367Y14932D01*
X38367Y14932D02*
X38394Y14879D01*
X38394Y14879D02*
X38394Y14800D01*
X38394Y14800D02*
X38367Y14747D01*
X38367Y14747D02*
X38341Y14720D01*
X38341Y14720D02*
X38288Y14694D01*
X38288Y14694D02*
X38076Y14694D01*
X38076Y14694D02*
X38076Y15250D01*
X38076Y15250D02*
X38261Y15250D01*
X38261Y15250D02*
X38314Y15223D01*
X38314Y15223D02*
X38341Y15197D01*
X38341Y15197D02*
X38367Y15144D01*
X38367Y15144D02*
X38367Y15091D01*
X38367Y15091D02*
X38341Y15038D01*
X38341Y15038D02*
X38314Y15011D01*
X38314Y15011D02*
X38261Y14985D01*
X38261Y14985D02*
X38076Y14985D01*
X35193Y10026D02*
X35272Y10000D01*
X35272Y10000D02*
X35404Y10000D01*
X35404Y10000D02*
X35457Y10026D01*
X35457Y10026D02*
X35484Y10052D01*
X35484Y10052D02*
X35510Y10105D01*
X35510Y10105D02*
X35510Y10158D01*
X35510Y10158D02*
X35484Y10211D01*
X35484Y10211D02*
X35457Y10238D01*
X35457Y10238D02*
X35404Y10264D01*
X35404Y10264D02*
X35298Y10291D01*
X35298Y10291D02*
X35246Y10317D01*
X35246Y10317D02*
X35219Y10343D01*
X35219Y10343D02*
X35193Y10396D01*
X35193Y10396D02*
X35193Y10449D01*
X35193Y10449D02*
X35219Y10502D01*
X35219Y10502D02*
X35246Y10529D01*
X35246Y10529D02*
X35298Y10555D01*
X35298Y10555D02*
X35431Y10555D01*
X35431Y10555D02*
X35510Y10529D01*
X35828Y10000D02*
X35775Y10026D01*
X35775Y10026D02*
X35748Y10052D01*
X35748Y10052D02*
X35722Y10105D01*
X35722Y10105D02*
X35722Y10264D01*
X35722Y10264D02*
X35748Y10317D01*
X35748Y10317D02*
X35775Y10343D01*
X35775Y10343D02*
X35828Y10370D01*
X35828Y10370D02*
X35907Y10370D01*
X35907Y10370D02*
X35960Y10343D01*
X35960Y10343D02*
X35986Y10317D01*
X35986Y10317D02*
X36013Y10264D01*
X36013Y10264D02*
X36013Y10105D01*
X36013Y10105D02*
X35986Y10052D01*
X35986Y10052D02*
X35960Y10026D01*
X35960Y10026D02*
X35907Y10000D01*
X35907Y10000D02*
X35828Y10000D01*
X36251Y10000D02*
X36251Y10370D01*
X36251Y10264D02*
X36277Y10317D01*
X36277Y10317D02*
X36304Y10343D01*
X36304Y10343D02*
X36357Y10370D01*
X36357Y10370D02*
X36410Y10370D01*
X36515Y10370D02*
X36727Y10370D01*
X36595Y10555D02*
X36595Y10079D01*
X36595Y10079D02*
X36621Y10026D01*
X36621Y10026D02*
X36674Y10000D01*
X36674Y10000D02*
X36727Y10000D01*
X36912Y10000D02*
X36912Y10370D01*
X36912Y10555D02*
X36886Y10529D01*
X36886Y10529D02*
X36912Y10502D01*
X36912Y10502D02*
X36939Y10529D01*
X36939Y10529D02*
X36912Y10555D01*
X36912Y10555D02*
X36912Y10502D01*
X37388Y10026D02*
X37335Y10000D01*
X37335Y10000D02*
X37230Y10000D01*
X37230Y10000D02*
X37177Y10026D01*
X37177Y10026D02*
X37150Y10079D01*
X37150Y10079D02*
X37150Y10291D01*
X37150Y10291D02*
X37177Y10343D01*
X37177Y10343D02*
X37230Y10370D01*
X37230Y10370D02*
X37335Y10370D01*
X37335Y10370D02*
X37388Y10343D01*
X37388Y10343D02*
X37415Y10291D01*
X37415Y10291D02*
X37415Y10238D01*
X37415Y10238D02*
X37150Y10185D01*
X38394Y10052D02*
X38367Y10026D01*
X38367Y10026D02*
X38288Y10000D01*
X38288Y10000D02*
X38235Y10000D01*
X38235Y10000D02*
X38156Y10026D01*
X38156Y10026D02*
X38103Y10079D01*
X38103Y10079D02*
X38076Y10132D01*
X38076Y10132D02*
X38050Y10238D01*
X38050Y10238D02*
X38050Y10317D01*
X38050Y10317D02*
X38076Y10423D01*
X38076Y10423D02*
X38103Y10476D01*
X38103Y10476D02*
X38156Y10529D01*
X38156Y10529D02*
X38235Y10555D01*
X38235Y10555D02*
X38288Y10555D01*
X38288Y10555D02*
X38367Y10529D01*
X38367Y10529D02*
X38394Y10502D01*
X5833Y5041D02*
X6018Y5041D01*
X6097Y4750D02*
X5833Y4750D01*
X5833Y4750D02*
X5833Y5305D01*
X5833Y5305D02*
X6097Y5305D01*
X6335Y5120D02*
X6335Y4750D01*
X6335Y5067D02*
X6362Y5093D01*
X6362Y5093D02*
X6415Y5120D01*
X6415Y5120D02*
X6494Y5120D01*
X6494Y5120D02*
X6547Y5093D01*
X6547Y5093D02*
X6574Y5041D01*
X6574Y5041D02*
X6574Y4750D01*
X6759Y5120D02*
X6970Y5120D01*
X6838Y5305D02*
X6838Y4829D01*
X6838Y4829D02*
X6865Y4776D01*
X6865Y4776D02*
X6917Y4750D01*
X6917Y4750D02*
X6970Y4750D01*
X7156Y4750D02*
X7156Y5120D01*
X7156Y5014D02*
X7182Y5067D01*
X7182Y5067D02*
X7208Y5093D01*
X7208Y5093D02*
X7261Y5120D01*
X7261Y5120D02*
X7314Y5120D01*
X7711Y4776D02*
X7658Y4750D01*
X7658Y4750D02*
X7552Y4750D01*
X7552Y4750D02*
X7500Y4776D01*
X7500Y4776D02*
X7473Y4829D01*
X7473Y4829D02*
X7473Y5041D01*
X7473Y5041D02*
X7500Y5093D01*
X7500Y5093D02*
X7552Y5120D01*
X7552Y5120D02*
X7658Y5120D01*
X7658Y5120D02*
X7711Y5093D01*
X7711Y5093D02*
X7738Y5041D01*
X7738Y5041D02*
X7738Y4988D01*
X7738Y4988D02*
X7473Y4935D01*
X7658Y5332D02*
X7579Y5252D01*
X8187Y4776D02*
X8134Y4750D01*
X8134Y4750D02*
X8029Y4750D01*
X8029Y4750D02*
X7976Y4776D01*
X7976Y4776D02*
X7949Y4829D01*
X7949Y4829D02*
X7949Y5041D01*
X7949Y5041D02*
X7976Y5093D01*
X7976Y5093D02*
X8029Y5120D01*
X8029Y5120D02*
X8134Y5120D01*
X8134Y5120D02*
X8187Y5093D01*
X8187Y5093D02*
X8214Y5041D01*
X8214Y5041D02*
X8214Y4988D01*
X8214Y4988D02*
X7949Y4935D01*
X8875Y4750D02*
X8875Y5305D01*
X8875Y5305D02*
X9007Y5305D01*
X9007Y5305D02*
X9087Y5279D01*
X9087Y5279D02*
X9140Y5226D01*
X9140Y5226D02*
X9166Y5173D01*
X9166Y5173D02*
X9193Y5067D01*
X9193Y5067D02*
X9193Y4988D01*
X9193Y4988D02*
X9166Y4882D01*
X9166Y4882D02*
X9140Y4829D01*
X9140Y4829D02*
X9087Y4776D01*
X9087Y4776D02*
X9007Y4750D01*
X9007Y4750D02*
X8875Y4750D01*
X29149Y4776D02*
X29228Y4750D01*
X29228Y4750D02*
X29361Y4750D01*
X29361Y4750D02*
X29414Y4776D01*
X29414Y4776D02*
X29440Y4802D01*
X29440Y4802D02*
X29466Y4855D01*
X29466Y4855D02*
X29466Y4908D01*
X29466Y4908D02*
X29440Y4961D01*
X29440Y4961D02*
X29414Y4988D01*
X29414Y4988D02*
X29361Y5014D01*
X29361Y5014D02*
X29255Y5041D01*
X29255Y5041D02*
X29202Y5067D01*
X29202Y5067D02*
X29175Y5093D01*
X29175Y5093D02*
X29149Y5146D01*
X29149Y5146D02*
X29149Y5199D01*
X29149Y5199D02*
X29175Y5252D01*
X29175Y5252D02*
X29202Y5279D01*
X29202Y5279D02*
X29255Y5305D01*
X29255Y5305D02*
X29387Y5305D01*
X29387Y5305D02*
X29466Y5279D01*
X29784Y4750D02*
X29731Y4776D01*
X29731Y4776D02*
X29705Y4802D01*
X29705Y4802D02*
X29678Y4855D01*
X29678Y4855D02*
X29678Y5014D01*
X29678Y5014D02*
X29705Y5067D01*
X29705Y5067D02*
X29731Y5093D01*
X29731Y5093D02*
X29784Y5120D01*
X29784Y5120D02*
X29863Y5120D01*
X29863Y5120D02*
X29916Y5093D01*
X29916Y5093D02*
X29943Y5067D01*
X29943Y5067D02*
X29969Y5014D01*
X29969Y5014D02*
X29969Y4855D01*
X29969Y4855D02*
X29943Y4802D01*
X29943Y4802D02*
X29916Y4776D01*
X29916Y4776D02*
X29863Y4750D01*
X29863Y4750D02*
X29784Y4750D01*
X30207Y4750D02*
X30207Y5120D01*
X30207Y5014D02*
X30234Y5067D01*
X30234Y5067D02*
X30260Y5093D01*
X30260Y5093D02*
X30313Y5120D01*
X30313Y5120D02*
X30366Y5120D01*
X30472Y5120D02*
X30683Y5120D01*
X30551Y5305D02*
X30551Y4829D01*
X30551Y4829D02*
X30578Y4776D01*
X30578Y4776D02*
X30630Y4750D01*
X30630Y4750D02*
X30683Y4750D01*
X30869Y4750D02*
X30869Y5120D01*
X30869Y5305D02*
X30842Y5279D01*
X30842Y5279D02*
X30869Y5252D01*
X30869Y5252D02*
X30895Y5279D01*
X30895Y5279D02*
X30869Y5305D01*
X30869Y5305D02*
X30869Y5252D01*
X31345Y4776D02*
X31292Y4750D01*
X31292Y4750D02*
X31186Y4750D01*
X31186Y4750D02*
X31133Y4776D01*
X31133Y4776D02*
X31107Y4829D01*
X31107Y4829D02*
X31107Y5041D01*
X31107Y5041D02*
X31133Y5093D01*
X31133Y5093D02*
X31186Y5120D01*
X31186Y5120D02*
X31292Y5120D01*
X31292Y5120D02*
X31345Y5093D01*
X31345Y5093D02*
X31371Y5041D01*
X31371Y5041D02*
X31371Y4988D01*
X31371Y4988D02*
X31107Y4935D01*
X32033Y4750D02*
X32033Y5305D01*
X32033Y5305D02*
X32165Y5305D01*
X32165Y5305D02*
X32244Y5279D01*
X32244Y5279D02*
X32297Y5226D01*
X32297Y5226D02*
X32324Y5173D01*
X32324Y5173D02*
X32350Y5067D01*
X32350Y5067D02*
X32350Y4988D01*
X32350Y4988D02*
X32324Y4882D01*
X32324Y4882D02*
X32297Y4829D01*
X32297Y4829D02*
X32244Y4776D01*
X32244Y4776D02*
X32165Y4750D01*
X32165Y4750D02*
X32033Y4750D01*
D12*
G01X10486Y39212D02*
X10486Y33503D01*
X6942Y39212D02*
X6942Y33503D01*
X10486Y39212D02*
X6942Y39212D01*
X10486Y33503D02*
X6942Y33503D01*
X10486Y37834D02*
X6942Y37834D01*
X11499Y34012D02*
X11499Y35012D01*
X10974Y35012D02*
X12024Y35012D01*
X11500Y37987D02*
X11499Y37012D01*
X10975Y37012D02*
X12024Y37012D01*
X10974Y35012D02*
X10975Y37012D01*
X12024Y35012D02*
X12024Y37012D01*
X10975Y36762D02*
X12024Y36762D01*
X19250Y34999D02*
X21000Y34999D01*
X19250Y36000D02*
X21000Y36000D01*
X19250Y37000D02*
X21000Y37000D01*
X12750Y34000D02*
X19250Y34000D01*
X12750Y37999D02*
X19250Y37999D01*
X12750Y34000D02*
X12750Y37999D01*
X19250Y34000D02*
X19250Y37999D01*
X23000Y34500D02*
X23000Y37500D01*
X23000Y34500D02*
X23999Y34500D01*
X23000Y37500D02*
X23999Y37500D01*
X23999Y34500D02*
X23999Y37500D01*
X22749Y37500D02*
X22749Y34500D01*
X22749Y37500D02*
X21749Y37500D01*
X22749Y34500D02*
X21749Y34500D01*
X21749Y37500D02*
X21749Y34500D01*
X5801Y38005D02*
X5688Y38106D01*
X5561Y38180D01*
X5424Y38227D01*
X5282Y38247D01*
X5138Y38239D01*
X4998Y38204D01*
X4865Y38141D01*
X4744Y38051D01*
X4643Y37938D01*
X4569Y37811D01*
X4522Y37674D01*
X4502Y37532D01*
X4510Y37388D01*
X4545Y37248D01*
X4608Y37115D01*
X4698Y36994D01*
X4811Y36893D01*
X4938Y36819D01*
X5075Y36772D01*
X5217Y36752D01*
X5361Y36760D01*
X5501Y36795D01*
X5634Y36858D01*
X5755Y36948D01*
X5801Y36994D01*
X5801Y38005D02*
X5801Y36994D01*
X23625Y34000D02*
X20874Y34000D01*
X24250Y33500D02*
X23625Y33500D01*
X23625Y33000D02*
X23625Y34000D01*
X23625Y33000D02*
X20874Y33000D01*
X20874Y33000D02*
X20874Y34000D01*
X20249Y33500D02*
X20874Y33500D01*
X29250Y37999D02*
X33750Y37999D01*
X29250Y35499D02*
X33750Y35499D01*
X33750Y37999D02*
X33750Y35499D01*
X29250Y37999D02*
X29250Y35499D01*
X25375Y34000D02*
X28125Y34000D01*
X24750Y34500D02*
X25375Y34500D01*
X25375Y35000D02*
X25375Y34000D01*
X25375Y35000D02*
X28125Y35000D01*
X28125Y35000D02*
X28125Y34000D01*
X28750Y34500D02*
X28125Y34500D01*
X27100Y37700D02*
X27500Y37700D01*
X27300Y37500D02*
X27300Y37900D01*
X26900Y37000D02*
X28000Y37000D01*
X26636Y36363D02*
X26751Y36504D01*
X26834Y36661D01*
X26883Y36828D01*
X26900Y37000D01*
X26883Y37171D01*
X26834Y37338D01*
X26751Y37495D01*
X26636Y37636D01*
X26495Y37751D01*
X26338Y37834D01*
X26171Y37883D01*
X26000Y37900D01*
X25828Y37883D01*
X25661Y37834D01*
X25504Y37751D01*
X25363Y37636D01*
X25248Y37495D01*
X25165Y37338D01*
X25116Y37171D01*
X25100Y37000D01*
X25116Y36828D01*
X25165Y36661D01*
X25248Y36504D01*
X25363Y36363D01*
X25504Y36248D01*
X25661Y36165D01*
X25828Y36116D01*
X26000Y36099D01*
X26171Y36116D01*
X26338Y36165D01*
X26495Y36248D01*
X26636Y36363D01*
X27800Y37700D02*
X28200Y37700D01*
X0Y29750D02*
X0Y35750D01*
X0Y35750D02*
X4000Y35750D01*
X4000Y35750D02*
X4000Y29750D01*
X4000Y29750D02*
X0Y29750D01*
X38500Y35750D02*
X38500Y29750D01*
X38500Y29750D02*
X34500Y29750D01*
X34500Y29750D02*
X34500Y35750D01*
X34500Y35750D02*
X38500Y35750D01*
X0Y15750D02*
X0Y21750D01*
X0Y21750D02*
X4000Y21750D01*
X4000Y21750D02*
X4000Y15750D01*
X4000Y15750D02*
X0Y15750D01*
X249Y3499D02*
X249Y9500D01*
X249Y9500D02*
X4250Y9499D01*
X4250Y9499D02*
X4250Y3499D01*
X4250Y3499D02*
X249Y3499D01*
X10750Y499D02*
X4750Y499D01*
X4750Y499D02*
X4750Y4500D01*
X4750Y4500D02*
X10750Y4500D01*
X10750Y4500D02*
X10750Y499D01*
X15500Y25250D02*
X15664Y25228D01*
X15781Y25171D01*
X15851Y25091D01*
X15874Y25000D01*
X15851Y24908D01*
X15781Y24828D01*
X15664Y24771D01*
X15500Y24750D01*
X15500Y25250D02*
X15500Y27000D01*
X15500Y24750D02*
X15500Y23000D01*
X15500Y27000D02*
X23000Y27000D01*
X23000Y27000D02*
X23000Y23000D01*
X23000Y23000D02*
X15500Y23000D01*
X15500Y9000D02*
X15664Y8978D01*
X15781Y8921D01*
X15851Y8841D01*
X15874Y8749D01*
X15851Y8658D01*
X15781Y8578D01*
X15664Y8521D01*
X15500Y8500D01*
X15500Y9000D02*
X15500Y10750D01*
X15500Y8500D02*
X15500Y6749D01*
X15500Y10750D02*
X23000Y10750D01*
X23000Y10750D02*
X23000Y6749D01*
X23000Y6749D02*
X15500Y6749D01*
X17875Y28125D02*
X17875Y27375D01*
X17875Y28125D02*
X16125Y28125D01*
X17875Y27375D02*
X16125Y27375D01*
X16125Y28125D02*
X16125Y27375D01*
X23875Y25625D02*
X23875Y26374D01*
X23875Y25625D02*
X25625Y25625D01*
X23875Y26374D02*
X25625Y26374D01*
X25625Y25625D02*
X25625Y26374D01*
X11125Y25000D02*
X13875Y25000D01*
X10500Y25500D02*
X11125Y25500D01*
X11125Y26000D02*
X11125Y25000D01*
X11125Y26000D02*
X13875Y26000D01*
X13875Y26000D02*
X13875Y25000D01*
X14500Y25500D02*
X13875Y25500D01*
X27125Y28250D02*
X24375Y28250D01*
X27750Y27750D02*
X27125Y27750D01*
X27125Y27250D02*
X27125Y28250D01*
X27125Y27250D02*
X24375Y27250D01*
X24375Y27250D02*
X24375Y28250D01*
X23750Y27750D02*
X24375Y27750D01*
X16500Y31249D02*
X16500Y30750D01*
X16750Y31500D02*
X17250Y31500D01*
X16500Y31249D02*
X16750Y31500D01*
X17250Y31500D02*
X17500Y31249D01*
X17500Y31249D02*
X17500Y30750D01*
X16500Y30750D02*
X16750Y30499D01*
X16750Y30499D02*
X17250Y30499D01*
X17250Y30499D02*
X17500Y30750D01*
X18250Y30499D02*
X18500Y30750D01*
X17500Y30750D02*
X17750Y30499D01*
X18500Y31249D02*
X18500Y30750D01*
X18250Y31500D02*
X18500Y31249D01*
X17500Y31249D02*
X17750Y31500D01*
X17750Y31500D02*
X18250Y31500D01*
X17750Y30499D02*
X18250Y30499D01*
X19499Y31249D02*
X19499Y30750D01*
X19750Y31500D02*
X20249Y31500D01*
X19499Y31249D02*
X19750Y31500D01*
X20249Y31500D02*
X20500Y31249D01*
X20500Y31249D02*
X20500Y30750D01*
X19499Y30750D02*
X19750Y30499D01*
X19750Y30499D02*
X20249Y30499D01*
X20249Y30499D02*
X20500Y30750D01*
X21250Y30499D02*
X21499Y30750D01*
X20500Y30750D02*
X20749Y30499D01*
X21499Y31249D02*
X21499Y30750D01*
X21250Y31500D02*
X21499Y31249D01*
X20500Y31249D02*
X20749Y31500D01*
X20749Y31500D02*
X21250Y31500D01*
X20749Y30499D02*
X21250Y30499D01*
X11125Y26000D02*
X13875Y26000D01*
X10500Y26500D02*
X11125Y26500D01*
X11125Y27000D02*
X11125Y26000D01*
X11125Y27000D02*
X13875Y27000D01*
X13875Y27000D02*
X13875Y26000D01*
X14500Y26500D02*
X13875Y26500D01*
X19375Y27250D02*
X22125Y27250D01*
X18750Y27750D02*
X19375Y27750D01*
X19375Y28250D02*
X19375Y27250D01*
X19375Y28250D02*
X22125Y28250D01*
X22125Y28250D02*
X22125Y27250D01*
X22750Y27750D02*
X22125Y27750D01*
X38500Y21750D02*
X38500Y15750D01*
X38500Y15750D02*
X34500Y15750D01*
X34500Y15750D02*
X34500Y21750D01*
X34500Y21750D02*
X38500Y21750D01*
X38500Y9499D02*
X38500Y3499D01*
X38500Y3499D02*
X34500Y3500D01*
X34500Y3500D02*
X34500Y9500D01*
X34500Y9500D02*
X38500Y9499D01*
X33750Y499D02*
X27750Y499D01*
X27750Y499D02*
X27750Y4500D01*
X27750Y4500D02*
X33750Y4500D01*
X33750Y4500D02*
X33750Y499D01*
X11125Y24000D02*
X13875Y24000D01*
X10500Y24500D02*
X11125Y24500D01*
X11125Y25000D02*
X11125Y24000D01*
X11125Y25000D02*
X13875Y25000D01*
X13875Y25000D02*
X13875Y24000D01*
X14500Y24500D02*
X13875Y24500D01*
X27125Y22749D02*
X24375Y22749D01*
X27750Y22250D02*
X27125Y22250D01*
X27125Y21750D02*
X27125Y22749D01*
X27125Y21750D02*
X24375Y21750D01*
X24375Y21750D02*
X24375Y22749D01*
X23750Y22250D02*
X24375Y22250D01*
X16500Y19750D02*
X16500Y19250D01*
X16750Y20000D02*
X17250Y20000D01*
X16500Y19750D02*
X16750Y20000D01*
X17250Y20000D02*
X17500Y19750D01*
X17500Y19750D02*
X17500Y19250D01*
X16500Y19250D02*
X16750Y19000D01*
X16750Y19000D02*
X17250Y19000D01*
X17250Y19000D02*
X17500Y19250D01*
X18250Y19000D02*
X18500Y19250D01*
X17500Y19250D02*
X17750Y19000D01*
X18500Y19750D02*
X18500Y19250D01*
X18250Y20000D02*
X18500Y19750D01*
X17500Y19750D02*
X17750Y20000D01*
X17750Y20000D02*
X18250Y20000D01*
X17750Y19000D02*
X18250Y19000D01*
X19499Y19750D02*
X19499Y19250D01*
X19750Y20000D02*
X20249Y20000D01*
X19499Y19750D02*
X19750Y20000D01*
X20249Y20000D02*
X20500Y19750D01*
X20500Y19750D02*
X20500Y19250D01*
X19499Y19250D02*
X19750Y19000D01*
X19750Y19000D02*
X20249Y19000D01*
X20249Y19000D02*
X20500Y19250D01*
X21250Y19000D02*
X21499Y19250D01*
X20500Y19250D02*
X20749Y19000D01*
X21499Y19750D02*
X21499Y19250D01*
X21250Y20000D02*
X21499Y19750D01*
X20500Y19750D02*
X20749Y20000D01*
X20749Y20000D02*
X21250Y20000D01*
X20749Y19000D02*
X21250Y19000D01*
X13874Y23999D02*
X11125Y23999D01*
X14499Y23500D02*
X13874Y23500D01*
X13874Y23000D02*
X13874Y23999D01*
X13874Y23000D02*
X11125Y23000D01*
X11125Y23000D02*
X11125Y23999D01*
X10500Y23500D02*
X11125Y23500D01*
X19375Y21750D02*
X22125Y21750D01*
X18750Y22250D02*
X19375Y22250D01*
X19375Y22749D02*
X19375Y21750D01*
X19375Y22749D02*
X22125Y22749D01*
X22125Y22749D02*
X22125Y21750D01*
X22750Y22250D02*
X22125Y22250D01*
X16125Y21875D02*
X16125Y22624D01*
X16125Y21875D02*
X17875Y21875D01*
X16125Y22624D02*
X17875Y22624D01*
X17875Y21875D02*
X17875Y22624D01*
X23875Y23625D02*
X23875Y24375D01*
X23875Y23625D02*
X25625Y23625D01*
X23875Y24375D02*
X25625Y24375D01*
X25625Y23625D02*
X25625Y24375D01*
X20750Y24500D02*
X17750Y24500D01*
X20750Y24500D02*
X20750Y25500D01*
X17750Y24500D02*
X17750Y25500D01*
X20750Y25500D02*
X17750Y25500D01*
X20750Y8249D02*
X17750Y8249D01*
X20750Y8249D02*
X20750Y9250D01*
X17750Y8249D02*
X17750Y9250D01*
X20750Y9250D02*
X17750Y9250D01*
X11125Y8749D02*
X13875Y8749D01*
X10500Y9250D02*
X11125Y9250D01*
X11125Y9749D02*
X11125Y8749D01*
X11125Y9749D02*
X13875Y9749D01*
X13875Y9749D02*
X13875Y8749D01*
X14500Y9250D02*
X13875Y9250D01*
X26875Y11999D02*
X24125Y12000D01*
X27500Y11500D02*
X26875Y11500D01*
X26875Y10999D02*
X26875Y11999D01*
X26875Y10999D02*
X24125Y11000D01*
X24125Y11000D02*
X24125Y12000D01*
X23500Y11500D02*
X24125Y11500D01*
X16500Y15000D02*
X16500Y14500D01*
X16750Y15250D02*
X17250Y15250D01*
X16500Y15000D02*
X16750Y15250D01*
X17250Y15250D02*
X17500Y15000D01*
X17500Y15000D02*
X17500Y14500D01*
X16500Y14500D02*
X16750Y14250D01*
X16750Y14250D02*
X17250Y14250D01*
X17250Y14250D02*
X17500Y14500D01*
X18250Y14250D02*
X18500Y14500D01*
X17500Y14500D02*
X17750Y14250D01*
X18500Y15000D02*
X18500Y14500D01*
X18250Y15250D02*
X18500Y15000D01*
X17500Y15000D02*
X17750Y15250D01*
X17750Y15250D02*
X18250Y15250D01*
X17750Y14250D02*
X18250Y14250D01*
X19499Y15000D02*
X19499Y14500D01*
X19750Y15250D02*
X20249Y15250D01*
X19499Y15000D02*
X19750Y15250D01*
X20249Y15250D02*
X20500Y15000D01*
X20500Y15000D02*
X20500Y14500D01*
X19499Y14500D02*
X19750Y14250D01*
X19750Y14250D02*
X20249Y14250D01*
X20249Y14250D02*
X20500Y14500D01*
X21250Y14250D02*
X21499Y14500D01*
X20500Y14500D02*
X20749Y14250D01*
X21499Y15000D02*
X21499Y14500D01*
X21250Y15250D02*
X21499Y15000D01*
X20500Y15000D02*
X20749Y15250D01*
X20749Y15250D02*
X21250Y15250D01*
X20749Y14250D02*
X21250Y14250D01*
X11125Y9749D02*
X13875Y9749D01*
X10500Y10250D02*
X11125Y10250D01*
X11125Y10749D02*
X11125Y9749D01*
X11125Y10749D02*
X13875Y10749D01*
X13875Y10749D02*
X13875Y9749D01*
X14500Y10250D02*
X13875Y10250D01*
X22125Y11999D02*
X19375Y12000D01*
X22750Y11500D02*
X22125Y11500D01*
X22125Y10999D02*
X22125Y11999D01*
X22125Y10999D02*
X19375Y11000D01*
X19375Y11000D02*
X19375Y12000D01*
X18750Y11500D02*
X19375Y11500D01*
X17875Y11875D02*
X17875Y11125D01*
X17875Y11875D02*
X16125Y11875D01*
X17875Y11125D02*
X16125Y11125D01*
X16125Y11875D02*
X16125Y11125D01*
X23625Y9375D02*
X23625Y10125D01*
X23625Y9375D02*
X25375Y9375D01*
X23625Y10125D02*
X25375Y10125D01*
X25375Y9375D02*
X25375Y10125D01*
X11125Y7750D02*
X13875Y7750D01*
X10500Y8250D02*
X11125Y8250D01*
X11125Y8750D02*
X11125Y7750D01*
X11125Y8750D02*
X13875Y8750D01*
X13875Y8750D02*
X13875Y7750D01*
X14500Y8250D02*
X13875Y8250D01*
X11125Y6750D02*
X13875Y6750D01*
X10500Y7250D02*
X11125Y7250D01*
X11125Y7750D02*
X11125Y6750D01*
X11125Y7750D02*
X13875Y7750D01*
X13875Y7750D02*
X13875Y6750D01*
X14500Y7250D02*
X13875Y7250D01*
X26875Y6500D02*
X24125Y6500D01*
X27500Y6000D02*
X26875Y6000D01*
X26875Y5500D02*
X26875Y6500D01*
X26875Y5500D02*
X24125Y5500D01*
X24125Y5500D02*
X24125Y6500D01*
X23500Y6000D02*
X24125Y6000D01*
X16500Y3250D02*
X16500Y2750D01*
X16750Y3500D02*
X17250Y3500D01*
X16500Y3250D02*
X16750Y3500D01*
X17250Y3500D02*
X17500Y3250D01*
X17500Y3250D02*
X17500Y2750D01*
X16500Y2750D02*
X16750Y2500D01*
X16750Y2500D02*
X17250Y2500D01*
X17250Y2500D02*
X17500Y2750D01*
X18250Y2500D02*
X18500Y2750D01*
X17500Y2750D02*
X17750Y2500D01*
X18500Y3250D02*
X18500Y2750D01*
X18250Y3500D02*
X18500Y3250D01*
X17500Y3250D02*
X17750Y3500D01*
X17750Y3500D02*
X18250Y3500D01*
X17750Y2500D02*
X18250Y2500D01*
X19499Y3250D02*
X19499Y2750D01*
X19750Y3500D02*
X20249Y3500D01*
X19499Y3250D02*
X19750Y3500D01*
X20249Y3500D02*
X20500Y3250D01*
X20500Y3250D02*
X20500Y2750D01*
X19499Y2750D02*
X19750Y2500D01*
X19750Y2500D02*
X20249Y2500D01*
X20249Y2500D02*
X20500Y2750D01*
X21250Y2500D02*
X21499Y2750D01*
X20500Y2750D02*
X20749Y2500D01*
X21499Y3250D02*
X21499Y2750D01*
X21250Y3500D02*
X21499Y3250D01*
X20500Y3250D02*
X20749Y3500D01*
X20749Y3500D02*
X21250Y3500D01*
X20749Y2500D02*
X21250Y2500D01*
X19375Y5500D02*
X22125Y5500D01*
X18750Y6000D02*
X19375Y6000D01*
X19375Y6500D02*
X19375Y5500D01*
X19375Y6500D02*
X22125Y6500D01*
X22125Y6500D02*
X22125Y5500D01*
X22750Y6000D02*
X22125Y6000D01*
X23625Y7375D02*
X23625Y8125D01*
X23625Y7375D02*
X25375Y7375D01*
X23625Y8125D02*
X25375Y8125D01*
X25375Y7375D02*
X25375Y8125D01*
X17875Y6375D02*
X17875Y5625D01*
X17875Y6375D02*
X16125Y6375D01*
X17875Y5625D02*
X16125Y5625D01*
X16125Y6375D02*
X16125Y5625D01*
X13874Y28250D02*
X11125Y28250D01*
X14499Y27750D02*
X13874Y27750D01*
X13874Y27250D02*
X13874Y28250D01*
X13874Y27250D02*
X11125Y27250D01*
X11125Y27250D02*
X11125Y28250D01*
X10500Y27750D02*
X11125Y27750D01*
X13874Y22749D02*
X11125Y22749D01*
X14499Y22250D02*
X13874Y22250D01*
X13874Y21750D02*
X13874Y22749D01*
X13874Y21750D02*
X11125Y21750D01*
X11125Y21750D02*
X11125Y22749D01*
X10500Y22250D02*
X11125Y22250D01*
X13874Y11999D02*
X11125Y12000D01*
X14499Y11500D02*
X13874Y11500D01*
X13874Y10999D02*
X13874Y11999D01*
X13874Y10999D02*
X11125Y11000D01*
X11125Y11000D02*
X11125Y12000D01*
X10500Y11500D02*
X11125Y11500D01*
X11125Y5500D02*
X13875Y5500D01*
X10500Y6000D02*
X11125Y6000D01*
X11125Y6500D02*
X11125Y5500D01*
X11125Y6500D02*
X13875Y6500D01*
X13875Y6500D02*
X13875Y5500D01*
X14500Y6000D02*
X13875Y6000D01*
X32750Y34000D02*
X29750Y34000D01*
X32750Y34000D02*
X32750Y35000D01*
X29750Y34000D02*
X29750Y35000D01*
X32750Y35000D02*
X29750Y35000D01*
X11576Y31984D02*
X14923Y31984D01*
X11576Y30015D02*
X14923Y30015D01*
X11576Y31984D02*
X11576Y29228D01*
X14923Y31984D02*
X14923Y29228D01*
X11576Y29228D02*
X14923Y29228D01*
X23076Y31984D02*
X26423Y31984D01*
X23076Y30015D02*
X26423Y30015D01*
X23076Y31984D02*
X23076Y29228D01*
X26423Y31984D02*
X26423Y29228D01*
X23076Y29228D02*
X26423Y29228D01*
X11576Y20484D02*
X14923Y20484D01*
X11576Y18515D02*
X14923Y18515D01*
X11576Y20484D02*
X11576Y17728D01*
X14923Y20484D02*
X14923Y17728D01*
X11576Y17728D02*
X14923Y17728D01*
X23076Y20484D02*
X26423Y20484D01*
X23076Y18515D02*
X26423Y18515D01*
X23076Y20484D02*
X23076Y17728D01*
X26423Y20484D02*
X26423Y17728D01*
X23076Y17728D02*
X26423Y17728D01*
X23076Y15734D02*
X26423Y15734D01*
X23076Y13765D02*
X26423Y13765D01*
X23076Y15734D02*
X23076Y12978D01*
X26423Y15734D02*
X26423Y12978D01*
X23076Y12978D02*
X26423Y12978D01*
X23076Y3984D02*
X26423Y3984D01*
X23076Y2015D02*
X26423Y2015D01*
X23076Y3984D02*
X23076Y1228D01*
X26423Y3984D02*
X26423Y1228D01*
X23076Y1228D02*
X26423Y1228D01*
X11576Y3984D02*
X14923Y3984D01*
X11576Y2015D02*
X14923Y2015D01*
X11576Y3984D02*
X11576Y1228D01*
X14923Y3984D02*
X14923Y1228D01*
X11576Y1228D02*
X14923Y1228D01*
X11576Y15734D02*
X14923Y15734D01*
X11576Y13765D02*
X14923Y13765D01*
X11576Y15734D02*
X11576Y12978D01*
X14923Y15734D02*
X14923Y12978D01*
X11576Y12978D02*
X14923Y12978D01*
X6500Y31750D02*
X6500Y29750D01*
X5500Y31750D02*
X5500Y29750D01*
X5500Y31750D02*
X6500Y31750D01*
X5500Y29750D02*
X6500Y29750D01*
X33000Y31750D02*
X33000Y29750D01*
X32000Y31750D02*
X32000Y29750D01*
X32000Y31750D02*
X33000Y31750D01*
X32000Y29750D02*
X33000Y29750D01*
X6500Y20000D02*
X6500Y18000D01*
X5500Y20000D02*
X5500Y18000D01*
X5500Y20000D02*
X6500Y20000D01*
X5500Y18000D02*
X6500Y18000D01*
X33250Y20000D02*
X33250Y18000D01*
X32250Y20000D02*
X32250Y18000D01*
X32250Y20000D02*
X33250Y20000D01*
X32250Y18000D02*
X33250Y18000D01*
X6500Y15500D02*
X6500Y13499D01*
X5500Y15500D02*
X5500Y13499D01*
X5500Y15500D02*
X6500Y15500D01*
X5500Y13499D02*
X6500Y13499D01*
X33250Y15500D02*
X33250Y13499D01*
X32250Y15500D02*
X32250Y13499D01*
X32250Y15500D02*
X33250Y15500D01*
X32250Y13499D02*
X33250Y13499D01*
X6500Y8000D02*
X6500Y5999D01*
X5500Y8000D02*
X5500Y5999D01*
X5500Y8000D02*
X6500Y8000D01*
X5500Y5999D02*
X6500Y5999D01*
X33250Y8000D02*
X33250Y5999D01*
X32250Y8000D02*
X32250Y5999D01*
X32250Y8000D02*
X33250Y8000D01*
X32250Y5999D02*
X33250Y5999D01*
D13*
G01X18735Y29511D02*
X19264Y29511D01*
X18629Y29194D02*
X19000Y30305D01*
X19000Y30305D02*
X19370Y29194D01*
X19079Y18276D02*
X19238Y18223D01*
X19238Y18223D02*
X19291Y18170D01*
X19291Y18170D02*
X19343Y18064D01*
X19343Y18064D02*
X19343Y17906D01*
X19343Y17906D02*
X19291Y17800D01*
X19291Y17800D02*
X19238Y17747D01*
X19238Y17747D02*
X19132Y17694D01*
X19132Y17694D02*
X18708Y17694D01*
X18708Y17694D02*
X18708Y18805D01*
X18708Y18805D02*
X19079Y18805D01*
X19079Y18805D02*
X19185Y18752D01*
X19185Y18752D02*
X19238Y18699D01*
X19238Y18699D02*
X19291Y18593D01*
X19291Y18593D02*
X19291Y18488D01*
X19291Y18488D02*
X19238Y18382D01*
X19238Y18382D02*
X19185Y18329D01*
X19185Y18329D02*
X19079Y18276D01*
X19079Y18276D02*
X18708Y18276D01*
X19343Y13050D02*
X19291Y12997D01*
X19291Y12997D02*
X19132Y12944D01*
X19132Y12944D02*
X19026Y12944D01*
X19026Y12944D02*
X18867Y12997D01*
X18867Y12997D02*
X18761Y13103D01*
X18761Y13103D02*
X18708Y13208D01*
X18708Y13208D02*
X18656Y13420D01*
X18656Y13420D02*
X18656Y13579D01*
X18656Y13579D02*
X18708Y13791D01*
X18708Y13791D02*
X18761Y13896D01*
X18761Y13896D02*
X18867Y14002D01*
X18867Y14002D02*
X19026Y14055D01*
X19026Y14055D02*
X19132Y14055D01*
X19132Y14055D02*
X19291Y14002D01*
X19291Y14002D02*
X19343Y13949D01*
X18708Y1194D02*
X18708Y2305D01*
X18708Y2305D02*
X18973Y2305D01*
X18973Y2305D02*
X19132Y2252D01*
X19132Y2252D02*
X19238Y2146D01*
X19238Y2146D02*
X19291Y2041D01*
X19291Y2041D02*
X19343Y1829D01*
X19343Y1829D02*
X19343Y1670D01*
X19343Y1670D02*
X19291Y1458D01*
X19291Y1458D02*
X19238Y1353D01*
X19238Y1353D02*
X19132Y1247D01*
X19132Y1247D02*
X18973Y1194D01*
X18973Y1194D02*
X18708Y1194D01*
D14*
G01X11000Y32500D02*
X27000Y32500D01*
X11000Y28750D02*
X27000Y28750D01*
X11000Y28750D02*
X11000Y32500D01*
X27000Y28750D02*
X27000Y32500D01*
X11000Y21000D02*
X27000Y21000D01*
X11000Y17250D02*
X27000Y17250D01*
X11000Y17250D02*
X11000Y21000D01*
X27000Y17250D02*
X27000Y21000D01*
X11000Y16250D02*
X27000Y16250D01*
X11000Y12500D02*
X27000Y12500D01*
X11000Y12500D02*
X11000Y16250D01*
X27000Y12500D02*
X27000Y16250D01*
X11000Y4500D02*
X27000Y4500D01*
X11000Y750D02*
X27000Y750D01*
X11000Y750D02*
X11000Y4500D01*
X27000Y750D02*
X27000Y4500D01*
D15*
G01X0Y0D02*
X0Y39370D01*
X39370Y39370D01*
X39370Y0D01*
X0Y0D01*
G36*
X2652Y27958D02*G01*
X3625Y27958D01*X3625Y28097D01*X2652Y28097D01*G37*
G36*
X3763Y27958D02*G01*
X4319Y27958D01*X4319Y28097D01*X3763Y28097D01*G37*
G36*
X4736Y27958D02*G01*
X5708Y27958D01*X5708Y28097D01*X4736Y28097D01*G37*
G36*
X6958Y27958D02*G01*
X7236Y27958D01*X7236Y28097D01*X6958Y28097D01*G37*
G36*
X7375Y27958D02*G01*
X8347Y27958D01*X8347Y28097D01*X7375Y28097D01*G37*
G36*
X4041Y27819D02*G01*
X4319Y27819D01*X4319Y27958D01*X4041Y27958D01*G37*
G36*
X4458Y27819D02*G01*
X4875Y27819D01*X4875Y27958D01*X4458Y27958D01*G37*
G36*
X5708Y27819D02*G01*
X5986Y27819D01*X5986Y27958D01*X5708Y27958D01*G37*
G36*
X6541Y27819D02*G01*
X6819Y27819D01*X6819Y27958D01*X6541Y27958D01*G37*
G36*
X2930Y27680D02*G01*
X3347Y27680D01*X3347Y27819D01*X2930Y27819D01*G37*
G36*
X4180Y27680D02*G01*
X4458Y27680D01*X4458Y27819D01*X4180Y27819D01*G37*
G36*
X5986Y27680D02*G01*
X6263Y27680D01*X6263Y27819D01*X5986Y27819D01*G37*
G36*
X7652Y27680D02*G01*
X8069Y27680D01*X8069Y27819D01*X7652Y27819D01*G37*
G36*
X2930Y27541D02*G01*
X3347Y27541D01*X3347Y27680D01*X2930Y27680D01*G37*
G36*
X4041Y27541D02*G01*
X4458Y27541D01*X4458Y27680D01*X4041Y27680D01*G37*
G36*
X5986Y27541D02*G01*
X6541Y27541D01*X6541Y27680D01*X5986Y27680D01*G37*
G36*
X7652Y27541D02*G01*
X8069Y27541D01*X8069Y27680D01*X7652Y27680D01*G37*
G36*
X2930Y27402D02*G01*
X3347Y27402D01*X3347Y27541D01*X2930Y27541D01*G37*
G36*
X3902Y27402D02*G01*
X4180Y27402D01*X4180Y27541D01*X3902Y27541D01*G37*
G36*
X4597Y27402D02*G01*
X4875Y27402D01*X4875Y27541D01*X4597Y27541D01*G37*
G36*
X5569Y27402D02*G01*
X5847Y27402D01*X5847Y27541D01*X5569Y27541D01*G37*
G36*
X6263Y27402D02*G01*
X6541Y27402D01*X6541Y27541D01*X6263Y27541D01*G37*
G36*
X6680Y27402D02*G01*
X7097Y27402D01*X7097Y27541D01*X6680Y27541D01*G37*
G36*
X7652Y27402D02*G01*
X8069Y27402D01*X8069Y27541D01*X7652Y27541D01*G37*
G36*
X4180Y27263D02*G01*
X4597Y27263D01*X4597Y27402D01*X4180Y27402D01*G37*
G36*
X6680Y27263D02*G01*
X7236Y27263D01*X7236Y27402D01*X6680Y27402D01*G37*
G36*
X2652Y27125D02*G01*
X3625Y27125D01*X3625Y27263D01*X2652Y27263D01*G37*
G36*
X7375Y27125D02*G01*
X8347Y27125D01*X8347Y27263D01*X7375Y27263D01*G37*
G36*
X3763Y26986D02*G01*
X4319Y26986D01*X4319Y27125D01*X3763Y27125D01*G37*
G36*
X4736Y26986D02*G01*
X5152Y26986D01*X5152Y27125D01*X4736Y27125D01*G37*
G36*
X6263Y26986D02*G01*
X6541Y26986D01*X6541Y27125D01*X6263Y27125D01*G37*
G36*
X6680Y26986D02*G01*
X7236Y26986D01*X7236Y27125D01*X6680Y27125D01*G37*
G36*
X2930Y26847D02*G01*
X3208Y26847D01*X3208Y26986D01*X2930Y26986D01*G37*
G36*
X3347Y26847D02*G01*
X3763Y26847D01*X3763Y26986D01*X3347Y26986D01*G37*
G36*
X3902Y26847D02*G01*
X4319Y26847D01*X4319Y26986D01*X3902Y26986D01*G37*
G36*
X4597Y26847D02*G01*
X5291Y26847D01*X5291Y26986D01*X4597Y26986D01*G37*
G36*
X5430Y26847D02*G01*
X5708Y26847D01*X5708Y26986D01*X5430Y26986D01*G37*
G36*
X6541Y26847D02*G01*
X7097Y26847D01*X7097Y26986D01*X6541Y26986D01*G37*
G36*
X8069Y26847D02*G01*
X8347Y26847D01*X8347Y26986D01*X8069Y26986D01*G37*
G36*
X5152Y26708D02*G01*
X5569Y26708D01*X5569Y26847D01*X5152Y26847D01*G37*
G36*
X5708Y26708D02*G01*
X6263Y26708D01*X6263Y26847D01*X5708Y26847D01*G37*
G36*
X6819Y26708D02*G01*
X7513Y26708D01*X7513Y26847D01*X6819Y26847D01*G37*
G36*
X7930Y26708D02*G01*
X8347Y26708D01*X8347Y26847D01*X7930Y26847D01*G37*
G36*
X2930Y26569D02*G01*
X3208Y26569D01*X3208Y26708D01*X2930Y26708D01*G37*
G36*
X3486Y26569D02*G01*
X3902Y26569D01*X3902Y26708D01*X3486Y26708D01*G37*
G36*
X4875Y26569D02*G01*
X5291Y26569D01*X5291Y26708D01*X4875Y26708D01*G37*
G36*
X5430Y26569D02*G01*
X6125Y26569D01*X6125Y26708D01*X5430Y26708D01*G37*
G36*
X6541Y26569D02*G01*
X6819Y26569D01*X6819Y26708D01*X6541Y26708D01*G37*
G36*
X7930Y26569D02*G01*
X8208Y26569D01*X8208Y26708D01*X7930Y26708D01*G37*
G36*
X3763Y26430D02*G01*
X4319Y26430D01*X4319Y26569D01*X3763Y26569D01*G37*
G36*
X4736Y26430D02*G01*
X5013Y26430D01*X5013Y26569D01*X4736Y26569D01*G37*
G36*
X5986Y26430D02*G01*
X6402Y26430D01*X6402Y26569D01*X5986Y26569D01*G37*
G36*
X7097Y26430D02*G01*
X7513Y26430D01*X7513Y26569D01*X7097Y26569D01*G37*
G36*
X8069Y26430D02*G01*
X8347Y26430D01*X8347Y26569D01*X8069Y26569D01*G37*
G36*
X2930Y26291D02*G01*
X3208Y26291D01*X3208Y26430D01*X2930Y26430D01*G37*
G36*
X4041Y26291D02*G01*
X4319Y26291D01*X4319Y26430D01*X4041Y26430D01*G37*
G36*
X4875Y26291D02*G01*
X5152Y26291D01*X5152Y26430D01*X4875Y26430D01*G37*
G36*
X5847Y26291D02*G01*
X6541Y26291D01*X6541Y26430D01*X5847Y26430D01*G37*
G36*
X7791Y26291D02*G01*
X8069Y26291D01*X8069Y26430D01*X7791Y26430D01*G37*
G36*
X2652Y26152D02*G01*
X3486Y26152D01*X3486Y26291D01*X2652Y26291D01*G37*
G36*
X3763Y26152D02*G01*
X4180Y26152D01*X4180Y26291D01*X3763Y26291D01*G37*
G36*
X4875Y26152D02*G01*
X5291Y26152D01*X5291Y26291D01*X4875Y26291D01*G37*
G36*
X5986Y26152D02*G01*
X7097Y26152D01*X7097Y26291D01*X5986Y26291D01*G37*
G36*
X7236Y26152D02*G01*
X7513Y26152D01*X7513Y26291D01*X7236Y26291D01*G37*
G36*
X3347Y26013D02*G01*
X4041Y26013D01*X4041Y26152D01*X3347Y26152D01*G37*
G36*
X4180Y26013D02*G01*
X4736Y26013D01*X4736Y26152D01*X4180Y26152D01*G37*
G36*
X5152Y26013D02*G01*
X5430Y26013D01*X5430Y26152D01*X5152Y26152D01*G37*
G36*
X6125Y26013D02*G01*
X6402Y26013D01*X6402Y26152D01*X6125Y26152D01*G37*
G36*
X6819Y26013D02*G01*
X7236Y26013D01*X7236Y26152D01*X6819Y26152D01*G37*
G36*
X7375Y26013D02*G01*
X7652Y26013D01*X7652Y26152D01*X7375Y26152D01*G37*
G36*
X8069Y26013D02*G01*
X8347Y26013D01*X8347Y26152D01*X8069Y26152D01*G37*
G36*
X2791Y25875D02*G01*
X3208Y25875D01*X3208Y26013D01*X2791Y26013D01*G37*
G36*
X3625Y25875D02*G01*
X4180Y25875D01*X4180Y26013D01*X3625Y26013D01*G37*
G36*
X4597Y25875D02*G01*
X5013Y25875D01*X5013Y26013D01*X4597Y26013D01*G37*
G36*
X5569Y25875D02*G01*
X6125Y25875D01*X6125Y26013D01*X5569Y26013D01*G37*
G36*
X6263Y25875D02*G01*
X6680Y25875D01*X6680Y26013D01*X6263Y26013D01*G37*
G36*
X6819Y25875D02*G01*
X7097Y25875D01*X7097Y26013D01*X6819Y26013D01*G37*
G36*
X7652Y25875D02*G01*
X7930Y25875D01*X7930Y26013D01*X7652Y26013D01*G37*
G36*
X3347Y25736D02*G01*
X3625Y25736D01*X3625Y25875D01*X3347Y25875D01*G37*
G36*
X3763Y25736D02*G01*
X4041Y25736D01*X4041Y25875D01*X3763Y25875D01*G37*
G36*
X4180Y25736D02*G01*
X4597Y25736D01*X4597Y25875D01*X4180Y25875D01*G37*
G36*
X4736Y25736D02*G01*
X5013Y25736D01*X5013Y25875D01*X4736Y25875D01*G37*
G36*
X5569Y25736D02*G01*
X6263Y25736D01*X6263Y25875D01*X5569Y25875D01*G37*
G36*
X8069Y25736D02*G01*
X8347Y25736D01*X8347Y25875D01*X8069Y25875D01*G37*
G36*
X4319Y25597D02*G01*
X4597Y25597D01*X4597Y25736D01*X4319Y25736D01*G37*
G36*
X5847Y25597D02*G01*
X6125Y25597D01*X6125Y25736D01*X5847Y25736D01*G37*
G36*
X7097Y25597D02*G01*
X7375Y25597D01*X7375Y25736D01*X7097Y25736D01*G37*
G36*
X3763Y25458D02*G01*
X4180Y25458D01*X4180Y25597D01*X3763Y25597D01*G37*
G36*
X4736Y25458D02*G01*
X5013Y25458D01*X5013Y25597D01*X4736Y25597D01*G37*
G36*
X6680Y25458D02*G01*
X6958Y25458D01*X6958Y25597D01*X6680Y25597D01*G37*
G36*
X7097Y25458D02*G01*
X7375Y25458D01*X7375Y25597D01*X7097Y25597D01*G37*
G36*
X7652Y25458D02*G01*
X7930Y25458D01*X7930Y25597D01*X7652Y25597D01*G37*
G36*
X2930Y25319D02*G01*
X3208Y25319D01*X3208Y25458D01*X2930Y25458D01*G37*
G36*
X5013Y25319D02*G01*
X5291Y25319D01*X5291Y25458D01*X5013Y25458D01*G37*
G36*
X6541Y25319D02*G01*
X6819Y25319D01*X6819Y25458D01*X6541Y25458D01*G37*
G36*
X7375Y25319D02*G01*
X7652Y25319D01*X7652Y25458D01*X7375Y25458D01*G37*
G36*
X7791Y25319D02*G01*
X8347Y25319D01*X8347Y25458D01*X7791Y25458D01*G37*
G36*
X2652Y25180D02*G01*
X2930Y25180D01*X2930Y25319D01*X2652Y25319D01*G37*
G36*
X3069Y25180D02*G01*
X3347Y25180D01*X3347Y25319D01*X3069Y25319D01*G37*
G36*
X3486Y25180D02*G01*
X4041Y25180D01*X4041Y25319D01*X3486Y25319D01*G37*
G36*
X5569Y25180D02*G01*
X6125Y25180D01*X6125Y25319D01*X5569Y25319D01*G37*
G36*
X6263Y25180D02*G01*
X6541Y25180D01*X6541Y25319D01*X6263Y25319D01*G37*
G36*
X6680Y25180D02*G01*
X7097Y25180D01*X7097Y25319D01*X6680Y25319D01*G37*
G36*
X7236Y25180D02*G01*
X7513Y25180D01*X7513Y25319D01*X7236Y25319D01*G37*
G36*
X7930Y25180D02*G01*
X8208Y25180D01*X8208Y25319D01*X7930Y25319D01*G37*
G36*
X2652Y25041D02*G01*
X2930Y25041D01*X2930Y25180D01*X2652Y25180D01*G37*
G36*
X3208Y25041D02*G01*
X3486Y25041D01*X3486Y25180D01*X3208Y25180D01*G37*
G36*
X4041Y25041D02*G01*
X4597Y25041D01*X4597Y25180D01*X4041Y25180D01*G37*
G36*
X5291Y25041D02*G01*
X5708Y25041D01*X5708Y25180D01*X5291Y25180D01*G37*
G36*
X6541Y25041D02*G01*
X6819Y25041D01*X6819Y25180D01*X6541Y25180D01*G37*
G36*
X6958Y25041D02*G01*
X7791Y25041D01*X7791Y25180D01*X6958Y25180D01*G37*
G36*
X8069Y25041D02*G01*
X8347Y25041D01*X8347Y25180D01*X8069Y25180D01*G37*
G36*
X3069Y24902D02*G01*
X3347Y24902D01*X3347Y25041D01*X3069Y25041D01*G37*
G36*
X4180Y24902D02*G01*
X4597Y24902D01*X4597Y25041D01*X4180Y25041D01*G37*
G36*
X5013Y24902D02*G01*
X5291Y24902D01*X5291Y25041D01*X5013Y25041D01*G37*
G36*
X5847Y24902D02*G01*
X6263Y24902D01*X6263Y25041D01*X5847Y25041D01*G37*
G36*
X6541Y24902D02*G01*
X6819Y24902D01*X6819Y25041D01*X6541Y25041D01*G37*
G36*
X7236Y24902D02*G01*
X7652Y24902D01*X7652Y25041D01*X7236Y25041D01*G37*
G36*
X7791Y24902D02*G01*
X8208Y24902D01*X8208Y25041D01*X7791Y25041D01*G37*
G36*
X5708Y24763D02*G01*
X5986Y24763D01*X5986Y24902D01*X5708Y24902D01*G37*
G36*
X7097Y24763D02*G01*
X7652Y24763D01*X7652Y24902D01*X7097Y24902D01*G37*
G36*
X2791Y24625D02*G01*
X3069Y24625D01*X3069Y24763D01*X2791Y24763D01*G37*
G36*
X4319Y24625D02*G01*
X4597Y24625D01*X4597Y24763D01*X4319Y24763D01*G37*
G36*
X5291Y24625D02*G01*
X5569Y24625D01*X5569Y24763D01*X5291Y24763D01*G37*
G36*
X5986Y24625D02*G01*
X6819Y24625D01*X6819Y24763D01*X5986Y24763D01*G37*
G36*
X7791Y24625D02*G01*
X8069Y24625D01*X8069Y24763D01*X7791Y24763D01*G37*
G36*
X2652Y24486D02*G01*
X2930Y24486D01*X2930Y24625D01*X2652Y24625D01*G37*
G36*
X4736Y24486D02*G01*
X5152Y24486D01*X5152Y24625D01*X4736Y24625D01*G37*
G36*
X5986Y24486D02*G01*
X7236Y24486D01*X7236Y24625D01*X5986Y24625D01*G37*
G36*
X7791Y24486D02*G01*
X8069Y24486D01*X8069Y24625D01*X7791Y24625D01*G37*
G36*
X3486Y24347D02*G01*
X3902Y24347D01*X3902Y24486D01*X3486Y24486D01*G37*
G36*
X4875Y24347D02*G01*
X5152Y24347D01*X5152Y24486D01*X4875Y24486D01*G37*
G36*
X5291Y24347D02*G01*
X5569Y24347D01*X5569Y24486D01*X5291Y24486D01*G37*
G36*
X5986Y24347D02*G01*
X6402Y24347D01*X6402Y24486D01*X5986Y24486D01*G37*
G36*
X6541Y24347D02*G01*
X6819Y24347D01*X6819Y24486D01*X6541Y24486D01*G37*
G36*
X6958Y24347D02*G01*
X7236Y24347D01*X7236Y24486D01*X6958Y24486D01*G37*
G36*
X7652Y24347D02*G01*
X7930Y24347D01*X7930Y24486D01*X7652Y24486D01*G37*
G36*
X8069Y24347D02*G01*
X8347Y24347D01*X8347Y24486D01*X8069Y24486D01*G37*
G36*
X4458Y24208D02*G01*
X4736Y24208D01*X4736Y24347D01*X4458Y24347D01*G37*
G36*
X5430Y24208D02*G01*
X5986Y24208D01*X5986Y24347D01*X5430Y24347D01*G37*
G36*
X6263Y24208D02*G01*
X6541Y24208D01*X6541Y24347D01*X6263Y24347D01*G37*
G36*
X6819Y24208D02*G01*
X7513Y24208D01*X7513Y24347D01*X6819Y24347D01*G37*
G36*
X7652Y24208D02*G01*
X7930Y24208D01*X7930Y24347D01*X7652Y24347D01*G37*
G36*
X2652Y24069D02*G01*
X2930Y24069D01*X2930Y24208D01*X2652Y24208D01*G37*
G36*
X3902Y24069D02*G01*
X4319Y24069D01*X4319Y24208D01*X3902Y24208D01*G37*
G36*
X4736Y24069D02*G01*
X5013Y24069D01*X5013Y24208D01*X4736Y24208D01*G37*
G36*
X5430Y24069D02*G01*
X5847Y24069D01*X5847Y24208D01*X5430Y24208D01*G37*
G36*
X5986Y24069D02*G01*
X6263Y24069D01*X6263Y24208D01*X5986Y24208D01*G37*
G36*
X6819Y24069D02*G01*
X7236Y24069D01*X7236Y24208D01*X6819Y24208D01*G37*
G36*
X7513Y24069D02*G01*
X7930Y24069D01*X7930Y24208D01*X7513Y24208D01*G37*
G36*
X8069Y24069D02*G01*
X8347Y24069D01*X8347Y24208D01*X8069Y24208D01*G37*
G36*
X3208Y23930D02*G01*
X3486Y23930D01*X3486Y24069D01*X3208Y24069D01*G37*
G36*
X4041Y23930D02*G01*
X4736Y23930D01*X4736Y24069D01*X4041Y24069D01*G37*
G36*
X5708Y23930D02*G01*
X6125Y23930D01*X6125Y24069D01*X5708Y24069D01*G37*
G36*
X6402Y23930D02*G01*
X6680Y23930D01*X6680Y24069D01*X6402Y24069D01*G37*
G36*
X7791Y23930D02*G01*
X8069Y23930D01*X8069Y24069D01*X7791Y24069D01*G37*
G36*
X3763Y23791D02*G01*
X4041Y23791D01*X4041Y23930D01*X3763Y23930D01*G37*
G36*
X4458Y23791D02*G01*
X4736Y23791D01*X4736Y23930D01*X4458Y23930D01*G37*
G36*
X5986Y23791D02*G01*
X6958Y23791D01*X6958Y23930D01*X5986Y23930D01*G37*
G36*
X7097Y23791D02*G01*
X7513Y23791D01*X7513Y23930D01*X7097Y23930D01*G37*
G36*
X2930Y23652D02*G01*
X3208Y23652D01*X3208Y23791D01*X2930Y23791D01*G37*
G36*
X3902Y23652D02*G01*
X4180Y23652D01*X4180Y23791D01*X3902Y23791D01*G37*
G36*
X4597Y23652D02*G01*
X5569Y23652D01*X5569Y23791D01*X4597Y23791D01*G37*
G36*
X5708Y23652D02*G01*
X6125Y23652D01*X6125Y23791D01*X5708Y23791D01*G37*
G36*
X6541Y23652D02*G01*
X6819Y23652D01*X6819Y23791D01*X6541Y23791D01*G37*
G36*
X7652Y23652D02*G01*
X8347Y23652D01*X8347Y23791D01*X7652Y23791D01*G37*
G36*
X2791Y23513D02*G01*
X3208Y23513D01*X3208Y23652D01*X2791Y23652D01*G37*
G36*
X3347Y23513D02*G01*
X3625Y23513D01*X3625Y23652D01*X3347Y23652D01*G37*
G36*
X4319Y23513D02*G01*
X4597Y23513D01*X4597Y23652D01*X4319Y23652D01*G37*
G36*
X5291Y23513D02*G01*
X5847Y23513D01*X5847Y23652D01*X5291Y23652D01*G37*
G36*
X6541Y23513D02*G01*
X6958Y23513D01*X6958Y23652D01*X6541Y23652D01*G37*
G36*
X7097Y23513D02*G01*
X8208Y23513D01*X8208Y23652D01*X7097Y23652D01*G37*
G36*
X4041Y23375D02*G01*
X4319Y23375D01*X4319Y23513D01*X4041Y23513D01*G37*
G36*
X4875Y23375D02*G01*
X5569Y23375D01*X5569Y23513D01*X4875Y23513D01*G37*
G36*
X7652Y23375D02*G01*
X7930Y23375D01*X7930Y23513D01*X7652Y23513D01*G37*
G36*
X8069Y23375D02*G01*
X8347Y23375D01*X8347Y23513D01*X8069Y23513D01*G37*
G36*
X2652Y23236D02*G01*
X3625Y23236D01*X3625Y23375D01*X2652Y23375D01*G37*
G36*
X4736Y23236D02*G01*
X5013Y23236D01*X5013Y23375D01*X4736Y23375D01*G37*
G36*
X5708Y23236D02*G01*
X6125Y23236D01*X6125Y23375D01*X5708Y23375D01*G37*
G36*
X6541Y23236D02*G01*
X7236Y23236D01*X7236Y23375D01*X6541Y23375D01*G37*
G36*
X7652Y23236D02*G01*
X8208Y23236D01*X8208Y23375D01*X7652Y23375D01*G37*
G36*
X3763Y23097D02*G01*
X4041Y23097D01*X4041Y23236D01*X3763Y23236D01*G37*
G36*
X8069Y23097D02*G01*
X8347Y23097D01*X8347Y23236D01*X8069Y23236D01*G37*
G36*
X2930Y22958D02*G01*
X3347Y22958D01*X3347Y23097D01*X2930Y23097D01*G37*
G36*
X5986Y22958D02*G01*
X6541Y22958D01*X6541Y23097D01*X5986Y23097D01*G37*
G36*
X7097Y22958D02*G01*
X8069Y22958D01*X8069Y23097D01*X7097Y23097D01*G37*
G36*
X2930Y22819D02*G01*
X3347Y22819D01*X3347Y22958D01*X2930Y22958D01*G37*
G36*
X3763Y22819D02*G01*
X4041Y22819D01*X4041Y22958D01*X3763Y22958D01*G37*
G36*
X5569Y22819D02*G01*
X5847Y22819D01*X5847Y22958D01*X5569Y22958D01*G37*
G36*
X6402Y22819D02*G01*
X6819Y22819D01*X6819Y22958D01*X6402Y22958D01*G37*
G36*
X2930Y22680D02*G01*
X3347Y22680D01*X3347Y22819D01*X2930Y22819D01*G37*
G36*
X3763Y22680D02*G01*
X4180Y22680D01*X4180Y22819D01*X3763Y22819D01*G37*
G36*
X4875Y22680D02*G01*
X5152Y22680D01*X5152Y22819D01*X4875Y22819D01*G37*
G36*
X5291Y22680D02*G01*
X5569Y22680D01*X5569Y22819D01*X5291Y22819D01*G37*
G36*
X6819Y22680D02*G01*
X7097Y22680D01*X7097Y22819D01*X6819Y22819D01*G37*
G36*
X7930Y22680D02*G01*
X8347Y22680D01*X8347Y22819D01*X7930Y22819D01*G37*
G36*
X4458Y22541D02*G01*
X4875Y22541D01*X4875Y22680D01*X4458Y22680D01*G37*
G36*
X5152Y22541D02*G01*
X5430Y22541D01*X5430Y22680D01*X5152Y22680D01*G37*
G36*
X5569Y22541D02*G01*
X5847Y22541D01*X5847Y22680D01*X5569Y22680D01*G37*
G36*
X6263Y22541D02*G01*
X6680Y22541D01*X6680Y22680D01*X6263Y22680D01*G37*
G36*
X7652Y22541D02*G01*
X7930Y22541D01*X7930Y22680D01*X7652Y22680D01*G37*
G36*
X2652Y22402D02*G01*
X3625Y22402D01*X3625Y22541D01*X2652Y22541D01*G37*
G36*
X5430Y22402D02*G01*
X5847Y22402D01*X5847Y22541D01*X5430Y22541D01*G37*
G36*
X7097Y22402D02*G01*
X7513Y22402D01*X7513Y22541D01*X7097Y22541D01*G37*
G36*
X2652Y22541D02*G01*
X2791Y22541D01*X2791Y23236D01*X2652Y23236D01*G37*
G36*
X2652Y23791D02*G01*
X2791Y23791D01*X2791Y23930D01*X2652Y23930D01*G37*
G36*
X2652Y24347D02*G01*
X2791Y24347D01*X2791Y24486D01*X2652Y24486D01*G37*
G36*
X2652Y25319D02*G01*
X2791Y25319D01*X2791Y25875D01*X2652Y25875D01*G37*
G36*
X2652Y26291D02*G01*
X2791Y26291D01*X2791Y26430D01*X2652Y26430D01*G37*
G36*
X2652Y26569D02*G01*
X2791Y26569D01*X2791Y26986D01*X2652Y26986D01*G37*
G36*
X2652Y27263D02*G01*
X2791Y27263D01*X2791Y27958D01*X2652Y27958D01*G37*
G36*
X2791Y24208D02*G01*
X2930Y24208D01*X2930Y24347D01*X2791Y24347D01*G37*
G36*
X2791Y24763D02*G01*
X2930Y24763D01*X2930Y25041D01*X2791Y25041D01*G37*
G36*
X2930Y23791D02*G01*
X3069Y23791D01*X3069Y24069D01*X2930Y24069D01*G37*
G36*
X2930Y24347D02*G01*
X3069Y24347D01*X3069Y24486D01*X2930Y24486D01*G37*
G36*
X3069Y24208D02*G01*
X3208Y24208D01*X3208Y24347D01*X3069Y24347D01*G37*
G36*
X3069Y26013D02*G01*
X3208Y26013D01*X3208Y26152D01*X3069Y26152D01*G37*
G36*
X3069Y26430D02*G01*
X3208Y26430D01*X3208Y26569D01*X3069Y26569D01*G37*
G36*
X3069Y26708D02*G01*
X3208Y26708D01*X3208Y26847D01*X3069Y26847D01*G37*
G36*
X3208Y24625D02*G01*
X3347Y24625D01*X3347Y24902D01*X3208Y24902D01*G37*
G36*
X3208Y25458D02*G01*
X3347Y25458D01*X3347Y25736D01*X3208Y25736D01*G37*
G36*
X3347Y23652D02*G01*
X3486Y23652D01*X3486Y23791D01*X3347Y23791D01*G37*
G36*
X3347Y25319D02*G01*
X3486Y25319D01*X3486Y25458D01*X3347Y25458D01*G37*
G36*
X3347Y26708D02*G01*
X3486Y26708D01*X3486Y26847D01*X3347Y26847D01*G37*
G36*
X3486Y22541D02*G01*
X3625Y22541D01*X3625Y23236D01*X3486Y23236D01*G37*
G36*
X3486Y23791D02*G01*
X3625Y23791D01*X3625Y23930D01*X3486Y23930D01*G37*
G36*
X3486Y24069D02*G01*
X3625Y24069D01*X3625Y24208D01*X3486Y24208D01*G37*
G36*
X3486Y24625D02*G01*
X3625Y24625D01*X3625Y24763D01*X3486Y24763D01*G37*
G36*
X3486Y24902D02*G01*
X3625Y24902D01*X3625Y25041D01*X3486Y25041D01*G37*
G36*
X3486Y25458D02*G01*
X3625Y25458D01*X3625Y25597D01*X3486Y25597D01*G37*
G36*
X3486Y26291D02*G01*
X3625Y26291D01*X3625Y26430D01*X3486Y26430D01*G37*
G36*
X3486Y27263D02*G01*
X3625Y27263D01*X3625Y27958D01*X3486Y27958D01*G37*
G36*
X3625Y26708D02*G01*
X3763Y26708D01*X3763Y26847D01*X3625Y26847D01*G37*
G36*
X3763Y22402D02*G01*
X3902Y22402D01*X3902Y22541D01*X3763Y22541D01*G37*
G36*
X3763Y23236D02*G01*
X3902Y23236D01*X3902Y23513D01*X3763Y23513D01*G37*
G36*
X3763Y24208D02*G01*
X3902Y24208D01*X3902Y24347D01*X3763Y24347D01*G37*
G36*
X3763Y24486D02*G01*
X3902Y24486D01*X3902Y24625D01*X3763Y24625D01*G37*
G36*
X3763Y24763D02*G01*
X3902Y24763D01*X3902Y24902D01*X3763Y24902D01*G37*
G36*
X3763Y25041D02*G01*
X3902Y25041D01*X3902Y25180D01*X3763Y25180D01*G37*
G36*
X3763Y26291D02*G01*
X3902Y26291D01*X3902Y26430D01*X3763Y26430D01*G37*
G36*
X3763Y27125D02*G01*
X3902Y27125D01*X3902Y27263D01*X3763Y27263D01*G37*
G36*
X3763Y27541D02*G01*
X3902Y27541D01*X3902Y27680D01*X3763Y27680D01*G37*
G36*
X3763Y27819D02*G01*
X3902Y27819D01*X3902Y27958D01*X3763Y27958D01*G37*
G36*
X3902Y22958D02*G01*
X4041Y22958D01*X4041Y23097D01*X3902Y23097D01*G37*
G36*
X3902Y23513D02*G01*
X4041Y23513D01*X4041Y23652D01*X3902Y23652D01*G37*
G36*
X3902Y24902D02*G01*
X4041Y24902D01*X4041Y25041D01*X3902Y25041D01*G37*
G36*
X3902Y25319D02*G01*
X4041Y25319D01*X4041Y25458D01*X3902Y25458D01*G37*
G36*
X3902Y27680D02*G01*
X4041Y27680D01*X4041Y27819D01*X3902Y27819D01*G37*
G36*
X4041Y22402D02*G01*
X4180Y22402D01*X4180Y22680D01*X4041Y22680D01*G37*
G36*
X4041Y23236D02*G01*
X4180Y23236D01*X4180Y23375D01*X4041Y23375D01*G37*
G36*
X4041Y24208D02*G01*
X4180Y24208D01*X4180Y24347D01*X4041Y24347D01*G37*
G36*
X4041Y24486D02*G01*
X4180Y24486D01*X4180Y24625D01*X4041Y24625D01*G37*
G36*
X4041Y24763D02*G01*
X4180Y24763D01*X4180Y24902D01*X4041Y24902D01*G37*
G36*
X4041Y26569D02*G01*
X4180Y26569D01*X4180Y26708D01*X4041Y26708D01*G37*
G36*
X4041Y27125D02*G01*
X4180Y27125D01*X4180Y27263D01*X4041Y27263D01*G37*
G36*
X4180Y23791D02*G01*
X4319Y23791D01*X4319Y23930D01*X4180Y23930D01*G37*
G36*
X4180Y25319D02*G01*
X4319Y25319D01*X4319Y25458D01*X4180Y25458D01*G37*
G36*
X4319Y22402D02*G01*
X4458Y22402D01*X4458Y22541D01*X4319Y22541D01*G37*
G36*
X4319Y22680D02*G01*
X4458Y22680D01*X4458Y22819D01*X4319Y22819D01*G37*
G36*
X4319Y22958D02*G01*
X4458Y22958D01*X4458Y23097D01*X4319Y23097D01*G37*
G36*
X4319Y23236D02*G01*
X4458Y23236D01*X4458Y23375D01*X4319Y23375D01*G37*
G36*
X4319Y23652D02*G01*
X4458Y23652D01*X4458Y23791D01*X4319Y23791D01*G37*
G36*
X4319Y24486D02*G01*
X4458Y24486D01*X4458Y24625D01*X4319Y24625D01*G37*
G36*
X4319Y25458D02*G01*
X4458Y25458D01*X4458Y25597D01*X4319Y25597D01*G37*
G36*
X4319Y26152D02*G01*
X4458Y26152D01*X4458Y26291D01*X4319Y26291D01*G37*
G36*
X4319Y26569D02*G01*
X4458Y26569D01*X4458Y26847D01*X4319Y26847D01*G37*
G36*
X4319Y27125D02*G01*
X4458Y27125D01*X4458Y27263D01*X4319Y27263D01*G37*
G36*
X4319Y27402D02*G01*
X4458Y27402D01*X4458Y27541D01*X4319Y27541D01*G37*
G36*
X4458Y25180D02*G01*
X4597Y25180D01*X4597Y25458D01*X4458Y25458D01*G37*
G36*
X4458Y26430D02*G01*
X4597Y26430D01*X4597Y26569D01*X4458Y26569D01*G37*
G36*
X4597Y22819D02*G01*
X4736Y22819D01*X4736Y22958D01*X4597Y22958D01*G37*
G36*
X4597Y24763D02*G01*
X4736Y24763D01*X4736Y24902D01*X4597Y24902D01*G37*
G36*
X4597Y26152D02*G01*
X4736Y26152D01*X4736Y26430D01*X4597Y26430D01*G37*
G36*
X4597Y26569D02*G01*
X4736Y26569D01*X4736Y26708D01*X4597Y26708D01*G37*
G36*
X4597Y27125D02*G01*
X4736Y27125D01*X4736Y27263D01*X4597Y27263D01*G37*
G36*
X4597Y27541D02*G01*
X4736Y27541D01*X4736Y27680D01*X4597Y27680D01*G37*
G36*
X4736Y23513D02*G01*
X4875Y23513D01*X4875Y23652D01*X4736Y23652D01*G37*
G36*
X4736Y24625D02*G01*
X4875Y24625D01*X4875Y24763D01*X4736Y24763D01*G37*
G36*
X4736Y25041D02*G01*
X4875Y25041D01*X4875Y25180D01*X4736Y25180D01*G37*
G36*
X4736Y25319D02*G01*
X4875Y25319D01*X4875Y25458D01*X4736Y25458D01*G37*
G36*
X4736Y25597D02*G01*
X4875Y25597D01*X4875Y25736D01*X4736Y25736D01*G37*
G36*
X4736Y27680D02*G01*
X4875Y27680D01*X4875Y27819D01*X4736Y27819D01*G37*
G36*
X4875Y22402D02*G01*
X5013Y22402D01*X5013Y22541D01*X4875Y22541D01*G37*
G36*
X4875Y23791D02*G01*
X5013Y23791D01*X5013Y24069D01*X4875Y24069D01*G37*
G36*
X4875Y24763D02*G01*
X5013Y24763D01*X5013Y24902D01*X4875Y24902D01*G37*
G36*
X4875Y25180D02*G01*
X5013Y25180D01*X5013Y25319D01*X4875Y25319D01*G37*
G36*
X4875Y26708D02*G01*
X5013Y26708D01*X5013Y26847D01*X4875Y26847D01*G37*
G36*
X4875Y27125D02*G01*
X5013Y27125D01*X5013Y27263D01*X4875Y27263D01*G37*
G36*
X4875Y27541D02*G01*
X5013Y27541D01*X5013Y27680D01*X4875Y27680D01*G37*
G36*
X5013Y22819D02*G01*
X5152Y22819D01*X5152Y22958D01*X5013Y22958D01*G37*
G36*
X5013Y23097D02*G01*
X5152Y23097D01*X5152Y23236D01*X5013Y23236D01*G37*
G36*
X5013Y23513D02*G01*
X5152Y23513D01*X5152Y23652D01*X5013Y23652D01*G37*
G36*
X5013Y24625D02*G01*
X5152Y24625D01*X5152Y24763D01*X5013Y24763D01*G37*
G36*
X5013Y27263D02*G01*
X5152Y27263D01*X5152Y27541D01*X5013Y27541D01*G37*
G36*
X5013Y27680D02*G01*
X5152Y27680D01*X5152Y27819D01*X5013Y27819D01*G37*
G36*
X5152Y22402D02*G01*
X5291Y22402D01*X5291Y22541D01*X5152Y22541D01*G37*
G36*
X5152Y23236D02*G01*
X5291Y23236D01*X5291Y23375D01*X5152Y23375D01*G37*
G36*
X5152Y24069D02*G01*
X5291Y24069D01*X5291Y24347D01*X5152Y24347D01*G37*
G36*
X5152Y24763D02*G01*
X5291Y24763D01*X5291Y24902D01*X5152Y24902D01*G37*
G36*
X5152Y25458D02*G01*
X5291Y25458D01*X5291Y25597D01*X5152Y25597D01*G37*
G36*
X5152Y25736D02*G01*
X5291Y25736D01*X5291Y25875D01*X5152Y25875D01*G37*
G36*
X5152Y27125D02*G01*
X5291Y27125D01*X5291Y27263D01*X5152Y27263D01*G37*
G36*
X5152Y27819D02*G01*
X5291Y27819D01*X5291Y27958D01*X5152Y27958D01*G37*
G36*
X5291Y22819D02*G01*
X5430Y22819D01*X5430Y23097D01*X5291Y23097D01*G37*
G36*
X5291Y24486D02*G01*
X5430Y24486D01*X5430Y24625D01*X5291Y24625D01*G37*
G36*
X5291Y25180D02*G01*
X5430Y25180D01*X5430Y25319D01*X5291Y25319D01*G37*
G36*
X5291Y25875D02*G01*
X5430Y25875D01*X5430Y26013D01*X5291Y26013D01*G37*
G36*
X5291Y26986D02*G01*
X5430Y26986D01*X5430Y27125D01*X5291Y27125D01*G37*
G36*
X5291Y27263D02*G01*
X5430Y27263D01*X5430Y27541D01*X5291Y27541D01*G37*
G36*
X5430Y23097D02*G01*
X5569Y23097D01*X5569Y23236D01*X5430Y23236D01*G37*
G36*
X5430Y23930D02*G01*
X5569Y23930D01*X5569Y24069D01*X5430Y24069D01*G37*
G36*
X5430Y24763D02*G01*
X5569Y24763D01*X5569Y24902D01*X5430Y24902D01*G37*
G36*
X5430Y25597D02*G01*
X5569Y25597D01*X5569Y25736D01*X5430Y25736D01*G37*
G36*
X5430Y26152D02*G01*
X5569Y26152D01*X5569Y26291D01*X5430Y26291D01*G37*
G36*
X5430Y27125D02*G01*
X5569Y27125D01*X5569Y27263D01*X5430Y27263D01*G37*
G36*
X5430Y27541D02*G01*
X5569Y27541D01*X5569Y27680D01*X5430Y27680D01*G37*
G36*
X5430Y27819D02*G01*
X5569Y27819D01*X5569Y27958D01*X5430Y27958D01*G37*
G36*
X5569Y24486D02*G01*
X5708Y24486D01*X5708Y24625D01*X5569Y24625D01*G37*
G36*
X5569Y27263D02*G01*
X5708Y27263D01*X5708Y27402D01*X5569Y27402D01*G37*
G36*
X5708Y22680D02*G01*
X5847Y22680D01*X5847Y22819D01*X5708Y22819D01*G37*
G36*
X5708Y22958D02*G01*
X5847Y22958D01*X5847Y23097D01*X5708Y23097D01*G37*
G36*
X5708Y24625D02*G01*
X5847Y24625D01*X5847Y24763D01*X5708Y24763D01*G37*
G36*
X5708Y25319D02*G01*
X5847Y25319D01*X5847Y25458D01*X5708Y25458D01*G37*
G36*
X5708Y26986D02*G01*
X5847Y26986D01*X5847Y27263D01*X5708Y27263D01*G37*
G36*
X5708Y27541D02*G01*
X5847Y27541D01*X5847Y27680D01*X5708Y27680D01*G37*
G36*
X5847Y23375D02*G01*
X5986Y23375D01*X5986Y23513D01*X5847Y23513D01*G37*
G36*
X5847Y25041D02*G01*
X5986Y25041D01*X5986Y25180D01*X5847Y25180D01*G37*
G36*
X5847Y27958D02*G01*
X5986Y27958D01*X5986Y28097D01*X5847Y28097D01*G37*
G36*
X5986Y22541D02*G01*
X6125Y22541D01*X6125Y22958D01*X5986Y22958D01*G37*
G36*
X5986Y25319D02*G01*
X6125Y25319D01*X6125Y25597D01*X5986Y25597D01*G37*
G36*
X5986Y27125D02*G01*
X6125Y27125D01*X6125Y27263D01*X5986Y27263D01*G37*
G36*
X5986Y27402D02*G01*
X6125Y27402D01*X6125Y27541D01*X5986Y27541D01*G37*
G36*
X6125Y22402D02*G01*
X6263Y22402D01*X6263Y22541D01*X6125Y22541D01*G37*
G36*
X6125Y23097D02*G01*
X6263Y23097D01*X6263Y23236D01*X6125Y23236D01*G37*
G36*
X6125Y23375D02*G01*
X6263Y23375D01*X6263Y23513D01*X6125Y23513D01*G37*
G36*
X6125Y24763D02*G01*
X6263Y24763D01*X6263Y24902D01*X6125Y24902D01*G37*
G36*
X6125Y25041D02*G01*
X6263Y25041D01*X6263Y25180D01*X6125Y25180D01*G37*
G36*
X6125Y27819D02*G01*
X6263Y27819D01*X6263Y27958D01*X6125Y27958D01*G37*
G36*
X6263Y23513D02*G01*
X6402Y23513D01*X6402Y23791D01*X6263Y23791D01*G37*
G36*
X6263Y27125D02*G01*
X6402Y27125D01*X6402Y27263D01*X6263Y27263D01*G37*
G36*
X6402Y24069D02*G01*
X6541Y24069D01*X6541Y24208D01*X6402Y24208D01*G37*
G36*
X6402Y25458D02*G01*
X6541Y25458D01*X6541Y25875D01*X6402Y25875D01*G37*
G36*
X6541Y22680D02*G01*
X6680Y22680D01*X6680Y22819D01*X6541Y22819D01*G37*
G36*
X6541Y23097D02*G01*
X6680Y23097D01*X6680Y23236D01*X6541Y23236D01*G37*
G36*
X6541Y23375D02*G01*
X6680Y23375D01*X6680Y23513D01*X6541Y23513D01*G37*
G36*
X6541Y26708D02*G01*
X6680Y26708D01*X6680Y26847D01*X6541Y26847D01*G37*
G36*
X6541Y27125D02*G01*
X6680Y27125D01*X6680Y27263D01*X6541Y27263D01*G37*
G36*
X6680Y22958D02*G01*
X6819Y22958D01*X6819Y23097D01*X6680Y23097D01*G37*
G36*
X6680Y26291D02*G01*
X6819Y26291D01*X6819Y26430D01*X6680Y26430D01*G37*
G36*
X6680Y27541D02*G01*
X6819Y27541D01*X6819Y27680D01*X6680Y27680D01*G37*
G36*
X6819Y22402D02*G01*
X6958Y22402D01*X6958Y22680D01*X6819Y22680D01*G37*
G36*
X6819Y23375D02*G01*
X6958Y23375D01*X6958Y23513D01*X6819Y23513D01*G37*
G36*
X6819Y23930D02*G01*
X6958Y23930D01*X6958Y24069D01*X6819Y24069D01*G37*
G36*
X6819Y24763D02*G01*
X6958Y24763D01*X6958Y24902D01*X6819Y24902D01*G37*
G36*
X6819Y25597D02*G01*
X6958Y25597D01*X6958Y25875D01*X6819Y25875D01*G37*
G36*
X6819Y26430D02*G01*
X6958Y26430D01*X6958Y26569D01*X6819Y26569D01*G37*
G36*
X6819Y27125D02*G01*
X6958Y27125D01*X6958Y27263D01*X6819Y27263D01*G37*
G36*
X6819Y27680D02*G01*
X6958Y27680D01*X6958Y27819D01*X6819Y27819D01*G37*
G36*
X6958Y22819D02*G01*
X7097Y22819D01*X7097Y22958D01*X6958Y22958D01*G37*
G36*
X6958Y23652D02*G01*
X7097Y23652D01*X7097Y23791D01*X6958Y23791D01*G37*
G36*
X6958Y24625D02*G01*
X7097Y24625D01*X7097Y24763D01*X6958Y24763D01*G37*
G36*
X6958Y26291D02*G01*
X7097Y26291D01*X7097Y26430D01*X6958Y26430D01*G37*
G36*
X6958Y27541D02*G01*
X7097Y27541D01*X7097Y27680D01*X6958Y27680D01*G37*
G36*
X7097Y22541D02*G01*
X7236Y22541D01*X7236Y22680D01*X7097Y22680D01*G37*
G36*
X7097Y23097D02*G01*
X7236Y23097D01*X7236Y23236D01*X7097Y23236D01*G37*
G36*
X7097Y23375D02*G01*
X7236Y23375D01*X7236Y23513D01*X7097Y23513D01*G37*
G36*
X7097Y23930D02*G01*
X7236Y23930D01*X7236Y24069D01*X7097Y24069D01*G37*
G36*
X7097Y25736D02*G01*
X7236Y25736D01*X7236Y25875D01*X7097Y25875D01*G37*
G36*
X7097Y27125D02*G01*
X7236Y27125D01*X7236Y27263D01*X7097Y27263D01*G37*
G36*
X7097Y27680D02*G01*
X7236Y27680D01*X7236Y27958D01*X7097Y27958D01*G37*
G36*
X7236Y26569D02*G01*
X7375Y26569D01*X7375Y26708D01*X7236Y26708D01*G37*
G36*
X7375Y22541D02*G01*
X7513Y22541D01*X7513Y22680D01*X7375Y22680D01*G37*
G36*
X7375Y23236D02*G01*
X7513Y23236D01*X7513Y23375D01*X7375Y23375D01*G37*
G36*
X7375Y23652D02*G01*
X7513Y23652D01*X7513Y23791D01*X7375Y23791D01*G37*
G36*
X7375Y24347D02*G01*
X7513Y24347D01*X7513Y24625D01*X7375Y24625D01*G37*
G36*
X7375Y25875D02*G01*
X7513Y25875D01*X7513Y26013D01*X7375Y26013D01*G37*
G36*
X7375Y26847D02*G01*
X7513Y26847D01*X7513Y26986D01*X7375Y26986D01*G37*
G36*
X7375Y27263D02*G01*
X7513Y27263D01*X7513Y27958D01*X7375Y27958D01*G37*
G36*
X7513Y22680D02*G01*
X7652Y22680D01*X7652Y22819D01*X7513Y22819D01*G37*
G36*
X7513Y23930D02*G01*
X7652Y23930D01*X7652Y24069D01*X7513Y24069D01*G37*
G36*
X7513Y24625D02*G01*
X7652Y24625D01*X7652Y24763D01*X7513Y24763D01*G37*
G36*
X7513Y25597D02*G01*
X7652Y25597D01*X7652Y25736D01*X7513Y25736D01*G37*
G36*
X7513Y26291D02*G01*
X7652Y26291D01*X7652Y26430D01*X7513Y26430D01*G37*
G36*
X7652Y22819D02*G01*
X7791Y22819D01*X7791Y22958D01*X7652Y22958D01*G37*
G36*
X7652Y23097D02*G01*
X7791Y23097D01*X7791Y23236D01*X7652Y23236D01*G37*
G36*
X7652Y25180D02*G01*
X7791Y25180D01*X7791Y25319D01*X7652Y25319D01*G37*
G36*
X7652Y25736D02*G01*
X7791Y25736D01*X7791Y25875D01*X7652Y25875D01*G37*
G36*
X7652Y26569D02*G01*
X7791Y26569D01*X7791Y26847D01*X7652Y26847D01*G37*
G36*
X7791Y22402D02*G01*
X7930Y22402D01*X7930Y22541D01*X7791Y22541D01*G37*
G36*
X7791Y23791D02*G01*
X7930Y23791D01*X7930Y23930D01*X7791Y23930D01*G37*
G36*
X7791Y26013D02*G01*
X7930Y26013D01*X7930Y26291D01*X7791Y26291D01*G37*
G36*
X7791Y26847D02*G01*
X7930Y26847D01*X7930Y26986D01*X7791Y26986D01*G37*
G36*
X7930Y22819D02*G01*
X8069Y22819D01*X8069Y22958D01*X7930Y22958D01*G37*
G36*
X8069Y22402D02*G01*
X8208Y22402D01*X8208Y22680D01*X8069Y22680D01*G37*
G36*
X8069Y24763D02*G01*
X8208Y24763D01*X8208Y24902D01*X8069Y24902D01*G37*
G36*
X8069Y25875D02*G01*
X8208Y25875D01*X8208Y26013D01*X8069Y26013D01*G37*
G36*
X8208Y22819D02*G01*
X8347Y22819D01*X8347Y23097D01*X8208Y23097D01*G37*
G36*
X8208Y24208D02*G01*
X8347Y24208D01*X8347Y24347D01*X8208Y24347D01*G37*
G36*
X8208Y24486D02*G01*
X8347Y24486D01*X8347Y24625D01*X8208Y24625D01*G37*
G36*
X8208Y26152D02*G01*
X8347Y26152D01*X8347Y26430D01*X8208Y26430D01*G37*
G36*
X8208Y27263D02*G01*
X8347Y27263D01*X8347Y27958D01*X8208Y27958D01*G37*
G36*
X1958Y21708D02*G01*
X9041Y21708D01*X9041Y21847D01*X1958Y21847D01*G37*
G36*
X1958Y28652D02*G01*
X9041Y28652D01*X9041Y28791D01*X1958Y28791D01*G37*
G36*
X1958Y21847D02*G01*
X2097Y21847D01*X2097Y28652D01*X1958Y28652D01*G37*
G36*
X8902Y21847D02*G01*
X9041Y21847D01*X9041Y28652D01*X8902Y28652D01*G37*
M02*
