M48
INCH
T1C0.0200
T2C0.0320
T3C0.0350
T4C0.0394
T5C0.0433
T6C0.0512
T7C0.0550
T8C0.0791
T9C0.1260
T10C0.1500
%
G05
M72
T1
X1.4186Y1.2353
X2.5299Y2.3038
T2
X2.3500Y3.5000
X2.3500Y3.7000
X2.2250Y3.7000
X2.2250Y3.5000
X0.5750Y3.7500
X0.4750Y3.7500
X2.4250Y3.3500
X2.0250Y3.3500
X3.3000Y3.6000
X3.0000Y3.6000
X3.1000Y3.6000
X3.2000Y3.6000
X2.4750Y3.4500
X2.8750Y3.4500
X2.6000Y3.7000
X2.8000Y3.7000
X2.0250Y2.6500
X1.8250Y2.3500
X1.8250Y2.6500
X1.6250Y2.6500
X2.0250Y2.3500
X1.7250Y2.6500
X1.9250Y2.6500
X2.1250Y2.6500
X2.2250Y2.3500
X1.7250Y2.3500
X1.9250Y2.3500
X1.6250Y2.3500
X2.1250Y2.3500
X2.2250Y2.6500
X2.0250Y1.0250
X1.8250Y0.7250
X1.8250Y1.0250
X1.6250Y1.0250
X2.0250Y0.7250
X1.7250Y1.0250
X1.9250Y1.0250
X2.1250Y1.0250
X2.2250Y0.7250
X1.7250Y0.7250
X1.9250Y0.7250
X1.6250Y0.7250
X2.1250Y0.7250
X2.2250Y1.0250
X1.0500Y2.5500
X1.4500Y2.5500
X2.7750Y2.7750
X2.3750Y2.7750
X1.8000Y3.1000
X1.7000Y3.1000
X2.1000Y3.1000
X2.0000Y3.1000
X1.0500Y2.6500
X1.4500Y2.6500
X1.8750Y2.7750
X2.2750Y2.7750
X1.0500Y2.4500
X1.4500Y2.4500
X2.7750Y2.2250
X2.3750Y2.2250
X1.8000Y1.9500
X1.7000Y1.9500
X2.1000Y1.9500
X2.0000Y1.9500
X1.4500Y2.3500
X1.0500Y2.3500
X1.8750Y2.2250
X2.2750Y2.2250
X2.0250Y2.5000
X1.8250Y2.5000
X2.0250Y0.8750
X1.8250Y0.8750
X1.0500Y0.9250
X1.4500Y0.9250
X2.7500Y1.1500
X2.3500Y1.1500
X1.8000Y1.4750
X1.7000Y1.4750
X2.1000Y1.4750
X2.0000Y1.4750
X1.0500Y1.0250
X1.4500Y1.0250
X2.2750Y1.1500
X1.8750Y1.1500
X1.0500Y0.8250
X1.4500Y0.8250
X1.0500Y0.7250
X1.4500Y0.7250
X2.7500Y0.6000
X2.3500Y0.6000
X1.8000Y0.3000
X1.7000Y0.3000
X2.1000Y0.3000
X2.0000Y0.3000
X1.8750Y0.6000
X2.2750Y0.6000
X1.4500Y2.7750
X1.0500Y2.7750
X1.4500Y2.2250
X1.0500Y2.2250
X1.4500Y1.1500
X1.0500Y1.1500
X1.0500Y0.6000
X1.4500Y0.6000
X3.2250Y3.4500
X3.0250Y3.4500
X0.6000Y3.1250
X0.6000Y3.0250
X3.2500Y3.1250
X3.2500Y3.0250
X0.6000Y1.9500
X0.6000Y1.8500
X3.2750Y1.9500
X3.2750Y1.8500
X0.6000Y1.5000
X0.6000Y1.4000
X3.2750Y1.5000
X3.2750Y1.4000
X0.6000Y0.7500
X0.6000Y0.6500
X3.2750Y0.7500
X3.2750Y0.6500
T3
X0.3500Y3.2750
X0.3500Y3.1750
X3.5000Y3.2750
X3.5000Y3.3750
X0.3500Y1.8750
X0.3500Y1.7750
X0.3750Y0.6500
X0.3750Y0.5500
X0.7750Y0.4000
X0.8750Y0.4000
X3.5000Y1.8750
X3.5000Y1.9750
X3.5000Y0.6500
X3.5000Y0.7500
X3.0750Y0.4000
X3.1750Y0.4000
T4
X0.8321Y3.6181G85X0.9108Y3.6181
X0.8321Y3.3819G85X0.9108Y3.3819
X0.6785Y3.5433G85X0.6785Y3.4567
T5
X1.1500Y3.8013
X1.1500Y3.3988
T6
X1.2561Y3.1000
X1.3939Y3.1000
X2.4061Y3.1000
X2.5439Y3.1000
X1.2561Y1.9500
X1.3939Y1.9500
X2.4061Y1.9500
X2.5439Y1.9500
X2.4061Y1.4750
X2.5439Y1.4750
X2.4061Y0.3000
X2.5439Y0.3000
X1.2561Y0.3000
X1.3939Y0.3000
X1.2561Y1.4750
X1.3939Y1.4750
T7
X2.1000Y3.7000
X2.1000Y3.6000
X2.1000Y3.5000
T8
X0.1500Y3.4750
X0.1500Y3.0750
X3.7000Y3.0750
X3.7000Y3.4750
X0.1500Y2.0750
X0.1500Y1.6750
X0.1750Y0.8500
X0.1750Y0.4500
X0.5750Y0.2000
X0.9750Y0.2000
X3.7000Y1.6750
X3.7000Y2.0750
X3.7000Y0.4500
X3.7000Y0.8500
X2.8750Y0.2000
X3.2750Y0.2000
T9
X0.2000Y3.7500
X3.7500Y3.7500
X0.2000Y0.1750
X3.7500Y0.1750
T10
X1.4000Y3.6000
T0
M30
