%FSLAX24Y24*%
%MOIN*%
%ADD10C,0.0200*%
%ADD11C,0.0400*%
%ADD12C,0.0520*%
%ADD13C,0.0591*%
%ADD14C,0.0600*%
%ADD15C,0.0709*%
%ADD16C,0.0750*%
%ADD17C,0.0787*%
%ADD18C,0.1575*%
%ADD19C,0.2362*%
D10*
G01X6000Y15000D02*
X3750Y12750D01*
X3750Y12750D02*
X3750Y6500D01*
X20000Y31000D02*
X20583Y31583D01*
X20583Y31583D02*
X24855Y31583D01*
X24855Y31583D02*
X25438Y31000D01*
X18000Y31000D02*
X18000Y29250D01*
X18000Y29250D02*
X16500Y27750D01*
X16500Y27750D02*
X14500Y25750D01*
X14500Y25750D02*
X14500Y25500D01*
X21250Y7250D02*
X20513Y6513D01*
X20513Y6513D02*
X18013Y6513D01*
X18013Y6513D02*
X17500Y6000D01*
X17500Y27750D02*
X17971Y27278D01*
X17971Y27278D02*
X20471Y27278D01*
X20471Y27278D02*
X21250Y26500D01*
X12561Y14750D02*
X13146Y15335D01*
X13146Y15335D02*
X14181Y15335D01*
X14181Y15335D02*
X14951Y14565D01*
X14951Y14565D02*
X14951Y9701D01*
X14951Y9701D02*
X14500Y9250D01*
X18000Y14750D02*
X18000Y13000D01*
X18000Y13000D02*
X16500Y11500D01*
X14185Y12352D02*
X14049Y12216D01*
X14049Y12216D02*
X14049Y10700D01*
X14049Y10700D02*
X14500Y10250D01*
X17000Y31000D02*
X15299Y29299D01*
X15299Y29299D02*
X15299Y27299D01*
X15299Y27299D02*
X14500Y26500D01*
X13938Y14750D02*
X13938Y13688D01*
X13938Y13688D02*
X10500Y10250D01*
X14499Y23500D02*
X13938Y22938D01*
X13938Y22938D02*
X13938Y19500D01*
X18750Y22250D02*
X21000Y20000D01*
X21000Y20000D02*
X21000Y19500D01*
X32750Y13999D02*
X32750Y8750D01*
X32750Y8750D02*
X35000Y6500D01*
X17500Y11500D02*
X18051Y10948D01*
X18051Y10948D02*
X20551Y10948D01*
X20551Y10948D02*
X21250Y10250D01*
X10500Y7250D02*
X13938Y3811D01*
X13938Y3811D02*
X13938Y3000D01*
X23750Y22250D02*
X24061Y21938D01*
X24061Y21938D02*
X24061Y19500D01*
X24250Y24000D02*
X24250Y22750D01*
X24250Y22750D02*
X23750Y22250D01*
X23500Y6000D02*
X24061Y5438D01*
X24061Y5438D02*
X24061Y3000D01*
X24000Y7750D02*
X24000Y6500D01*
X24000Y6500D02*
X23500Y6000D01*
X20249Y26500D02*
X19756Y26006D01*
X19756Y26006D02*
X19756Y24800D01*
X19756Y24800D02*
X20049Y24507D01*
X20049Y24507D02*
X22757Y24507D01*
X22757Y24507D02*
X24250Y26000D01*
X24061Y31000D02*
X24061Y28061D01*
X24061Y28061D02*
X23750Y27750D01*
X21250Y23500D02*
X20513Y22763D01*
X20513Y22763D02*
X17013Y22763D01*
X17013Y22763D02*
X16500Y22250D01*
X27500Y6000D02*
X25438Y3938D01*
X25438Y3938D02*
X25438Y3000D01*
X16500Y6000D02*
X16500Y4500D01*
X16500Y4500D02*
X18000Y3000D01*
X14500Y8250D02*
X14500Y7950D01*
X14500Y7950D02*
X16450Y6000D01*
X16450Y6000D02*
X16500Y6000D01*
X13938Y31000D02*
X13938Y29938D01*
X13938Y29938D02*
X10500Y26500D01*
X14500Y7250D02*
X15434Y6315D01*
X15434Y6315D02*
X15434Y4565D01*
X15434Y4565D02*
X17000Y3000D01*
X18750Y6000D02*
X21000Y3750D01*
X21000Y3750D02*
X21000Y3000D01*
X21000Y31000D02*
X21000Y30000D01*
X21000Y30000D02*
X18750Y27750D01*
X21000Y14750D02*
X21000Y13250D01*
X21000Y13250D02*
X22750Y11500D01*
X12561Y19500D02*
X12964Y19903D01*
X12964Y19903D02*
X12964Y22964D01*
X12964Y22964D02*
X14500Y24500D01*
X17500Y22250D02*
X17500Y20000D01*
X17500Y20000D02*
X18000Y19500D01*
X24061Y14750D02*
X24061Y12061D01*
X24061Y12061D02*
X23500Y11500D01*
X20249Y10250D02*
X19756Y9756D01*
X19756Y9756D02*
X19756Y8550D01*
X19756Y8550D02*
X20049Y8257D01*
X20049Y8257D02*
X22507Y8257D01*
X22507Y8257D02*
X24000Y9750D01*
D11*
G01X14185Y12352D03*
X25299Y23037D03*
D12*
G01X23500Y34999D03*
X23500Y37000D03*
X22250Y37000D03*
X22250Y35000D03*
X5750Y37500D03*
X20249Y33500D03*
X28750Y34500D03*
X14500Y25500D03*
X23750Y27750D03*
X18000Y31000D03*
X21000Y31000D03*
X14500Y26500D03*
X22750Y27750D03*
X14500Y24500D03*
X23750Y22250D03*
X18000Y19500D03*
X21000Y19500D03*
X10500Y23500D03*
X22750Y22250D03*
X20250Y25000D03*
X18250Y25000D03*
X20250Y8749D03*
X18250Y8749D03*
X14500Y9250D03*
X23500Y11500D03*
X18000Y14750D03*
X21000Y14750D03*
X14500Y10250D03*
X18750Y11500D03*
X14500Y8250D03*
X14500Y7250D03*
X23500Y6000D03*
X18000Y3000D03*
X21000Y3000D03*
X22750Y6000D03*
X10500Y27750D03*
X10500Y22250D03*
X10500Y11500D03*
X14500Y6000D03*
X32250Y34500D03*
X30250Y34500D03*
X33000Y35760D02*
X33000Y36240D01*
X31000Y35760D02*
X31000Y36240D01*
X32000Y35760D02*
X32000Y36240D01*
X28000Y36759D02*
X28000Y37240D01*
X20249Y26260D02*
X20249Y26740D01*
X18249Y23260D02*
X18249Y23740D01*
X18249Y26260D02*
X18249Y26740D01*
X16249Y26260D02*
X16249Y26740D01*
X20249Y23260D02*
X20249Y23740D01*
X17250Y26260D02*
X17250Y26740D01*
X19250Y26260D02*
X19250Y26740D01*
X21250Y26260D02*
X21250Y26740D01*
X22250Y23260D02*
X22250Y23740D01*
X17250Y23260D02*
X17250Y23740D01*
X19250Y23260D02*
X19250Y23740D01*
X21250Y23260D02*
X21250Y23740D01*
X22250Y26260D02*
X22250Y26740D01*
X20249Y10010D02*
X20249Y10489D01*
X18249Y7009D02*
X18249Y7490D01*
X18249Y10010D02*
X18249Y10489D01*
X16249Y10010D02*
X16249Y10489D01*
X20249Y7009D02*
X20249Y7490D01*
X17250Y10010D02*
X17250Y10489D01*
X19250Y10010D02*
X19250Y10489D01*
X21250Y10010D02*
X21250Y10489D01*
X22250Y7009D02*
X22250Y7490D01*
X17250Y7009D02*
X17250Y7490D01*
X19250Y7009D02*
X19250Y7490D01*
X21250Y7009D02*
X21250Y7490D01*
X22250Y10010D02*
X22250Y10489D01*
X5860Y30250D02*
X6140Y30250D01*
X32360Y30250D02*
X32640Y30250D01*
X5860Y18500D02*
X6140Y18500D01*
X32610Y18500D02*
X32890Y18500D01*
X5860Y13999D02*
X6140Y13999D01*
X32610Y13999D02*
X32890Y13999D01*
X5860Y6499D02*
X6140Y6499D01*
X32610Y6499D02*
X32890Y6499D01*
D13*
G01X3500Y32750D03*
X3500Y31750D03*
X35000Y32750D03*
X35000Y33750D03*
X3500Y18750D03*
X3500Y17750D03*
X3750Y6500D03*
X3750Y5499D03*
X7750Y4000D03*
X8750Y4000D03*
X35000Y18750D03*
X35000Y19750D03*
X35000Y6500D03*
X35000Y7500D03*
X30750Y4000D03*
X31750Y4000D03*
D14*
G01X21000Y34999D02*
X20829Y35000D01*
X20829Y35000D02*
X19439Y33609D01*
X19439Y33609D02*
X12633Y33609D01*
X12633Y33609D02*
X12409Y33833D01*
X12409Y33833D02*
X12409Y37102D01*
X12409Y37102D02*
X11500Y38012D01*
X23500Y34999D02*
X22837Y35662D01*
X22837Y35662D02*
X21902Y35662D01*
X21902Y35662D02*
X21239Y35000D01*
X21239Y35000D02*
X21000Y34999D01*
X24639Y27697D02*
X21942Y25000D01*
X21942Y25000D02*
X20250Y25000D01*
X24250Y33500D02*
X26225Y31524D01*
X26225Y31524D02*
X26225Y29283D01*
X26225Y29283D02*
X24639Y27697D01*
X24639Y27697D02*
X26240Y26096D01*
X26240Y26096D02*
X26240Y13081D01*
X26240Y13081D02*
X21909Y8750D01*
X21909Y8750D02*
X20250Y8749D01*
X24750Y34500D02*
X24750Y34000D01*
X24750Y34000D02*
X24250Y33500D01*
X26000Y37000D02*
X26000Y35750D01*
X26000Y35750D02*
X24750Y34500D01*
X25299Y23037D02*
X25250Y23086D01*
X25250Y23086D02*
X25249Y24000D01*
X17000Y36000D02*
X21000Y36000D01*
X14000Y36000D02*
X17000Y36000D01*
X9849Y27099D02*
X9849Y22250D01*
X10500Y27750D02*
X9849Y27099D01*
X6000Y30249D02*
X6699Y30250D01*
X6699Y30250D02*
X9849Y27099D01*
X7472Y11500D02*
X7472Y7722D01*
X7472Y7722D02*
X6250Y6500D01*
X6000Y13999D02*
X7472Y12527D01*
X7472Y12527D02*
X7472Y11500D01*
X7472Y11500D02*
X10500Y11500D01*
X6250Y6500D02*
X6000Y6499D01*
X8750Y3999D02*
X6250Y6500D01*
X6785Y34999D02*
X3535Y31750D01*
X3535Y31750D02*
X3500Y31750D01*
X7517Y35732D02*
X6785Y34999D01*
X8714Y36181D02*
X7966Y36181D01*
X7966Y36181D02*
X7517Y35732D01*
X7517Y35732D02*
X5750Y37500D01*
X33203Y35109D02*
X32421Y34328D01*
X35000Y33750D02*
X33640Y35109D01*
X33640Y35109D02*
X33203Y35109D01*
X33000Y36000D02*
X33203Y35796D01*
X33203Y35796D02*
X33203Y35109D01*
X32421Y34328D02*
X32421Y31250D01*
X32250Y34500D02*
X32421Y34328D01*
X32421Y31250D02*
X32500Y31250D01*
X32750Y19500D02*
X31705Y20544D01*
X31705Y20544D02*
X31705Y30533D01*
X31705Y30533D02*
X32421Y31250D01*
X30000Y36000D02*
X30000Y35839D01*
X30000Y35839D02*
X31339Y34500D01*
X31339Y34500D02*
X32250Y34500D01*
X32750Y19500D02*
X33550Y19500D01*
X30875Y5686D02*
X30875Y4875D01*
X30875Y4875D02*
X31750Y3999D01*
X32750Y7499D02*
X32688Y7500D01*
X32688Y7500D02*
X30875Y5686D01*
X25000Y7750D02*
X28811Y7750D01*
X28811Y7750D02*
X30875Y5686D01*
X25000Y9750D02*
X25000Y7750D01*
X32800Y15050D02*
X32750Y15000D01*
X33550Y19500D02*
X33550Y15800D01*
X33550Y15800D02*
X32800Y15050D01*
X32800Y15050D02*
X35000Y12850D01*
X35000Y12850D02*
X35000Y7500D01*
X33550Y19500D02*
X34750Y19500D01*
X34750Y19500D02*
X35000Y19750D01*
X9849Y22250D02*
X9849Y22120D01*
X9849Y22120D02*
X6229Y18500D01*
X6229Y18500D02*
X6000Y18500D01*
X10500Y22250D02*
X9849Y22250D01*
X25249Y26000D02*
X25249Y24000D01*
X18250Y8749D02*
X19250Y9750D01*
X19250Y9750D02*
X19250Y10250D01*
X18250Y25000D02*
X16428Y25000D01*
X16428Y25000D02*
X15596Y24167D01*
X15596Y24167D02*
X15596Y9740D01*
X15596Y9740D02*
X16587Y8750D01*
X16587Y8750D02*
X18250Y8749D01*
X19250Y26500D02*
X19250Y26000D01*
X19250Y26000D02*
X18250Y25000D01*
X28750Y34500D02*
X28750Y36075D01*
X28750Y36075D02*
X29564Y36890D01*
X29564Y36890D02*
X30447Y36890D01*
X30447Y36890D02*
X31000Y36337D01*
X31000Y36337D02*
X31000Y36000D01*
D15*
G01X11500Y38012D03*
D16*
G01X21125Y37000D02*
X20875Y37000D01*
X21125Y36000D02*
X20875Y36000D01*
D17*
G01X13938Y31000D03*
X25438Y31000D03*
X13938Y19500D03*
X25438Y19500D03*
X25438Y14750D03*
X25438Y3000D03*
X13938Y3000D03*
X13938Y14750D03*
D18*
G01X1500Y34750D03*
X1500Y30750D03*
X37000Y30750D03*
X37000Y34750D03*
X1500Y20749D03*
X1500Y16750D03*
X1750Y8500D03*
X1750Y4500D03*
X5750Y2000D03*
X9750Y2000D03*
X37000Y16750D03*
X37000Y20750D03*
X37000Y4500D03*
X37000Y8500D03*
X28750Y2000D03*
X32750Y2000D03*
D19*
G01X2000Y37500D03*
X37500Y37500D03*
X2000Y1750D03*
X37500Y1750D03*
G36*
X9501Y36018D02*G01*
X9271Y35787D01*X8157Y35787D01*X7927Y36018D01*X7927Y36344D01*X8157Y36574D01*X9271Y36574D01*X9501Y36344D01*G37*
G36*
X9501Y33655D02*G01*
X9271Y33425D01*X8157Y33425D01*X7927Y33655D01*X7927Y33981D01*X8157Y34212D01*X9271Y34212D01*X9501Y33981D01*G37*
G36*
X7179Y34403D02*G01*
X6948Y34173D01*X6622Y34173D01*X6391Y34403D01*X6391Y35596D01*X6622Y35826D01*X6948Y35826D01*X7179Y35596D01*G37*
G36*
X11145Y34341D02*G01*
X11145Y33633D01*X11854Y33633D01*X11854Y34341D01*G37*
G36*
X14750Y37999D02*G01*
X14750Y34000D01*X19250Y34000D01*X19250Y37999D01*G37*
G36*
X12800Y37999D02*G01*
X12800Y34000D01*X15200Y34000D01*X15200Y37999D01*G37*
G36*
X20500Y35375D02*G01*
X20500Y34625D01*X21500Y34625D01*X21500Y35375D01*G37*
G36*
X5010Y37760D02*G01*
X4490Y37760D01*X4490Y37240D01*X5010Y37240D01*G37*
G36*
X23989Y33240D02*G01*
X24509Y33240D01*X24509Y33760D01*X23989Y33760D01*G37*
G36*
X30260Y36499D02*G01*
X29740Y36499D01*X29740Y35499D01*X30260Y35499D01*G37*
G36*
X25010Y34760D02*G01*
X24490Y34760D01*X24490Y34240D01*X25010Y34240D01*G37*
G36*
X26260Y37500D02*G01*
X25740Y37500D01*X25740Y36499D01*X26260Y36499D01*G37*
G36*
X16509Y24000D02*G01*
X15989Y24000D01*X15989Y23000D01*X16509Y23000D01*G37*
G36*
X16509Y7750D02*G01*
X15989Y7750D01*X15989Y6749D01*X16509Y6749D01*G37*
G36*
X17240Y27500D02*G01*
X17760Y27500D01*X17760Y28000D01*X17240Y28000D01*G37*
G36*
X16240Y27500D02*G01*
X16760Y27500D01*X16760Y28000D01*X16240Y28000D01*G37*
G36*
X24510Y26250D02*G01*
X23989Y26250D01*X23989Y25749D01*X24510Y25749D01*G37*
G36*
X25510Y26250D02*G01*
X24990Y26250D01*X24990Y25749D01*X25510Y25749D01*G37*
G36*
X10760Y25760D02*G01*
X10240Y25760D01*X10240Y25240D01*X10760Y25240D01*G37*
G36*
X27490Y27490D02*G01*
X28010Y27490D01*X28010Y28010D01*X27490Y28010D01*G37*
G36*
X17260Y31259D02*G01*
X16740Y31259D01*X16740Y30739D01*X17260Y30739D01*G37*
G36*
X20259Y31259D02*G01*
X19739Y31259D01*X19739Y30739D01*X20259Y30739D01*G37*
G36*
X10760Y26760D02*G01*
X10240Y26760D01*X10240Y26240D01*X10760Y26240D01*G37*
G36*
X19010Y28010D02*G01*
X18490Y28010D01*X18490Y27490D01*X19010Y27490D01*G37*
G36*
X10760Y24760D02*G01*
X10240Y24760D01*X10240Y24240D01*X10760Y24240D01*G37*
G36*
X27490Y21989D02*G01*
X28010Y21989D01*X28010Y22509D01*X27490Y22509D01*G37*
G36*
X17260Y19760D02*G01*
X16740Y19760D01*X16740Y19240D01*X17260Y19240D01*G37*
G36*
X20259Y19760D02*G01*
X19739Y19760D01*X19739Y19240D01*X20259Y19240D01*G37*
G36*
X14239Y23239D02*G01*
X14760Y23239D01*X14760Y23759D01*X14239Y23759D01*G37*
G36*
X19010Y22510D02*G01*
X18490Y22510D01*X18490Y21990D01*X19010Y21990D01*G37*
G36*
X16760Y22500D02*G01*
X16240Y22500D01*X16240Y21999D01*X16760Y21999D01*G37*
G36*
X17760Y22500D02*G01*
X17240Y22500D01*X17240Y21999D01*X17760Y21999D01*G37*
G36*
X24510Y24250D02*G01*
X23989Y24250D01*X23989Y23750D01*X24510Y23750D01*G37*
G36*
X25510Y24250D02*G01*
X24990Y24250D01*X24990Y23750D01*X25510Y23750D01*G37*
G36*
X10760Y9510D02*G01*
X10240Y9510D01*X10240Y8990D01*X10760Y8990D01*G37*
G36*
X27239Y11240D02*G01*
X27759Y11240D01*X27759Y11760D01*X27239Y11760D01*G37*
G36*
X17260Y15010D02*G01*
X16740Y15010D01*X16740Y14490D01*X17260Y14490D01*G37*
G36*
X20259Y15010D02*G01*
X19739Y15010D01*X19739Y14490D01*X20259Y14490D01*G37*
G36*
X10760Y10510D02*G01*
X10240Y10510D01*X10240Y9990D01*X10760Y9990D01*G37*
G36*
X22490Y11240D02*G01*
X23010Y11240D01*X23010Y11760D01*X22490Y11760D01*G37*
G36*
X17240Y11250D02*G01*
X17760Y11250D01*X17760Y11750D01*X17240Y11750D01*G37*
G36*
X16240Y11250D02*G01*
X16760Y11250D01*X16760Y11750D01*X16240Y11750D01*G37*
G36*
X24260Y10000D02*G01*
X23740Y10000D01*X23740Y9500D01*X24260Y9500D01*G37*
G36*
X25260Y10000D02*G01*
X24740Y10000D01*X24740Y9500D01*X25260Y9500D01*G37*
G36*
X10760Y8510D02*G01*
X10240Y8510D01*X10240Y7990D01*X10760Y7990D01*G37*
G36*
X10760Y7510D02*G01*
X10240Y7510D01*X10240Y6990D01*X10760Y6990D01*G37*
G36*
X27239Y5740D02*G01*
X27759Y5740D01*X27759Y6260D01*X27239Y6260D01*G37*
G36*
X17260Y3260D02*G01*
X16740Y3260D01*X16740Y2740D01*X17260Y2740D01*G37*
G36*
X20259Y3260D02*G01*
X19739Y3260D01*X19739Y2740D01*X20259Y2740D01*G37*
G36*
X19010Y6260D02*G01*
X18490Y6260D01*X18490Y5740D01*X19010Y5740D01*G37*
G36*
X24260Y8000D02*G01*
X23740Y8000D01*X23740Y7500D01*X24260Y7500D01*G37*
G36*
X25260Y8000D02*G01*
X24740Y8000D01*X24740Y7500D01*X25260Y7500D01*G37*
G36*
X17240Y5750D02*G01*
X17760Y5750D01*X17760Y6250D01*X17240Y6250D01*G37*
G36*
X16240Y5750D02*G01*
X16760Y5750D01*X16760Y6250D01*X16240Y6250D01*G37*
G36*
X14239Y27490D02*G01*
X14760Y27490D01*X14760Y28010D01*X14239Y28010D01*G37*
G36*
X14239Y21989D02*G01*
X14760Y21989D01*X14760Y22509D01*X14239Y22509D01*G37*
G36*
X14239Y11240D02*G01*
X14760Y11240D01*X14760Y11760D01*X14239Y11760D01*G37*
G36*
X10760Y6260D02*G01*
X10240Y6260D01*X10240Y5740D01*X10760Y5740D01*G37*
G36*
X12954Y31393D02*G01*
X12167Y31393D01*X12167Y30606D01*X12954Y30606D01*G37*
G36*
X24454Y31393D02*G01*
X23667Y31393D01*X23667Y30606D01*X24454Y30606D01*G37*
G36*
X12954Y19893D02*G01*
X12167Y19893D01*X12167Y19106D01*X12954Y19106D01*G37*
G36*
X24454Y19893D02*G01*
X23667Y19893D01*X23667Y19106D01*X24454Y19106D01*G37*
G36*
X24454Y15143D02*G01*
X23667Y15143D01*X23667Y14356D01*X24454Y14356D01*G37*
G36*
X24454Y3393D02*G01*
X23667Y3393D01*X23667Y2606D01*X24454Y2606D01*G37*
G36*
X12954Y3393D02*G01*
X12167Y3393D01*X12167Y2606D01*X12954Y2606D01*G37*
G36*
X12954Y15143D02*G01*
X12167Y15143D01*X12167Y14356D01*X12954Y14356D01*G37*
G36*
X6400Y30990D02*G01*
X6400Y31510D01*X5600Y31510D01*X5600Y30990D01*G37*
G36*
X32900Y30990D02*G01*
X32900Y31510D01*X32100Y31510D01*X32100Y30990D01*G37*
G36*
X6400Y19240D02*G01*
X6400Y19760D01*X5600Y19760D01*X5600Y19240D01*G37*
G36*
X33150Y19240D02*G01*
X33150Y19760D01*X32350Y19760D01*X32350Y19240D01*G37*
G36*
X6400Y14739D02*G01*
X6400Y15259D01*X5600Y15259D01*X5600Y14739D01*G37*
G36*
X33150Y14739D02*G01*
X33150Y15259D01*X32350Y15259D01*X32350Y14739D01*G37*
G36*
X6400Y7239D02*G01*
X6400Y7759D01*X5600Y7759D01*X5600Y7239D01*G37*
G36*
X33150Y7239D02*G01*
X33150Y7759D01*X32350Y7759D01*X32350Y7239D01*G37*
M02*
