M48
INCH
T1C0.0150
T2C0.0250
T3C0.0320
T4C0.0400
T5C0.0402
T6C0.0433
T7C0.0787
T8C0.1102
%
G05
M72
T1
X1.4331Y3.5946
X3.4016Y3.5946
T2
X2.5000Y1.3374
X2.5500Y1.3874
X2.5000Y1.4374
X2.5000Y1.0874
X2.5500Y1.1374
X2.5000Y1.1874
T3
X0.7750Y0.4000
X1.0750Y0.4000
X0.7750Y0.5000
X1.0750Y0.5000
X2.1750Y0.4500
X1.9750Y0.4500
X1.5750Y0.4500
X1.8750Y0.4500
X1.8750Y0.3500
X1.5750Y0.3500
X2.1750Y0.1500
X1.9750Y0.1500
X1.8750Y0.1500
X1.5750Y0.1500
X1.0750Y0.2000
X0.7750Y0.2000
X1.5750Y0.2500
X1.8750Y0.2500
X1.1750Y0.2500
X1.4750Y0.2500
X1.4750Y0.1500
X1.1750Y0.1500
X2.1750Y0.2500
X1.9750Y0.2500
X2.7000Y0.6500
X2.6000Y0.6500
X1.5750Y0.6500
X1.8750Y0.6500
X2.5000Y0.6500
X2.4000Y0.6500
X0.7750Y0.6000
X1.0750Y0.6000
X2.9000Y0.6500
X2.8000Y0.6500
X1.1750Y0.6500
X1.4750Y0.6500
X1.1750Y0.4500
X1.4750Y0.4500
X2.1750Y0.5500
X1.9750Y0.5500
X1.0750Y0.3000
X0.7750Y0.3000
X2.1750Y0.3500
X1.9750Y0.3500
X2.2750Y0.6500
X1.9750Y0.6500
X1.4750Y0.3500
X1.1750Y0.3500
X1.8750Y0.5500
X1.5750Y0.5500
X1.4750Y0.5500
X1.1750Y0.5500
X2.0500Y1.4374
X2.3500Y1.4374
X2.3500Y1.3374
X2.0500Y1.3374
X2.7750Y1.3124
X2.8750Y1.0124
X2.7750Y1.0124
X2.8750Y1.3124
X2.3500Y1.2374
X2.0500Y1.2374
X2.0500Y1.0374
X2.3500Y1.0374
X2.0500Y1.1374
X2.3500Y1.1374
X2.5750Y0.9374
X2.4750Y0.9374
X3.3500Y1.1874
X3.3500Y0.8874
X3.2500Y1.1874
X3.2500Y0.8874
X3.1500Y1.2874
X3.4500Y1.2874
X3.0500Y1.1374
X3.0500Y1.4374
X3.1500Y0.8874
X3.1500Y1.1874
X3.6500Y1.4374
X3.3500Y1.4374
X3.8000Y1.1874
X3.8000Y1.2874
X3.8000Y1.0874
X3.6250Y0.9374
X3.5250Y0.9374
X1.6000Y0.9124
X1.7000Y0.9124
X1.6000Y1.2124
X1.7000Y1.2124
X1.8000Y1.2124
X1.5000Y0.9124
X1.5000Y1.2124
X1.8000Y0.9124
X1.9500Y1.1374
X1.9500Y0.9374
X1.0500Y1.2124
X1.1500Y0.9124
X1.1500Y1.2124
X1.2500Y0.9124
X0.9500Y0.9124
X1.0500Y0.9124
X1.2500Y1.2124
X0.9500Y1.2124
X0.7500Y1.2874
X0.7500Y1.0874
X1.5000Y1.4374
X1.4000Y1.4374
X1.6000Y1.4374
X1.1250Y1.4374
X0.8250Y1.4374
X0.7750Y1.9748
X1.0750Y1.9748
X0.7750Y2.0748
X1.0750Y2.0748
X2.1750Y2.0248
X1.9750Y2.0248
X1.5750Y2.0248
X1.8750Y2.0248
X1.8750Y1.9248
X1.5750Y1.9248
X2.1750Y1.7248
X1.9750Y1.7248
X1.8750Y1.7248
X1.5750Y1.7248
X1.0750Y1.7748
X0.7750Y1.7748
X1.5750Y1.8248
X1.8750Y1.8248
X1.1750Y1.8248
X1.4750Y1.8248
X1.4750Y1.7248
X1.1750Y1.7248
X2.1750Y1.8248
X1.9750Y1.8248
X2.7000Y2.2248
X2.6000Y2.2248
X1.5750Y2.2248
X1.8750Y2.2248
X2.5000Y2.2248
X2.4000Y2.2248
X0.7750Y2.1748
X1.0750Y2.1748
X2.9000Y2.2248
X2.8000Y2.2248
X1.1750Y2.2248
X1.4750Y2.2248
X1.1750Y2.0248
X1.4750Y2.0248
X2.1750Y2.1248
X1.9750Y2.1248
X1.0750Y1.8748
X0.7750Y1.8748
X2.1750Y1.9248
X1.9750Y1.9248
X2.2750Y2.2248
X1.9750Y2.2248
X1.4750Y1.9248
X1.1750Y1.9248
X1.8750Y2.1248
X1.5750Y2.1248
X1.4750Y2.1248
X1.1750Y2.1248
X0.7000Y3.4496
X0.7000Y3.6496
X1.0750Y3.3996
X1.2750Y3.6996
X1.3750Y3.6996
X0.8750Y3.6996
X0.9750Y3.3996
X1.4750Y3.3996
X0.9750Y3.6996
X1.2750Y3.3996
X0.8750Y3.3996
X1.1750Y3.6996
X1.1750Y3.3996
X1.0750Y3.6996
X1.3750Y3.3996
X1.4750Y3.6996
X1.6250Y3.8246
X1.3250Y3.8246
X1.8500Y3.4496
X1.8500Y3.6496
X1.8500Y3.5496
X3.2935Y2.6122
X3.3935Y2.6122
X3.3935Y2.9122
X3.0935Y2.6122
X3.1935Y2.9122
X3.2935Y2.9122
X3.0935Y2.9122
X3.1935Y2.6122
X2.9435Y2.8622
X2.9435Y2.6622
X2.8185Y2.6122
X2.8185Y2.9122
X3.6185Y2.7622
X3.6185Y2.8622
X3.6185Y2.6622
X2.6685Y3.4496
X2.6685Y3.6496
X3.0435Y3.3996
X3.2435Y3.6996
X3.3435Y3.6996
X2.8435Y3.6996
X2.9435Y3.3996
X3.4435Y3.3996
X2.9435Y3.6996
X3.2435Y3.3996
X2.8435Y3.3996
X3.1435Y3.6996
X3.1435Y3.3996
X3.0435Y3.6996
X3.3435Y3.3996
X3.4435Y3.6996
X3.5935Y3.8246
X3.2935Y3.8246
X3.8185Y3.4496
X3.8185Y3.6496
X3.8185Y3.5496
X1.3250Y2.6122
X1.4250Y2.6122
X1.4250Y2.9122
X1.1250Y2.6122
X1.2250Y2.9122
X1.3250Y2.9122
X1.1250Y2.9122
X1.2250Y2.6122
X0.9750Y2.8622
X0.9750Y2.6622
X0.8500Y2.6122
X0.8500Y2.9122
X1.6500Y2.7622
X1.6500Y2.8622
X1.6500Y2.6622
T4
X3.0000Y0.2000
X2.7000Y0.2000
X2.7000Y0.4000
X3.0000Y0.4000
X2.6000Y0.2000
X2.3000Y0.2000
X2.3000Y0.4000
X2.6000Y0.4000
X3.0000Y1.7748
X2.7000Y1.7748
X2.7000Y1.9748
X3.0000Y1.9748
X2.6000Y1.7748
X2.3000Y1.7748
X2.3000Y1.9748
X2.6000Y1.9748
T5
X0.2000Y0.5500
X0.2000Y0.6500
X0.2000Y0.4500
X0.1000Y0.6500
X0.2000Y0.3500
X0.1000Y0.4500
X0.1000Y0.3500
X0.1000Y0.1500
X0.2000Y0.1500
X0.1000Y0.2500
X0.2000Y0.2500
X0.1000Y0.5500
X0.2000Y1.1374
X0.1000Y1.4374
X0.1000Y1.3374
X0.2000Y1.0374
X0.1000Y1.0374
X0.2000Y1.2374
X0.2000Y1.4374
X0.2000Y0.9374
X0.1000Y1.2374
X0.1000Y1.1374
X0.2000Y1.3374
X0.1000Y0.9374
X0.2000Y2.1248
X0.2000Y2.2248
X0.2000Y2.0248
X0.1000Y2.2248
X0.2000Y1.9248
X0.1000Y2.0248
X0.1000Y1.9248
X0.1000Y1.7248
X0.2000Y1.7248
X0.1000Y1.8248
X0.2000Y1.8248
X0.1000Y2.1248
X0.2000Y3.4996
X0.2000Y3.7996
X0.1000Y3.4996
X0.1000Y3.2996
X0.2000Y3.3996
X0.2000Y3.6996
X0.1000Y3.3996
X0.1000Y3.7996
X0.2000Y3.2996
X0.1000Y3.6996
X0.2000Y3.5996
X0.1000Y3.5996
X2.1685Y3.0122
X2.1685Y2.9122
X2.0685Y2.8122
X2.0685Y2.7122
X2.0685Y2.9122
X2.0685Y2.5122
X2.0685Y3.0122
X2.1685Y2.6122
X2.1685Y2.5122
X2.1685Y2.8122
X2.1685Y2.7122
X2.0685Y2.6122
X2.1685Y3.4996
X2.1685Y3.7996
X2.0685Y3.4996
X2.0685Y3.2996
X2.1685Y3.3996
X2.1685Y3.6996
X2.0685Y3.3996
X2.0685Y3.7996
X2.1685Y3.2996
X2.0685Y3.6996
X2.1685Y3.5996
X2.0685Y3.5996
X0.2000Y3.0122
X0.2000Y2.9122
X0.1000Y2.8122
X0.1000Y2.7122
X0.1000Y2.9122
X0.1000Y2.5122
X0.1000Y3.0122
X0.2000Y2.6122
X0.2000Y2.5122
X0.2000Y2.8122
X0.2000Y2.7122
X0.1000Y2.6122
T6
X3.1396Y0.4000
X3.1396Y0.3016
X3.7104Y0.3016
X3.7104Y0.4984
X3.1396Y0.4984
X3.1396Y1.9748
X3.1396Y1.8764
X3.7104Y1.8764
X3.7104Y2.0732
X3.1396Y2.0732
T7
X3.8000Y0.1500
X3.8000Y0.6250
X0.7000Y1.4374
X0.7000Y0.9374
X3.8000Y1.4374
X3.8000Y0.9374
X3.8000Y1.7248
X3.8000Y2.1998
X0.7000Y3.7996
X0.7000Y3.2996
X1.8000Y3.2996
X1.8000Y3.7996
X3.7685Y2.5122
X3.7685Y3.0122
X2.6685Y2.9872
X2.6685Y2.5122
X2.6685Y3.7996
X2.6685Y3.2996
X3.7685Y3.2996
X3.7685Y3.7996
X1.8000Y2.5122
X1.8000Y3.0122
X0.7000Y2.9872
X0.7000Y2.5122
T8
X3.4152Y0.1441
X3.4152Y0.6559
X3.4152Y1.7189
X3.4152Y2.2307
T0
M30
