M48
INCH
T1C0.0200
T2C0.0320
T3C0.0354
T4C0.0394
T5C0.0400
T6C0.0433
T7C0.1102
T8C0.1181
%
G05
M72
T1
X0.9480Y0.2506
X1.1393Y1.4033
X0.8770Y2.2000
X2.9242Y1.6185
X0.5263Y2.0102
T2
X2.6000Y1.6250
X2.8000Y1.6250
X1.1000Y1.6000
X1.0000Y1.9000
X1.1000Y1.9000
X1.2000Y1.6000
X0.9000Y1.9000
X1.0000Y1.6000
X1.2000Y1.9000
X0.9000Y1.6000
X2.0000Y1.7500
X1.6000Y1.7500
X1.1000Y0.2000
X0.7000Y1.2000
X0.8000Y1.2000
X0.5000Y0.2000
X1.0000Y1.3000
X0.4000Y0.2000
X0.6000Y1.3000
X0.8000Y0.3000
X0.9000Y1.3000
X1.1000Y0.3000
X1.2000Y0.2000
X1.3000Y1.2000
X1.3000Y0.2000
X0.9000Y0.2000
X0.4000Y1.3000
X0.7000Y1.3000
X1.1000Y1.3000
X1.0000Y0.2000
X0.4000Y0.3000
X1.2000Y1.2000
X0.7000Y0.3000
X0.5000Y1.2000
X0.8000Y1.3000
X1.1000Y1.2000
X0.9000Y1.2000
X1.3000Y1.3000
X0.9000Y0.3000
X1.2000Y0.3000
X1.2000Y1.3000
X1.0000Y1.2000
X0.6000Y0.2000
X0.6000Y1.2000
X0.7000Y0.2000
X1.3000Y0.3000
X0.5000Y1.3000
X1.0000Y0.3000
X0.6000Y0.3000
X0.5000Y0.3000
X0.8000Y0.2000
X0.4000Y1.2000
X1.1000Y2.3000
X0.9000Y2.3000
X2.8500Y3.3500
X2.8500Y3.6500
X1.9000Y3.6000
X1.5000Y3.6000
X0.5000Y3.6000
X0.7000Y3.6000
X0.4500Y3.3250
X0.7500Y3.2250
X0.2500Y3.2250
X3.0000Y1.8500
X2.6000Y1.8500
X2.5500Y2.1000
X2.1500Y2.5000
X2.2500Y2.5000
X2.1500Y2.1000
X2.6500Y2.1000
X2.6500Y2.3000
X2.3500Y2.1000
X2.6500Y2.5000
X2.6500Y2.2000
X2.4500Y2.5000
X2.2500Y2.1000
X2.4500Y2.1000
X2.3500Y2.5000
X2.5500Y2.5000
X1.6000Y1.8500
X2.0000Y1.8500
X0.3000Y1.6000
X0.7000Y1.6000
X2.1000Y1.7500
X2.5000Y1.7500
X2.5000Y0.6500
X2.4000Y0.6500
X1.7250Y2.2000
X1.6250Y2.2000
X1.1000Y2.1000
X0.9000Y2.1000
X3.0000Y3.2000
X2.6000Y3.2000
X1.7000Y2.3500
X1.5000Y2.3500
X0.3000Y2.4250
X0.6000Y2.4250
X2.7250Y2.7000
X2.6250Y3.0000
X2.7250Y3.0000
X2.8250Y2.7000
X2.5250Y3.0000
X2.6250Y2.7000
X2.8250Y3.0000
X2.5250Y2.7000
X1.1500Y2.5000
X1.6500Y2.8000
X1.7500Y2.5000
X1.7500Y2.8000
X1.2500Y2.5000
X1.5500Y2.8000
X1.0500Y2.5000
X1.1500Y2.8000
X1.3500Y2.8000
X0.9500Y2.8000
X1.4500Y2.8000
X1.5500Y2.5000
X1.6500Y2.5000
X1.4500Y2.5000
X1.0500Y2.8000
X1.3500Y2.5000
X0.9500Y2.5000
X1.2500Y2.8000
X2.1000Y2.6500
X2.3000Y2.6500
X2.1000Y1.6500
X2.3000Y1.6500
X2.6000Y1.7500
X3.0000Y1.7500
X1.5250Y2.2000
X1.4250Y2.2000
X2.0000Y2.2000
X2.0000Y2.4000
X3.1000Y2.6500
X3.5000Y2.6500
X2.9000Y0.6500
X2.8000Y0.6500
X2.0250Y2.8000
X2.1250Y2.8000
X1.6000Y1.6500
X1.8000Y1.6500
X3.5000Y2.4500
X3.8000Y2.4500
X2.8000Y2.2750
X3.0000Y2.2750
X1.4000Y1.9000
X1.4000Y1.7000
X1.5000Y3.0000
X1.4000Y3.3000
X1.5000Y3.3000
X1.6000Y3.0000
X1.3000Y3.3000
X1.4000Y3.0000
X1.6000Y3.3000
X1.3000Y3.0000
X3.0500Y3.0000
X3.0500Y2.8000
X3.0000Y2.1500
X2.8000Y2.1500
X2.5000Y1.8500
X2.1000Y1.8500
X1.2000Y3.6000
X0.8000Y3.6000
X2.2250Y2.8000
X2.3250Y2.8000
X1.8000Y3.2500
X1.8000Y3.0500
X1.6000Y2.0000
X2.0000Y2.0000
X2.6000Y1.9500
X3.0000Y1.9500
X2.5000Y1.9500
X2.1000Y1.9500
X2.2000Y1.4000
X1.8000Y1.4000
X2.3000Y1.4000
X2.7000Y1.4000
X3.2000Y1.4000
X2.8000Y1.4000
X2.2000Y1.3000
X1.8000Y1.3000
T3
X3.2250Y3.1000
X3.3250Y3.0500
X3.3250Y2.9500
X3.2250Y3.0000
X3.2250Y3.4000
X3.2750Y3.5000
X3.3750Y3.5000
X3.3250Y3.4000
X0.7000Y2.7750
X0.6000Y2.8250
X0.6000Y2.9250
X0.7000Y2.8750
X0.7000Y1.9500
X0.6000Y2.0000
X0.6000Y2.1000
X0.7000Y2.0500
X3.2250Y2.1000
X3.3250Y2.0500
X3.3250Y1.9500
X3.2250Y2.0000
X2.3000Y3.4000
X2.3500Y3.5000
X2.4500Y3.5000
X2.4000Y3.4000
T4
X1.4250Y3.8000
X0.7250Y3.8000
X0.8250Y3.8000
X1.7250Y3.8000
X1.6250Y3.8000
X0.6250Y3.8000
X1.2250Y3.8000
X1.0250Y3.8000
X1.3250Y3.8000
X1.5250Y3.8000
X0.9250Y3.8000
X1.1250Y3.8000
X1.9250Y3.8000
X0.4250Y3.8000
X1.8250Y3.8000
X0.5250Y3.8000
T5
X2.7750Y0.2000
X2.7750Y0.5000
X2.5750Y0.2000
X2.5750Y0.5000
T6
X3.5969Y1.2709
X3.5969Y0.7000
X3.4984Y1.2709
X3.4000Y1.2709
X3.4000Y0.7000
T7
X3.2425Y0.9953
X3.7543Y0.9953
T8
X3.5750Y2.8250
X3.5750Y3.2250
X0.2000Y3.5500
X3.7500Y3.5500
X3.5000Y3.7500
X3.1000Y3.7500
X0.3500Y3.0500
X0.3500Y2.6500
X3.7000Y0.2000
X0.3500Y2.2250
X0.3500Y1.8250
X0.1250Y1.6250
X3.8000Y3.8000
X3.8000Y1.6250
X0.1250Y3.8000
X3.5750Y1.8250
X3.5750Y2.2250
X2.5750Y3.7500
X2.1750Y3.7500
X0.2000Y0.2000
T0
M30
