%FSLAX24Y24*%
%MOIN*%
%ADD10C,0.0400*%
%ADD11C,0.0500*%
%ADD12C,0.0520*%
%ADD13C,0.0591*%
%ADD14C,0.0600*%
%ADD15C,0.0700*%
%ADD16C,0.0709*%
%ADD17C,0.0750*%
%ADD18C,0.1575*%
%ADD19C,0.2362*%
%ADD20C,0.3150*%
D10*
G01X15954Y9683D03*
D11*
G01X19000Y26500D03*
X19000Y27500D03*
X19000Y25500D03*
X19000Y21500D03*
X19000Y22500D03*
X19000Y20500D03*
D12*
G01X18250Y7000D03*
X36000Y12249D03*
X32000Y13500D03*
X24250Y18750D03*
X26250Y18750D03*
X30500Y20500D03*
X10000Y16000D03*
X24750Y7000D03*
X16000Y15750D03*
X27500Y27500D03*
X27500Y25500D03*
X28500Y30250D03*
X28500Y32250D03*
X26250Y17250D03*
X16000Y12749D03*
X29250Y18750D03*
X31250Y18750D03*
X24000Y30500D03*
X34250Y1999D03*
X13999Y33000D03*
X27500Y30250D03*
X27500Y32250D03*
X10000Y13999D03*
X21499Y7000D03*
X31250Y7000D03*
X7500Y32750D03*
X5499Y32750D03*
X18000Y29000D03*
X10000Y15000D03*
X7000Y15000D03*
X32000Y22000D03*
X21000Y17250D03*
X11500Y20500D03*
X25500Y22500D03*
X27500Y17250D03*
X22000Y24000D03*
X36000Y14750D03*
X28000Y7000D03*
X16000Y18500D03*
X19000Y18750D03*
X21000Y18750D03*
X26000Y12750D03*
X24000Y12749D03*
X20000Y14250D03*
X6000Y13000D03*
X9000Y13000D03*
X16000Y14250D03*
X25260Y26000D02*
X25740Y26000D01*
X25260Y27000D02*
X25740Y27000D01*
X20250Y15510D02*
X20250Y15990D01*
X24250Y15510D02*
X24250Y15990D01*
X25250Y15510D02*
X25250Y15990D01*
X23250Y15510D02*
X23250Y15990D01*
X26250Y15510D02*
X26250Y15990D01*
X28250Y15510D02*
X28250Y15990D01*
X27250Y15510D02*
X27250Y15990D01*
X21250Y15510D02*
X21250Y15990D01*
X22250Y15510D02*
X22250Y15990D01*
D13*
G01X14250Y34295D02*
X14250Y34704D01*
X9250Y34295D02*
X9250Y34704D01*
X7250Y34295D02*
X7250Y34704D01*
X12250Y34295D02*
X12250Y34704D01*
X19250Y34295D02*
X19250Y34704D01*
X6250Y34295D02*
X6250Y34704D01*
X8250Y34295D02*
X8250Y34704D01*
X11250Y34295D02*
X11250Y34704D01*
X16250Y34295D02*
X16250Y34704D01*
X15250Y34295D02*
X15250Y34704D01*
X5250Y34295D02*
X5250Y34704D01*
X18250Y34295D02*
X18250Y34704D01*
X17250Y34295D02*
X17250Y34704D01*
X10250Y34295D02*
X10250Y34704D01*
X13250Y34295D02*
X13250Y34704D01*
D14*
G01X11000Y4500D03*
X14000Y7500D03*
X3000Y4500D03*
X3000Y9500D03*
X14000Y4500D03*
X8000Y4500D03*
X13000Y8500D03*
X15000Y8500D03*
X11000Y10500D03*
X4000Y10500D03*
X15000Y10500D03*
X12000Y7500D03*
X9000Y7500D03*
X15000Y4500D03*
X12000Y10500D03*
X6000Y9500D03*
X7000Y10500D03*
X6000Y10500D03*
X13000Y4500D03*
X10000Y8500D03*
X3000Y10500D03*
X13000Y10500D03*
X5000Y10500D03*
X15000Y7500D03*
X11000Y7500D03*
X7000Y9500D03*
X12000Y8500D03*
X9000Y8500D03*
X13000Y7500D03*
X10000Y7500D03*
X5000Y4500D03*
X15000Y9500D03*
X15000Y5500D03*
X15000Y6500D03*
X5000Y9500D03*
X10000Y4500D03*
X7000Y4500D03*
X9000Y10500D03*
X8000Y8500D03*
X8000Y7500D03*
X14000Y8500D03*
X4000Y4500D03*
X6000Y4500D03*
X8000Y10500D03*
X11000Y8500D03*
X10000Y10500D03*
X12000Y4500D03*
X9000Y4500D03*
X14000Y10500D03*
X2000Y10500D03*
X31950Y5250D02*
X31550Y5250D01*
X31950Y2250D02*
X31550Y2250D01*
X29950Y5250D02*
X29550Y5250D01*
X29950Y2250D02*
X29550Y2250D01*
X34300Y16000D02*
X34700Y16000D01*
X34300Y17000D02*
X34700Y17000D01*
X25450Y5250D02*
X25050Y5250D01*
X25450Y2250D02*
X25050Y2250D01*
X23450Y5250D02*
X23050Y5250D01*
X23450Y2250D02*
X23050Y2250D01*
X18950Y5250D02*
X18550Y5250D01*
X18950Y2250D02*
X18550Y2250D01*
X16950Y5250D02*
X16550Y5250D01*
X16950Y2250D02*
X16550Y2250D01*
X34300Y21000D02*
X34700Y21000D01*
X34300Y22000D02*
X34700Y22000D01*
X4450Y19499D02*
X4050Y19499D01*
X4450Y18500D02*
X4050Y18500D01*
X4450Y21499D02*
X4050Y21499D01*
X4450Y20500D02*
X4050Y20500D01*
X4450Y22500D02*
X4050Y22500D01*
X28699Y5250D02*
X28300Y5250D01*
X28699Y2250D02*
X28300Y2250D01*
X26700Y5250D02*
X26300Y5250D01*
X26700Y2250D02*
X26300Y2250D01*
X22199Y5250D02*
X21799Y5250D01*
X22199Y2250D02*
X21799Y2250D01*
X20200Y5250D02*
X19800Y5250D01*
X20200Y2250D02*
X19800Y2250D01*
D15*
G01X36468Y5100D02*
X36468Y5399D01*
X34500Y10808D02*
X34500Y11108D01*
X34500Y5100D02*
X34500Y5399D01*
X36468Y10808D02*
X36468Y11108D01*
X35484Y10808D02*
X35484Y11108D01*
D16*
G01X7750Y22000D03*
X28000Y34749D03*
X23000Y29000D03*
X25000Y34500D03*
D17*
G01X14000Y20375D02*
X14000Y20625D01*
X15000Y20375D02*
X15000Y20625D01*
X29625Y30250D02*
X29875Y30250D01*
X29625Y31250D02*
X29875Y31250D01*
X29625Y25500D02*
X29875Y25500D01*
X29625Y26500D02*
X29875Y26500D01*
D18*
G01X1250Y12750D03*
X38000Y12750D03*
X1250Y34500D03*
X38000Y34500D03*
X32925Y8202D03*
X38043Y8202D03*
D19*
G01X37250Y37250D03*
X2000Y2250D03*
X37250Y2250D03*
X2000Y37250D03*
D20*
G01X23500Y37250D03*
X14500Y37250D03*
X33250Y37250D03*
X10000Y37250D03*
X28500Y37250D03*
X5500Y37250D03*
G36*
X17510Y7260D02*G01*
X16990Y7260D01*X16990Y6740D01*X17510Y6740D01*G37*
G36*
X23000Y26550D02*G01*
X22000Y26550D01*X22000Y25450D01*X23000Y25450D01*G37*
G36*
X23000Y27550D02*G01*
X22000Y27550D01*X22000Y26450D01*X23000Y26450D01*G37*
G36*
X32260Y12510D02*G01*
X31740Y12510D01*X31740Y11990D01*X32260Y11990D01*G37*
G36*
X2300Y4800D02*G01*
X1700Y4800D01*X1700Y4200D01*X2300Y4200D01*G37*
G36*
X4740Y29500D02*G01*
X5260Y29500D01*X5260Y30500D01*X4740Y30500D01*G37*
G36*
X7740Y28500D02*G01*
X8260Y28500D01*X8260Y29500D01*X7740Y29500D01*G37*
G36*
X2740Y28500D02*G01*
X3260Y28500D01*X3260Y29500D01*X2740Y29500D01*G37*
G36*
X10395Y21645D02*G01*
X11104Y21645D01*X11104Y22354D01*X10395Y22354D01*G37*
G36*
X35740Y13240D02*G01*
X36260Y13240D01*X36260Y13760D01*X35740Y13760D01*G37*
G36*
X21260Y10260D02*G01*
X20740Y10260D01*X20740Y9740D01*X21260Y9740D01*G37*
G36*
X26760Y20760D02*G01*
X26240Y20760D01*X26240Y20240D01*X26760Y20240D01*G37*
G36*
X35000Y17700D02*G01*
X35000Y18300D01*X34000Y18300D01*X34000Y17700D01*G37*
G36*
X6260Y16260D02*G01*
X5740Y16260D01*X5740Y15740D01*X6260Y15740D01*G37*
G36*
X24010Y7260D02*G01*
X23490Y7260D01*X23490Y6740D01*X24010Y6740D01*G37*
G36*
X12259Y16010D02*G01*
X11739Y16010D01*X11739Y15490D01*X12259Y15490D01*G37*
G36*
X18010Y10260D02*G01*
X17490Y10260D01*X17490Y9740D01*X18010Y9740D01*G37*
G36*
X35000Y22700D02*G01*
X35000Y23300D01*X34000Y23300D01*X34000Y22700D01*G37*
G36*
X22510Y17510D02*G01*
X21990Y17510D01*X21990Y16990D01*X22510Y16990D01*G37*
G36*
X12259Y13010D02*G01*
X11739Y13010D01*X11739Y12490D01*X12259Y12490D01*G37*
G36*
X31010Y10260D02*G01*
X30490Y10260D01*X30490Y9740D01*X31010Y9740D01*G37*
G36*
X16000Y26750D02*G01*
X12000Y26750D01*X12000Y22250D01*X16000Y22250D01*G37*
G36*
X16000Y28700D02*G01*
X12000Y28700D01*X12000Y26300D01*X16000Y26300D01*G37*
G36*
X13375Y21000D02*G01*
X12625Y21000D01*X12625Y20000D01*X13375Y20000D01*G37*
G36*
X20260Y30760D02*G01*
X19740Y30760D01*X19740Y30240D01*X20260Y30240D01*G37*
G36*
X4545Y35000D02*G01*
X3954Y35000D01*X3954Y34000D01*X4545Y34000D01*G37*
G36*
X34510Y2739D02*G01*
X34510Y3259D01*X33990Y3259D01*X33990Y2739D01*G37*
G36*
X17739Y32740D02*G01*
X18259Y32740D01*X18259Y33260D01*X17739Y33260D01*G37*
G36*
X6260Y14260D02*G01*
X5740Y14260D01*X5740Y13740D01*X6260Y13740D01*G37*
G36*
X3750Y23799D02*G01*
X3750Y23200D01*X4750Y23200D01*X4750Y23799D01*G37*
G36*
X30645Y34395D02*G01*
X31354Y34395D01*X31354Y35104D01*X30645Y35104D01*G37*
G36*
X20759Y7260D02*G01*
X20239Y7260D01*X20239Y6740D01*X20759Y6740D01*G37*
G36*
X20354Y29354D02*G01*
X19645Y29354D01*X19645Y28645D01*X20354Y28645D01*G37*
G36*
X30510Y7260D02*G01*
X29990Y7260D01*X29990Y6740D01*X30510Y6740D01*G37*
G36*
X24510Y10260D02*G01*
X23990Y10260D01*X23990Y9740D01*X24510Y9740D01*G37*
G36*
X17260Y29260D02*G01*
X16740Y29260D01*X16740Y28740D01*X17260Y28740D01*G37*
G36*
X27760Y10260D02*G01*
X27240Y10260D01*X27240Y9740D01*X27760Y9740D01*G37*
G36*
X28260Y22260D02*G01*
X27740Y22260D01*X27740Y21740D01*X28260Y21740D01*G37*
G36*
X30250Y31875D02*G01*
X30250Y32625D01*X29250Y32625D01*X29250Y31875D01*G37*
G36*
X36000Y29250D02*G01*
X36000Y33250D01*X31500Y33250D01*X31500Y29250D01*G37*
G36*
X37950Y29250D02*G01*
X37950Y33250D01*X35550Y33250D01*X35550Y29250D01*G37*
G36*
X22354Y34854D02*G01*
X21645Y34854D01*X21645Y34145D01*X22354Y34145D01*G37*
G36*
X17260Y17510D02*G01*
X16740Y17510D01*X16740Y16990D01*X17260Y16990D01*G37*
G36*
X7760Y20760D02*G01*
X7240Y20760D01*X7240Y20240D01*X7760Y20240D01*G37*
G36*
X21760Y22760D02*G01*
X21240Y22760D01*X21240Y22240D01*X21760Y22240D01*G37*
G36*
X31240Y16990D02*G01*
X31760Y16990D01*X31760Y17510D01*X31240Y17510D01*G37*
G36*
X18260Y24260D02*G01*
X17740Y24260D01*X17740Y23740D01*X18260Y23740D01*G37*
G36*
X32260Y15010D02*G01*
X31740Y15010D01*X31740Y14490D01*X32260Y14490D01*G37*
G36*
X27260Y7260D02*G01*
X26740Y7260D01*X26740Y6740D01*X27260Y6740D01*G37*
G36*
X12259Y18760D02*G01*
X11739Y18760D01*X11739Y18240D01*X12259Y18240D01*G37*
G36*
X29740Y12490D02*G01*
X30260Y12490D01*X30260Y13010D01*X29740Y13010D01*G37*
G36*
X20260Y13010D02*G01*
X19740Y13010D01*X19740Y12490D01*X20260Y12490D01*G37*
G36*
X23740Y13990D02*G01*
X24260Y13990D01*X24260Y14510D01*X23740Y14510D01*G37*
G36*
X12259Y14510D02*G01*
X11739Y14510D01*X11739Y13990D01*X12259Y13990D01*G37*
G36*
X19510Y16250D02*G01*
X18990Y16250D01*X18990Y15250D01*X19510Y15250D01*G37*
G36*
X30250Y27125D02*G01*
X30250Y27875D01*X29250Y27875D01*X29250Y27125D01*G37*
G36*
X36000Y24500D02*G01*
X36000Y28500D01*X31500Y28500D01*X31500Y24500D01*G37*
G36*
X37950Y24500D02*G01*
X37950Y28500D01*X35550Y28500D01*X35550Y24500D01*G37*
M02*
