%FSLAX24Y24*%
%MOIN*%
%ADD10C,0.0079*%
%ADD11C,0.0099*%
%ADD12C,0.0119*%
%ADD13C,0.0139*%
%ADD14C,0.0394*%
D10*
G01X23761Y26261D02*
X23761Y26738D01*
X23603Y26738D02*
X23920Y26738D01*
X24317Y26261D02*
X24317Y26738D01*
X24317Y26738D02*
X24079Y26420D01*
X24079Y26420D02*
X24396Y26420D01*
X33365Y12011D02*
X33365Y12488D01*
X33365Y12488D02*
X33603Y12488D01*
X33603Y12488D02*
X33682Y12408D01*
X33682Y12408D02*
X33682Y12329D01*
X33682Y12329D02*
X33603Y12250D01*
X33603Y12250D02*
X33365Y12250D01*
X33365Y12250D02*
X33682Y12011D01*
X33841Y12329D02*
X33841Y12408D01*
X33841Y12408D02*
X33920Y12488D01*
X33920Y12488D02*
X34079Y12488D01*
X34079Y12488D02*
X34158Y12408D01*
X34158Y12408D02*
X34158Y12329D01*
X34158Y12329D02*
X33841Y12011D01*
X33841Y12011D02*
X34158Y12011D01*
X34396Y12011D02*
X34317Y12170D01*
X34317Y12170D02*
X34317Y12329D01*
X34317Y12329D02*
X34396Y12488D01*
X34396Y12488D02*
X34555Y12488D01*
X34555Y12488D02*
X34634Y12329D01*
X34634Y12329D02*
X34634Y12170D01*
X34634Y12170D02*
X34555Y12011D01*
X34555Y12011D02*
X34396Y12011D01*
X4511Y27761D02*
X4511Y28238D01*
X4353Y28238D02*
X4670Y28238D01*
X4988Y27761D02*
X4988Y28238D01*
X4988Y28238D02*
X4829Y28079D01*
X8853Y21761D02*
X8853Y22238D01*
X8853Y22238D02*
X9091Y22238D01*
X9091Y22238D02*
X9170Y22158D01*
X9170Y22158D02*
X9170Y21841D01*
X9170Y21841D02*
X9091Y21761D01*
X9091Y21761D02*
X8853Y21761D01*
X9329Y22158D02*
X9408Y22238D01*
X9408Y22238D02*
X9567Y22238D01*
X9567Y22238D02*
X9646Y22158D01*
X9646Y22158D02*
X9646Y22079D01*
X9646Y22079D02*
X9567Y22000D01*
X9567Y22000D02*
X9448Y22000D01*
X9567Y22000D02*
X9646Y21920D01*
X9646Y21920D02*
X9646Y21841D01*
X9646Y21841D02*
X9567Y21761D01*
X9567Y21761D02*
X9408Y21761D01*
X9408Y21761D02*
X9329Y21841D01*
X33365Y13261D02*
X33365Y13738D01*
X33365Y13738D02*
X33603Y13738D01*
X33603Y13738D02*
X33682Y13658D01*
X33682Y13658D02*
X33682Y13579D01*
X33682Y13579D02*
X33603Y13500D01*
X33603Y13500D02*
X33365Y13500D01*
X33365Y13500D02*
X33682Y13261D01*
X33841Y13579D02*
X33841Y13658D01*
X33841Y13658D02*
X33920Y13738D01*
X33920Y13738D02*
X34079Y13738D01*
X34079Y13738D02*
X34158Y13658D01*
X34158Y13658D02*
X34158Y13579D01*
X34158Y13579D02*
X33841Y13261D01*
X33841Y13261D02*
X34158Y13261D01*
X34317Y13579D02*
X34317Y13658D01*
X34317Y13658D02*
X34396Y13738D01*
X34396Y13738D02*
X34555Y13738D01*
X34555Y13738D02*
X34634Y13658D01*
X34634Y13658D02*
X34634Y13579D01*
X34634Y13579D02*
X34317Y13261D01*
X34317Y13261D02*
X34634Y13261D01*
X25170Y18591D02*
X25091Y18511D01*
X25091Y18511D02*
X24932Y18511D01*
X24932Y18511D02*
X24853Y18591D01*
X24853Y18591D02*
X24853Y18908D01*
X24853Y18908D02*
X24932Y18988D01*
X24932Y18988D02*
X25091Y18988D01*
X25091Y18988D02*
X25170Y18908D01*
X25329Y18908D02*
X25408Y18988D01*
X25408Y18988D02*
X25567Y18988D01*
X25567Y18988D02*
X25646Y18908D01*
X25646Y18908D02*
X25646Y18829D01*
X25646Y18829D02*
X25567Y18750D01*
X25567Y18750D02*
X25448Y18750D01*
X25567Y18750D02*
X25646Y18670D01*
X25646Y18670D02*
X25646Y18591D01*
X25646Y18591D02*
X25567Y18511D01*
X25567Y18511D02*
X25408Y18511D01*
X25408Y18511D02*
X25329Y18591D01*
X27865Y20261D02*
X27865Y20738D01*
X27865Y20738D02*
X28103Y20738D01*
X28103Y20738D02*
X28182Y20658D01*
X28182Y20658D02*
X28182Y20579D01*
X28182Y20579D02*
X28103Y20500D01*
X28103Y20500D02*
X27865Y20500D01*
X27865Y20500D02*
X28182Y20261D01*
X28500Y20261D02*
X28500Y20738D01*
X28500Y20738D02*
X28341Y20579D01*
X29055Y20738D02*
X28896Y20738D01*
X28896Y20738D02*
X28817Y20658D01*
X28817Y20658D02*
X28817Y20341D01*
X28817Y20341D02*
X28896Y20261D01*
X28896Y20261D02*
X29055Y20261D01*
X29055Y20261D02*
X29134Y20341D01*
X29134Y20341D02*
X29134Y20460D01*
X29134Y20460D02*
X29055Y20539D01*
X29055Y20539D02*
X28896Y20539D01*
X28896Y20539D02*
X28817Y20460D01*
X32853Y16761D02*
X32853Y17238D01*
X32853Y16920D02*
X33170Y17238D01*
X32932Y17000D02*
X33170Y16761D01*
X33329Y17079D02*
X33329Y17158D01*
X33329Y17158D02*
X33408Y17238D01*
X33408Y17238D02*
X33567Y17238D01*
X33567Y17238D02*
X33646Y17158D01*
X33646Y17158D02*
X33646Y17079D01*
X33646Y17079D02*
X33329Y16761D01*
X33329Y16761D02*
X33646Y16761D01*
X7603Y15761D02*
X7603Y16238D01*
X7603Y16238D02*
X7841Y16238D01*
X7841Y16238D02*
X7920Y16158D01*
X7920Y16158D02*
X7920Y16079D01*
X7920Y16079D02*
X7841Y16000D01*
X7841Y16000D02*
X7603Y16000D01*
X7603Y16000D02*
X7920Y15761D01*
X8079Y16079D02*
X8079Y16158D01*
X8079Y16158D02*
X8158Y16238D01*
X8158Y16238D02*
X8317Y16238D01*
X8317Y16238D02*
X8396Y16158D01*
X8396Y16158D02*
X8396Y16079D01*
X8396Y16079D02*
X8079Y15761D01*
X8079Y15761D02*
X8396Y15761D01*
X13603Y15511D02*
X13603Y15988D01*
X13603Y15988D02*
X13841Y15988D01*
X13841Y15988D02*
X13920Y15908D01*
X13920Y15908D02*
X13920Y15829D01*
X13920Y15829D02*
X13841Y15750D01*
X13841Y15750D02*
X13603Y15750D01*
X13603Y15750D02*
X13920Y15511D01*
X14317Y15988D02*
X14158Y15988D01*
X14158Y15988D02*
X14079Y15908D01*
X14079Y15908D02*
X14079Y15591D01*
X14079Y15591D02*
X14158Y15511D01*
X14158Y15511D02*
X14317Y15511D01*
X14317Y15511D02*
X14396Y15591D01*
X14396Y15591D02*
X14396Y15710D01*
X14396Y15710D02*
X14317Y15789D01*
X14317Y15789D02*
X14158Y15789D01*
X14158Y15789D02*
X14079Y15710D01*
X27420Y26341D02*
X27341Y26261D01*
X27341Y26261D02*
X27182Y26261D01*
X27182Y26261D02*
X27103Y26341D01*
X27103Y26341D02*
X27103Y26658D01*
X27103Y26658D02*
X27182Y26738D01*
X27182Y26738D02*
X27341Y26738D01*
X27341Y26738D02*
X27420Y26658D01*
X27817Y26261D02*
X27817Y26738D01*
X27817Y26738D02*
X27579Y26420D01*
X27579Y26420D02*
X27896Y26420D01*
X33103Y21761D02*
X33103Y22238D01*
X33103Y21920D02*
X33420Y22238D01*
X33182Y22000D02*
X33420Y21761D01*
X33579Y22158D02*
X33658Y22238D01*
X33658Y22238D02*
X33817Y22238D01*
X33817Y22238D02*
X33896Y22158D01*
X33896Y22158D02*
X33896Y22079D01*
X33896Y22079D02*
X33817Y22000D01*
X33817Y22000D02*
X33698Y22000D01*
X33817Y22000D02*
X33896Y21920D01*
X33896Y21920D02*
X33896Y21841D01*
X33896Y21841D02*
X33817Y21761D01*
X33817Y21761D02*
X33658Y21761D01*
X33658Y21761D02*
X33579Y21841D01*
X28420Y33091D02*
X28341Y33011D01*
X28341Y33011D02*
X28182Y33011D01*
X28182Y33011D02*
X28103Y33091D01*
X28103Y33091D02*
X28103Y33408D01*
X28103Y33408D02*
X28182Y33488D01*
X28182Y33488D02*
X28341Y33488D01*
X28341Y33488D02*
X28420Y33408D01*
X28817Y33488D02*
X28658Y33488D01*
X28658Y33488D02*
X28579Y33408D01*
X28579Y33408D02*
X28579Y33091D01*
X28579Y33091D02*
X28658Y33011D01*
X28658Y33011D02*
X28817Y33011D01*
X28817Y33011D02*
X28896Y33091D01*
X28896Y33091D02*
X28896Y33210D01*
X28896Y33210D02*
X28817Y33289D01*
X28817Y33289D02*
X28658Y33289D01*
X28658Y33289D02*
X28579Y33210D01*
X23615Y17011D02*
X23615Y17488D01*
X23615Y17488D02*
X23853Y17488D01*
X23853Y17488D02*
X23932Y17408D01*
X23932Y17408D02*
X23932Y17329D01*
X23932Y17329D02*
X23853Y17250D01*
X23853Y17250D02*
X23615Y17250D01*
X23615Y17250D02*
X23932Y17011D01*
X24250Y17011D02*
X24250Y17488D01*
X24250Y17488D02*
X24091Y17329D01*
X24805Y17011D02*
X24805Y17488D01*
X24805Y17488D02*
X24567Y17170D01*
X24567Y17170D02*
X24884Y17170D01*
X13603Y12511D02*
X13603Y12988D01*
X13603Y12988D02*
X13841Y12988D01*
X13841Y12988D02*
X13920Y12908D01*
X13920Y12908D02*
X13920Y12829D01*
X13920Y12829D02*
X13841Y12750D01*
X13841Y12750D02*
X13603Y12750D01*
X13603Y12750D02*
X13920Y12511D01*
X14317Y12511D02*
X14317Y12988D01*
X14317Y12988D02*
X14079Y12670D01*
X14079Y12670D02*
X14396Y12670D01*
X30170Y18591D02*
X30091Y18511D01*
X30091Y18511D02*
X29932Y18511D01*
X29932Y18511D02*
X29853Y18591D01*
X29853Y18591D02*
X29853Y18908D01*
X29853Y18908D02*
X29932Y18988D01*
X29932Y18988D02*
X30091Y18988D01*
X30091Y18988D02*
X30170Y18908D01*
X30329Y18988D02*
X30646Y18988D01*
X30646Y18988D02*
X30329Y18511D01*
X13523Y29011D02*
X13523Y29488D01*
X14000Y29091D02*
X13920Y29011D01*
X13920Y29011D02*
X13761Y29011D01*
X13761Y29011D02*
X13682Y29091D01*
X13682Y29091D02*
X13682Y29408D01*
X13682Y29408D02*
X13761Y29488D01*
X13761Y29488D02*
X13920Y29488D01*
X13920Y29488D02*
X14000Y29408D01*
X14317Y29011D02*
X14317Y29488D01*
X14317Y29488D02*
X14158Y29329D01*
X21365Y30261D02*
X21365Y30738D01*
X21365Y30738D02*
X21603Y30738D01*
X21603Y30738D02*
X21682Y30658D01*
X21682Y30658D02*
X21682Y30579D01*
X21682Y30579D02*
X21603Y30500D01*
X21603Y30500D02*
X21365Y30500D01*
X21365Y30500D02*
X21682Y30261D01*
X22000Y30261D02*
X22000Y30738D01*
X22000Y30738D02*
X21841Y30579D01*
X22317Y30579D02*
X22317Y30658D01*
X22317Y30658D02*
X22396Y30738D01*
X22396Y30738D02*
X22555Y30738D01*
X22555Y30738D02*
X22634Y30658D01*
X22634Y30658D02*
X22634Y30579D01*
X22634Y30579D02*
X22317Y30261D01*
X22317Y30261D02*
X22634Y30261D01*
X17261Y26011D02*
X17261Y26488D01*
X17103Y26488D02*
X17420Y26488D01*
X17579Y26408D02*
X17658Y26488D01*
X17658Y26488D02*
X17817Y26488D01*
X17817Y26488D02*
X17896Y26408D01*
X17896Y26408D02*
X17896Y26329D01*
X17896Y26329D02*
X17817Y26250D01*
X17817Y26250D02*
X17698Y26250D01*
X17817Y26250D02*
X17896Y26170D01*
X17896Y26170D02*
X17896Y26091D01*
X17896Y26091D02*
X17817Y26011D01*
X17817Y26011D02*
X17658Y26011D01*
X17658Y26011D02*
X17579Y26091D01*
X15365Y32761D02*
X15365Y33238D01*
X15365Y33238D02*
X15603Y33238D01*
X15603Y33238D02*
X15682Y33158D01*
X15682Y33158D02*
X15682Y33079D01*
X15682Y33079D02*
X15603Y33000D01*
X15603Y33000D02*
X15365Y33000D01*
X15365Y33000D02*
X15682Y32761D01*
X16000Y32761D02*
X16000Y33238D01*
X16000Y33238D02*
X15841Y33079D01*
X16396Y32761D02*
X16317Y32920D01*
X16317Y32920D02*
X16317Y33079D01*
X16317Y33079D02*
X16396Y33238D01*
X16396Y33238D02*
X16555Y33238D01*
X16555Y33238D02*
X16634Y33079D01*
X16634Y33079D02*
X16634Y32920D01*
X16634Y32920D02*
X16555Y32761D01*
X16555Y32761D02*
X16396Y32761D01*
X27170Y33091D02*
X27091Y33011D01*
X27091Y33011D02*
X26932Y33011D01*
X26932Y33011D02*
X26853Y33091D01*
X26853Y33091D02*
X26853Y33408D01*
X26853Y33408D02*
X26932Y33488D01*
X26932Y33488D02*
X27091Y33488D01*
X27091Y33488D02*
X27170Y33408D01*
X27329Y33488D02*
X27646Y33488D01*
X27329Y33488D02*
X27329Y33289D01*
X27329Y33289D02*
X27567Y33289D01*
X27567Y33289D02*
X27646Y33210D01*
X27646Y33210D02*
X27646Y33091D01*
X27646Y33091D02*
X27567Y33011D01*
X27567Y33011D02*
X27329Y33011D01*
X7603Y13761D02*
X7603Y14238D01*
X7603Y14238D02*
X7841Y14238D01*
X7841Y14238D02*
X7920Y14158D01*
X7920Y14158D02*
X7920Y14079D01*
X7920Y14079D02*
X7841Y14000D01*
X7841Y14000D02*
X7603Y14000D01*
X7603Y14000D02*
X7920Y13761D01*
X8238Y13761D02*
X8238Y14238D01*
X8238Y14238D02*
X8079Y14079D01*
X5103Y20761D02*
X5103Y21238D01*
X5103Y20920D02*
X5420Y21238D01*
X5182Y21000D02*
X5420Y20761D01*
X5738Y20761D02*
X5738Y21238D01*
X5738Y21238D02*
X5579Y21079D01*
X28865Y34511D02*
X28865Y34988D01*
X28865Y34988D02*
X29103Y34988D01*
X29103Y34988D02*
X29182Y34908D01*
X29182Y34908D02*
X29182Y34591D01*
X29182Y34591D02*
X29103Y34511D01*
X29103Y34511D02*
X28865Y34511D01*
X29500Y34511D02*
X29500Y34988D01*
X29500Y34988D02*
X29341Y34829D01*
X29976Y34511D02*
X29976Y34988D01*
X29976Y34988D02*
X29817Y34829D01*
X21103Y28761D02*
X21103Y29238D01*
X21103Y29238D02*
X21341Y29238D01*
X21341Y29238D02*
X21420Y29158D01*
X21420Y29158D02*
X21420Y28841D01*
X21420Y28841D02*
X21341Y28761D01*
X21341Y28761D02*
X21103Y28761D01*
X21579Y29238D02*
X21896Y29238D01*
X21579Y29238D02*
X21579Y29039D01*
X21579Y29039D02*
X21817Y29039D01*
X21817Y29039D02*
X21896Y28960D01*
X21896Y28960D02*
X21896Y28841D01*
X21896Y28841D02*
X21817Y28761D01*
X21817Y28761D02*
X21579Y28761D01*
X6420Y33591D02*
X6341Y33511D01*
X6341Y33511D02*
X6182Y33511D01*
X6182Y33511D02*
X6103Y33591D01*
X6103Y33591D02*
X6103Y33908D01*
X6103Y33908D02*
X6182Y33988D01*
X6182Y33988D02*
X6341Y33988D01*
X6341Y33988D02*
X6420Y33908D01*
X6738Y33511D02*
X6738Y33988D01*
X6738Y33988D02*
X6579Y33829D01*
X8103Y14761D02*
X8103Y15238D01*
X8103Y15238D02*
X8341Y15238D01*
X8341Y15238D02*
X8420Y15158D01*
X8420Y15158D02*
X8420Y14841D01*
X8420Y14841D02*
X8341Y14761D01*
X8341Y14761D02*
X8103Y14761D01*
X8738Y14761D02*
X8738Y15238D01*
X8738Y15238D02*
X8579Y15079D01*
X34865Y8091D02*
X34944Y8011D01*
X34944Y8011D02*
X35103Y8011D01*
X35103Y8011D02*
X35182Y8091D01*
X35182Y8091D02*
X35182Y8170D01*
X35182Y8170D02*
X35103Y8250D01*
X35103Y8250D02*
X34944Y8250D01*
X35103Y8488D02*
X35182Y8408D01*
X34944Y8488D02*
X35103Y8488D01*
X34865Y8408D02*
X34944Y8488D01*
X34865Y8329D02*
X34865Y8408D01*
X34944Y8250D02*
X34865Y8329D01*
X35341Y8488D02*
X35420Y8011D01*
X35420Y8011D02*
X35500Y8250D01*
X35500Y8250D02*
X35579Y8011D01*
X35579Y8011D02*
X35658Y8488D01*
X35976Y8011D02*
X35976Y8488D01*
X35976Y8488D02*
X35817Y8329D01*
X29365Y21761D02*
X29365Y22238D01*
X29365Y22238D02*
X29603Y22238D01*
X29603Y22238D02*
X29682Y22158D01*
X29682Y22158D02*
X29682Y22079D01*
X29682Y22079D02*
X29603Y22000D01*
X29603Y22000D02*
X29365Y22000D01*
X29365Y22000D02*
X29682Y21761D01*
X30000Y21761D02*
X30000Y22238D01*
X30000Y22238D02*
X29841Y22079D01*
X30317Y22238D02*
X30634Y22238D01*
X30634Y22238D02*
X30317Y21761D01*
X31523Y33761D02*
X31523Y34238D01*
X32000Y33841D02*
X31920Y33761D01*
X31920Y33761D02*
X31761Y33761D01*
X31761Y33761D02*
X31682Y33841D01*
X31682Y33841D02*
X31682Y34158D01*
X31682Y34158D02*
X31761Y34238D01*
X31761Y34238D02*
X31920Y34238D01*
X31920Y34238D02*
X32000Y34158D01*
X32158Y34158D02*
X32238Y34238D01*
X32238Y34238D02*
X32396Y34238D01*
X32396Y34238D02*
X32476Y34158D01*
X32476Y34158D02*
X32476Y34079D01*
X32476Y34079D02*
X32396Y34000D01*
X32396Y34000D02*
X32277Y34000D01*
X32396Y34000D02*
X32476Y33920D01*
X32476Y33920D02*
X32476Y33841D01*
X32476Y33841D02*
X32396Y33761D01*
X32396Y33761D02*
X32238Y33761D01*
X32238Y33761D02*
X32158Y33841D01*
X22853Y34261D02*
X22853Y34738D01*
X22853Y34738D02*
X23091Y34738D01*
X23091Y34738D02*
X23170Y34658D01*
X23170Y34658D02*
X23170Y34341D01*
X23170Y34341D02*
X23091Y34261D01*
X23091Y34261D02*
X22853Y34261D01*
X23329Y34738D02*
X23646Y34738D01*
X23646Y34738D02*
X23329Y34261D01*
X18353Y17011D02*
X18353Y17488D01*
X18353Y17488D02*
X18591Y17488D01*
X18591Y17488D02*
X18670Y17408D01*
X18670Y17408D02*
X18670Y17329D01*
X18670Y17329D02*
X18591Y17250D01*
X18591Y17250D02*
X18353Y17250D01*
X18353Y17250D02*
X18670Y17011D01*
X18908Y17011D02*
X18829Y17091D01*
X18829Y17091D02*
X18829Y17170D01*
X18829Y17170D02*
X18908Y17250D01*
X18908Y17250D02*
X19067Y17250D01*
X19067Y17250D02*
X19146Y17329D01*
X19146Y17329D02*
X19146Y17408D01*
X19146Y17408D02*
X19067Y17488D01*
X19067Y17488D02*
X18908Y17488D01*
X18908Y17488D02*
X18829Y17408D01*
X18829Y17408D02*
X18829Y17329D01*
X18829Y17329D02*
X18908Y17250D01*
X19067Y17250D02*
X19146Y17170D01*
X19146Y17170D02*
X19146Y17091D01*
X19146Y17091D02*
X19067Y17011D01*
X19067Y17011D02*
X18908Y17011D01*
X9103Y20261D02*
X9103Y20738D01*
X9103Y20738D02*
X9341Y20738D01*
X9341Y20738D02*
X9420Y20658D01*
X9420Y20658D02*
X9420Y20579D01*
X9420Y20579D02*
X9341Y20500D01*
X9341Y20500D02*
X9103Y20500D01*
X9103Y20500D02*
X9420Y20261D01*
X9579Y20658D02*
X9658Y20738D01*
X9658Y20738D02*
X9817Y20738D01*
X9817Y20738D02*
X9896Y20658D01*
X9896Y20658D02*
X9896Y20579D01*
X9896Y20579D02*
X9817Y20500D01*
X9817Y20500D02*
X9698Y20500D01*
X9817Y20500D02*
X9896Y20420D01*
X9896Y20420D02*
X9896Y20341D01*
X9896Y20341D02*
X9817Y20261D01*
X9817Y20261D02*
X9658Y20261D01*
X9658Y20261D02*
X9579Y20341D01*
X22865Y22261D02*
X22865Y22738D01*
X22865Y22738D02*
X23103Y22738D01*
X23103Y22738D02*
X23182Y22658D01*
X23182Y22658D02*
X23182Y22579D01*
X23182Y22579D02*
X23103Y22500D01*
X23103Y22500D02*
X22865Y22500D01*
X22865Y22500D02*
X23182Y22261D01*
X23500Y22261D02*
X23500Y22738D01*
X23500Y22738D02*
X23341Y22579D01*
X23817Y22658D02*
X23896Y22738D01*
X23896Y22738D02*
X24055Y22738D01*
X24055Y22738D02*
X24134Y22658D01*
X24134Y22658D02*
X24134Y22579D01*
X24134Y22579D02*
X24055Y22500D01*
X24055Y22500D02*
X23936Y22500D01*
X24055Y22500D02*
X24134Y22420D01*
X24134Y22420D02*
X24134Y22341D01*
X24134Y22341D02*
X24055Y22261D01*
X24055Y22261D02*
X23896Y22261D01*
X23896Y22261D02*
X23817Y22341D01*
X28865Y17011D02*
X28865Y17488D01*
X28865Y17488D02*
X29103Y17488D01*
X29103Y17488D02*
X29182Y17408D01*
X29182Y17408D02*
X29182Y17329D01*
X29182Y17329D02*
X29103Y17250D01*
X29103Y17250D02*
X28865Y17250D01*
X28865Y17250D02*
X29182Y17011D01*
X29500Y17011D02*
X29500Y17488D01*
X29500Y17488D02*
X29341Y17329D01*
X29896Y17011D02*
X30055Y17011D01*
X30055Y17011D02*
X30134Y17091D01*
X30134Y17091D02*
X30134Y17408D01*
X30134Y17408D02*
X30055Y17488D01*
X30055Y17488D02*
X29896Y17488D01*
X29896Y17488D02*
X29817Y17408D01*
X29817Y17408D02*
X29817Y17289D01*
X29817Y17289D02*
X29896Y17210D01*
X29896Y17210D02*
X30055Y17210D01*
X30055Y17210D02*
X30134Y17289D01*
X20261Y20511D02*
X20261Y20988D01*
X20103Y20988D02*
X20420Y20988D01*
X20579Y20829D02*
X20579Y20908D01*
X20579Y20908D02*
X20658Y20988D01*
X20658Y20988D02*
X20817Y20988D01*
X20817Y20988D02*
X20896Y20908D01*
X20896Y20908D02*
X20896Y20829D01*
X20896Y20829D02*
X20579Y20511D01*
X20579Y20511D02*
X20896Y20511D01*
X19603Y23761D02*
X19603Y24238D01*
X19603Y24238D02*
X19841Y24238D01*
X19841Y24238D02*
X19920Y24158D01*
X19920Y24158D02*
X19920Y24079D01*
X19920Y24079D02*
X19841Y24000D01*
X19841Y24000D02*
X19603Y24000D01*
X19603Y24000D02*
X19920Y23761D01*
X20158Y23761D02*
X20317Y23761D01*
X20317Y23761D02*
X20396Y23841D01*
X20396Y23841D02*
X20396Y24158D01*
X20396Y24158D02*
X20317Y24238D01*
X20317Y24238D02*
X20158Y24238D01*
X20158Y24238D02*
X20079Y24158D01*
X20079Y24158D02*
X20079Y24039D01*
X20079Y24039D02*
X20158Y23960D01*
X20158Y23960D02*
X20317Y23960D01*
X20317Y23960D02*
X20396Y24039D01*
X33365Y14511D02*
X33365Y14988D01*
X33365Y14988D02*
X33603Y14988D01*
X33603Y14988D02*
X33682Y14908D01*
X33682Y14908D02*
X33682Y14829D01*
X33682Y14829D02*
X33603Y14750D01*
X33603Y14750D02*
X33365Y14750D01*
X33365Y14750D02*
X33682Y14511D01*
X33841Y14829D02*
X33841Y14908D01*
X33841Y14908D02*
X33920Y14988D01*
X33920Y14988D02*
X34079Y14988D01*
X34079Y14988D02*
X34158Y14908D01*
X34158Y14908D02*
X34158Y14829D01*
X34158Y14829D02*
X33841Y14511D01*
X33841Y14511D02*
X34158Y14511D01*
X34476Y14511D02*
X34476Y14988D01*
X34476Y14988D02*
X34317Y14829D01*
X13603Y18261D02*
X13603Y18738D01*
X13603Y18738D02*
X13841Y18738D01*
X13841Y18738D02*
X13920Y18658D01*
X13920Y18658D02*
X13920Y18579D01*
X13920Y18579D02*
X13841Y18500D01*
X13841Y18500D02*
X13603Y18500D01*
X13603Y18500D02*
X13920Y18261D01*
X14079Y18738D02*
X14396Y18738D01*
X14396Y18738D02*
X14079Y18261D01*
X19920Y18591D02*
X19841Y18511D01*
X19841Y18511D02*
X19682Y18511D01*
X19682Y18511D02*
X19603Y18591D01*
X19603Y18591D02*
X19603Y18908D01*
X19603Y18908D02*
X19682Y18988D01*
X19682Y18988D02*
X19841Y18988D01*
X19841Y18988D02*
X19920Y18908D01*
X20079Y18829D02*
X20079Y18908D01*
X20079Y18908D02*
X20158Y18988D01*
X20158Y18988D02*
X20317Y18988D01*
X20317Y18988D02*
X20396Y18908D01*
X20396Y18908D02*
X20396Y18829D01*
X20396Y18829D02*
X20079Y18511D01*
X20079Y18511D02*
X20396Y18511D01*
X27365Y12511D02*
X27365Y12988D01*
X27365Y12988D02*
X27603Y12988D01*
X27603Y12988D02*
X27682Y12908D01*
X27682Y12908D02*
X27682Y12829D01*
X27682Y12829D02*
X27603Y12750D01*
X27603Y12750D02*
X27365Y12750D01*
X27365Y12750D02*
X27682Y12511D01*
X28000Y12511D02*
X28000Y12988D01*
X28000Y12988D02*
X27841Y12829D01*
X28396Y12511D02*
X28317Y12591D01*
X28317Y12591D02*
X28317Y12670D01*
X28317Y12670D02*
X28396Y12750D01*
X28396Y12750D02*
X28555Y12750D01*
X28555Y12750D02*
X28634Y12829D01*
X28634Y12829D02*
X28634Y12908D01*
X28634Y12908D02*
X28555Y12988D01*
X28555Y12988D02*
X28396Y12988D01*
X28396Y12988D02*
X28317Y12908D01*
X28317Y12908D02*
X28317Y12829D01*
X28317Y12829D02*
X28396Y12750D01*
X28555Y12750D02*
X28634Y12670D01*
X28634Y12670D02*
X28634Y12591D01*
X28634Y12591D02*
X28555Y12511D01*
X28555Y12511D02*
X28396Y12511D01*
X21365Y12511D02*
X21365Y12988D01*
X21365Y12988D02*
X21603Y12988D01*
X21603Y12988D02*
X21682Y12908D01*
X21682Y12908D02*
X21682Y12829D01*
X21682Y12829D02*
X21603Y12750D01*
X21603Y12750D02*
X21365Y12750D01*
X21365Y12750D02*
X21682Y12511D01*
X22000Y12511D02*
X22000Y12988D01*
X22000Y12988D02*
X21841Y12829D01*
X22476Y12511D02*
X22476Y12988D01*
X22476Y12988D02*
X22317Y12829D01*
X21365Y14011D02*
X21365Y14488D01*
X21365Y14488D02*
X21603Y14488D01*
X21603Y14488D02*
X21682Y14408D01*
X21682Y14408D02*
X21682Y14329D01*
X21682Y14329D02*
X21603Y14250D01*
X21603Y14250D02*
X21365Y14250D01*
X21365Y14250D02*
X21682Y14011D01*
X22000Y14011D02*
X22000Y14488D01*
X22000Y14488D02*
X21841Y14329D01*
X22317Y14488D02*
X22634Y14488D01*
X22317Y14488D02*
X22317Y14289D01*
X22317Y14289D02*
X22555Y14289D01*
X22555Y14289D02*
X22634Y14210D01*
X22634Y14210D02*
X22634Y14091D01*
X22634Y14091D02*
X22555Y14011D01*
X22555Y14011D02*
X22317Y14011D01*
X7103Y12761D02*
X7103Y13238D01*
X7103Y13238D02*
X7341Y13238D01*
X7341Y13238D02*
X7420Y13158D01*
X7420Y13158D02*
X7420Y12841D01*
X7420Y12841D02*
X7341Y12761D01*
X7341Y12761D02*
X7103Y12761D01*
X7579Y13079D02*
X7579Y13158D01*
X7579Y13158D02*
X7658Y13238D01*
X7658Y13238D02*
X7817Y13238D01*
X7817Y13238D02*
X7896Y13158D01*
X7896Y13158D02*
X7896Y13079D01*
X7896Y13079D02*
X7579Y12761D01*
X7579Y12761D02*
X7896Y12761D01*
X13603Y14011D02*
X13603Y14488D01*
X13603Y14488D02*
X13841Y14488D01*
X13841Y14488D02*
X13920Y14408D01*
X13920Y14408D02*
X13920Y14329D01*
X13920Y14329D02*
X13841Y14250D01*
X13841Y14250D02*
X13603Y14250D01*
X13603Y14250D02*
X13920Y14011D01*
X14079Y14488D02*
X14396Y14488D01*
X14079Y14488D02*
X14079Y14289D01*
X14079Y14289D02*
X14317Y14289D01*
X14317Y14289D02*
X14396Y14210D01*
X14396Y14210D02*
X14396Y14091D01*
X14396Y14091D02*
X14317Y14011D01*
X14317Y14011D02*
X14079Y14011D01*
X28865Y15511D02*
X28865Y15988D01*
X28865Y15988D02*
X29103Y15988D01*
X29103Y15988D02*
X29182Y15908D01*
X29182Y15908D02*
X29182Y15829D01*
X29182Y15829D02*
X29103Y15750D01*
X29103Y15750D02*
X28865Y15750D01*
X28865Y15750D02*
X29182Y15511D01*
X29341Y15511D02*
X29341Y15988D01*
X29341Y15988D02*
X29658Y15511D01*
X29658Y15511D02*
X29658Y15988D01*
X29976Y15511D02*
X29976Y15988D01*
X29976Y15988D02*
X29817Y15829D01*
X30023Y23761D02*
X30023Y24238D01*
X30500Y23841D02*
X30420Y23761D01*
X30420Y23761D02*
X30261Y23761D01*
X30261Y23761D02*
X30182Y23841D01*
X30182Y23841D02*
X30182Y24158D01*
X30182Y24158D02*
X30261Y24238D01*
X30261Y24238D02*
X30420Y24238D01*
X30420Y24238D02*
X30500Y24158D01*
X30658Y24079D02*
X30658Y24158D01*
X30658Y24158D02*
X30738Y24238D01*
X30738Y24238D02*
X30896Y24238D01*
X30896Y24238D02*
X30976Y24158D01*
X30976Y24158D02*
X30976Y24079D01*
X30976Y24079D02*
X30658Y23761D01*
X30658Y23761D02*
X30976Y23761D01*
X22333Y24261D02*
X22333Y24738D01*
X22492Y24261D02*
X22492Y24738D01*
X22492Y24738D02*
X22730Y24738D01*
X22730Y24738D02*
X22809Y24658D01*
X22809Y24658D02*
X22809Y24579D01*
X22809Y24579D02*
X22730Y24500D01*
X22730Y24500D02*
X22492Y24500D01*
X22492Y24500D02*
X22809Y24261D01*
X22968Y24261D02*
X22968Y24738D01*
X22968Y24738D02*
X23206Y24738D01*
X23206Y24738D02*
X23285Y24658D01*
X23285Y24658D02*
X23285Y24341D01*
X23285Y24341D02*
X23206Y24261D01*
X23206Y24261D02*
X22968Y24261D01*
X23444Y24261D02*
X23444Y24738D01*
X23444Y24738D02*
X23761Y24738D01*
X23682Y24500D02*
X23444Y24500D01*
X24000Y24261D02*
X24158Y24261D01*
X24158Y24261D02*
X24238Y24341D01*
X24238Y24341D02*
X24238Y24658D01*
X24238Y24658D02*
X24158Y24738D01*
X24158Y24738D02*
X24000Y24738D01*
X24000Y24738D02*
X23920Y24658D01*
X23920Y24658D02*
X23920Y24539D01*
X23920Y24539D02*
X24000Y24460D01*
X24000Y24460D02*
X24158Y24460D01*
X24158Y24460D02*
X24238Y24539D01*
X24476Y24261D02*
X24396Y24420D01*
X24396Y24420D02*
X24396Y24579D01*
X24396Y24579D02*
X24476Y24738D01*
X24476Y24738D02*
X24634Y24738D01*
X24634Y24738D02*
X24714Y24579D01*
X24714Y24579D02*
X24714Y24420D01*
X24714Y24420D02*
X24634Y24261D01*
X24634Y24261D02*
X24476Y24261D01*
X24873Y24579D02*
X24873Y24658D01*
X24873Y24658D02*
X24952Y24738D01*
X24952Y24738D02*
X25111Y24738D01*
X25111Y24738D02*
X25190Y24658D01*
X25190Y24658D02*
X25190Y24579D01*
X25190Y24579D02*
X24873Y24261D01*
X24873Y24261D02*
X25190Y24261D01*
X25587Y24261D02*
X25587Y24738D01*
X25587Y24738D02*
X25349Y24420D01*
X25349Y24420D02*
X25666Y24420D01*
X4115Y26992D02*
X4115Y27468D01*
X4115Y27468D02*
X3956Y27309D01*
X4511Y26992D02*
X4432Y27150D01*
X4432Y27150D02*
X4432Y27309D01*
X4432Y27309D02*
X4511Y27468D01*
X4511Y27468D02*
X4670Y27468D01*
X4670Y27468D02*
X4750Y27309D01*
X4750Y27309D02*
X4750Y27150D01*
X4750Y27150D02*
X4670Y26992D01*
X4670Y26992D02*
X4511Y26992D01*
X4908Y26992D02*
X4908Y27507D01*
X4908Y27150D02*
X5067Y27309D01*
X4908Y27150D02*
X5067Y26992D01*
X5226Y26992D02*
X5305Y26992D01*
X5305Y26992D02*
X5305Y27071D01*
X5305Y27071D02*
X5226Y27230D01*
X5226Y27230D02*
X5226Y27309D01*
X5226Y27309D02*
X5305Y27468D01*
X5305Y27468D02*
X5464Y27468D01*
X5464Y27468D02*
X5543Y27309D01*
X5543Y27309D02*
X5543Y27230D01*
X5543Y27230D02*
X5464Y27071D01*
X5464Y27071D02*
X5464Y26992D01*
X5464Y26992D02*
X5543Y26992D01*
X33698Y18841D02*
X33777Y18761D01*
X33777Y18761D02*
X33936Y18761D01*
X33936Y18761D02*
X34015Y18841D01*
X34015Y18841D02*
X34015Y18920D01*
X34015Y18920D02*
X33936Y19000D01*
X33936Y19000D02*
X33777Y19000D01*
X33936Y19238D02*
X34015Y19158D01*
X33777Y19238D02*
X33936Y19238D01*
X33698Y19158D02*
X33777Y19238D01*
X33698Y19079D02*
X33698Y19158D01*
X33777Y19000D02*
X33698Y19079D01*
X34174Y18761D02*
X34174Y19238D01*
X34174Y19238D02*
X34492Y19238D01*
X34412Y19000D02*
X34174Y19000D01*
X34174Y18761D02*
X34492Y18761D01*
X34650Y18761D02*
X34650Y19238D01*
X34650Y19238D02*
X34888Y19238D01*
X34888Y19238D02*
X34968Y19158D01*
X34968Y19158D02*
X34968Y19079D01*
X34968Y19079D02*
X34888Y19000D01*
X34888Y19000D02*
X34650Y19000D01*
X34650Y19000D02*
X34968Y18761D01*
X35126Y19238D02*
X35285Y18761D01*
X35285Y18761D02*
X35444Y19238D01*
X35603Y18841D02*
X35603Y19158D01*
X35603Y19158D02*
X35682Y19238D01*
X35682Y19238D02*
X35841Y19238D01*
X35841Y19238D02*
X35920Y19158D01*
X35920Y19158D02*
X35920Y18841D01*
X35920Y18841D02*
X35841Y18761D01*
X35841Y18761D02*
X35682Y18761D01*
X35682Y18761D02*
X35603Y18841D01*
X36714Y18761D02*
X36714Y19238D01*
X36714Y19238D02*
X36555Y19079D01*
X37031Y18920D02*
X37349Y18920D01*
X37507Y19079D02*
X37507Y19158D01*
X37507Y19158D02*
X37587Y19238D01*
X37587Y19238D02*
X37746Y19238D01*
X37746Y19238D02*
X37825Y19158D01*
X37825Y19158D02*
X37825Y19079D01*
X37825Y19079D02*
X37507Y18761D01*
X37507Y18761D02*
X37825Y18761D01*
X38142Y18761D02*
X38142Y19238D01*
X38142Y19238D02*
X37984Y19079D01*
X33698Y19841D02*
X33777Y19761D01*
X33777Y19761D02*
X33936Y19761D01*
X33936Y19761D02*
X34015Y19841D01*
X34015Y19841D02*
X34015Y19920D01*
X34015Y19920D02*
X33936Y20000D01*
X33936Y20000D02*
X33777Y20000D01*
X33936Y20238D02*
X34015Y20158D01*
X33777Y20238D02*
X33936Y20238D01*
X33698Y20158D02*
X33777Y20238D01*
X33698Y20079D02*
X33698Y20158D01*
X33777Y20000D02*
X33698Y20079D01*
X34174Y19761D02*
X34174Y20238D01*
X34174Y20238D02*
X34492Y20238D01*
X34412Y20000D02*
X34174Y20000D01*
X34174Y19761D02*
X34492Y19761D01*
X34650Y19761D02*
X34650Y20238D01*
X34650Y20238D02*
X34888Y20238D01*
X34888Y20238D02*
X34968Y20158D01*
X34968Y20158D02*
X34968Y20079D01*
X34968Y20079D02*
X34888Y20000D01*
X34888Y20000D02*
X34650Y20000D01*
X34650Y20000D02*
X34968Y19761D01*
X35126Y20238D02*
X35285Y19761D01*
X35285Y19761D02*
X35444Y20238D01*
X35603Y19841D02*
X35603Y20158D01*
X35603Y20158D02*
X35682Y20238D01*
X35682Y20238D02*
X35841Y20238D01*
X35841Y20238D02*
X35920Y20158D01*
X35920Y20158D02*
X35920Y19841D01*
X35920Y19841D02*
X35841Y19761D01*
X35841Y19761D02*
X35682Y19761D01*
X35682Y19761D02*
X35603Y19841D01*
X36634Y19761D02*
X36555Y19920D01*
X36555Y19920D02*
X36555Y20079D01*
X36555Y20079D02*
X36634Y20238D01*
X36634Y20238D02*
X36793Y20238D01*
X36793Y20238D02*
X36873Y20079D01*
X36873Y20079D02*
X36873Y19920D01*
X36873Y19920D02*
X36793Y19761D01*
X36793Y19761D02*
X36634Y19761D01*
X37031Y19920D02*
X37349Y19920D01*
X37507Y20079D02*
X37507Y20158D01*
X37507Y20158D02*
X37587Y20238D01*
X37587Y20238D02*
X37746Y20238D01*
X37746Y20238D02*
X37825Y20158D01*
X37825Y20158D02*
X37825Y20079D01*
X37825Y20079D02*
X37507Y19761D01*
X37507Y19761D02*
X37825Y19761D01*
X38063Y19761D02*
X37984Y19920D01*
X37984Y19920D02*
X37984Y20079D01*
X37984Y20079D02*
X38063Y20238D01*
X38063Y20238D02*
X38222Y20238D01*
X38222Y20238D02*
X38301Y20079D01*
X38301Y20079D02*
X38301Y19920D01*
X38301Y19920D02*
X38222Y19761D01*
X38222Y19761D02*
X38063Y19761D01*
X12650Y19738D02*
X12650Y19261D01*
X12650Y19261D02*
X12968Y19261D01*
X13126Y19261D02*
X13126Y19738D01*
X13126Y19738D02*
X13285Y19500D01*
X13285Y19500D02*
X13444Y19738D01*
X13444Y19738D02*
X13444Y19261D01*
X13603Y19658D02*
X13682Y19738D01*
X13682Y19738D02*
X13841Y19738D01*
X13841Y19738D02*
X13920Y19658D01*
X13920Y19658D02*
X13920Y19579D01*
X13920Y19579D02*
X13841Y19500D01*
X13841Y19500D02*
X13722Y19500D01*
X13841Y19500D02*
X13920Y19420D01*
X13920Y19420D02*
X13920Y19341D01*
X13920Y19341D02*
X13841Y19261D01*
X13841Y19261D02*
X13682Y19261D01*
X13682Y19261D02*
X13603Y19341D01*
X14238Y19261D02*
X14238Y19738D01*
X14238Y19738D02*
X14079Y19579D01*
X14555Y19738D02*
X14873Y19738D01*
X14873Y19738D02*
X14555Y19261D01*
X15190Y19261D02*
X15190Y19738D01*
X15031Y19738D02*
X15349Y19738D01*
X5587Y31261D02*
X5587Y31738D01*
X5587Y31738D02*
X5428Y31579D01*
X5984Y31261D02*
X5904Y31420D01*
X5904Y31420D02*
X5904Y31579D01*
X5904Y31579D02*
X5984Y31738D01*
X5984Y31738D02*
X6142Y31738D01*
X6142Y31738D02*
X6222Y31579D01*
X6222Y31579D02*
X6222Y31420D01*
X6222Y31420D02*
X6142Y31261D01*
X6142Y31261D02*
X5984Y31261D01*
X6460Y31261D02*
X6380Y31420D01*
X6380Y31420D02*
X6380Y31579D01*
X6380Y31579D02*
X6460Y31738D01*
X6460Y31738D02*
X6619Y31738D01*
X6619Y31738D02*
X6698Y31579D01*
X6698Y31579D02*
X6698Y31420D01*
X6698Y31420D02*
X6619Y31261D01*
X6619Y31261D02*
X6460Y31261D01*
X6857Y31261D02*
X6857Y31579D01*
X6857Y31500D02*
X6936Y31579D01*
X6936Y31579D02*
X7015Y31579D01*
X7095Y31500D02*
X7095Y31261D01*
X7015Y31579D02*
X7095Y31500D01*
X7253Y31261D02*
X7253Y31738D01*
X7253Y31738D02*
X7571Y31738D01*
X7492Y31500D02*
X7253Y31500D01*
X32876Y34238D02*
X33194Y34238D01*
X33194Y34238D02*
X32876Y33761D01*
X33432Y33761D02*
X33353Y33841D01*
X33353Y33841D02*
X33353Y33920D01*
X33353Y33920D02*
X33432Y34000D01*
X33432Y34000D02*
X33591Y34000D01*
X33591Y34000D02*
X33670Y34079D01*
X33670Y34079D02*
X33670Y34158D01*
X33670Y34158D02*
X33591Y34238D01*
X33591Y34238D02*
X33432Y34238D01*
X33432Y34238D02*
X33353Y34158D01*
X33353Y34158D02*
X33353Y34079D01*
X33353Y34079D02*
X33432Y34000D01*
X33591Y34000D02*
X33670Y33920D01*
X33670Y33920D02*
X33670Y33841D01*
X33670Y33841D02*
X33591Y33761D01*
X33591Y33761D02*
X33432Y33761D01*
X33988Y33761D02*
X33988Y34238D01*
X33988Y34238D02*
X33829Y34079D01*
X34384Y33761D02*
X34305Y33841D01*
X34305Y33841D02*
X34305Y33920D01*
X34305Y33920D02*
X34384Y34000D01*
X34384Y34000D02*
X34543Y34000D01*
X34543Y34000D02*
X34623Y34079D01*
X34623Y34079D02*
X34623Y34158D01*
X34623Y34158D02*
X34543Y34238D01*
X34543Y34238D02*
X34384Y34238D01*
X34384Y34238D02*
X34305Y34158D01*
X34305Y34158D02*
X34305Y34079D01*
X34305Y34079D02*
X34384Y34000D01*
X34543Y34000D02*
X34623Y33920D01*
X34623Y33920D02*
X34623Y33841D01*
X34623Y33841D02*
X34543Y33761D01*
X34543Y33761D02*
X34384Y33761D01*
X32126Y24238D02*
X32444Y24238D01*
X32444Y24238D02*
X32126Y23761D01*
X32682Y23761D02*
X32603Y23841D01*
X32603Y23841D02*
X32603Y23920D01*
X32603Y23920D02*
X32682Y24000D01*
X32682Y24000D02*
X32841Y24000D01*
X32841Y24000D02*
X32920Y24079D01*
X32920Y24079D02*
X32920Y24158D01*
X32920Y24158D02*
X32841Y24238D01*
X32841Y24238D02*
X32682Y24238D01*
X32682Y24238D02*
X32603Y24158D01*
X32603Y24158D02*
X32603Y24079D01*
X32603Y24079D02*
X32682Y24000D01*
X32841Y24000D02*
X32920Y23920D01*
X32920Y23920D02*
X32920Y23841D01*
X32920Y23841D02*
X32841Y23761D01*
X32841Y23761D02*
X32682Y23761D01*
X33158Y23761D02*
X33079Y23920D01*
X33079Y23920D02*
X33079Y24079D01*
X33079Y24079D02*
X33158Y24238D01*
X33158Y24238D02*
X33317Y24238D01*
X33317Y24238D02*
X33396Y24079D01*
X33396Y24079D02*
X33396Y23920D01*
X33396Y23920D02*
X33317Y23761D01*
X33317Y23761D02*
X33158Y23761D01*
X33555Y24238D02*
X33873Y24238D01*
X33555Y24238D02*
X33555Y24039D01*
X33555Y24039D02*
X33793Y24039D01*
X33793Y24039D02*
X33873Y23960D01*
X33873Y23960D02*
X33873Y23841D01*
X33873Y23841D02*
X33793Y23761D01*
X33793Y23761D02*
X33555Y23761D01*
X32900Y1250D02*
X32900Y1726D01*
X32900Y1726D02*
X33138Y1726D01*
X33138Y1726D02*
X33218Y1646D01*
X33218Y1646D02*
X33218Y1567D01*
X33218Y1567D02*
X33138Y1488D01*
X33138Y1488D02*
X32900Y1488D01*
X33376Y1726D02*
X33456Y1250D01*
X33456Y1250D02*
X33535Y1488D01*
X33535Y1488D02*
X33615Y1250D01*
X33615Y1250D02*
X33694Y1726D01*
X33853Y1250D02*
X33853Y1726D01*
X33853Y1726D02*
X34011Y1488D01*
X34011Y1488D02*
X34170Y1726D01*
X34170Y1726D02*
X34170Y1250D01*
X34329Y1408D02*
X34646Y1408D01*
X34805Y1567D02*
X34805Y1646D01*
X34805Y1646D02*
X34884Y1726D01*
X34884Y1726D02*
X35043Y1726D01*
X35043Y1726D02*
X35123Y1646D01*
X35123Y1646D02*
X35123Y1567D01*
X35123Y1567D02*
X34805Y1250D01*
X34805Y1250D02*
X35123Y1250D01*
X35281Y1646D02*
X35361Y1726D01*
X35361Y1726D02*
X35519Y1726D01*
X35519Y1726D02*
X35599Y1646D01*
X35599Y1646D02*
X35599Y1567D01*
X35599Y1567D02*
X35519Y1488D01*
X35519Y1488D02*
X35400Y1488D01*
X35519Y1488D02*
X35599Y1408D01*
X35599Y1408D02*
X35599Y1329D01*
X35599Y1329D02*
X35519Y1250D01*
X35519Y1250D02*
X35361Y1250D01*
X35361Y1250D02*
X35281Y1329D01*
X23138Y1250D02*
X23138Y1726D01*
X23138Y1726D02*
X23376Y1726D01*
X23376Y1726D02*
X23456Y1646D01*
X23456Y1646D02*
X23456Y1567D01*
X23456Y1567D02*
X23376Y1488D01*
X23376Y1488D02*
X23138Y1488D01*
X23615Y1567D02*
X23615Y1646D01*
X23615Y1646D02*
X23694Y1726D01*
X23694Y1726D02*
X23853Y1726D01*
X23853Y1726D02*
X23932Y1646D01*
X23932Y1646D02*
X23932Y1567D01*
X23932Y1567D02*
X23615Y1250D01*
X23615Y1250D02*
X23932Y1250D01*
X24091Y1408D02*
X24408Y1408D01*
X24726Y1250D02*
X24726Y1726D01*
X24726Y1726D02*
X24567Y1567D01*
X25123Y1250D02*
X25043Y1408D01*
X25043Y1408D02*
X25043Y1567D01*
X25043Y1567D02*
X25123Y1726D01*
X25123Y1726D02*
X25281Y1726D01*
X25281Y1726D02*
X25361Y1567D01*
X25361Y1567D02*
X25361Y1408D01*
X25361Y1408D02*
X25281Y1250D01*
X25281Y1250D02*
X25123Y1250D01*
X19888Y1250D02*
X19888Y1726D01*
X19888Y1726D02*
X20126Y1726D01*
X20126Y1726D02*
X20206Y1646D01*
X20206Y1646D02*
X20206Y1567D01*
X20206Y1567D02*
X20126Y1488D01*
X20126Y1488D02*
X19888Y1488D01*
X20365Y1646D02*
X20444Y1726D01*
X20444Y1726D02*
X20603Y1726D01*
X20603Y1726D02*
X20682Y1646D01*
X20682Y1646D02*
X20682Y1567D01*
X20682Y1567D02*
X20603Y1488D01*
X20603Y1488D02*
X20484Y1488D01*
X20603Y1488D02*
X20682Y1408D01*
X20682Y1408D02*
X20682Y1329D01*
X20682Y1329D02*
X20603Y1250D01*
X20603Y1250D02*
X20444Y1250D01*
X20444Y1250D02*
X20365Y1329D01*
X20841Y1408D02*
X21158Y1408D01*
X21476Y1250D02*
X21476Y1726D01*
X21476Y1726D02*
X21317Y1567D01*
X21952Y1250D02*
X21952Y1726D01*
X21952Y1726D02*
X21793Y1567D01*
X4698Y2500D02*
X4698Y2976D01*
X4539Y2976D02*
X4857Y2976D01*
X5015Y2500D02*
X5015Y2976D01*
X5015Y2976D02*
X5253Y2976D01*
X5253Y2976D02*
X5333Y2896D01*
X5333Y2896D02*
X5333Y2817D01*
X5333Y2817D02*
X5253Y2738D01*
X5253Y2738D02*
X5015Y2738D01*
X5968Y2500D02*
X5968Y2976D01*
X5968Y2976D02*
X6285Y2976D01*
X6206Y2738D02*
X5968Y2738D01*
X5968Y2500D02*
X6285Y2500D01*
X6761Y2579D02*
X6682Y2500D01*
X6682Y2500D02*
X6523Y2500D01*
X6523Y2500D02*
X6444Y2579D01*
X6444Y2579D02*
X6444Y2896D01*
X6444Y2896D02*
X6523Y2976D01*
X6523Y2976D02*
X6682Y2976D01*
X6682Y2976D02*
X6761Y2896D01*
X6920Y2500D02*
X6920Y2976D01*
X6920Y2976D02*
X7238Y2500D01*
X7238Y2500D02*
X7238Y2976D01*
X7873Y2738D02*
X8269Y2738D01*
X9063Y2500D02*
X9063Y2976D01*
X8904Y2976D02*
X9222Y2976D01*
X9380Y2658D02*
X9619Y2658D01*
X9619Y2658D02*
X9619Y2738D01*
X9619Y2738D02*
X9539Y2817D01*
X9539Y2817D02*
X9460Y2817D01*
X9460Y2817D02*
X9380Y2738D01*
X9380Y2738D02*
X9380Y2579D01*
X9380Y2579D02*
X9460Y2500D01*
X9460Y2500D02*
X9619Y2500D01*
X9777Y2658D02*
X10015Y2658D01*
X10015Y2658D02*
X10015Y2738D01*
X10015Y2738D02*
X9936Y2817D01*
X9936Y2817D02*
X9857Y2817D01*
X9857Y2817D02*
X9777Y2738D01*
X9777Y2738D02*
X9777Y2579D01*
X9777Y2579D02*
X9857Y2500D01*
X9857Y2500D02*
X10015Y2500D01*
X10174Y2500D02*
X10174Y2817D01*
X10174Y2738D02*
X10253Y2817D01*
X10253Y2817D02*
X10333Y2817D01*
X10412Y2738D02*
X10412Y2500D01*
X10333Y2817D02*
X10412Y2738D01*
X10571Y2500D02*
X10730Y2500D01*
X10730Y2500D02*
X10809Y2579D01*
X10809Y2579D02*
X10730Y2658D01*
X10730Y2658D02*
X10650Y2658D01*
X10650Y2658D02*
X10571Y2738D01*
X10571Y2738D02*
X10650Y2817D01*
X10650Y2817D02*
X10809Y2817D01*
X10968Y2341D02*
X11206Y2817D01*
X10968Y2817D02*
X11047Y2500D01*
X11841Y2896D02*
X11920Y2976D01*
X11920Y2976D02*
X12079Y2976D01*
X12079Y2976D02*
X12158Y2896D01*
X12158Y2896D02*
X12158Y2817D01*
X12158Y2817D02*
X12079Y2738D01*
X12079Y2738D02*
X11960Y2738D01*
X12079Y2738D02*
X12158Y2658D01*
X12158Y2658D02*
X12158Y2579D01*
X12158Y2579D02*
X12079Y2500D01*
X12079Y2500D02*
X11920Y2500D01*
X11920Y2500D02*
X11841Y2579D01*
X12317Y2500D02*
X12317Y2500D01*
X12634Y2500D02*
X12634Y2976D01*
X12634Y2976D02*
X12476Y2817D01*
X12952Y2500D02*
X13349Y2896D01*
X13507Y2896D02*
X13587Y2976D01*
X13587Y2976D02*
X13746Y2976D01*
X13746Y2976D02*
X13825Y2896D01*
X13825Y2896D02*
X13825Y2817D01*
X13825Y2817D02*
X13746Y2738D01*
X13746Y2738D02*
X13626Y2738D01*
X13746Y2738D02*
X13825Y2658D01*
X13825Y2658D02*
X13825Y2579D01*
X13825Y2579D02*
X13746Y2500D01*
X13746Y2500D02*
X13587Y2500D01*
X13587Y2500D02*
X13507Y2579D01*
X13984Y2500D02*
X13984Y2500D01*
X14142Y2817D02*
X14142Y2896D01*
X14142Y2896D02*
X14222Y2976D01*
X14222Y2976D02*
X14380Y2976D01*
X14380Y2976D02*
X14460Y2896D01*
X14460Y2896D02*
X14460Y2817D01*
X14460Y2817D02*
X14142Y2500D01*
X14142Y2500D02*
X14460Y2500D01*
X16638Y1250D02*
X16638Y1726D01*
X16638Y1726D02*
X16876Y1726D01*
X16876Y1726D02*
X16956Y1646D01*
X16956Y1646D02*
X16956Y1567D01*
X16956Y1567D02*
X16876Y1488D01*
X16876Y1488D02*
X16638Y1488D01*
X17353Y1250D02*
X17353Y1726D01*
X17353Y1726D02*
X17115Y1408D01*
X17115Y1408D02*
X17432Y1408D01*
X17591Y1408D02*
X17908Y1408D01*
X18226Y1250D02*
X18226Y1726D01*
X18226Y1726D02*
X18067Y1567D01*
X18543Y1567D02*
X18543Y1646D01*
X18543Y1646D02*
X18623Y1726D01*
X18623Y1726D02*
X18781Y1726D01*
X18781Y1726D02*
X18861Y1646D01*
X18861Y1646D02*
X18861Y1567D01*
X18861Y1567D02*
X18543Y1250D01*
X18543Y1250D02*
X18861Y1250D01*
X26626Y1250D02*
X26626Y1726D01*
X26626Y1726D02*
X26865Y1726D01*
X26865Y1726D02*
X26944Y1646D01*
X26944Y1646D02*
X26944Y1567D01*
X26944Y1567D02*
X26865Y1488D01*
X26865Y1488D02*
X26626Y1488D01*
X27261Y1250D02*
X27261Y1726D01*
X27261Y1726D02*
X27103Y1567D01*
X27579Y1408D02*
X27896Y1408D01*
X28134Y1250D02*
X28293Y1250D01*
X28293Y1250D02*
X28373Y1329D01*
X28373Y1329D02*
X28373Y1646D01*
X28373Y1646D02*
X28293Y1726D01*
X28293Y1726D02*
X28134Y1726D01*
X28134Y1726D02*
X28055Y1646D01*
X28055Y1646D02*
X28055Y1527D01*
X28055Y1527D02*
X28134Y1448D01*
X28134Y1448D02*
X28293Y1448D01*
X28293Y1448D02*
X28373Y1527D01*
X23376Y8976D02*
X23376Y8500D01*
X23376Y8500D02*
X23694Y8500D01*
X23853Y8817D02*
X23853Y8896D01*
X23853Y8896D02*
X23932Y8976D01*
X23932Y8976D02*
X24091Y8976D01*
X24091Y8976D02*
X24170Y8896D01*
X24170Y8896D02*
X24170Y8817D01*
X24170Y8817D02*
X23853Y8500D01*
X23853Y8500D02*
X24170Y8500D01*
X24329Y8658D02*
X24646Y8658D01*
X24805Y8976D02*
X25123Y8976D01*
X24805Y8976D02*
X24805Y8777D01*
X24805Y8777D02*
X25043Y8777D01*
X25043Y8777D02*
X25123Y8698D01*
X25123Y8698D02*
X25123Y8579D01*
X25123Y8579D02*
X25043Y8500D01*
X25043Y8500D02*
X24805Y8500D01*
X4726Y1500D02*
X4567Y1579D01*
X4567Y1579D02*
X4488Y1738D01*
X4488Y1738D02*
X4488Y1817D01*
X4488Y1817D02*
X4567Y1976D01*
X4567Y1976D02*
X4726Y2055D01*
X4726Y2055D02*
X4805Y2055D01*
X4805Y2055D02*
X4964Y1976D01*
X4964Y1976D02*
X5043Y1817D01*
X5043Y1817D02*
X5043Y1738D01*
X5043Y1738D02*
X4964Y1579D01*
X4964Y1579D02*
X4805Y1500D01*
X4805Y1500D02*
X4726Y1500D01*
X4845Y1658D02*
X4686Y1658D01*
X4686Y1658D02*
X4686Y1896D01*
X4686Y1896D02*
X4845Y1896D01*
X5678Y1500D02*
X5678Y1976D01*
X5678Y1976D02*
X5837Y1738D01*
X5837Y1738D02*
X5996Y1976D01*
X5996Y1976D02*
X5996Y1500D01*
X6234Y1500D02*
X6154Y1579D01*
X6154Y1579D02*
X6154Y1738D01*
X6154Y1738D02*
X6234Y1817D01*
X6234Y1817D02*
X6392Y1817D01*
X6392Y1817D02*
X6472Y1738D01*
X6472Y1738D02*
X6472Y1579D01*
X6472Y1579D02*
X6392Y1500D01*
X6392Y1500D02*
X6234Y1500D01*
X6630Y1500D02*
X6630Y2015D01*
X6789Y1500D02*
X6789Y1817D01*
X6789Y1976D02*
X6789Y1976D01*
X6948Y1500D02*
X6948Y1817D01*
X6948Y1738D02*
X7027Y1817D01*
X7027Y1817D02*
X7107Y1817D01*
X7186Y1738D02*
X7186Y1500D01*
X7107Y1817D02*
X7186Y1738D01*
X7384Y1817D02*
X7503Y1817D01*
X7503Y1817D02*
X7583Y1738D01*
X7583Y1738D02*
X7583Y1500D01*
X7583Y1500D02*
X7384Y1500D01*
X7384Y1500D02*
X7345Y1579D01*
X7345Y1579D02*
X7384Y1658D01*
X7384Y1658D02*
X7583Y1658D01*
X7742Y1500D02*
X7742Y1817D01*
X7742Y1738D02*
X7821Y1817D01*
X7821Y1817D02*
X7900Y1817D01*
X7900Y1817D02*
X7980Y1738D01*
X8218Y1500D02*
X8138Y1579D01*
X8138Y1579D02*
X8138Y1738D01*
X8138Y1738D02*
X8218Y1817D01*
X8218Y1817D02*
X8376Y1817D01*
X8376Y1817D02*
X8456Y1738D01*
X8456Y1738D02*
X8456Y1579D01*
X8456Y1579D02*
X8376Y1500D01*
X8376Y1500D02*
X8218Y1500D01*
X9091Y1738D02*
X9488Y1738D01*
X10123Y1500D02*
X10123Y1976D01*
X10123Y1976D02*
X10281Y1738D01*
X10281Y1738D02*
X10440Y1976D01*
X10440Y1976D02*
X10440Y1500D01*
X10638Y1817D02*
X10757Y1817D01*
X10757Y1817D02*
X10837Y1738D01*
X10837Y1738D02*
X10837Y1500D01*
X10837Y1500D02*
X10638Y1500D01*
X10638Y1500D02*
X10599Y1579D01*
X10599Y1579D02*
X10638Y1658D01*
X10638Y1658D02*
X10837Y1658D01*
X10996Y1500D02*
X10996Y1817D01*
X10996Y1738D02*
X11075Y1817D01*
X11075Y1817D02*
X11154Y1817D01*
X11154Y1817D02*
X11234Y1738D01*
X11392Y1500D02*
X11551Y1500D01*
X11551Y1500D02*
X11630Y1579D01*
X11630Y1579D02*
X11551Y1658D01*
X11551Y1658D02*
X11472Y1658D01*
X11472Y1658D02*
X11392Y1738D01*
X11392Y1738D02*
X11472Y1817D01*
X11472Y1817D02*
X11630Y1817D01*
X12265Y1817D02*
X12265Y1896D01*
X12265Y1896D02*
X12345Y1976D01*
X12345Y1976D02*
X12503Y1976D01*
X12503Y1976D02*
X12583Y1896D01*
X12583Y1896D02*
X12583Y1817D01*
X12583Y1817D02*
X12265Y1500D01*
X12265Y1500D02*
X12583Y1500D01*
X12821Y1500D02*
X12742Y1658D01*
X12742Y1658D02*
X12742Y1817D01*
X12742Y1817D02*
X12821Y1976D01*
X12821Y1976D02*
X12980Y1976D01*
X12980Y1976D02*
X13059Y1817D01*
X13059Y1817D02*
X13059Y1658D01*
X13059Y1658D02*
X12980Y1500D01*
X12980Y1500D02*
X12821Y1500D01*
X13376Y1500D02*
X13376Y1976D01*
X13376Y1976D02*
X13218Y1817D01*
X13694Y1976D02*
X14011Y1976D01*
X14011Y1976D02*
X13694Y1500D01*
X20126Y8976D02*
X20126Y8500D01*
X20126Y8500D02*
X20444Y8500D01*
X20603Y8896D02*
X20682Y8976D01*
X20682Y8976D02*
X20841Y8976D01*
X20841Y8976D02*
X20920Y8896D01*
X20920Y8896D02*
X20920Y8817D01*
X20920Y8817D02*
X20841Y8738D01*
X20841Y8738D02*
X20722Y8738D01*
X20841Y8738D02*
X20920Y8658D01*
X20920Y8658D02*
X20920Y8579D01*
X20920Y8579D02*
X20841Y8500D01*
X20841Y8500D02*
X20682Y8500D01*
X20682Y8500D02*
X20603Y8579D01*
X21079Y8658D02*
X21396Y8658D01*
X21793Y8976D02*
X21634Y8976D01*
X21634Y8976D02*
X21555Y8896D01*
X21555Y8896D02*
X21555Y8579D01*
X21555Y8579D02*
X21634Y8500D01*
X21634Y8500D02*
X21793Y8500D01*
X21793Y8500D02*
X21873Y8579D01*
X21873Y8579D02*
X21873Y8698D01*
X21873Y8698D02*
X21793Y8777D01*
X21793Y8777D02*
X21634Y8777D01*
X21634Y8777D02*
X21555Y8698D01*
X16876Y8976D02*
X16876Y8500D01*
X16876Y8500D02*
X17194Y8500D01*
X17591Y8500D02*
X17591Y8976D01*
X17591Y8976D02*
X17353Y8658D01*
X17353Y8658D02*
X17670Y8658D01*
X17829Y8658D02*
X18146Y8658D01*
X18305Y8976D02*
X18623Y8976D01*
X18623Y8976D02*
X18305Y8500D01*
X34626Y3829D02*
X34547Y3750D01*
X34547Y3750D02*
X34388Y3750D01*
X34388Y3750D02*
X34309Y3829D01*
X34309Y3829D02*
X34309Y4146D01*
X34309Y4146D02*
X34388Y4226D01*
X34388Y4226D02*
X34547Y4226D01*
X34547Y4226D02*
X34626Y4146D01*
X34785Y4226D02*
X34785Y3750D01*
X34785Y3750D02*
X35103Y3750D01*
X35261Y3750D02*
X35261Y4226D01*
X35738Y3829D02*
X35658Y3750D01*
X35658Y3750D02*
X35500Y3750D01*
X35500Y3750D02*
X35420Y3829D01*
X35420Y3829D02*
X35420Y4146D01*
X35420Y4146D02*
X35500Y4226D01*
X35500Y4226D02*
X35658Y4226D01*
X35658Y4226D02*
X35738Y4146D01*
X35896Y3908D02*
X36214Y3908D01*
X36373Y4067D02*
X36373Y4146D01*
X36373Y4146D02*
X36452Y4226D01*
X36452Y4226D02*
X36611Y4226D01*
X36611Y4226D02*
X36690Y4146D01*
X36690Y4146D02*
X36690Y4067D01*
X36690Y4067D02*
X36373Y3750D01*
X36373Y3750D02*
X36690Y3750D01*
X26626Y8976D02*
X26626Y8500D01*
X26626Y8500D02*
X26944Y8500D01*
X27261Y8500D02*
X27261Y8976D01*
X27261Y8976D02*
X27103Y8817D01*
X27579Y8658D02*
X27896Y8658D01*
X28293Y8500D02*
X28293Y8976D01*
X28293Y8976D02*
X28055Y8658D01*
X28055Y8658D02*
X28373Y8658D01*
X29876Y1250D02*
X29876Y1726D01*
X29876Y1726D02*
X30115Y1726D01*
X30115Y1726D02*
X30194Y1646D01*
X30194Y1646D02*
X30194Y1567D01*
X30194Y1567D02*
X30115Y1488D01*
X30115Y1488D02*
X29876Y1488D01*
X30432Y1250D02*
X30353Y1408D01*
X30353Y1408D02*
X30353Y1567D01*
X30353Y1567D02*
X30432Y1726D01*
X30432Y1726D02*
X30591Y1726D01*
X30591Y1726D02*
X30670Y1567D01*
X30670Y1567D02*
X30670Y1408D01*
X30670Y1408D02*
X30591Y1250D01*
X30591Y1250D02*
X30432Y1250D01*
X30829Y1408D02*
X31146Y1408D01*
X31384Y1250D02*
X31305Y1329D01*
X31305Y1329D02*
X31305Y1408D01*
X31305Y1408D02*
X31384Y1488D01*
X31384Y1488D02*
X31543Y1488D01*
X31543Y1488D02*
X31623Y1567D01*
X31623Y1567D02*
X31623Y1646D01*
X31623Y1646D02*
X31543Y1726D01*
X31543Y1726D02*
X31384Y1726D01*
X31384Y1726D02*
X31305Y1646D01*
X31305Y1646D02*
X31305Y1567D01*
X31305Y1567D02*
X31384Y1488D01*
X31543Y1488D02*
X31623Y1408D01*
X31623Y1408D02*
X31623Y1329D01*
X31623Y1329D02*
X31543Y1250D01*
X31543Y1250D02*
X31384Y1250D01*
X29876Y8976D02*
X29876Y8500D01*
X29876Y8500D02*
X30194Y8500D01*
X30432Y8500D02*
X30353Y8658D01*
X30353Y8658D02*
X30353Y8817D01*
X30353Y8817D02*
X30432Y8976D01*
X30432Y8976D02*
X30591Y8976D01*
X30591Y8976D02*
X30670Y8817D01*
X30670Y8817D02*
X30670Y8658D01*
X30670Y8658D02*
X30591Y8500D01*
X30591Y8500D02*
X30432Y8500D01*
X30829Y8658D02*
X31146Y8658D01*
X31305Y8896D02*
X31384Y8976D01*
X31384Y8976D02*
X31543Y8976D01*
X31543Y8976D02*
X31623Y8896D01*
X31623Y8896D02*
X31623Y8817D01*
X31623Y8817D02*
X31543Y8738D01*
X31543Y8738D02*
X31424Y8738D01*
X31543Y8738D02*
X31623Y8658D01*
X31623Y8658D02*
X31623Y8579D01*
X31623Y8579D02*
X31543Y8500D01*
X31543Y8500D02*
X31384Y8500D01*
X31384Y8500D02*
X31305Y8579D01*
X33912Y4500D02*
X33912Y4896D01*
X33912Y4896D02*
X33992Y4976D01*
X33992Y4976D02*
X34150Y4976D01*
X34150Y4976D02*
X34230Y4896D01*
X34230Y4896D02*
X34230Y4500D01*
X33912Y4738D02*
X34230Y4738D01*
X34388Y4658D02*
X34706Y4658D01*
X34944Y4500D02*
X34865Y4658D01*
X34865Y4658D02*
X34865Y4817D01*
X34865Y4817D02*
X34944Y4976D01*
X34944Y4976D02*
X35103Y4976D01*
X35103Y4976D02*
X35182Y4817D01*
X35182Y4817D02*
X35182Y4658D01*
X35182Y4658D02*
X35103Y4500D01*
X35103Y4500D02*
X34944Y4500D01*
X35817Y4500D02*
X36055Y4500D01*
X36055Y4500D02*
X36134Y4579D01*
X36134Y4579D02*
X36134Y4658D01*
X36134Y4658D02*
X36055Y4738D01*
X36055Y4738D02*
X35817Y4738D01*
X35817Y4500D02*
X35817Y4976D01*
X35817Y4976D02*
X36055Y4976D01*
X36055Y4976D02*
X36134Y4896D01*
X36134Y4896D02*
X36134Y4817D01*
X36134Y4817D02*
X36055Y4738D01*
X36293Y4658D02*
X36611Y4658D01*
X36928Y4500D02*
X36928Y4976D01*
X36928Y4976D02*
X36769Y4817D01*
D11*
G01X1404Y25047D02*
X1603Y25047D01*
X1603Y25047D02*
X1603Y24849D01*
X1603Y24849D02*
X1503Y24750D01*
X1503Y24750D02*
X1305Y24750D01*
X1305Y24750D02*
X1206Y24849D01*
X1206Y24849D02*
X1206Y25246D01*
X1206Y25246D02*
X1305Y25345D01*
X1305Y25345D02*
X1503Y25345D01*
X1503Y25345D02*
X1603Y25246D01*
X1801Y24750D02*
X1801Y25345D01*
X1801Y25345D02*
X2198Y24750D01*
X2198Y24750D02*
X2198Y25345D01*
X2396Y24750D02*
X2396Y25345D01*
X2396Y25345D02*
X2694Y25345D01*
X2694Y25345D02*
X2793Y25246D01*
X2793Y25246D02*
X2793Y24849D01*
X2793Y24849D02*
X2694Y24750D01*
X2694Y24750D02*
X2396Y24750D01*
D12*
G01X26119Y36654D02*
X26119Y37130D01*
X25880Y36892D02*
X26357Y36892D01*
X26357Y37607D02*
X25642Y37607D01*
X25642Y37369D02*
X25642Y37845D01*
X16154Y38357D02*
X16154Y37642D01*
X16154Y37642D02*
X16630Y37642D01*
X16988Y37642D02*
X16869Y37880D01*
X16869Y37880D02*
X16869Y38119D01*
X16869Y38119D02*
X16988Y38357D01*
X16988Y38357D02*
X17226Y38357D01*
X17226Y38357D02*
X17345Y38119D01*
X17345Y38119D02*
X17345Y37880D01*
X17345Y37880D02*
X17226Y37642D01*
X17226Y37642D02*
X16988Y37642D01*
X35500Y36535D02*
X35500Y36773D01*
X35500Y36773D02*
X35738Y36773D01*
X35738Y36773D02*
X35857Y36654D01*
X35857Y36654D02*
X35857Y36416D01*
X35857Y36416D02*
X35738Y36297D01*
X35738Y36297D02*
X35261Y36297D01*
X35261Y36297D02*
X35142Y36416D01*
X35142Y36416D02*
X35142Y36654D01*
X35142Y36654D02*
X35261Y36773D01*
X35857Y37011D02*
X35142Y37011D01*
X35142Y37011D02*
X35857Y37488D01*
X35857Y37488D02*
X35142Y37488D01*
X35857Y37726D02*
X35142Y37726D01*
X35142Y37726D02*
X35142Y38083D01*
X35142Y38083D02*
X35261Y38202D01*
X35261Y38202D02*
X35738Y38202D01*
X35738Y38202D02*
X35857Y38083D01*
X35857Y38083D02*
X35857Y37726D01*
X11404Y38357D02*
X11404Y37642D01*
X11404Y37642D02*
X11880Y37642D01*
X12357Y37642D02*
X12357Y38357D01*
X12357Y38357D02*
X12119Y38119D01*
X31107Y36297D02*
X30392Y36297D01*
X30392Y36297D02*
X30750Y36535D01*
X30750Y36535D02*
X30392Y36773D01*
X30392Y36773D02*
X31107Y36773D01*
X30988Y37011D02*
X30511Y37011D01*
X30511Y37011D02*
X30392Y37130D01*
X30392Y37130D02*
X30392Y37369D01*
X30392Y37369D02*
X30511Y37488D01*
X30511Y37488D02*
X30988Y37488D01*
X30988Y37488D02*
X31107Y37369D01*
X31107Y37369D02*
X31107Y37130D01*
X31107Y37130D02*
X30988Y37011D01*
X31107Y37964D02*
X30392Y37964D01*
X30392Y37726D02*
X30392Y38202D01*
X7154Y38357D02*
X7154Y37642D01*
X7154Y37642D02*
X7630Y37642D01*
X7869Y38119D02*
X7869Y38238D01*
X7869Y38238D02*
X7988Y38357D01*
X7988Y38357D02*
X8226Y38357D01*
X8226Y38357D02*
X8345Y38238D01*
X8345Y38238D02*
X8345Y38119D01*
X8345Y38119D02*
X7869Y37642D01*
X7869Y37642D02*
X8345Y37642D01*
D13*
G01X18301Y7505D02*
X18188Y7606D01*
X18061Y7680D01*
X17924Y7727D01*
X17782Y7747D01*
X17638Y7739D01*
X17498Y7704D01*
X17365Y7641D01*
X17244Y7551D01*
X17143Y7438D01*
X17069Y7311D01*
X17022Y7174D01*
X17002Y7032D01*
X17010Y6888D01*
X17045Y6748D01*
X17108Y6615D01*
X17198Y6494D01*
X17311Y6393D01*
X17438Y6319D01*
X17575Y6272D01*
X17717Y6252D01*
X17861Y6260D01*
X18001Y6295D01*
X18134Y6358D01*
X18255Y6448D01*
X18301Y6494D01*
X18301Y7505D02*
X18301Y6494D01*
X21750Y25250D02*
X21750Y27750D01*
X21750Y27750D02*
X26250Y27750D01*
X26250Y27750D02*
X26250Y25250D01*
X26250Y25250D02*
X21750Y25250D01*
X32625Y11750D02*
X35375Y11750D01*
X32000Y12249D02*
X32625Y12249D01*
X32625Y12750D02*
X32625Y11750D01*
X32625Y12750D02*
X35375Y12750D01*
X35375Y12750D02*
X35375Y11750D01*
X36000Y12249D02*
X35375Y12249D01*
X1500Y10999D02*
X15500Y10999D01*
X15500Y4000D02*
X15500Y10999D01*
X1500Y4000D02*
X15500Y4000D01*
X1500Y4000D02*
X1500Y10999D01*
X3250Y8750D02*
X1000Y8750D01*
X3250Y6250D02*
X1000Y6250D01*
X3250Y6250D02*
X3250Y8750D01*
X1000Y6250D02*
X1000Y8750D01*
X9250Y28500D02*
X1750Y28500D01*
X9250Y28500D02*
X9250Y30500D01*
X9250Y30500D02*
X1750Y30500D01*
X1750Y28500D02*
X1750Y30500D01*
X1750Y29000D02*
X1000Y29000D01*
X1750Y30000D02*
X1000Y30000D01*
X1000Y29000D02*
X1000Y30000D01*
X10750Y22000D02*
X10250Y22000D01*
X10250Y21475D02*
X10250Y22525D01*
X7750Y22000D02*
X8250Y22000D01*
X8250Y21475D02*
X8250Y22500D01*
X10250Y21475D02*
X8250Y21475D01*
X10250Y22525D02*
X8250Y22525D01*
X8500Y21475D02*
X8500Y22525D01*
X35375Y14000D02*
X32625Y14000D01*
X36000Y13500D02*
X35375Y13500D01*
X35375Y13000D02*
X35375Y14000D01*
X35375Y13000D02*
X32625Y13000D01*
X32625Y13000D02*
X32625Y14000D01*
X32000Y13500D02*
X32625Y13500D01*
X20500Y10250D02*
X20500Y9750D01*
X20750Y10500D02*
X21250Y10500D01*
X20500Y10250D02*
X20750Y10500D01*
X21250Y10500D02*
X21499Y10250D01*
X21499Y10250D02*
X21499Y9750D01*
X20500Y9750D02*
X20750Y9500D01*
X20750Y9500D02*
X21250Y9500D01*
X21250Y9500D02*
X21499Y9750D01*
X26750Y18250D02*
X23750Y18250D01*
X26750Y18250D02*
X26750Y19250D01*
X23750Y18250D02*
X23750Y19250D01*
X26750Y19250D02*
X23750Y19250D01*
X27124Y20000D02*
X29875Y20000D01*
X26499Y20500D02*
X27124Y20500D01*
X27124Y21000D02*
X27124Y20000D01*
X27124Y21000D02*
X29875Y21000D01*
X29875Y21000D02*
X29875Y20000D01*
X30500Y20500D02*
X29875Y20500D01*
X29750Y2750D02*
X31750Y2750D01*
X29750Y4750D02*
X31750Y4750D01*
X29750Y2750D02*
X29750Y4750D01*
X31750Y2750D02*
X31750Y4750D01*
X31103Y4103D02*
X30938Y4213D01*
X30750Y4249D01*
X30561Y4213D01*
X30396Y4103D01*
X30286Y3938D01*
X30250Y3750D01*
X30286Y3561D01*
X30396Y3396D01*
X30561Y3286D01*
X30750Y3250D01*
X30938Y3286D01*
X31103Y3396D01*
X31213Y3561D01*
X31250Y3750D01*
X31213Y3938D01*
X31103Y4103D01*
X35000Y18500D02*
X35000Y15500D01*
X35000Y18500D02*
X36000Y18500D01*
X35000Y15500D02*
X36000Y15500D01*
X36000Y18500D02*
X36000Y15500D01*
X36000Y18100D02*
X38300Y18100D01*
X36000Y17900D02*
X38300Y17900D01*
X38300Y18100D02*
X38500Y18000D01*
X38300Y17900D02*
X38500Y18000D01*
X36000Y17100D02*
X38300Y17100D01*
X36000Y16900D02*
X38300Y16900D01*
X38300Y17100D02*
X38500Y17000D01*
X38300Y16900D02*
X38500Y17000D01*
X36000Y16099D02*
X38300Y16099D01*
X36000Y15900D02*
X38300Y15900D01*
X38300Y16099D02*
X38500Y16000D01*
X38300Y15900D02*
X38500Y16000D01*
X34400Y18100D02*
X35000Y18100D01*
X34400Y17900D02*
X35000Y17900D01*
X34400Y18100D02*
X34400Y17900D01*
X34400Y17100D02*
X35000Y17100D01*
X34400Y16900D02*
X35000Y16900D01*
X34400Y17100D02*
X34400Y16900D01*
X34400Y16099D02*
X35000Y16099D01*
X34400Y15900D02*
X35000Y15900D01*
X34400Y16099D02*
X34400Y15900D01*
X6625Y15500D02*
X9375Y15500D01*
X6000Y16000D02*
X6625Y16000D01*
X6625Y16500D02*
X6625Y15500D01*
X6625Y16500D02*
X9375Y16500D01*
X9375Y16500D02*
X9375Y15500D01*
X10000Y16000D02*
X9375Y16000D01*
X23250Y2750D02*
X25250Y2750D01*
X23250Y4750D02*
X25250Y4750D01*
X23250Y2750D02*
X23250Y4750D01*
X25250Y2750D02*
X25250Y4750D01*
X24603Y4103D02*
X24438Y4213D01*
X24250Y4249D01*
X24061Y4213D01*
X23896Y4103D01*
X23786Y3938D01*
X23750Y3750D01*
X23786Y3561D01*
X23896Y3396D01*
X24061Y3286D01*
X24250Y3250D01*
X24438Y3286D01*
X24603Y3396D01*
X24713Y3561D01*
X24750Y3750D01*
X24713Y3938D01*
X24603Y4103D01*
X24801Y7505D02*
X24688Y7606D01*
X24561Y7680D01*
X24424Y7727D01*
X24282Y7747D01*
X24138Y7739D01*
X23998Y7704D01*
X23865Y7641D01*
X23744Y7551D01*
X23643Y7438D01*
X23569Y7311D01*
X23522Y7174D01*
X23502Y7032D01*
X23510Y6888D01*
X23545Y6748D01*
X23608Y6615D01*
X23698Y6494D01*
X23811Y6393D01*
X23938Y6319D01*
X24075Y6272D01*
X24217Y6252D01*
X24361Y6260D01*
X24501Y6295D01*
X24634Y6358D01*
X24755Y6448D01*
X24801Y6494D01*
X24801Y7505D02*
X24801Y6494D01*
X12625Y15250D02*
X15375Y15250D01*
X12000Y15750D02*
X12625Y15750D01*
X12625Y16250D02*
X12625Y15250D01*
X12625Y16250D02*
X15375Y16250D01*
X15375Y16250D02*
X15375Y15250D01*
X16000Y15750D02*
X15375Y15750D01*
X27000Y25000D02*
X27000Y28000D01*
X27000Y25000D02*
X28000Y25000D01*
X27000Y28000D02*
X28000Y28000D01*
X28000Y25000D02*
X28000Y28000D01*
X17250Y10250D02*
X17250Y9750D01*
X17499Y10500D02*
X18000Y10500D01*
X17250Y10250D02*
X17499Y10500D01*
X18000Y10500D02*
X18249Y10250D01*
X18249Y10250D02*
X18249Y9750D01*
X17250Y9750D02*
X17499Y9500D01*
X17499Y9500D02*
X18000Y9500D01*
X18000Y9500D02*
X18249Y9750D01*
X16750Y2750D02*
X18750Y2750D01*
X16750Y4750D02*
X18750Y4750D01*
X16750Y2750D02*
X16750Y4750D01*
X18750Y2750D02*
X18750Y4750D01*
X18103Y4103D02*
X17938Y4213D01*
X17749Y4249D01*
X17561Y4213D01*
X17396Y4103D01*
X17286Y3938D01*
X17250Y3750D01*
X17286Y3561D01*
X17396Y3396D01*
X17561Y3286D01*
X17749Y3250D01*
X17938Y3286D01*
X18103Y3396D01*
X18213Y3561D01*
X18249Y3750D01*
X18213Y3938D01*
X18103Y4103D01*
X35000Y23500D02*
X35000Y20500D01*
X35000Y23500D02*
X36000Y23500D01*
X35000Y20500D02*
X36000Y20500D01*
X36000Y23500D02*
X36000Y20500D01*
X36000Y23100D02*
X38300Y23100D01*
X36000Y22900D02*
X38300Y22900D01*
X38300Y23100D02*
X38500Y23000D01*
X38300Y22900D02*
X38500Y23000D01*
X36000Y22100D02*
X38300Y22099D01*
X36000Y21900D02*
X38300Y21899D01*
X38300Y22099D02*
X38500Y21999D01*
X38300Y21899D02*
X38500Y21999D01*
X36000Y21099D02*
X38300Y21099D01*
X36000Y20900D02*
X38300Y20900D01*
X38300Y21099D02*
X38500Y21000D01*
X38300Y20900D02*
X38500Y21000D01*
X34400Y23100D02*
X35000Y23100D01*
X34400Y22900D02*
X35000Y22900D01*
X34400Y23100D02*
X34400Y22900D01*
X34400Y22100D02*
X35000Y22100D01*
X34400Y21900D02*
X35000Y21900D01*
X34400Y22100D02*
X34400Y21900D01*
X34400Y21099D02*
X35000Y21099D01*
X34400Y20900D02*
X35000Y20900D01*
X34400Y21099D02*
X34400Y20900D01*
X28999Y32750D02*
X28999Y29750D01*
X28999Y32750D02*
X27999Y32750D01*
X28999Y29750D02*
X27999Y29750D01*
X27999Y32750D02*
X27999Y29750D01*
X22875Y16750D02*
X25625Y16750D01*
X22250Y17250D02*
X22875Y17250D01*
X22875Y17750D02*
X22875Y16750D01*
X22875Y17750D02*
X25625Y17750D01*
X25625Y17750D02*
X25625Y16750D01*
X26250Y17250D02*
X25625Y17250D01*
X12625Y12249D02*
X15375Y12249D01*
X12000Y12749D02*
X12625Y12749D01*
X12625Y13249D02*
X12625Y12249D01*
X12625Y13249D02*
X15375Y13249D01*
X15375Y13249D02*
X15375Y12249D01*
X16000Y12749D02*
X15375Y12749D01*
X31750Y18250D02*
X28750Y18250D01*
X31750Y18250D02*
X31750Y19250D01*
X28750Y18250D02*
X28750Y19250D01*
X31750Y19250D02*
X28750Y19250D01*
X30250Y10250D02*
X30250Y9750D01*
X30500Y10500D02*
X31000Y10500D01*
X30250Y10250D02*
X30500Y10500D01*
X31000Y10500D02*
X31250Y10250D01*
X31250Y10250D02*
X31250Y9750D01*
X30250Y9750D02*
X30500Y9500D01*
X30500Y9500D02*
X31000Y9500D01*
X31000Y9500D02*
X31250Y9750D01*
X13000Y22250D02*
X13000Y20500D01*
X14000Y22250D02*
X14000Y20500D01*
X15000Y22250D02*
X15000Y20500D01*
X12000Y28750D02*
X12000Y22250D01*
X16000Y28750D02*
X16000Y22250D01*
X12000Y28750D02*
X16000Y28750D01*
X12000Y22250D02*
X16000Y22250D01*
X20625Y30000D02*
X23375Y30000D01*
X20000Y30500D02*
X20625Y30500D01*
X20625Y31000D02*
X20625Y30000D01*
X20625Y31000D02*
X23375Y31000D01*
X23375Y31000D02*
X23375Y30000D01*
X24000Y30500D02*
X23375Y30500D01*
X18349Y25740D02*
X18516Y25624D01*
X18696Y25546D01*
X18885Y25506D01*
X19077Y25503D01*
X19266Y25536D01*
X19447Y25605D01*
X19613Y25710D01*
X19759Y25849D01*
X19875Y26016D01*
X19953Y26196D01*
X19993Y26385D01*
X19996Y26577D01*
X19963Y26766D01*
X19894Y26947D01*
X19789Y27113D01*
X19650Y27259D01*
X19502Y27364D01*
X19341Y27439D01*
X19172Y27484D01*
X19000Y27499D01*
X18827Y27485D01*
X18658Y27439D01*
X18497Y27364D01*
X18350Y27259D01*
X18349Y25740D02*
X18350Y27259D01*
X38875Y35375D02*
X38875Y11750D01*
X250Y35375D02*
X250Y11750D01*
X250Y35375D02*
X38875Y35375D01*
X250Y11750D02*
X38875Y11750D01*
X34755Y1948D02*
X34856Y2061D01*
X34930Y2188D01*
X34977Y2325D01*
X34997Y2467D01*
X34989Y2611D01*
X34954Y2751D01*
X34891Y2884D01*
X34801Y3005D01*
X34688Y3106D01*
X34561Y3180D01*
X34424Y3227D01*
X34282Y3247D01*
X34138Y3239D01*
X33998Y3204D01*
X33865Y3141D01*
X33744Y3051D01*
X33643Y2938D01*
X33569Y2811D01*
X33522Y2674D01*
X33502Y2532D01*
X33510Y2388D01*
X33545Y2248D01*
X33608Y2115D01*
X33698Y1994D01*
X33744Y1948D01*
X34755Y1948D02*
X33744Y1948D01*
X17374Y33500D02*
X14624Y33500D01*
X18000Y33000D02*
X17374Y33000D01*
X17374Y32500D02*
X17374Y33500D01*
X17374Y32500D02*
X14624Y32500D01*
X14624Y32500D02*
X14624Y33500D01*
X13999Y33000D02*
X14624Y33000D01*
X28000Y32750D02*
X28000Y29750D01*
X28000Y32750D02*
X26999Y32750D01*
X28000Y29750D02*
X26999Y29750D01*
X26999Y32750D02*
X26999Y29750D01*
X6625Y13499D02*
X9375Y13499D01*
X6000Y13999D02*
X6625Y13999D01*
X6625Y14499D02*
X6625Y13499D01*
X6625Y14499D02*
X9375Y14499D01*
X9375Y14499D02*
X9375Y13499D01*
X10000Y13999D02*
X9375Y13999D01*
X3698Y18000D02*
X3698Y23999D01*
X3698Y18000D02*
X391Y18000D01*
X391Y18000D02*
X391Y23999D01*
X3698Y23999D02*
X391Y23999D01*
X31000Y34749D02*
X30500Y34749D01*
X30500Y34224D02*
X30500Y35274D01*
X28000Y34749D02*
X28500Y34749D01*
X28500Y34224D02*
X28500Y35250D01*
X30500Y34224D02*
X28500Y34224D01*
X30500Y35274D02*
X28500Y35274D01*
X28750Y34224D02*
X28750Y35274D01*
X21551Y7505D02*
X21438Y7606D01*
X21311Y7680D01*
X21174Y7727D01*
X21032Y7747D01*
X20888Y7739D01*
X20748Y7704D01*
X20615Y7641D01*
X20494Y7551D01*
X20393Y7438D01*
X20319Y7311D01*
X20272Y7174D01*
X20252Y7032D01*
X20260Y6888D01*
X20295Y6748D01*
X20358Y6615D01*
X20448Y6494D01*
X20561Y6393D01*
X20688Y6319D01*
X20825Y6272D01*
X20967Y6252D01*
X21111Y6260D01*
X21251Y6295D01*
X21384Y6358D01*
X21505Y6448D01*
X21551Y6494D01*
X21551Y7505D02*
X21551Y6494D01*
X20000Y29000D02*
X20500Y29000D01*
X20500Y29525D02*
X20500Y28475D01*
X23000Y29000D02*
X22500Y29000D01*
X22500Y29525D02*
X22500Y28500D01*
X20500Y29525D02*
X22500Y29525D01*
X20500Y28475D02*
X22500Y28475D01*
X22250Y29525D02*
X22250Y28475D01*
X31301Y7505D02*
X31188Y7606D01*
X31061Y7680D01*
X30924Y7727D01*
X30782Y7747D01*
X30638Y7739D01*
X30498Y7704D01*
X30365Y7641D01*
X30244Y7551D01*
X30143Y7438D01*
X30069Y7311D01*
X30022Y7174D01*
X30002Y7032D01*
X30010Y6888D01*
X30045Y6748D01*
X30108Y6615D01*
X30198Y6494D01*
X30311Y6393D01*
X30438Y6319D01*
X30575Y6272D01*
X30717Y6252D01*
X30861Y6260D01*
X31001Y6295D01*
X31134Y6358D01*
X31255Y6448D01*
X31301Y6494D01*
X31301Y7505D02*
X31301Y6494D01*
X5000Y33250D02*
X8000Y33250D01*
X5000Y33250D02*
X5000Y32250D01*
X8000Y33250D02*
X8000Y32250D01*
X5000Y32250D02*
X8000Y32250D01*
X23750Y10250D02*
X23750Y9750D01*
X24000Y10500D02*
X24500Y10500D01*
X23750Y10250D02*
X24000Y10500D01*
X24500Y10500D02*
X24750Y10250D01*
X24750Y10250D02*
X24750Y9750D01*
X23750Y9750D02*
X24000Y9500D01*
X24000Y9500D02*
X24500Y9500D01*
X24500Y9500D02*
X24750Y9750D01*
X16500Y29250D02*
X16500Y28750D01*
X16750Y29500D02*
X17250Y29500D01*
X16500Y29250D02*
X16750Y29500D01*
X17250Y29500D02*
X17500Y29250D01*
X17500Y29250D02*
X17500Y28750D01*
X16500Y28750D02*
X16750Y28500D01*
X16750Y28500D02*
X17250Y28500D01*
X17250Y28500D02*
X17500Y28750D01*
X18250Y28500D02*
X18500Y28750D01*
X17500Y28750D02*
X17750Y28500D01*
X18500Y29250D02*
X18500Y28750D01*
X18250Y29500D02*
X18500Y29250D01*
X17500Y29250D02*
X17750Y29500D01*
X17750Y29500D02*
X18250Y29500D01*
X17750Y28500D02*
X18250Y28500D01*
X7000Y15000D02*
X7750Y15000D01*
X7750Y15375D02*
X7750Y14625D01*
X10000Y15000D02*
X9250Y15000D01*
X9250Y15375D02*
X9250Y14625D01*
X7750Y15375D02*
X9250Y15375D01*
X7750Y14625D02*
X9250Y14625D01*
X9000Y15375D02*
X9000Y14625D01*
X27000Y10250D02*
X27000Y9750D01*
X27250Y10500D02*
X27750Y10500D01*
X27000Y10250D02*
X27250Y10500D01*
X27750Y10500D02*
X28000Y10250D01*
X28000Y10250D02*
X28000Y9750D01*
X27000Y9750D02*
X27250Y9500D01*
X27250Y9500D02*
X27750Y9500D01*
X27750Y9500D02*
X28000Y9750D01*
X32925Y10564D02*
X32925Y5643D01*
X32925Y10564D02*
X33318Y10958D01*
X33318Y10958D02*
X37649Y10958D01*
X37649Y5250D02*
X38043Y5643D01*
X33318Y5250D02*
X32925Y5643D01*
X33318Y5250D02*
X37649Y5250D01*
X38043Y10564D02*
X38043Y5643D01*
X38043Y10564D02*
X37649Y10958D01*
X28625Y21500D02*
X31375Y21500D01*
X28000Y22000D02*
X28625Y22000D01*
X28625Y22500D02*
X28625Y21500D01*
X28625Y22500D02*
X31375Y22500D01*
X31375Y22500D02*
X31375Y21500D01*
X32000Y22000D02*
X31375Y22000D01*
X31500Y32250D02*
X29750Y32250D01*
X31500Y31250D02*
X29750Y31250D01*
X31500Y30250D02*
X29750Y30250D01*
X38000Y33250D02*
X31500Y33250D01*
X38000Y29250D02*
X31500Y29250D01*
X38000Y33250D02*
X38000Y29250D01*
X31500Y33250D02*
X31500Y29250D01*
X21999Y34500D02*
X22499Y34500D01*
X22499Y35025D02*
X22499Y33975D01*
X25000Y34500D02*
X24499Y34500D01*
X24499Y35025D02*
X24499Y34000D01*
X22499Y35025D02*
X24499Y35025D01*
X22499Y33975D02*
X24499Y33975D01*
X24249Y35025D02*
X24249Y33975D01*
X17625Y16750D02*
X20375Y16750D01*
X17000Y17250D02*
X17625Y17250D01*
X17625Y17750D02*
X17625Y16750D01*
X17625Y17750D02*
X20375Y17750D01*
X20375Y17750D02*
X20375Y16750D01*
X21000Y17250D02*
X20375Y17250D01*
X8125Y20000D02*
X10875Y20000D01*
X7500Y20500D02*
X8125Y20500D01*
X8125Y21000D02*
X8125Y20000D01*
X8125Y21000D02*
X10875Y21000D01*
X10875Y21000D02*
X10875Y20000D01*
X11500Y20500D02*
X10875Y20500D01*
X22124Y22000D02*
X24875Y22000D01*
X21499Y22500D02*
X22124Y22500D01*
X22124Y23000D02*
X22124Y22000D01*
X22124Y23000D02*
X24875Y23000D01*
X24875Y23000D02*
X24875Y22000D01*
X25500Y22500D02*
X24875Y22500D01*
X30875Y17750D02*
X28125Y17750D01*
X31500Y17250D02*
X30875Y17250D01*
X30875Y16750D02*
X30875Y17750D01*
X30875Y16750D02*
X28125Y16750D01*
X28125Y16750D02*
X28125Y17750D01*
X27500Y17250D02*
X28125Y17250D01*
X26500Y2750D02*
X28500Y2750D01*
X26500Y4750D02*
X28500Y4750D01*
X26500Y2750D02*
X26500Y4750D01*
X28500Y2750D02*
X28500Y4750D01*
X27853Y4103D02*
X27688Y4213D01*
X27500Y4249D01*
X27311Y4213D01*
X27146Y4103D01*
X27036Y3938D01*
X27000Y3750D01*
X27036Y3561D01*
X27146Y3396D01*
X27311Y3286D01*
X27500Y3250D01*
X27688Y3286D01*
X27853Y3396D01*
X27963Y3561D01*
X28000Y3750D01*
X27963Y3938D01*
X27853Y4103D01*
X18349Y20740D02*
X18516Y20624D01*
X18696Y20546D01*
X18885Y20506D01*
X19077Y20503D01*
X19266Y20536D01*
X19447Y20605D01*
X19613Y20710D01*
X19759Y20849D01*
X19875Y21016D01*
X19953Y21196D01*
X19993Y21385D01*
X19996Y21577D01*
X19963Y21766D01*
X19894Y21947D01*
X19789Y22113D01*
X19650Y22259D01*
X19502Y22364D01*
X19341Y22439D01*
X19172Y22484D01*
X19000Y22499D01*
X18827Y22485D01*
X18658Y22439D01*
X18497Y22364D01*
X18350Y22259D01*
X18349Y20740D02*
X18350Y22259D01*
X18625Y23500D02*
X21375Y23500D01*
X18000Y24000D02*
X18625Y24000D01*
X18625Y24500D02*
X18625Y23500D01*
X18625Y24500D02*
X21375Y24500D01*
X21375Y24500D02*
X21375Y23500D01*
X22000Y24000D02*
X21375Y24000D01*
X32625Y14250D02*
X35375Y14250D01*
X32000Y14750D02*
X32625Y14750D01*
X32625Y15250D02*
X32625Y14250D01*
X32625Y15250D02*
X35375Y15250D01*
X35375Y15250D02*
X35375Y14250D01*
X36000Y14750D02*
X35375Y14750D01*
X28051Y7505D02*
X27938Y7606D01*
X27811Y7680D01*
X27674Y7727D01*
X27532Y7747D01*
X27388Y7739D01*
X27248Y7704D01*
X27115Y7641D01*
X26994Y7551D01*
X26893Y7438D01*
X26819Y7311D01*
X26772Y7174D01*
X26752Y7032D01*
X26760Y6888D01*
X26795Y6748D01*
X26858Y6615D01*
X26948Y6494D01*
X27061Y6393D01*
X27188Y6319D01*
X27325Y6272D01*
X27467Y6252D01*
X27611Y6260D01*
X27751Y6295D01*
X27884Y6358D01*
X28005Y6448D01*
X28051Y6494D01*
X28051Y7505D02*
X28051Y6494D01*
X12625Y18000D02*
X15375Y18000D01*
X12000Y18500D02*
X12625Y18500D01*
X12625Y18999D02*
X12625Y18000D01*
X12625Y18999D02*
X15375Y18999D01*
X15375Y18999D02*
X15375Y18000D01*
X16000Y18500D02*
X15375Y18500D01*
X21500Y18250D02*
X18500Y18250D01*
X21500Y18250D02*
X21500Y19250D01*
X18500Y18250D02*
X18500Y19250D01*
X21500Y19250D02*
X18500Y19250D01*
X29375Y13249D02*
X26625Y13250D01*
X30000Y12750D02*
X29375Y12750D01*
X29375Y12249D02*
X29375Y13249D01*
X29375Y12249D02*
X26625Y12250D01*
X26625Y12250D02*
X26625Y13250D01*
X26000Y12750D02*
X26625Y12750D01*
X20625Y12249D02*
X23375Y12249D01*
X20000Y12749D02*
X20625Y12749D01*
X20625Y13249D02*
X20625Y12249D01*
X20625Y13249D02*
X23375Y13249D01*
X23375Y13249D02*
X23375Y12249D01*
X24000Y12749D02*
X23375Y12749D01*
X20000Y2750D02*
X21999Y2750D01*
X20000Y4750D02*
X21999Y4750D01*
X20000Y2750D02*
X20000Y4750D01*
X21999Y2750D02*
X21999Y4750D01*
X21353Y4103D02*
X21188Y4213D01*
X21000Y4249D01*
X20811Y4213D01*
X20646Y4103D01*
X20536Y3938D01*
X20500Y3750D01*
X20536Y3561D01*
X20646Y3396D01*
X20811Y3286D01*
X21000Y3250D01*
X21188Y3286D01*
X21353Y3396D01*
X21463Y3561D01*
X21499Y3750D01*
X21463Y3938D01*
X21353Y4103D01*
X23375Y14750D02*
X20625Y14750D01*
X24000Y14250D02*
X23375Y14250D01*
X23375Y13750D02*
X23375Y14750D01*
X23375Y13750D02*
X20625Y13750D01*
X20625Y13750D02*
X20625Y14750D01*
X20000Y14250D02*
X20625Y14250D01*
X9000Y13000D02*
X8250Y13000D01*
X8250Y12624D02*
X8250Y13374D01*
X6000Y13000D02*
X6750Y13000D01*
X6749Y12624D02*
X6750Y13374D01*
X8250Y12624D02*
X6749Y12624D01*
X8250Y13374D02*
X6750Y13374D01*
X7000Y12624D02*
X7000Y13374D01*
X12625Y13750D02*
X15375Y13750D01*
X12000Y14250D02*
X12625Y14250D01*
X12625Y14750D02*
X12625Y13750D01*
X12625Y14750D02*
X15375Y14750D01*
X15375Y14750D02*
X15375Y13750D01*
X16000Y14250D02*
X15375Y14250D01*
X18750Y16250D02*
X28750Y16250D01*
X18750Y15250D02*
X28750Y15250D01*
X28750Y16250D02*
X28750Y15250D01*
X18750Y16000D02*
X18832Y15978D01*
X18890Y15921D01*
X18925Y15841D01*
X18937Y15750D01*
X18925Y15658D01*
X18890Y15578D01*
X18832Y15521D01*
X18750Y15500D01*
X18750Y16250D02*
X18750Y16000D01*
X18750Y15500D02*
X18750Y15250D01*
X31500Y27500D02*
X29750Y27500D01*
X31500Y26500D02*
X29750Y26500D01*
X31500Y25500D02*
X29750Y25500D01*
X38000Y28500D02*
X31500Y28500D01*
X38000Y24500D02*
X31500Y24500D01*
X38000Y28500D02*
X38000Y24500D01*
X31500Y28500D02*
X31500Y24500D01*
D14*
G01X0Y0D02*
X0Y39370D01*
X39370Y39370D01*
X39370Y0D01*
X0Y0D01*
M02*
