M48
INCH
T1C0.0200
T2C0.0250
T3C0.0280
T4C0.0320
T5C0.0360
T6C0.0394
T7C0.0400
T8C0.0433
T9C0.0550
T10C0.1102
T11C0.1181
T12C0.1500
T13C0.1575
%
G05
M72
T1
X1.5954Y0.9684
T2
X1.9000Y2.6500
X1.9000Y2.7500
X1.9000Y2.5500
X1.9000Y2.1500
X1.9000Y2.2500
X1.9000Y2.0500
T3
X1.1000Y0.4500
X1.4000Y0.7500
X0.3000Y0.4500
X0.3000Y0.9500
X1.4000Y0.4500
X0.8000Y0.4500
X1.3000Y0.8500
X1.5000Y0.8500
X1.1000Y1.0500
X0.4000Y1.0500
X1.5000Y1.0500
X1.2000Y0.7500
X0.9000Y0.7500
X1.5000Y0.4500
X1.2000Y1.0500
X0.6000Y0.9500
X0.7000Y1.0500
X0.6000Y1.0500
X1.3000Y0.4500
X1.0000Y0.8500
X0.3000Y1.0500
X1.3000Y1.0500
X0.5000Y1.0500
X1.5000Y0.7500
X0.2000Y0.4500
X1.1000Y0.7500
X0.7000Y0.9500
X1.2000Y0.8500
X0.9000Y0.8500
X1.3000Y0.7500
X1.0000Y0.7500
X0.5000Y0.4500
X1.5000Y0.9500
X1.5000Y0.5500
X1.5000Y0.6500
X0.5000Y0.9500
X1.0000Y0.4500
X0.7000Y0.4500
X0.9000Y1.0500
X0.8000Y0.8500
X0.8000Y0.7500
X1.4000Y0.8500
X0.4000Y0.4500
X0.6000Y0.4500
X0.8000Y1.0500
X1.1000Y0.8500
X1.0000Y1.0500
X1.2000Y0.4500
X0.9000Y0.4500
X1.4000Y1.0500
X0.2000Y1.0500
T4
X1.7250Y0.7000
X1.8250Y0.7000
X2.5500Y2.6000
X2.2500Y2.6000
X2.2500Y2.7000
X2.5500Y2.7000
X3.2000Y1.2250
X3.6000Y1.2250
X0.5000Y3.0000
X0.8000Y2.9000
X0.3000Y2.9000
X3.6000Y1.3500
X3.2000Y1.3500
X2.1000Y1.0000
X2.4250Y1.8750
X2.6250Y1.8750
X2.6500Y2.0500
X3.0500Y2.0500
X0.6000Y1.6000
X1.0000Y1.6000
X2.3750Y0.7000
X2.4750Y0.7000
X1.2000Y1.5750
X1.6000Y1.5750
X2.7500Y2.7500
X2.7500Y2.5500
X1.7750Y1.0000
X2.8500Y3.0250
X2.8500Y3.2250
X2.2250Y1.7250
X2.6250Y1.7250
X1.2000Y1.2750
X1.6000Y1.2750
X2.9250Y1.8750
X3.1250Y1.8750
X3.0750Y1.0000
X2.0000Y3.0500
X2.4000Y3.0500
X3.4250Y0.3000
X3.4250Y0.2000
X1.8000Y3.3000
X1.4000Y3.3000
X2.7500Y3.0250
X2.7500Y3.2250
X0.6000Y1.4000
X1.0000Y1.4000
X2.0500Y0.7000
X2.1500Y0.7000
X3.0250Y0.7000
X3.1250Y0.7000
X0.7500Y3.2750
X0.5500Y3.2750
X2.4250Y1.0000
X1.8000Y2.9000
X1.7000Y2.9000
X1.0000Y1.5000
X0.7000Y1.5000
X2.7500Y1.0000
X2.8000Y2.2000
X3.2000Y2.2000
X1.7000Y1.7250
X2.1000Y1.7250
X0.7500Y2.0500
X1.1500Y2.0500
X2.1500Y2.2500
X2.5500Y2.2500
X3.1500Y1.7250
X2.7500Y1.7250
X1.8000Y2.4000
X2.2000Y2.4000
X3.2000Y1.4750
X3.6000Y1.4750
X2.7000Y0.7000
X2.8000Y0.7000
X1.2000Y1.8500
X1.6000Y1.8500
X1.9000Y1.8750
X2.1000Y1.8750
X3.0000Y1.2750
X2.6000Y1.2750
X2.0000Y1.2750
X2.4000Y1.2750
X2.4000Y1.4250
X2.0000Y1.4250
X0.6000Y1.3000
X0.9000Y1.3000
X1.2000Y1.4250
X1.6000Y1.4250
X2.0250Y1.5750
X2.4250Y1.5750
X2.5250Y1.5750
X2.3250Y1.5750
X2.6250Y1.5750
X2.8250Y1.5750
X2.7250Y1.5750
X1.9250Y1.5750
X2.1250Y1.5750
X2.2250Y1.5750
T5
X3.4500Y1.6000
X3.4500Y1.8000
X3.4500Y1.7000
X3.4500Y2.1000
X3.4500Y2.3000
X3.4500Y2.2000
X0.4250Y1.9500
X0.4250Y1.8500
X0.4250Y2.1500
X0.4250Y2.0500
X0.4250Y2.2500
X0.4250Y2.3500
T6
X1.4250Y3.4500
X0.9250Y3.4500
X0.7250Y3.4500
X1.2250Y3.4500
X1.9250Y3.4500
X0.6250Y3.4500
X0.8250Y3.4500
X0.4250Y3.4500
X1.1250Y3.4500
X1.6250Y3.4500
X1.5250Y3.4500
X0.5250Y3.4500
X1.8250Y3.4500
X1.7250Y3.4500
X1.0250Y3.4500
X1.3250Y3.4500
T7
X3.1750Y0.5250
X3.1750Y0.2250
X2.9750Y0.5250
X2.9750Y0.2250
X2.5250Y0.5250
X2.5250Y0.2250
X2.3250Y0.5250
X2.3250Y0.2250
X1.8750Y0.5250
X1.8750Y0.2250
X1.6750Y0.5250
X1.6750Y0.2250
X2.8500Y0.5250
X2.8500Y0.2250
X2.6500Y0.5250
X2.6500Y0.2250
X2.2000Y0.5250
X2.2000Y0.2250
X2.0000Y0.5250
X2.0000Y0.2250
T8
X0.7750Y2.2000
X1.0750Y2.2000
X2.8000Y3.4750
X3.1000Y3.4750
X2.3000Y2.9000
X2.0000Y2.9000
X3.6469Y0.5250
X3.4500Y1.0959
X3.4500Y0.5250
X3.6469Y1.0959
X3.5484Y1.0959
X2.5000Y3.4500
X2.2000Y3.4500
T9
X1.4000Y2.0500
X1.5000Y2.0500
X1.3000Y2.0500
X2.9750Y3.2250
X2.9750Y3.0250
X2.9750Y3.1250
X2.9750Y2.7500
X2.9750Y2.5500
X2.9750Y2.6500
T10
X3.2925Y0.8203
X3.8043Y0.8203
T11
X3.7250Y3.7250
X0.2000Y0.2250
X0.1250Y1.2750
X3.8000Y1.2750
X0.1250Y3.4500
X3.8000Y3.4500
X3.7250Y0.2250
X0.2000Y3.7250
T12
X1.4000Y2.7500
X3.6750Y3.1250
X3.6750Y2.6500
T13
X2.3500Y3.7250
X1.4500Y3.7250
X3.3250Y3.7250
X1.0000Y3.7250
X2.8500Y3.7250
X0.5500Y3.7250
T0
M30
